<svg width="52" height="52" viewBox="0 0 52 52" fill="none" xmlns="http://www.w3.org/2000/svg">
<path fill-rule="evenodd" clip-rule="evenodd" d="M51.6166 26.1718C51.6166 40.3943 40.1766 51.9236 26.0628 51.9236C11.9499 51.9236 0.508911 40.3943 0.508911 26.1718C0.508911 11.9492 11.9489 0.418945 26.0617 0.418945C40.1746 0.418945 51.6156 11.9492 51.6156 26.1718" fill="#1A1918"/>
<path d="M26.4926 16.1509L33.1059 32.5991L23.1172 24.6709L26.4926 16.1519V16.1509ZM38.2403 36.3878L28.069 11.7191C27.7787 11.0073 27.1972 10.6309 26.4926 10.6309C25.7869 10.6309 25.1644 11.0073 24.8741 11.718L13.709 38.7785H17.5285L21.948 27.6226L35.1377 38.3601C35.6669 38.7919 36.0505 38.9878 36.548 38.9878C37.5439 38.9878 38.4146 38.235 38.4146 37.1488C38.4146 36.9714 38.3531 36.6903 38.2403 36.3898V36.3878Z" fill="#ECF1F6"/>
</svg>
