<svg width="55" height="49" viewBox="0 0 55 49" fill="none" xmlns="http://www.w3.org/2000/svg">
<path d="M11.9415 46.4849L0.661962 26.9483C0.228303 26.1971 0 25.3451 0 24.4778C0 23.6105 0.228303 22.7584 0.661962 22.0073L11.9415 2.47069C12.3751 1.71953 12.9988 1.09575 13.75 0.662053C14.5011 0.228355 15.3531 2.05552e-05 16.2205 0H38.7794C39.6467 2.05552e-05 40.4988 0.228355 41.2499 0.662053C42.001 1.09575 42.6248 1.71953 43.0584 2.47069L54.338 22.0072C54.7717 22.7583 55 23.6103 55 24.4776C55 25.345 54.7717 26.197 54.338 26.9481L43.0585 46.4847C42.6249 47.2359 42.0012 47.8597 41.25 48.2934C40.4989 48.7271 39.6468 48.9554 38.7795 48.9554H16.2205C15.3532 48.9554 14.5011 48.7271 13.75 48.2934C12.9989 47.8598 12.3751 47.236 11.9415 46.4849Z" fill="url(#paint0_linear)"/>
<path d="M27.5002 9.86865L22.7737 14.5952V18.1663L27.5002 13.4398L32.2268 18.1663V14.5952L27.5002 9.86865Z" fill="white"/>
<path d="M27.5002 39.0872L22.7737 34.3607V30.7896L27.5002 35.5161L32.2268 30.7896V34.3607L27.5002 39.0872Z" fill="white"/>
<path d="M12.8909 24.478L17.6175 29.2045H21.1886L16.462 24.478L21.1886 19.7515H17.6175L12.8909 24.478Z" fill="white"/>
<path d="M42.1094 24.478L37.3829 29.2045H33.8118L38.5383 24.478L33.8118 19.7515H37.3829L42.1094 24.478Z" fill="white"/>
<path d="M22.7737 20.1812V28.7749C22.7737 29.0122 22.9661 29.2046 23.2034 29.2046H31.7971C32.0344 29.2046 32.2268 29.0122 32.2268 28.7749V20.1812C32.2268 19.9439 32.0344 19.7515 31.7971 19.7515H23.2034C22.9661 19.7515 22.7737 19.9439 22.7737 20.1812Z" fill="white"/>
<defs>
<linearGradient id="paint0_linear" x1="27.5" y1="0.000214843" x2="27.5" y2="48.8795" gradientUnits="userSpaceOnUse">
<stop stop-color="#4387FD"/>
<stop offset="1" stop-color="#4683EA"/>
</linearGradient>
</defs>
</svg>
