<svg width="55" height="49" viewBox="0 0 55 49" fill="none" xmlns="http://www.w3.org/2000/svg">
<path d="M11.9415 46.4847L0.661963 26.948C-0.220654 25.4193 -0.220654 23.5358 0.661963 22.0071L11.9415 2.47048C12.8241 0.941742 14.4553 0 16.2205 0H38.7795C40.5447 0 42.1759 0.941742 43.0585 2.47048L54.338 22.0071C55.2206 23.5358 55.2206 25.4193 54.338 26.948L43.0585 46.4846C42.1759 48.0134 40.5447 48.9551 38.7795 48.9551H16.2205C14.4553 48.9552 12.8241 48.0134 11.9415 46.4847Z" fill="url(#paint0_linear)"/>
<path d="M30.0054 21.5103L25.1033 21.5107C24.8163 21.5107 24.5811 21.7456 24.5811 22.0321L24.5817 26.9334C24.5817 27.2199 24.8168 27.4556 25.1033 27.4556H30.0046C30.2916 27.4556 30.5267 27.2199 30.5267 26.9334V22.0321C30.5267 21.7456 30.2922 21.5103 30.0054 21.5103Z" fill="white"/>
<path d="M37.765 21.1155C38.0225 21.1155 38.2331 20.9042 38.2331 20.6474V19.8839C38.2331 19.6272 38.0226 19.4158 37.765 19.4158H35.3806V17.187C35.3806 16.9007 35.145 16.6654 34.8591 16.6654H32.621L32.6215 14.2719C32.6215 14.0159 32.411 13.8043 32.1534 13.8043L31.3897 13.8048C31.1321 13.8048 30.9216 14.0159 30.9216 14.2726L30.9221 16.6653H28.4041V14.2718C28.4041 14.0159 28.1936 13.8042 27.9365 13.8042L27.1723 13.8047C26.9147 13.8047 26.7042 14.0159 26.7042 14.2726L26.7047 16.6653L24.1867 16.6656V14.2718C24.1867 14.0158 23.9761 13.8042 23.7191 13.8042L22.9551 13.8047C22.6981 13.8047 22.487 14.0158 22.487 14.2725L22.4875 16.6656H20.2501C19.9631 16.6656 19.7279 16.9006 19.7279 17.1869V19.4157H17.3436C17.087 19.4157 16.876 19.6269 16.876 19.8836L16.8765 20.6478C16.8765 20.9049 17.087 21.1154 17.3441 21.1154H19.7279L19.7284 23.6336L17.3436 23.6331C17.087 23.6331 16.876 23.844 16.876 24.101L16.8765 24.8644C16.8765 25.1223 17.087 25.3325 17.3441 25.3325H19.7284V27.8508L17.3436 27.8502C17.087 27.8502 16.876 28.0614 16.876 28.3181L16.8765 29.0815C16.8765 29.3394 17.087 29.5497 17.3441 29.5497H19.7284V31.7794C19.7284 32.0656 19.9635 32.301 20.25 32.301H22.4875V34.6932C22.4875 34.9509 22.6986 35.1613 22.9556 35.1613H23.7185C23.9755 35.1613 24.1861 34.951 24.1861 34.6932L24.1866 32.301H26.7041L26.7046 34.6932C26.7046 34.9509 26.9152 35.1613 27.1727 35.1613H27.936C28.1929 35.1613 28.4035 34.951 28.4035 34.6932L28.404 32.301H30.9215L30.922 34.6932C30.922 34.9509 31.1326 35.1613 31.3901 35.1613H32.1528C32.4103 35.1613 32.6209 34.951 32.6209 34.6932L32.6214 32.301H34.8584C35.1449 32.301 35.38 32.0656 35.38 31.7794L35.3805 29.5497L37.7649 29.5492C38.0224 29.5492 38.233 29.3391 38.233 29.0816V28.3189C38.233 28.0614 38.0225 27.8508 37.7649 27.8508H35.3806V25.3326L37.765 25.3321C38.0225 25.3321 38.2331 25.122 38.2331 24.8645V24.1018C38.2331 23.8443 38.0226 23.6336 37.765 23.6336H35.3806V21.1154H37.765V21.1155ZM33.6198 30.5492H21.4882V18.417L33.6209 18.4165L33.6198 30.5492Z" fill="white"/>
<defs>
<linearGradient id="paint0_linear" x1="27.5" y1="0" x2="27.5" y2="48.8792" gradientUnits="userSpaceOnUse">
<stop stop-color="#4387FD"/>
<stop offset="1" stop-color="#4683EA"/>
</linearGradient>
</defs>
</svg>
