<svg width="54" height="58" viewBox="0 0 54 58" fill="none" xmlns="http://www.w3.org/2000/svg">
<path d="M54 19.2802C54 12.2735 48.3074 6.57391 41.3095 6.57391C39.6835 6.57391 38.0703 6.88753 36.5712 7.48844C34.0962 3.47164 29.6575 0.946289 24.8889 0.946289C17.9687 0.946289 12.2159 6.06252 11.3066 12.7954C8.52266 13.4864 6.17519 15.374 4.90666 17.9655C2.07998 18.9918 0.164322 21.6827 0.164322 24.7481C0.164322 28.7304 3.40409 31.9702 7.38637 31.9702H12.1978L19.0711 49.8284C20.9674 54.3139 25.3394 57.212 30.2087 57.212C36.8749 57.212 42.2972 51.7885 42.2972 45.1247L42.3135 31.9257C48.8422 31.4137 54 25.94 54 19.2802ZM28.7974 27.2928C28.7974 26.4502 29.3726 25.7381 30.0525 25.7381C30.7324 25.7381 31.3081 26.4502 31.3081 27.2928V35.3744C31.3081 35.8413 31.6885 36.221 32.1554 36.221C32.6241 36.221 33.0026 35.8413 33.0026 35.3744V27.2928C33.0026 26.4502 33.5778 25.7381 34.2583 25.7381C34.9394 25.7381 35.5139 26.4502 35.5139 27.2928V35.3744C35.5139 35.8413 35.8931 36.221 36.3618 36.221C36.8304 36.221 37.209 35.8413 37.209 35.3744V29.4126C37.209 28.5689 37.7848 27.8574 38.4647 27.8574C39.1451 27.8574 39.7203 28.5689 39.7203 29.4109L39.7004 45.1241C39.7004 50.3585 35.4426 54.6164 30.2087 54.6164C26.385 54.6164 22.9527 52.3409 21.4724 48.8454L14.5136 30.7602C14.3141 30.2529 14.5628 29.6297 15.0789 29.3892L15.5306 29.161C16.0244 28.9311 16.6616 29.1411 16.9208 29.618L22.9949 40.8007C23.1803 41.1418 23.5747 41.3133 23.9486 41.2173C24.3242 41.1219 24.5881 40.7826 24.5881 40.3958L24.5916 16.2704C24.5916 15.4278 25.1662 14.7152 25.8467 14.7152C26.5272 14.7152 27.1018 15.4278 27.1018 17.1188L27.1047 35.3738C27.1047 35.8407 27.4844 36.2204 27.9531 36.2204C28.4218 36.2204 28.8009 35.8407 28.8009 35.3738L28.7974 27.2928ZM21.1541 31.9713H21.9931L21.9926 33.5154L21.1541 31.9713ZM42.2913 28.9545C42.0795 26.8803 40.4447 25.2601 38.4647 25.2601C38.1955 25.2601 37.9264 25.2911 37.6636 25.3537C37.0107 24.0132 35.717 23.1414 34.2583 23.1414C33.4988 23.1414 32.775 23.376 32.1554 23.8137C31.5363 23.376 30.8126 23.1414 30.0525 23.1414C29.9343 23.1414 29.8161 23.1472 29.6997 23.1584V16.271C29.6997 13.9814 27.9712 12.1196 25.8473 12.1196C23.7233 12.1196 21.9955 13.982 21.9955 16.271L21.9937 29.0042H19.5421L19.2039 28.3822C18.5667 27.2079 17.3228 26.4789 15.9577 26.4789C15.4176 26.4789 14.8969 26.5936 14.3867 26.8323L13.9595 27.0482C13.1018 27.4478 12.4646 28.1675 12.1258 29.0048H7.38754C5.04124 29.0048 3.1326 27.0956 3.1326 24.7505C3.1326 22.795 4.45496 21.0988 6.34838 20.626C6.81062 20.5107 7.18919 20.1801 7.3659 19.7372C8.28862 17.433 10.3921 15.8187 12.8566 15.525C13.5757 15.439 14.1275 14.8468 14.1626 14.1236C14.4434 8.39946 19.1548 3.91515 24.8895 3.91515C29.0145 3.91515 32.8248 6.32758 34.5971 10.0618C34.772 10.4298 35.0903 10.7101 35.4788 10.837C35.8673 10.9628 36.291 10.9236 36.6485 10.7276C38.068 9.95177 39.6799 9.54277 41.3101 9.54277C46.6726 9.54277 51.0341 13.9112 51.0341 19.282C51.0335 24.3104 47.194 28.4601 42.2913 28.9545Z" fill="#185BCF"/>
</svg>
