<svg width="90" height="44" viewBox="0 0 90 44" fill="none" xmlns="http://www.w3.org/2000/svg">
<path d="M57.6194 15.765C57.6131 16.0735 57.2629 16.4093 57.008 16.6696C51.2818 22.5416 45.5432 28.399 39.8129 34.2669C38.3808 35.7339 37.0316 37.2869 35.5457 38.6909C30.2609 43.6815 19.5049 45.4108 11.4659 40.332C0.363715 33.3141 -2.5232 18.785 5.49926 8.71772C10.2763 2.72393 16.6304 -0.157539 24.2259 0.253791C29.3739 0.532917 33.5893 3.12058 37.2513 6.67992C37.3156 6.74078 37.3321 6.84991 37.4005 7.00731H30.7562V13.7902C29.6309 13.0809 28.6693 12.424 27.6621 11.8489C22.8105 9.08288 16.8563 10.8626 14.272 13.5447C10.9208 17.0221 10.5125 21.2342 11.7871 25.633C13.0119 29.8555 16.0688 32.2018 20.3028 32.9237C25.0073 33.7233 28.8579 32.1745 31.8173 28.3738C32.0308 28.101 32.2712 27.8471 32.5157 27.5994C38.302 21.6917 44.0966 15.7902 49.8684 9.86569C50.3948 9.32213 50.9212 9.0661 51.6735 9.08288C53.632 9.12276 55.5904 9.09548 57.6484 9.09548C57.6484 11.3788 57.6732 13.574 57.6194 15.765Z" fill="#0E2C3D"/>
<path d="M89.3117 24.254C88.1387 36.1724 76.4294 44.7013 65.9283 43.3204C60.4901 42.6069 56.0074 40.4284 52.4076 36.2311C50.5341 34.0443 48.4596 32.0317 46.5674 30.0379C48.8409 27.7378 51.0999 25.4524 53.4293 23.0956C53.4728 23.1333 53.7111 23.3201 53.9163 23.5363C55.709 25.4272 57.5265 27.2929 59.2736 29.2237C63.0206 33.3643 69.1364 34.3885 73.9487 31.5868C77.1941 29.6959 78.8728 26.741 79.1546 23.0284C79.2686 21.5174 79.1754 19.9329 78.8521 18.4554C77.9195 14.1993 74.6491 11.4102 70.2348 10.6505C66.8567 10.067 63.8848 10.9275 61.1181 12.8205C60.6953 13.1101 60.287 13.4228 59.6715 13.8719V7.03867H53.0086C53.0873 6.86238 53.1101 6.72177 53.191 6.64412C57.3815 2.65875 62.1543 0.0102382 68.0919 0.186519C79.2064 0.51391 90.7418 9.72916 89.3117 24.254Z" fill="#21CB62"/>
<path d="M44.1504 13.3872C41.7215 15.851 39.4604 18.1469 37.1434 20.4932C35.8171 19.1396 34.4264 17.7314 33.0545 16.3064C32.9032 16.149 32.7788 15.8867 32.7768 15.6726C32.756 13.511 32.7643 11.3494 32.7643 9.12058C35.0917 9.12058 37.3258 9.11008 39.5578 9.13527C39.763 9.13737 39.9972 9.32834 40.163 9.48784C41.5101 10.7911 42.8468 12.1091 44.1504 13.3872Z" fill="#21CB62"/>
</svg>
