<svg width="123" height="88" viewBox="0 0 123 88" fill="none" xmlns="http://www.w3.org/2000/svg">
<path d="M67.2254 39.9677H54.6901V28.3471H67.2254V39.9677ZM67.2254 0H54.6901V11.8749H67.2254V0ZM82.0555 28.3276H69.5201V39.9481H82.0555V28.3276ZM52.4144 14.2225H39.879V25.98H52.4144V14.2225ZM67.2254 14.2225H54.6901V25.98H67.2254V14.2225ZM119.718 33.7857C116.988 31.8881 110.691 31.2034 105.856 32.1424C105.23 27.4472 102.689 23.3585 98.0613 19.6806L95.4063 17.8612L93.6426 20.6001C90.1532 26.0387 89.205 34.9986 92.9409 40.9067C91.291 41.8262 88.0481 43.0782 83.7622 43H1.32474C-0.325152 52.9381 2.42466 65.8498 9.669 74.712C16.7047 83.3002 27.2488 87.6628 41.0358 87.6628C70.8855 87.6628 92.9788 73.4795 103.314 47.7147C107.373 47.793 116.134 47.7343 120.629 38.8721C120.913 38.3831 121.88 36.2898 122.241 35.5268L119.718 33.7857ZM22.7922 28.3276H10.2759V39.9481H22.8112V28.3276H22.7922ZM37.6033 28.3276H25.0679V39.9481H37.6033V28.3276ZM52.4144 28.3276H39.879V39.9481H52.4144V28.3276ZM37.6033 14.2225H25.0679V25.98H37.6033V14.2225Z" fill="#0B9EF1"/>
</svg>
