<svg width="52" height="48" viewBox="0 0 52 48" fill="none" xmlns="http://www.w3.org/2000/svg">
<path fill-rule="evenodd" clip-rule="evenodd" d="M26.0151 47.7002L35.4511 18.6602H16.5792L26.0151 47.7002Z" fill="#DA4331"/>
<path fill-rule="evenodd" clip-rule="evenodd" d="M26.0158 47.7002L16.5799 18.6602H3.35425L26.0158 47.7002Z" fill="#F36B33"/>
<path fill-rule="evenodd" clip-rule="evenodd" d="M3.35484 18.6602L0.487153 27.4848C0.359611 27.8772 0.359588 28.3 0.487087 28.6924C0.614587 29.0849 0.863062 29.4269 1.1969 29.6694L26.0153 47.7002L3.35382 18.6602H3.35484Z" fill="#F39E36"/>
<path fill-rule="evenodd" clip-rule="evenodd" d="M3.35498 18.6605H16.5786L10.8965 1.16924C10.6032 0.269757 9.33037 0.269757 9.03807 1.16924L3.35601 18.6605H3.35498Z" fill="#DA4331"/>
<path fill-rule="evenodd" clip-rule="evenodd" d="M26.0156 47.7002L35.4515 18.6602H48.6751L26.0145 47.7002H26.0156Z" fill="#F36B33"/>
<path fill-rule="evenodd" clip-rule="evenodd" d="M48.6749 18.6602L51.5426 27.4848C51.6701 27.8772 51.6701 28.3 51.5426 28.6924C51.4151 29.0849 51.1667 29.4269 50.8328 29.6694L26.0154 47.7002L48.6749 18.6602V18.6602Z" fill="#F39E36"/>
<path fill-rule="evenodd" clip-rule="evenodd" d="M48.6752 18.6605H35.4515L41.1336 1.16924C41.4269 0.269757 42.6998 0.269757 42.9921 1.16924L48.6752 18.6605V18.6605Z" fill="#DA4331"/>
</svg>
