<svg width="55" height="21" viewBox="0 0 55 21" fill="none" xmlns="http://www.w3.org/2000/svg">
<path d="M4.15042 6.22177C4.0433 6.22177 4.01653 6.16821 4.07008 6.08787L4.63243 5.36485C4.68599 5.28451 4.81988 5.23096 4.927 5.23096H14.487C14.5941 5.23096 14.6209 5.31129 14.5673 5.39163L14.1121 6.08787C14.0585 6.16821 13.9246 6.24854 13.8443 6.24854L4.15042 6.22177Z" fill="#2DBCAF"/>
<path d="M0.107114 8.68563C0 8.68563 -0.0267786 8.63208 0.0267786 8.55174L0.589129 7.82872C0.642686 7.74838 0.776579 7.69482 0.883694 7.69482H13.0947C13.2019 7.69482 13.2554 7.77516 13.2286 7.8555L13.0144 8.49818C12.9876 8.6053 12.8805 8.65885 12.7734 8.65885L0.107114 8.68563Z" fill="#2DBCAF"/>
<path d="M6.58772 11.149C6.48061 11.149 6.45383 11.0687 6.50738 10.9883L6.88229 10.3189C6.93584 10.2385 7.04296 10.1582 7.15007 10.1582H12.5058C12.6129 10.1582 12.6665 10.2385 12.6665 10.3457L12.6129 10.9883C12.6129 11.0955 12.5058 11.1758 12.4255 11.1758L6.58772 11.149Z" fill="#2DBCAF"/>
<path d="M34.3845 5.73981C32.6975 6.16827 31.546 6.48961 29.8857 6.91807C29.4841 7.02519 29.4573 7.05196 29.1092 6.65029C28.7075 6.19505 28.4129 5.90048 27.8506 5.6327C26.1635 4.80256 24.53 5.04357 23.0036 6.03438C21.1827 7.21264 20.2454 8.95325 20.2722 11.1223C20.299 13.2646 21.7718 15.032 23.8873 15.3266C25.7083 15.5676 27.2347 14.9249 28.4397 13.5592C28.6807 13.2646 28.8949 12.9433 29.1627 12.5684C28.1987 12.5684 26.9936 12.5684 23.9944 12.5684C23.4321 12.5684 23.2982 12.2202 23.4857 11.765C23.8338 10.9349 24.4765 9.54238 24.8514 8.84613C24.9317 8.68546 25.1191 8.41767 25.5208 8.41767C26.8865 8.41767 31.9209 8.41767 35.2682 8.41767C35.2147 9.1407 35.2147 9.86372 35.1076 10.5867C34.813 12.5148 34.09 14.2822 32.9117 15.8353C30.9837 18.3793 28.4665 19.9592 25.2798 20.3877C22.6555 20.7358 20.2187 20.227 18.0764 18.6203C16.0948 17.1207 14.9701 15.1391 14.6755 12.6755C14.3274 9.7566 15.1843 7.1323 16.9517 4.82934C18.853 2.33893 21.3701 0.758993 24.4497 0.196642C26.9669 -0.258594 29.3769 0.0359707 31.546 1.50879C32.9653 2.44604 33.9829 3.73142 34.6523 5.28458C34.813 5.52558 34.7059 5.65948 34.3845 5.73981Z" fill="#2DBCAF"/>
<path d="M43.2475 20.548C40.8107 20.4944 38.588 19.7982 36.7135 18.1915C35.1336 16.8257 34.1428 15.0851 33.8214 13.0232C33.3394 9.9972 34.1696 7.31934 35.9905 4.93605C37.9453 2.3653 40.3019 1.02637 43.4885 0.464022C46.2199 -0.0179932 48.7907 0.249793 51.1204 1.82973C53.2359 3.27577 54.5481 5.23061 54.8962 7.80136C55.3514 11.4165 54.3071 14.3621 51.8167 16.8793C50.0493 18.6735 47.8802 19.7982 45.3898 20.307C44.6668 20.4409 43.9438 20.4676 43.2475 20.548ZM49.6208 9.72942C49.594 9.3813 49.594 9.11351 49.5405 8.84572C49.0585 6.19464 46.6216 4.69504 44.0777 5.28417C41.5872 5.84652 39.9805 7.42646 39.3914 9.94365C38.9094 12.0324 39.927 14.1479 41.855 15.0048C43.3279 15.6475 44.8007 15.5672 46.2199 14.8441C48.3354 13.7462 49.4869 12.0324 49.6208 9.72942Z" fill="#2DBCAF"/>
</svg>
