<svg width="102" height="81" viewBox="0 0 102 81" fill="none" xmlns="http://www.w3.org/2000/svg">
<g clip-path="url(#clip0)">
<path d="M67.527 22.683L76.2311 13.9874L76.8096 10.328C60.9499 -4.08072 35.7366 -2.44544 21.4354 13.7366C17.4385 18.3221 14.5362 23.7543 12.9473 29.6236L16.0633 29.1829L33.4723 26.3202L34.814 24.948C38.5376 20.8354 43.6911 18.2962 49.224 17.848C54.757 17.3998 60.2527 19.0764 64.591 22.5358L67.527 22.683Z" fill="#E2433A"/>
<path d="M88.6341 29.3636C86.6334 22.0029 82.525 15.3857 76.8131 10.3242L64.5953 22.529C67.1412 24.6069 69.1816 27.2351 70.5624 30.2155C71.9433 33.1959 72.6286 36.4506 72.5668 39.7341V41.8992C75.4343 41.8992 78.1844 43.0371 80.212 45.0626C82.2397 47.0881 83.3788 49.8352 83.3788 52.6997C83.3788 55.5641 82.2397 58.3113 80.212 60.3368C78.1844 62.3622 75.4343 63.5001 72.5668 63.5001H50.7932L48.6562 65.8193V78.8489L50.7932 80.8951H72.5676C78.6332 80.9591 84.5579 79.068 89.4625 75.5022C94.367 71.9365 97.9901 66.8862 99.7939 61.1008C101.598 55.3154 101.486 49.1032 99.4761 43.3861C97.4659 37.6689 93.6641 32.7515 88.6348 29.3636" fill="#4484EA"/>
<path d="M29.0439 80.8951H50.7946V63.5048H29.0439C27.5049 63.5036 25.9842 63.1712 24.5853 62.5304L21.4998 63.4742L12.7339 72.1691L11.9707 75.1278C16.878 78.8622 22.8748 80.8879 29.0439 80.8951Z" fill="#38A255"/>
<path d="M29.0446 24.4852C23.1523 24.521 17.4182 26.3941 12.6433 29.8431C7.86833 33.292 4.29086 38.1446 2.4105 43.723C0.53013 49.3014 0.440748 55.3271 2.15483 60.9587C3.86892 66.5903 7.30089 71.5466 11.9715 75.1354L24.5869 62.5334C22.9838 61.81 21.5804 60.7089 20.4971 59.3246C19.4137 57.9403 18.6827 56.3141 18.3669 54.5855C18.051 52.8569 18.1597 51.0776 18.6836 49.4002C19.2075 47.7228 20.131 46.1974 21.3748 44.9549C22.6186 43.7124 24.1456 42.79 25.8248 42.2666C27.504 41.7433 29.2852 41.6347 31.0156 41.9502C32.7461 42.2657 34.374 42.9959 35.7598 44.0781C37.1456 45.1603 38.2479 46.5622 38.9721 48.1636L51.5875 35.5616C48.9396 32.1037 45.5269 29.3046 41.6162 27.383C37.7055 25.4615 33.4028 24.4697 29.0446 24.4852Z" fill="#F3B62C"/>
</g>
<defs>
<clipPath id="clip0">
<rect width="100.138" height="80.4138" fill="white" transform="translate(0.931641 0.482788)"/>
</clipPath>
</defs>
</svg>
