<svg width="52" height="53" viewBox="0 0 52 53" fill="none" xmlns="http://www.w3.org/2000/svg">
<path d="M26.3281 33.2002L21 39.2549" stroke="#284A6A" stroke-width="0.26" stroke-linecap="round" stroke-linejoin="round"/>
<path d="M9.375 37.8825L13.5729 31.7471" stroke="#284A6A" stroke-width="0.13" stroke-linecap="round" stroke-linejoin="round"/>
<path d="M26.3281 33.2005L39.0833 31.7474M26.3281 33.2005L31.6562 39.3359L26.3281 33.2005ZM32.7057 26.4193L39.0026 31.7474L32.7057 26.4193ZM32.7057 26.4193L39.0026 20.849L32.7057 26.4193ZM31.6562 13.9062L26.3281 19.8802L31.6562 13.9062ZM20.9192 13.9062L26.2474 19.8802L20.9192 13.9062ZM13.5729 21.0911L19.6276 26.4193L13.5729 21.0911ZM13.5729 31.7474L19.6276 26.4193L13.5729 31.7474ZM26.3281 33.2005L13.5729 31.7474L26.3281 33.2005Z" stroke="#284A6A" stroke-width="0.26" stroke-linecap="round" stroke-linejoin="round"/>
<path d="M32.7057 26.4193L31.6562 13.9062M32.7057 26.4193L31.5755 39.3359L32.7057 26.4193Z" stroke="#284A6A" stroke-width="0.26" stroke-linecap="round" stroke-linejoin="round"/>
<path d="M13.5729 21.172L26.3281 19.8804M39.0026 20.9299L26.2474 19.8804L39.0026 20.9299Z" stroke="#284A6A" stroke-width="0.26" stroke-linecap="round" stroke-linejoin="round"/>
<path d="M20.9192 39.2552L19.6276 26.4193M20.9192 13.9062L19.6276 26.4193L20.9192 13.9062Z" stroke="#284A6A" stroke-width="0.26" stroke-linecap="round" stroke-linejoin="round"/>
<path d="M39.0027 31.7474L44.9766 30.1328M7.7605 30.1328L13.573 31.7474L7.7605 30.1328ZM14.7839 43.6146L20.9194 39.2552L14.7839 43.6146ZM22.3725 46.3594L21.0001 39.2552L22.3725 46.3594ZM22.3725 46.3594L31.6563 39.3359L22.3725 46.3594ZM30.2032 46.3594L31.5756 39.3359L30.2032 46.3594ZM37.711 43.6146L31.5756 39.2552L37.711 43.6146ZM43.2006 37.8828L31.5756 39.3359L43.2006 37.8828ZM39.0027 31.7474L43.2006 37.8828L39.0027 31.7474Z" stroke="#284A6A" stroke-width="0.13" stroke-linecap="round" stroke-linejoin="round"/>
<path d="M30.203 46.3594L20.9192 39.2552M39.0025 31.7474L44.815 22.8672L39.0025 31.7474Z" stroke="#284A6A" stroke-width="0.13" stroke-linecap="round" stroke-linejoin="round"/>
<path d="M39.0026 20.9297L44.8151 22.9479M39.0026 31.7474L37.7109 43.6146L39.0026 31.7474Z" stroke="#284A6A" stroke-width="0.13" stroke-linecap="round" stroke-linejoin="round"/>
<path d="M31.6562 13.9059L37.7109 9.46582M39.0026 20.9294L44.9766 30.1325L39.0026 20.9294ZM39.0026 20.9294L43.2005 15.2783L39.0026 20.9294ZM39.0026 20.9294L37.7109 9.46582L39.0026 20.9294Z" stroke="#284A6A" stroke-width="0.13" stroke-linecap="round" stroke-linejoin="round"/>
<path d="M20.9192 13.9061L22.2916 6.72119M31.6562 13.9061L43.2004 15.1978L31.6562 13.9061ZM31.6562 13.9061L30.2838 6.72119L31.6562 13.9061ZM31.6562 13.9061L22.3723 6.72119L31.6562 13.9061Z" stroke="#284A6A" stroke-width="0.13" stroke-linecap="round" stroke-linejoin="round"/>
<path d="M13.573 21.091L9.37512 15.1978M20.9194 13.9061L30.284 6.72119L20.9194 13.9061ZM20.9194 13.9061L14.784 9.46598L20.9194 13.9061ZM20.9194 13.9061L9.37512 15.1978L20.9194 13.9061Z" stroke="#284A6A" stroke-width="0.13" stroke-linecap="round" stroke-linejoin="round"/>
<path d="M13.5729 31.7472L7.67969 22.9478M13.5729 21.091L14.7839 9.38525L13.5729 21.091ZM13.5729 21.091L7.67969 22.867L13.5729 21.091Z" stroke="#284A6A" stroke-width="0.13" stroke-linecap="round" stroke-linejoin="round"/>
<path d="M14.7839 43.6143L13.573 31.7471M13.573 21.0908L7.7605 30.1325L13.573 21.0908Z" stroke="#284A6A" stroke-width="0.13" stroke-linecap="round" stroke-linejoin="round"/>
<path d="M9.37512 37.8828L20.9194 39.2552" stroke="#284A6A" stroke-width="0.13" stroke-linecap="round" stroke-linejoin="round"/>
<path d="M22.3724 46.359L14.4609 48.5387M14.7839 43.6143L10.3438 45.7132L14.7839 43.6143ZM14.7839 43.6143L14.4609 48.5387L14.7839 43.6143Z" stroke="#24405D" stroke-width="0.101" stroke-linecap="round" stroke-linejoin="round"/>
<path d="M30.2031 46.359L23.7448 51.3643M22.3724 46.359L18.9817 50.4762L22.3724 46.359ZM22.3724 46.359L23.7448 51.3643L22.3724 46.359ZM14.7838 43.6143L18.901 50.4762L14.7838 43.6143Z" stroke="#24405D" stroke-width="0.101" stroke-linecap="round" stroke-linejoin="round"/>
<path d="M37.711 43.6953L33.5938 50.5573M30.2032 46.3594L28.7501 51.526L30.2032 46.3594ZM22.2917 46.3594L28.7501 51.526L22.2917 46.3594ZM30.2032 46.3594L33.5938 50.4766L30.2032 46.3594Z" stroke="#24405D" stroke-width="0.101" stroke-linecap="round" stroke-linejoin="round"/>
<path d="M37.711 43.6143L45.7032 42.4033M37.711 43.6143L38.1146 48.5387L37.711 43.6143ZM30.2032 46.359L38.1146 48.5387L30.2032 46.359ZM37.711 43.6143L42.3126 45.9554L37.711 43.6143Z" stroke="#24405D" stroke-width="0.101" stroke-linecap="round" stroke-linejoin="round"/>
<path d="M43.2006 37.8828L50.3855 33.7656M43.2006 37.8828L45.7032 42.4036L43.2006 37.8828ZM43.2006 37.8828L42.3126 45.9557L43.2006 37.8828ZM43.2006 37.8828L48.448 38.2865L43.2006 37.8828Z" stroke="#24405D" stroke-width="0.101" stroke-linecap="round" stroke-linejoin="round"/>
<path d="M44.8959 22.8672L51.112 28.8411M44.9766 30.1328L48.448 38.2865L44.9766 30.1328ZM44.9766 30.1328L50.3855 33.8464L44.9766 30.1328ZM44.9766 30.1328L51.0313 28.9219L44.9766 30.1328Z" stroke="#24405D" stroke-width="0.101" stroke-linecap="round" stroke-linejoin="round"/>
<path d="M43.2004 15.1978L50.2239 19.2342M44.8958 22.867L51.2734 23.9972L44.8958 22.867ZM44.9765 30.1326L51.1926 24.078L44.9765 30.1326ZM44.8958 22.867L50.3046 19.2342L44.8958 22.867Z" stroke="#24405D" stroke-width="0.101" stroke-linecap="round" stroke-linejoin="round"/>
<path d="M43.2006 15.1979L42.3126 7.125M43.2006 15.1979L48.3672 14.6328L43.2006 15.1979ZM44.8959 22.8672L48.448 14.7135L44.8959 22.8672ZM43.2006 15.1979L45.6225 10.5964L43.2006 15.1979Z" stroke="#24405D" stroke-width="0.101" stroke-linecap="round" stroke-linejoin="round"/>
<path d="M37.711 9.46582L33.5938 2.44238M42.3126 7.2054L37.7917 9.46582L42.3126 7.2054ZM37.711 9.46582L38.0339 4.37988L37.711 9.46582ZM37.711 9.46582L45.6225 10.596L37.711 9.46582Z" stroke="#24405D" stroke-width="0.101" stroke-linecap="round" stroke-linejoin="round"/>
<path d="M30.2839 6.72103L23.7449 1.47363M30.2839 6.72103L33.5938 2.44238L30.2839 6.72103ZM30.2839 6.72103L38.1147 4.37988L30.2839 6.72103ZM30.2839 6.72103L28.7501 1.47363L30.2839 6.72103Z" stroke="#24405D" stroke-width="0.101" stroke-linecap="round" stroke-linejoin="round"/>
<path d="M14.7838 9.46582L18.9817 2.44238M22.3724 6.72103L23.7448 1.47363L22.3724 6.72103ZM22.3724 6.72103L28.75 1.47363L22.3724 6.72103ZM22.3724 6.72103L19.0625 2.44238L22.3724 6.72103Z" stroke="#24405D" stroke-width="0.101" stroke-linecap="round" stroke-linejoin="round"/>
<path d="M9.375 15.1978L10.263 6.96338M22.3724 6.72119L14.4609 4.29932L22.3724 6.72119ZM14.7839 9.46598L14.3802 4.29932L14.7839 9.46598ZM14.7839 9.46598L10.263 6.96338L14.7839 9.46598Z" stroke="#24405D" stroke-width="0.101" stroke-linecap="round" stroke-linejoin="round"/>
<path d="M7.67969 22.9476L1.38281 24.0778M14.7839 9.46582L6.79167 10.596L14.7839 9.46582ZM9.375 15.1976L6.79167 10.596L9.375 15.1976ZM9.375 15.1976L4.1276 14.6325L9.375 15.1976ZM9.375 15.1976L2.10937 19.2341L9.375 15.1976ZM7.67969 22.9476L2.10937 19.2341L7.67969 22.9476Z" stroke="#24405D" stroke-width="0.101" stroke-linecap="round" stroke-linejoin="round"/>
<path d="M7.76042 30.1328L1.38281 24.0781M7.67969 22.9479L4.1276 14.6328L7.67969 22.9479Z" stroke="#24405D" stroke-width="0.101" stroke-linecap="round" stroke-linejoin="round"/>
<path d="M7.76042 30.1326L2.35156 33.7655M7.67969 22.9478L1.38281 28.9217L7.67969 22.9478Z" stroke="#24405D" stroke-width="0.101" stroke-linecap="round" stroke-linejoin="round"/>
<path d="M7.76042 30.1328L4.1276 38.2865M7.76042 30.1328L1.38281 28.9219L7.76042 30.1328Z" stroke="#24405D" stroke-width="0.101" stroke-linecap="round" stroke-linejoin="round"/>
<path d="M9.375 37.8828L10.3437 45.7943M9.375 37.8828L4.1276 38.2865L9.375 37.8828ZM9.375 37.8828L2.35156 33.7656L9.375 37.8828ZM9.375 37.8828L6.8724 42.1615L9.375 37.8828Z" stroke="#24405D" stroke-width="0.101" stroke-linecap="round" stroke-linejoin="round"/>
<path d="M14.7838 43.6143L6.87231 42.1611" stroke="#24405D" stroke-width="0.101" stroke-linecap="round" stroke-linejoin="round"/>
<path d="M16.5598 23.4321L16.6405 29.5675L22.776 29.4868L22.6952 23.3514L16.5598 23.4321ZM23.1796 30.1327L23.2603 36.2681L29.3958 36.1873L29.315 30.0519L23.1796 30.1327ZM23.1796 16.7316L23.2603 22.867L29.3958 22.7863L29.315 16.6509L23.1796 16.7316ZM29.8801 23.4321L29.9609 29.5675L36.0963 29.4868L36.0155 23.3514L29.8801 23.4321Z" fill="#256EA5"/>
<path d="M29.4766 37.2368V41.5155H33.7553V37.2368H29.4766ZM18.8204 37.2368V41.5155H23.099V37.2368H18.8204ZM11.3933 29.6483V33.9269H15.672V29.6483H11.3933ZM11.3933 18.9113L11.474 23.1899L15.7527 23.1092L15.672 18.8306L11.3933 18.9113ZM36.9037 18.992V23.2707H41.1824V18.992H36.9037ZM36.9845 29.5675L37.0652 33.8462L41.3438 33.7655L41.2631 29.4868L36.9845 29.5675Z" fill="#3378BC"/>
<path d="M7.92183 36.5104V39.3359H10.7474V36.5104H7.92183ZM13.4114 42.1615V44.987H16.2369V42.1615H13.4114ZM20.9192 44.987V47.8125H23.7448V44.987H20.9192ZM6.30725 28.7604V31.5859H9.05204V28.7604H6.30725ZM41.8281 39.2552H44.6536V36.4297H41.8281V39.2552ZM36.3385 45.0677H39.164V42.2422H36.3385V45.0677ZM28.8307 47.8125H31.6562V44.987H28.8307V47.8125ZM43.4427 31.5052H46.2682V28.6797H43.4427V31.5052Z" fill="#169BD6"/>
<path d="M18.7395 11.6455V15.9242H23.0181V11.6455H18.7395ZM29.4765 11.6455V15.9242H33.7551V11.6455H29.4765Z" fill="#3378BC"/>
<path d="M41.8281 13.8254V16.6509H44.6536V13.8254H41.8281ZM36.4192 8.01286V10.8384H39.2448V8.01286H36.4192ZM28.8307 5.26807V8.09359H31.6562V5.26807H28.8307ZM43.4427 21.5754V24.4009H46.2682V21.5754H43.4427ZM7.92183 16.5702H10.7474V13.7446H7.92183V16.5702ZM13.4114 10.8384H16.2369V8.01286H13.4114V10.8384ZM20.9192 8.09359H23.7448V5.26807H20.9192V8.09359ZM6.30725 24.3201H9.13277V21.4946H6.30725V24.3201Z" fill="#169BD6"/>
<path d="M47.6406 37.5596V39.0934H49.1744V37.5596H47.6406Z" fill="#00A8DA"/>
<path d="M49.6588 32.958V34.4919H51.1927V32.958H49.6588Z" fill="#00A8DA"/>
<path d="M44.9765 41.5962V43.13H46.5104V41.5962H44.9765Z" fill="#00A8DA"/>
<path d="M9.5365 45.0674V46.6012H11.0704V45.0674H9.5365Z" fill="#00A8DA"/>
<path d="M0.65625 28.1143V29.6481H2.1901V28.1143H0.65625Z" fill="#00A8DA"/>
<path d="M41.5859 45.0674V46.6012H43.1197V45.0674H41.5859Z" fill="#00A8DA"/>
<path d="M1.54431 32.958V34.4919H3.07817V32.958H1.54431Z" fill="#00A8DA"/>
<path d="M18.2552 49.75V51.2839H19.7891V49.75H18.2552Z" fill="#00A8DA"/>
<path d="M3.401 37.5596V39.0934H4.93486V37.5596H3.401Z" fill="#00A8DA"/>
<path d="M6.14587 41.6768V43.2106H7.67973V41.6768H6.14587Z" fill="#00A8DA"/>
<path d="M13.6537 49.3464H15.1875V47.8125H13.6537V49.3464ZM23.0183 52.3333H24.5521V50.7995H23.0183V52.3333Z" fill="#00A8DA"/>
<path d="M37.4688 47.7314V49.2653H39.0027V47.7314H37.4688Z" fill="#00A8DA"/>
<path d="M50.4661 28.1953V29.7292H51.9999V28.1953H50.4661Z" fill="#00A8DA"/>
<path d="M27.9427 50.7993V52.3332H29.4766V50.7993H27.9427Z" fill="#00A8DA"/>
<path d="M32.7865 49.8306V51.3644H34.3204V49.8306H32.7865Z" fill="#00A8DA"/>
<path d="M41.5859 6.39844V7.93229H43.1197V6.39844H41.5859Z" fill="#00A8DA"/>
<path d="M50.4661 23.3516V24.8854H51.9999V23.3516H50.4661Z" fill="#00A8DA"/>
<path d="M9.5365 6.39844V7.93229H11.0704V6.39844H9.5365Z" fill="#00A8DA"/>
<path d="M49.6588 18.4268V19.9606H51.1927V18.4268H49.6588Z" fill="#00A8DA"/>
<path d="M32.7865 1.63525V3.16911H34.3204V1.63525H32.7865Z" fill="#00A8DA"/>
<path d="M47.6406 13.8252V15.3591H49.1744V13.8252H47.6406Z" fill="#00A8DA"/>
<path d="M44.9765 9.70801V11.2419H46.5104V9.70801H44.9765Z" fill="#00A8DA"/>
<path d="M37.388 5.10661H38.9218V3.57275H37.388V5.10661ZM28.1041 2.20036H29.638V0.666504H28.1041V2.20036Z" fill="#00A8DA"/>
<path d="M13.7344 3.49219V5.02604H15.2682V3.49219H13.7344Z" fill="#00A8DA"/>
<path d="M3.32031 13.9062V15.4401H4.85417V13.9062H3.32031Z" fill="#00A8DA"/>
<path d="M1.54431 18.4268V19.9606H3.07817V18.4268H1.54431Z" fill="#00A8DA"/>
<path d="M6.14587 9.70801V11.2419H7.67973V9.70801H6.14587Z" fill="#00A8DA"/>
<path d="M0.65625 23.3516V24.8854H2.1901V23.3516H0.65625Z" fill="#00A8DA"/>
<path d="M23.099 0.666504V2.20036H24.6329V0.666504H23.099Z" fill="#00A8DA"/>
<path d="M18.1744 1.71582V3.24967H19.7083V1.71582H18.1744Z" fill="#00A8DA"/>
</svg>
