<svg width="54" height="55" viewBox="0 0 54 55" fill="none" xmlns="http://www.w3.org/2000/svg">
<path d="M43.6692 17.8622C42.792 18.3495 41.9147 18.9344 41.0374 19.4218C37.6258 14.3531 32.9471 11.4289 26.8062 11.4289C20.6653 11.3314 15.8891 14.0607 12.38 19.0319C11.5027 18.447 10.7229 17.9597 9.84564 17.3748C10.8204 15.8152 12.0876 14.4506 13.6471 13.0859C13.4522 12.9885 13.2572 12.9885 13.1598 12.891C11.6977 11.4289 10.528 9.7718 9.94312 7.72484C9.84564 7.33495 9.84564 6.94505 9.74817 6.55515C9.74817 5.67788 10.333 5.28798 11.1128 5.58041C11.6977 5.87283 12.38 6.26273 12.8673 6.65263C14.1345 7.82232 15.1093 9.18696 15.7916 10.7465C15.8891 10.844 15.8891 11.039 15.9865 11.1364C16.9613 10.6491 17.8385 10.1617 18.7158 9.7718C20.6653 8.89454 22.7123 8.40716 24.7592 8.30969C25.0516 8.30969 25.1491 8.21222 25.1491 7.82232C24.7592 5.77536 24.6617 3.82587 25.3441 1.87638C25.539 1.38901 25.734 0.901638 26.0264 0.51174C26.5138 -0.17058 27.1961 -0.17058 27.6834 0.51174C28.2683 1.29154 28.4632 2.07133 28.5607 3.04607C28.8531 4.70314 28.7557 6.3602 28.3658 8.01727C28.3658 8.11474 28.3658 8.11474 28.3658 8.30969C31.6799 8.60211 34.7016 9.67433 37.4309 11.5263C37.7233 10.844 38.0157 10.2592 38.3082 9.67433C39.088 8.30969 39.9652 7.14 41.2324 6.26273C41.6223 5.97031 42.1097 5.77536 42.4996 5.58041C43.2793 5.28798 43.8642 5.67788 43.8642 6.55515C43.8642 7.14 43.7667 7.72484 43.5718 8.30969C42.8894 10.2592 41.7198 11.8188 40.2576 13.1834C40.1602 13.2809 40.0627 13.3784 39.8677 13.5733C41.4273 14.8405 42.6945 16.2051 43.6692 17.8622Z" fill="#00B0E7"/>
<path d="M37.8205 43.7906C34.9937 45.6426 31.972 46.7148 28.6579 47.1047C28.7554 47.7871 28.8528 48.3719 28.8528 48.9568C28.9503 50.5163 28.8528 52.0759 28.268 53.538C28.1705 53.8305 27.9756 54.1229 27.7806 54.4153C27.2933 55.1951 26.6109 55.1951 26.1236 54.4153C25.8311 53.9279 25.5387 53.4406 25.4412 52.8557C24.9539 51.1012 24.9539 49.2492 25.2463 47.3972C25.2463 47.2997 25.2463 47.2997 25.2463 47.1047C21.9322 46.8123 18.813 45.8376 15.9862 44.083C15.7913 44.4729 15.5963 44.8628 15.4014 45.2527C14.6216 46.6174 13.7443 47.7871 12.4772 48.6643C12.0873 48.9568 11.5999 49.2492 11.1125 49.3466C10.3327 49.6391 9.74787 49.2492 9.84535 48.3719C9.84535 47.7871 9.94282 47.2022 10.1378 46.7148C10.7226 45.0578 11.6974 43.5957 12.8671 42.426C12.9645 42.3285 13.1595 42.231 13.2569 42.1335C12.1847 40.8664 11.21 39.7942 10.1378 38.6245C11.015 37.9422 11.8923 37.4548 12.6721 36.8699C16.1812 41.5487 20.7625 43.9856 26.5135 43.9856C32.2644 43.9856 36.8457 41.4512 40.3548 36.7725C40.7447 37.0649 41.2321 37.3573 41.622 37.6497C42.0119 37.9422 42.4018 38.2346 42.8891 38.527C42.0119 39.5992 41.0371 40.6714 40.1599 41.6462C40.6472 42.231 41.2321 42.8159 41.7195 43.4007C42.6942 44.6679 43.5715 46.0325 43.8639 47.6896C43.9614 47.982 43.9614 48.2744 43.8639 48.5669C43.7664 49.2492 43.279 49.6391 42.5967 49.3466C41.9144 49.0542 41.3296 48.6643 40.7447 48.2744C39.3801 47.1047 38.5028 45.7401 37.723 44.1805C37.918 44.083 37.8205 43.9856 37.8205 43.7906Z" fill="#00B0E7"/>
<path fill-rule="evenodd" clip-rule="evenodd" d="M0 21.8589H3.50908V26.6351H7.79795V21.8589H11.307V35.2129H7.79795V30.1442H3.50908V35.2129H0V21.8589ZM15.3035 35.2129V21.8589H23.5888V24.7831H18.8126V26.9276H23.0039V29.8518H18.7151V32.2886H23.4913V35.1154H15.3035V35.2129ZM27.4878 35.2129V21.8589H30.9968V31.7038H35.7731V35.2129H27.4878ZM41.2317 21.8589L46.6902 26.8301L52.1488 21.8589H53.7084V35.2129H50.1993V28.3897L46.6902 31.6063L43.1811 28.3897V35.2129H39.5746V21.8589H41.2317Z" fill="#00B0E7"/>
</svg>
