<svg width="34" height="55" viewBox="0 0 34 55" fill="none" xmlns="http://www.w3.org/2000/svg">
<path d="M26.6308 30.4631C24.495 30.4631 22.5802 31.412 21.2689 32.906L17.9089 30.5207C18.2656 29.5359 18.4704 28.4785 18.4704 27.3718C18.4704 26.2842 18.2727 25.2445 17.9278 24.2743L21.2803 21.9143C22.5914 23.4007 24.5012 24.3445 26.6308 24.3445C30.573 24.3445 33.7807 21.1283 33.7807 17.1746C33.7807 13.2209 30.573 10.0048 26.6308 10.0048C22.6886 10.0048 19.4809 13.2209 19.4809 17.1746C19.4809 17.8823 19.5875 18.5647 19.7789 19.211L16.4242 21.5721C15.0228 19.8288 13.005 18.6115 10.7061 18.24V14.1855C13.9448 13.5034 16.3851 10.6178 16.3851 7.16985C16.3851 3.21614 13.1774 0 9.2352 0C5.29302 0 2.0853 3.21614 2.0853 7.16985C2.0853 10.5716 4.46235 13.4216 7.63629 14.1525V18.2595C3.3047 19.022 0 22.8128 0 27.3718C0 31.953 3.33743 35.7577 7.70029 36.4942V40.831C4.49389 41.5377 2.0853 44.4052 2.0853 47.8302C2.0853 51.7839 5.29302 55 9.2352 55C13.1774 55 16.3851 51.7839 16.3851 47.8302C16.3851 44.4052 13.9765 41.5377 10.7701 40.831V36.4941C12.9784 36.1211 14.9762 34.9559 16.3914 33.2156L19.7739 35.6164C19.5861 36.2568 19.4809 36.9325 19.4809 37.633C19.4809 41.5867 22.6886 44.8028 26.6308 44.8028C30.573 44.8028 33.7807 41.5867 33.7807 37.633C33.7807 33.6793 30.573 30.4631 26.6308 30.4631ZM26.6308 13.6983C28.5425 13.6983 30.0973 15.2582 30.0973 17.1746C30.0973 19.0911 28.5425 20.6508 26.6308 20.6508C24.7192 20.6508 23.1643 19.0911 23.1643 17.1746C23.1643 15.2582 24.7192 13.6983 26.6308 13.6983ZM5.76858 7.16985C5.76858 5.2534 7.32355 3.6937 9.2352 3.6937C11.1468 3.6937 12.7017 5.2534 12.7017 7.16985C12.7017 9.0863 11.1468 10.646 9.2352 10.646C7.32355 10.646 5.76858 9.0863 5.76858 7.16985ZM12.7017 47.8302C12.7017 49.7466 11.1468 51.3063 9.2352 51.3063C7.32355 51.3063 5.76858 49.7466 5.76858 47.8302C5.76858 45.9137 7.32355 44.354 9.2352 44.354C11.1468 44.354 12.7017 45.9137 12.7017 47.8302ZM9.23493 32.2199C6.56877 32.2199 4.39981 30.0453 4.39981 27.3718C4.39981 24.6982 6.56877 22.5232 9.23493 22.5232C11.901 22.5232 14.0699 24.6982 14.0699 27.3718C14.0699 30.0453 11.901 32.2199 9.23493 32.2199ZM26.6308 41.1093C24.7192 41.1093 23.1643 39.5494 23.1643 37.633C23.1643 35.7165 24.7192 34.1568 26.6308 34.1568C28.5425 34.1568 30.0973 35.7165 30.0973 37.633C30.0973 39.5494 28.5425 41.1093 26.6308 41.1093Z" fill="black"/>
</svg>
