<svg width="122" height="123" viewBox="0 0 122 123" fill="none" xmlns="http://www.w3.org/2000/svg">
<path fill-rule="evenodd" clip-rule="evenodd" d="M56.2501 1.92138C57.8193 1.19729 59.4664 0.793091 61.1159 0.793091C62.7733 0.803342 64.4078 1.18872 65.9013 1.92138L105.457 21.4272C106.994 22.1702 108.344 23.2606 109.404 24.6154C110.465 25.9703 111.209 27.5539 111.578 29.2458L121.388 73.0086C121.783 74.7098 121.791 76.4807 121.409 78.1853C121.028 79.8898 120.268 81.4825 119.188 82.8409L91.7213 117.9C89.6047 120.64 86.3861 122.172 83.0117 122.172H38.9841C37.3092 122.179 35.6547 121.798 34.1455 121.058C32.6362 120.318 31.3117 119.238 30.272 117.9L2.80489 82.8409C1.72954 81.48 0.972754 79.8872 0.592076 78.1834C0.211398 76.4797 0.216847 74.7099 0.608011 73.0086L10.4173 29.2458C10.7871 27.5539 11.5306 25.9703 12.5914 24.6154C13.6521 23.2606 15.002 22.1702 16.5384 21.4272L56.2501 1.92138Z" fill="#356CDB"/>
<path d="M100.906 70.2685C100.825 70.2685 100.825 70.2685 100.906 70.2685H100.825C100.747 70.2685 100.67 70.2685 100.67 70.1867C100.511 70.1867 100.356 70.1073 100.198 70.1073C99.6503 70.0255 99.1783 69.9461 98.7063 69.9461C98.4728 69.9461 98.2368 69.9461 97.9229 69.8643H97.8451C96.1956 69.7031 94.8624 69.5419 93.607 69.1402C93.0572 68.8972 92.9015 68.5748 92.7434 68.2524C92.7434 68.1731 92.6631 68.1731 92.6631 68.0913L91.6437 67.7689C92.1253 63.9783 91.9391 60.1305 91.0939 56.4066C90.2386 52.6548 88.752 49.0823 86.7001 45.8478L87.4859 45.1213V44.9601C87.4859 44.5584 87.5638 44.1542 87.8752 43.7524C88.8191 42.8647 89.9966 42.1406 91.4077 41.2528C91.6437 41.0917 91.8797 41.0123 92.1132 40.8511C92.5852 40.6081 92.9793 40.3676 93.4513 40.0452C93.5267 39.9634 93.6849 39.884 93.8406 39.7228C93.9209 39.641 93.9987 39.641 93.9987 39.5616C95.0959 38.5945 95.3319 36.9827 94.5485 35.9338C94.1544 35.3709 93.4489 35.0485 92.7434 35.0485C92.1157 35.0485 91.5658 35.289 91.016 35.6932L90.8603 35.8544C90.7022 35.9338 90.6243 36.0949 90.4662 36.1768C90.0745 36.5785 89.7607 36.9009 89.4468 37.3051C89.2911 37.4663 89.133 37.7068 88.897 37.868C87.7973 39.0781 86.7804 40.0452 85.7586 40.7693C85.5528 40.9209 85.3069 41.0056 85.0531 41.0123C84.8949 41.0123 84.7368 41.0123 84.5811 40.9305H84.4254L83.4814 41.5752C82.4596 40.4469 81.3648 39.4798 80.2652 38.5127C75.5438 34.7197 69.8481 32.3974 63.8628 31.8248L63.7849 30.7759L63.6268 30.6147C63.3908 30.3741 63.077 30.1311 62.9991 29.5682C62.9212 28.2787 63.077 26.8256 63.2351 25.2138V25.1344C63.2351 24.8914 63.3129 24.5715 63.3908 24.3285C63.4686 23.8449 63.5489 23.3614 63.6268 22.796V22.0719C63.6268 20.6213 62.5271 19.4111 61.1939 19.4111C60.5662 19.4111 59.9385 19.7335 59.4666 20.2171C58.997 20.7006 58.761 21.3453 58.761 22.0719V22.7166C58.761 23.2796 58.8389 23.7631 58.997 24.2467C59.0749 24.4897 59.0749 24.7302 59.1527 25.0551V25.1344C59.3109 26.7463 59.5469 28.1969 59.3887 29.4864C59.3109 30.0518 58.997 30.2923 58.761 30.5353L58.6053 30.6965L58.5251 31.743C57.114 31.9042 55.7005 32.0653 54.287 32.3877C48.3321 33.7284 42.915 36.8752 38.7483 41.414L37.9649 40.8511H37.8067C37.651 40.8511 37.4929 40.9305 37.3372 40.9305C37.0836 40.9245 36.8377 40.8407 36.6317 40.6899C35.6099 39.9634 34.5881 38.9169 33.4908 37.7068C33.3351 37.5456 33.177 37.3051 32.941 37.1439C32.622 36.748 32.2809 36.3713 31.9192 36.0156C31.8414 35.9338 31.6857 35.8544 31.5299 35.6932C31.4497 35.6114 31.3718 35.6114 31.3718 35.532C30.8852 35.1179 30.277 34.8923 29.6445 34.8873C28.9389 34.8873 28.2334 35.2097 27.8393 35.7726C27.0559 36.8215 27.2919 38.4334 28.3891 39.4005C28.467 39.4005 28.467 39.4798 28.5472 39.4798C28.703 39.5616 28.7808 39.7228 28.9365 39.8022C29.4085 40.1246 29.8026 40.3676 30.2746 40.6081C30.5081 40.6899 30.7441 40.8511 30.9801 41.0123C32.3912 41.8976 33.5687 42.6241 34.5102 43.5094C34.9043 43.9136 34.9043 44.3153 34.9043 44.7195V44.8807L35.6877 45.6048C35.532 45.8478 35.3739 46.009 35.296 46.2496C31.3718 52.6176 29.8805 60.1114 30.8998 67.5259L29.8805 67.8483C29.8805 67.9301 29.8026 67.9301 29.8026 68.0119C29.6231 68.3994 29.3181 68.712 28.9389 68.8972C27.7614 69.3014 26.3479 69.4626 24.7009 69.6238H24.623C24.387 69.6238 24.0732 69.6238 23.8372 69.7031C23.3677 69.7031 22.8957 69.7849 22.3459 69.8643C22.1902 69.8643 22.032 69.9461 21.8763 69.9461C21.7985 69.9461 21.7182 69.9461 21.6403 70.0255C20.2293 70.3478 19.3632 71.7192 19.5992 73.0086C19.8351 74.1369 20.8545 74.8635 22.1099 74.8635C22.3459 74.8635 22.504 74.8635 22.74 74.7817C22.8178 74.7817 22.8957 74.7817 22.8957 74.6998C23.0538 74.6998 23.2095 74.6205 23.3652 74.6205C23.9151 74.4593 24.3092 74.2981 24.7787 74.0576C25.0147 73.9757 25.2507 73.8145 25.4843 73.7352H25.5646C27.0559 73.1698 28.3891 72.6863 29.6445 72.5251H29.8026C30.2722 72.5251 30.586 72.7656 30.8244 72.9293C30.8998 72.9293 30.8998 73.0086 30.9801 73.0086L32.0773 72.8474C33.9669 78.8191 37.5434 84.0897 42.3586 87.9988C43.4583 88.8865 44.5555 89.6106 45.733 90.3372L45.2635 91.3836C45.2635 91.4655 45.3413 91.4655 45.3413 91.5448C45.497 91.8672 45.6552 92.2714 45.497 92.8343C45.0275 94.0444 44.322 95.2521 43.4583 96.6234V96.7027C43.3002 96.9457 43.142 97.1069 42.9863 97.3475C42.6725 97.7517 42.4365 98.1534 42.1227 98.6369C42.0274 98.7604 41.9489 98.8964 41.8891 99.0411C41.8891 99.1205 41.8088 99.2023 41.8088 99.2023C41.1811 100.574 41.6531 102.104 42.8306 102.669C43.1214 102.824 43.4441 102.906 43.7721 102.91C44.7137 102.91 45.6552 102.265 46.1272 101.377C46.1272 101.298 46.205 101.216 46.205 101.216C46.2652 101.072 46.3437 100.937 46.4386 100.814C46.6746 100.249 46.7548 99.8471 46.9105 99.3635L47.1465 98.6369C47.6964 97.0251 48.0881 95.7356 48.7936 94.6073C49.1099 94.1238 49.4991 94.0444 49.8154 93.8832C49.8932 93.8832 49.8932 93.8832 49.9711 93.8014L50.5209 92.7549C53.9756 94.1238 57.7417 94.8503 61.5078 94.8503C63.7849 94.8503 66.1375 94.6073 68.3368 94.0444C69.7187 93.727 71.0811 93.3228 72.4167 92.8343L72.8863 93.722C72.9666 93.722 72.9666 93.7221 73.0444 93.8014C73.4361 93.8832 73.7499 94.0444 74.0662 94.528C74.6915 95.6563 75.161 97.0251 75.7133 98.5576V98.6369L75.9493 99.3635C76.105 99.8471 76.1828 100.331 76.4188 100.814C76.4967 100.975 76.5769 101.057 76.6548 101.216C76.6548 101.298 76.7326 101.377 76.7326 101.377C77.2046 102.344 78.1437 102.91 79.0877 102.91C79.4015 102.91 79.7153 102.828 80.0292 102.669C80.579 102.347 81.051 101.861 81.2067 101.216C81.3624 100.571 81.3624 99.847 81.0486 99.2023C81.0486 99.1205 80.9707 99.1205 80.9707 99.0411C80.8928 98.8799 80.815 98.7188 80.7347 98.6369C80.4928 98.1769 80.2032 97.7446 79.871 97.3475C79.7153 97.1069 79.5596 96.9457 79.4015 96.7027V96.6234C78.5378 95.2521 77.752 94.0444 77.3603 92.8343C77.2046 92.2714 77.3603 91.949 77.4382 91.5448C77.4382 91.4655 77.5185 91.4655 77.5185 91.3836L77.1243 90.4165C81.2845 87.9194 84.8171 84.3734 87.4859 80.0214C88.897 77.7648 89.9966 75.2652 90.78 72.7656L91.7215 72.9268C91.8018 72.9268 91.8018 72.8474 91.8797 72.8474C92.1935 72.6863 92.4295 72.4457 92.9015 72.4457H93.0572C94.3126 72.6044 95.6458 73.0905 97.1371 73.6534H97.2174C97.451 73.7327 97.6869 73.8939 97.9229 73.9757C98.3925 74.2163 98.7866 74.3774 99.334 74.5411C99.4921 74.5411 99.6503 74.6205 99.806 74.6205C99.8838 74.6205 99.9617 74.6205 100.042 74.6998C100.278 74.7817 100.434 74.7817 100.67 74.7817C101.847 74.7817 102.867 73.9757 103.18 72.9293C103.18 71.9622 102.317 70.6727 100.906 70.2685ZM64.5683 66.3182L61.1136 68.0119L57.6614 66.3182L56.8002 62.5317L59.1527 59.4691H62.9967L65.3541 62.5317L64.5683 66.3182ZM85.0531 57.9367C85.6613 60.6024 85.8462 63.35 85.6004 66.0777L73.5942 62.5317C73.0706 62.3756 72.6249 62.0221 72.3479 61.543C72.0708 61.0639 71.9832 60.4953 72.1029 59.9527C72.1792 59.6195 72.3413 59.313 72.5724 59.0649L82.0704 50.2792C83.4036 52.5357 84.4229 55.1147 85.0531 57.9367ZM78.3018 45.4436L68.023 52.9399C67.5874 53.2208 67.065 53.3269 66.5571 53.2376C66.0491 53.1482 65.5919 52.8698 65.2738 52.4564C65.0403 52.2159 64.9624 51.891 64.8846 51.5711L64.1766 38.4334C69.5289 39.0691 74.51 41.5412 78.3018 45.4436ZM55.5424 38.8351C56.406 38.6739 57.1918 38.5127 58.0555 38.3515L57.35 51.2463C57.2697 52.3746 56.406 53.3417 55.2285 53.3417C54.8993 53.348 54.5744 53.265 54.287 53.1011L43.85 45.4436C47.051 42.1515 51.1073 39.8588 55.5424 38.8351ZM40.0839 50.2792L49.4213 58.8219C50.2849 59.5485 50.3628 60.9173 49.6573 61.8051C49.4334 62.1323 49.0976 62.3623 48.7157 62.4498L36.5514 66.0777C36.0794 60.5974 37.2569 55.0353 40.0839 50.2816V50.2792ZM37.9625 72.1209L50.4431 69.9461C50.947 69.9147 51.4453 70.0678 51.8481 70.3779C52.251 70.688 52.5318 71.1347 52.6399 71.6373C52.7178 72.1209 52.7178 72.5251 52.5621 72.9268L47.7742 84.7776C43.2413 81.7591 39.7974 77.3166 37.9649 72.1234L37.9625 72.1209ZM66.6095 88.16C64.8043 88.5641 62.9991 88.8047 61.1161 88.8047C58.4249 88.7892 55.7519 88.3544 53.1898 87.5152L59.3887 75.9893C60.0164 75.2652 61.0358 74.9428 61.8994 75.4264C62.2668 75.657 62.5855 75.9571 62.841 76.3117L68.8842 87.5152C68.1787 87.7582 67.3929 87.9194 66.6095 88.16ZM81.9122 76.9564C79.9513 80.1801 77.3603 82.759 74.3776 84.7751L69.434 72.6044C69.309 72.1228 69.3499 71.612 69.5501 71.1574C69.7503 70.7029 70.0975 70.3322 70.5337 70.1073C70.8475 69.9461 71.2392 69.8643 71.6309 69.8643L84.1894 72.0415C83.7059 73.7983 82.9361 75.4598 81.9122 76.9564Z" fill="white"/>
</svg>
