<svg width="86" height="102" viewBox="0 0 86 102" fill="none" xmlns="http://www.w3.org/2000/svg">
<path d="M32.9588 89.9081L35.054 94.532L58.102 95.5318L72.2621 71.1957H76.5248L76.9583 66.0661L74.8631 53.7115L65.1095 42.5852L57.9569 24.4508L46.7583 7.25549L30.8636 12.0961V25.1733L29.2741 34.2044L25.8784 40.7067L15.1855 60.3585L18.0755 68.1612L25.8784 79.7211L32.9588 89.9081Z" fill="white"/>
<path d="M45.4618 34.7093L40.9897 36.3169H39.135L36.7032 34.9153L32.6845 31.9477L29.9023 31.4119L31.2419 26.7956L34.3538 25.0026L35.8994 23.3127L38.0633 22.138L41.134 21.396L45.029 22.8798L47.8112 24.3225L51.2116 25.4972L54.3647 25.3736L52.4893 30.299L45.4618 34.7093Z" fill="#F69038"/>
<path d="M32.1361 88.9309L33.6533 94.2413L30.1085 99.0938L25.0056 99.9563L17.8903 98.1235L11.314 95.8236L5.06112 95.5362L1.50347 93.4519L1.07227 91.0442L1.93462 88.0974L2.11441 84.6116L1.50347 80.9102L1.93462 78.0713L4.77362 76.0948L8.51084 74.4417L10.8827 71.3872L13.47 68.9435H18.5371L24.5498 79.0689L32.1361 88.9309Z" fill="#F7B62B"/>
<path d="M56.6068 84.9109L54.4281 95.1234H54.2012L56.2891 98.5274L59.6932 100.978H64.8222L70.9497 96.9842L75.3978 92.7176L82.0246 89.7673L84.7026 86.817L84.2033 83.776L81.5254 80.1902L79.9821 74.6982L77.6673 71.6571L73.6277 70.9309L64.3229 67.8445L60.4195 69.2514L58.4677 72.565L57.6507 81.0527L56.6068 84.9109Z" fill="#F7B62B"/>
<path d="M45.1724 0.0206299C44.5019 0.0206299 43.8154 0.0556734 43.1063 0.106646C24.9432 1.53069 29.762 20.5307 29.4912 26.8672C29.156 31.4961 28.2019 35.1629 24.9787 39.6963C21.1656 44.1596 15.8278 51.3785 13.2944 58.8906C12.105 62.4236 11.5312 66.0618 12.0695 69.4801C11.8668 69.6286 11.7005 69.8202 11.5828 70.0408C10.474 71.1877 9.64885 72.599 8.74312 73.6089C7.88895 74.4531 6.66412 74.7398 5.31679 75.3037C3.97592 75.8803 2.48033 76.4474 1.60682 78.2059C1.22003 79.0056 1.01697 79.8657 1.03631 80.7641C1.03631 81.5924 1.15557 82.4558 1.2716 83.0356C1.52624 84.7272 1.77443 86.1226 1.43921 87.1516C0.365868 90.0347 0.249831 92.0099 0.987957 93.4562C1.73898 94.8835 3.28614 95.4474 5.01381 96.0144C8.50782 96.8587 13.2234 96.591 16.9528 98.5503C20.927 100.541 24.9754 101.405 28.1987 100.561C29.3105 100.314 30.3528 99.826 31.2499 99.1317C32.147 98.4373 32.8763 97.5542 33.3849 96.5464C35.9023 96.5305 38.6711 95.3996 43.0902 95.1192C46.0942 94.8675 49.8558 96.2629 54.1685 95.9634C54.2845 96.5464 54.436 96.8077 54.6713 97.3907V97.4066C56.3474 100.707 59.4546 102.201 62.781 101.953C66.0849 101.688 69.6111 99.6813 72.4637 96.3967C75.1841 93.16 79.6999 91.7965 82.6879 90.0252C84.1835 89.1746 85.3922 88.0341 85.476 86.3902C85.5759 84.6985 84.6218 82.94 82.4204 80.5507V80.1333L82.4042 80.1174C81.6661 79.2732 81.3309 77.8459 80.9441 76.1893C80.5734 74.4786 80.1705 72.8538 78.8297 71.742C78.5589 71.5094 78.2914 71.4585 78.0077 71.1781C77.7696 71.0123 77.4895 70.9152 77.1987 70.8978C79.0456 65.4692 78.3236 60.0789 76.4412 55.2142C74.1591 49.2249 70.1462 44.0003 67.1067 40.4163C63.6803 36.1505 60.3249 32.1046 60.3926 26.1153C60.5086 16.969 61.4144 0.0652307 45.1659 0.0301872L45.1724 0.0206299ZM47.4383 14.4872H47.506C48.4118 14.4872 49.1982 14.7548 50.0073 15.3187C50.8292 15.8954 51.4352 16.73 51.8864 17.5902C52.3409 18.6861 52.5794 19.5303 52.6084 20.6581C52.6084 20.5784 52.6246 20.4924 52.6246 20.4128V20.8588C52.6246 20.8237 52.6084 20.7951 52.6084 20.76L52.5923 20.6581C52.5923 21.6903 52.3764 22.7193 51.9573 23.6623C51.7582 24.1991 51.4424 24.6863 51.0323 25.0895C50.9162 25.0258 50.797 24.9589 50.6616 24.9079C50.2103 24.7072 49.8074 24.6435 49.4368 24.3472C49.1317 24.2264 48.8169 24.1316 48.4956 24.0637C48.6986 23.8184 49.1177 23.4998 49.2853 23.2194C49.5044 22.6874 49.6205 22.1076 49.6559 21.5119V21.4259C49.6651 20.8508 49.5735 20.2784 49.3852 19.7342C49.2015 19.1703 48.9694 18.8836 48.6148 18.3229C48.2441 18.0394 47.8928 17.759 47.4544 17.759H47.39C46.9871 17.759 46.6325 17.8737 46.2651 18.3229C45.8618 18.7159 45.5619 19.2004 45.3916 19.7342C45.1574 20.2694 45.0262 20.8431 45.0048 21.4259V21.5119C45.0048 21.891 45.0402 22.2733 45.0854 22.6556C44.2473 22.3752 43.2062 22.0726 42.4681 21.7922C42.4279 21.5125 42.4053 21.2305 42.4004 20.948V20.862C42.3678 19.7401 42.5868 18.6249 43.0418 17.5966C43.3931 16.6663 44.0313 15.8667 44.8887 15.3378C45.6236 14.7931 46.5133 14.4936 47.4383 14.4936V14.4872ZM34.7129 14.7389H34.8644C35.4704 14.7389 36.0248 14.9396 36.5792 15.3028C37.2142 15.8507 37.7234 16.5293 38.0587 17.2748C38.4454 18.1254 38.6614 18.9856 38.7291 20.1133V20.1292C38.7452 20.6931 38.7452 20.9958 38.713 21.2602V21.6074L38.3616 21.7062C37.7073 21.9388 37.1884 22.2701 36.663 22.5568C36.7146 22.1745 36.7146 21.7922 36.6791 21.4259V21.359C36.6307 20.7983 36.5115 20.5147 36.3278 19.9477C36.1902 19.5116 35.9416 19.1178 35.6058 18.804C35.3947 18.6179 35.1178 18.5218 34.8354 18.5364H34.7322C34.4325 18.5523 34.1778 18.702 33.9458 19.1002C33.6616 19.4233 33.481 19.8225 33.4268 20.2471C33.3076 20.6931 33.2721 21.1742 33.3237 21.6584V21.7062C33.3753 22.2892 33.4752 22.5727 33.675 23.1334C33.8047 23.5656 34.0483 23.9559 34.3809 24.2644C34.4325 24.3154 34.4679 24.3504 34.5324 24.3631C34.2326 24.6148 34.0296 24.6658 33.7814 24.9461C33.6106 25.064 33.4301 25.2137 33.2109 25.2488C32.7638 24.7173 32.3699 24.1444 32.0344 23.538C31.6231 22.645 31.3952 21.6802 31.3639 20.6995C31.2989 19.741 31.4125 18.7789 31.6992 17.861C31.9538 17.0327 32.3567 16.2522 32.924 15.5895C33.4784 15.0256 34.0328 14.7453 34.7194 14.7453L34.7129 14.7389ZM40.605 21.9897C42.0329 21.9897 43.7477 22.2542 45.8267 23.6814C47.087 24.532 48.0798 24.8283 50.3618 25.6566C51.4706 26.2396 52.1056 26.8034 52.4247 27.3673V26.8034C52.5778 27.1112 52.663 27.4475 52.6746 27.7902C52.6863 28.1329 52.6242 28.4742 52.4924 28.7914C51.9541 30.1198 50.2748 31.5311 47.9122 32.3754V32.3913C46.7679 32.9552 45.7622 33.8026 44.5858 34.3665C43.3964 34.9304 42.049 35.6121 40.2376 35.4974C39.5816 35.5259 38.9261 35.4296 38.3068 35.2139C37.8294 34.9634 37.3696 34.6813 36.9305 34.3697C36.0925 33.8058 35.3705 32.9584 34.2971 32.3945V32.3786H34.281C32.5501 31.3336 31.6283 30.2027 31.3253 29.3584C31.0416 28.2147 31.3091 27.3705 32.1665 26.8066C33.1206 26.2428 33.7911 25.6598 34.2294 25.3794C34.6807 25.064 34.8515 24.9461 34.9869 24.8315H35.003V24.8155C35.725 23.9522 36.8628 22.8244 38.6131 22.2573C39.1965 22.1076 39.8733 21.9929 40.6082 21.9929L40.605 21.9897ZM52.6246 31.0788C54.1717 37.1031 57.7818 45.848 60.0993 50.0787C61.3241 52.3502 63.7738 57.1288 64.831 62.9238C65.5015 62.9078 66.2396 63.0034 67.0325 63.2041C69.8174 56.103 64.6989 48.4699 62.3652 46.345C61.4079 45.5008 61.3596 44.9337 61.827 44.9337C64.3637 47.1892 67.6836 51.6079 68.8923 56.6319C69.4467 58.9033 69.5853 61.3309 68.9955 63.733C69.2791 63.8476 69.566 63.9974 69.869 64.0133C74.301 66.2911 75.9448 67.9987 75.1551 70.5505V70.3689C74.9069 70.3562 74.6362 70.3689 74.3848 70.3689H74.3171C74.9746 68.381 73.5306 66.8518 69.7368 65.1602C65.8077 63.4685 62.6682 63.733 62.1299 67.1354C62.092 67.3276 62.0704 67.5226 62.0655 67.7184C61.7593 67.8171 61.4595 67.9318 61.1597 67.9828C59.3128 69.1297 58.3201 70.8372 57.7528 73.0291C57.1984 75.3005 57.0308 77.9383 56.8793 80.9776C56.7761 82.4048 56.1411 84.5424 55.4997 86.7151C49.0532 91.2772 40.1054 93.2524 32.5211 88.1424C32.0312 87.3141 31.4606 86.5495 30.7902 85.8709C30.4683 85.3437 30.0673 84.8678 29.6008 84.4596C30.3873 84.4596 31.061 84.329 31.5992 84.1761C32.214 83.8834 32.6974 83.3761 32.9562 82.752C33.4107 81.6211 32.9562 79.7956 31.4606 77.8045C29.9876 75.8325 27.467 73.5898 23.7893 71.3533C21.0721 69.6617 19.5443 67.6546 18.8384 65.4278C18.1325 63.1563 18.2324 60.8148 18.7707 58.4446C19.8279 53.8985 22.5322 49.4702 24.2631 46.6954C24.7144 46.431 24.4146 47.2784 22.5 50.8465C20.8013 54.0323 17.5974 61.4488 21.9746 67.2055C22.1428 63.0011 23.0878 58.8627 24.7627 54.9944C27.1769 49.569 32.2503 40.1136 32.6532 32.6143C32.8563 32.78 33.5783 33.1973 33.8942 33.4776C34.8193 34.0415 35.5219 34.8889 36.4309 35.4528C37.3366 36.2971 38.4777 36.8801 40.1924 36.8801C40.3601 36.896 40.5116 36.896 40.6598 36.896C42.4229 36.896 43.8025 36.3321 44.9403 35.765C46.1813 35.182 47.1934 34.3378 48.1281 34.0575H48.1442C50.1426 33.4936 51.7382 32.3467 52.6278 31.0851L52.6246 31.0788ZM62.0268 69.1297C62.1944 71.6815 63.5063 74.4212 65.8206 74.9819C68.3379 75.5458 71.9802 73.5706 73.508 71.7324L74.4138 71.6974C75.7708 71.6624 76.8989 71.7324 78.0528 72.8283L78.069 72.8443C78.9586 73.6885 79.3808 75.0998 79.7483 76.5621C80.1189 78.2697 80.4026 79.8785 81.5114 81.0891C83.5904 83.3287 84.2802 84.9375 84.2479 85.9346C84.1803 87.0433 83.4389 87.6072 82.098 88.4546C79.3937 90.1653 74.5943 91.4747 71.5386 95.1288C68.8827 98.2636 65.6465 99.9712 62.7875 100.188C59.9349 100.42 57.4659 99.3436 56.0219 96.3744L56.0058 96.3585C55.1 94.6637 55.4868 92.0099 56.2411 89.1873C56.9985 86.3488 58.088 83.4657 58.2395 81.1241C58.391 78.0881 58.5586 75.4502 59.0614 73.405C59.5804 71.4298 60.3894 70.0185 61.8334 69.2412L62.0171 69.1392L62.0268 69.1297ZM15.541 69.3431H15.5925C15.8278 69.3431 16.047 69.359 16.263 69.41C17.8746 69.6426 19.3025 70.8213 20.6627 72.5958L24.5725 79.665L24.5887 79.6809C25.6298 81.9365 27.828 84.192 29.6911 86.6355C31.5573 89.1714 33.0014 91.4428 32.8337 93.3033V93.3384C32.5791 96.4891 30.7676 98.1967 27.9989 98.8307C25.2269 99.3945 21.4653 98.8307 17.707 96.8555C13.5458 94.584 8.59162 94.8644 5.41994 94.2973C3.84376 94.0169 2.80265 93.4339 2.31272 92.5897C1.84534 91.7455 1.826 90.0315 2.851 87.3619V87.3491C3.35383 85.9219 2.9896 84.1474 2.73496 82.5864C2.49967 80.8915 2.38363 79.579 2.91869 78.601C3.60524 77.1738 4.63024 76.9093 5.88731 76.3295C7.1476 75.7656 8.6432 75.4853 9.81646 74.3384H9.83258V74.3225C10.9253 73.1979 11.7504 71.7866 12.7045 70.7703C13.5135 69.907 14.3322 69.3431 15.541 69.3431ZM46.3166 30.7984C44.4504 31.6426 42.2521 33.0699 39.9185 33.0699C37.5848 33.0699 35.754 31.9453 34.4293 31.0947C33.7588 30.5181 33.2205 29.951 32.8176 29.6675C32.1117 29.1068 32.1955 28.2434 32.4985 28.2434C32.9659 28.3071 33.0529 28.82 33.3527 29.1068C33.7749 29.3871 34.2778 29.951 34.8966 30.5181C36.1569 31.3623 37.8363 32.506 39.9152 32.506C42.0007 32.506 44.4504 31.3623 45.9266 30.5181C46.7647 29.9542 47.838 29.1068 48.7115 28.5429C49.382 27.9599 49.353 27.396 49.9009 27.396C50.4553 27.4629 50.0556 27.9599 49.282 28.8073C48.4923 29.3903 47.2836 30.2345 46.3134 30.7984H46.3166ZM41.6655 24.0637V23.984C41.6494 23.898 41.7138 23.8024 41.7976 23.7674C42.0974 23.5858 42.568 23.6495 42.9064 23.7833C43.174 23.7833 43.593 24.0637 43.5608 24.36C43.5253 24.5607 43.1901 24.6435 42.9709 24.6435C42.7388 24.6435 42.568 24.4619 42.3681 24.3472C42.149 24.2803 41.7267 24.3122 41.6623 24.0637H41.6655ZM39.2964 24.0637C39.2094 24.3154 38.8064 24.2803 38.5905 24.3472C38.3874 24.4619 38.2198 24.6435 37.9845 24.6435C37.7653 24.6435 37.414 24.5575 37.3947 24.3472C37.3657 24.0637 37.7653 23.7833 38.0361 23.7833C38.3874 23.6463 38.8226 23.5826 39.1578 23.7674C39.2255 23.8024 39.3125 23.898 39.277 23.984V24.0637H39.2964Z" fill="black"/>
</svg>
