<svg width="151" height="80" viewBox="0 0 151 80" fill="none" xmlns="http://www.w3.org/2000/svg">
<path d="M2.06836 71.0317H6.89228V51.9906L14.4608 68.5481C15.2926 70.535 16.5401 71.2801 18.9521 71.2801C21.364 71.2801 22.4453 70.535 23.3601 68.5481L30.8455 51.9906V71.0317H35.6695V51.9906C35.6695 50.1692 34.9209 49.2586 33.3407 48.7619C29.6811 47.6856 27.186 48.5963 26.1048 51.0799L18.7857 67.4719L11.633 51.0799C10.5518 48.5963 8.05667 47.6856 4.39715 48.7619C2.8169 49.2586 2.06836 50.0865 2.06836 51.9906V71.0317Z" fill="#0F7191"/>
<path d="M39.6621 55.5503H44.486V65.9815C44.486 66.5611 44.6524 67.8857 47.3138 67.9684C48.7277 67.9684 57.7934 67.9684 57.8766 67.9684V55.4675H62.7005C62.7005 55.4675 62.7005 72.5218 62.7005 72.6046C62.7005 76.8267 57.4607 77.7374 55.0488 77.7374H39.8284V74.5087H55.1319C58.2092 74.1775 57.8766 72.6046 57.8766 72.1078V70.866H47.5634C42.7394 70.866 39.6621 68.7135 39.6621 66.3127C39.6621 66.0643 39.8285 55.6331 39.6621 55.5503Z" fill="#0F7191"/>
<path d="M143.958 43.3806C140.964 43.2978 138.718 43.629 136.722 44.3741C136.14 44.6224 135.308 44.6224 135.225 45.2847C135.558 45.6159 135.558 46.0298 135.807 46.4438C136.223 47.1889 137.055 48.1823 137.72 48.679C138.469 49.2585 139.3 49.8381 140.132 50.4176C141.546 51.3282 143.209 51.825 144.623 52.7356C145.455 53.2323 146.287 53.8946 147.035 54.4742C147.451 54.8053 147.701 55.2192 148.2 55.4676V55.3848C147.95 55.0537 147.867 54.5569 147.618 54.2258C147.285 53.8946 146.869 53.5635 146.536 53.1496C145.455 51.7422 144.124 50.4176 142.71 49.4241C141.546 48.5962 138.885 47.52 138.469 46.1126C138.469 46.1126 138.469 46.1126 138.386 46.0298C139.217 45.947 140.132 45.6987 140.964 45.4503C142.211 45.1192 143.376 45.202 144.707 44.8708C145.289 44.7052 145.871 44.5396 146.453 44.3741C146.453 44.2913 146.453 44.1257 146.453 44.0429C145.788 43.3806 145.289 42.47 144.623 41.8904C142.71 40.2347 140.631 38.6617 138.469 37.3371C137.304 36.592 135.807 36.0953 134.643 35.5158C134.227 35.2674 133.478 35.1847 133.229 34.8535C132.564 34.0256 132.148 32.9494 131.732 32.0387C130.651 29.969 129.653 27.7338 128.655 25.5813C127.989 24.1739 127.573 22.6837 126.742 21.3591C122.916 15.0673 118.757 11.2591 112.353 7.53361C110.939 6.78852 109.359 6.45737 107.612 6.04344C106.697 6.04344 105.782 5.96065 104.868 5.87786C104.285 5.6295 103.703 4.88441 103.121 4.55326C101.042 3.22866 95.5524 0.331094 93.9722 4.13932C92.9741 6.54016 95.4693 8.941 96.301 10.1C96.9663 10.9279 97.7149 11.9214 98.2139 12.832C98.4634 13.4943 98.5466 14.1566 98.7961 14.8189C99.3783 16.4747 99.9605 18.2132 100.709 19.7862C101.125 20.5313 101.541 21.3591 102.123 22.1042C102.456 22.5182 102.955 22.6837 103.038 23.346C102.539 24.0911 102.456 25.1674 102.206 26.078C100.875 30.2174 101.374 35.433 103.287 38.4962C103.87 39.4068 105.283 41.4765 107.196 40.6486C108.86 39.9863 108.527 37.9166 108.943 36.0125C109.026 35.5986 108.943 35.2674 109.192 35.0191V35.1019C109.692 36.0953 110.191 37.1716 110.69 38.165C111.854 39.9863 113.85 41.8904 115.513 43.1323C116.428 43.7946 117.094 44.9536 118.258 45.3675V45.2847C118.258 45.2847 118.258 45.2847 118.175 45.2847C117.925 44.9536 117.593 44.788 117.343 44.5396C116.678 43.8773 115.929 43.0495 115.43 42.3044C113.85 40.2347 112.519 37.9166 111.272 35.5986C110.69 34.4396 110.191 33.1978 109.692 32.0387C109.442 31.6248 109.442 30.9625 109.109 30.7141C108.527 31.542 107.695 32.2043 107.363 33.1978C106.697 34.7707 106.614 36.7576 106.365 38.7445C106.198 38.7445 106.282 38.7445 106.198 38.8273C105.034 38.4962 104.618 37.3371 104.119 36.2609C103.038 33.6117 102.788 29.3895 103.786 26.4092C104.036 25.6641 105.2 23.1805 104.701 22.4354C104.452 21.7731 103.703 21.3591 103.287 20.7796C102.788 20.1173 102.289 19.2067 101.957 18.3788C101.042 16.3091 100.626 13.991 99.6278 11.9214C99.212 10.9279 98.3803 9.93445 97.7981 9.10658C97.1327 8.11312 96.301 7.36804 95.7188 6.20901C95.5524 5.79507 95.3029 5.13277 95.5524 4.71883C95.6356 4.38768 95.8019 4.3049 96.0515 4.22211C96.5505 3.80817 97.8812 4.3049 98.3803 4.55326C99.7942 5.13277 100.875 5.6295 102.04 6.37459C102.539 6.70574 103.121 7.45082 103.786 7.6164C104.036 7.6164 104.285 7.6164 104.535 7.6164C105.699 7.86476 107.03 7.69919 108.194 8.03034C110.191 8.69264 111.937 9.6033 113.517 10.5968C118.341 13.6599 122.417 18.0476 125.078 23.2633C125.494 24.0911 125.744 24.919 126.076 25.7469C126.825 27.5682 127.823 29.3895 128.571 31.2109C129.32 32.9494 130.068 34.6879 131.233 36.1781C131.815 36.9232 133.977 37.3371 135.059 37.7511C135.807 38.0822 136.972 38.4134 137.637 38.7445C138.885 39.4896 140.132 40.4003 141.38 41.2281C141.962 41.7249 143.875 42.6355 143.958 43.3806Z" fill="#0F7191"/>
<path d="M106.114 11.3418C105.449 11.3418 105.033 11.4246 104.617 11.5074C104.617 11.5074 104.617 11.5074 104.617 11.5902C104.617 11.5902 104.617 11.5902 104.7 11.5902C105.033 12.1697 105.532 12.5836 105.865 13.0803C106.197 13.6598 106.447 14.2394 106.696 14.8189L106.78 14.7361C107.279 14.4049 107.528 13.7426 107.528 12.9148C107.279 12.6664 107.279 12.418 107.112 12.1697C106.863 11.7557 106.364 11.5902 106.114 11.3418Z" fill="#0F7191"/>
<path d="M66.4434 71.0317H80.4161C82.0795 71.0317 83.5766 70.7005 84.9073 70.121C86.9866 69.1276 87.9847 67.8857 87.9847 66.1472V62.5873C87.9847 61.1799 86.8203 59.9381 84.5746 59.0275C83.4103 58.6135 81.9132 58.3652 80.4161 58.3652H74.5941C72.598 58.3652 71.6831 57.7857 71.4336 56.4611C71.4336 56.2955 71.4336 56.1299 71.4336 56.0471V53.8946C71.4336 53.8119 71.4336 53.6463 71.4336 53.4807C71.6831 52.4873 72.1822 52.2389 73.9288 52.0733C74.0951 52.0733 74.2614 52.0733 74.3446 52.0733H88.151V48.8446H74.5941C72.598 48.8446 71.6 48.9274 70.6851 49.2585C67.8573 50.1692 66.5265 51.5766 66.5265 54.0602V56.7094C66.5265 58.8619 68.9385 60.766 73.097 61.18C73.5129 61.18 74.0119 61.18 74.511 61.18H79.5012C79.6676 61.18 79.8339 61.18 80.0002 61.18C81.4973 61.3455 82.1627 61.5939 82.6617 62.1734C82.9944 62.5046 82.9944 62.7529 82.9944 63.0841V65.8988C82.9944 66.23 82.7449 66.6439 82.329 67.0579C81.9132 67.4718 81.1646 67.7202 80.2498 67.7202C80.0834 67.7202 79.9171 67.7202 79.7507 67.7202H66.4434V71.0317Z" fill="#E58722"/>
<path d="M118.176 65.402C118.176 68.7135 120.671 70.5348 125.661 70.866C126.16 70.866 126.576 70.9488 127.075 70.9488H139.717V67.7201H126.992C124.164 67.7201 123.083 67.0578 123.083 65.3192V48.7617H118.259L118.176 65.402Z" fill="#E58722"/>
<path d="M91.0605 65.5677V54.143C91.0605 51.2454 93.1398 49.4241 97.2152 48.9274C97.6311 48.9274 98.1301 48.8446 98.5459 48.8446H107.778C108.277 48.8446 108.693 48.8446 109.192 48.9274C113.267 49.5069 115.263 51.2454 115.263 54.143V65.5677C115.263 67.9685 114.432 69.2103 112.436 70.0382L117.176 74.3432H111.604L107.778 70.8661L103.869 71.1145H98.7123C97.8806 71.1145 96.8825 71.0317 95.8845 70.7833C92.5576 69.8727 91.0605 68.2169 91.0605 65.5677ZM96.3003 65.3193C96.3003 65.4849 96.3835 65.6505 96.3835 65.8161C96.633 67.1407 97.8806 67.8857 99.7935 67.8857H104.202L100.209 64.2431H105.782L109.275 67.389C109.94 67.0579 110.356 66.4784 110.523 65.8161C110.523 65.6505 110.523 65.4849 110.523 65.3193V54.3914C110.523 54.2258 110.523 54.0602 110.523 53.9774C110.273 52.7356 109.025 51.9905 107.113 51.9905H99.7935C97.6311 51.9905 96.2172 52.9012 96.2172 54.3914L96.3003 65.3193Z" fill="#E58722"/>
<path d="M141.879 71.0316H142.544V68.2996H143.459V67.7201H140.881V68.2996H141.879V71.0316ZM147.285 71.0316H147.95V67.8029H146.952L146.121 70.0381L145.206 67.8029H144.208V71.0316H144.873V68.548L145.788 71.0316H146.287L147.202 68.548L147.285 71.0316Z" fill="#E58722"/>
</svg>
