<svg width="73" height="15" viewBox="0 0 73 15" fill="none" xmlns="http://www.w3.org/2000/svg">
<path d="M13.678 14.9709C13.2664 14.9709 12.8597 14.8129 12.5578 14.5153L3.17201 5.31388V13.4159C3.17201 14.2759 2.46212 14.9709 1.5854 14.9709C0.711116 14.9709 0 14.2748 0 13.4159V1.55984C0 0.929904 0.387217 0.36273 0.979001 0.123308C1.26898 0.00528952 1.58973 -0.0256776 1.8986 0.0345295C2.20746 0.0947366 2.48981 0.243262 2.70808 0.460355L12.0926 9.66183V1.561C12.0926 0.700941 12.8025 0.00591949 13.678 0.00591949C14.5547 0.00591949 15.2646 0.702104 15.2646 1.561V13.4159C15.2646 14.2748 14.5547 14.9698 13.678 14.9709ZM21.023 0.0198676L20.587 0.817166L17.2165 6.82247L16.7806 7.58025L17.2165 8.33803L20.587 14.1492L21.0424 14.9454H29.8644L30.3003 14.0714L32.8172 9.09581L33.9472 6.84106H31.3902L24.9487 6.86082C24.1097 6.8492 23.339 7.59303 23.339 8.4159C23.339 9.23644 24.1097 9.9826 24.9475 9.96982L28.8331 9.95122L27.8821 11.8364H22.886L20.408 7.55933L22.9055 3.12886H28.2194L29.4589 5.62187H32.6504L30.6401 0.895034L30.2029 0.0198676H21.0242H21.023ZM37.09 0.000107038C36.2584 0.0105672 35.5132 0.760213 35.5241 1.57378V5.62652H38.6961V1.57495C38.7059 0.747432 37.9327 -0.0103531 37.0888 0.000107038H37.09ZM42.1738 15C41.2971 15 40.5884 14.3038 40.5884 13.4461V1.58889C40.5884 0.729995 41.2983 0.0349773 42.1738 0.0349773C43.0505 0.0349773 43.7604 0.729995 43.7604 1.58889V9.69204L53.1461 0.489412C53.3644 0.272698 53.6465 0.124419 53.9551 0.0642258C54.2637 0.00403271 54.5842 0.0347671 54.874 0.152361C55.4658 0.392945 55.8518 0.960119 55.8518 1.58889V13.4461C55.8518 14.3038 55.1419 15 54.2664 15C53.3897 15 52.681 14.3038 52.681 13.4461V5.34293L43.2952 14.5456C43.1497 14.6891 42.9754 14.8033 42.7828 14.8813C42.5902 14.9594 42.3831 14.9997 42.1738 15V15ZM67.5998 7.50586L72.5338 2.68605C73.1548 2.08168 73.1548 1.0961 72.5374 0.487089C72.3925 0.342806 72.2185 0.227931 72.0259 0.149351C71.8334 0.0707707 71.6262 0.0301023 71.4167 0.0297767C71.2073 0.0294511 71 0.0694767 70.8071 0.147458C70.6143 0.225439 70.4399 0.339769 70.2945 0.4836L65.3532 5.31039L60.4132 0.4836C60.2677 0.339769 60.0934 0.225439 59.9005 0.147458C59.7077 0.0694767 59.5003 0.0294511 59.2909 0.0297767C59.0815 0.0301023 58.8743 0.0707707 58.6817 0.149351C58.4891 0.227931 58.3152 0.342806 58.1702 0.487089C57.8728 0.782924 57.707 1.17725 57.7077 1.58727C57.7084 1.9973 57.8755 2.39112 58.1739 2.68605L63.1066 7.50586L58.1873 12.3117C57.8889 12.6065 57.7219 13.0001 57.7212 13.4099C57.7205 13.8198 57.8863 14.2139 58.1836 14.5095C58.3287 14.6537 58.5027 14.7684 58.6952 14.8469C58.8878 14.9254 59.0949 14.966 59.3043 14.9663C59.5137 14.9667 59.721 14.9267 59.9138 14.8488C60.1066 14.7709 60.281 14.6567 60.4266 14.513L65.3532 9.70134L70.2799 14.513C70.4255 14.6566 70.5999 14.7706 70.7927 14.8484C70.9855 14.9262 71.1928 14.9661 71.4021 14.9658C71.6115 14.9655 71.8186 14.9249 72.0111 14.8465C72.2037 14.7681 72.3777 14.6535 72.5228 14.5095C72.8202 14.2139 72.9859 13.8198 72.9853 13.4099C72.9846 13.0001 72.8175 12.6065 72.5192 12.3117L67.5998 7.50586V7.50586ZM37.09 14.9558C36.2584 14.9465 35.5132 14.1969 35.5241 13.3822V6.87361H38.6961V13.3822C38.7059 14.2085 37.9327 14.9663 37.0888 14.9558" fill="#1A1918"/>
</svg>
