<svg width="54" height="52" viewBox="0 0 54 52" fill="none" xmlns="http://www.w3.org/2000/svg">
<path d="M11.004 49.2689C3.59881 43.8681 -0.873309 33.9647 0.14349 25.2185C1.30545 15.2237 6.8585 7.3392 15.6786 3.16109C19.8406 1.18951 25.1832 0.242239 29.3855 0.730778C39.3803 1.89274 47.2648 7.44579 51.4429 16.2659C53.4145 20.4279 54.3617 25.7705 53.8732 29.9728C53.0928 36.6854 50.5232 42.1451 46.0354 46.6257C44.2354 48.4229 41.2622 50.7194 41.2482 50.3234C41.2445 50.2188 40.884 47.6717 40.447 44.6631L39.6524 39.1928L40.4431 38.2691C40.878 37.7611 41.6622 36.5219 42.1859 35.5153C44.7695 30.5494 44.7706 24.6441 42.189 19.682C37.8286 11.3006 27.4898 8.04733 19.0947 12.4149C10.7105 16.7769 7.45993 27.114 11.8308 35.5153C12.3544 36.5219 13.1377 37.7599 13.5712 38.2664L14.3595 39.1874L13.5856 44.7326C13.16 47.7826 12.7715 50.3182 12.7223 50.3674C12.6731 50.4166 11.8999 49.9222 11.004 49.2689V49.2689Z" fill="#EB7E31"/>
<path fill-rule="evenodd" clip-rule="evenodd" d="M20.7418 51.5139C20.7418 51.4454 21.4818 47.3903 22.3862 42.5025L24.0306 33.6156L21.7133 31.3638C19.8798 29.5821 19.307 28.753 18.97 27.393C18.1684 24.1575 18.6637 21.919 20.6747 19.6884C22.4141 17.7591 24.4187 16.8574 26.9687 16.8574C29.5787 16.8574 31.6002 17.7931 33.3129 19.794C36.511 23.5303 35.883 28.3282 31.727 31.9087L29.8588 33.5183L31.1495 40.6554C31.8594 44.5808 32.5877 48.6578 32.7679 49.7155L33.0956 51.6385H26.9187C23.5214 51.6385 20.7418 51.5824 20.7418 51.5139V51.5139Z" fill="#1A3763"/>
</svg>
