<svg width="52" height="52" viewBox="0 0 52 52" fill="none" xmlns="http://www.w3.org/2000/svg">
<path d="M26.0002 0.492676C11.8402 0.492676 0.359131 11.9265 0.359131 26.0332C0.359131 40.1388 11.8402 51.5737 26.0002 51.5737C40.1612 51.5737 51.6412 40.1378 51.6412 26.0332C51.6412 11.9265 40.1602 0.492676 26.0002 0.492676ZM26.0002 48.2947C21.9714 48.2947 18.7048 45.6137 18.7048 42.307H33.2955C33.2955 45.6127 30.0299 48.2947 26.0002 48.2947ZM38.0504 40.3255H13.9489V35.9717H38.0514V40.3245H38.0504V40.3255ZM37.9632 33.7306H14.0176C13.9386 33.6393 13.8566 33.5491 13.7796 33.4568C11.313 30.4722 10.7314 28.9152 10.1673 27.3275C10.1581 27.2752 13.1591 27.9378 15.2873 28.4147C15.2873 28.4147 16.3817 28.667 17.9827 28.9583C16.4463 27.1634 15.5335 24.8824 15.5335 22.5501C15.5335 17.4301 19.475 12.9563 18.0535 9.33986C19.4381 9.45268 20.9181 12.2496 21.0176 16.624C22.4894 14.5983 23.1058 10.8988 23.1058 8.63114C23.1058 6.28242 24.6586 3.55421 26.2135 3.46191C24.8279 5.73575 26.5714 7.6855 28.1212 12.5214C28.7027 14.3368 28.6289 17.3942 29.0781 19.3327C29.2268 15.307 29.9212 9.43216 32.4863 7.40447C31.355 9.95832 32.6535 13.1542 33.5417 14.6906C34.9745 17.1696 35.8432 19.0475 35.8432 22.5993C35.8432 24.9819 34.9612 27.224 33.472 28.9768C35.1643 28.6599 36.3335 28.3747 36.3335 28.3747L41.833 27.306C41.833 27.306 41.034 30.5788 37.9632 33.7306V33.7306Z" fill="#E45335"/>
</svg>
