<svg width="44" height="55" viewBox="0 0 44 55" fill="none" xmlns="http://www.w3.org/2000/svg">
<path d="M20 42.3077C34.5439 33.6857 41.3776 30.3676 40.5011 32.3536C39.6247 34.3395 32.7909 41.8883 20 55V42.3077Z" fill="#F26D5B"/>
<path d="M43.3333 21.6667C43.3333 33.644 33.6418 43.3333 21.6667 43.3333C9.69157 43.3333 0 33.6207 0 21.6667C0.00040076 9.71259 9.69197 0 21.6667 0C33.6414 0 43.3333 9.71259 43.3333 21.6667Z" fill="#F26D5B"/>
<path d="M8.06811 24.5436H11.2681C12.0411 24.5458 12.6672 25.117 12.6696 25.8224V28.7209C12.6672 29.4262 12.0411 29.9975 11.2681 29.9997H8.06811C7.29509 29.9975 6.66904 29.4262 6.66661 28.7209V25.8224C6.66882 25.117 7.295 24.5456 8.06811 24.5436ZM15.4726 18.1497H18.6493C19.4223 18.1519 20.0483 18.7231 20.0508 19.4285V28.7209C20.0483 29.4262 19.4223 29.9975 18.6493 29.9997H15.4726C14.6996 29.9975 14.0735 29.4262 14.0711 28.7209V19.4285C14.0733 18.7231 14.6995 18.1517 15.4726 18.1497ZM22.8538 21.6663H26.0537C26.8268 21.6686 27.4528 22.2398 27.4552 22.9451V28.7209C27.4528 29.4262 26.8268 29.9975 26.0537 29.9997H22.8538C22.0807 29.9975 21.4547 29.4262 21.4523 28.7209V22.9451C21.4545 22.2397 22.0806 21.6684 22.8538 21.6663ZM30.4218 13.333H33.5984C34.3715 13.3352 34.9975 13.9065 34.9999 14.6118V28.7209C34.9975 29.4262 34.3715 29.9975 33.5984 29.9997H30.4218C29.6488 29.9975 29.0227 29.4262 29.0203 28.7209V14.6118C29.0225 13.9064 29.6487 13.335 30.4218 13.333Z" fill="white"/>
</svg>
