<svg width="55" height="55" viewBox="0 0 55 55" fill="none" xmlns="http://www.w3.org/2000/svg">
<path d="M27.5 55C42.6878 55 55 42.6878 55 27.5C55 12.3122 42.6878 0 27.5 0C12.3122 0 0 12.3122 0 27.5C0 42.6878 12.3122 55 27.5 55Z" fill="#32335C"/>
<path opacity="0.1" d="M9.42671 6.79297C6.6006 9.2749 4.31366 12.3102 2.70731 15.7112C1.10096 19.1121 0.209342 22.8064 0.0875928 26.5657C-0.0341561 30.325 0.61655 34.0693 1.99948 37.567C3.3824 41.0648 5.46815 44.2417 8.12774 46.9013C10.7873 49.5609 13.9642 51.6467 17.462 53.0296C20.9598 54.4125 24.7041 55.0632 28.4633 54.9415C32.2226 54.8197 35.9169 53.9281 39.3179 52.3217C42.7189 50.7154 45.7541 48.4285 48.2361 45.6023L9.42671 6.79297Z" fill="#9899AD"/>
<path d="M7.73438 35.5782V33.2493C8.02401 33.501 8.34456 33.7147 8.68828 33.8853C9.06722 34.0746 9.46097 34.2326 9.86562 34.3579C10.2708 34.4863 10.6843 34.5868 11.1031 34.6587C11.4834 34.7253 11.8686 34.7598 12.2547 34.7618C13.209 34.8297 14.1602 34.592 14.9703 34.0829C15.4131 33.7088 15.7143 33.1943 15.8238 32.6251C15.9332 32.0559 15.8443 31.4664 15.5719 30.9548C15.3457 30.597 15.0542 30.2851 14.7125 30.0353C14.3199 29.7256 13.9 29.4523 13.4578 29.2188L11.9023 28.411C11.3294 28.1131 10.7823 27.8123 10.2609 27.5087C9.7814 27.224 9.33717 26.8836 8.9375 26.4946C8.57786 26.1315 8.28673 25.7065 8.07812 25.2399C7.83904 24.6565 7.73126 24.0277 7.76245 23.398C7.79364 22.7682 7.96303 22.1531 8.25859 21.5962C8.58799 21.0351 9.04052 20.5561 9.58203 20.1954C10.1524 19.8033 10.7862 19.5126 11.4555 19.336C12.1575 19.157 12.8794 19.0675 13.6039 19.0696C14.8355 19.0303 16.0602 19.2682 17.1875 19.7657V21.9829C16.0464 21.253 14.708 20.8929 13.3547 20.9517C12.9214 20.9531 12.4894 20.9992 12.0656 21.0892C11.6595 21.1683 11.27 21.3166 10.9141 21.5274C10.5709 21.7218 10.2769 21.9923 10.0547 22.3181C9.83391 22.6701 9.7232 23.0801 9.73672 23.4954C9.72705 23.8816 9.80954 24.2646 9.97734 24.6126C10.1536 24.945 10.3964 25.2375 10.6906 25.472C11.0461 25.7607 11.4289 26.014 11.8336 26.2282C12.2862 26.4688 12.8047 26.7353 13.3891 27.0274C13.9734 27.3196 14.5464 27.6319 15.1078 27.9642C15.6205 28.2728 16.0962 28.639 16.5258 29.0556C16.9221 29.4385 17.2505 29.886 17.4969 30.379C17.7447 30.8993 17.8682 31.47 17.8578 32.0462C17.8797 32.7786 17.7109 33.5041 17.368 34.1517C17.0504 34.7188 16.599 35.1996 16.0531 35.5524C15.4695 35.926 14.8232 36.1909 14.1453 36.3345C13.3973 36.4976 12.6336 36.5783 11.868 36.5751C11.5376 36.5697 11.2077 36.5467 10.8797 36.5063C10.4844 36.4662 10.0862 36.4032 9.68516 36.3173C9.3151 36.2271 8.95066 36.1152 8.59375 35.9821C8.29068 35.8861 8.0017 35.7503 7.73438 35.5782ZM28.0586 36.5407C26.9922 36.5801 25.9299 36.3894 24.9437 35.9816C23.9576 35.5738 23.0709 34.9585 22.3438 34.1774C20.8663 32.4805 20.0971 30.2808 20.1953 28.0329C20.0566 25.6751 20.8253 23.3536 22.3438 21.5446C23.1113 20.7293 24.0467 20.0904 25.0853 19.6719C26.1239 19.2535 27.241 19.0656 28.3594 19.1212C29.4089 19.0849 30.4537 19.2775 31.4212 19.6857C32.3888 20.0938 33.256 20.7076 33.9625 21.4845C35.4309 23.1823 36.1936 25.3779 36.0938 27.6204C36.2257 29.9936 35.4447 32.3273 33.9109 34.1431C33.5799 34.5133 33.208 34.8448 32.8023 35.1313L37.5375 38.5688H33.9625L30.7914 36.197C29.9031 36.449 28.9817 36.5649 28.0586 36.5407ZM28.1961 20.9173C27.382 20.8941 26.5732 21.0543 25.8294 21.3861C25.0856 21.7178 24.4259 22.2125 23.8992 22.8337C22.7467 24.2484 22.1562 26.0383 22.2406 27.861C22.1542 29.6729 22.7248 31.4551 23.8477 32.8798C24.3621 33.4936 25.0092 33.9826 25.7401 34.3101C26.471 34.6376 27.2667 34.795 28.0672 34.7704C28.885 34.8106 29.7016 34.6688 30.458 34.3552C31.2144 34.0416 31.8918 33.5641 32.4414 32.9571C33.5819 31.5257 34.1514 29.7223 34.0398 27.8954C34.1583 26.0469 33.6094 24.2172 32.493 22.7392C31.9641 22.1284 31.3031 21.6462 30.5601 21.3291C29.817 21.0119 29.0115 20.8681 28.2047 20.9087L28.1961 20.9173ZM48.125 36.2571H39.4109V19.4048H41.3875V34.4696H48.125V36.2571Z" fill="white"/>
</svg>
