<svg width="55" height="49" viewBox="0 0 55 49" fill="none" xmlns="http://www.w3.org/2000/svg">
<path d="M11.9235 46.4149L0.660969 26.9076C0.22796 26.1576 0 25.3069 0 24.4409C0 23.5749 0.22796 22.7241 0.660969 21.9741L11.9235 2.46698C12.3565 1.71692 12.9793 1.09406 13.7294 0.661011C14.4794 0.227962 15.3302 -1.39498e-05 16.1963 6.4021e-10H38.7209C39.587 1.61766e-05 40.4377 0.228006 41.1877 0.661054C41.9377 1.0941 42.5605 1.71695 42.9935 2.46698L54.2558 21.9743C54.6889 22.7243 54.9168 23.575 54.9168 24.441C54.9168 25.3071 54.6889 26.1578 54.2558 26.9078L42.9935 46.4151C42.5605 47.1651 41.9377 47.788 41.1877 48.221C40.4377 48.6541 39.587 48.8821 38.7209 48.8821H16.1963C15.3302 48.8821 14.4794 48.6541 13.7293 48.221C12.9793 47.7879 12.3565 47.165 11.9235 46.4149Z" fill="url(#paint0_linear)"/>
<path d="M40.3299 24.4554L34.3864 14.1211L28.4429 24.4554L34.3864 34.7897L40.3299 24.4554Z" fill="#DAE7FC"/>
<path d="M14.5874 25.314L20.5095 35.6105H32.3844L26.4624 25.314H14.5874Z" fill="#B6CFF8"/>
<path d="M26.386 23.5973L32.4033 13.3003H20.5279L14.5874 23.5973H26.386Z" fill="white"/>
<defs>
<linearGradient id="paint0_linear" x1="27.4586" y1="6.40211e-10" x2="27.4586" y2="48.8059" gradientUnits="userSpaceOnUse">
<stop stop-color="#4387FD"/>
<stop offset="1" stop-color="#4683EA"/>
</linearGradient>
</defs>
</svg>
