<svg width="80" height="80" viewBox="0 0 80 80" fill="none" xmlns="http://www.w3.org/2000/svg">
<path d="M39.7026 42.403L55.6761 34.588C52.5845 33.5575 49.5787 31.1528 38.8438 31.1528C27.1642 31.1528 23.2137 34.588 23.2137 34.588L39.7026 42.403Z" fill="#C9781F"/>
<path d="M21.582 44.9791C20.8091 44.6356 21.582 43.6909 21.9255 43.3474C22.6984 42.7463 23.8149 42.5745 24.7595 42.6604L24.6737 44.378C24.5878 45.2368 24.416 44.8932 23.8149 45.3226C23.1278 45.752 21.6679 46.4391 21.582 44.9791Z" fill="#F6D2A2"/>
<path d="M22.1833 44.6357C22.0115 44.8075 21.8398 44.8934 21.5822 44.9793Z" fill="#C6B198"/>
<path d="M28.195 21.3627C23.6434 18.3569 19.3494 25.6566 25.1034 27.2025L28.195 21.3627ZM53.787 26.6013C59.0257 24.7978 54.9893 17.6699 50.4377 20.8474L53.787 26.6013Z" fill="#37ABC8"/>
<path d="M51.3822 63.2715C50.2658 63.4432 49.4928 64.2162 48.8917 65.0749C50.3516 65.5043 51.2963 68.6819 52.928 67.1361C54.6456 66.1914 52.4986 64.0444 51.3822 63.2715ZM30.857 65.762C30.0841 64.7314 29.1395 63.5291 27.7654 63.7868C26.7348 64.5597 24.7596 65.6761 25.7043 67.2219C25.9619 67.4796 25.9619 67.3078 26.1337 67.3937C26.2196 67.5654 26.649 68.4242 27.6795 67.7372C28.7959 67.1361 29.5689 65.9337 30.857 65.762Z" fill="#F6D2A2"/>
<path d="M26.3913 23.0803C25.6183 22.6509 24.8454 22.5651 24.416 23.4239C23.9866 24.2827 24.5019 24.7979 25.2748 25.2273L26.3913 23.0803ZM51.468 22.3074C52.2409 21.878 53.0138 21.7922 53.4432 22.6509C53.8726 23.5097 53.3573 24.025 52.5844 24.4544L51.468 22.3074Z" fill="#077E91"/>
<path d="M57.7372 44.8077C58.5101 44.4642 57.7372 43.5195 57.3937 43.176C56.6208 42.5749 55.5902 42.4031 54.5597 42.489L54.6456 44.2066C54.7314 45.0654 54.9032 44.7219 55.5044 45.1513C56.1914 45.5807 57.6513 46.2677 57.7372 44.8077Z" fill="#F6D2A2"/>
<path d="M57.1361 44.4644C57.3079 44.6361 57.4796 44.722 57.7373 44.8079Z" fill="#C6B198"/>
<path d="M39.1014 17.7559C32.9181 18.2711 27.25 19.6452 25.103 26.0003C23.0419 32.0977 25.0172 38.3669 24.7595 44.5502C24.5019 49.7888 23.1278 56.8309 26.0477 61.5543C28.5382 65.5906 33.8627 67.0506 38.2426 67.1364C43.8247 67.3082 50.6951 65.9341 53.3573 60.5237C55.9337 55.371 55.2467 48.93 54.9032 43.3479C54.5596 36.9069 55.5043 30.2084 53.0138 24.1109C50.1798 18.6147 44.8553 17.7559 39.1014 17.7559Z" fill="#37ABC8"/>
<path d="M40.1321 25.485C39.7886 19.9028 48.2048 18.4429 49.493 23.8532C50.867 29.8648 41.1627 31.4106 40.1321 25.485ZM28.4526 26.4296C27.1644 20.0746 37.4699 18.8723 37.8134 25.0556C38.1569 30.2942 29.8266 31.5824 28.4526 26.4296ZM40.1321 31.84C40.1321 32.7847 39.9604 33.7294 40.0463 34.674C40.218 35.1034 40.6474 35.4469 41.0768 35.4469C41.4203 35.2752 41.7638 35.2752 42.0215 34.8458C42.1932 33.987 42.0215 33.2141 42.0215 32.3553L40.1321 31.84Z" fill="white"/>
<path d="M30.7713 27.1166C31.5442 27.1166 32.1454 26.4295 32.1454 25.5707C32.1454 24.7119 31.5442 24.0249 30.7713 24.0249C29.9984 24.0249 29.3972 24.7119 29.3972 25.5707C29.3972 26.4295 29.9984 27.1166 30.7713 27.1166Z" fill="black"/>
<path d="M31.3724 26.2578C31.5442 26.2578 31.716 26.0861 31.716 25.9143C31.716 25.7426 31.5442 25.5708 31.3724 25.5708C31.2007 25.5708 31.0289 25.7426 31.0289 25.9143C31.0289 26.0861 31.2007 26.2578 31.3724 26.2578Z" fill="white"/>
<path d="M42.5368 26.6874C43.3097 26.6874 43.9109 26.0003 43.9109 25.1415C43.9109 24.2827 43.3097 23.5957 42.5368 23.5957C41.7639 23.5957 41.1627 24.2827 41.1627 25.1415C41.1627 26.0003 41.7639 26.6874 42.5368 26.6874Z" fill="black"/>
<path d="M43.1377 25.9141C43.3095 25.9141 43.4812 25.7423 43.4812 25.5706C43.4812 25.3988 43.3095 25.2271 43.1377 25.2271C42.966 25.2271 42.7942 25.3988 42.7942 25.5706C42.7942 25.7423 42.966 25.9141 43.1377 25.9141ZM40.0461 32.0115C40.0461 32.9562 39.8743 33.9009 39.9602 34.8455C38.3285 36.9925 37.3838 34.0726 37.985 32.6127L40.0461 32.0115Z" fill="white"/>
<path d="M41.5921 29.521C42.8803 30.0363 44.4261 31.2386 43.3097 32.4409C42.2791 33.5573 41.2486 32.2691 40.0463 32.1833C38.9299 32.0115 37.2123 33.5573 36.4394 32.1833C35.8382 31.0668 36.7829 29.7786 37.8993 29.6928L41.5921 29.521Z" fill="#F6D2A2"/>
<path d="M38.758 38.3666C38.758 38.3666 39.3592 41.5442 39.3592 44.8935C39.3592 48.2428 38.8439 54.2543 38.5004 55.0272C38.1569 55.8001 37.4698 56.6589 37.0404 57.0024C36.6111 57.346 34.8076 57.8612 32.3171 57.9471C29.8266 58.033 26.9067 57.5177 25.1032 56.4872C23.2998 55.4566 22.6986 54.3402 22.6986 54.3402C22.6986 54.3402 23.2139 48.2428 23.7292 46.9546C24.2444 45.6664 25.3609 46.1816 25.275 43.5194C25.1891 40.8571 23.5574 41.9736 23.5574 40.256L23.2139 34.6738L38.758 38.3666Z" fill="#EF9325"/>
<path d="M39.1015 51.2484C39.2732 50.2178 39.3591 49.359 39.2732 48.3285C39.2732 48.3285 31.5441 49.1014 23.9009 46.6968C23.2997 47.4697 23.2138 49.7884 23.2138 49.7884C23.2138 49.7884 31.7159 52.0213 39.1015 51.2484ZM38.1568 55.8C38.6721 55.1988 38.8438 53.9965 38.8438 52.8801C38.8438 52.8801 30.6853 53.4812 23.0421 51.0766C22.7844 52.0213 22.7844 54.2542 22.7844 54.2542C22.7844 54.2542 30.8571 56.5729 38.1568 55.8Z" fill="#E5E5E5"/>
<path d="M40.9908 38.3666C40.9908 38.3666 40.3896 41.5442 40.3896 44.8935C40.3896 48.2428 40.9049 54.2543 41.2484 55.0272C41.592 55.8001 42.279 56.6589 42.7084 57.0024C43.1378 57.346 44.9413 57.8612 47.5176 57.9471C50.094 58.033 53.0139 57.5177 54.8174 56.4872C56.6208 55.4566 57.222 54.3402 57.222 54.3402C57.222 54.3402 56.8785 48.2428 56.2773 46.9546C55.6762 45.6664 54.6456 46.1816 54.7315 43.5194C54.8174 40.8571 55.8479 41.9736 55.762 40.256V34.6738L40.9908 38.3666Z" fill="#EF9325"/>
<path d="M40.6473 51.2484C40.4756 50.2178 40.3897 49.359 40.4756 48.3285C40.4756 48.3285 48.2906 49.1014 56.0197 46.6968C56.6209 47.4697 56.7068 49.7884 56.7068 49.7884C56.7068 49.7884 48.1188 52.0213 40.6473 51.2484ZM41.592 55.8C41.0767 55.1988 40.905 53.9965 40.8191 52.8801C40.8191 52.8801 49.0635 53.4812 56.8785 51.0766C57.1362 52.0213 57.1362 54.2542 57.1362 54.2542C57.1362 54.2542 48.9776 56.5729 41.592 55.8Z" fill="#E5E5E5"/>
<path d="M63.9208 31.9258C64.1784 31.4964 64.0925 30.9811 63.749 30.8094L63.4914 30.6376C63.1479 30.4658 62.7185 30.6376 62.4608 31.067L57.2222 41.029C56.9646 41.4584 57.0504 41.9737 57.3939 42.1454L57.6516 42.3172C57.9951 42.4889 58.4245 42.3172 58.6821 41.8878L63.9208 31.9258Z" fill="#D2E261"/>
<path d="M58.6819 41.8017C58.8537 41.544 58.6819 41.2005 58.3384 41.0288L58.0807 40.9429C57.7372 40.7711 57.3937 40.857 57.2219 41.1146L54.7314 45.6662C54.5597 45.9239 54.7314 46.2674 55.075 46.4391L55.3326 46.6109C55.6761 46.7827 56.0196 46.6968 56.1914 46.4391L58.6819 41.8017Z" fill="black"/>
<path d="M58.8538 41.5443L58.682 41.8019C58.7679 41.6302 58.5961 41.3726 58.2526 41.2008L57.995 41.029C57.6514 40.8573 57.3079 40.8573 57.222 41.029L57.3938 40.7714C57.4797 40.5996 57.8232 40.5996 58.1667 40.7714L58.4244 40.9432C58.7679 41.029 58.9396 41.3726 58.8538 41.5443Z" fill="#9B9B9B"/>
<path d="M55.848 44.3782C56.4491 44.6358 57.0503 44.3782 57.222 43.9488C57.3938 43.5194 57.0503 42.9182 56.4491 42.7465C55.848 42.5747 55.2468 42.7465 55.075 43.1759C54.9892 43.6053 55.3327 44.2064 55.848 44.3782Z" fill="#F6D2A2"/>
<path d="M16.0859 31.9255C15.9141 31.4961 16 30.9809 16.3435 30.8091L16.6012 30.7232C16.9447 30.5515 17.3741 30.8091 17.6317 31.2385L22.3551 41.2864C22.5268 41.7158 22.4409 42.2311 22.0974 42.4028L21.8398 42.5746C21.4963 42.7463 21.0669 42.4887 20.8092 42.0593L16.0859 31.9255Z" fill="#D2E261"/>
<path d="M20.8952 41.9735C20.8093 41.7158 20.9811 41.3723 21.3246 41.2006L21.5822 41.0288C21.9257 40.8571 22.2692 40.9429 22.441 41.2006L24.6739 45.9239C24.7597 46.1816 24.588 46.5251 24.2445 46.6968L23.9868 46.8686C23.6433 47.0404 23.2998 46.9545 23.128 46.6968L20.8952 41.9735Z" fill="black"/>
<path d="M20.7234 41.6302L20.8952 41.9738C20.8093 41.802 21.0669 41.5444 21.4105 41.3726L21.6681 41.2008C22.0116 41.0291 22.3551 41.0291 22.441 41.2008L22.2693 40.8573C22.1834 40.6856 21.8399 40.6856 21.4963 40.8573L21.2387 41.0291C20.8952 41.2008 20.6376 41.4585 20.7234 41.6302Z" fill="#9B9B9B"/>
<path d="M23.2139 42.8324C22.6127 43.0901 22.2692 43.6053 22.4409 44.0347C22.6127 44.4641 23.2139 44.7218 23.815 44.4641C24.4162 44.2065 24.7597 43.6912 24.5879 43.2618C24.4162 42.8324 23.815 42.6607 23.2139 42.8324Z" fill="#F6D2A2"/>
<path d="M25.7044 29.4354C25.7044 29.4354 29.0537 25.2273 30.8571 19.9887C31.0289 19.4734 30.943 19.044 30.5136 18.7864L29.9983 18.5288C29.5689 18.2711 29.0537 18.4429 28.796 18.8723L23.6433 28.319C23.3856 28.7484 23.5574 29.2637 23.9868 29.5213L24.5021 29.7789C24.9315 30.0366 25.5326 29.8648 25.7044 29.4354Z" fill="#960000"/>
<path d="M27.0785 24.1108C25.5327 26.9448 23.9869 29.1777 23.6434 29.0918C21.2387 27.7178 20.5517 24.2826 22.1834 21.3627C23.8151 18.4428 27.0785 17.1546 29.4831 18.4428C29.7408 18.7863 28.7102 21.1909 27.0785 24.1108Z" fill="#595959"/>
<path d="M53.0999 29.4354C53.0999 29.4354 49.8364 25.1414 48.2047 19.9028C48.033 19.3875 48.2047 18.9581 48.6341 18.7005L49.1494 18.4428C49.5788 18.1852 50.0941 18.3569 50.3517 18.7863L55.2468 28.3189C55.5045 28.7483 55.2468 29.2636 54.8174 29.5213L54.3022 29.7789C53.8728 30.0365 53.3575 29.8648 53.0999 29.4354Z" fill="#960000"/>
<path d="M51.8977 24.0248C53.3576 26.9447 54.9034 29.1775 55.2469 29.0917C57.7374 27.8035 58.4245 24.3683 56.8787 21.4484C55.3328 18.5285 52.1553 17.0686 49.6648 18.3567C49.4072 18.6144 50.4377 21.1049 51.8977 24.0248Z" fill="#595959"/>
<path d="M56.7926 21.792C56.7926 21.792 55.4185 17.2404 52.8421 14.8358C50.2657 12.4312 29.9124 12.3453 26.8207 14.8358C23.7291 17.3263 22.1832 21.792 22.1832 21.792V22.8226C22.1832 22.8226 23.4714 19.1298 26.8207 15.8664C30.17 12.6029 50.781 13.4617 52.928 15.8664C55.075 18.271 56.8784 22.8226 56.8784 22.8226V21.792H56.7926Z" fill="#353535"/>
<path d="M55.9339 20.0743C55.5904 20.246 55.6762 21.1048 56.1056 21.9636C56.535 22.8224 57.2221 23.3377 57.5656 23.1659C57.9091 22.9942 57.8232 22.1354 57.3938 21.2766C56.9644 20.4178 56.2774 19.9025 55.9339 20.0743ZM21.668 21.1907C21.2386 22.0495 21.0669 22.8224 21.4963 23.0801C21.9257 23.3377 22.5268 22.7365 22.9562 21.8777C23.3856 21.019 23.5574 20.246 23.128 19.9884C22.6986 19.7308 22.1833 20.3319 21.668 21.1907Z" fill="#960000"/>
<path opacity="0.6" d="M48.9777 21.8779C51.8117 21.8779 52.5846 30.1223 49.4929 31.5823L42.7944 30.8094C42.0215 30.8094 41.0768 28.0612 40.7333 27.7177C40.3897 27.3742 39.3592 27.4601 39.0157 27.7177C38.6722 27.9754 37.1263 31.067 36.2675 31.067L29.569 31.4964C26.3055 31.067 26.3055 21.8779 29.7407 21.8779H48.9777Z" fill="white"/>
<path opacity="0.5" d="M34.8935 23.7671C37.7276 23.853 40.1322 25.1412 42.8803 25.1412C44.8555 25.1412 48.8919 25.227 51.3824 25.227C51.4682 26.3435 51.7259 27.5458 51.3824 28.6622H42.9662C42.365 28.6622 41.678 28.5763 41.0768 28.4046C40.9051 28.0611 40.8192 27.8893 40.6474 27.8034C40.2181 27.5458 39.2734 27.5458 38.9299 27.8034L38.844 27.8893C37.6417 27.5458 36.3535 27.2881 34.8077 27.2881H27.0785C26.9068 26.0858 27.2503 24.7976 27.5938 23.853L34.8935 23.7671Z" fill="white"/>
<path d="M37.7275 29.6069C37.7275 29.6069 37.6416 28.4045 37.7275 29.6069C37.8993 31.0668 42.2791 30.7233 41.8497 29.0057C41.4203 27.2881 37.6416 27.6316 37.7275 29.6069Z" fill="black"/>
</svg>
