<svg width="55" height="49" viewBox="0 0 55 49" fill="none" xmlns="http://www.w3.org/2000/svg">
<path d="M11.9415 46.4849L0.661962 26.9482C0.228303 26.1971 0 25.3451 0 24.4778C0 23.6105 0.228303 22.7584 0.661962 22.0073L11.9415 2.47069C12.3751 1.71953 12.9988 1.09575 13.75 0.662053C14.5011 0.228355 15.3531 2.05551e-05 16.2205 0H38.7794C39.6467 2.05551e-05 40.4988 0.228355 41.2499 0.662053C42.001 1.09575 42.6248 1.71953 43.0584 2.47069L54.338 22.0072C54.7717 22.7583 55 23.6103 55 24.4776C55 25.345 54.7717 26.197 54.338 26.9481L43.0585 46.4847C42.6249 47.2359 42.0012 47.8597 41.25 48.2934C40.4989 48.7271 39.6468 48.9554 38.7795 48.9554H16.2205C15.3532 48.9554 14.5011 48.7271 13.75 48.2934C12.9989 47.8598 12.3751 47.236 11.9415 46.4849Z" fill="url(#paint0_linear)"/>
<path d="M22.3439 20.3955H20.1955V28.7744H22.3439V20.3955Z" fill="white"/>
<path d="M34.8047 19.3755H32.6562V28.7534H34.8047V19.3755Z" fill="white"/>
<path d="M31.6358 17.1733H23.3643V19.3218H31.6358V17.1733Z" fill="white"/>
<path d="M31.6358 29.6338H23.3643V31.7822H31.6358V29.6338Z" fill="white"/>
<path d="M24.0625 14.1655H17.6172C17.3799 14.1655 17.1876 14.3579 17.1876 14.5952V21.0405C17.1876 21.2778 17.3799 21.4702 17.6172 21.4702H24.0625C24.2998 21.4702 24.4922 21.2778 24.4922 21.0405V14.5952C24.4922 14.3579 24.2998 14.1655 24.0625 14.1655Z" fill="white"/>
<path d="M37.3829 14.1655H30.9376C30.7003 14.1655 30.5079 14.3579 30.5079 14.5952V21.0405C30.5079 21.2778 30.7003 21.4702 30.9376 21.4702H37.3829C37.6202 21.4702 37.8126 21.2778 37.8126 21.0405V14.5952C37.8126 14.3579 37.6202 14.1655 37.3829 14.1655Z" fill="white"/>
<path d="M24.0625 27.4858H17.6172C17.3799 27.4858 17.1876 27.6782 17.1876 27.9155V34.3608C17.1876 34.5981 17.3799 34.7905 17.6172 34.7905H24.0625C24.2998 34.7905 24.4922 34.5981 24.4922 34.3608V27.9155C24.4922 27.6782 24.2998 27.4858 24.0625 27.4858Z" fill="white"/>
<path d="M37.3829 27.4858H30.9376C30.7003 27.4858 30.5079 27.6782 30.5079 27.9155V34.3608C30.5079 34.5981 30.7003 34.7905 30.9376 34.7905H37.3829C37.6202 34.7905 37.8126 34.5981 37.8126 34.3608V27.9155C37.8126 27.6782 37.6202 27.4858 37.3829 27.4858Z" fill="white"/>
<defs>
<linearGradient id="paint0_linear" x1="27.5" y1="0.000214843" x2="27.5" y2="48.8795" gradientUnits="userSpaceOnUse">
<stop stop-color="#4387FD"/>
<stop offset="1" stop-color="#4683EA"/>
</linearGradient>
</defs>
</svg>
