<svg width="120" height="122" viewBox="0 0 120 122" fill="none" xmlns="http://www.w3.org/2000/svg">
<path d="M45.3928 119.327C36.3623 121.662 33.8208 122.41 29.4627 120.918C21.3132 117.826 17.6611 109.655 18.6287 103.517L28.2925 49.3076C29.3792 43.1877 35.1322 32.2257 50.7324 28.5549C63.8641 25.465 72.8733 21.9027 75.8254 25.7364C76.1237 26.1238 78.3077 28.3284 76.8057 35.9557C74.8311 45.9826 74.7744 46.4115 74.7744 46.4115C59.1318 49.7019 51.8424 51.7639 49.885 61.2316L46.8184 75.838C48.5344 75.7258 44.3994 89.3592 45.6399 93.0774C46.8804 95.9694 50.2576 96.4773 52.6694 95.9694C56.5772 95.1464 60.6848 93.3784 71.5863 90.6268C78.3221 88.9266 89.0574 83.1622 90.2979 67.8762L95.6734 37.3042L98.5679 19.5394C99.3552 13.8878 100.144 8.79004 95.6403 3.84021C100.813 7.93508 112.285 16.9211 116.881 20.6428C119.463 23.3735 120.116 25.8618 119.136 31.0367L110.348 86.6536C109.108 94.5014 103.317 105.07 89.7471 108.553C74.9385 112.353 54.1518 117.175 45.3928 119.327C36.3623 121.662 34.2788 122.254 29.4627 120.918L45.3928 119.327Z" fill="#3A75F4"/>
<path d="M75.0047 2.67305C84.0353 0.338087 86.5767 -0.410607 90.9348 1.08183C99.0843 4.17375 101.082 11.5184 100.115 17.6564L91.278 71.866C90.1914 77.9858 85.2653 88.9479 69.6651 92.6186C56.5335 95.7085 48.5556 99.2385 45.6035 95.4048C45.3052 95.0174 43.4504 93.4593 44.9011 85.822C46.8073 75.7869 46.8177 75.8381 46.8177 75.8381C62.4603 72.5477 68.3756 70.3711 70.5126 60.7682L73.5271 46.4276C75.5603 35.3417 76.8938 31.2045 75.4165 28.176C74.4546 25.4575 72.108 25.0744 69.6962 25.5823C65.7884 26.4053 59.7127 27.7951 48.8113 30.5468C42.0754 32.247 31.5206 38.494 29.0701 51.8279L23.1101 88.7808L20.5585 104.629C19.7712 110.281 20.1567 113.222 24.6603 118.171C19.4878 114.076 8.11249 105.079 3.51688 101.357C0.934282 98.6263 0.281688 96.138 1.26143 90.9631L10.0496 35.3462C11.2897 27.4984 17.0802 16.9295 30.6504 13.4471C45.459 9.64692 66.2457 4.82509 75.0047 2.67305C84.0353 0.338087 86.1187 -0.254511 90.9348 1.08183C99.1183 4.34354 101.082 11.5184 100.115 17.6564" fill="#97C8F6"/>
</svg>
