<svg width="40" height="40" viewBox="0 0 40 40" fill="none" xmlns="http://www.w3.org/2000/svg">
<rect width="40" height="40" rx="6" fill="#32335C"/>
<path fill-rule="evenodd" clip-rule="evenodd" d="M36 20.1246C36 29.0297 28.8371 36.2485 20 36.2485C11.1636 36.2485 4 29.0297 4 20.1246C4 11.2194 11.1629 4 19.9994 4C28.8358 4 35.9994 11.2194 35.9994 20.1246" fill="white"/>
<path d="M20.2698 13.8498L24.4106 24.1485L18.1564 19.1845L20.2698 13.8505V13.8498ZM27.6254 26.5208L21.2568 11.075C21.0751 10.6293 20.711 10.3936 20.2698 10.3936C19.828 10.3936 19.4382 10.6293 19.2564 11.0743L12.2656 28.0177H14.6571L17.4243 21.0327L25.6828 27.7557C26.0141 28.026 26.2543 28.1487 26.5658 28.1487C27.1893 28.1487 27.7345 27.6773 27.7345 26.9973C27.7345 26.8862 27.696 26.7102 27.6254 26.5221V26.5208Z" fill="#32335C"/>
</svg>
