<svg width="40" height="40" viewBox="0 0 40 40" fill="none" xmlns="http://www.w3.org/2000/svg">
<rect width="40" height="40" rx="6" fill="#32335C"/>
<path d="M11.5134 32.355L5.36107 21.6988C5.12453 21.2891 5 20.8244 5 20.3513C5 19.8782 5.12453 19.4135 5.36107 19.0038L11.5134 8.34763C11.75 7.93791 12.0902 7.59767 12.4999 7.36111C12.9096 7.12456 13.3743 7.00001 13.8474 7H26.1521C26.6252 7.00001 27.0899 7.12456 27.4996 7.36111C27.9093 7.59767 28.2495 7.93791 28.4861 8.34763L34.6385 19.0037C34.875 19.4134 34.9996 19.8782 34.9996 20.3513C34.9996 20.8243 34.875 21.2891 34.6385 21.6988L28.4861 32.3549C28.2496 32.7647 27.9094 33.1049 27.4997 33.3415C27.09 33.578 26.6252 33.7026 26.1522 33.7026H13.8474C13.3743 33.7026 12.9096 33.578 12.4999 33.3415C12.0902 33.105 11.75 32.7647 11.5134 32.355Z" fill="white"/>
<path opacity="0.07" d="M33.4571 25.0974L23.6647 15.3051L17.7543 17.1482L16.387 17.9296L18.3597 19.9021L15.6644 20.0584L15.723 22.5966L14.2266 24.4943L23.4915 33.7592L27.9689 33.9448L33.4571 25.0974Z" fill="black"/>
<path d="M20.4687 17.7733H19.5312V22.8708H20.4687V17.7733Z" fill="#32335C"/>
<path d="M15.5307 20.117H16.25V23.1638H15.3125V20.3352C15.3125 20.2773 15.3355 20.2218 15.3764 20.1809C15.4173 20.14 15.4728 20.117 15.5307 20.117Z" fill="#32335C"/>
<path d="M23.75 20.117H24.4693C24.5272 20.117 24.5827 20.14 24.6236 20.1809C24.6645 20.2218 24.6875 20.2773 24.6875 20.3352V23.1638H23.75V20.117Z" fill="#32335C"/>
<path d="M15.5454 19.6483H24.4544C24.5162 19.6483 24.5754 19.6728 24.6191 19.7165C24.6628 19.7602 24.6873 19.8194 24.6873 19.8812V20.5857H15.3125V19.8812C15.3125 19.8506 15.3185 19.8203 15.3302 19.792C15.3419 19.7638 15.3591 19.7381 15.3807 19.7165C15.4023 19.6948 15.428 19.6777 15.4563 19.666C15.4845 19.6543 15.5148 19.6483 15.5454 19.6483Z" fill="#32335C"/>
<path d="M23.5229 15.1952H16.477C16.3516 15.1952 16.25 15.2968 16.25 15.4222V17.7807C16.25 17.906 16.3516 18.0076 16.477 18.0076H23.5229C23.6482 18.0076 23.7499 17.906 23.7499 17.7807V15.4222C23.7499 15.2968 23.6482 15.1952 23.5229 15.1952Z" fill="#32335C"/>
<path d="M16.9587 22.2263H14.3693C14.243 22.2263 14.1406 22.3287 14.1406 22.455V24.3413C14.1406 24.4676 14.243 24.57 14.3693 24.57H16.9587C17.085 24.57 17.1874 24.4676 17.1874 24.3413V22.455C17.1874 22.3287 17.085 22.2263 16.9587 22.2263Z" fill="#32335C"/>
<path d="M25.6306 22.2263H23.0412C22.9149 22.2263 22.8125 22.3287 22.8125 22.455V24.3413C22.8125 24.4676 22.9149 24.57 23.0412 24.57H25.6306C25.7569 24.57 25.8593 24.4676 25.8593 24.3413V22.455C25.8593 22.3287 25.7569 22.2263 25.6306 22.2263Z" fill="#32335C"/>
<path d="M21.4032 22.2263H18.5967C18.4656 22.2263 18.3594 22.3326 18.3594 22.4637V24.3327C18.3594 24.4638 18.4656 24.57 18.5967 24.57H21.4032C21.5343 24.57 21.6406 24.4638 21.6406 24.3327V22.4637C21.6406 22.3326 21.5343 22.2263 21.4032 22.2263Z" fill="#32335C"/>
</svg>
