<svg width="40" height="40" viewBox="0 0 40 40" fill="none" xmlns="http://www.w3.org/2000/svg">
<rect width="40" height="40" rx="6" fill="#32335C"/>
<path d="M9.08321 16.6036H7.09834V15H10.2027L11.8124 16.6036V18.2375L11.0076 19.0424L11.8124 19.8472V21.4266L10.2027 23.0303H7.09834V21.4266H9.08321V19.7141H7.09834V18.3162H9.08321V16.6036ZM4 15H6.67473V23.0303H4V15Z" fill="white"/>
<path d="M20.1393 21.4268L18.5357 23.0304H16.7444V21.5296H17.4101V18.2074H16.7444V16.6038H18.5357L20.1393 18.2074V21.4268ZM15.6249 21.5296H16.3208V23.0304H14.5236L12.9199 21.4268V18.2074L14.5236 16.6038H16.3208V18.2074H15.6249V21.5296Z" fill="white"/>
<path d="M25.5917 18.2074H24.454V17.5054L25.3496 16.6038H26.9714L28.2725 18.1045V19.7687H25.5917V18.2074ZM21.3496 23.0304V16.6038H24.0243V23.0304H21.3496Z" fill="white"/>
<path d="M33.3254 18.2074H32.1394V16.6038H34.3965L36.0002 18.2074V23.6658L34.3965 25.2815H30.8686L30.0637 24.4706V23.8776H33.3254V18.2074ZM32.9018 21.5296V22.2377L32.103 23.0304H30.6446L29.041 21.4268V18.2074L30.6446 16.6038H31.7157V21.5296H32.9018Z" fill="white"/>
</svg>
