<svg width="40" height="40" viewBox="0 0 40 40" fill="none" xmlns="http://www.w3.org/2000/svg">
<rect width="40" height="40" rx="6" fill="#32335C"/>
<path opacity="0.85" d="M34.4339 27.9998C34.6599 27.6133 34.8003 27.1779 34.8003 26.7868V13.2129C34.8003 12.8219 34.6601 12.3865 34.434 12L20.4004 19.9999L34.4339 27.9998Z" fill="white"/>
<path opacity="0.75" d="M21.6468 35.7066L33.5527 28.9196C33.8956 28.7241 34.2073 28.3865 34.4333 27.9999L20.3998 20L6.36621 28C6.59219 28.3865 6.904 28.7242 7.24687 28.9196L19.1527 35.7066C19.8385 36.0976 20.961 36.0976 21.6468 35.7066Z" fill="white"/>
<path d="M34.4336 11.9999C34.2075 11.6133 33.8957 11.2757 33.5528 11.0802L21.647 4.29328C20.9612 3.90224 19.8387 3.90224 19.1529 4.29328L7.24705 11.0802C6.56113 11.4712 6 12.4309 6 13.2129V26.7869C6 27.1779 6.14033 27.6134 6.3664 27.9999L20.3999 19.9999L34.4336 11.9999Z" fill="white"/>
<path d="M20.3998 29.4787C15.1063 29.4787 10.7998 25.2266 10.7998 20C10.7998 14.7735 15.1063 10.5214 20.3998 10.5214C23.8155 10.5214 27.0011 12.3363 28.7132 15.2577L24.5586 17.6315C23.7017 16.1692 22.108 15.2607 20.3998 15.2607C17.753 15.2607 15.5998 17.3867 15.5998 20C15.5998 22.6133 17.753 24.7394 20.3998 24.7394C22.1082 24.7394 23.7019 23.8309 24.5589 22.3683L28.7135 24.742C27.0013 27.6637 23.8157 29.4787 20.3998 29.4787Z" fill="#32335C"/>
<path d="M29.9998 19.4734H28.9331V18.4203H27.8665V19.4734H26.7998V20.5266H27.8665V21.5799H28.9331V20.5266H29.9998V19.4734Z" fill="#32335C"/>
<path d="M33.9998 19.4734H32.9331V18.4203H31.8665V19.4734H30.7998V20.5266H31.8665V21.5799H32.9331V20.5266H33.9998V19.4734Z" fill="#32335C"/>
</svg>
