<svg width="40" height="40" viewBox="0 0 40 40" fill="none" xmlns="http://www.w3.org/2000/svg">
<rect width="40" height="40" rx="6" fill="#32335C"/>
<path d="M36 20.3998C36 22.0797 34.9686 23.5763 34.4761 25.0903C33.965 26.6611 33.8997 28.473 32.9458 29.7807C31.9823 31.1014 30.2686 31.719 28.9446 32.6801C27.6336 33.6317 26.5203 35.0722 24.946 35.5825C23.4265 36.0746 21.6836 35.5778 20 35.5778C18.3164 35.5778 16.5735 36.0746 15.0545 35.5825C13.4797 35.0722 12.3664 33.6317 11.0554 32.6801C9.73142 31.719 8.01774 31.1014 7.05423 29.7807C6.1003 28.4735 6.03499 26.6616 5.52385 25.0903C5.03056 23.5746 4 22.078 4 20.3998C4 18.7217 5.03143 17.2234 5.52385 15.7094C6.03499 14.1385 6.1003 12.3266 7.05423 11.019C8.01774 9.69868 9.73142 9.08067 11.0554 8.12C12.3664 7.16845 13.4797 5.72744 15.0545 5.21757C16.5735 4.72551 18.3164 5.22192 20 5.22192C21.6836 5.22192 23.4265 4.72551 24.9456 5.21757C26.5203 5.72744 27.6336 7.16845 28.9446 8.12C30.2686 9.08067 31.9823 9.69868 32.9458 11.019C33.8997 12.3266 33.965 14.1385 34.4761 15.7094C34.9686 17.2234 36 18.7204 36 20.3998Z" fill="white"/>
<path fill-rule="evenodd" clip-rule="evenodd" d="M9.66036 19.1689C9.23551 19.0073 8.81636 18.8478 7.97266 18.8478V18.75C8.84283 18.75 9.28091 18.9164 9.7129 19.0808L9.71391 19.0811C10.1387 19.2428 10.5578 19.4022 11.4012 19.4022C12.2446 19.4022 12.6637 19.2428 13.0886 19.0811L13.0896 19.0808C13.5217 18.9164 13.9599 18.75 14.8301 18.75C15.7002 18.75 16.1382 18.9164 16.5702 19.0808L16.5711 19.0811C16.9959 19.2427 17.4149 19.4022 18.2586 19.4022C19.1022 19.4022 19.5213 19.2427 19.946 19.0811L19.947 19.0808C20.3789 18.9164 20.8169 18.75 21.6871 18.75C22.5572 18.75 22.9953 18.9164 23.4273 19.0808L23.4283 19.0811C23.8531 19.2428 24.2722 19.4022 25.1156 19.4022C25.959 19.4022 26.3781 19.2428 26.803 19.0811L26.804 19.0808C27.2361 18.9164 27.6743 18.75 28.5445 18.75C29.4146 18.75 29.8527 18.9164 30.2848 19.0808L30.2857 19.0811C30.7106 19.2427 31.1297 19.4022 31.9734 19.4022V19.5C31.1032 19.5 30.6651 19.3336 30.2331 19.1693L30.2321 19.1689C29.8073 19.0073 29.3881 18.8478 28.5445 18.8478C27.7008 18.8478 27.2815 19.0073 26.8566 19.1689L26.8557 19.1693C26.4236 19.3336 25.9855 19.5 25.1156 19.5C24.2456 19.5 23.8076 19.3336 23.3756 19.1693L23.3748 19.1689C22.9499 19.0073 22.5308 18.8478 21.6871 18.8478C20.8434 18.8478 20.4244 19.0073 19.9996 19.1689L19.9987 19.1693C19.5667 19.3336 19.1287 19.5 18.2586 19.5C17.3884 19.5 16.9504 19.3336 16.5185 19.1693L16.5175 19.1689C16.0928 19.0073 15.6737 18.8478 14.8301 18.8478C13.9863 18.8478 13.5671 19.0073 13.1422 19.1689L13.1413 19.1693C12.7092 19.3336 12.2711 19.5 11.4012 19.5C10.5312 19.5 10.0932 19.3336 9.66121 19.1693L9.66036 19.1689Z" fill="#32335C"/>
<path fill-rule="evenodd" clip-rule="evenodd" d="M9.6425 20.9132C9.22016 20.6915 8.80732 20.4747 7.97266 20.4747V20.2497C8.85147 20.2497 9.29586 20.4824 9.73013 20.7104L9.73176 20.7113C10.1541 20.933 10.5668 21.1497 11.4012 21.1497C12.2355 21.1497 12.6484 20.933 13.0708 20.7113L13.0724 20.7104C13.5068 20.4824 13.9512 20.2497 14.8301 20.2497C15.7089 20.2497 16.1532 20.4824 16.5874 20.7105L16.5889 20.7113C17.0112 20.933 17.424 21.1497 18.2586 21.1497C19.0932 21.1497 19.5059 20.933 19.9282 20.7113L19.9297 20.7105C20.364 20.4824 20.8082 20.2497 21.6871 20.2497C22.5659 20.2497 23.0103 20.4824 23.4445 20.7104L23.4462 20.7113C23.8685 20.933 24.2812 21.1497 25.1156 21.1497C25.9499 21.1497 26.3628 20.933 26.7852 20.7113L26.7868 20.7104C27.2212 20.4824 27.6657 20.2497 28.5445 20.2497C29.4233 20.2497 29.8677 20.4824 30.302 20.7104L30.3035 20.7113C30.7259 20.933 31.1388 21.1497 31.9734 21.1497V21.3747C31.0946 21.3747 30.6502 21.142 30.2158 20.914L30.2143 20.9132C29.7919 20.6914 29.3791 20.4747 28.5445 20.4747C27.7098 20.4747 27.2968 20.6915 26.8744 20.9132L26.8729 20.914C26.4386 21.142 25.9942 21.3747 25.1156 21.3747C24.2369 21.3747 23.7927 21.142 23.3584 20.914L23.3569 20.9132C22.9346 20.6915 22.5217 20.4747 21.6871 20.4747C20.8525 20.4747 20.4397 20.6914 20.0175 20.9132L20.0159 20.914C19.5817 21.142 19.1374 21.3747 18.2586 21.3747C17.3797 21.3747 16.9355 21.142 16.5012 20.914L16.4997 20.9132C16.0774 20.6914 15.6647 20.4747 14.8301 20.4747C13.9954 20.4747 13.5824 20.6915 13.16 20.9132L13.1585 20.914C12.7242 21.142 12.2798 21.3747 11.4012 21.3747C10.5225 21.3747 10.0782 21.142 9.64398 20.914L9.6425 20.9132Z" fill="#32335C"/>
<path fill-rule="evenodd" clip-rule="evenodd" d="M9.62464 22.8186C9.20482 22.6146 8.79827 22.4169 7.97266 22.4169V22.1252C8.8601 22.1252 9.31081 22.3436 9.74736 22.5558L9.74962 22.5569C10.1694 22.761 10.5758 22.9586 11.4012 22.9586C12.2265 22.9586 12.633 22.761 13.0529 22.5569L13.0552 22.5558C13.4918 22.3436 13.9426 22.1252 14.8301 22.1252C15.7175 22.1252 16.1681 22.3436 16.6046 22.5558L16.6068 22.5569C17.0266 22.761 17.433 22.9586 18.2586 22.9586C19.0841 22.9586 19.4906 22.761 19.9103 22.5569L19.9125 22.5558C20.349 22.3436 20.7996 22.1252 21.6871 22.1252C22.5745 22.1252 23.0252 22.3436 23.4618 22.5558L23.464 22.5569C23.8838 22.761 24.2902 22.9586 25.1156 22.9586C25.9409 22.9586 26.3474 22.761 26.7673 22.5569L26.7696 22.5558C27.2062 22.3436 27.657 22.1252 28.5445 22.1252C29.4319 22.1252 29.8826 22.3436 30.3192 22.5558L30.3214 22.5569C30.7413 22.761 31.1478 22.9586 31.9734 22.9586V23.2503C31.0859 23.2503 30.6352 23.0319 30.1986 22.8197L30.1964 22.8186C29.7766 22.6145 29.37 22.4169 28.5445 22.4169C27.7188 22.4169 27.3122 22.6146 26.8923 22.8187L26.8902 22.8197C26.4535 23.0319 26.0028 23.2503 25.1156 23.2503C24.2283 23.2503 23.7777 23.0319 23.3412 22.8197L23.339 22.8186C22.9192 22.6146 22.5127 22.4169 21.6871 22.4169C20.8615 22.4169 20.4551 22.6145 20.0353 22.8186L20.0331 22.8197C19.5966 23.0319 19.146 23.2503 18.2586 23.2503C17.3711 23.2503 16.9205 23.0319 16.484 22.8197L16.4818 22.8186C16.0621 22.6145 15.6556 22.4169 14.8301 22.4169C14.0044 22.4169 13.5978 22.6146 13.1779 22.8187L13.1757 22.8197C12.7391 23.0319 12.2884 23.2503 11.4012 23.2503C10.5139 23.2503 10.0633 23.0319 9.62675 22.8197L9.62464 22.8186Z" fill="#32335C"/>
<path d="M20.0004 6.59979C12.4894 6.59979 6.40039 12.7783 6.40039 20.3998C6.40039 28.0213 12.4894 34.1998 20.0004 34.1998C27.5114 34.1998 33.6004 28.023 33.6004 20.3998C33.6004 12.7765 27.5114 6.59979 20.0004 6.59979ZM19.9969 32.9991C13.1377 32.9991 7.58499 27.3621 7.58368 20.402C7.58368 13.4344 13.1507 7.78943 20.0148 7.8027C26.8788 7.81596 32.4232 13.4525 32.4171 20.4117C32.411 27.371 26.8562 33.0013 19.9969 32.9991Z" fill="#32335C"/>
<path d="M13.5961 26.6834C13.5543 26.5392 13.3556 26.3958 13.2013 26.4151C12.9822 26.4431 12.7639 26.4794 12.5004 26.5187C12.5974 26.2617 12.6794 26.0423 12.763 25.8229C12.8354 25.6323 12.6794 25.5399 12.5815 25.438C12.4837 25.336 12.4071 25.4647 12.3406 25.5174C11.9864 25.7978 11.643 26.092 11.2855 26.3678C11.1157 26.4986 11.2436 26.5747 11.3122 26.6687C11.3808 26.7628 11.4507 26.8685 11.5908 26.7452C11.7522 26.6035 11.9228 26.4719 12.0926 26.3344C12.0989 26.3503 12.1047 26.3578 12.1031 26.3628C12.0696 26.4598 12.0332 26.5559 12.0006 26.6533C11.9324 26.8589 12.0642 27.0089 12.2804 26.9751C12.3703 26.9609 12.4619 26.9333 12.569 26.9792C12.395 27.1218 12.244 27.2555 12.0826 27.3746C11.95 27.4724 12.0136 27.5522 12.0935 27.6253C12.1733 27.6985 12.2068 27.889 12.3778 27.7507C12.7623 27.4409 13.1456 27.1301 13.5275 26.8183C13.5668 26.7862 13.6174 26.7561 13.5961 26.6834Z" fill="#32335C"/>
<path d="M20.8906 11.9522C21.2086 12.0622 21.3346 12.0117 21.4002 11.7364C21.4148 11.6765 21.4279 11.617 21.4455 11.558C21.4596 11.5099 21.4455 11.4289 21.5335 11.439C21.6215 11.4492 21.7343 11.4342 21.7664 11.5441C21.7985 11.6541 21.8384 11.7514 21.8744 11.8549C21.9755 12.14 22.0451 12.1844 22.3918 12.1994C22.5221 12.2051 22.5513 12.1681 22.5168 12.0707C22.4623 11.9156 22.4151 11.7584 22.3573 11.604C22.3305 11.5335 22.3086 11.492 22.4239 11.4517C22.705 11.3523 22.7808 11.1389 22.8008 10.9194C22.8008 10.6481 22.6063 10.4498 22.2425 10.3683C21.9468 10.3023 21.6434 10.2612 21.3438 10.2054C21.232 10.185 21.176 10.2229 21.1551 10.3125C21.0404 10.8012 20.9237 11.2932 20.8103 11.7844C20.7953 11.8508 20.7841 11.9156 20.8906 11.9522ZM21.7436 10.6896C21.9891 10.6689 22.226 10.7878 22.2235 10.9096C22.2211 11.0314 22.136 11.0904 21.9711 11.0941C21.8695 11.0224 21.6337 11.1389 21.5991 10.9568C21.5845 10.8798 21.5505 10.708 21.7436 10.6913V10.6896Z" fill="#32335C"/>
<path d="M18.18 28.8977C18.0515 28.8597 17.9202 28.8118 17.875 29.0049C17.8257 29.2171 17.7506 29.4241 17.6727 29.6797C17.5537 29.3599 17.4433 29.0858 17.3514 28.8069C17.2912 28.6245 17.1184 28.6261 16.9727 28.6024C16.812 28.5787 16.841 28.7251 16.8156 28.8069C16.6799 29.2306 16.5631 29.6601 16.4174 30.0813C16.3459 30.2891 16.5156 30.2703 16.6287 30.3059C16.7491 30.3431 16.8763 30.3876 16.922 30.2077C16.9767 29.9922 17.0496 29.7803 17.1234 29.5394C17.1537 29.6024 17.1745 29.6384 17.1885 29.676C17.279 29.9214 17.3736 30.1639 17.46 30.4097C17.522 30.5913 17.703 30.5803 17.8474 30.5983C17.9917 30.6163 17.9619 30.4756 17.9859 30.4016C18.1216 29.977 18.2361 29.5472 18.3841 29.1267C18.4515 28.9231 18.2954 28.9321 18.18 28.8977Z" fill="#32335C"/>
<path d="M28.6598 26.1891C28.5115 26.1691 28.3654 26.1279 28.2165 26.1148C28.094 26.1041 28.0632 26.0642 28.0591 25.9448C28.0492 25.6473 27.7629 25.4034 27.4512 25.4C27.2373 25.3945 27.0735 25.4952 26.9424 25.6363C26.7791 25.8118 26.6389 26.006 26.4751 26.181C26.3638 26.3004 26.3779 26.3744 26.5104 26.4683C26.9066 26.7496 27.2997 27.0356 27.6837 27.3309C27.8194 27.4329 27.8877 27.4223 27.9877 27.2944C28.1686 27.0628 28.1758 27.0683 27.932 26.8907C27.8787 26.8516 27.8226 26.8151 27.7737 26.7713C27.7362 26.7377 27.643 26.7241 27.6955 26.6476C27.738 26.586 27.7746 26.5053 27.8836 26.5261C27.9926 26.5469 28.1098 26.5499 28.2152 26.586C28.4581 26.671 28.6092 26.5822 28.7412 26.3931C28.8285 26.2703 28.8331 26.2121 28.6598 26.1891ZM27.3029 26.4199C27.2689 26.4224 27.0256 26.2261 27.0278 26.1976C27.0337 26.1228 27.3119 25.8725 27.3897 25.8725C27.4942 25.8921 27.5706 25.9409 27.5792 26.0489C27.5842 26.1148 27.3544 26.4156 27.3029 26.4199Z" fill="#32335C"/>
<path d="M17.8543 12.063C17.8685 12.1468 17.895 12.2139 17.9965 12.1975C18.3634 12.1321 18.7326 12.0755 19.097 11.9975C19.2894 11.9556 19.157 11.8064 19.159 11.704C19.161 11.5946 19.1031 11.5615 18.9988 11.5825C18.7995 11.6223 18.5973 11.6495 18.398 11.6902C18.2945 11.7112 18.2672 11.6625 18.2574 11.5716C18.2488 11.4906 18.2374 11.4277 18.3511 11.4147C18.5195 11.3963 18.6841 11.3472 18.8525 11.3288C19.0347 11.3087 19.0012 11.1909 18.9817 11.0718C18.9621 10.9527 18.9377 10.855 18.7779 10.9003C18.6283 10.9422 18.4697 10.9489 18.3189 10.9879C18.213 11.0156 18.1612 11.0089 18.1392 10.8814C18.1151 10.7439 18.1893 10.7326 18.2839 10.7179C18.4514 10.6923 18.6181 10.6592 18.7856 10.634C18.8928 10.6173 18.9752 10.5867 18.932 10.4479C18.8973 10.3364 18.9466 10.1603 18.7229 10.2081C18.4045 10.2764 18.0837 10.3338 17.7617 10.3758C17.6077 10.3959 17.5865 10.4668 17.6093 10.5984C17.692 11.0877 17.7732 11.5766 17.8543 12.063Z" fill="#32335C"/>
<path d="M23.6043 29.1934C23.461 29.2474 23.3146 29.2942 23.1658 29.3336C23.0425 29.3702 22.9535 29.4167 23.0272 29.5619C23.0857 29.6743 23.07 29.861 23.3035 29.7742C23.3462 29.7583 23.392 29.7208 23.4337 29.7692C23.4755 29.8176 23.448 29.8752 23.4274 29.9208C23.3674 30.0519 23.2415 30.108 23.1005 30.1309C22.9594 30.1537 22.8429 30.0911 22.7726 29.977C22.674 29.8191 22.6074 29.6458 22.5759 29.4656C22.5302 29.1994 22.8031 28.9665 23.0631 29.0829C23.2774 29.1788 23.4387 29.1021 23.6205 29.0528C23.7449 29.019 23.7454 28.9501 23.6736 28.8661C23.5075 28.6715 23.2804 28.6099 23.0228 28.5999C22.7517 28.599 22.4896 28.6899 22.2854 28.8556C22.0396 29.0601 21.9413 29.3195 22.0396 29.6158C22.164 30.0035 22.2363 30.4377 22.7554 30.5655C23.1535 30.6628 23.5045 30.5482 23.7877 30.2861C24.0939 30.0012 24.0197 29.6692 23.886 29.3309C23.8275 29.1866 23.7705 29.1254 23.6043 29.1934Z" fill="#32335C"/>
<path d="M26.0826 28.4692C25.9317 28.5818 25.7676 28.6782 25.6162 28.7907C25.5338 28.8521 25.4925 28.8328 25.4393 28.7588C25.3861 28.6849 25.3697 28.6408 25.4583 28.5853C25.5956 28.4991 25.7271 28.4047 25.8607 28.3134C25.9045 28.2835 25.9572 28.2591 25.9523 28.1867C25.9172 28.0973 25.8575 28.0184 25.7795 27.9585C25.7028 27.907 25.6434 27.9857 25.5837 28.025C25.46 28.1069 25.3305 28.1824 25.215 28.2745C25.1189 28.3508 25.0913 28.2812 25.0439 28.2269C24.987 28.1635 24.9862 28.1242 25.0658 28.0746C25.2204 27.9782 25.3635 27.8649 25.5193 27.7712C25.6472 27.6949 25.6199 27.6209 25.5449 27.5328C25.4785 27.4541 25.4381 27.3361 25.2913 27.4423C25.0225 27.6335 24.7462 27.8157 24.4712 27.9998C24.3846 28.0577 24.3808 28.1151 24.4415 28.1966C24.726 28.5731 25.0068 28.952 25.2884 29.3309C25.3395 29.3994 25.3894 29.4265 25.474 29.3679C25.756 29.1712 26.0404 28.9777 26.3271 28.7876C26.4619 28.6982 26.3803 28.6239 26.3226 28.5432C26.2648 28.4626 26.21 28.3736 26.0826 28.4692Z" fill="#32335C"/>
<path d="M15.1848 27.4274C15.1232 27.3782 15.058 27.4013 15.0025 27.4495C14.5567 27.836 14.1113 28.2232 13.6664 28.611C13.6078 28.6602 13.5642 28.7324 13.6488 28.785C13.8047 28.8832 13.9474 29.1289 14.1549 28.8695C14.165 28.8524 14.1807 28.8403 14.1987 28.836C14.2167 28.8317 14.2354 28.8354 14.251 28.8464C14.4166 28.9673 14.5835 29.0857 14.7487 29.2066C14.7928 29.24 14.7782 29.2921 14.773 29.3402C14.7496 29.551 14.8804 29.7883 15.0685 29.7996C15.265 29.8109 15.1725 29.5795 15.2342 29.4709C15.2414 29.4566 15.2465 29.4409 15.2492 29.4247C15.3637 28.9014 15.4782 28.3776 15.6016 27.8106C15.5522 27.5983 15.3342 27.5541 15.1848 27.4274ZM14.9029 28.7403C14.5589 28.5147 14.5589 28.5147 14.8382 28.2661C14.8945 28.217 14.9527 28.1678 15.0355 28.0971C15.0145 28.3166 14.9699 28.5325 14.9029 28.7403Z" fill="#32335C"/>
<path d="M14.7051 13.0756C14.8875 13.3822 15.1678 13.4732 15.4649 13.3407C15.7737 13.2055 16.0123 12.8405 15.9999 12.5069C15.9935 12.4269 15.9782 12.3483 15.9547 12.2732C15.9514 12.2513 15.9417 12.2316 15.9275 12.2176C15.9132 12.2036 15.8953 12.1962 15.8769 12.1967C15.7711 12.1967 15.5766 12.4261 15.5751 12.5635C15.5733 12.7486 15.4755 12.8414 15.3532 12.9006C15.2375 12.9563 15.1342 12.9006 15.066 12.7844C14.9846 12.6479 14.9121 12.5038 14.8492 12.3536C14.7981 12.2268 14.8076 12.0885 14.9029 11.99C14.9981 11.8914 15.116 11.8247 15.2514 11.9144C15.3463 11.9776 15.6021 11.8702 15.6565 11.7584C15.693 11.6869 15.6463 11.6466 15.6167 11.6069C15.5675 11.5396 15.5068 11.4861 15.4386 11.4504C15.3705 11.4147 15.2968 11.3975 15.2226 11.4001C14.7342 11.4023 14.3536 11.8574 14.4051 12.3549C14.4343 12.6351 14.5777 12.856 14.7051 13.0756Z" fill="#32335C"/>
<path d="M20.7472 29.4035C20.6168 29.0005 20.5272 28.9466 20.1784 29.038C20.15 29.0416 20.123 29.0548 20.1007 29.0761C20.0784 29.0974 20.0617 29.1259 20.0526 29.1581C19.9065 29.7137 19.7609 30.2701 19.6157 30.8275C19.6031 30.8764 19.5846 30.9339 19.6338 30.9723C19.7388 31.0545 20.0146 30.9394 20.0619 30.7946C20.0815 30.7343 20.0819 30.6607 20.1661 30.6626C20.3199 30.6662 20.4738 30.6626 20.6276 30.6539C20.6822 30.6511 20.7161 30.6758 20.7257 30.7343C20.7553 30.917 20.8476 30.9709 20.9749 30.9316C21.2353 30.9239 21.2364 30.923 21.1511 30.6575C21.0167 30.2384 20.8821 29.8204 20.7472 29.4035ZM20.3411 30.229C20.2257 30.229 20.2088 30.1906 20.2434 30.0741C20.2853 29.9316 20.3203 29.7863 20.3692 29.6008C20.4203 29.7562 20.458 29.8681 20.4938 29.9805C20.5738 30.2349 20.5718 30.2263 20.3411 30.229Z" fill="#32335C"/>
<path d="M24.5818 13.2978C24.6935 13.3513 24.7999 13.4938 24.9288 13.3053C25.0992 13.0545 25.2839 12.8125 25.4614 12.5663C25.6753 12.2704 25.681 12.2616 26.0247 12.4509C26.2075 12.5521 26.2557 12.443 26.3325 12.3456C26.4146 12.2411 26.4471 12.1613 26.2848 12.0777C25.9029 11.8785 25.5283 11.6706 25.1607 11.4541C25.0047 11.363 24.9273 11.3872 24.8266 11.5226C24.7149 11.6718 24.7378 11.7513 24.9106 11.8315C25.0109 11.8779 25.123 11.9205 25.1922 12.0075C25.1569 12.0572 25.1283 12.099 25.0968 12.14C24.8806 12.4392 24.6705 12.7418 24.4467 13.0365C24.3264 13.1987 24.4653 13.2417 24.5818 13.2978Z" fill="#32335C"/>
<path d="M24.7954 22.6596C24.6866 22.2003 24.579 21.748 24.4702 21.2905C24.4646 21.2666 24.453 21.2446 24.4365 21.2268C24.4201 21.2091 24.3993 21.1961 24.3764 21.1892C24.3535 21.1823 24.3292 21.1817 24.3061 21.1876C24.2829 21.1934 24.2616 21.2055 24.2444 21.2225L23.1974 22.2535C23.181 22.2697 23.1691 22.29 23.1628 22.3125C23.1565 22.3349 23.156 22.3586 23.1614 22.3813C23.1668 22.404 23.1779 22.4248 23.1936 22.4417C23.2093 22.4586 23.229 22.4709 23.2507 22.4775C23.2897 22.4888 23.3278 22.4997 23.3668 22.508C23.4515 22.5267 23.443 22.5559 23.4036 22.6174C23.1842 22.9612 22.8953 23.2522 22.5565 23.4706L22.5481 23.4758C22.2561 23.6186 21.947 23.7212 21.6289 23.7808C21.3001 23.8457 20.9669 23.8854 20.6323 23.8994C20.6218 23.8997 20.6112 23.8979 20.6014 23.8939C20.5916 23.89 20.5826 23.884 20.5751 23.8764C20.5676 23.8688 20.5616 23.8596 20.5576 23.8496C20.5536 23.8395 20.5517 23.8288 20.5518 23.8179V19.0079C20.5518 19.0018 20.553 18.9956 20.5553 18.9899C20.5576 18.9842 20.561 18.979 20.5652 18.9747C20.5695 18.9703 20.5745 18.9668 20.5801 18.9645C20.5856 18.9621 20.5916 18.9609 20.5976 18.9609C20.6399 18.9609 20.6916 18.9696 20.8157 18.9683C21.0597 18.9657 21.3138 18.9657 21.5586 18.9509C21.6383 18.9461 21.6827 18.9487 21.7336 18.9879C21.8368 19.0718 21.967 19.1126 22.0981 19.1022C22.2293 19.0918 22.3518 19.0309 22.4413 18.9317C22.5297 18.8321 22.5791 18.7023 22.58 18.5674C22.5808 18.4326 22.5331 18.3021 22.446 18.2013C22.3585 18.1004 22.2372 18.0372 22.1063 18.0244C21.9754 18.0117 21.8447 18.0503 21.7403 18.1325C21.711 18.1605 21.6731 18.1771 21.6332 18.1796C21.2921 18.1778 20.9513 18.1778 20.6107 18.1796C20.5898 18.1823 20.5687 18.1765 20.5518 18.1634V17.6135C20.5516 17.5947 20.5579 17.5765 20.5696 17.5621C20.5938 17.5362 20.6225 17.5153 20.6543 17.5006C21.205 17.213 21.4904 16.7407 21.4909 16.1119C21.4909 15.117 20.5476 14.3932 19.6149 14.6538C18.8754 14.8604 18.3951 15.616 18.5344 16.3868C18.6369 16.9533 18.961 17.3499 19.4879 17.5599C19.5076 17.5673 19.5265 17.5769 19.5442 17.5887C19.5538 17.5961 19.5615 17.6059 19.5667 17.617C19.5719 17.6281 19.5745 17.6404 19.5743 17.6527V18.1024C19.5743 18.1127 19.5723 18.1228 19.5685 18.1323C19.5646 18.1418 19.559 18.1504 19.5519 18.1576C19.5448 18.1648 19.5364 18.1705 19.5271 18.1743C19.5179 18.1782 19.508 18.1801 19.498 18.18C19.1317 18.1756 18.7649 18.1774 18.3968 18.18C18.3462 18.1797 18.297 18.1626 18.2566 18.1312C18.152 18.0495 18.0211 18.0117 17.8904 18.0255C17.7598 18.0392 17.639 18.1035 17.5526 18.2053C17.466 18.3053 17.4187 18.435 17.42 18.569C17.4212 18.703 17.4709 18.8317 17.5594 18.93C17.6479 19.0283 17.7688 19.0892 17.8986 19.1008C18.0283 19.1124 18.1576 19.0739 18.2612 18.9927C18.301 18.9606 18.3505 18.9439 18.401 18.9456C18.7564 18.9456 19.1122 18.9509 19.4675 18.9456C19.4995 18.9408 19.5321 18.9479 19.5594 18.9657C19.5638 18.9699 19.5672 18.9751 19.5695 18.9808C19.5717 18.9865 19.5728 18.9926 19.5726 18.9988V23.7839C19.5726 23.795 19.5703 23.806 19.5659 23.8162C19.5616 23.8264 19.5552 23.8355 19.5473 23.8431C19.5393 23.8506 19.5299 23.8563 19.5197 23.86C19.5095 23.8636 19.4986 23.865 19.4879 23.8641C19.0563 23.8266 18.6282 23.7537 18.2079 23.6462C17.95 23.5822 17.6991 23.4916 17.459 23.3756C17.4549 23.3737 17.4509 23.3714 17.4472 23.3686C17.1085 23.124 16.826 22.806 16.6195 22.437C16.6137 22.4283 16.6102 22.4183 16.6093 22.4079C16.6085 22.3974 16.6103 22.3869 16.6145 22.3774C16.6188 22.3679 16.6254 22.3597 16.6337 22.3536C16.6421 22.3476 16.6518 22.3439 16.6619 22.3428L16.7741 22.3193C16.7964 22.3141 16.817 22.3031 16.8338 22.2872C16.8506 22.2713 16.8631 22.2511 16.8699 22.2287C16.8768 22.2063 16.8778 22.1824 16.8729 22.1595C16.868 22.1365 16.8573 22.1153 16.8419 22.0979L15.8567 20.9933C15.8417 20.9757 15.8224 20.9626 15.8007 20.9554C15.7791 20.9482 15.756 20.947 15.7338 20.9521C15.7116 20.9572 15.6912 20.9683 15.6746 20.9842C15.658 21.0002 15.6458 21.0205 15.6394 21.043C15.4937 21.5175 15.3518 21.9811 15.2078 22.4513C15.2003 22.4759 15.1991 22.502 15.2045 22.5271C15.21 22.5523 15.2217 22.5755 15.2387 22.5944C15.2556 22.6133 15.2771 22.6273 15.301 22.635C15.3249 22.6426 15.3503 22.6436 15.3747 22.6378L15.451 22.62C15.4978 22.6089 15.547 22.6143 15.5906 22.6351C15.6342 22.6559 15.6699 22.6911 15.692 22.735C16.2587 23.868 17.1109 24.6877 18.2384 25.2058C18.6789 25.4084 18.8534 25.4672 19.2337 25.5269C19.2498 25.5295 19.2647 25.5373 19.2761 25.5492L19.8551 26.1396C19.8939 26.1785 19.946 26.2003 20.0002 26.2003C20.0543 26.2003 20.1064 26.1785 20.1452 26.1396L20.7077 25.5731C20.7206 25.5603 20.7373 25.5523 20.7551 25.5505C21.3185 25.496 21.5696 25.3526 22.1758 25.0672C23.1139 24.6258 23.859 23.8575 24.3384 22.918C24.3808 22.8344 24.4181 22.8244 24.4901 22.8492C24.5176 22.8588 24.5456 22.8679 24.5748 22.8766C24.6045 22.8862 24.6362 22.8873 24.6665 22.88C24.6969 22.8727 24.7247 22.8572 24.7472 22.835C24.7698 22.8129 24.7861 22.7849 24.7946 22.7541C24.8031 22.7232 24.8034 22.6906 24.7954 22.6596ZM19.9627 16.915C19.8636 16.9114 19.7662 16.8877 19.6761 16.8451C19.586 16.8026 19.505 16.7421 19.4377 16.6672C19.3705 16.5923 19.3183 16.5044 19.2842 16.4087C19.2502 16.3129 19.2349 16.2111 19.2392 16.1092C19.2596 15.6534 19.6281 15.317 20.044 15.3497C20.482 15.3846 20.7835 15.7467 20.7615 16.1642C20.7378 16.6182 20.3761 16.9468 19.9627 16.915Z" fill="#32335C"/>
</svg>
