<svg width="40" height="40" viewBox="0 0 40 40" fill="none" xmlns="http://www.w3.org/2000/svg">
<rect width="40" height="40" rx="6" fill="#32335C"/>
<path fill-rule="evenodd" clip-rule="evenodd" d="M20 36C28.8366 36 36 28.8366 36 20C36 11.1634 28.8366 4 20 4C11.1634 4 4 11.1634 4 20C4 28.8366 11.1634 36 20 36ZM22.2959 14.0388C23.5691 15.0616 24.191 16.4079 24.2205 18.0406C24.2389 18.5315 24.1506 19.0001 24.0254 19.4613C23.7016 20.5844 23.0687 21.4956 22.1303 22.1613C21.1073 22.8866 19.9665 23.2138 18.7043 23.0725C18.064 23.0019 17.4605 22.8271 16.8937 22.5221C16.787 22.4663 16.7134 22.4477 16.7024 22.6076C16.695 22.7192 16.684 22.8308 16.6582 22.9386C16.4926 23.6527 16.1982 24.3073 15.7198 24.8651C14.8735 25.8544 13.7916 26.3565 12.5036 26.3937C11.867 26.4123 11.2524 26.2635 10.6747 25.992C9.73261 25.5494 9.04079 24.854 8.58816 23.913C8.544 23.8238 8.55504 23.7791 8.6544 23.7568C8.73167 23.7401 8.80895 23.7206 8.88623 23.701C8.96351 23.6815 9.04079 23.662 9.11807 23.6453C9.13259 23.6411 9.14886 23.6389 9.16524 23.6368C9.20698 23.6314 9.24941 23.6258 9.26526 23.5858C9.28696 23.5337 9.25069 23.5018 9.21538 23.4708L9.21536 23.4707C9.20277 23.4597 9.1903 23.4487 9.18062 23.437C8.61392 22.7527 8.04721 22.0721 7.47682 21.3915C7.3977 21.2966 7.31858 21.2027 7.23946 21.1088C7.16035 21.0149 7.08123 20.921 7.00211 20.8262C6.98003 20.7964 6.95059 20.7667 6.91379 20.7704C6.87625 20.7762 6.8727 20.8073 6.86936 20.8365C6.86844 20.8446 6.86754 20.8524 6.86595 20.8596C6.84387 20.9489 6.82087 21.0382 6.79787 21.1274L6.79785 21.1275C6.77486 21.2167 6.75187 21.306 6.7298 21.3952C6.60852 21.8929 6.48724 22.3869 6.36596 22.8809L6.36586 22.8813L6.36576 22.8817L6.36548 22.8828C6.25141 23.3403 6.13733 23.8015 6.02325 24.2626C5.99749 24.3593 6.03797 24.3854 6.12997 24.3593C6.19155 24.3427 6.25416 24.3292 6.31664 24.3157C6.42217 24.293 6.52737 24.2703 6.62676 24.2329C6.77027 24.1808 6.80339 24.2552 6.84387 24.3593C7.26706 25.4565 7.95153 26.3528 8.88255 27.0594C9.78413 27.74 10.7998 28.1454 11.9148 28.2458C13.1255 28.3574 14.281 28.1305 15.3629 27.5429C16.4117 26.9701 17.2213 26.1594 17.7953 25.1143C17.8947 24.9284 18.0014 24.88 18.1854 24.9284C18.4349 24.996 18.6944 25.0026 18.9515 25.0092C19.0054 25.0106 19.0592 25.012 19.1127 25.0139C19.5028 25.0288 19.8929 24.9841 20.2793 24.9246C21.3133 24.7684 22.2517 24.3779 23.1128 23.7903C23.9886 23.1915 24.6805 22.418 25.2104 21.4919C25.6372 20.7444 25.9132 19.9447 26.0457 19.0968C26.1672 18.3195 26.1524 17.5385 26.0016 16.7575C25.8875 16.181 25.7219 15.6306 25.4827 15.1025C25.1037 14.2582 24.5737 13.5219 23.9003 12.8933C23.8918 12.8858 23.8828 12.8786 23.8738 12.8714C23.8244 12.8318 23.7738 12.7911 23.7862 12.6999C23.8043 12.5808 23.8164 12.4608 23.8286 12.3408L23.8286 12.3408C23.8438 12.1912 23.8591 12.0415 23.8856 11.8929C23.9026 11.8023 23.9092 11.7111 23.9158 11.6204C23.9249 11.4949 23.9339 11.3703 23.9702 11.2495C24.007 11.1268 23.9776 11.0672 23.8709 11.0152C23.785 10.9745 23.6986 10.9344 23.6122 10.8941L23.6121 10.8941C23.3504 10.7723 23.0876 10.6501 22.8331 10.5131C22.697 10.4387 22.6271 10.4722 22.5387 10.5726C22.4173 10.7121 22.2931 10.8487 22.1689 10.9854L22.1689 10.9855C22.0447 11.1221 21.9205 11.2588 21.7991 11.3982C21.7328 11.4726 21.674 11.4987 21.5746 11.4652C20.9233 11.2309 20.2572 11.0672 19.558 11.0561C19.3667 11.0524 19.2231 10.9966 19.1422 10.7809C19.0565 10.5576 18.9529 10.34 18.8492 10.122C18.7835 9.98398 18.7178 9.84586 18.6564 9.70605C18.6159 9.61679 18.5681 9.58332 18.4761 9.5982C18.3878 9.61121 18.3004 9.6233 18.213 9.63539C18.1256 9.64748 18.0382 9.65956 17.9499 9.67258L17.615 9.7228L17.2801 9.773C17.1808 9.78787 17.1329 9.8325 17.1145 9.95151C17.0593 10.3569 16.9857 10.7586 16.9048 11.1565C16.9002 11.1786 16.8965 11.2013 16.8928 11.2241C16.8726 11.3477 16.8517 11.4762 16.684 11.5359C16.0216 11.7664 15.4291 12.1346 14.8845 12.5809C14.752 12.6888 14.6453 12.7074 14.4871 12.6441C14.292 12.566 14.0942 12.4935 13.8964 12.421L13.8964 12.421C13.6986 12.3485 13.5008 12.2759 13.3058 12.1979C13.1954 12.1532 13.1402 12.183 13.0777 12.2685C12.8385 12.5995 12.5993 12.9268 12.3527 13.2504C12.2938 13.3247 12.3086 13.3731 12.3564 13.4438C12.4502 13.5773 12.5429 13.712 12.6357 13.8469C12.7834 14.0614 12.9314 14.2765 13.085 14.4888C13.1549 14.5855 13.1549 14.6562 13.0997 14.7566C12.9194 15.0988 12.7575 15.4558 12.6471 15.8277C12.5956 15.9988 12.522 16.0323 12.3638 16.0285C11.6646 16.0062 10.9948 16.1587 10.3435 16.4079C9.68109 16.6608 9.08495 17.0253 8.544 17.4901C7.88529 18.0554 7.3885 18.7435 7.00211 19.5208C6.93587 19.6547 6.96899 19.7402 7.05731 19.8443C7.29774 20.1245 7.53489 20.408 7.77205 20.6915C7.89062 20.8332 8.00919 20.9749 8.12817 21.1163C8.13381 21.1244 8.1391 21.1342 8.14455 21.1442C8.16394 21.18 8.18523 21.2192 8.2312 21.2018C8.27127 21.1862 8.28036 21.1394 8.28874 21.0961C8.29037 21.0877 8.29197 21.0795 8.29376 21.0716C8.43728 20.4282 8.72063 19.8555 9.13279 19.3423C9.85037 18.4422 10.7888 17.9253 11.9074 17.7765C12.6398 17.6798 13.3721 17.7579 14.0602 18.0592C14.1743 18.1112 14.178 18.0815 14.1816 17.9773C14.1927 17.505 14.2552 17.0438 14.3914 16.5901C14.7483 15.3926 15.4402 14.4405 16.4742 13.771C17.4641 13.1313 18.5497 12.8487 19.7383 12.99C20.6914 13.1016 21.5452 13.44 22.2959 14.0388ZM31.7741 19.2042C31.8827 19.334 31.988 19.4623 32.0918 19.5887C32.3537 19.9077 32.6055 20.2145 32.8744 20.5022C33.0584 20.6993 33.0621 20.8444 32.9406 21.0712C32.58 21.7593 32.1127 22.3618 31.5423 22.8862C30.8689 23.5072 30.085 23.9275 29.2129 24.1878C28.6719 24.3478 28.1199 24.4221 27.5569 24.4407C27.4539 24.4445 27.4097 24.4816 27.3766 24.5821C26.8725 26.1032 25.9709 27.323 24.6535 28.2194C23.958 28.6917 23.1962 29.019 22.3719 29.2161C21.485 29.4281 20.5945 29.4615 19.7003 29.3128C18.4601 29.1082 17.3562 28.5875 16.381 27.7842C16.2816 27.7024 16.2743 27.6615 16.3847 27.5834C16.8226 27.2673 17.2274 26.9065 17.5659 26.4751C17.6322 26.3896 17.691 26.3821 17.7794 26.4528C18.2946 26.8619 18.876 27.1445 19.5016 27.3156C20.1897 27.5016 20.8963 27.535 21.6065 27.416C22.773 27.2226 23.7482 26.6871 24.5357 25.8057C25.0325 25.2515 25.3821 24.6081 25.6066 23.894C25.741 23.4585 25.785 23.0164 25.8294 22.5708V22.5708L25.8384 22.4808C25.8494 22.3543 25.8899 22.3543 25.9856 22.3915C26.5339 22.6184 27.108 22.7411 27.7004 22.7076C28.6499 22.6556 29.511 22.3506 30.258 21.7369C30.8799 21.2237 31.3178 20.584 31.5938 19.8253C31.6328 19.7094 31.6661 19.5892 31.7025 19.4574L31.7025 19.4574C31.7246 19.3777 31.7478 19.2939 31.7741 19.2042ZM25.9521 14.3808C26.4636 14.1576 26.9972 14.0535 27.597 14.0721C27.8877 14.0349 28.2226 14.0795 28.5354 14.1651C29.437 14.3957 30.2134 14.8606 30.8206 15.5821C31.0708 15.8796 31.2806 16.2032 31.4352 16.5639C31.472 16.6457 31.472 16.6829 31.3726 16.7015C31.2926 16.7167 31.2126 16.7364 31.1322 16.7562C31.0352 16.7802 30.9376 16.8042 30.839 16.8205C30.7139 16.8428 30.7286 16.88 30.7949 16.9581C30.8685 17.0455 30.9411 17.1329 31.0138 17.2203C31.0865 17.3077 31.1592 17.3951 31.2328 17.4825C31.4314 17.7204 31.6304 17.9584 31.8295 18.1963C32.2278 18.6724 32.6261 19.1486 33.0212 19.6247C33.0985 19.7214 33.1242 19.7103 33.15 19.595C33.2126 19.3198 33.2788 19.0445 33.3487 18.7693C33.4553 18.3476 33.5619 17.925 33.6685 17.5024C33.7754 17.0789 33.8822 16.6555 33.989 16.2329C34.0148 16.1325 33.9964 16.0693 33.8749 16.099C33.7241 16.1325 33.5769 16.166 33.4297 16.2106C33.2972 16.2515 33.2236 16.2366 33.1684 16.0879C32.9329 15.4519 32.5943 14.8792 32.1638 14.3622C31.7001 13.8006 31.1518 13.3394 30.5262 12.9787C29.9632 12.6551 29.3597 12.4097 28.7231 12.2944C28.1784 12.194 27.6338 12.1456 27.0708 12.194C26.2943 12.2609 25.5657 12.458 24.8628 12.789C24.723 12.8522 24.712 12.8969 24.8113 13.0084C25.1646 13.4101 25.4774 13.8415 25.7276 14.3176C25.7902 14.4329 25.8564 14.4217 25.9521 14.3808Z" fill="white"/>
</svg>
