<svg width="40" height="40" viewBox="0 0 40 40" fill="none" xmlns="http://www.w3.org/2000/svg">
<rect width="40" height="40" rx="6" fill="#32335C"/>
<path fill-rule="evenodd" clip-rule="evenodd" d="M28.5893 33.166C28.1898 33.6854 27.6704 33.965 26.9913 33.965H13.0087C12.3296 33.965 11.8102 33.6854 11.4107 33.166L4.29963 20.9813C3.90012 20.3021 3.90012 19.6629 4.29963 18.9838L11.4107 6.799C11.8102 6.27965 12.3296 6 13.0087 6H26.9913C27.6704 6 28.1898 6.27965 28.5893 6.799L35.7004 18.9838C36.0999 19.6629 36.0999 20.3021 35.7004 20.9813L28.5893 33.166Z" fill="white"/>
<path fill-rule="evenodd" clip-rule="evenodd" d="M28.5883 33.1661C28.1888 33.6855 27.6695 33.9651 26.9903 33.9651H21.1976L11.8093 24.5768L14.0066 23.658L11.6895 21.3409L19.9991 16.9464L28.1888 15.4283L34.9404 22.1798L28.5883 33.1661Z" fill="black" fill-opacity="0.07"/>
<path fill-rule="evenodd" clip-rule="evenodd" d="M12.0108 15.2684H27.871C28.0708 15.2684 28.1906 15.3882 28.1906 15.588V21.3807H25.3941L21.9983 17.8651C21.8785 17.7453 21.6787 17.7453 21.479 17.8651L18.9621 20.5817L17.1644 18.9837C16.8847 18.8639 16.645 18.9038 16.4453 19.1835L14.7274 21.3807H11.6113V15.588C11.6912 15.3882 11.8111 15.2684 12.0108 15.2684ZM27.871 24.6566C28.0708 24.6566 28.1906 24.5368 28.1906 24.337V22.3395H25.1944C25.0745 22.3395 24.9546 22.2596 24.8747 22.1398L21.6787 18.9438L19.3616 21.4606C19.1619 21.5805 18.9621 21.5805 18.7624 21.4606L17.0046 19.9825L15.2867 22.1797C15.1669 22.2996 15.0071 22.3795 14.8872 22.3795H11.6912V24.377C11.6912 24.5767 11.8111 24.6966 12.0108 24.6966H18.6825V26.2147H17.0845C16.8048 26.3345 16.8048 26.4943 17.0845 26.6142H22.3978C22.6775 26.4943 22.6775 26.3345 22.3978 26.2147H20.7998V24.6966H27.871V24.6566Z" fill="#32335C"/>
</svg>
