<svg width="40" height="40" viewBox="0 0 40 40" fill="none" xmlns="http://www.w3.org/2000/svg">
<rect width="40" height="40" rx="6" fill="#32335C"/>
<path fill-rule="evenodd" clip-rule="evenodd" d="M4.38524 20.9716C3.87159 20.0655 3.87159 18.9492 4.38524 18.0432L10.9495 6.4642C11.4631 5.55815 12.4124 5 13.4397 5H26.5681C27.5954 5 28.5447 5.55815 29.0583 6.4642L35.6226 18.0432C36.1362 18.9492 36.1362 20.0655 35.6226 20.9716L29.0583 32.5505C28.5447 33.4566 27.5954 34.0147 26.5681 34.0147H13.4397C12.4124 34.0148 11.4631 33.4566 10.9495 32.5506L4.38524 20.9716Z" fill="white"/>
<path opacity="0.08" fill-rule="evenodd" clip-rule="evenodd" d="M27.5056 12.8861L23.1045 14.9235H19.0035L16.2529 12.1221L14.5601 14.9235H14.5024L12.502 15.9421L14.4149 17.8903L14.0023 25.8741L21.9958 34.0148H26.5679C27.5952 34.0148 28.5445 33.4566 29.0581 32.5506L35.5574 21.0863L27.5056 12.8861Z" fill="black"/>
<path d="M27.5061 12.8862H18.2539V15.6875H27.5061V12.8862Z" fill="#32335C"/>
<path d="M18.5029 19.5075H14.502V20.2715H18.5029V19.5075Z" fill="#32335C"/>
<path d="M27.5061 18.4888H18.2539V21.2902H27.5061V18.4888Z" fill="#32335C"/>
<path d="M18.5029 25.1102H14.502V25.8742H18.5029V25.1102Z" fill="#32335C"/>
<path d="M14.7521 15.9422H14.002V25.8742H14.7521V15.9422Z" fill="#32335C"/>
<path d="M16.2529 12.1221H12.502V15.9421H16.2529V12.1221Z" fill="#32335C"/>
<path d="M27.5061 24.0915H18.2539V26.8928H27.5061V24.0915Z" fill="#32335C"/>
</svg>
