<svg width="40" height="40" viewBox="0 0 40 40" fill="none" xmlns="http://www.w3.org/2000/svg">
<rect width="40" height="40" rx="6" fill="#32335C"/>
<path d="M10.9688 33.05L4.39375 21.675C3.86875 20.775 3.86875 19.7 4.39375 18.8L10.9688 7.425C11.4938 6.525 12.4438 6 13.4688 6H26.5938C27.6187 6 28.5688 6.55 29.0938 7.425L35.6687 18.8C36.1937 19.7 36.1937 20.775 35.6687 21.675L29.0938 33.05C28.5688 33.95 27.6187 34.475 26.5938 34.475H13.4438C12.4188 34.5 11.4688 33.95 10.9688 33.05Z" fill="white"/>
<path opacity="0.07" d="M35.3691 22.95L28.0191 15.625L24.9691 14.875L24.4941 15.35L26.8441 17.725L26.8691 20.975L21.9941 16.1L18.0191 16.075L15.5191 13.575L12.8941 15.8L11.9941 24.875L21.9441 34.825L28.3941 34.7999L35.3691 22.95Z" fill="black"/>
<path d="M18.0195 18.4L20.0195 19.55L22.0195 18.4V16.1L20.0195 14.925L18.0195 16.1V18.4Z" fill="#32335C"/>
<path d="M20.7695 23.1251L22.7695 24.2751L24.7695 23.1251V20.8001L22.7695 19.6501L20.7695 20.8001V23.1251Z" fill="#32335C"/>
<path d="M15.2695 23.2001L17.2695 24.3501L19.2695 23.2001V20.8751L17.2695 19.7251L15.2695 20.8751V23.2001Z" fill="#32335C"/>
<path d="M15.5195 15.3501L13.5195 16.5251V23.9751L15.5195 25.1501V26.9001L12.0195 24.9001V15.6001L15.5195 13.6001V15.3501Z" fill="#32335C"/>
<path d="M24.5195 15.3501L26.5195 16.5251V23.9751L24.5195 25.1501V26.9001L28.0195 24.9001V15.6001L24.5195 13.6001V15.3501Z" fill="#32335C"/>
</svg>
