<svg width="40" height="40" viewBox="0 0 40 40" fill="none" xmlns="http://www.w3.org/2000/svg">
<rect width="40" height="40" rx="6" fill="#32335C"/>
<path d="M35.6157 18.8261L29.0409 7.46101C28.5378 6.57427 27.6001 6.01844 26.576 6H13.4239C12.3996 6.01794 11.4616 6.5739 10.9589 7.46101L4.38162 18.7963C3.87279 19.6763 3.87279 20.7588 4.38162 21.6388L10.9564 33.0685C11.454 33.9678 12.3895 34.5421 13.4214 34.5816H26.5735C27.6053 34.5464 28.5425 33.9745 29.0409 33.0759L35.6157 21.7108C36.1281 20.8167 36.1281 19.7202 35.6157 18.8261Z" fill="white"/>
<path opacity="0.07" d="M25.4399 14.8931L23.7074 13.7875L20.1275 10.2343L19.2475 13.7626L20.13 16.8784L22.47 19.2041L21.9975 19.6688L21.3575 19.0451L20.675 19.8651L15.5877 14.8087L14.1977 16.1802L17.1651 19.1296L16.2476 19.8402L13.9977 17.604L12.6152 18.9855L19.9975 26.3154L19.775 26.5638L13.9977 20.8242L12.6177 22.2007L15.6701 25.2345L14.8502 25.5451L23.9449 34.5746H26.5723C27.6042 34.5394 28.5413 33.9674 29.0398 33.0688L34.4021 23.8008L25.4399 14.8931Z" fill="black"/>
<path d="M13.6914 24.0841C15.5752 27.1752 19.4119 28.4875 22.8107 27.2032C26.2095 25.9189 28.2 22.4047 27.5419 18.8504C26.8837 15.2961 23.7648 12.7165 20.1287 12.719V10.2343L16.7488 13.4595L20.1287 16.8784V14.3937C22.9536 14.3933 25.3763 16.397 25.8894 19.158C26.4025 21.919 24.8598 24.6506 22.2211 25.6532C19.5825 26.6559 16.5998 25.6438 15.1289 23.2468L13.6914 24.0841Z" fill="#32335C"/>
<path d="M16.0488 22.0734V19.0445H17.0288C17.2823 19.0406 17.5324 19.1032 17.7538 19.2259C17.9662 19.3467 18.1397 19.5251 18.2538 19.7403C18.3764 19.9697 18.4391 20.2259 18.4363 20.4857V20.6248C18.4404 20.8841 18.3794 21.1403 18.2588 21.3702C18.1444 21.5853 17.9711 21.7636 17.7588 21.8846C17.5416 22.0095 17.2948 22.0747 17.0438 22.0734H16.0488ZM16.7838 19.6111V21.5293H17.0338C17.2228 21.5394 17.4045 21.4556 17.5188 21.3056C17.6454 21.1083 17.705 20.8757 17.6888 20.6422V20.5105C17.705 20.2778 17.6454 20.046 17.5188 19.8496C17.4003 19.6965 17.2126 19.6126 17.0188 19.626L16.7838 19.6111Z" fill="#32335C"/>
<path d="M21.3569 22.0737H20.6269L19.5469 20.1903V22.0737H18.8145V19.0448H19.5494L20.6269 20.9282V19.0448H21.3594L21.3569 22.0737Z" fill="#32335C"/>
<path d="M23.3914 21.2807C23.3958 21.1843 23.3529 21.0917 23.2764 21.0322C23.1535 20.9505 23.0186 20.8884 22.8764 20.8484C22.7166 20.7965 22.5604 20.7342 22.4089 20.662C22.0139 20.4699 21.8164 20.2057 21.8164 19.8694C21.8136 19.7088 21.8656 19.5521 21.9639 19.4246C22.073 19.2892 22.2174 19.1861 22.3814 19.1265C22.5776 19.048 22.7873 19.0083 22.9989 19.0097C23.2008 19.0066 23.4011 19.0465 23.5863 19.1265C23.7531 19.1947 23.8964 19.3095 23.9988 19.4569C24.0971 19.604 24.1477 19.7774 24.1438 19.9539H23.3939C23.3997 19.8464 23.3577 19.7419 23.2789 19.6681C23.193 19.5967 23.0831 19.5603 22.9714 19.5663C22.8612 19.5605 22.7522 19.591 22.6614 19.6532C22.5843 19.6977 22.5368 19.7796 22.5368 19.8682C22.5368 19.9567 22.5843 20.0386 22.6614 20.0831C22.7971 20.1705 22.9455 20.2367 23.1014 20.2794C23.2809 20.3334 23.4543 20.4059 23.6188 20.4955C23.9232 20.6377 24.1179 20.9415 24.1188 21.2757C24.1277 21.5199 24.0156 21.753 23.8188 21.8994C23.5761 22.0624 23.2863 22.1418 22.9939 22.1255C22.7637 22.1289 22.5354 22.084 22.3239 21.9938C22.1402 21.9201 21.9827 21.7938 21.8714 21.6311C21.7687 21.4737 21.7156 21.2894 21.7189 21.1018H22.4539C22.4432 21.2337 22.4896 21.3638 22.5814 21.4596C22.6993 21.5465 22.8452 21.5871 22.9914 21.5739C23.093 21.5797 23.1939 21.5527 23.2789 21.4969C23.3517 21.4493 23.3944 21.3673 23.3914 21.2807Z" fill="#32335C"/>
<path d="M13.3237 19.278C13.8649 19.278 14.3037 18.842 14.3037 18.304C14.3037 17.7661 13.8649 17.33 13.3237 17.33C12.7825 17.33 12.3438 17.7661 12.3438 18.304C12.3438 18.842 12.7825 19.278 13.3237 19.278Z" fill="#32335C"/>
<path d="M14.9058 16.4807C15.447 16.4807 15.8857 16.0447 15.8857 15.5067C15.8857 14.9688 15.447 14.5327 14.9058 14.5327C14.3645 14.5327 13.9258 14.9688 13.9258 15.5067C13.9258 16.0447 14.3645 16.4807 14.9058 16.4807Z" fill="#32335C"/>
<path d="M13.314 22.4861C13.8552 22.4861 14.2939 22.05 14.2939 21.5121C14.2939 20.9742 13.8552 20.5381 13.314 20.5381C12.7727 20.5381 12.334 20.9742 12.334 21.5121C12.334 22.05 12.7727 22.4861 13.314 22.4861Z" fill="#32335C"/>
</svg>
