<svg width="40" height="40" viewBox="0 0 40 40" fill="none" xmlns="http://www.w3.org/2000/svg">
<rect width="40" height="40" rx="6" fill="#32335C"/>
<path d="M20.9492 19.0303H17.7477V16.114H20.9492V19.0303ZM20.9492 9H17.7477V11.9801H20.9492V9ZM24.7368 16.1091H21.5353V19.0254H24.7368V16.1091ZM17.1665 12.5693H13.965V15.52H17.1665V12.5693ZM20.9492 12.5693H17.7477V15.52H20.9492V12.5693ZM34.3558 17.4789C33.6584 17.0027 32.0504 16.8308 30.8153 17.0665C30.6555 15.8882 30.0064 14.8621 28.8246 13.9391L28.1466 13.4825L27.6961 14.1698C26.8049 15.5347 26.5628 17.7833 27.5169 19.266C27.0955 19.4968 26.2673 19.811 25.1727 19.7913H4.11835C3.69698 22.2854 4.39927 25.5258 6.24946 27.7498C8.04637 29.9052 10.7393 31 14.2605 31C21.884 31 27.5266 27.4405 30.1663 20.9746C31.2028 20.9942 33.4404 20.9795 34.5883 18.7554C34.661 18.6327 34.908 18.1073 35 17.9159L34.3558 17.4789ZM9.6011 16.1091H6.40445V19.0254H9.60595V16.1091H9.6011ZM13.3838 16.1091H10.1823V19.0254H13.3838V16.1091ZM17.1665 16.1091H13.965V19.0254H17.1665V16.1091ZM13.3838 12.5693H10.1823V15.52H13.3838V12.5693Z" fill="white"/>
</svg>
