<svg width="40" height="40" viewBox="0 0 40 40" fill="none" xmlns="http://www.w3.org/2000/svg">
<rect width="40" height="40" rx="6" fill="#32335C"/>
<path fill-rule="evenodd" clip-rule="evenodd" d="M20.0271 34.5269L25.9291 16.3626H14.125L20.0271 34.5269Z" fill="white"/>
<path fill-rule="evenodd" clip-rule="evenodd" d="M20.0281 34.5269L14.126 16.3626H5.85352L20.0281 34.5269Z" fill="white" fill-opacity="0.7"/>
<path fill-rule="evenodd" clip-rule="evenodd" d="M5.85356 16.3626L4.05984 21.8823C3.98007 22.1278 3.98005 22.3922 4.0598 22.6377C4.13955 22.8832 4.29497 23.0971 4.50378 23.2488L20.0275 34.5269L5.85292 16.3626H5.85356Z" fill="white" fill-opacity="0.5"/>
<path fill-rule="evenodd" clip-rule="evenodd" d="M5.85352 16.3626H14.1248L10.5707 5.42197C10.3872 4.85934 9.59106 4.85934 9.40823 5.42197L5.85416 16.3626H5.85352Z" fill="white" fill-opacity="0.5"/>
<path fill-rule="evenodd" clip-rule="evenodd" d="M20.028 34.5269L25.9301 16.3626H34.2013L20.0273 34.5269H20.028Z" fill="white" fill-opacity="0.7"/>
<path fill-rule="evenodd" clip-rule="evenodd" d="M34.2006 16.3626L35.9944 21.8823C36.0741 22.1278 36.0742 22.3922 35.9944 22.6377C35.9147 22.8832 35.7592 23.0971 35.5504 23.2488L20.0273 34.5269L34.2006 16.3626Z" fill="white" fill-opacity="0.5"/>
<path fill-rule="evenodd" clip-rule="evenodd" d="M34.2009 16.3626H25.9297L29.4838 5.42197C29.6672 4.85934 30.4634 4.85934 30.6462 5.42197L34.2009 16.3626Z" fill="white" fill-opacity="0.5"/>
</svg>
