<svg width="40" height="40" viewBox="0 0 40 40" fill="none" xmlns="http://www.w3.org/2000/svg">
<rect width="40" height="40" rx="6" fill="#32335C"/>
<path d="M10.9478 33.0456L4.38514 21.6789C3.87162 20.7894 3.87162 19.6936 4.38514 18.8041L10.9478 7.43737C11.4613 6.54792 12.4103 6 13.4374 6H26.5626C27.5897 6 28.5387 6.54792 29.0522 7.43737L35.6149 18.8041C36.1284 19.6936 36.1284 20.7894 35.6149 21.6789L29.0522 33.0456C28.5387 33.9351 27.5897 34.483 26.5626 34.483H13.4374C12.4103 34.483 11.4613 33.9351 10.9478 33.0456Z" fill="white"/>
<path opacity="0.07" d="M35.0137 24.9577L26.408 16.3519L20.0008 13.4916L13.8758 16.8197L13.6191 24.1529L24.2546 34.7884L28.4175 34.7519L35.0137 24.9577Z" fill="black"/>
<path d="M26.2564 16.2398L20.3373 12.8224C20.1286 12.7019 19.8714 12.7019 19.6626 12.8224L13.7436 16.2398C13.5348 16.3604 13.4062 16.5831 13.4062 16.8241V23.6589C13.4062 23.8999 13.5348 24.1226 13.7436 24.2431L19.6626 27.6605C19.8714 27.781 20.1285 27.781 20.3373 27.6605L26.2564 24.2431C26.4651 24.1226 26.5937 23.8999 26.5937 23.6589V16.8241C26.5937 16.5831 26.4651 16.3603 26.2564 16.2398ZM25.4443 23.0041L23.3792 21.8118V18.6711L20.3297 20.4318V23.9531L23.0495 22.3828L25.1146 23.5751L20 26.528L14.8853 23.5751L16.9504 22.3828L19.6703 23.9531V20.4318L16.6207 18.6711V21.8118L14.5556 23.0041V17.0982L19.6703 14.1452V16.5298L16.9504 18.1001L20 19.8608L23.0495 18.1001L20.3296 16.5298V14.1452L25.4443 17.0982V23.0041H25.4443Z" fill="#32335C"/>
</svg>
