<svg width="40" height="40" viewBox="0 0 40 40" fill="none" xmlns="http://www.w3.org/2000/svg">
<rect width="40" height="40" rx="6" fill="#32335C"/>
<path d="M5.49005 17.7331C5.42578 17.7331 5.40971 17.701 5.44185 17.6528L5.77926 17.2189C5.8114 17.1707 5.89174 17.1386 5.95601 17.1386H11.6921C11.7564 17.1386 11.7724 17.1868 11.7403 17.235L11.4671 17.6528C11.435 17.701 11.3547 17.7492 11.3065 17.7492L5.49005 17.7331Z" fill="white"/>
<path d="M3.06427 19.2115C3 19.2115 2.98393 19.1794 3.01607 19.1312L3.35348 18.6973C3.38562 18.6491 3.46596 18.617 3.53023 18.617H10.857C10.9212 18.617 10.9534 18.6652 10.9373 18.7134L10.8088 19.099C10.7927 19.1633 10.7284 19.1954 10.6642 19.1954L3.06427 19.2115Z" fill="white"/>
<path d="M6.95294 20.6894C6.88867 20.6894 6.8726 20.6412 6.90474 20.593L7.12968 20.1913C7.16182 20.1431 7.22609 20.0949 7.29036 20.0949H10.5038C10.5681 20.0949 10.6003 20.1431 10.6003 20.2074L10.5681 20.593C10.5681 20.6573 10.5038 20.7055 10.4556 20.7055L6.95294 20.6894Z" fill="white"/>
<path d="M23.6312 17.4439C22.619 17.701 21.9281 17.8938 20.9319 18.1509C20.6909 18.2152 20.6748 18.2313 20.4659 17.9902C20.2249 17.7171 20.0482 17.5404 19.7108 17.3797C18.6985 16.8816 17.7184 17.0262 16.8025 17.6207C15.71 18.3277 15.1476 19.372 15.1637 20.6735C15.1797 21.9589 16.0634 23.0194 17.3328 23.1961C18.4254 23.3407 19.3412 22.9551 20.0642 22.1356C20.2088 21.9589 20.3374 21.7661 20.4981 21.5411C19.9196 21.5411 19.1966 21.5411 17.397 21.5411C17.0596 21.5411 16.9793 21.3323 17.0918 21.0591C17.3006 20.561 17.6863 19.7255 17.9112 19.3078C17.9594 19.2114 18.0719 19.0507 18.3129 19.0507C19.1323 19.0507 22.153 19.0507 24.1614 19.0507C24.1293 19.4845 24.1293 19.9183 24.065 20.3522C23.8883 21.509 23.4545 22.5695 22.7475 23.5014C21.5906 25.0278 20.0803 25.9758 18.1683 26.2328C16.5937 26.4417 15.1315 26.1364 13.8461 25.1724C12.6571 24.2726 11.9823 23.0836 11.8056 21.6054C11.5967 19.8541 12.1109 18.2795 13.1713 16.8977C14.3121 15.4034 15.8224 14.4554 17.6702 14.118C19.1805 13.8448 20.6266 14.0216 21.9281 14.9053C22.7796 15.4677 23.3902 16.2389 23.7919 17.1708C23.8883 17.3154 23.824 17.3957 23.6312 17.4439Z" fill="white"/>
<path d="M28.9486 26.329C27.4864 26.2969 26.1528 25.8791 25.0281 24.9151C24.0801 24.0956 23.4856 23.0513 23.2928 21.8141C23.0036 19.9984 23.5017 18.3917 24.5943 16.9617C25.7672 15.4192 27.1812 14.6159 29.0932 14.2784C30.7321 13.9892 32.2745 14.1499 33.6724 15.0979C34.9417 15.9655 35.729 17.1384 35.9379 18.6809C36.2111 20.85 35.5844 22.6174 34.0902 24.1278C33.0297 25.2043 31.7282 25.8791 30.234 26.1844C29.8001 26.2648 29.3663 26.2808 28.9486 26.329ZM32.7726 19.8378C32.7566 19.6289 32.7566 19.4682 32.7244 19.3075C32.4352 17.7169 30.9731 16.8171 29.4467 17.1706C27.9524 17.508 26.9883 18.456 26.6349 19.9663C26.3456 21.2196 26.9562 22.4889 28.1131 23.0031C28.9968 23.3887 29.8805 23.3405 30.7321 22.9067C32.0014 22.2479 32.6923 21.2196 32.7726 19.8378Z" fill="white"/>
</svg>
