<svg width="40" height="40" viewBox="0 0 40 40" fill="none" xmlns="http://www.w3.org/2000/svg">
<rect width="40" height="40" rx="6" fill="#32335C"/>
<path d="M34.3994 18.1223C34.3466 17.5846 34.2584 16.9675 34.0821 16.2799C33.9058 15.6011 33.6413 14.8518 33.2534 14.076C32.8656 13.3003 32.3631 12.4981 31.7107 11.7135C31.4551 11.405 31.173 11.1052 30.8733 10.8143C31.3229 9.02479 30.3267 7.47328 30.3267 7.47328C28.6077 7.36749 27.5146 8.01102 27.1091 8.30193C27.0386 8.27548 26.9769 8.24022 26.9063 8.21377C26.6154 8.09917 26.3157 7.98457 25.9983 7.8876C25.6898 7.79063 25.3724 7.70248 25.0463 7.62314C24.7201 7.5438 24.3939 7.48209 24.059 7.4292C23.9972 7.42039 23.9444 7.41157 23.8826 7.40275C23.1333 5.00496 20.9824 4 20.9824 4C18.5758 5.52507 18.1262 7.6584 18.1262 7.6584C18.1262 7.6584 18.1174 7.70248 18.0997 7.78182C17.9675 7.81708 17.8353 7.86116 17.703 7.89642C17.5179 7.94931 17.3328 8.01983 17.1565 8.09036C16.9713 8.16088 16.795 8.2314 16.6099 8.31074C16.2485 8.46942 15.8871 8.64573 15.5344 8.83967C15.1906 9.03361 14.8556 9.24518 14.5295 9.46556C14.4854 9.44793 14.4413 9.4303 14.4413 9.4303C11.1091 8.16088 8.15592 9.68595 8.15592 9.68595C7.88264 13.2298 9.48705 15.4601 9.80441 15.8656C9.72507 16.086 9.65455 16.3063 9.58402 16.5267C9.33719 17.3289 9.15207 18.1488 9.03747 19.0039C9.01983 19.1273 9.0022 19.2507 8.99339 19.3741C5.90799 20.8992 5 24.011 5 24.011C7.56529 26.9642 10.5625 27.1493 10.5625 27.1493L10.5713 27.1405C10.9504 27.8193 11.3912 28.4628 11.8848 29.0711C12.0964 29.3267 12.308 29.5647 12.5372 29.8028C11.6028 32.4826 12.6694 34.7041 12.6694 34.7041C15.5256 34.8099 17.4033 33.4523 17.8 33.1438C18.0821 33.2408 18.373 33.3289 18.6639 33.3995C19.5455 33.6287 20.4446 33.7609 21.3438 33.7961C21.5642 33.805 21.7934 33.8138 22.0138 33.805H22.1196H22.1901H22.3311L22.4722 33.7961V33.805C23.8209 35.7267 26.1835 36 26.1835 36C27.8672 34.2281 27.9642 32.465 27.9642 32.086C27.9642 32.086 27.9642 32.0771 27.9642 32.0595C27.9642 32.0242 27.9642 32.0066 27.9642 32.0066C27.9642 31.9802 27.9642 31.9537 27.9642 31.9273C28.3168 31.6804 28.6518 31.416 28.9691 31.1251C29.6391 30.5168 30.2297 29.8204 30.7234 29.0711C30.7675 29.0006 30.8116 28.93 30.8556 28.8595C32.7598 28.9653 34.1085 27.6782 34.1085 27.6782C33.7912 25.6948 32.6628 24.7251 32.4248 24.5399C32.4248 24.5399 32.416 24.5311 32.3983 24.5223C32.3807 24.5135 32.3807 24.5047 32.3807 24.5047C32.3719 24.4959 32.3543 24.4871 32.3366 24.4782C32.3455 24.3548 32.3543 24.2402 32.3631 24.1168C32.3807 23.9052 32.3807 23.6848 32.3807 23.4733V23.3146V23.2353V23.1912C32.3807 23.1383 32.3807 23.1559 32.3807 23.1383L32.3719 23.0061L32.3631 22.8298C32.3631 22.768 32.3543 22.7152 32.3455 22.6623C32.3366 22.6094 32.3366 22.5477 32.3278 22.4948L32.3102 22.3273L32.2837 22.1598C32.2485 21.9394 32.2132 21.7278 32.1603 21.5074C31.9576 20.6523 31.6226 19.8413 31.1906 19.1096C30.7499 18.378 30.2033 17.7344 29.5774 17.1879C28.9603 16.6413 28.2639 16.2006 27.541 15.8744C26.8094 15.5482 26.0512 15.3366 25.2931 15.2397C24.914 15.1868 24.535 15.1691 24.1559 15.178H24.0149H23.9796C23.9708 15.178 23.9267 15.178 23.9355 15.178H23.8738L23.7328 15.1868C23.6799 15.1868 23.627 15.1956 23.5829 15.1956C23.389 15.2132 23.195 15.2397 23.0099 15.2749C22.2518 15.416 21.5377 15.6893 20.9118 16.0683C20.2859 16.4474 19.7394 16.9146 19.2986 17.4435C18.8579 17.9725 18.514 18.5631 18.276 19.1713C18.038 19.7796 17.9058 20.4143 17.8705 21.0226C17.8617 21.1725 17.8617 21.3311 17.8617 21.481C17.8617 21.5163 17.8617 21.5603 17.8617 21.5956L17.8705 21.719C17.8793 21.7895 17.8793 21.8689 17.8882 21.9394C17.9146 22.2479 17.9763 22.5477 18.0556 22.8298C18.2231 23.4028 18.4876 23.9229 18.8138 24.3636C19.1399 24.8044 19.5366 25.1658 19.951 25.4567C20.3653 25.7388 20.8149 25.9416 21.2556 26.0738C21.6964 26.2061 22.1372 26.259 22.5515 26.259C22.6044 26.259 22.6573 26.259 22.7014 26.259C22.7278 26.259 22.7543 26.259 22.7807 26.259C22.8072 26.259 22.8336 26.259 22.8601 26.2501C22.9041 26.2501 22.9482 26.2413 22.9923 26.2413C23.0011 26.2413 23.0187 26.2413 23.0275 26.2325L23.0716 26.2237C23.0981 26.2237 23.1245 26.2149 23.151 26.2149C23.2039 26.2061 23.2479 26.1972 23.3008 26.1884C23.3537 26.1796 23.3978 26.1708 23.4419 26.1532C23.5388 26.1355 23.627 26.1003 23.7152 26.0738C23.8915 26.0121 24.0678 25.9416 24.2176 25.8623C24.3763 25.7829 24.5174 25.686 24.6584 25.5978C24.6937 25.5714 24.7377 25.5449 24.773 25.5096C24.914 25.395 24.9405 25.1835 24.8259 25.0424C24.7289 24.919 24.5526 24.8837 24.4116 24.9631C24.3763 24.9807 24.341 24.9983 24.3058 25.016C24.1824 25.0777 24.059 25.1306 23.9267 25.1747C23.7945 25.2187 23.6534 25.254 23.5124 25.2804C23.4419 25.2893 23.3713 25.2981 23.292 25.3069C23.2567 25.3069 23.2215 25.3157 23.1774 25.3157C23.1421 25.3157 23.0981 25.3157 23.0716 25.3157C23.0364 25.3157 23.0011 25.3157 22.9658 25.3157C22.9218 25.3157 22.8777 25.3157 22.8336 25.3069C22.8336 25.3069 22.8072 25.3069 22.8248 25.3069H22.8072H22.7807C22.7631 25.3069 22.7366 25.3069 22.719 25.2981C22.6749 25.2893 22.6397 25.2893 22.5956 25.2804C22.2694 25.2364 21.9433 25.1394 21.6347 24.9983C21.3174 24.8573 21.0176 24.6634 20.7444 24.4165C20.4711 24.1697 20.2331 23.8788 20.0479 23.5438C19.8628 23.2088 19.7306 22.8386 19.6689 22.4507C19.6424 22.2567 19.6248 22.054 19.6336 21.8601C19.6336 21.8072 19.6424 21.7543 19.6424 21.7014C19.6424 21.719 19.6424 21.6926 19.6424 21.6926V21.6749V21.6309C19.6424 21.6044 19.6512 21.578 19.6512 21.5515C19.6601 21.4457 19.6777 21.3399 19.6953 21.2342C19.8452 20.3879 20.2683 19.5592 20.9207 18.9333C21.0882 18.7747 21.2645 18.6336 21.4496 18.5014C21.6347 18.3691 21.8375 18.2545 22.049 18.1576C22.2606 18.0606 22.4722 17.9813 22.7014 17.9196C22.9218 17.8579 23.151 17.8226 23.389 17.7961C23.5036 17.7873 23.6182 17.7785 23.7416 17.7785C23.7769 17.7785 23.7945 17.7785 23.8209 17.7785H23.9179H23.9796C24.0061 17.7785 23.9796 17.7785 23.9884 17.7785H24.0149L24.1118 17.7873C24.3675 17.805 24.6143 17.8402 24.8612 17.9019C25.3548 18.0077 25.8397 18.1928 26.2893 18.4397C27.1884 18.9421 27.9554 19.7179 28.4226 20.6523C28.6606 21.1196 28.8281 21.622 28.9074 22.1421C28.9251 22.2744 28.9427 22.4066 28.9515 22.5388L28.9603 22.6358L28.9691 22.7328C28.9691 22.768 28.9691 22.8033 28.9691 22.8298C28.9691 22.865 28.9691 22.9003 28.9691 22.9267V23.0149V23.1118C28.9691 23.1736 28.9603 23.2793 28.9603 23.341C28.9515 23.4821 28.9339 23.632 28.9163 23.773C28.8986 23.9141 28.8722 24.0551 28.8457 24.1961C28.8193 24.3372 28.784 24.4782 28.7488 24.6105C28.6782 24.8837 28.5901 25.157 28.4843 25.4303C28.2727 25.9592 27.9906 26.4705 27.6556 26.9377C26.9769 27.8722 26.0512 28.6303 24.9934 29.1152C24.4645 29.3532 23.9091 29.5295 23.3361 29.6176C23.054 29.6705 22.7631 29.697 22.4722 29.7058H22.4193H22.3752H22.2782H22.1372H22.0667C22.1019 29.7058 22.0578 29.7058 22.0578 29.7058H22.0314C21.8727 29.7058 21.7229 29.697 21.5642 29.6793C20.9471 29.6353 20.3388 29.5207 19.7394 29.3532C19.1488 29.1857 18.5758 28.9477 18.0292 28.6656C16.9449 28.0837 15.9664 27.2904 15.2083 26.3295C14.8292 25.8534 14.4942 25.3333 14.2209 24.7956C13.9477 24.2579 13.7273 23.6848 13.5686 23.1118C13.4099 22.53 13.3129 21.9394 13.2689 21.3399L13.2601 21.2253V21.1989V21.1725V21.1196V21.0226V20.9961V20.9609V20.8904V20.7493V20.7229C13.2601 20.7229 13.2601 20.7317 13.2601 20.714V20.6612C13.2601 20.5906 13.2601 20.5113 13.2601 20.4408C13.2689 20.1499 13.2953 19.8413 13.3306 19.5416C13.3658 19.2419 13.4187 18.9333 13.4804 18.6336C13.5421 18.3339 13.6127 18.0342 13.7008 17.7344C13.8683 17.1438 14.0799 16.5708 14.3267 16.0331C14.8292 14.9576 15.4815 13.9967 16.2661 13.2298C16.4601 13.0358 16.6628 12.8595 16.8744 12.6832C17.0859 12.5157 17.3063 12.357 17.5355 12.2072C17.7559 12.0573 17.9939 11.9251 18.232 11.8017C18.3466 11.7399 18.47 11.6782 18.5934 11.6253C18.6551 11.5989 18.7168 11.5725 18.7785 11.546C18.8402 11.5196 18.9019 11.4931 18.9636 11.4667C19.2105 11.3609 19.4661 11.2727 19.7306 11.1934C19.7923 11.1758 19.8628 11.1581 19.9245 11.1317C19.9862 11.114 20.0567 11.0964 20.1185 11.0788C20.2507 11.0435 20.3829 11.0083 20.5152 10.9818C20.5769 10.9642 20.6474 10.9554 20.7179 10.9377C20.7884 10.9201 20.8501 10.9113 20.9207 10.8937C20.9912 10.8848 21.0529 10.8672 21.1234 10.8584L21.2204 10.8408L21.3262 10.8231C21.3967 10.8143 21.4584 10.8055 21.5289 10.7967C21.6083 10.7879 21.6788 10.7791 21.7581 10.7702C21.8198 10.7614 21.9256 10.7526 21.9873 10.7438C22.0314 10.735 22.0843 10.735 22.1284 10.7262L22.2253 10.7174L22.2694 10.7085H22.3223C22.4017 10.6997 22.4722 10.6997 22.5515 10.6909L22.6661 10.6821C22.6661 10.6821 22.7102 10.6821 22.6749 10.6821H22.7014H22.7543C22.816 10.6821 22.8865 10.6733 22.9482 10.6733C23.2039 10.6645 23.4683 10.6645 23.724 10.6733C24.2353 10.6909 24.7377 10.7526 25.2226 10.8408C26.2011 11.0259 27.1179 11.3344 27.9554 11.7488C28.7928 12.1543 29.5333 12.6567 30.1857 13.2033C30.2298 13.2386 30.265 13.2738 30.3091 13.3091C30.3444 13.3444 30.3884 13.3796 30.4237 13.4149C30.503 13.4854 30.5736 13.5559 30.6529 13.6264C30.7322 13.697 30.8028 13.7675 30.8733 13.838C30.9438 13.9085 31.0143 13.9791 31.0848 14.0584C31.3581 14.3493 31.6138 14.6402 31.843 14.9399C32.3014 15.5306 32.6716 16.13 32.9625 16.6942C32.9802 16.7295 32.9978 16.7647 33.0154 16.8C33.0331 16.8353 33.0507 16.8705 33.0683 16.9058C33.1036 16.9763 33.1388 17.0468 33.1653 17.1174C33.2006 17.1879 33.227 17.2496 33.2623 17.3201C33.2887 17.3906 33.324 17.4523 33.3504 17.5229C33.4562 17.7873 33.562 18.043 33.6413 18.281C33.7736 18.6689 33.8705 19.0127 33.9499 19.3124C33.9763 19.4358 34.0909 19.5152 34.2143 19.4975C34.3466 19.4887 34.4435 19.3829 34.4435 19.2507C34.4523 18.9333 34.4435 18.5543 34.3994 18.1223Z" fill="white"/>
</svg>
