<svg width="40" height="40" viewBox="0 0 40 40" fill="none" xmlns="http://www.w3.org/2000/svg">
<rect width="40" height="40" rx="6" fill="#32335C"/>
<path d="M7.43425 17.5956C6.99972 17.2353 6.39729 17.0259 5.76524 17.0259C4.23942 17.0259 3 18.2335 3 19.7235C3 21.0333 4.04684 22.4503 5.73561 22.4503C6.47136 22.4503 6.9849 22.2945 7.42932 21.9195C7.375 22.8398 6.82195 23.2878 5.74055 23.2878C5.35045 23.2878 4.78259 23.1563 4.27892 22.533L4.1456 22.3724L3.12839 23.1612L3.27652 23.3267C3.95796 24.0717 4.7579 24.4369 5.7208 24.4369C7.69596 24.4369 8.69836 23.4533 8.69836 21.5154V17.1379H7.43425V17.5956ZM5.88375 21.2962C5.12824 21.2962 4.32336 20.746 4.32336 19.7235C4.32336 18.9882 4.91591 18.2237 5.90844 18.2237C6.73307 18.2237 7.42932 18.9298 7.42932 19.7722C7.43425 20.6097 6.73801 21.2962 5.88375 21.2962Z" fill="white"/>
<path d="M12.2533 18.3795V17.0259H12.041C11.4781 17.0259 11.0633 17.06 10.688 17.4203V17.1379H9.41895V22.3918H10.688V19.4362C10.688 18.7009 11.0386 18.2773 11.6558 18.2773C11.7595 18.2773 11.8731 18.2919 11.9965 18.3162L12.2533 18.3795Z" fill="white"/>
<path d="M14.3816 17.0259C13.7693 17.0259 13.1619 17.1525 12.5299 17.4154L12.3176 17.5031L12.8854 18.5792L13.0731 18.4915C13.5175 18.2773 13.9174 18.1799 14.3372 18.1799C14.91 18.1799 15.5963 18.3114 15.5963 18.9444V19.032C15.2161 18.808 14.7717 18.6863 14.2927 18.6863C12.6879 18.6863 11.9521 19.6553 11.9521 20.5561C11.9521 21.7004 12.92 22.499 14.3026 22.499C14.8408 22.499 15.2754 22.3772 15.6556 22.1143V22.387H16.8703V18.8762C16.8604 17.7514 15.8877 17.0259 14.3816 17.0259ZM14.4458 21.3547C13.7002 21.3547 13.2706 21.0771 13.2706 20.5951C13.2706 20.113 13.7002 19.8355 14.4458 19.8355C15.1914 19.8355 15.621 20.113 15.621 20.5951C15.621 21.0771 15.1914 21.3547 14.4458 21.3547Z" fill="white"/>
<path d="M20.8507 17.1382L19.4039 20.537L17.9719 17.1382H16.5498L18.683 22.1097L17.6806 24.4324H19.0237L22.2185 17.1382H20.8507Z" fill="white"/>
<path d="M23.339 15V20.7896C23.339 21.3593 23.6254 21.5541 23.9069 21.5541H24.1735V22.3672H23.8081C22.9934 22.3672 22.4502 21.9095 22.4502 20.8529V15H23.339Z" fill="#C1C2CE"/>
<path d="M27.111 17.2007C28.7208 17.2007 29.8812 18.4229 29.8812 19.8447C29.8812 21.2909 28.78 22.4839 27.111 22.4839C25.442 22.4839 24.3408 21.2909 24.3408 19.8447C24.3359 18.4229 25.4963 17.2007 27.111 17.2007ZM25.279 19.8447C25.279 20.8137 26.1234 21.6658 27.1061 21.6658C28.0887 21.6658 28.9331 20.8137 28.9331 19.8447C28.9331 18.7978 28.0887 18.0139 27.1061 18.0139C26.1284 18.0139 25.279 18.7978 25.279 19.8447Z" fill="#C1C2CE"/>
<path d="M35.1162 17.3175H36V21.6707C36 23.5307 35.0964 24.4997 33.1114 24.4997C32.2077 24.4997 31.4127 24.1686 30.7214 23.4139L31.4275 22.8637C31.9707 23.5307 32.5978 23.7353 33.1262 23.7353C34.5038 23.7353 35.1112 23.0584 35.1112 21.9336V21.5733H35.0964C34.6125 22.143 34.1138 22.4254 33.1212 22.4254C31.4028 22.4254 30.4844 20.9695 30.4844 19.796C30.4844 18.3303 31.704 17.1958 33.1509 17.1958C33.9064 17.1958 34.6767 17.5074 35.0964 18.1064H35.1162V17.3175ZM33.3089 18.0138C32.109 18.0138 31.4325 18.9536 31.4325 19.796C31.4325 20.9598 32.3559 21.6561 33.2792 21.6561C34.2915 21.6561 35.1162 20.8526 35.1162 19.8447C35.1162 18.827 34.2718 18.0138 33.3089 18.0138Z" fill="#C1C2CE"/>
<path d="M25.9417 19.6989C26.0158 19.6989 26.08 19.7379 26.1145 19.8012H26.2775L26.5343 19.1925C26.5441 19.1633 26.5738 19.1389 26.6034 19.1292C26.6577 19.1195 26.712 19.1487 26.7219 19.2022L26.9935 20.3806L27.27 18.7932C27.275 18.7543 27.3046 18.725 27.3441 18.7153C27.3984 18.7007 27.4527 18.7348 27.4675 18.7883L27.7638 19.9813L27.9169 19.5382C27.9218 19.5187 27.9366 19.4993 27.9564 19.4847C28.0008 19.4554 28.065 19.4652 28.0946 19.509L28.223 19.6892C28.228 19.733 28.228 19.7768 28.228 19.8206C28.228 19.8791 28.223 19.9375 28.2181 19.9911C28.1983 19.9862 28.1835 19.9716 28.1687 19.957L28.0403 19.7817L27.8428 20.3709C27.8231 20.4244 27.7687 20.4488 27.7144 20.4342C27.6799 20.4244 27.6552 20.3952 27.6502 20.366L27.3836 19.3045L27.1021 20.9162C27.0922 20.9698 27.0429 21.0039 26.9886 20.999C26.9441 20.9941 26.9145 20.9601 26.9046 20.9162L26.6034 19.5528L26.4404 19.9375C26.4256 19.9765 26.3861 20.0008 26.3466 20.0008H26.1145C26.08 20.0592 26.0158 20.0982 25.9417 20.0982C25.8331 20.0982 25.7393 20.0105 25.7393 19.8985C25.7442 19.7914 25.8331 19.6989 25.9417 19.6989Z" fill="white"/>
</svg>
