<svg width="40" height="40" viewBox="0 0 40 40" fill="none" xmlns="http://www.w3.org/2000/svg">
<rect width="40" height="40" rx="6" fill="#32335C"/>
<path d="M19.9872 16.3377C19.9835 16.3377 19.9799 16.3362 19.9773 16.3331L16.8539 12.7621C16.8491 12.7565 16.8496 12.7481 16.855 12.7432C16.8605 12.7383 16.8689 12.7389 16.8737 12.7444L19.9971 16.3155C20.0019 16.321 20.0014 16.3294 19.9959 16.3343C19.9935 16.3366 19.9903 16.3377 19.9872 16.3377Z" fill="white"/>
<path d="M12.5813 17.1895C12.5792 17.1895 12.5771 17.1885 12.5758 17.1866L10.1311 13.5766C10.129 13.5736 10.1298 13.5695 10.1327 13.5673C10.1358 13.5652 10.1398 13.566 10.142 13.5691L12.5867 17.1791C12.5888 17.1821 12.588 17.1863 12.585 17.1884C12.5838 17.1892 12.5825 17.1895 12.5813 17.1895Z" fill="white"/>
<path d="M23.1105 27.6995C23.1069 27.6995 23.1032 27.6981 23.1006 27.6951L19.9872 24.204L16.8736 27.6951C16.8688 27.7007 16.8603 27.701 16.8549 27.6961C16.8495 27.6911 16.8491 27.6827 16.8539 27.6772L19.9773 24.175C19.9773 24.175 19.9773 24.175 19.9774 24.175C19.9787 24.1735 19.9803 24.1724 19.9821 24.1716L19.9822 24.1716C19.9822 24.1716 19.9822 24.1716 19.9823 24.1716V24.1715C19.9839 24.171 19.9866 24.1704 19.987 24.1706H19.9871H19.9872H19.9873H19.9874C19.9874 24.1704 19.9905 24.171 19.9921 24.1715C19.9921 24.1715 19.9921 24.1716 19.9922 24.1716C19.9939 24.1723 19.9956 24.1734 19.9969 24.175C19.997 24.175 19.997 24.175 19.997 24.175L23.1203 27.6772C23.1252 27.6827 23.1248 27.6911 23.1193 27.6961C23.1168 27.6984 23.1137 27.6995 23.1105 27.6995ZM27.3884 23.5784C27.3853 23.5784 27.3821 23.5773 27.3796 23.5751L23.7219 20.3213C23.7175 20.3203 23.7142 20.3198 23.7114 20.3166C23.7089 20.3135 23.7079 20.3094 23.7086 20.3056C23.7079 20.3017 23.7089 20.2976 23.7116 20.2944C23.7143 20.2912 23.7172 20.2897 23.7223 20.2899L27.3623 17.1881L19.9957 16.3339C19.9909 16.3386 19.9831 16.3388 19.978 16.3343C19.9777 16.334 19.9774 16.3338 19.9772 16.3335L12.6161 17.1871L16.1252 20.2922C16.1297 20.2963 16.1309 20.3027 16.1285 20.308C16.1277 20.31 16.1265 20.3118 16.1248 20.3133L12.5936 23.4378C12.588 23.4429 12.5797 23.4422 12.575 23.4366C12.5701 23.4311 12.5707 23.4226 12.5762 23.4177L16.0967 20.3026L12.5779 17.1889C12.5744 17.1868 12.5719 17.1832 12.5714 17.1788C12.5705 17.1714 12.5758 17.1648 12.583 17.1639L19.9852 16.3056L23.0662 12.7054C23.0711 12.6998 23.0795 12.6993 23.0848 12.7041C23.0904 12.7089 23.091 12.7173 23.0862 12.7229L20.0168 16.3095L27.3904 17.1644C27.3976 17.1653 27.4029 17.1719 27.402 17.1792C27.4019 17.1801 27.4018 17.1809 27.4015 17.1817C27.4021 17.1861 27.4005 17.1906 27.3969 17.1937L23.7445 20.3059L27.3971 23.555C27.4026 23.5599 27.4032 23.5683 27.3983 23.5739C27.3957 23.5769 27.3921 23.5784 27.3884 23.5784Z" fill="white"/>
<path d="M23.1119 27.699C23.1115 27.699 23.1112 27.699 23.1108 27.699C23.1036 27.6984 23.0981 27.6919 23.0987 27.6846L23.7092 20.3032L23.0635 12.7153C23.0629 12.7079 23.0683 12.7014 23.0756 12.7008C23.0813 12.7003 23.0894 12.7056 23.09 12.713L23.7357 20.3021C23.7357 20.3022 23.7357 20.3025 23.7357 20.3028C23.7357 20.3029 23.7357 20.3029 23.7357 20.3029C23.7357 20.3035 23.7357 20.3041 23.7356 20.3047L23.1251 27.6868C23.1245 27.6937 23.1188 27.699 23.1119 27.699Z" fill="white"/>
<path d="M19.9868 24.196C19.9858 24.196 19.9848 24.1959 19.9838 24.1957L12.5842 23.4359C12.5768 23.4352 12.5715 23.4286 12.5723 23.4213C12.5731 23.414 12.5794 23.4082 12.5868 23.4093L19.9875 24.1692L27.3879 23.5518C27.394 23.5505 27.4016 23.5566 27.4022 23.564C27.4028 23.5714 27.3973 23.5779 27.39 23.5785L19.9903 24.1958C19.9892 24.196 19.9883 24.1962 19.9873 24.196C19.9871 24.196 19.987 24.196 19.9868 24.196Z" fill="white"/>
<path d="M16.8634 27.6996C16.8566 27.6996 16.8509 27.6945 16.8502 27.6876L16.0987 20.3051C16.0986 20.3045 16.0986 20.3039 16.0986 20.3033C16.0986 20.3027 16.0986 20.3021 16.0987 20.3015L16.8502 12.7475C16.8508 12.7403 16.8578 12.7346 16.8647 12.7356C16.8719 12.7363 16.8773 12.7429 16.8765 12.7503L16.1251 20.3033L16.8765 27.6849C16.8773 27.6922 16.872 27.6988 16.8648 27.6995C16.8643 27.6996 16.8638 27.6996 16.8634 27.6996Z" fill="white"/>
<path d="M9.1902 18.1463C9.18732 18.1463 9.18464 18.1444 9.18384 18.1414C9.18285 18.1379 9.18493 18.1342 9.18841 18.1332L12.5842 17.1718C12.5877 17.1705 12.5914 17.1729 12.5924 17.1765C12.5934 17.18 12.5913 17.1837 12.5878 17.1847L9.19199 18.1461C9.19139 18.1463 9.1908 18.1463 9.1902 18.1463ZM30.852 18.1463C30.8514 18.1463 30.8508 18.1463 30.8502 18.1461L27.3874 17.1847C27.387 17.1846 27.3865 17.1845 27.3861 17.1843C27.3855 17.184 27.3849 17.1836 27.3844 17.1831C27.3836 17.1824 27.3831 17.1815 27.3827 17.1806C27.3827 17.1805 27.3827 17.1805 27.3827 17.1805C27.3827 17.1805 27.3827 17.1805 27.3827 17.1805C27.3824 17.1797 27.3823 17.1788 27.3824 17.1778C27.3824 17.177 27.3826 17.1762 27.383 17.1754C27.3832 17.175 27.3834 17.1747 27.3836 17.1743L29.8188 13.5784L23.0756 12.7208C23.0752 12.7208 23.0749 12.7207 23.0746 12.7206C23.0745 12.7206 23.0745 12.7206 23.0745 12.7206C23.0745 12.7206 23.0745 12.7206 23.0744 12.7206C23.0745 12.7207 23.0739 12.7207 23.0734 12.7208C23.0729 12.7208 23.0727 12.7209 23.0717 12.7209C23.0691 12.7227 23.0651 12.7219 23.063 12.719C23.0614 12.7169 23.0614 12.7141 23.0626 12.7119L17.6833 8.57165L16.8717 12.7438L16.8719 12.744C16.8749 12.7461 16.8756 12.7502 16.8734 12.7532C16.8717 12.7557 16.8687 12.7568 16.866 12.7557C16.8649 12.7561 16.8637 12.7561 16.8626 12.756C16.8596 12.7554 16.8575 12.7528 16.8573 12.7498L13.2947 10.1793C13.2917 10.1772 13.291 10.173 13.2932 10.17C13.2954 10.167 13.2993 10.1662 13.3024 10.1685L16.8599 12.7353L17.6722 8.55874C17.6723 8.55814 17.6725 8.55758 17.6728 8.55698C17.6728 8.55698 17.6728 8.55698 17.6728 8.55693C17.6731 8.55628 17.6736 8.55562 17.6741 8.55512C17.6741 8.55507 17.6741 8.55507 17.6741 8.55507C17.6749 8.55437 17.6757 8.55381 17.6767 8.55351C17.6775 8.55321 17.6784 8.55326 17.6791 8.55316C17.68 8.55321 17.681 8.55346 17.6818 8.55387V8.55392C17.6822 8.55407 17.6826 8.55432 17.6829 8.55457L23.0615 12.6943L22.2513 8.56115C22.2506 8.55753 22.2528 8.55402 22.2564 8.55326C22.2598 8.55281 22.2635 8.55497 22.2642 8.55854L23.0763 12.7013L26.6342 10.1684C26.6371 10.1664 26.6412 10.1671 26.6433 10.17C26.6455 10.1731 26.6447 10.1773 26.6417 10.1794L23.0885 12.709L29.8273 13.566L29.8282 13.5645C29.8303 13.5613 29.8344 13.5606 29.8375 13.5627C29.8405 13.5648 29.8413 13.569 29.8392 13.572L27.3997 17.1743L30.8537 18.1332C30.8572 18.1342 30.8593 18.1378 30.8583 18.1414C30.8575 18.1444 30.8548 18.1463 30.852 18.1463Z" fill="white"/>
<path d="M30.7849 22.4041C30.7827 22.4041 30.7807 22.4031 30.7794 22.4011L27.3836 17.1818C27.3816 17.1788 27.3825 17.1746 27.3855 17.1726C27.3886 17.1705 27.3926 17.1714 27.3947 17.1745L30.7905 22.3938C30.7925 22.3969 30.7916 22.401 30.7886 22.403C30.7874 22.4038 30.7862 22.4041 30.7849 22.4041ZM16.864 12.756C16.8621 12.756 16.8601 12.7551 16.8588 12.7534C16.8566 12.7504 16.8571 12.7462 16.86 12.744L22.2585 8.55442C22.2616 8.55236 22.2656 8.55286 22.2678 8.55568C22.27 8.55859 22.2695 8.56281 22.2666 8.56507L16.8681 12.7546C16.8668 12.7555 16.8654 12.756 16.864 12.756Z" fill="white"/>
<path d="M27.389 23.5717C27.3862 23.5717 27.3836 23.57 27.3827 23.5672C27.3815 23.5637 27.3834 23.5599 27.3869 23.5587L30.7827 22.3912C30.786 22.3899 30.7898 22.3919 30.791 22.3953C30.7922 22.3988 30.7903 22.4026 30.7868 22.4038L27.3911 23.5714C27.3904 23.5716 27.3897 23.5717 27.389 23.5717ZM27.389 17.1849C27.3856 17.1849 27.3828 17.1824 27.3824 17.1789L26.6309 10.1741C26.6305 10.1704 26.6331 10.1671 26.6368 10.1667C26.637 10.1667 26.6373 10.1667 26.6375 10.1667C26.6408 10.1667 26.6436 10.1692 26.644 10.1727L27.3955 17.1775C27.3959 17.1812 27.3933 17.1844 27.3897 17.1848C27.3895 17.1849 27.3892 17.1849 27.389 17.1849Z" fill="white"/>
<path d="M26.6421 30.3026C26.641 30.3026 26.6397 30.3023 26.6386 30.3016C26.638 30.3016 26.6372 30.3018 26.6367 30.3016C26.6335 30.3013 26.6312 30.2989 26.6308 30.2958L23.1072 27.6917C23.1042 27.6895 23.1036 27.6853 23.1057 27.6823C23.1078 27.6793 23.1121 27.6787 23.115 27.6809L26.6323 30.2804L27.3823 23.5645C27.3823 23.5641 27.3824 23.5635 27.3826 23.5629C27.3828 23.5625 27.383 23.5621 27.3832 23.5618C27.3832 23.5618 27.3832 23.5618 27.3832 23.5617C27.3832 23.5617 27.3832 23.5617 27.3832 23.5617C27.3833 23.5616 27.3833 23.5615 27.3834 23.5614L30.8463 18.1361C30.8483 18.133 30.8524 18.1321 30.8554 18.1341C30.8585 18.1361 30.8594 18.1402 30.8574 18.1433L27.3969 23.565L29.8389 26.8919C29.8411 26.8949 29.8405 26.899 29.8376 26.9013C29.8347 26.9035 29.8306 26.903 29.8284 26.8998L27.3936 23.5828L26.6446 30.2895L26.646 30.2906C26.649 30.2927 26.6496 30.2969 26.6475 30.2999C26.6462 30.3017 26.6441 30.3026 26.6421 30.3026Z" fill="white"/>
<path d="M17.6789 31.9204C17.6758 31.9204 17.6731 31.9182 17.6725 31.915L16.8575 27.6875C16.8569 27.6839 16.8591 27.6804 16.8627 27.6797C16.8669 27.6793 16.8698 27.6814 16.8705 27.685L17.6818 31.8936L23.1076 27.6809C23.108 27.6807 23.1084 27.6804 23.1088 27.6802C23.1089 27.6802 23.1089 27.6802 23.1089 27.6802C23.1089 27.6802 23.1089 27.6802 23.1089 27.6802C23.1095 27.6798 23.1101 27.6797 23.1111 27.6796L29.8335 26.8897C29.8338 26.8896 29.8341 26.8896 29.8343 26.8896C29.8376 26.8896 29.8405 26.8922 29.8409 26.8956C29.8413 26.8992 29.8387 26.9026 29.8351 26.903L23.1173 27.6923L22.3085 31.9055C22.3078 31.9092 22.3052 31.9111 22.3008 31.9108C22.2972 31.9101 22.2949 31.9066 22.2956 31.903L23.1019 27.7023L17.6846 31.9083L17.6854 31.9125C17.6861 31.9161 17.6838 31.9196 17.6802 31.9203C17.6797 31.9204 17.6793 31.9204 17.6789 31.9204Z" fill="white"/>
<path d="M22.3013 31.9108C22.2999 31.9108 22.2985 31.9104 22.2972 31.9095L16.866 27.6963L13.3027 30.3013C13.2996 30.3034 13.2955 30.3028 13.2935 30.2998C13.2914 30.2967 13.292 30.2926 13.2949 30.2904L16.8506 27.6909L10.1358 26.9366C10.1352 26.9366 10.1345 26.9364 10.1338 26.9361C10.1332 26.9358 10.1326 26.9355 10.1321 26.935C10.1314 26.9344 10.1309 26.9337 10.1305 26.9329C10.13 26.9319 10.1298 26.9307 10.1299 26.9296C10.1299 26.929 10.13 26.9285 10.1301 26.928C10.1301 26.928 10.1301 26.928 10.1302 26.928V26.9279C10.1304 26.9272 10.1307 26.9266 10.1311 26.926L12.58 23.4239C12.5821 23.4209 12.5863 23.4203 12.5892 23.4223C12.5921 23.4245 12.5929 23.4287 12.5907 23.4317L10.1483 26.9246L16.8691 27.6796H16.8692H16.8693H16.8694C16.8695 27.6804 16.871 27.68 16.8718 27.6805H16.8719C16.8719 27.6805 16.8719 27.6805 16.8719 27.6805C16.8725 27.6809 16.873 27.6813 16.8734 27.6818H16.8735C16.8735 27.6819 16.8735 27.6819 16.8735 27.6819C16.8738 27.6823 16.8741 27.6827 16.8743 27.6831C16.8743 27.6832 16.8744 27.6832 16.8744 27.6832V27.6833C16.8744 27.6833 16.8744 27.6833 16.8744 27.6833C16.8744 27.6834 16.8744 27.6834 16.8744 27.6834C16.8744 27.6834 16.8745 27.6834 16.8745 27.6834C16.8745 27.6835 16.8745 27.6835 16.8745 27.6835C16.8745 27.6835 16.8746 27.6836 16.8746 27.6837C16.8746 27.6837 16.8746 27.6837 16.8746 27.6837C16.8746 27.6838 16.8746 27.6838 16.8746 27.6838V27.6838C16.8746 27.6839 16.8747 27.6839 16.8747 27.6839C16.8747 27.6839 16.8747 27.6839 16.8747 27.6839V27.684C16.8749 27.6847 16.8751 27.6854 16.8751 27.6862C16.8751 27.6862 16.8751 27.6862 16.8751 27.6862C16.8751 27.6862 16.8751 27.6862 16.8751 27.6863C16.8751 27.6863 16.8751 27.6863 16.8751 27.6863C16.8751 27.6864 16.8751 27.6864 16.8751 27.6864V27.6864C16.8751 27.6864 16.8751 27.6865 16.875 27.6865L22.3054 31.8988C22.3083 31.9011 22.3088 31.9053 22.3066 31.9082C22.3053 31.9099 22.3033 31.9108 22.3013 31.9108Z" fill="white"/>
<path d="M13.2988 30.3018C13.2954 30.3018 13.2925 30.2993 13.2922 30.2958L12.5796 23.4327L9.15507 22.37C9.15218 22.3691 9.15029 22.3663 9.15039 22.3634C9.15039 22.362 9.15079 22.3606 9.15159 22.3594L12.5803 17.1743C12.5824 17.1713 12.5866 17.1705 12.5894 17.1725C12.5925 17.1745 12.5933 17.1787 12.5912 17.1818L9.16719 22.3598L12.5875 23.4212C12.5879 23.4213 12.5882 23.4214 12.5886 23.4216C12.5895 23.422 12.5903 23.4227 12.5909 23.4235C12.591 23.4235 12.591 23.4235 12.591 23.4235C12.5915 23.4242 12.5918 23.4249 12.5921 23.4256C12.5922 23.4261 12.5923 23.4266 12.5923 23.4271L13.3054 30.2944C13.3057 30.2981 13.3032 30.3014 13.2995 30.3018C13.2993 30.3018 13.299 30.3018 13.2988 30.3018Z" fill="white"/>
<path d="M12.585 23.4345C12.5829 23.4345 12.5808 23.4335 12.5795 23.4315L9.18368 18.1438C9.18169 18.1407 9.18258 18.1365 9.18566 18.1345C9.18874 18.1325 9.19272 18.1334 9.19481 18.1365L12.5906 23.4242C12.5926 23.4273 12.5917 23.4315 12.5886 23.4335C12.5875 23.4342 12.5862 23.4345 12.585 23.4345ZM12.585 17.1859C12.5848 17.1859 12.5845 17.1859 12.5843 17.1859C12.5808 17.1855 12.5781 17.1822 12.5785 17.1785L13.2915 10.1737C13.2918 10.1703 13.2947 10.1677 13.2981 10.1677C13.2983 10.1677 13.2985 10.1677 13.2988 10.1678C13.3024 10.1681 13.305 10.1714 13.3047 10.1751L12.5916 17.1799C12.5913 17.1833 12.5884 17.1859 12.585 17.1859Z" fill="white"/>
<path d="M10.1365 13.5795C10.1332 13.5795 10.1303 13.577 10.1299 13.5736C10.1295 13.5699 10.1321 13.5666 10.1357 13.5662L16.8583 12.742C16.8614 12.7415 16.8653 12.7441 16.8657 12.7478C16.8661 12.7515 16.8635 12.7548 16.8599 12.7553L10.1373 13.5794C10.137 13.5795 10.1368 13.5795 10.1365 13.5795Z" fill="white"/>
<path d="M13.2986 10.1792C13.2979 10.1792 13.2971 10.179 13.2964 10.1787L10.6827 8.94279C10.6801 8.94154 10.679 8.93847 10.6802 8.93586C10.6814 8.93329 10.6843 8.93224 10.687 8.93335L13.2933 10.1658L13.0912 7.29241C13.0905 7.29125 13.0903 7.28984 13.0907 7.28849C13.0913 7.28618 13.0934 7.28467 13.0957 7.28467C13.0958 7.28467 13.0959 7.28467 13.096 7.28467C13.0964 7.28472 13.0978 7.28487 13.0987 7.28527L17.6808 8.55495C17.6834 8.5557 17.685 8.55856 17.6843 8.56133C17.6836 8.56404 17.6816 8.5659 17.678 8.565L13.1018 7.29693L13.3042 10.1737C13.3044 10.1765 13.3022 10.179 13.2994 10.1792C13.299 10.1792 13.299 10.1792 13.2988 10.1792C13.2987 10.1792 13.2987 10.1792 13.2986 10.1792Z" fill="white"/>
<path d="M13.2981 10.1791C13.2972 10.1791 13.2963 10.1789 13.2954 10.1784C13.293 10.1769 13.2922 10.1737 13.2937 10.1713L15.7041 6.11954C15.7042 6.11939 15.7043 6.11914 15.7045 6.11888C15.7049 6.11838 15.7055 6.11793 15.706 6.11763C15.7067 6.11728 15.7074 6.11707 15.7081 6.11702C15.7086 6.11712 15.7096 6.11707 15.7103 6.11738C15.7108 6.11758 15.7113 6.11788 15.7118 6.11828C15.7118 6.11828 15.7118 6.11828 15.7118 6.11833C15.7121 6.11853 15.7123 6.11873 15.7125 6.11898L17.6756 8.54888L18.4878 5.63546C18.4879 5.63511 18.488 5.6348 18.4881 5.6345C18.4884 5.63395 18.4888 5.63345 18.4892 5.63304C18.4892 5.63299 18.4892 5.63299 18.4892 5.63299C18.4898 5.63244 18.4905 5.63204 18.4912 5.63184C18.4912 5.63184 18.4912 5.63184 18.4912 5.63179C18.492 5.63154 18.4928 5.63144 18.4936 5.63164C18.494 5.63169 18.4945 5.63184 18.4949 5.63199C18.4952 5.63219 18.4956 5.63244 18.496 5.63274L22.265 8.55577C22.2673 8.55753 22.2677 8.56079 22.266 8.56305C22.2643 8.56526 22.2609 8.56572 22.2589 8.56401L18.4956 5.64556L17.6828 8.5613C17.6827 8.56165 17.6825 8.562 17.6824 8.56235C17.6824 8.56235 17.6824 8.56235 17.6823 8.56235V8.5624C17.6823 8.56245 17.6823 8.56245 17.6823 8.56245C17.6819 8.56315 17.6813 8.56376 17.6807 8.56421C17.6807 8.56421 17.6807 8.56421 17.6806 8.56421C17.6801 8.56456 17.6796 8.56481 17.679 8.56496C17.6782 8.56516 17.6775 8.56516 17.6767 8.56496C17.6767 8.56516 17.6758 8.56466 17.6754 8.56446C17.6754 8.56441 17.6754 8.56441 17.6753 8.56441C17.6748 8.56406 17.6743 8.56361 17.6738 8.5631L15.709 6.1312L13.3025 10.1766C13.3016 10.1783 13.2998 10.1791 13.2981 10.1791Z" fill="white"/>
<path d="M26.6436 10.1781C26.6419 10.1781 26.6401 10.1772 26.6392 10.1756L24.229 6.13386L22.2684 8.56085C22.268 8.56266 22.2666 8.56422 22.2647 8.56477C22.2626 8.56532 22.2605 8.56462 22.2592 8.56301C22.2582 8.56195 22.2577 8.56055 22.2577 8.55914L21.4072 5.54727L17.6782 8.56341C17.6761 8.56517 17.6728 8.56482 17.6711 8.56261C17.6693 8.56035 17.6696 8.55708 17.6719 8.55527L21.4068 5.53425C21.4069 5.53415 21.4071 5.534 21.4074 5.53385C21.4081 5.53335 21.409 5.5331 21.4099 5.53315C21.4105 5.53315 21.4111 5.53325 21.4116 5.53345H21.4117C21.4123 5.53365 21.4128 5.53395 21.4133 5.5344C21.4138 5.53481 21.4142 5.53536 21.4145 5.53596C21.4147 5.53631 21.4148 5.53667 21.4149 5.53702L22.2654 8.54808L24.2235 6.12442C24.2223 6.122 24.2231 6.11904 24.2254 6.11763C24.2268 6.11683 24.2284 6.11673 24.2294 6.11713C24.2314 6.11552 24.234 6.11552 24.236 6.11713C24.2382 6.11894 24.2385 6.12221 24.2367 6.12442L24.236 6.12532L26.6479 10.1702C26.6494 10.1727 26.6486 10.1759 26.6462 10.1774C26.6454 10.1779 26.6445 10.1781 26.6436 10.1781Z" fill="white"/>
<path d="M31.2936 10.9001C31.2933 10.9001 31.2931 10.9001 31.2928 10.9L26.6418 10.179C26.6417 10.179 26.6415 10.179 26.6414 10.179C26.6385 10.1787 26.6365 10.1762 26.6367 10.1734L26.8738 7.29596L22.2634 8.56478C22.2598 8.56538 22.2577 8.56382 22.257 8.56111C22.2563 8.55834 22.2579 8.55548 22.2606 8.55473L26.8776 7.2841C26.8797 7.28344 26.8815 7.2843 26.8828 7.28571C26.884 7.28676 26.8847 7.28837 26.8846 7.29008L26.6477 10.1652L29.3172 8.79549C29.3196 8.79418 29.3228 8.79518 29.3241 8.79775C29.3254 8.80031 29.3244 8.80343 29.3218 8.80473L26.6588 10.1711L31.2944 10.8897C31.2972 10.8902 31.299 10.8928 31.2986 10.8957C31.2982 10.8982 31.2961 10.9001 31.2936 10.9001Z" fill="white"/>
<path d="M34.0143 15.9818C34.0134 15.9818 34.0126 15.9816 34.0117 15.9811L29.8315 13.5776C29.8316 13.5777 29.8316 13.5777 29.8316 13.5777C29.8308 13.5772 29.8302 13.5766 29.8298 13.576C29.8298 13.5759 29.8297 13.5759 29.8297 13.5759C29.8297 13.5758 29.8297 13.5758 29.8297 13.5758C29.8297 13.5758 29.8297 13.5758 29.8297 13.5758C29.8297 13.5758 29.8297 13.5758 29.8296 13.5758C29.8296 13.5758 29.8296 13.5758 29.8296 13.5757C29.8294 13.5752 29.8292 13.5747 29.829 13.5742C29.829 13.5739 29.829 13.5737 29.8289 13.5735L29.3194 8.80083C29.3191 8.79797 29.3211 8.79541 29.3238 8.7951C29.324 8.7951 29.3242 8.7951 29.3244 8.7951C29.327 8.7951 29.3293 8.79706 29.3295 8.79973L29.8374 13.5562L31.2894 10.8925C31.2907 10.8901 31.2937 10.8891 31.2963 10.8905C31.2988 10.8919 31.2997 10.895 31.2983 10.8976L29.8432 13.5672L32.8894 13.3276C32.8919 13.327 32.8946 13.3295 32.8949 13.3323C32.8951 13.3352 32.893 13.3377 32.8902 13.3379L29.8511 13.577L34.0168 15.9721C34.0192 15.9735 34.0201 15.9767 34.0187 15.9792C34.0177 15.9809 34.016 15.9818 34.0143 15.9818Z" fill="white"/>
<path d="M30.7845 22.4027C30.7832 22.4027 30.7818 22.4022 30.7808 22.4011C30.7788 22.3991 30.7788 22.3958 30.7809 22.3938L34.373 18.8638L30.8516 18.1447C30.8513 18.1446 30.851 18.1445 30.8507 18.1444C30.8503 18.1443 30.85 18.1441 30.8496 18.1439C30.8496 18.1438 30.8496 18.1438 30.8496 18.1438C30.8489 18.1433 30.8483 18.1426 30.848 18.1419V18.1418C30.8479 18.1418 30.8479 18.1418 30.8479 18.1418C30.8477 18.1414 30.8476 18.1409 30.8475 18.1404C30.8475 18.1403 30.8475 18.1403 30.8475 18.1403V18.1403C30.8475 18.1402 30.8475 18.1402 30.8475 18.1402C30.8474 18.1395 30.8474 18.1387 30.8477 18.1379C30.8477 18.1378 30.8478 18.1377 30.8478 18.1377V18.1376C30.8478 18.1376 30.8478 18.1376 30.8478 18.1376C30.8478 18.1376 30.8478 18.1376 30.8478 18.1375C30.8478 18.1375 30.8478 18.1375 30.8479 18.1375V18.1375L32.8848 13.3305C32.886 13.3279 32.8893 13.3267 32.8916 13.3278C32.8943 13.3289 32.8955 13.332 32.8944 13.3346L30.8642 18.1253L34.0073 15.9721C34.0098 15.9705 34.013 15.9712 34.0145 15.9735C34.0161 15.9759 34.0155 15.9792 34.0131 15.9808L30.8655 18.1369L34.3846 18.8556C34.3846 18.8556 34.3846 18.8556 34.3847 18.8556C34.3848 18.8556 34.3848 18.8556 34.3848 18.8556C34.3851 18.8557 34.3853 18.8557 34.3856 18.8559H34.3857V18.8559C34.3858 18.8559 34.3858 18.8559 34.3858 18.8559C34.3858 18.856 34.3858 18.856 34.3858 18.856H34.3859C34.3859 18.856 34.3859 18.856 34.3859 18.856C34.386 18.856 34.386 18.856 34.386 18.856V18.8561C34.3866 18.8564 34.387 18.8567 34.3874 18.8572C34.3874 18.8572 34.3874 18.8572 34.3875 18.8572C34.3879 18.8578 34.3883 18.8585 34.3885 18.8592C34.3887 18.8599 34.3887 18.8608 34.3886 18.8616C34.3886 18.8617 34.3886 18.8617 34.3886 18.8617C34.3886 18.8617 34.3886 18.8617 34.3886 18.8617C34.3886 18.8617 34.3885 18.8617 34.3885 18.8618V18.8618C34.3885 18.862 34.3885 18.8621 34.3884 18.8623C34.3884 18.8623 34.3884 18.8623 34.3884 18.8623V18.8624V18.8624C34.3883 18.8624 34.3883 18.8624 34.3883 18.8624C34.3883 18.8625 34.3883 18.8625 34.3883 18.8625C34.3883 18.8625 34.3883 18.8625 34.3883 18.8625C34.388 18.8632 34.3876 18.8639 34.3872 18.8644L30.788 22.4012C30.787 22.4022 30.7857 22.4027 30.7845 22.4027Z" fill="white"/>
<path d="M29.8342 26.9009C29.8324 26.9009 29.8308 26.9 29.8298 26.8983C29.8284 26.8959 29.8293 26.8927 29.8316 26.8912L33.9325 24.5263L30.7815 22.4019C30.7814 22.4018 30.7813 22.4017 30.7811 22.4016V22.4015C30.7806 22.4012 30.7802 22.4007 30.78 22.4002C30.7799 22.4002 30.7799 22.4002 30.7799 22.4001C30.7799 22.4001 30.7799 22.4001 30.7799 22.4001V22.4C30.7799 22.4 30.7799 22.4 30.7799 22.4C30.7797 22.3998 30.7796 22.3996 30.7795 22.3993C30.7795 22.3993 30.7795 22.3993 30.7795 22.3993C30.7795 22.3992 30.7795 22.3992 30.7795 22.3992C30.7793 22.3987 30.7792 22.3982 30.7792 22.3977C30.7792 22.3977 30.7792 22.3977 30.7792 22.3976C30.7792 22.3973 30.7792 22.3971 30.7793 22.3968C30.7793 22.3968 30.7793 22.3968 30.7793 22.3967C30.7793 22.3967 30.7793 22.3967 30.7793 22.3967V22.3966C30.7793 22.3966 30.7793 22.3966 30.7793 22.3966V22.3965V22.3965C30.7794 22.396 30.7796 22.3955 30.7799 22.395C30.7799 22.395 30.7799 22.395 30.7799 22.395C30.7799 22.395 30.7799 22.395 30.7799 22.3949C30.7799 22.3949 30.7799 22.3949 30.78 22.3949C30.7801 22.3947 30.7802 22.3945 30.7803 22.3944C30.7803 22.3944 30.7803 22.3944 30.7803 22.3943C30.7803 22.3943 30.7804 22.3943 30.7804 22.3943C30.7804 22.3943 30.7804 22.3943 30.7804 22.3942C30.7806 22.394 30.7809 22.3937 30.7812 22.3935C30.7812 22.3935 30.7812 22.3935 30.7812 22.3934C30.7819 22.3929 30.7826 22.3926 30.7835 22.3924L34.4748 21.7074L30.8489 18.1433C30.8468 18.1413 30.8468 18.1381 30.8488 18.136C30.8508 18.1339 30.8541 18.1339 30.8561 18.1359L34.4891 21.707C34.4897 21.7075 34.4901 21.7082 34.4904 21.709V21.7091C34.4904 21.7091 34.4904 21.7091 34.4904 21.7091C34.4904 21.7091 34.4904 21.7091 34.4904 21.7092C34.4904 21.7092 34.4904 21.7092 34.4905 21.7092V21.7092V21.7093C34.4905 21.7093 34.4905 21.7093 34.4905 21.7093C34.4905 21.7095 34.4906 21.7096 34.4906 21.7097C34.4906 21.7097 34.4906 21.7097 34.4906 21.7097C34.4907 21.7106 34.4907 21.7115 34.4904 21.7123C34.4902 21.713 34.4899 21.7135 34.4895 21.714C34.4895 21.714 34.4895 21.714 34.4895 21.714C34.4889 21.7147 34.4881 21.7153 34.4872 21.7156H34.4871V21.7157C34.4871 21.7157 34.4871 21.7157 34.487 21.7157C34.487 21.7157 34.487 21.7157 34.4869 21.7157C34.4869 21.7157 34.4869 21.7157 34.4869 21.7157H34.4868C34.4867 21.7157 34.4867 21.7158 34.4866 21.7158H34.4865C34.4865 21.7158 34.4865 21.7158 34.4864 21.7158L30.7978 22.4004L33.9439 24.5214C33.9452 24.5218 33.9464 24.5227 33.9471 24.5239C33.9484 24.5264 33.9475 24.5296 33.9452 24.531L29.8368 26.9003C29.836 26.9007 29.8351 26.9009 29.8342 26.9009Z" fill="white"/>
<path d="M29.3 31.6396C29.2998 31.6396 29.2996 31.6396 29.2994 31.6396C29.2967 31.6393 29.2946 31.6367 29.295 31.6338L29.833 26.9009C29.8305 26.9004 29.8287 26.898 29.829 26.8953C29.8292 26.8926 29.8315 26.8907 29.8341 26.8907C29.8343 26.8907 29.8344 26.8907 29.8346 26.8907L29.8371 26.8909C29.8381 26.8905 29.839 26.8905 29.84 26.8908C29.8405 26.8909 29.841 26.8911 29.8414 26.8914L32.8478 27.1985L30.7848 22.3997C30.7836 22.3971 30.7848 22.394 30.7874 22.3928C30.7901 22.3918 30.793 22.393 30.7941 22.3956L32.8607 27.2025C32.8609 27.2028 32.861 27.2033 32.8611 27.2037C32.8611 27.2037 32.8611 27.2037 32.8611 27.2037C32.8611 27.2038 32.8611 27.2038 32.8611 27.2038C32.8611 27.2038 32.8611 27.2038 32.8611 27.2038C32.8612 27.2044 32.8612 27.205 32.8611 27.2056C32.8609 27.2064 32.8606 27.2071 32.8601 27.2078C32.8597 27.2083 32.8592 27.2087 32.8586 27.2091V27.2091C32.8576 27.2096 32.8568 27.2097 32.856 27.2098C32.8558 27.2098 32.8556 27.2098 32.8554 27.2098L29.8481 26.9025L31.2693 29.6009C31.2706 29.6034 31.2697 29.6066 31.2672 29.6079C31.2648 29.6092 31.2616 29.6083 31.2602 29.6058L29.842 26.913L29.3051 31.635C29.3048 31.6377 29.3026 31.6396 29.3 31.6396Z" fill="white"/>
<path d="M24.2268 34.4207C24.2259 34.4207 24.225 34.4205 24.2242 34.42C24.2217 34.4186 24.2209 34.4154 24.2224 34.4129L26.6376 30.2923C26.6376 30.2923 26.6376 30.2922 26.6377 30.2921C26.6379 30.2918 26.638 30.2916 26.6383 30.2914C26.6383 30.2913 26.6383 30.2913 26.6383 30.2913C26.6383 30.2913 26.6383 30.2913 26.6383 30.2913C26.6385 30.291 26.6388 30.2908 26.6391 30.2906C26.6391 30.2906 26.6391 30.2906 26.6391 30.2906C26.6392 30.2905 26.6394 30.2904 26.6396 30.2903C26.6396 30.2903 26.6396 30.2903 26.6396 30.2903H26.6397V30.2902C26.6402 30.29 26.6406 30.2899 26.6412 30.2898L31.2581 29.603C31.2584 29.6029 31.2587 29.6029 31.2589 29.6029C31.2614 29.6029 31.2636 29.6048 31.264 29.6073C31.2644 29.6101 31.2625 29.6128 31.2597 29.6132L26.6588 30.2977L29.2923 31.6297C29.2949 31.631 29.2959 31.6341 29.2946 31.6367C29.2933 31.6393 29.29 31.6403 29.2877 31.6391L26.6477 30.3036L26.8509 33.287C26.8511 33.2899 26.8489 33.2924 26.8462 33.2926C26.846 33.2926 26.8459 33.2926 26.8458 33.2926C26.8431 33.2926 26.8408 33.2905 26.8406 33.2877L26.638 30.3119L24.2312 34.4182C24.2303 34.4198 24.2286 34.4207 24.2268 34.4207Z" fill="white"/>
<path d="M21.4094 34.9998C21.4089 34.9998 21.4084 34.9997 21.4079 34.9996C21.4052 34.9988 21.4036 34.9959 21.4044 34.9932L22.2923 31.9187L18.5025 34.9987C18.5004 35.0005 18.497 35 18.4953 34.9979C18.4935 34.9956 18.4938 34.9924 18.4961 34.9905L22.2987 31.9002C22.2987 31.9002 22.2988 31.9001 22.2988 31.9001C22.2994 31.8996 22.3001 31.8993 22.3008 31.8991C22.3016 31.899 22.3021 31.899 22.3029 31.8992C22.3031 31.8992 22.3032 31.8992 22.3034 31.8993L26.8531 33.273C26.8558 33.2738 26.8574 33.2767 26.8566 33.2795C26.8557 33.2822 26.8529 33.2838 26.8501 33.2829L22.3157 31.9139L24.2316 34.4077C24.2333 34.4099 24.2329 34.4132 24.2307 34.415C24.2283 34.4166 24.2251 34.4164 24.2234 34.414L22.3039 31.9155L21.4144 34.9961C21.4137 34.9983 21.4116 34.9998 21.4094 34.9998Z" fill="white"/>
<path d="M18.4923 34.9997C18.49 34.9997 18.4879 34.9982 18.4873 34.9959L17.6751 31.9156L15.7466 34.4136C15.7475 34.4159 15.7467 34.4187 15.7445 34.42C15.7418 34.4214 15.7388 34.4207 15.7375 34.4182L13.2927 30.2976C13.2913 30.2951 13.2921 30.292 13.2944 30.2904C13.297 30.2889 13.3001 30.2898 13.3015 30.2923L15.741 34.404L17.6733 31.901C17.6738 31.9004 17.6745 31.8998 17.6753 31.8995C17.6753 31.8994 17.6753 31.8994 17.6753 31.8994C17.6754 31.8994 17.6754 31.8994 17.6754 31.8994V31.8994H17.6755C17.6755 31.8994 17.6755 31.8993 17.6756 31.8993C17.6757 31.8993 17.6758 31.8993 17.6759 31.8992C17.676 31.8992 17.676 31.8992 17.676 31.8992V31.8992H17.6761C17.6769 31.8991 17.6778 31.899 17.6784 31.8991C17.6786 31.8991 17.6789 31.8992 17.6791 31.8993C17.6791 31.8993 17.6791 31.8993 17.6791 31.8993H17.6792H17.6793C17.6793 31.8994 17.6793 31.8994 17.6793 31.8994C17.6793 31.8994 17.6793 31.8994 17.6794 31.8994C17.6798 31.8996 17.6803 31.8998 17.6807 31.9002L21.4109 34.9905C21.413 34.9924 21.4133 34.9956 21.4116 34.9979C21.4099 35.0001 21.4066 35.0005 21.4043 34.9986L17.6864 31.9184L18.4973 34.9932C18.4979 34.996 18.4964 34.9988 18.4936 34.9996C18.4932 34.9997 18.4927 34.9997 18.4923 34.9997Z" fill="white"/>
<path d="M13.0603 33.3562C13.0602 33.3562 13.06 33.3562 13.0599 33.3562C13.057 33.356 13.0549 33.3535 13.0551 33.3506L13.2921 30.3041L10.6523 31.7758C10.6508 31.7765 10.6492 31.7765 10.648 31.776C10.6473 31.7765 10.6466 31.7767 10.6457 31.7768C10.6456 31.7768 10.6454 31.7768 10.6452 31.7768C10.6426 31.7768 10.6403 31.7749 10.6401 31.7722L10.1309 26.9305C10.1306 26.9277 10.1326 26.9251 10.1355 26.9248C10.1356 26.9248 10.1358 26.9248 10.136 26.9248C10.1385 26.9248 10.1408 26.9268 10.141 26.9294L10.6497 31.7654L13.2954 30.2903C13.2955 30.2903 13.2955 30.2903 13.2955 30.2903C13.2956 30.2902 13.2958 30.2901 13.296 30.29C13.296 30.29 13.296 30.29 13.296 30.29C13.2961 30.29 13.2961 30.29 13.2961 30.29C13.2969 30.2896 13.2978 30.2896 13.2988 30.2897C13.2989 30.2897 13.2989 30.2897 13.2989 30.2897C13.2996 30.2899 13.3002 30.2901 13.3008 30.2906C13.3013 30.2909 13.3018 30.2914 13.3021 30.2919C13.3025 30.2925 13.3028 30.2931 13.303 30.2938C13.303 30.2939 13.303 30.2939 13.303 30.2939V30.2939C13.3031 30.2944 13.3031 30.2949 13.303 30.2954L13.0664 33.3393L17.6767 31.8992C17.6795 31.8984 17.6823 31.8999 17.683 31.9026C17.6839 31.9054 17.6824 31.9083 17.6797 31.9091L13.0655 33.3504V33.3514C13.0652 33.3541 13.063 33.3562 13.0603 33.3562Z" fill="white"/>
<path d="M13.299 30.3002C13.2988 30.3002 13.2985 30.3002 13.2984 30.3001L8.64749 29.6484C8.64471 29.648 8.64282 29.6455 8.64312 29.6428C8.64232 29.6427 8.64163 29.6425 8.64103 29.6421C8.63854 29.6407 8.63765 29.6375 8.63904 29.6351L10.1278 26.9363L7.08186 27.244C7.07968 27.2442 7.0766 27.2423 7.0763 27.2394C7.076 27.2365 7.07799 27.234 7.08087 27.2337L10.1203 26.9266L5.92956 24.5653C5.92926 24.5652 5.92896 24.565 5.92856 24.5647C5.92856 24.5647 5.92856 24.5647 5.92856 24.5646C5.92807 24.5642 5.92767 24.5637 5.92747 24.5631C5.92737 24.5631 5.92737 24.5631 5.92737 24.5631C5.92737 24.5631 5.92737 24.5631 5.92737 24.563C5.92707 24.5624 5.92697 24.5617 5.92687 24.5611C5.92687 24.5604 5.92697 24.5596 5.92727 24.5589C5.92727 24.5589 5.92727 24.5589 5.92727 24.5588C5.92747 24.5583 5.92777 24.5578 5.92817 24.5573C5.92856 24.557 5.92886 24.5567 5.92926 24.5564L9.14389 22.3663L5.4896 21.7159C5.48682 21.7154 5.48493 21.7127 5.48543 21.7099C5.48593 21.7071 5.48871 21.7051 5.49139 21.7057L9.1582 22.3583C9.1589 22.3584 9.15959 22.3587 9.16009 22.3591C9.16009 22.3591 9.16019 22.3591 9.16019 22.3591C9.16019 22.3592 9.16019 22.3592 9.16019 22.3592C9.16068 22.3595 9.16118 22.36 9.16158 22.3605C9.16188 22.3609 9.16208 22.3614 9.16218 22.3618C9.16218 22.3619 9.16218 22.3619 9.16218 22.3619C9.16218 22.3619 9.16218 22.3619 9.16218 22.3619C9.16227 22.3619 9.16227 22.3619 9.16227 22.362V22.362C9.16227 22.362 9.16227 22.362 9.16227 22.3621C9.16247 22.3628 9.16247 22.3635 9.16237 22.3643C9.16227 22.3651 9.16198 22.3657 9.16158 22.3663C9.16158 22.3664 9.16158 22.3664 9.16158 22.3664C9.16148 22.3664 9.16148 22.3664 9.16148 22.3664C9.16128 22.3668 9.16088 22.3671 9.16058 22.3674C9.16049 22.3675 9.16049 22.3675 9.16049 22.3675C9.16039 22.3676 9.16029 22.3677 9.16009 22.3677L5.94188 24.5604L10.1396 26.9256C10.1397 26.9256 10.14 26.9258 10.1402 26.9259C10.1406 26.9263 10.141 26.9266 10.1413 26.927C10.1418 26.9278 10.1422 26.9286 10.1422 26.9296C10.1423 26.9297 10.1423 26.9298 10.1423 26.9299C10.1423 26.9299 10.1423 26.9299 10.1423 26.9299C10.1423 26.93 10.1423 26.93 10.1423 26.93C10.1423 26.9301 10.1423 26.9301 10.1423 26.9301C10.1423 26.9301 10.1423 26.9301 10.1423 26.9301V26.9302C10.1423 26.9311 10.142 26.932 10.1416 26.9327L8.64908 29.6381L13.2997 30.2899C13.3025 30.2902 13.3045 30.2929 13.3041 30.2957C13.3038 30.2983 13.3015 30.3002 13.299 30.3002Z" fill="white"/>
<path d="M7.0902 27.2446C7.0895 27.2446 7.08881 27.2445 7.08821 27.2442C7.08553 27.2431 7.08434 27.24 7.08543 27.2373L9.15203 22.3614C9.15322 22.3588 9.1566 22.3575 9.15878 22.3587C9.16147 22.3598 9.16266 22.3629 9.16157 22.3656L7.09497 27.2414C7.09408 27.2434 7.09219 27.2446 7.0902 27.2446ZM5.48949 21.7161C5.4881 21.7161 5.48681 21.7156 5.48582 21.7144C5.48383 21.7124 5.48393 21.7091 5.48592 21.7071L9.18701 18.136C9.1891 18.1341 9.19237 18.1342 9.19426 18.1362C9.19625 18.1383 9.19615 18.1416 9.19416 18.1436L5.49307 21.7146C5.49208 21.7156 5.49079 21.7161 5.48949 21.7161Z" fill="white"/>
<path d="M9.15689 22.3685C9.1556 22.3685 9.15431 22.3681 9.15331 22.3671L5.48691 18.8645C5.48492 18.8625 5.48482 18.8592 5.48671 18.8571C5.48879 18.855 5.49207 18.855 5.49406 18.8569L9.16047 22.3596C9.16246 22.3615 9.16256 22.3648 9.16067 22.3669C9.15958 22.368 9.15828 22.3685 9.15689 22.3685ZM9.19158 18.1448C9.19058 18.1448 9.18959 18.1446 9.18869 18.144L6.03061 16.015C6.02833 16.0134 6.02763 16.0102 6.02922 16.0078C6.03091 16.0054 6.03399 16.0048 6.03638 16.0064L9.19446 18.1353C9.19674 18.1369 9.19744 18.1401 9.19585 18.1425C9.19486 18.144 9.19327 18.1448 9.19158 18.1448Z" fill="white"/>
<path d="M5.48953 18.8658C5.48714 18.8658 5.48495 18.8641 5.48446 18.8616C5.48396 18.8587 5.48575 18.856 5.48853 18.8555L9.18327 18.1356L7.08079 13.3346C7.0796 13.332 7.08079 13.329 7.08338 13.3278C7.08616 13.3268 7.08914 13.3279 7.09013 13.3304L9.19529 18.1374C9.19539 18.1376 9.19549 18.1379 9.19559 18.1382V18.1382C9.19569 18.1387 9.19579 18.1392 9.19579 18.1396C9.19579 18.1397 9.19579 18.1397 9.19579 18.1397C9.19579 18.1397 9.19579 18.1397 9.19579 18.1397V18.1398C9.19569 18.1404 9.19559 18.1411 9.19529 18.1417C9.19489 18.1425 9.1944 18.1432 9.1936 18.1437C9.1936 18.1438 9.1936 18.1438 9.1936 18.1438C9.1936 18.1438 9.1936 18.1438 9.1935 18.1438C9.1932 18.144 9.19271 18.1443 9.19231 18.1444C9.19221 18.1444 9.19221 18.1444 9.19221 18.1444C9.19201 18.1445 9.19171 18.1446 9.19151 18.1446L5.49052 18.8657C5.49012 18.8658 5.48982 18.8658 5.48953 18.8658Z" fill="white"/>
<path d="M6.0325 16.0159C6.03071 16.0159 6.02902 16.015 6.02802 16.0133C6.02663 16.0109 6.02743 16.0077 6.02991 16.0062L10.1194 13.5769L7.07996 13.3378C7.07717 13.3376 7.07499 13.3351 7.07519 13.3323C7.07549 13.3296 7.07767 13.3275 7.08035 13.3275C7.08045 13.3275 7.08065 13.3275 7.08075 13.3275L10.1267 13.5671L8.67559 11.0353C8.6742 11.0328 8.675 11.0297 8.67748 11.0282C8.67977 11.0267 8.68305 11.0276 8.68454 11.0301L10.1328 13.5569L10.6744 8.9364C10.6747 8.93373 10.6769 8.93182 10.6795 8.93182C10.6797 8.93182 10.6799 8.93182 10.6801 8.93182C10.6829 8.93218 10.6849 8.93474 10.6846 8.9376L10.1411 13.5736C10.1411 13.5741 10.1409 13.5747 10.1407 13.5751C10.1407 13.5752 10.1407 13.5752 10.1407 13.5752C10.1407 13.5752 10.1407 13.5752 10.1407 13.5752C10.1407 13.5752 10.1407 13.5752 10.1407 13.5753C10.1407 13.5753 10.1406 13.5753 10.1406 13.5753V13.5754V13.5754C10.1405 13.5756 10.1404 13.5758 10.1403 13.5759V13.576C10.1402 13.576 10.1402 13.576 10.1402 13.576C10.1402 13.576 10.1402 13.576 10.1402 13.576C10.14 13.5765 10.1395 13.5769 10.139 13.5773C10.139 13.5773 10.1389 13.5773 10.1389 13.5774C10.1388 13.5774 10.1387 13.5775 10.1386 13.5775L6.03508 16.0152C6.03429 16.0157 6.03339 16.0159 6.0325 16.0159Z" fill="white"/>
<path d="M8.68093 11.038C8.67844 11.038 8.67636 11.0363 8.67586 11.0338C8.67536 11.0309 8.67725 11.0282 8.68003 11.0277L13.298 10.1689C13.3007 10.1685 13.3035 10.1702 13.304 10.173C13.3045 10.1759 13.3026 10.1786 13.2998 10.1791L8.68182 11.0379C8.68153 11.038 8.68123 11.038 8.68093 11.038Z" fill="white"/>
<path d="M14.3237 18.4784L14.2988 22.0884L17.8708 22.1136L17.8957 18.5036L14.3237 18.4784Z" fill="white"/>
<path d="M18.188 14.5014L18.1631 18.1115L21.735 18.1366L21.7599 14.5266L18.188 14.5014Z" fill="white"/>
<path d="M18.188 22.4198L18.1631 26.0298L21.735 26.055L21.7599 22.445L18.188 22.4198Z" fill="white"/>
<path d="M22.0864 18.444L22.0615 22.054L25.6335 22.0791L25.6584 18.4691L22.0864 18.444Z" fill="white"/>
<path d="M21.8719 11.4635L21.8545 13.9701L24.3438 13.9877L24.3612 11.4812L21.8719 11.4635Z" fill="white"/>
<path d="M15.6492 11.463L15.6318 13.9696L18.1212 13.9873L18.1385 11.4807L15.6492 11.463Z" fill="white"/>
<path d="M11.3406 15.9279L11.3232 18.4344L13.8126 18.4521L13.8299 15.9455L11.3406 15.9279Z" fill="white"/>
<path d="M11.3471 22.2252L11.3213 24.7318L13.8097 24.758L13.8355 22.2515L11.3471 22.2252Z" fill="white"/>
<path d="M26.1795 22.1776L26.1621 24.6842L28.6514 24.7019L28.6688 22.1953L26.1795 22.1776Z" fill="white"/>
<path d="M26.2387 15.9456L26.2129 18.4521L28.7013 18.4784L28.7271 15.9718L26.2387 15.9456Z" fill="white"/>
<path d="M9.31791 12.7426L9.30664 14.3909L10.9332 14.4022L10.9444 12.754L9.31791 12.7426Z" fill="white"/>
<path d="M12.4976 9.38825L12.4863 11.0365L14.1128 11.0479L14.1241 9.39963L12.4976 9.38825Z" fill="white"/>
<path d="M16.8746 7.72913L16.8633 9.37738L18.4898 9.38876L18.5011 7.74051L16.8746 7.72913Z" fill="white"/>
<path d="M8.35991 17.3076L8.34863 18.9558L9.96434 18.9671L9.97561 17.3189L8.35991 17.3076Z" fill="white"/>
<path d="M30.6405 12.754L29.0107 12.7654L29.022 14.4103L30.6518 14.3989L30.6405 12.754Z" fill="white"/>
<path d="M27.4609 9.34358L25.8311 9.35498L25.8423 10.9999L27.4721 10.9885L27.4609 9.34358Z" fill="white"/>
<path d="M23.0693 7.7256L21.4395 7.737L21.4507 9.38192L23.0805 9.37052L23.0693 7.7256Z" fill="white"/>
<path d="M31.5888 17.3142L29.959 17.3256L29.9702 18.9705L31.6 18.9591L31.5888 17.3142Z" fill="white"/>
<path d="M15.615 26.5L15.5977 29.0066L18.087 29.0242L18.1044 26.5177L15.615 26.5Z" fill="white"/>
<path d="M21.8387 26.5L21.8213 29.0066L24.3106 29.0242L24.328 26.5177L21.8387 26.5Z" fill="white"/>
<path d="M29.0122 26.09L29.001 27.7383L30.6275 27.7497L30.6388 26.1014L29.0122 26.09Z" fill="white"/>
<path d="M25.8658 29.4788L25.8545 31.1271L27.481 31.1385L27.4923 29.4902L25.8658 29.4788Z" fill="white"/>
<path d="M21.4888 31.1033L21.4775 32.7516L23.1041 32.763L23.1153 31.1147L21.4888 31.1033Z" fill="white"/>
<path d="M29.9693 21.5255L29.958 23.1737L31.5845 23.1851L31.5958 21.5368L29.9693 21.5255Z" fill="white"/>
<path d="M10.9403 26.0787L9.31055 26.0901L9.3218 27.735L10.9516 27.7236L10.9403 26.0787Z" fill="white"/>
<path d="M14.12 29.455L12.4902 29.4664L12.5015 31.1114L14.1313 31.1L14.12 29.455Z" fill="white"/>
<path d="M18.4775 31.0725L16.8477 31.0839L16.8589 32.7288L18.4887 32.7174L18.4775 31.0725Z" fill="white"/>
<path d="M9.99113 21.5189L8.36133 21.5303L8.37258 23.1752L10.0024 23.1638L9.99113 21.5189Z" fill="white"/>
<path d="M33.582 16.4667L33.5881 15.5737L34.4881 15.5799L34.4819 16.4729L33.582 16.4667Z" fill="white"/>
<path d="M30.8486 11.3881L30.8547 10.4951L31.7547 10.5013L31.7486 11.3943L30.8486 11.3881Z" fill="white"/>
<path d="M32.584 13.5759L32.5901 12.6829L33.49 12.689L33.4839 13.582L32.584 13.5759Z" fill="white"/>
<path d="M10.2295 9.34802L10.2356 8.45502L11.1355 8.46119L11.1294 9.35419L10.2295 9.34802Z" fill="white"/>
<path d="M5.06738 19.3058L5.07349 18.4128L5.9734 18.419L5.9673 19.3168L5.06738 19.3058Z" fill="white"/>
<path d="M28.8652 9.34826L28.8713 8.45526L29.7713 8.46144L29.7652 9.35444L28.8652 9.34826Z" fill="white"/>
<path d="M5.58105 16.4704L5.58716 15.5774L6.48707 15.5836L6.48097 16.4766L5.58105 16.4704Z" fill="white"/>
<path d="M15.29 6.58679L15.2961 5.69379L16.1961 5.69996L16.19 6.59296L15.29 6.58679Z" fill="white"/>
<path d="M6.67383 13.7735L6.67993 12.8805L7.57985 12.8867L7.57374 13.7797L6.67383 13.7735Z" fill="white"/>
<path d="M8.28223 11.354L8.28833 10.461L9.18824 10.4672L9.18214 11.3602L8.28223 11.354Z" fill="white"/>
<path d="M13.5236 6.83239L12.6406 6.83856L12.6468 7.74866L13.5299 7.74249L13.5236 6.83239Z" fill="white"/>
<path d="M18.9777 5.07671L18.0947 5.08289L18.1009 5.99299L18.984 5.98681L18.9777 5.07671Z" fill="white"/>
<path d="M26.4717 7.75762L26.4778 6.86462L27.3777 6.8708L27.3716 7.7638L26.4717 7.75762Z" fill="white"/>
<path d="M34.0273 19.2721L34.0334 18.3792L34.9334 18.3853L34.9273 19.2783L34.0273 19.2721Z" fill="white"/>
<path d="M20.9668 5.95971L20.9729 5.06671L21.8728 5.07289L21.8667 5.96589L20.9668 5.95971Z" fill="white"/>
<path d="M23.7695 6.54724L23.7756 5.65424L24.6756 5.66041L24.6694 6.55341L23.7695 6.54724Z" fill="white"/>
<path d="M28.8633 32.1003L28.8694 31.2073L29.7693 31.2135L29.7632 32.1064L28.8633 32.1003Z" fill="white"/>
<path d="M34.0273 22.142L34.0334 21.249L34.9334 21.2552L34.9273 22.1482L34.0273 22.142Z" fill="white"/>
<path d="M10.2295 32.1L10.2356 31.207L11.1355 31.2132L11.1294 32.1062L10.2295 32.1Z" fill="white"/>
<path d="M33.582 25.0168L33.5881 24.1238L34.4881 24.13L34.4819 25.023L33.582 25.0168Z" fill="white"/>
<path d="M23.7695 34.8967L23.7756 34.0037L24.6755 34.0098L24.6694 34.9028L23.7695 34.8967Z" fill="white"/>
<path d="M32.4199 27.7092L32.426 26.8162L33.3259 26.8223L33.3198 27.7153L32.4199 27.7092Z" fill="white"/>
<path d="M30.8477 30.1298L30.8538 29.2368L31.7537 29.243L31.7476 30.136L30.8477 30.1298Z" fill="white"/>
<path d="M27.3166 32.8642L26.4336 32.8704L26.4398 33.7805L27.3228 33.7743L27.3166 32.8642Z" fill="white"/>
<path d="M21.8967 34.5503L21.0137 34.5565L21.0199 35.4666L21.9029 35.4604L21.8967 34.5503Z" fill="white"/>
<path d="M12.6572 33.7949L12.6633 32.9019L13.5632 32.908L13.5571 33.801L12.6572 33.7949Z" fill="white"/>
<path d="M6.64062 27.6738L6.64673 26.7808L7.54664 26.7869L7.54054 27.6799L6.64062 27.6738Z" fill="white"/>
<path d="M5.58008 25.0168L5.58618 24.1238L6.4861 24.13L6.47999 25.023L5.58008 25.0168Z" fill="white"/>
<path d="M8.24609 30.1287L8.2522 29.2357L9.15211 29.2419L9.14601 30.1349L8.24609 30.1287Z" fill="white"/>
<path d="M5.06738 22.1415L5.07349 21.2485L5.9734 21.2547L5.9673 22.1477L5.06738 22.1415Z" fill="white"/>
<path d="M18.1279 35.4543L18.134 34.5613L19.0339 34.5675L19.0278 35.4605L18.1279 35.4543Z" fill="white"/>
<path d="M15.2559 34.8663L15.262 33.9733L16.1619 33.9794L16.1558 34.8724L15.2559 34.8663Z" fill="white"/>
</svg>
