<svg width="40" height="40" viewBox="0 0 40 40" fill="none" xmlns="http://www.w3.org/2000/svg">
<rect width="40" height="40" rx="6" fill="#32335C"/>
<path d="M29.4078 14.3925C28.8974 14.6761 28.387 15.0164 27.8765 15.2999C25.8916 12.3509 23.1694 10.6495 19.5965 10.6495C16.0237 10.5928 13.2448 12.1808 11.2031 15.0731C10.6927 14.7328 10.239 14.4493 9.72859 14.109C10.2957 13.2016 11.033 12.4076 11.9404 11.6136C11.8269 11.5569 11.7135 11.5569 11.6568 11.5002C10.8061 10.6495 10.1256 9.68541 9.7853 8.49445C9.72859 8.2676 9.72859 8.04076 9.67188 7.81391C9.67188 7.30349 10.0121 7.07665 10.4658 7.24678C10.8061 7.41692 11.2031 7.64377 11.4867 7.87062C12.2239 8.55117 12.7911 9.34514 13.188 10.2525C13.2448 10.3092 13.2448 10.4227 13.3015 10.4794C13.8686 10.1958 14.379 9.91226 14.8894 9.68541C16.0237 9.175 17.2146 8.89144 18.4056 8.83473C18.5757 8.83473 18.6324 8.77802 18.6324 8.55117C18.4056 7.36021 18.3489 6.22596 18.7459 5.09171C18.8593 4.80815 18.9727 4.52459 19.1428 4.29774C19.4264 3.90075 19.8234 3.90075 20.1069 4.29774C20.4472 4.75144 20.5606 5.20514 20.6174 5.77226C20.7875 6.73637 20.7308 7.70048 20.5039 8.66459C20.5039 8.7213 20.5039 8.7213 20.5039 8.83473C22.4322 9.00487 24.1902 9.6287 25.7782 10.7062C25.9483 10.3092 26.1185 9.96897 26.2886 9.6287C26.7423 8.83473 27.2527 8.15418 27.99 7.64377C28.2168 7.47363 28.5004 7.36021 28.7272 7.24678C29.1809 7.07665 29.5212 7.30349 29.5212 7.81391C29.5212 8.15418 29.4645 8.49445 29.3511 8.83473C28.9541 9.96898 28.2735 10.8764 27.4228 11.6703C27.3661 11.7271 27.3094 11.7838 27.196 11.8972C28.1034 12.6345 28.8407 13.4284 29.4078 14.3925Z" fill="white"/>
<path d="M26.0043 29.4781C24.3596 30.5556 22.6016 31.1794 20.6733 31.4063C20.7301 31.8033 20.7868 32.1435 20.7868 32.4838C20.8435 33.3912 20.7868 34.2986 20.4465 35.1493C20.3898 35.3194 20.2764 35.4896 20.1629 35.6597C19.8794 36.1134 19.4824 36.1134 19.1988 35.6597C19.0287 35.3761 18.8586 35.0926 18.8018 34.7523C18.5183 33.7315 18.5183 32.654 18.6884 31.5764C18.6884 31.5197 18.6884 31.5197 18.6884 31.4063C16.7602 31.2361 14.9454 30.669 13.3007 29.6482C13.1873 29.8751 13.0739 30.1019 12.9605 30.3288C12.5068 31.1227 11.9964 31.8033 11.2591 32.3137C11.0322 32.4838 10.7487 32.654 10.4651 32.7107C10.0114 32.8808 9.67115 32.654 9.72786 32.1435C9.72786 31.8033 9.78458 31.463 9.898 31.1794C10.2383 30.2153 10.8054 29.3646 11.4859 28.6841C11.5427 28.6274 11.6561 28.5707 11.7128 28.514C11.089 27.7767 10.5218 27.1529 9.898 26.4723C10.4084 26.0753 10.9188 25.7918 11.3725 25.4515C13.4142 28.1737 16.0796 29.5915 19.4257 29.5915C22.7717 29.5915 25.4372 28.117 27.4788 25.3948C27.7057 25.5649 27.9892 25.735 28.2161 25.9052C28.4429 26.0753 28.6698 26.2455 28.9534 26.4156C28.4429 27.0394 27.8758 27.6633 27.3654 28.2304C27.649 28.5707 27.9892 28.9109 28.2728 29.2512C28.8399 29.9885 29.3503 30.7824 29.5205 31.7466C29.5772 31.9167 29.5772 32.0868 29.5205 32.257C29.4638 32.654 29.1802 32.8808 28.7832 32.7107C28.3862 32.5405 28.046 32.3137 27.7057 32.0868C26.9117 31.4063 26.4013 30.6123 25.9476 29.7049C26.061 29.6482 26.0043 29.5915 26.0043 29.4781Z" fill="white"/>
<path fill-rule="evenodd" clip-rule="evenodd" d="M4 16.7177H6.04164V19.4966H8.53699V16.7177H10.5786V24.4873H8.53699V21.5383H6.04164V24.4873H4V16.7177ZM12.9038 24.4873V16.7177H17.7244V18.4191H14.9455V19.6668H17.3841V21.3681H14.8888V22.7859H17.6677V24.4306H12.9038V24.4873ZM19.9929 24.4873V16.7177H22.0345V22.4457H24.8134V24.4873H19.9929ZM27.9893 16.7177L31.1652 19.61L34.3411 16.7177H35.2485V24.4873H33.2069V20.5174L31.1652 22.3889L29.1236 20.5174V24.4873H27.0252V16.7177H27.9893Z" fill="white"/>
</svg>
