<svg width="40" height="40" viewBox="0 0 40 40" fill="none" xmlns="http://www.w3.org/2000/svg">
<rect width="40" height="40" rx="6" fill="#32335C"/>
<path d="M13.375 14.8243L12 15.272L13.4241 15.4365L13.375 14.8243ZM13.3066 17.5053L20.3812 17.9564L27.4557 17.5053L20.3812 16.1303L13.3066 17.5053ZM27.3546 15.4365L28.7624 15.272L27.3546 14.8977V15.4365Z" fill="#CCCCD6"/>
<path d="M22.3047 27.0466L26.0111 27.9214L22.2949 29.0392L22.3047 27.0466Z" fill="#E0E0E7"/>
<path d="M13.3066 10.0222V7.52756L20.3812 4L20.4127 4.02645L20.3965 7.19334L20.3812 7.2L20.3547 7.27294L16.485 8.83079L16.4496 14.3186L18.509 13.9731L20.3812 13.5995V36L18.2617 34.9436V31.9547L16.4052 31.2143V17.1955L13.3066 17.5049V15.0107L12 15.2715V10.5431L13.3066 10.0222Z" fill="#CCCCD6"/>
<path d="M18.5082 13.9734L16.4043 14.3929V8.78534L18.5082 9.43954V13.9734ZM24.0422 5.82578L27.454 7.52756V10.0222L28.7615 10.5431V15.2711L27.454 15.0107V17.5049L25.7882 17.3391L24.3554 17.1955V19.9995H27.4549V22.5649L26.0146 22.6938V25.2805L22.4989 25.9774V28.9662L26.0066 27.928L26.0146 30.5649L22.4989 31.9547V34.9436L20.3803 36V13.5995L22.2512 13.9724L24.2537 14.2361V8.83014L20.4338 7.36097L20.3803 7.2V4L24.0422 5.82578Z" fill="white"/>
<path d="M22.4989 8.04515L20.3803 7.20074L16.4043 8.7856L18.5082 9.43979L22.4989 8.04515Z" fill="#3C4929"/>
<path d="M16.4043 8.78562L20.3803 7.20074L21.2168 7.53404L22.4989 8.04516L24.3554 8.78653L24.2562 8.88716L22.3655 9.47429L22.2515 9.43981L20.3803 8.78562L18.5082 9.43981L16.4043 8.78562Z" fill="white"/>
<path d="M22.252 9.43978L24.3558 8.7865V14.3936L22.252 13.9726V9.43978Z" fill="#CCCCD6"/>
</svg>
