<svg width="40" height="40" viewBox="0 0 40 40" fill="none" xmlns="http://www.w3.org/2000/svg">
<rect width="40" height="40" rx="6" fill="#32335C"/>
<path fill-rule="evenodd" clip-rule="evenodd" d="M20 36C28.8366 36 36 28.8366 36 20C36 11.1634 28.8366 4 20 4C11.1634 4 4 11.1634 4 20C4 28.8366 11.1634 36 20 36ZM15.9836 30.1218C17.0131 29.4257 17.754 28.3787 18.0682 27.1764C19.3464 27.2089 20.605 26.8575 21.6815 26.1676C22.758 25.4777 23.603 24.4808 24.1073 23.3059C25.5524 23.1614 26.9268 22.6097 28.0708 21.715C29.2148 20.8202 30.0813 19.6191 30.5696 18.2513C31.0578 16.8835 31.1479 15.4052 30.8291 13.9883C30.5104 12.5714 29.7961 11.274 28.7691 10.2471C27.7421 9.22011 26.4448 8.50574 25.0279 8.18702C23.6109 7.8683 22.1326 7.95832 20.7648 8.4466C19.3971 8.93489 18.196 9.80139 17.3012 10.9454C16.4064 12.0893 15.8548 13.4638 15.7103 14.9089C14.5353 15.4129 13.5383 16.2576 12.8482 17.3339C12.158 18.4101 11.8063 19.6686 11.8385 20.9467C10.7402 21.2302 9.76712 21.8705 9.07231 22.7672C8.37749 23.6638 8.0003 24.7659 8 25.9003C8.00424 27.143 8.46056 28.3417 9.28378 29.2726C10.107 30.2036 11.2409 30.8031 12.4737 30.9594C13.7066 31.1156 14.9542 30.8179 15.9836 30.1218ZM22.7495 16.2654C21.5901 15.106 20.0295 14.4363 18.3904 14.3949C18.6738 13.2965 19.3142 12.3235 20.2108 11.6287C21.1075 10.9339 22.2096 10.5567 23.3439 10.5564C24.5866 10.5606 25.7853 11.0169 26.7163 11.8401C27.6472 12.6634 28.2468 13.7972 28.403 15.0301C28.5593 16.2629 28.2616 17.5105 27.5654 18.54C26.8693 19.5694 25.8224 20.3104 24.62 20.6245C24.5785 18.9854 23.9089 17.4248 22.7495 16.2654ZM20.2582 24.041C19.6025 24.4495 18.8387 24.6505 18.0669 24.6178C17.8373 23.7347 17.3762 22.929 16.731 22.2839C16.0859 21.6387 15.2802 21.1776 14.3971 20.948C14.3643 20.1762 14.5654 19.4124 14.9739 18.7567C15.3825 18.101 15.9795 17.5839 16.6868 17.2732C17.3941 16.9625 18.1788 16.8726 18.938 17.0152C19.6973 17.1579 20.3958 17.5265 20.9421 18.0728C21.4884 18.6191 21.857 19.3176 21.9996 20.0768C22.1423 20.8361 22.0524 21.6208 21.7417 22.3281C21.4309 23.0354 20.9139 23.6324 20.2582 24.041ZM14.9229 27.7085C14.4433 28.1881 13.7929 28.4576 13.1146 28.4576C12.4364 28.4576 11.7859 28.1881 11.3063 27.7085C10.8267 27.229 10.5573 26.5785 10.5573 25.9003C10.5573 25.222 10.8267 24.5715 11.3063 24.092C11.7859 23.6124 12.4364 23.3429 13.1146 23.3429C13.7929 23.3429 14.4433 23.6124 14.9229 24.092C15.4025 24.5715 15.6719 25.222 15.6719 25.9003C15.6719 26.5785 15.4025 27.229 14.9229 27.7085Z" fill="white"/>
</svg>
