<svg width="40" height="40" viewBox="0 0 40 40" fill="none" xmlns="http://www.w3.org/2000/svg">
<rect width="40" height="40" rx="6" fill="#32335C"/>
<path fill-rule="evenodd" clip-rule="evenodd" d="M36 21.7294V18.1102L31.5657 16.6442L30.5371 14.1475L32.5486 9.93271L29.9657 7.34431L25.8286 9.42878L23.3371 8.398L21.76 4H18.1029L16.6629 8.44381L14.1257 9.47459L9.92 7.45884L7.33714 10.0472L9.41714 14.1933L8.38857 16.6901L4 18.2477V21.8898L8.43429 23.3558L9.46286 25.8525L7.45143 30.0673L10.0343 32.6557L14.1714 30.5712L16.6629 31.602L18.24 36H21.8743L23.3143 31.5562L25.8514 30.5254L30.0571 32.5412L32.64 29.9528L30.5371 25.8067L31.6114 23.3099L36 21.7294ZM23.587 20.6324L26.8676 23.9129C27.2739 24.3191 27.2739 24.9803 26.8676 25.3893L25.3912 26.8657C24.985 27.2747 24.3238 27.2747 23.9148 26.8657L20.6342 23.5852C19.987 22.938 19.8637 21.9715 20.2447 21.1927L17.2583 18.2064H15.5185L12.829 14.6205L14.622 12.8276L18.208 15.517V17.2567L21.1945 20.243C21.9733 19.8592 22.9398 19.9853 23.587 20.6324ZM24.2202 19.9993C23.6598 19.439 22.9146 19.1308 22.1218 19.1308C21.8921 19.1308 21.6567 19.1589 21.4298 19.2121L19.1297 16.9121C19.1101 15.8616 19.4855 14.8082 20.284 14.0098C21.3205 12.9733 22.783 12.6203 24.1109 12.948C24.3658 13.0125 24.4555 13.329 24.2706 13.5139L22.1862 15.5982L22.5028 17.5004L24.4051 17.817L26.4894 15.7327C26.6743 15.5478 26.9909 15.6346 27.0525 15.8868C27.3831 17.2147 27.0301 18.677 25.9908 19.7164C25.6266 20.0805 25.2063 20.3495 24.7637 20.5428L24.2202 19.9993ZM17.6225 19.8396L19.211 21.428C19.0737 22.0191 19.1381 22.6271 19.351 23.1845L15.8883 26.6471C15.1879 27.3475 14.0533 27.3475 13.3529 26.6471C12.6525 25.9468 12.6525 24.8122 13.3529 24.1118L17.6225 19.8396ZM13.9496 25.3781C13.9496 25.7479 14.2522 26.0504 14.622 26.0504C14.9946 26.0504 15.2944 25.7479 15.2944 25.3781C15.2944 25.0055 14.9946 24.7057 14.622 24.7057C14.2494 24.7057 13.9496 25.0055 13.9496 25.3781Z" fill="white"/>
</svg>
