<svg width="40" height="40" viewBox="0 0 40 40" fill="none" xmlns="http://www.w3.org/2000/svg">
<rect width="40" height="40" rx="6" fill="#32335C"/>
<path d="M15.6196 27.7468C15.6196 27.7468 14.3941 28.4577 16.4924 28.6981C19.0352 28.988 20.3338 28.9463 23.1351 28.4176C23.1351 28.4176 23.8727 28.878 24.9026 29.2763C18.6212 31.9613 10.6871 29.1215 15.6196 27.7468ZM14.8521 24.2432C14.8521 24.2432 13.4774 25.2581 15.5772 25.4749C18.2937 25.7546 20.4375 25.7774 24.15 25.0649C24.15 25.0649 24.6622 25.5841 25.4698 25.8677C17.8758 28.083 9.41919 26.0421 14.8521 24.2439V24.2432Z" fill="white"/>
<path fill-rule="evenodd" clip-rule="evenodd" d="M21.3218 18.3005C22.8693 20.0782 20.9157 21.6768 20.9157 21.6768C20.9157 21.6768 24.845 19.654 23.0406 17.1198C21.3556 14.7576 20.0633 13.584 27.0595 9.53674C27.0595 9.53674 16.0758 12.2721 21.3218 18.3005Z" fill="white" fill-opacity="0.6"/>
<path d="M29.6285 30.3384C29.6285 30.3384 30.535 31.0847 28.6293 31.6605C25.0047 32.7556 13.541 33.0863 10.3571 31.7045C9.21335 31.2072 11.3595 30.5183 12.0343 30.373C12.7389 30.2213 13.1404 30.2488 13.1404 30.2488C11.8678 29.3549 4.9124 32.0046 9.60848 32.765C22.4131 34.8357 32.9491 31.8325 29.6285 30.3376V30.3384ZM16.2095 20.6132C16.2095 20.6132 10.3791 21.9957 14.1451 22.4977C15.7359 22.7098 18.904 22.6611 21.8577 22.4137C24.271 22.2118 26.6936 21.7797 26.6936 21.7797C26.6936 21.7797 25.8429 22.1434 25.227 22.5621C19.3054 24.116 7.86768 23.3925 11.1608 21.8041C13.9448 20.4608 16.2095 20.6139 16.2095 20.6139V20.6132ZM26.6693 26.4444C32.6883 23.3257 29.9058 20.328 27.9623 20.7318C27.4871 20.8308 27.2742 20.9164 27.2742 20.9164C27.2742 20.9164 27.4517 20.6399 27.7887 20.5205C31.6317 19.1732 34.587 24.4954 26.5491 26.6023C26.5491 26.6023 26.6418 26.519 26.6693 26.4452V26.4444Z" fill="white"/>
<path fill-rule="evenodd" clip-rule="evenodd" d="M23.0411 3C23.0411 3 26.3734 6.32606 19.8792 11.4401C14.6709 15.543 18.6914 17.8817 19.8776 20.5557C16.8367 17.8196 14.6065 15.4103 16.1022 13.1691C18.2986 9.87837 24.3859 8.28289 23.0411 3Z" fill="white" fill-opacity="0.6"/>
<path fill-rule="evenodd" clip-rule="evenodd" d="M16.8016 34.8992C22.5787 35.2685 31.4516 34.695 31.6613 31.9675C31.6613 31.9675 31.2575 33.0013 26.8867 33.8215C21.9557 34.7468 15.8731 34.6392 12.2666 34.0453C12.2666 34.0453 13.005 34.6557 16.8016 34.8992Z" fill="white"/>
</svg>
