<svg width="40" height="40" viewBox="0 0 40 40" fill="none" xmlns="http://www.w3.org/2000/svg">
<rect width="40" height="40" rx="6" fill="#32335C"/>
<path fill-rule="evenodd" clip-rule="evenodd" d="M32.6187 19.3511C32.6187 26.4383 27.047 32.189 20.1707 32.189C13.2943 32.189 7.72266 26.4383 7.72266 19.3511C7.72266 12.2638 13.2943 6.5127 20.1707 6.5127C27.047 6.5127 32.6187 12.2638 32.6187 19.3511Z" fill="#8788B8"/>
<path d="M11.6476 10.5928C9.46922 12.8507 8.11411 15.9591 8.11411 19.4015C8.11411 22.8438 9.46922 25.9522 11.6476 28.2096C13.8361 30.4675 16.8377 31.8546 20.1704 31.8546C23.5031 31.8546 26.5047 30.4675 28.6932 28.2101C30.8716 25.9522 32.2267 22.8438 32.2267 19.4015C32.2267 15.9591 30.8716 12.8507 28.6932 10.5933C26.5042 8.34507 23.5027 6.94834 20.1704 6.94834C16.8474 6.94834 13.8361 8.33536 11.6476 10.5928ZM11.0953 28.7466C8.7764 26.3569 7.34082 23.0464 7.34082 19.4015C7.34082 15.757 8.7764 12.4455 11.0953 10.0461C13.4143 7.65688 16.6268 6.16858 20.1704 6.16858C23.714 6.16858 26.9265 7.65688 29.2455 10.0461C31.5639 12.4358 32.9995 15.7464 32.9995 19.4015C32.9995 23.0459 31.5639 26.3574 29.2455 28.7466C26.9265 31.146 23.714 32.6241 20.1704 32.6241C16.6268 32.6241 13.4143 31.146 11.0953 28.7466Z" fill="#5B5C85"/>
<path fill-rule="evenodd" clip-rule="evenodd" d="M25.4107 19.4218L23.5135 19.7053L20.9536 19.999L19.2974 20.0392L17.681 19.9883L16.4462 19.6045L15.3519 18.4094L14.4986 15.9693L14.3081 15.4425L13.1736 15.0581L12.5108 13.9546L12.0391 12.3748L12.5617 10.9877L13.7961 10.5525L14.79 11.0284L15.2617 12.0815L15.8338 11.9904L16.0244 11.7472L15.8338 10.6436L15.7839 9.25616L16.0646 7.34329L16.0549 6.24949L16.9179 4.85322L18.434 3.74925L21.0841 2.60504L24.0255 3.04071L26.5854 4.90364L27.7699 6.81697L28.533 8.20445L28.7235 11.6463L28.1514 14.6128L27.1071 17.2453L26.1234 18.6526" fill="white"/>
<path fill-rule="evenodd" clip-rule="evenodd" d="M23.8042 27.6935L17.0287 27.977V29.1212L17.6003 33.1403L17.3191 33.4746L12.5808 31.8448L12.2497 31.2676L11.778 25.8611L10.6633 22.6208L10.4229 21.8517L14.2176 19.2192L15.4016 18.7433L16.4459 20.0392L17.3496 20.8495L18.3935 21.1834L18.8652 21.3254L19.4373 23.8155L19.8693 24.3418L20.9635 23.957L20.2004 25.4457L24.3166 27.41L23.8042 27.6935Z" fill="#8788B8"/>
<path fill-rule="evenodd" clip-rule="evenodd" d="M12.5607 11.0082L13.7955 10.573L14.7894 11.0489L15.2612 12.102L15.8333 12.0104L15.9739 11.4337L15.6927 10.3297L15.9739 7.69763L15.7334 6.25974L16.5862 5.25751L18.4334 3.77938L17.9113 3.06067L15.3014 4.35611L14.2071 5.21681L13.5948 6.55342L12.6513 7.84933L12.3701 9.37833L12.5607 11.0082Z" fill="#8788B8"/>
<path d="M14.5087 6.51267C14.5087 6.51267 15.2214 4.74132 18.0625 3.88062C20.9031 3.01992 18.2031 3.26273 18.2031 3.26273L15.121 4.45735L13.9366 5.65244L13.4144 6.60379L14.5087 6.51267ZM13.0833 10.6742C13.0833 10.6742 12.0889 7.32296 15.8841 6.84706L15.7435 6.26987L13.1332 6.88729L12.3701 9.37829L12.5611 11.0081L13.0833 10.6742Z" fill="white"/>
<path fill-rule="evenodd" clip-rule="evenodd" d="M20.9132 7.12041C20.9132 7.12041 20.6727 5.21678 19.066 6.32029C18.0222 7.03947 18.1225 8.0417 18.3029 8.23409C18.4939 8.42649 18.444 8.81129 18.5841 8.54813C18.7247 8.28451 18.6845 7.42427 19.2066 7.18099C19.7186 6.93819 20.5821 6.67503 20.9132 7.12041Z" fill="#EFEFEF"/>
<path fill-rule="evenodd" clip-rule="evenodd" d="M24.2256 27.7444L25.9821 27.6935L26.4141 32.0872L24.6169 32.3304L24.2256 27.7439" fill="#8788B8"/>
<path fill-rule="evenodd" clip-rule="evenodd" d="M24.6982 27.7444L27.3483 27.6024C27.3483 27.6024 28.4426 24.8284 28.4426 24.6864C28.4426 24.5449 29.3861 20.6673 29.3861 20.6673L27.248 18.4196L26.8165 18.0348L25.682 19.179V23.6236L24.6982 27.7444Z" fill="#8788B8"/>
<path fill-rule="evenodd" clip-rule="evenodd" d="M18.5739 37.1599L17.5901 33.1408L17.0981 30.1739L17.0176 27.9771L21.4649 27.7343H24.2255L23.9739 32.7555L24.4059 36.6331L24.3555 37.3518L20.7518 37.6353L18.5734 37.1594" fill="white"/>
<path fill-rule="evenodd" clip-rule="evenodd" d="M23.6137 27.6935C23.6137 27.6935 23.3727 32.6649 24.0854 36.2081C24.0854 36.2081 22.66 37.1192 20.582 37.3523L24.5673 37.2107L25.0391 36.9272L24.467 29.0907L24.3162 27.41" fill="#DCD9D8"/>
<path fill-rule="evenodd" clip-rule="evenodd" d="M26.4847 31.7131L28.3314 31.1863L31.8353 30.9944L32.357 29.3641L31.4135 26.5392L30.3192 26.3976L28.8036 26.8736L27.3579 27.5923L26.5851 27.4507L25.9824 27.6936" fill="white"/>
<path fill-rule="evenodd" clip-rule="evenodd" d="M26.4541 30.751C26.4541 30.751 27.689 30.1738 27.88 30.2247L27.3574 27.5922L27.9702 27.3494C27.9702 27.3494 28.4017 29.8399 28.4017 30.1234C28.4017 30.1234 31.0518 30.2649 31.2927 30.2649C31.2927 30.2649 31.8653 29.1614 31.7247 28.0172L32.2468 29.5462L32.2968 30.4065L31.5337 31.5511L30.6808 31.7435L29.255 31.6926L28.7832 31.0752L27.127 31.318L26.6049 31.5104" fill="#DCD9D8"/>
<path fill-rule="evenodd" clip-rule="evenodd" d="M24.5873 27.3596L23.5435 24.6864L22.4492 23.107C22.4492 23.107 22.6902 22.4387 23.0213 22.4387H24.1156L25.1599 22.8235L25.0692 24.5953L24.5873 27.3596Z" fill="white"/>
<path fill-rule="evenodd" clip-rule="evenodd" d="M24.7982 26.4481C24.7982 26.4481 23.4732 23.8664 23.4732 23.4816C23.4732 23.4816 23.7141 22.9044 24.0453 23.0464C24.3769 23.1879 25.0896 23.5727 25.0896 23.5727V22.6616L23.4732 22.3277L22.3789 22.4692L24.2261 26.8837L24.6077 26.9346" fill="#DCD9D8"/>
<path fill-rule="evenodd" clip-rule="evenodd" d="M18.995 20.1405L17.6802 19.9985L16.4453 19.6142V20.0494L17.0475 20.7177L18.9451 21.5779" fill="white"/>
<path fill-rule="evenodd" clip-rule="evenodd" d="M16.878 20.282C16.878 20.282 18.3431 20.8999 18.8251 20.7584L18.8755 21.3351L17.5504 21.0516L16.7471 20.4744L16.878 20.2825" fill="#DCD9D8"/>
<path d="M20.9134 7.12036C19.6184 6.8165 18.976 7.66703 18.5843 8.54762C18.2328 8.46668 18.3739 7.98106 18.464 7.73825C18.6953 7.10001 19.6286 6.23977 20.3913 6.36095C20.7127 6.40165 21.1544 6.70504 20.9139 7.12036H20.9134ZM27.2075 8.59849H27.2676C27.559 9.20575 27.8101 9.85416 28.1815 10.4008C27.9304 10.9882 26.3144 11.4942 26.3343 10.4614C26.6858 10.3097 27.288 10.4309 27.5992 10.2288C27.4188 9.73253 27.1677 9.30703 27.2075 8.59849ZM21.566 8.61884C21.8472 9.13499 21.9374 9.67194 22.3291 10.0567C22.5095 10.2288 22.8508 10.4411 22.6806 10.9271C22.6404 11.0381 22.349 11.2916 22.1783 11.3425C21.566 11.5247 20.1304 11.3827 20.6123 10.6029C21.1243 10.6233 21.8069 10.9373 22.1885 10.5627C21.8971 10.097 21.375 9.16551 21.566 8.61884ZM26.9772 13.8228C26.0531 14.4204 25.019 15.0785 23.4932 14.9263C23.1722 14.6428 23.0418 14.005 23.3628 13.5897C23.5233 13.8732 23.4229 14.4 23.8849 14.481C24.7484 14.6326 25.752 13.9445 26.3745 13.7114C26.7556 13.0532 26.3445 12.8206 25.993 12.3951C25.2803 11.5349 24.3368 10.4614 24.3668 9.17568C24.6582 8.96294 24.6781 9.49943 24.7183 9.59054C25.0893 10.4614 26.023 11.5853 26.6955 12.3345C26.8666 12.5167 27.1372 12.699 27.1672 12.8201C27.2579 13.1647 26.9365 13.5897 26.9767 13.8228H26.9772ZM14.7498 13.1952C14.4584 13.0232 14.3885 12.2938 14.0468 12.2735C13.5551 12.2434 13.6453 13.2253 13.6453 13.8025C13.3142 13.4991 13.2541 12.5473 13.495 12.0612C13.2138 11.9192 13.0931 12.2129 12.9326 12.3142C13.1435 10.8462 15.0712 11.6357 14.7498 13.1952ZM27.559 14.4403C27.1275 15.2704 26.5151 16.182 25.2502 16.2121C25.2201 15.9489 25.1998 15.534 25.2502 15.3717C26.2238 15.2704 26.8264 14.7746 27.559 14.4403ZM21.4957 14.9772C22.2986 15.4027 23.7846 15.4536 24.8885 15.4231C24.9487 15.6659 24.9487 15.9697 24.9487 16.2634C23.5334 16.324 21.8671 15.9697 21.4957 14.9777V14.9772ZM21.3454 15.7671C21.9073 17.1847 23.8243 17.0228 25.4408 16.9821C25.3705 17.1643 25.2201 17.3873 25.0194 17.458C24.4968 17.6708 23.0719 17.8326 22.349 17.4478C21.8971 17.205 21.596 16.6477 21.3454 16.324C21.2344 16.1723 20.6322 15.7773 21.3454 15.7671Z" fill="#5B5C85"/>
<path fill-rule="evenodd" clip-rule="evenodd" d="M26.9067 23.5726C26.2537 24.7067 25.6215 25.8712 24.8486 26.8633C25.1696 25.9013 25.3102 24.2816 25.3606 23.0463C26.0433 22.7226 26.6255 23.1171 26.9063 23.5726" fill="#8788B8"/>
<path d="M30.4294 27.643C29.6963 27.7947 29.1843 28.5134 28.4619 28.463C28.8634 27.9062 29.546 27.6629 30.4294 27.643ZM30.7503 28.7969C30.1482 28.858 29.4456 28.9588 28.843 28.9084C29.1344 28.463 30.2384 28.6249 30.7503 28.7974V28.7969ZM30.9612 29.7996C30.2888 29.8093 29.4554 29.7996 28.8129 29.7487C29.1945 29.3334 30.5297 29.597 30.9612 29.7996Z" fill="#231F20"/>
<path fill-rule="evenodd" clip-rule="evenodd" d="M25.6413 32.5335C25.7417 33.3836 26.0733 34.2443 26.0331 35.1757C25.6617 35.2969 25.4508 35.4084 24.949 35.4084C24.9189 34.6189 24.8084 33.4039 24.838 32.6445C25.0794 32.6649 25.4406 32.4725 25.6413 32.5335Z" fill="#DCD9D8"/>
<path fill-rule="evenodd" clip-rule="evenodd" d="M20.5225 25.2738C20.7329 24.3525 21.5663 23.8664 22.3192 23.3604C23.0921 24.3525 23.5638 25.628 24.086 26.8633C22.8511 26.4887 21.5964 25.8912 20.5225 25.2738Z" fill="#8788B8"/>
<path d="M24.8383 32.6547C24.8082 33.4141 24.9085 34.6189 24.9488 35.4185C25.4506 35.4185 25.661 35.3075 26.0329 35.1859C26.0731 34.2544 25.7415 33.3937 25.6411 32.5432C25.4404 32.4725 25.0792 32.6649 24.8383 32.6542V32.6547ZM17.0878 28.3618C17.4194 31.4096 17.8911 33.9608 18.7643 36.6636C20.7022 37.2611 23.0308 37.312 24.7476 36.775C24.4363 35.2567 24.5668 33.4035 24.3859 31.7736C24.2453 30.5485 24.3156 29.3238 24.1251 28.0783C22.0471 27.6431 19.1158 27.977 17.0878 28.3618ZM24.6172 28.0982C24.5968 29.4047 24.6773 30.7006 24.7777 32.0063C25.2795 31.936 25.6106 31.8851 26.0726 31.7736C25.9219 30.5184 25.9422 29.0912 25.631 27.977C25.2795 27.9872 24.9682 27.977 24.6167 28.0986L24.6172 28.0982ZM27.1364 27.8859C26.8959 27.835 26.6244 27.8859 26.4038 27.8859C26.5143 28.9492 26.765 30.1234 26.8556 31.2473C27.2071 31.2575 27.3977 31.0854 27.6886 31.0346C27.709 30.0527 27.6086 28.6957 27.1364 27.8859ZM30.9612 31.4092C31.704 31.227 32.166 30.3158 31.9551 29.3742C31.8145 28.7466 31.5735 27.552 31.303 27.1468C31.112 26.8532 30.5796 26.4582 30.1481 26.7315C29.4553 27.1774 28.2408 27.3087 27.7385 27.8452C27.9897 28.6962 28.0702 29.8501 28.1705 30.9231C29.034 30.974 30.088 30.6803 30.8109 30.9943C30.3086 31.1562 29.6662 31.1562 29.2347 31.399C29.5959 31.5711 30.4192 31.541 30.9612 31.4092ZM24.0747 26.8629C23.553 25.628 23.0812 24.3524 22.3079 23.3604C21.555 23.8664 20.7318 24.3524 20.5112 25.2737C21.5952 25.8912 22.85 26.4887 24.0747 26.8633V26.8629ZM25.3595 23.0464C25.3095 24.2812 25.1689 25.9013 24.848 26.8633C25.6203 25.8611 26.253 24.7067 26.9061 23.5727C26.6244 23.1171 26.0426 22.7222 25.3599 23.0464H25.3595ZM23.904 22.5302C23.6126 22.4997 23.362 22.8743 22.9804 22.712C22.8902 22.8137 22.8098 22.9146 22.7196 23.0158C23.5627 24.0486 23.9544 25.5068 24.6065 26.7112C24.958 25.5471 24.9183 24.2817 24.9983 23.0158C24.5164 23.0362 24.2453 22.5603 23.904 22.5302ZM22.9707 21.2847C22.9402 21.639 23.0206 21.7505 23.0909 22.1556C24.2352 22.52 24.0446 20.5655 22.9707 21.2847ZM21.6956 20.8592C21.2035 20.5864 20.4607 20.2922 19.8183 20.171C19.0256 20.0189 19.1056 21.2644 19.1357 22.0034C19.1658 22.5908 19.4673 23.2082 19.5977 23.6032C19.6579 23.7854 19.6777 23.9778 19.8285 24.0181C20.0995 24.0791 21.0033 23.7248 21.2539 23.5833C21.796 23.2892 22.2178 22.8137 22.6793 22.4895C22.6895 22.3378 22.6895 22.1755 22.6997 22.0238C22.4185 21.8818 22.1077 21.7907 21.6956 21.7708C21.9666 21.6288 22.3782 21.6288 22.6294 21.467C22.6294 21.4064 22.6294 21.3453 22.6391 21.2847C22.1775 21.2339 22.0069 21.0317 21.6956 20.8592ZM16.9777 19.999C16.5661 20.424 18.1321 20.991 18.6242 21.0211C18.6242 20.7584 18.7745 20.505 18.7444 20.3126C18.1524 20.2113 17.3792 20.2825 16.9777 19.999ZM22.0374 20.1914C22.0374 20.2316 21.9865 20.2215 21.9768 20.252C22.5087 20.6673 22.9004 20.7579 23.6131 20.7177C23.9341 20.4846 24.2254 20.2016 24.5668 19.9786C23.7838 20.0494 22.8 20.5355 22.0369 20.1914H22.0374ZM26.6753 21.6085C26.6554 21.1427 26.5347 20.1812 26.2438 20.0092C25.6411 19.6544 24.5774 20.7279 24.1255 20.8898C24.1755 21.0317 24.256 21.1427 24.2661 21.325C24.5372 21.2542 24.8581 21.3051 25.0894 21.4161C24.8179 21.4466 24.527 21.4466 24.3462 21.5779C24.286 21.7708 24.3665 22.0238 24.3161 22.287C24.9488 22.4692 25.6814 22.5603 26.4847 22.5908C26.635 22.3882 26.6952 22.0034 26.6753 21.6085ZM16.2854 20.4037C16.1549 20.3126 15.2817 19.1688 15.161 19.2192C13.5849 19.8468 12.109 20.9305 10.7942 21.9627C12.0489 24.6868 12.5609 28.0177 12.6515 31.227C14.0871 31.9054 15.3516 32.8873 17.3089 32.9891C17.0785 31.3791 16.8778 29.931 16.7469 28.4122C16.2553 28.1995 15.5523 28.4224 15.0907 28.3516C15.0907 27.7948 15.7937 28.1088 15.8538 27.7342C15.8936 27.4507 15.4621 27.4303 15.6027 26.985C15.9639 27.1163 16.1549 27.41 16.5365 27.5215C16.888 26.7519 16.5365 25.3847 16.5864 24.7372C16.5966 24.6156 16.6466 24.0689 16.9176 24.1601C17.1585 24.241 16.9079 25.628 16.9278 26.2357C16.9476 26.8027 16.8575 27.3392 17.0882 27.6935C18.9757 27.4299 20.8932 27.268 22.9406 27.2079C22.4892 27.015 21.9569 26.8333 21.3746 26.4989C21.0537 26.3167 20.0598 25.942 19.9696 25.6386C19.8188 25.1521 20.3511 24.8991 20.4413 24.4838C19.4877 25.0106 19.3068 23.9778 19.076 23.2591C18.8753 22.601 18.7546 22.1047 18.7047 21.7301C17.8712 21.3046 16.9879 20.9101 16.2854 20.4037ZM25.8419 19.3506C27.1572 18.7133 27.3982 21.7505 26.876 22.7323C26.9565 23.026 27.2275 23.1375 27.338 23.4006C26.605 24.7271 25.7919 25.9624 25.039 27.2685C25.5912 26.9137 26.3941 27.2074 27.0467 26.9447C27.2876 26.8532 27.4583 26.2963 27.6387 25.8509C28.1409 24.636 28.6631 23.0968 28.8939 21.9429C28.9438 21.6792 29.0946 21.1025 29.0543 20.8699C28.9942 20.4444 28.4318 20.1303 28.1409 19.8774C27.609 19.3917 27.2774 18.9764 26.7155 18.5204C26.5046 18.8548 26.0227 19.0772 25.8419 19.351V19.3506ZM13.2838 7.5963C12.6613 8.29467 12.7917 9.59057 12.862 10.522C13.9965 9.80332 15.4922 10.5831 15.482 11.7981C16.024 11.7879 15.6832 11.1196 15.5828 10.6844C15.2614 9.277 16.1249 7.75817 15.6226 6.47244C14.6491 6.55338 13.8559 6.94835 13.2838 7.5963ZM17.7607 3.55642C16.3455 3.96156 14.5283 5.00402 13.9465 6.28976C14.3979 6.21946 14.7096 5.99653 15.1509 5.96601C15.322 5.95584 15.5426 6.03723 15.7336 5.98636C16.1147 5.88507 16.4458 5.0142 16.7372 4.69045C17.0179 4.37642 17.3593 4.2349 17.5905 3.95139C17.7408 3.88063 17.9614 3.88063 17.9716 3.6577C17.9115 3.58694 17.8412 3.53607 17.7607 3.55642ZM25.1393 3.94121C23.664 3.1004 21.1739 2.47326 19.6079 3.26227C18.343 3.90051 16.6368 4.95315 16.0546 6.27958C16.5966 7.56531 15.8936 8.74005 15.8437 10.0457C15.8233 10.744 16.1646 11.342 16.1952 12.1015C16.0042 12.415 15.4422 12.4455 15.0505 12.4252C14.9201 11.7569 14.6893 11.0077 14.0066 10.9267C13.0428 10.8157 12.3301 11.6251 12.2899 12.4659C12.2399 13.4579 13.0428 15.0979 14.187 14.9865C14.6287 14.9463 14.7392 14.5009 15.2212 14.5009C15.482 15.0272 14.8197 15.1891 14.7494 15.5637C14.7291 15.6654 14.7994 16.04 14.8498 16.2218C15.0607 17.082 15.5222 18.2059 15.9736 18.8645C16.5564 19.7048 17.6909 19.8265 18.9151 19.9074C19.1362 19.4311 19.9395 19.4718 20.4612 19.5934C19.829 19.3404 19.2467 18.7332 18.7648 18.1962C18.2126 17.5788 17.6502 16.9206 17.6206 16.1103C18.6746 17.5788 19.5376 18.8645 21.4454 19.5125C22.8907 19.9981 24.5774 19.2895 25.6911 18.4996C26.1536 18.1758 26.4241 17.6495 26.7557 17.1838C27.9804 15.4018 28.5525 12.8706 28.4318 10.4106C28.3819 9.39771 28.3819 8.38531 28.0406 7.7073C27.6891 6.9983 26.4944 6.35034 25.7919 6.9983C25.6615 6.29993 26.3742 5.87444 27.2071 6.12788C26.6152 5.34812 25.9926 4.42683 25.1393 3.94029V3.94121ZM27.8898 26.8328C29.0442 26.2561 31.1925 25.2834 31.9056 26.8328C32.1766 27.41 32.4874 28.372 32.6179 28.9695C32.8089 29.7997 32.4074 31.5613 31.5541 31.8342C30.8012 32.0775 29.928 32.0673 29.0243 31.8851C28.9137 31.794 28.8037 31.6423 28.713 31.4799C28.0706 31.4601 27.4583 31.5105 26.9565 31.7838C27.0064 32.2694 26.6854 32.3406 26.3737 32.4419C26.1531 33.3429 26.826 34.5176 26.6651 35.3279C26.5546 35.9148 25.8419 36.0059 25.3202 36.1072C25.2998 36.4309 25.3401 36.7043 25.3803 36.9776C25.26 37.4234 24.7282 37.676 24.2157 37.737C22.5397 37.9396 19.9996 38.0307 18.3934 37.4433C17.9415 36.3297 17.5905 34.9829 17.2187 33.7175C15.6527 33.8895 14.378 33.0395 13.1834 32.4725C12.7718 32.2801 12.1997 32.1686 12.0387 31.8342C11.8884 31.5105 11.9485 30.893 11.9083 30.3158C11.8181 28.8275 11.7279 27.3896 11.3464 25.8713C11.1753 25.1826 10.8645 24.5855 10.6536 23.9274C10.4528 23.3197 10.1115 22.5603 10.0213 21.9526C9.89091 21.0516 10.7336 21.0012 11.2659 20.6063C12.0993 19.999 12.7519 19.6646 13.6552 19.1179C13.9262 18.9561 14.7291 18.5509 14.8197 18.3585C15.0001 17.9839 14.5085 17.4576 14.378 17.1639C14.1671 16.6982 14.0566 16.3037 14.0265 15.8477C13.2736 15.726 12.6913 15.2705 12.3505 14.7645C11.7779 13.914 11.3764 12.3447 11.8787 11.1603C11.9185 11.0692 12.109 10.8763 12.1396 10.7348C12.1997 10.4513 12.0286 10.0767 12.0193 9.7728C11.9684 8.22344 12.2802 6.8873 13.3143 6.42157C13.7352 4.73115 15.241 4.17385 16.6567 3.33396C17.1886 3.01946 17.7713 2.81735 18.3735 2.59443C20.5315 1.79478 23.8541 1.94694 25.6513 3.31361C26.4144 3.89034 27.6289 5.11548 28.0609 6.00671C29.2148 8.34554 29.1246 12.2638 28.3218 15.1188C28.2108 15.5036 28.0604 16.0604 27.8398 16.5261C27.6891 16.8499 27.2173 17.4881 27.2677 17.7712C27.3279 18.0648 28.3518 18.8446 28.5724 19.0569C28.9642 19.4422 29.7171 19.9481 29.7772 20.4342C29.8475 20.9503 29.5566 21.6593 29.4058 22.1556C28.9239 23.816 28.442 25.3445 27.8898 26.8328Z" fill="#5B5C85"/>
<path d="M24.3669 23.5528C24.3669 23.6943 24.2466 23.816 24.1056 23.816C24.0364 23.8144 23.9705 23.7861 23.9219 23.7369C23.8732 23.6877 23.8455 23.6215 23.8447 23.5523C23.8447 23.4108 23.965 23.2892 24.1056 23.2892C24.2563 23.2892 24.3669 23.4108 24.3669 23.5528ZM24.6277 24.7775C24.6277 24.9195 24.5075 25.0411 24.3669 25.0411C24.2976 25.0397 24.2316 25.0114 24.1829 24.9622C24.1341 24.913 24.1064 24.8468 24.1056 24.7775C24.1056 24.636 24.2258 24.5143 24.3669 24.5143C24.4016 24.5134 24.4362 24.5196 24.4684 24.5326C24.5007 24.5456 24.5299 24.565 24.5543 24.5897C24.5788 24.6144 24.5979 24.6439 24.6105 24.6762C24.6231 24.7086 24.629 24.7432 24.6277 24.778" fill="#1D1919"/>
</svg>
