<svg width="40" height="40" viewBox="0 0 40 40" fill="none" xmlns="http://www.w3.org/2000/svg">
<rect width="40" height="40" rx="6" fill="#32335C"/>
<path d="M25.4142 21.724C24.178 21.724 23.0697 22.2761 22.3107 23.1453L20.3659 21.7575C20.5723 21.1845 20.6909 20.5693 20.6909 19.9254C20.6909 19.2926 20.5765 18.6877 20.3768 18.1232L22.3173 16.7502C23.0761 17.615 24.1816 18.1641 25.4142 18.1641C27.696 18.1641 29.5527 16.2928 29.5527 13.9925C29.5527 11.6922 27.696 9.82095 25.4142 9.82095C23.1324 9.82095 21.2758 11.6922 21.2758 13.9925C21.2758 14.4042 21.3375 14.8013 21.4482 15.1773L19.5065 16.5511C18.6954 15.5367 17.5275 14.8285 16.1968 14.6123V12.2534C18.0714 11.8565 19.4839 10.1776 19.4839 8.17155C19.4839 5.87121 17.6272 4 15.3454 4C13.0637 4 11.207 5.87121 11.207 8.17155C11.207 10.1508 12.5829 11.809 14.42 12.2342V14.6237C11.9128 15.0673 10 17.2729 10 19.9254C10 22.5908 11.9317 24.8045 14.457 25.233V27.7562C12.6011 28.1674 11.207 29.8358 11.207 31.8285C11.207 34.1288 13.0637 36 15.3454 36C17.6272 36 19.4839 34.1288 19.4839 31.8285C19.4839 29.8358 18.0898 28.1674 16.2339 27.7562V25.2329C17.512 25.0159 18.6684 24.338 19.4875 23.3254L21.4453 24.7222C21.3366 25.0949 21.2758 25.488 21.2758 25.8956C21.2758 28.1959 23.1324 30.0671 25.4142 30.0671C27.696 30.0671 29.5527 28.1959 29.5527 25.8956C29.5527 23.5952 27.696 21.724 25.4142 21.724ZM25.4142 11.9699C26.5207 11.9699 27.4207 12.8775 27.4207 13.9925C27.4207 15.1075 26.5207 16.015 25.4142 16.015C24.3077 16.015 23.4078 15.1075 23.4078 13.9925C23.4078 12.8775 24.3077 11.9699 25.4142 11.9699ZM13.3389 8.17155C13.3389 7.05652 14.239 6.14906 15.3454 6.14906C16.4519 6.14906 17.3519 7.05652 17.3519 8.17155C17.3519 9.28658 16.4519 10.194 15.3454 10.194C14.239 10.194 13.3389 9.28658 13.3389 8.17155ZM17.3519 31.8285C17.3519 32.9435 16.4519 33.8509 15.3454 33.8509C14.239 33.8509 13.3389 32.9435 13.3389 31.8285C13.3389 30.7134 14.239 29.806 15.3454 29.806C16.4519 29.806 17.3519 30.7134 17.3519 31.8285ZM15.3453 22.7461C13.8021 22.7461 12.5467 21.4809 12.5467 19.9254C12.5467 18.3698 13.8021 17.1044 15.3453 17.1044C16.8884 17.1044 18.1438 18.3698 18.1438 19.9254C18.1438 21.4809 16.8884 22.7461 15.3453 22.7461ZM25.4142 27.9181C24.3077 27.9181 23.4078 27.0106 23.4078 25.8956C23.4078 24.7805 24.3077 23.8731 25.4142 23.8731C26.5207 23.8731 27.4207 24.7805 27.4207 25.8956C27.4207 27.0106 26.5207 27.9181 25.4142 27.9181Z" fill="white"/>
</svg>
