<svg width="40" height="40" viewBox="0 0 40 40" fill="none" xmlns="http://www.w3.org/2000/svg">
<rect width="40" height="40" rx="6" fill="#32335C"/>
<path fill-rule="evenodd" clip-rule="evenodd" d="M13.3707 34.7569C13.6937 34.9174 14.0485 35.0006 14.4079 35H14.4085L25.7115 34.9791C26.4328 34.9791 27.1143 34.6295 27.5753 34.0533L34.5895 25.1003C35.0505 24.5032 35.2108 23.7414 35.0505 23.0005L32.5455 11.8248C32.3853 11.0839 31.9044 10.4874 31.2427 10.1581L21.1022 5.19718C20.781 5.03253 20.4207 4.95021 20.0597 4.95021C19.6983 4.94894 19.3416 5.0335 19.0178 5.19718L8.87668 10.1783C8.21564 10.5076 7.73415 11.1048 7.57386 11.8457L5.06886 23.0214C4.88869 23.7623 5.06886 24.5241 5.52985 25.1212L12.5441 34.0735C12.7649 34.3626 13.0476 34.5963 13.3707 34.7569ZM30.18 22.2393H30.2005C30.5608 22.3425 30.7814 22.6718 30.7814 22.9188C30.7012 23.186 30.4409 23.3918 30.1402 23.3918C30.08 23.3918 30.0402 23.3918 29.9799 23.3709C29.9594 23.3507 29.9396 23.3507 29.9197 23.3507C29.8999 23.3507 29.8799 23.3457 29.8599 23.3406C29.8397 23.3355 29.8194 23.3304 29.7991 23.3304C29.6594 23.2886 29.5587 23.2475 29.4388 23.186C29.4089 23.1757 29.379 23.1603 29.3492 23.145C29.3189 23.1294 29.2887 23.1139 29.2586 23.1037H29.2381C28.8573 22.96 28.5168 22.8358 28.1962 22.7953H28.1565C28.0659 22.7953 28.0093 22.8301 27.9527 22.8648C27.9341 22.8762 27.9154 22.8877 27.8955 22.8979C27.8857 22.8979 27.8807 22.9029 27.8757 22.9079C27.8706 22.913 27.8655 22.9182 27.8552 22.9182L27.6147 22.877C27.4147 23.5153 27.1339 24.1537 26.7735 24.7299C26.092 25.8413 25.1899 26.7468 24.1275 27.3845L24.2281 27.6315C24.2281 27.642 24.2229 27.6472 24.2178 27.6524C24.2127 27.6575 24.2076 27.6626 24.2076 27.6726C24.2035 27.6942 24.1985 27.7149 24.1935 27.7354C24.1746 27.813 24.1563 27.8882 24.1878 28.0019C24.2817 28.2923 24.4646 28.5821 24.6693 28.9066C24.6825 28.9274 24.6957 28.9484 24.709 28.9695V28.9898C24.7291 29.0207 24.7491 29.0464 24.7689 29.072C24.789 29.0979 24.809 29.1236 24.8289 29.1545C24.9137 29.2559 24.9877 29.3663 25.0495 29.4837C25.07 29.5046 25.0899 29.5458 25.1097 29.587C25.1097 29.597 25.1146 29.6021 25.1196 29.6072C25.1246 29.6124 25.1296 29.6176 25.1296 29.6281C25.2098 29.7928 25.2098 29.9777 25.17 30.1423C25.1302 30.307 25.0097 30.4311 24.8693 30.5134C24.7892 30.5539 24.709 30.5748 24.6289 30.5748C24.3878 30.5748 24.148 30.4305 24.0275 30.1835C24.0275 30.1835 24.0076 30.1632 24.0076 30.1423C23.9978 30.1224 23.9879 30.1072 23.9779 30.092C23.9677 30.0763 23.9574 30.0606 23.9473 30.0397C23.9069 29.957 23.8847 29.8742 23.8624 29.7915C23.8515 29.7508 23.8405 29.71 23.8274 29.6693L23.7671 29.4837V29.4635C23.7544 29.4282 23.7419 29.3933 23.7295 29.3587C23.6042 29.0096 23.4918 28.6966 23.3465 28.4344C23.2658 28.311 23.1856 28.2698 23.0856 28.2489C23.0657 28.2286 23.0657 28.2286 23.0452 28.2286L22.9253 28.0019C22.5842 28.1267 22.2363 28.2299 21.8834 28.311C21.3218 28.4547 20.721 28.5168 20.1395 28.5168C19.1778 28.5168 18.216 28.3312 17.3338 27.9817L17.1934 28.2489C17.1735 28.2698 17.1735 28.2698 17.1536 28.2698C17.1369 28.2783 17.1194 28.2859 17.1015 28.2937C17.0326 28.3237 16.9568 28.3567 16.8927 28.4547C16.7338 28.7088 16.6373 28.9949 16.5204 29.3412C16.5047 29.3876 16.4887 29.4351 16.4721 29.4837L16.4118 29.6693C16.399 29.7092 16.3881 29.7469 16.3773 29.7846C16.3547 29.8635 16.3321 29.942 16.2913 30.0397C16.2671 30.0711 16.247 30.1056 16.2317 30.1423C16.2317 30.1423 16.2118 30.1632 16.2118 30.1835C16.0912 30.4102 15.8508 30.5748 15.6104 30.5748C15.5266 30.574 15.4442 30.5529 15.3699 30.5134C15.0692 30.369 14.9487 29.9783 15.109 29.6281C15.109 29.6281 15.1295 29.6072 15.1295 29.587C15.1448 29.55 15.1648 29.5153 15.1892 29.4837C15.2094 29.4525 15.2284 29.4226 15.2468 29.3937C15.3011 29.3083 15.3498 29.2316 15.4097 29.1545C15.4297 29.1236 15.4498 29.0979 15.47 29.0721C15.49 29.0464 15.5101 29.0207 15.5302 28.9898V28.9695C15.7508 28.6194 15.931 28.311 16.0509 28.0019C16.0912 27.8582 16.0509 27.755 16.0111 27.6726C16.0111 27.6626 16.0062 27.6575 16.0013 27.6524C15.9963 27.6472 15.9912 27.642 15.9912 27.6315L16.1111 27.3642C15.8104 27.1787 15.5302 26.9938 15.2494 26.7671C14.0197 25.7688 13.1064 24.4229 12.6239 22.8979L12.3437 22.9391C12.3333 22.9391 12.3282 22.9338 12.3231 22.9287C12.3182 22.9237 12.3134 22.9188 12.3039 22.9188C12.2999 22.9161 12.2958 22.9132 12.2916 22.9103C12.2323 22.8692 12.155 22.8156 12.043 22.8156H12.0026C11.682 22.8567 11.3416 22.9802 10.9607 23.1246H10.9402C10.9102 23.1348 10.88 23.1503 10.8497 23.1659C10.8199 23.1812 10.79 23.1966 10.7601 23.2069C10.6401 23.2684 10.5395 23.3095 10.3991 23.3507C10.3793 23.3507 10.3595 23.3557 10.3396 23.3608C10.3196 23.3658 10.2995 23.3709 10.2792 23.3709C10.2792 23.3918 10.2593 23.3918 10.2394 23.3918C10.1792 23.4127 10.1388 23.4127 10.0785 23.4127C9.75793 23.4127 9.49761 23.2272 9.43735 22.9391C9.37709 22.6098 9.59826 22.2596 9.9586 22.1773C9.97848 22.157 9.99899 22.157 10.0189 22.157C10.0387 22.157 10.0588 22.1518 10.0788 22.1466C10.0989 22.1413 10.1189 22.1361 10.1388 22.1361C10.1594 22.1331 10.1796 22.1301 10.1994 22.1272C10.3145 22.1102 10.4173 22.0949 10.5196 22.0949C10.5799 22.0747 10.66 22.0747 10.7203 22.0747H10.7203H10.7402C11.1608 22.0335 11.5217 21.9924 11.8224 21.8891C11.9193 21.8418 11.9971 21.762 12.043 21.6631C12.043 21.6526 12.048 21.6474 12.0529 21.6422C12.0579 21.6369 12.0629 21.6317 12.0629 21.6213L12.3232 21.5389C12.0629 19.6455 12.4437 17.7318 13.4458 16.1056C13.4596 16.0632 13.4831 16.0304 13.5095 15.9937C13.5213 15.9773 13.5336 15.9601 13.5459 15.941L13.3458 15.7561V15.7149C13.3458 15.6117 13.3458 15.5091 13.2452 15.4059C13.014 15.1885 12.7271 15.0086 12.385 14.7941C12.3713 14.7855 12.3575 14.7769 12.3437 14.7682C12.2834 14.727 12.2232 14.6859 12.1635 14.665C12.043 14.6036 11.9423 14.5415 11.8218 14.4592C11.8018 14.449 11.7868 14.4335 11.7718 14.4179C11.757 14.4026 11.7421 14.3872 11.7224 14.3769C11.7121 14.3769 11.707 14.3717 11.7019 14.3666C11.6969 14.3616 11.6919 14.3566 11.682 14.3566C11.4018 14.1096 11.3416 13.698 11.5416 13.4301C11.6423 13.2864 11.8224 13.2041 12.0026 13.2041C12.1641 13.2053 12.3195 13.263 12.4437 13.3687C12.4437 13.3812 12.4513 13.386 12.4619 13.3927C12.4685 13.3969 12.4762 13.4019 12.4841 13.4099C12.5071 13.4337 12.5302 13.4506 12.5494 13.4646C12.5633 13.4747 12.5751 13.4834 12.5835 13.4922C12.6759 13.583 12.763 13.6792 12.8444 13.7803C12.8861 13.8088 12.9183 13.847 12.9474 13.8814C12.9603 13.8968 12.9726 13.9114 12.9849 13.9241C13.265 14.2331 13.526 14.5003 13.7869 14.6859C13.8395 14.7244 13.9023 14.7458 13.9671 14.7473C13.987 14.7473 14.007 14.7422 14.027 14.7372C14.0471 14.7321 14.0671 14.727 14.087 14.727H14.1274L14.3274 14.8708C15.3915 13.7117 16.7749 12.9081 18.2955 12.5658C18.6559 12.4836 19.0162 12.4424 19.376 12.4013L19.3778 12.4011L19.3983 12.1339L19.4381 12.0927C19.4456 12.085 19.4534 12.0773 19.4614 12.0694C19.5174 12.0141 19.581 11.9512 19.5984 11.8248C19.6306 11.5623 19.5988 11.2735 19.5641 10.9585C19.5553 10.8785 19.5463 10.7969 19.5381 10.7135V10.6932C19.529 10.6552 19.5241 10.6218 19.5195 10.5907C19.5141 10.5539 19.5091 10.5204 19.4983 10.4868C19.458 10.3633 19.4381 10.2398 19.4381 10.0961V9.93142C19.4381 9.74588 19.4983 9.58123 19.6182 9.45774C19.7388 9.33426 19.8991 9.25194 20.0594 9.25194C20.3998 9.25194 20.6806 9.56097 20.6806 9.93142V10.1163C20.6634 10.2413 20.6458 10.3506 20.6284 10.4577C20.6257 10.4744 20.623 10.491 20.6204 10.5077C20.6005 10.5697 20.5806 10.6514 20.5806 10.7135V10.7337C20.5783 10.7573 20.576 10.7808 20.5737 10.8041C20.5359 11.1877 20.5016 11.5353 20.5203 11.8457C20.5379 11.9725 20.6023 12.0357 20.6586 12.091C20.6661 12.0984 20.6735 12.1057 20.6806 12.113L20.721 12.1541L20.7409 12.422C22.2694 12.5682 23.7239 13.1613 24.9296 14.1299C25.2104 14.3769 25.49 14.6238 25.7509 14.912L25.9919 14.7473H26.0317C26.0715 14.7682 26.1119 14.7682 26.1522 14.7682C26.2171 14.7665 26.2799 14.7449 26.3324 14.7061C26.5933 14.5212 26.853 14.2743 27.1339 13.9652C27.1756 13.9368 27.2077 13.8986 27.2368 13.8641C27.2497 13.8488 27.262 13.8342 27.2743 13.8215C27.3544 13.7183 27.4346 13.6359 27.5346 13.5334C27.5546 13.523 27.5696 13.5076 27.5846 13.4923C27.5997 13.4768 27.6149 13.4612 27.6352 13.451L27.675 13.4099C27.8154 13.3067 27.9558 13.2452 28.1161 13.2452C28.2963 13.2452 28.4764 13.3276 28.5771 13.4713C28.7771 13.7392 28.7169 14.1508 28.4367 14.3978C28.4367 14.4102 28.4291 14.415 28.4185 14.4218C28.4119 14.4259 28.4042 14.4309 28.3963 14.4389C28.3736 14.4624 28.3507 14.4791 28.3316 14.493C28.3173 14.5034 28.3051 14.5123 28.2969 14.5212C28.1764 14.6036 28.0757 14.665 27.9552 14.727C27.9251 14.7478 27.8949 14.7632 27.8647 14.7787C27.8348 14.7939 27.8049 14.8092 27.775 14.8296C27.7564 14.8413 27.738 14.8529 27.7198 14.8644C27.3838 15.0755 27.1016 15.2529 26.8729 15.4679C26.7934 15.5705 26.7735 15.6738 26.7735 15.7763V15.8175L26.5728 16.003C27.0968 16.829 27.4765 17.7413 27.6949 18.6994C27.9107 19.6504 27.9583 20.633 27.8353 21.601L28.0956 21.6833C28.0956 21.6939 28.1008 21.6991 28.106 21.7043C28.1111 21.7094 28.1161 21.7144 28.1161 21.7245L28.1168 21.7259C28.1569 21.8077 28.197 21.8895 28.3367 21.9512C28.6572 22.0538 28.9977 22.0949 29.4189 22.1361H29.4388C29.5189 22.157 29.5792 22.157 29.6388 22.157H29.6389C29.7472 22.157 29.8555 22.1734 29.9779 22.1919C29.9916 22.1939 30.0056 22.1961 30.0197 22.1982C30.0399 22.1982 30.0599 22.2032 30.08 22.2083C30.1 22.2134 30.12 22.2184 30.1402 22.2184C30.1402 22.2393 30.1601 22.2393 30.18 22.2393ZM20.0389 21.6631L20.9211 21.2306L21.1217 20.2636L20.5197 19.4815H19.5381L18.9373 20.2636L19.1573 21.2306L20.0389 21.6631ZM26.292 21.1691C26.3548 20.4726 26.3076 19.7709 26.1522 19.0902C25.9913 18.3695 25.731 17.7109 25.3905 17.1347L22.9651 19.3783C22.906 19.4416 22.8647 19.5199 22.8452 19.605C22.8146 19.7435 22.837 19.8888 22.9077 20.0111C22.9785 20.1334 23.0923 20.2237 23.226 20.2636L26.292 21.1691ZM21.8033 17.8142L24.4282 15.8998C23.4599 14.9033 22.1879 14.272 20.821 14.1096L21.0018 17.4646L21.0022 17.4663C21.022 17.5474 21.042 17.6297 21.1012 17.6907C21.1825 17.7963 21.2992 17.8673 21.4289 17.8902C21.5587 17.913 21.6921 17.8859 21.8033 17.8142ZM18.937 14.1505C18.8317 14.171 18.7264 14.1916 18.6161 14.2122C17.4835 14.4736 16.4477 15.0591 15.6303 15.8998L18.2955 17.8553C18.3689 17.8972 18.4519 17.9184 18.536 17.9167C18.8367 17.9167 19.0572 17.6698 19.0777 17.3816L19.2579 14.0887C19.1476 14.1093 19.0423 14.1299 18.937 14.1505ZM17.053 19.3162L14.6685 17.1347V17.1353C13.9466 18.3493 13.6459 19.7696 13.7664 21.1691L16.8728 20.2427C16.9703 20.2203 17.0561 20.1616 17.1133 20.078C17.2934 19.8513 17.2735 19.5018 17.053 19.3162ZM17.3139 22.157L14.1268 22.7124L14.1274 22.713C14.5954 24.0392 15.4748 25.1737 16.6324 25.9445L17.8551 22.9182C17.8948 22.8156 17.8948 22.7124 17.8749 22.5889C17.8473 22.4605 17.7756 22.3465 17.6727 22.2673C17.5699 22.1881 17.4426 22.149 17.3139 22.157ZM20.0395 26.9729C20.5203 26.9729 20.9813 26.9115 21.4423 26.8082C21.5298 26.7814 21.6174 26.7584 21.7034 26.7358C21.814 26.7068 21.9219 26.6785 22.0232 26.6436L20.48 23.7826C20.4147 23.692 20.3333 23.6154 20.2395 23.5565C20.019 23.433 19.7587 23.5153 19.5984 23.7002L18.0153 26.6436C18.6696 26.8579 19.3522 26.9689 20.0395 26.9729ZM23.4261 25.9439C24.1878 25.429 24.8494 24.7704 25.3502 23.9472C25.6116 23.565 25.8082 23.1407 25.9317 22.6921L22.7246 22.1361C22.6246 22.1361 22.5246 22.157 22.4444 22.1982C22.3331 22.2556 22.2444 22.3503 22.1933 22.4663C22.1422 22.5824 22.1317 22.7129 22.1636 22.8359L23.4261 25.9439Z" fill="white"/>
</svg>
