<svg width="40" height="40" viewBox="0 0 40 40" fill="none" xmlns="http://www.w3.org/2000/svg">
<rect width="40" height="40" rx="6" fill="#32335C"/>
<path d="M21.1902 4C20.9772 4 20.759 4.011 20.5337 4.027C14.7619 4.47394 16.2932 10.4371 16.2071 12.4259C16.1006 13.8787 15.7974 15.0295 14.7731 16.4523C13.5614 17.8531 11.8652 20.1188 11.0602 22.4765C10.6822 23.5853 10.4999 24.7272 10.6709 25.8C10.6065 25.8466 10.5537 25.9068 10.5163 25.976C10.1639 26.336 9.9017 26.7789 9.61388 27.0959C9.34245 27.3608 8.95322 27.4508 8.52508 27.6278C8.09898 27.8088 7.62371 27.9868 7.34614 28.5387C7.22322 28.7896 7.15869 29.0596 7.16484 29.3416C7.16484 29.6015 7.20274 29.8725 7.23961 30.0545C7.32053 30.5854 7.3994 31.0233 7.29287 31.3463C6.95179 32.2512 6.91492 32.8711 7.14948 33.325C7.38813 33.773 7.87978 33.9499 8.42879 34.1279C9.53911 34.3929 11.0376 34.3089 12.2227 34.9238C13.4856 35.5487 14.7721 35.8197 15.7964 35.5547C16.1497 35.4774 16.4809 35.3242 16.766 35.1063C17.0511 34.8884 17.2828 34.6112 17.4445 34.2949C18.2444 34.2899 19.1243 33.9349 20.5285 33.847C21.4832 33.768 22.6785 34.2059 24.049 34.1119C24.0858 34.2949 24.134 34.3769 24.2088 34.5599V34.5649C24.7414 35.6007 25.7288 36.0697 26.7858 35.9917C27.8357 35.9087 28.9563 35.2788 29.8628 34.2479C30.7272 33.232 32.1622 32.8041 33.1118 32.2482C33.587 31.9812 33.9711 31.6233 33.9977 31.1073C34.0295 30.5764 33.7263 30.0245 33.0267 29.2746V29.1436L33.0216 29.1386C32.7871 28.8736 32.6805 28.4257 32.5576 27.9058C32.4398 27.3688 32.3118 26.8589 31.8857 26.51C31.7997 26.437 31.7146 26.421 31.6245 26.333C31.5488 26.2809 31.4598 26.2505 31.3674 26.245C31.9543 24.5412 31.7249 22.8494 31.1267 21.3227C30.4015 19.4429 29.1263 17.8031 28.1604 16.6783C27.0716 15.3395 26.0053 14.0696 26.0268 12.1899C26.0637 9.31928 26.3515 4.014 21.1882 4.003L21.1902 4ZM21.9103 8.54038H21.9318C22.2196 8.54038 22.4695 8.62437 22.7266 8.80135C22.9878 8.98233 23.1804 9.24429 23.3238 9.51425C23.4682 9.85821 23.544 10.1232 23.5532 10.4771C23.5532 10.4521 23.5583 10.4251 23.5583 10.4001V10.5401C23.5583 10.5291 23.5532 10.5201 23.5532 10.5091L23.5481 10.4771C23.5481 10.8011 23.4795 11.124 23.3463 11.42C23.283 11.5885 23.1827 11.7414 23.0524 11.8679C23.0155 11.8479 22.9776 11.8269 22.9346 11.8109C22.7912 11.748 22.6631 11.728 22.5453 11.635C22.4484 11.5971 22.3484 11.5673 22.2463 11.546C22.3108 11.469 22.4439 11.369 22.4972 11.281C22.5668 11.114 22.6037 10.9321 22.615 10.7451V10.7181C22.6179 10.5376 22.5888 10.358 22.529 10.1872C22.4706 10.0102 22.3968 9.9202 22.2841 9.74422C22.1664 9.65523 22.0547 9.56725 21.9154 9.56725H21.8949C21.7669 9.56725 21.6542 9.60324 21.5375 9.74422C21.4093 9.86756 21.314 10.0196 21.2599 10.1872C21.1855 10.3551 21.1438 10.5352 21.137 10.7181V10.7451C21.137 10.8641 21.1482 10.9841 21.1626 11.104C20.8963 11.016 20.5654 10.9211 20.3309 10.8331C20.3181 10.7453 20.3109 10.6568 20.3093 10.5681V10.5411C20.299 10.189 20.3686 9.839 20.5132 9.51625C20.6248 9.22429 20.8276 8.97333 21.1001 8.80735C21.3336 8.63637 21.6163 8.54239 21.9103 8.54239V8.54038ZM17.8665 8.61937H17.9146C18.1072 8.61937 18.2833 8.68237 18.4595 8.79635C18.6613 8.96833 18.8231 9.1813 18.9297 9.41527C19.0526 9.68223 19.1212 9.95219 19.1427 10.3061V10.3111C19.1478 10.4881 19.1478 10.5831 19.1376 10.6661V10.7751L19.0259 10.8061C18.818 10.8791 18.6531 10.9831 18.4861 11.073C18.5025 10.9531 18.5025 10.8331 18.4913 10.7181V10.6971C18.4759 10.5211 18.438 10.4321 18.3796 10.2542C18.3359 10.1173 18.2569 9.99369 18.1502 9.8952C18.0831 9.83682 17.9951 9.80663 17.9054 9.81121H17.8726C17.7773 9.81621 17.6964 9.86321 17.6227 9.98819C17.5324 10.0896 17.475 10.2149 17.4578 10.3481C17.4199 10.4881 17.4086 10.6391 17.425 10.7911V10.8061C17.4414 10.9891 17.4731 11.078 17.5366 11.254C17.5779 11.3897 17.6553 11.5122 17.761 11.609C17.7773 11.625 17.7886 11.636 17.8091 11.64C17.7138 11.719 17.6493 11.735 17.5704 11.8229C17.5162 11.8599 17.4588 11.9069 17.3891 11.9179C17.2471 11.7511 17.1219 11.5713 17.0153 11.381C16.8846 11.1007 16.8122 10.7979 16.8022 10.4901C16.7816 10.1893 16.8177 9.88733 16.9088 9.59924C16.9897 9.33928 17.1177 9.09431 17.298 8.88634C17.4742 8.70936 17.6503 8.62137 17.8685 8.62137L17.8665 8.61937ZM19.7388 10.8951C20.1926 10.8951 20.7375 10.9781 21.3982 11.426C21.7986 11.693 22.1141 11.7859 22.8393 12.0459C23.1917 12.2289 23.3934 12.4059 23.4948 12.5828V12.4059C23.5435 12.5024 23.5706 12.608 23.5743 12.7156C23.578 12.8231 23.5582 12.9302 23.5164 13.0298C23.3453 13.4467 22.8116 13.8897 22.0609 14.1546V14.1596C21.6972 14.3366 21.3777 14.6026 21.0038 14.7795C20.6258 14.9565 20.1977 15.1705 19.6221 15.1345C19.4136 15.1434 19.2053 15.1132 19.0085 15.0455C18.8568 14.9669 18.7107 14.8784 18.5712 14.7805C18.3048 14.6036 18.0754 14.3376 17.7343 14.1606V14.1556H17.7292C17.1792 13.8277 16.8862 13.4727 16.7899 13.2078C16.6998 12.8488 16.7848 12.5838 17.0573 12.4069C17.3605 12.2299 17.5735 12.0469 17.7128 11.9589C17.8562 11.8599 17.9105 11.8229 17.9535 11.7869H17.9586V11.7819C18.1881 11.511 18.5496 11.157 19.1058 10.9791C19.2912 10.9321 19.5063 10.8961 19.7399 10.8961L19.7388 10.8951ZM23.5583 13.7477C24.05 15.6384 25.1972 18.3831 25.9336 19.7109C26.3229 20.4238 27.1013 21.9236 27.4373 23.7423C27.6503 23.7373 27.8849 23.7673 28.1369 23.8303C29.0218 21.6016 27.3953 19.2059 26.6537 18.539C26.3495 18.2741 26.3341 18.0961 26.4826 18.0961C27.2888 18.804 28.3438 20.1908 28.7279 21.7676C28.904 22.4805 28.9481 23.2424 28.7606 23.9963C28.8508 24.0323 28.9419 24.0793 29.0382 24.0843C30.4466 24.7992 30.969 25.3351 30.718 26.136V26.079C30.6392 26.075 30.5531 26.079 30.4732 26.079H30.4517C30.6607 25.4551 30.2018 24.9752 28.9962 24.4442C27.7476 23.9133 26.75 23.9963 26.5789 25.0641C26.5669 25.1245 26.56 25.1857 26.5584 25.2471C26.4611 25.2781 26.3659 25.3141 26.2706 25.3301C25.6837 25.6901 25.3682 26.226 25.188 26.9139C25.0118 27.6268 24.9585 28.4547 24.9104 29.4086C24.8776 29.8565 24.6758 30.5274 24.472 31.2093C22.4234 32.6411 19.5801 33.261 17.1699 31.6573C17.0143 31.3973 16.833 31.1573 16.6199 30.9444C16.5176 30.7789 16.3902 30.6295 16.242 30.5014C16.4919 30.5014 16.706 30.4604 16.877 30.4124C17.0724 30.3206 17.226 30.1613 17.3082 29.9655C17.4526 29.6105 17.3082 29.0376 16.833 28.4127C16.3649 27.7938 15.5639 27.0899 14.3952 26.388C13.5317 25.857 13.0462 25.2271 12.8219 24.5282C12.5976 23.8153 12.6293 23.0804 12.8004 22.3365C13.1364 20.9097 13.9957 19.5199 14.5458 18.649C14.6892 18.566 14.5939 18.832 13.9855 19.9518C13.4457 20.9517 12.4276 23.2794 13.8185 25.0861C13.872 23.7666 14.1723 22.4677 14.7045 21.2537C15.4717 19.5509 17.0839 16.5833 17.2119 14.2296C17.2765 14.2816 17.5059 14.4126 17.6063 14.5006C17.9003 14.6776 18.1235 14.9435 18.4124 15.1205C18.7002 15.3855 19.0628 15.5684 19.6077 15.5684C19.661 15.5734 19.7091 15.5734 19.7562 15.5734C20.3165 15.5734 20.7549 15.3965 21.1165 15.2185C21.5108 15.0355 21.8324 14.7705 22.1295 14.6826H22.1346C22.7697 14.5056 23.2767 14.1456 23.5594 13.7497L23.5583 13.7477ZM26.5462 25.6901C26.5994 26.491 27.0163 27.3508 27.7517 27.5268C28.5517 27.7038 29.7091 27.0839 30.1946 26.507L30.4824 26.496C30.9137 26.485 31.2722 26.507 31.6388 26.8509L31.644 26.8559C31.9267 27.1209 32.0608 27.5638 32.1776 28.0227C32.2954 28.5587 32.3855 29.0636 32.7379 29.4436C33.3985 30.1465 33.6177 30.6514 33.6075 30.9643C33.586 31.3123 33.3504 31.4893 32.9243 31.7552C32.0649 32.2922 30.5398 32.7031 29.5688 33.85C28.7248 34.8338 27.6964 35.3698 26.7879 35.4377C25.8814 35.5107 25.0968 35.1728 24.6379 34.2409L24.6328 34.2359C24.345 33.704 24.4679 32.8711 24.7076 31.9852C24.9483 31.0943 25.2945 30.1895 25.3426 29.4546C25.3908 28.5017 25.444 27.6738 25.6038 27.0319C25.7687 26.412 26.0258 25.969 26.4847 25.7251L26.5431 25.6931L26.5462 25.6901ZM11.7741 25.7571H11.7905C11.8652 25.7571 11.9349 25.7621 12.0035 25.7781C12.5156 25.851 12.9694 26.221 13.4016 26.7779L14.6441 28.9966L14.6492 29.0016C14.9801 29.7095 15.6786 30.4174 16.2706 31.1843C16.8637 31.9802 17.3226 32.6931 17.2693 33.277V33.288C17.1884 34.2769 16.6127 34.8128 15.7329 35.0118C14.852 35.1888 13.6567 35.0118 12.4624 34.3919C11.14 33.679 9.56574 33.767 8.55785 33.589C8.05698 33.501 7.72614 33.318 7.57045 33.0531C7.42193 32.7881 7.41579 32.2502 7.74151 31.4123V31.4083C7.90129 30.9603 7.78555 30.4034 7.70463 29.9135C7.62986 29.3816 7.59299 28.9696 7.76302 28.6627C7.98119 28.2147 8.30691 28.1317 8.70637 27.9498C9.10686 27.7728 9.58213 27.6848 9.95496 27.3248H9.96008V27.3198C10.3073 26.9669 10.5695 26.5239 10.8727 26.205C11.1298 25.934 11.39 25.7571 11.7741 25.7571V25.7571ZM21.5538 13.6597C20.9608 13.9247 20.2622 14.3726 19.5207 14.3726C18.7791 14.3726 18.1973 14.0196 17.7763 13.7527C17.5633 13.5717 17.3922 13.3937 17.2642 13.3047C17.0399 13.1288 17.0665 12.8578 17.1628 12.8578C17.3113 12.8778 17.339 13.0388 17.4342 13.1288C17.5684 13.2168 17.7282 13.3937 17.9248 13.5717C18.3253 13.8367 18.859 14.1956 19.5196 14.1956C20.1823 14.1956 20.9608 13.8367 21.4299 13.5717C21.6962 13.3947 22.0373 13.1288 22.3149 12.9518C22.5279 12.7688 22.5187 12.5918 22.6928 12.5918C22.869 12.6128 22.742 12.7688 22.4962 13.0348C22.2452 13.2178 21.8611 13.4827 21.5528 13.6597H21.5538ZM20.0758 11.546V11.521C20.0707 11.494 20.0912 11.464 20.1178 11.453C20.2131 11.396 20.3626 11.416 20.4702 11.458C20.5552 11.458 20.6883 11.546 20.6781 11.639C20.6668 11.702 20.5603 11.728 20.4906 11.728C20.4169 11.728 20.3626 11.671 20.2991 11.635C20.2295 11.614 20.0953 11.624 20.0748 11.546H20.0758ZM19.323 11.546C19.2953 11.625 19.1673 11.614 19.0987 11.635C19.0341 11.671 18.9809 11.728 18.9061 11.728C18.8364 11.728 18.7248 11.701 18.7187 11.635C18.7094 11.546 18.8364 11.458 18.9225 11.458C19.0341 11.415 19.1724 11.395 19.2789 11.453C19.3004 11.464 19.3281 11.494 19.3168 11.521V11.546H19.323Z" fill="white"/>
</svg>
