<svg width="40" height="40" viewBox="0 0 40 40" fill="none" xmlns="http://www.w3.org/2000/svg">
<rect width="40" height="40" rx="6" fill="#32335C"/>
<path d="M4 26.0628H5.05635V21.8931L6.71373 25.5189C6.89586 25.954 7.16905 26.1171 7.69723 26.1171C8.2254 26.1171 8.46217 25.954 8.66251 25.5189L10.3017 21.8931V26.0628H11.358V21.8931C11.358 21.4943 11.1941 21.2948 10.8481 21.1861C10.0467 20.9504 9.50031 21.1498 9.26354 21.6937L7.6608 25.2832L6.09449 21.6937C5.85772 21.1498 5.31133 20.9504 4.50996 21.1861C4.16392 21.2948 4 21.4761 4 21.8931V26.0628Z" fill="white" fill-opacity="0.6"/>
<path d="M12.2324 22.6727H13.2888V24.9569C13.2888 25.0838 13.3252 25.3739 13.908 25.392C14.2176 25.392 16.2028 25.392 16.2211 25.392V22.6545H17.2774C17.2774 22.6545 17.2774 26.3891 17.2774 26.4072C17.2774 27.3318 16.13 27.5312 15.6018 27.5312H12.2688V26.8242H15.62C16.2939 26.7517 16.2211 26.4072 16.2211 26.2985V26.0265H13.9627C12.9063 26.0265 12.2324 25.5552 12.2324 25.0294C12.2324 24.975 12.2688 22.6908 12.2324 22.6727Z" fill="white" fill-opacity="0.6"/>
<path d="M35.071 20.0075C34.4153 19.9894 33.9236 20.0619 33.4865 20.2251C33.359 20.2795 33.1768 20.2795 33.1586 20.4245C33.2315 20.497 33.2315 20.5877 33.2861 20.6783C33.3772 20.8415 33.5593 21.059 33.705 21.1678C33.8689 21.2947 34.0511 21.4216 34.2332 21.5485C34.5428 21.7479 34.9071 21.8567 35.2167 22.0561C35.3988 22.1649 35.5809 22.3099 35.7449 22.4368C35.8359 22.5093 35.8906 22.6 35.9998 22.6544V22.6362C35.9452 22.5637 35.927 22.455 35.8724 22.3824C35.7995 22.3099 35.7084 22.2374 35.6356 22.1468C35.3988 21.8386 35.1074 21.5485 34.7978 21.331C34.5428 21.1497 33.96 20.914 33.8689 20.6058C33.8689 20.6058 33.8689 20.6058 33.8507 20.5877C34.0328 20.5695 34.2332 20.5152 34.4153 20.4608C34.6885 20.3883 34.9435 20.4064 35.2349 20.3339C35.3624 20.2976 35.4899 20.2614 35.6174 20.2251C35.6174 20.207 35.6174 20.1707 35.6174 20.1526C35.4717 20.0075 35.3624 19.8081 35.2167 19.6812C34.7978 19.3186 34.3425 18.9742 33.8689 18.6841C33.6139 18.521 33.2861 18.4122 33.0311 18.2853C32.9401 18.2309 32.7762 18.2128 32.7215 18.1403C32.5758 17.959 32.4847 17.7233 32.3937 17.5239C32.1569 17.0707 31.9384 16.5812 31.7198 16.1098C31.5741 15.8016 31.483 15.4753 31.3009 15.1852C30.4631 13.8074 29.5525 12.9735 28.1501 12.1577C27.8405 11.9945 27.4944 11.922 27.1119 11.8314C26.9116 11.8314 26.7112 11.8133 26.5109 11.7951C26.3834 11.7407 26.2559 11.5776 26.1284 11.5051C25.6731 11.215 24.4711 10.5805 24.125 11.4144C23.9065 11.9402 24.4528 12.4659 24.635 12.7197C24.7807 12.901 24.9446 13.1185 25.0539 13.318C25.1085 13.463 25.1267 13.608 25.1814 13.7531C25.3089 14.1156 25.4363 14.4963 25.6003 14.8408C25.6913 15.004 25.7824 15.1852 25.9099 15.3484C25.9827 15.4391 26.092 15.4753 26.1102 15.6203C26.0009 15.7835 25.9827 16.0192 25.9281 16.2186C25.6367 17.125 25.746 18.2672 26.1649 18.9379C26.2924 19.1374 26.602 19.5906 27.0209 19.4093C27.3851 19.2643 27.3123 18.811 27.4033 18.3941C27.4216 18.3034 27.4033 18.2309 27.458 18.1765V18.1947C27.5673 18.4122 27.6765 18.6479 27.7858 18.8654C28.0408 19.2643 28.4779 19.6812 28.8422 19.9532C29.0425 20.0982 29.1882 20.352 29.4432 20.4426V20.4245C29.4432 20.4245 29.4432 20.4245 29.425 20.4245C29.3703 20.352 29.2975 20.3157 29.2428 20.2614C29.0971 20.1163 28.9332 19.935 28.8239 19.7719C28.4779 19.3186 28.1865 18.811 27.9133 18.3034C27.7858 18.0496 27.6765 17.7777 27.5673 17.5239C27.5126 17.4332 27.5126 17.2882 27.4398 17.2338C27.3123 17.4151 27.1301 17.5601 27.0573 17.7777C26.9116 18.1221 26.8934 18.5572 26.8387 18.9923C26.8023 18.9923 26.8205 18.9923 26.8023 19.0105C26.5473 18.9379 26.4563 18.6841 26.347 18.4485C26.1102 17.8683 26.0556 16.9438 26.2741 16.2911C26.3288 16.128 26.5838 15.5841 26.4745 15.4209C26.4198 15.2759 26.2559 15.1852 26.1649 15.0583C26.0556 14.9133 25.9463 14.7139 25.8735 14.5326C25.6731 14.0794 25.582 13.5718 25.3635 13.1185C25.2724 12.901 25.0903 12.6834 24.9628 12.5022C24.8171 12.2846 24.635 12.1215 24.5075 11.8676C24.4711 11.777 24.4164 11.632 24.4711 11.5413C24.4893 11.4688 24.5257 11.4507 24.5803 11.4326C24.6896 11.3419 24.981 11.4507 25.0903 11.5051C25.3999 11.632 25.6367 11.7407 25.8917 11.9039C26.0009 11.9764 26.1284 12.1396 26.2741 12.1758C26.3288 12.1758 26.3834 12.1758 26.4381 12.1758C26.693 12.2302 26.9844 12.194 27.2394 12.2665C27.6765 12.4115 28.059 12.6109 28.4051 12.8285C29.4614 13.4993 30.3538 14.4601 30.9366 15.6022C31.0277 15.7835 31.0824 15.9648 31.1552 16.1461C31.3191 16.5449 31.5377 16.9438 31.7016 17.3426C31.8655 17.7233 32.0294 18.104 32.2844 18.4303C32.4119 18.5935 32.8854 18.6841 33.1222 18.7748C33.2861 18.8473 33.5411 18.9198 33.6868 18.9923C33.96 19.1555 34.2332 19.3549 34.5064 19.5362C34.6339 19.645 35.0528 19.8444 35.071 20.0075Z" fill="white" fill-opacity="0.6"/>
<path d="M26.7849 12.9921C26.6392 12.9921 26.5481 13.0102 26.457 13.0283C26.457 13.0283 26.457 13.0283 26.457 13.0465C26.457 13.0465 26.457 13.0465 26.4752 13.0465C26.5481 13.1734 26.6574 13.264 26.7302 13.3728C26.8031 13.4997 26.8577 13.6266 26.9124 13.7535L26.9306 13.7354C27.0398 13.6628 27.0945 13.5178 27.0945 13.3365C27.0398 13.2821 27.0398 13.2277 27.0034 13.1734C26.9488 13.0827 26.8395 13.0465 26.7849 12.9921Z" fill="#C1C2CE"/>
<path d="M18.0957 26.0625H21.1555C21.5197 26.0625 21.8476 25.99 22.139 25.8631C22.5943 25.6455 22.8129 25.3736 22.8129 24.9929V24.2133C22.8129 23.9051 22.5579 23.6332 22.0661 23.4338C21.8111 23.3431 21.4833 23.2887 21.1555 23.2887H19.8806C19.4435 23.2887 19.2431 23.1618 19.1885 22.8718C19.1885 22.8355 19.1885 22.7993 19.1885 22.7811V22.3098C19.1885 22.2917 19.1885 22.2554 19.1885 22.2191C19.2431 22.0016 19.3524 21.9472 19.7349 21.9109C19.7713 21.9109 19.8077 21.9109 19.8259 21.9109H22.8493V21.2039H19.8806C19.4435 21.2039 19.2249 21.222 19.0246 21.2946C18.4053 21.494 18.1139 21.8022 18.1139 22.346V22.9262C18.1139 23.3975 18.6421 23.8145 19.5527 23.9051C19.6438 23.9051 19.7531 23.9051 19.8624 23.9051H20.9551C20.9916 23.9051 21.028 23.9051 21.0644 23.9051C21.3922 23.9414 21.5379 23.9958 21.6472 24.1227C21.7201 24.1952 21.7201 24.2496 21.7201 24.3221V24.9385C21.7201 25.011 21.6654 25.1016 21.5744 25.1923C21.4833 25.2829 21.3194 25.3373 21.119 25.3373C21.0826 25.3373 21.0462 25.3373 21.0098 25.3373H18.0957V26.0625Z" fill="white"/>
<path d="M29.4258 24.83C29.4258 25.5551 29.9722 25.9539 31.0649 26.0265C31.1742 26.0265 31.2653 26.0446 31.3746 26.0446H34.1429V25.3376H31.3563C30.7371 25.3376 30.5003 25.1925 30.5003 24.8118V21.186H29.444L29.4258 24.83Z" fill="white"/>
<path d="M23.4883 24.866V22.3642C23.4883 21.7297 23.9436 21.3308 24.836 21.222C24.9271 21.222 25.0364 21.2039 25.1274 21.2039H27.1491C27.2584 21.2039 27.3494 21.2039 27.4587 21.222C28.3511 21.3489 28.7882 21.7297 28.7882 22.3642V24.866C28.7882 25.3917 28.6061 25.6636 28.169 25.8449L29.2071 26.7876H27.9869L27.1491 26.0262L26.2931 26.0806H25.1639C24.9817 26.0806 24.7632 26.0625 24.5446 26.0081C23.8161 25.8087 23.4883 25.4461 23.4883 24.866ZM24.6357 24.8116C24.6357 24.8478 24.6539 24.8841 24.6539 24.9204C24.7085 25.2104 24.9817 25.3736 25.4006 25.3736H26.3659L25.4917 24.5759H26.712L27.4769 25.2648C27.6226 25.1923 27.7137 25.0654 27.7501 24.9204C27.7501 24.8841 27.7501 24.8478 27.7501 24.8116V22.4186C27.7501 22.3823 27.7501 22.346 27.7501 22.3279C27.6955 22.056 27.4223 21.8928 27.0034 21.8928H25.4006C24.9271 21.8928 24.6175 22.0922 24.6175 22.4186L24.6357 24.8116Z" fill="white"/>
<path d="M34.617 26.0627H34.7627V25.4644H34.963V25.3375H34.3984V25.4644H34.617V26.0627ZM35.8008 26.0627H35.9465V25.3557H35.728L35.5458 25.8451L35.3455 25.3557H35.127V26.0627H35.2727V25.5188L35.473 26.0627H35.5823L35.7826 25.5188L35.8008 26.0627Z" fill="white"/>
</svg>
