<svg width="40" height="40" viewBox="0 0 40 40" fill="none" xmlns="http://www.w3.org/2000/svg">
<rect width="40" height="40" rx="6" fill="#32335C"/>
<path d="M16.3563 18.9805L15.4173 17.0067C15.1931 16.5406 14.9629 16.0115 14.8843 15.7625L14.8661 15.7807C14.8964 16.1327 14.9024 16.576 14.9085 16.9461L14.9326 18.9801H14.248V14.7789H15.0354L16.053 16.8301C16.2237 17.1787 16.3675 17.54 16.4832 17.9107L16.5014 17.8925C16.4832 17.6799 16.4409 17.079 16.4409 16.6963L16.4288 14.778H17.0888V18.9805H16.3563Z" fill="white"/>
<path d="M18.3365 17.6287V17.6753C18.3365 18.1005 18.4941 18.5494 19.0936 18.5494C19.3783 18.5494 19.6266 18.4464 19.8568 18.2459L20.1173 18.6529C19.8118 18.9189 19.4197 19.0635 19.015 19.0594C18.1486 19.0594 17.6035 18.4343 17.6035 17.4506C17.6035 16.9104 17.7189 16.5523 17.9853 16.2488C18.2337 15.9631 18.5365 15.8358 18.9239 15.8358C19.2349 15.8258 19.5373 15.939 19.7657 16.151C20.0322 16.3938 20.1656 16.77 20.1656 17.4865V17.6264L18.3365 17.6287ZM18.9239 16.3416C18.5486 16.3416 18.3425 16.639 18.3425 17.1369H19.475C19.475 16.6367 19.2573 16.3393 18.9239 16.3393V16.3416Z" fill="white"/>
<path d="M23.7094 18.9922H23.0857L22.7099 17.5778C22.6132 17.2133 22.5104 16.7387 22.5104 16.7387H22.4979C22.4979 16.7387 22.4513 17.0427 22.2983 17.6072L21.9286 18.9913H21.3049L20.4678 15.9495L21.1277 15.8586L21.4626 17.3489C21.5472 17.7312 21.6198 18.1564 21.6198 18.1564H21.6379C21.6821 17.8777 21.7404 17.6015 21.8128 17.3289L22.2062 15.908H22.8606L23.208 17.2921C23.3355 17.7899 23.402 18.1666 23.402 18.1666H23.4201C23.4201 18.1666 23.4927 17.7004 23.5717 17.341L23.8866 15.908H24.5754L23.7094 18.9922Z" fill="white"/>
<path d="M15.8301 24.3882L15.4669 23.7383C15.1762 23.2227 14.9823 22.9309 14.7521 22.7001C14.7187 22.6602 14.677 22.6281 14.6299 22.6061C14.5828 22.5842 14.5315 22.5728 14.4795 22.5729V24.3882H13.7949V20.1865H15.073C16.012 20.1865 16.4361 20.7329 16.4361 21.3883C16.4361 21.9897 16.0482 22.5421 15.3943 22.5421C15.5455 22.6209 15.8241 23.0279 16.0422 23.3812L16.6603 24.3882H15.8301ZM14.8614 20.752H14.4795V22.0806H14.8362C15.1995 22.0806 15.3943 22.034 15.5204 21.9044C15.6357 21.7892 15.7064 21.613 15.7064 21.3944C15.7092 20.9697 15.479 20.752 14.8614 20.752Z" fill="white"/>
<path d="M17.5748 23.0363V23.0829C17.5748 23.5081 17.732 23.957 18.3319 23.957C18.6165 23.957 18.8649 23.854 19.0951 23.6535L19.3556 24.0605C19.0499 24.3265 18.6576 24.4711 18.2529 24.467C17.3869 24.467 16.8418 23.8419 16.8418 22.8582C16.8418 22.3179 16.9567 21.9599 17.2232 21.656C17.4715 21.3707 17.7743 21.2434 18.1622 21.2434C18.4733 21.2335 18.7757 21.3469 19.004 21.559C19.2704 21.8019 19.4039 22.1781 19.4039 22.8946V23.0344L17.5748 23.0363ZM18.1622 21.7492C17.7868 21.7492 17.5808 22.0466 17.5808 22.5445H18.7133C18.7133 22.0443 18.4952 21.7469 18.1622 21.7469V21.7492Z" fill="white"/>
<path d="M20.65 24.4544C19.9779 24.4544 19.9779 23.8484 19.9779 23.5864V20.9697C19.985 20.6689 19.9646 20.368 19.917 20.0709L20.6035 19.9194C20.65 20.1059 20.6579 20.3623 20.6579 20.7632V23.3677C20.6579 23.7808 20.676 23.8474 20.7244 23.9201C20.7508 23.9505 20.7864 23.9714 20.8257 23.9799C20.865 23.9883 20.906 23.9837 20.9425 23.9668L21.0518 24.3798C20.924 24.4309 20.7875 24.4562 20.65 24.4544Z" fill="white"/>
<path d="M21.8077 20.8603C21.7504 20.8597 21.6938 20.8478 21.6411 20.8252C21.5884 20.8026 21.5408 20.7698 21.5008 20.7286C21.4608 20.6874 21.4294 20.6387 21.4083 20.5853C21.3873 20.5319 21.377 20.4748 21.378 20.4174C21.3786 20.3301 21.405 20.2449 21.454 20.1727C21.503 20.1006 21.5724 20.0446 21.6532 20.012C21.734 19.9794 21.8226 19.9717 21.9079 19.9897C21.9931 20.0078 22.071 20.0509 22.1318 20.1135C22.1925 20.1761 22.2333 20.2553 22.2489 20.3412C22.2646 20.4271 22.2544 20.5157 22.2196 20.5958C22.1849 20.6759 22.1272 20.7438 22.0538 20.7909C21.9805 20.838 21.8948 20.8621 21.8077 20.8603ZM21.4747 24.3883V21.3642L22.1473 21.243V24.3883H21.4747Z" fill="white"/>
<path d="M24.0552 24.4665C23.218 24.4665 22.7529 23.8778 22.7529 22.8881C22.7529 21.7693 23.4189 21.2369 24.1017 21.2369C24.4347 21.2369 24.677 21.3157 24.9495 21.5707L24.6165 22.014C24.4347 21.8499 24.2775 21.7772 24.1017 21.7772C23.9995 21.7754 23.8991 21.8039 23.8129 21.8589C23.7267 21.9139 23.6586 21.9932 23.617 22.0867C23.5264 22.2732 23.4901 22.5603 23.4901 22.9426C23.4901 23.3622 23.5566 23.6288 23.6956 23.7817C23.7471 23.8381 23.8099 23.8829 23.8799 23.9132C23.9498 23.9435 24.0254 23.9586 24.1017 23.9575C24.3137 23.9575 24.5202 23.8545 24.7193 23.654L25.0346 24.061C24.7579 24.3416 24.4667 24.4665 24.0552 24.4665Z" fill="white"/>
<path d="M18.4553 33.0387C15.0383 33.0387 11.753 32.1101 9.2048 30.4244C7.9235 29.5769 6.8487 28.5597 6.01016 27.4012C5.15202 26.224 4.54836 24.8803 4.23774 23.456C3.50849 20.0958 4.47028 16.5804 6.93939 13.5577C9.40199 10.5429 13.0733 8.38128 17.2772 7.46618C18.6794 7.15867 20.1104 7.00239 21.5457 7C24.9627 7 28.248 7.92862 30.7962 9.61431C32.0775 10.4623 33.1523 11.479 33.9908 12.6375C34.8496 13.815 35.4538 15.1592 35.7646 16.5841C36.4934 19.9443 35.5321 23.4593 33.0625 26.4819C30.5976 29.4939 26.9286 31.6565 22.7252 32.5734C21.3225 32.8807 19.891 33.0367 18.4553 33.0387ZM21.5457 7.32632C20.134 7.32832 18.7266 7.48179 17.3474 7.78411C13.2143 8.68429 9.60756 10.8082 7.19146 13.7633C4.78421 16.7072 3.848 20.1247 4.55771 23.3851C5.14743 26.1132 6.81707 28.4539 9.38386 30.1521C11.8795 31.8029 15.1011 32.7124 18.4553 32.7124C19.8674 32.7102 21.2753 32.5567 22.6549 32.2546C26.7886 31.3539 30.3934 29.2305 32.8095 26.2754C35.2168 23.3311 36.153 19.914 35.4456 16.6531C34.8535 13.925 33.1839 11.5853 30.6167 9.88702C28.121 8.23583 24.8994 7.32632 21.5457 7.32632Z" fill="white"/>
<path d="M21.5935 31.524C19.3573 31.524 17.1713 30.8594 15.312 29.6142C13.4527 28.3689 12.0035 26.599 11.1478 24.5281C10.292 22.4573 10.0681 20.1787 10.5044 17.9803C10.9406 15.7819 12.0175 13.7626 13.5987 12.1777C14.6457 11.1125 15.8927 10.2655 17.2678 9.68551C18.6429 9.10554 20.1189 8.80407 21.6107 8.79848C23.1026 8.79289 24.5808 9.08329 25.9601 9.65294C27.3395 10.2226 28.5928 11.0602 29.6477 12.1176C30.7027 13.1749 31.5384 14.4311 32.1068 15.8137C32.6752 17.1963 32.965 18.6779 32.9595 20.1733C32.954 21.6687 32.6533 23.1481 32.0748 24.5265C31.4963 25.9049 30.6513 27.1548 29.5887 28.2044C28.5411 29.26 27.2951 30.097 25.9227 30.6668C24.5504 31.2366 23.0789 31.528 21.5935 31.524ZM21.5935 9.18394C19.4214 9.18335 17.2979 9.82847 15.4917 11.0377C13.6855 12.247 12.2776 13.966 11.4462 15.9774C10.6148 17.9887 10.3971 20.2021 10.8209 22.3374C11.2446 24.4728 12.2906 26.4342 13.8266 27.9736C14.8463 28.9958 16.0569 29.8068 17.3892 30.36C18.7215 30.9133 20.1495 31.1982 21.5917 31.1983C23.0339 31.1984 24.4619 30.9138 25.7943 30.3607C27.1268 29.8076 28.3374 28.9969 29.3573 27.9748C30.3771 26.9527 31.1861 25.7393 31.7381 24.4038C32.2901 23.0683 32.5743 21.6369 32.5744 20.1914C32.5745 18.7458 32.2905 17.3144 31.7387 15.9789C31.187 14.6433 30.3781 13.4298 29.3584 12.4075C28.3411 11.3823 27.1309 10.5695 25.7981 10.0162C24.4652 9.46283 23.0361 9.17997 21.5935 9.18394Z" fill="white"/>
<path d="M19.4229 28.3735C14.7255 28.3735 10.9072 24.5439 10.9072 19.8365C10.9072 15.129 14.7274 11.3013 19.4229 11.3013C24.1183 11.3013 27.9385 15.1304 27.9385 19.8365C27.9385 24.5425 24.1188 28.3735 19.4229 28.3735ZM19.4229 11.6197C14.9023 11.6197 11.2249 15.3057 11.2249 19.8365C11.2249 24.3672 14.9023 28.0551 19.4229 28.0551C23.9434 28.0551 27.6208 24.3682 27.6208 19.8365C27.6208 15.3048 23.9434 11.6197 19.4229 11.6197Z" fill="white"/>
</svg>
