<svg width="40" height="40" viewBox="0 0 40 40" fill="none" xmlns="http://www.w3.org/2000/svg">
<rect width="40" height="40" rx="6" fill="#32335C"/>
<path d="M9.99584 23.8755C9.81543 23.8755 9.63715 23.803 9.50477 23.6663L5.39047 19.4404V23.1614C5.39047 23.5564 5.07928 23.8755 4.69497 23.8755C4.31172 23.8755 4 23.5558 4 23.1614V17.7164C4 17.4271 4.16974 17.1666 4.42915 17.0566C4.55627 17.0024 4.69687 16.9882 4.83226 17.0159C4.96765 17.0435 5.09142 17.1117 5.18711 17.2114L9.30087 21.4373V17.7169C9.30087 17.3219 9.61206 17.0027 9.99584 17.0027C10.3802 17.0027 10.6913 17.3224 10.6913 17.7169V23.1614C10.6913 23.5558 10.3802 23.875 9.99584 23.8755ZM13.2155 17.0091L13.0245 17.3753L11.547 20.1333L11.3559 20.4813L11.547 20.8293L13.0245 23.4982L13.2241 23.8638H17.0913L17.2823 23.4624L18.3856 21.1773L18.881 20.1418H17.7601L14.9364 20.1509C14.5687 20.1456 14.2308 20.4872 14.2308 20.8651C14.2308 21.2419 14.5687 21.5846 14.9359 21.5787L16.6391 21.5702L16.2223 22.436H14.0322L12.946 20.4717L14.0408 18.437H16.3701L16.9135 19.5819H18.3125L17.4313 17.4111L17.2396 17.0091H13.2161H13.2155ZM20.2586 17C19.8941 17.0049 19.5674 17.3491 19.5722 17.7228V19.584H20.9627V17.7233C20.967 17.3433 20.628 16.9952 20.2581 17H20.2586ZM22.4871 23.8889C22.1028 23.8889 21.7922 23.5692 21.7922 23.1752V17.7297C21.7922 17.3353 22.1034 17.0161 22.4871 17.0161C22.8715 17.0161 23.1826 17.3353 23.1826 17.7297V21.4512L27.2969 17.2248C27.3926 17.1252 27.5163 17.0571 27.6516 17.0295C27.7868 17.0019 27.9273 17.016 28.0544 17.07C28.3138 17.1805 28.483 17.4409 28.483 17.7297V23.1752C28.483 23.5692 28.1718 23.8889 27.788 23.8889C27.4037 23.8889 27.093 23.5692 27.093 23.1752V19.4538L22.9787 23.6802C22.9149 23.7461 22.8385 23.7985 22.7541 23.8344C22.6697 23.8702 22.5789 23.8888 22.4871 23.8889ZM33.6328 20.4471L35.7956 18.2336C36.0679 17.956 36.0679 17.5034 35.7972 17.2237C35.7337 17.1574 35.6574 17.1047 35.573 17.0686C35.4886 17.0325 35.3978 17.0138 35.306 17.0137C35.2142 17.0135 35.1233 17.0319 35.0387 17.0677C34.9542 17.1035 34.8778 17.156 34.814 17.2221L32.648 19.4388L30.4825 17.2221C30.4187 17.156 30.3423 17.1035 30.2578 17.0677C30.1732 17.0319 30.0823 17.0135 29.9905 17.0137C29.8987 17.0138 29.8079 17.0325 29.7235 17.0686C29.6391 17.1047 29.5628 17.1574 29.4993 17.2237C29.3689 17.3596 29.2962 17.5407 29.2965 17.729C29.2968 17.9173 29.3701 18.0981 29.5009 18.2336L31.6632 20.4471L29.5068 22.6543C29.376 22.7896 29.3027 22.9704 29.3024 23.1586C29.3021 23.3469 29.3748 23.5279 29.5051 23.6636C29.5687 23.7298 29.645 23.7825 29.7294 23.8186C29.8138 23.8546 29.9046 23.8733 29.9964 23.8734C30.0882 23.8736 30.1791 23.8552 30.2636 23.8194C30.3481 23.7837 30.4246 23.7312 30.4884 23.6652L32.648 21.4554L34.8076 23.6652C34.8715 23.7312 34.9479 23.7836 35.0324 23.8193C35.117 23.855 35.2078 23.8733 35.2996 23.8732C35.3913 23.873 35.4821 23.8544 35.5665 23.8184C35.6509 23.7824 35.7272 23.7298 35.7908 23.6636C35.9212 23.5279 35.9938 23.3469 35.9935 23.1586C35.9932 22.9704 35.92 22.7896 35.7892 22.6543L33.6328 20.4471ZM20.2586 23.8686C19.8941 23.8643 19.5674 23.5201 19.5722 23.1459V20.1568H20.9627V23.1459C20.967 23.5254 20.628 23.8734 20.2581 23.8686" fill="white"/>
</svg>
