<svg width="40" height="40" viewBox="0 0 40 40" fill="none" xmlns="http://www.w3.org/2000/svg">
<rect width="40" height="40" rx="6" fill="#32335C"/>
<path fill-rule="evenodd" clip-rule="evenodd" d="M33.7436 18.2525C33.6659 18.2513 33.5892 18.2703 33.521 18.3077L31.3774 19.5507C31.3092 19.5909 31.2527 19.6484 31.2136 19.7173C31.1744 19.7862 31.154 19.8641 31.1543 19.9433V22.4238C31.1543 22.5852 31.2388 22.7363 31.3774 22.817L31.9369 23.1414C32.2093 23.2757 32.3095 23.2741 32.433 23.2741C32.8359 23.2741 33.0661 23.0287 33.0661 22.6025V20.1535C33.0661 20.1188 33.0358 20.0939 33.0022 20.0939H32.7336C32.6994 20.0939 32.6702 20.1188 32.6702 20.1535V22.6025C32.6702 22.791 32.4736 22.9816 32.1557 22.8213L31.5729 22.479C31.5524 22.4682 31.5367 22.4476 31.5367 22.4243V19.9433C31.5367 19.92 31.5524 19.8957 31.5729 19.8837L33.7122 18.6462C33.7219 18.6405 33.7329 18.6375 33.7442 18.6375C33.7554 18.6375 33.7664 18.6405 33.7761 18.6462L35.9154 19.8843C35.9259 19.8904 35.9347 19.8991 35.9411 19.9095C35.9474 19.9199 35.951 19.9317 35.9516 19.9439V22.4243C35.9519 22.4362 35.9491 22.4479 35.9435 22.4583C35.9379 22.4687 35.9297 22.4775 35.9197 22.4839L33.7761 23.7214C33.7663 23.7269 33.7553 23.7297 33.7442 23.7297C33.733 23.7297 33.722 23.7269 33.7122 23.7214L33.1614 23.3927C33.1531 23.3882 33.1438 23.3858 33.1343 23.3858C33.1249 23.3858 33.1156 23.3882 33.1073 23.3927C32.9551 23.4793 32.9264 23.4891 32.7839 23.5389C32.7487 23.5513 32.6951 23.5703 32.8018 23.6304L33.521 24.055C33.5887 24.0946 33.6656 24.1146 33.7442 24.1146C33.8225 24.115 33.8996 24.0944 33.9673 24.055L36.1109 22.817C36.179 22.7766 36.2355 22.7191 36.2746 22.6503C36.3137 22.5814 36.3342 22.5035 36.334 22.4243V19.9439C36.3344 19.8645 36.314 19.7865 36.2749 19.7175C36.2357 19.6485 36.1792 19.591 36.1109 19.5507L33.9673 18.3077C33.8989 18.2705 33.822 18.2518 33.7442 18.2536V18.253L33.7436 18.2525Z" fill="white" fill-opacity="0.6"/>
<path fill-rule="evenodd" clip-rule="evenodd" d="M34.3174 20.0255C33.707 20.0255 33.3431 20.286 33.3431 20.7198C33.3431 21.1905 33.7043 21.3194 34.2898 21.3778C34.9911 21.4466 35.0453 21.5501 35.0453 21.6887C35.0453 21.9286 34.8546 22.031 34.404 22.031C33.837 22.031 33.7124 21.8891 33.6707 21.6064C33.6659 21.5761 33.6426 21.5512 33.6117 21.5512H33.3339C33.317 21.5516 33.301 21.5585 33.2892 21.5706C33.2773 21.5826 33.2706 21.5987 33.2705 21.6156C33.2705 21.9774 33.4666 22.4058 34.404 22.4058C35.0821 22.4058 35.4731 22.1382 35.4731 21.6703C35.4731 21.2062 35.1574 21.0816 34.4994 20.9939C33.8343 20.9056 33.7709 20.8623 33.7709 20.7063C33.7709 20.5774 33.8251 20.4046 34.3174 20.4046C34.7572 20.4046 34.9196 20.4999 34.9862 20.7978C34.9917 20.8254 35.0166 20.8476 35.0458 20.8476H35.3231C35.3404 20.8476 35.3567 20.8368 35.3686 20.8249C35.3805 20.8119 35.3886 20.7973 35.387 20.7794C35.3437 20.2665 35.003 20.0255 34.3174 20.0255Z" fill="white" fill-opacity="0.6"/>
<path d="M21.1411 15.0003C21.1171 15.0004 21.0936 15.0068 21.0729 15.0187C21.0522 15.0309 21.0351 15.0482 21.0231 15.069C21.0111 15.0898 21.0048 15.1134 21.0046 15.1373V18.6322C21.0051 18.6487 21.0012 18.6651 20.9932 18.6796C20.9852 18.6941 20.9734 18.7061 20.9591 18.7145C20.9446 18.723 20.9281 18.7275 20.9112 18.7275C20.8944 18.7275 20.8778 18.723 20.8633 18.7145L20.2946 18.3858C20.2531 18.3616 20.2059 18.3489 20.1579 18.3489C20.1098 18.3489 20.0626 18.3616 20.0211 18.3858L17.7503 19.7013C17.7085 19.7263 17.6739 19.7618 17.65 19.8043C17.6261 19.8467 17.6136 19.8946 17.6138 19.9433V22.5749C17.6138 22.6729 17.6652 22.7634 17.7503 22.8127L20.0211 24.1287C20.0626 24.153 20.1098 24.1658 20.1579 24.1658C20.2059 24.1658 20.2531 24.153 20.2946 24.1287L22.5655 22.8127C22.6072 22.7886 22.6419 22.754 22.666 22.7122C22.69 22.6705 22.7026 22.6231 22.7025 22.5749V16.0147C22.7025 15.914 22.6483 15.8219 22.5617 15.7721L21.2093 15.0139C21.1882 15.0034 21.1646 14.9987 21.1411 15.0003ZM6.53082 18.285C6.4878 18.2852 6.44552 18.2961 6.40788 18.317L4.13648 19.633C4.09486 19.657 4.06033 19.6916 4.03636 19.7333C4.0124 19.7749 3.99986 19.8222 4 19.8702L4.00488 23.4014C4.00488 23.4512 4.02979 23.4967 4.07311 23.5205C4.09371 23.5329 4.1173 23.5395 4.14135 23.5395C4.1654 23.5395 4.189 23.5329 4.20959 23.5205L5.55651 22.7439C5.59858 22.7198 5.63367 22.6853 5.65836 22.6436C5.68304 22.6019 5.69647 22.5546 5.69732 22.5061V20.8575C5.69732 20.7595 5.74931 20.6691 5.83434 20.6203L6.40788 20.2867C6.44926 20.2624 6.49639 20.2497 6.54436 20.2499C6.59093 20.2499 6.63914 20.2618 6.68084 20.2867L7.25437 20.6203C7.3394 20.6691 7.39139 20.7595 7.39085 20.8575V22.5067C7.39085 22.6052 7.44718 22.694 7.53166 22.745L8.87912 23.521C8.89972 23.5335 8.92331 23.54 8.94736 23.54C8.97141 23.54 8.99501 23.5335 9.0156 23.521C9.03652 23.509 9.05388 23.4916 9.06596 23.4707C9.07803 23.4498 9.08439 23.426 9.08438 23.4019L9.08872 19.8708C9.08907 19.8226 9.07662 19.7752 9.05264 19.7334C9.02866 19.6917 8.99401 19.657 8.95224 19.633L6.68084 18.3175C6.64322 18.2966 6.60092 18.2857 6.5579 18.2856H6.53082V18.285ZM26.9398 18.317C26.8919 18.317 26.8448 18.3297 26.8034 18.3538L24.532 19.6693C24.4903 19.6934 24.4557 19.7281 24.4318 19.7698C24.4078 19.8116 24.3953 19.8589 24.3955 19.9071V22.5381C24.3955 22.6372 24.4507 22.7271 24.5363 22.7764L26.7893 24.0643C26.8299 24.0881 26.8759 24.1011 26.923 24.1018C26.9701 24.1026 27.0166 24.0911 27.0579 24.0686L28.4232 23.306C28.4436 23.3176 28.4667 23.3237 28.4902 23.3237C28.5137 23.3237 28.5368 23.3176 28.5572 23.306C28.5776 23.2944 28.5946 23.2776 28.6066 23.2574C28.6186 23.2372 28.6251 23.2143 28.6255 23.1908C28.626 23.1673 28.6203 23.1441 28.609 23.1235C28.5978 23.1029 28.5814 23.0856 28.5614 23.0732C28.5414 23.0609 28.5186 23.0539 28.4951 23.053C28.4717 23.0522 28.4484 23.0574 28.4276 23.0683L26.1432 21.7522C26.1217 21.7395 26.1037 21.7216 26.0911 21.7001C26.0784 21.6786 26.0713 21.6542 26.0706 21.6293V20.8066C26.0714 20.7823 26.0785 20.7585 26.0912 20.7377C26.1039 20.717 26.1218 20.6998 26.1432 20.688L26.8532 20.2764C26.8739 20.2643 26.8974 20.258 26.9214 20.258C26.9454 20.258 26.9689 20.2643 26.9897 20.2764L27.6997 20.688C27.7206 20.7001 27.7379 20.7175 27.7499 20.7384C27.7619 20.7593 27.7681 20.7831 27.7679 20.8072V21.4554C27.7677 21.4795 27.7739 21.5031 27.7858 21.524C27.7977 21.5449 27.815 21.5623 27.8357 21.5744C27.8565 21.5865 27.8801 21.5928 27.9042 21.5929C27.9282 21.5929 27.9518 21.5866 27.9726 21.5746L29.3336 20.7796C29.3752 20.7554 29.4097 20.7207 29.4337 20.6789C29.4576 20.6372 29.4702 20.5899 29.4701 20.5418V19.9071C29.4702 19.8589 29.4576 19.8117 29.4337 19.7699C29.4097 19.7282 29.3752 19.6935 29.3336 19.6693L27.0763 18.3533C27.0348 18.3293 26.9877 18.3167 26.9398 18.317ZM20.1484 20.2813C20.1612 20.2812 20.1739 20.2844 20.1852 20.2905L20.9635 20.7427C20.9742 20.7486 20.9831 20.7573 20.9895 20.7677C20.9959 20.7781 20.9994 20.7901 20.9997 20.8023V21.7067C20.9994 21.719 20.9959 21.7309 20.9895 21.7413C20.9831 21.7518 20.9742 21.7604 20.9635 21.7663L20.1852 22.2185C20.1748 22.2245 20.1631 22.2276 20.1511 22.2276C20.1391 22.2276 20.1274 22.2245 20.117 22.2185L19.3387 21.7663C19.328 21.7604 19.319 21.7518 19.3127 21.7413C19.3063 21.7309 19.3028 21.719 19.3024 21.7067V20.8023C19.3024 20.7779 19.3176 20.7552 19.3387 20.7427L20.117 20.2905C20.1265 20.2845 20.1376 20.2813 20.1489 20.2813H20.1484Z" fill="white"/>
<path d="M13.3534 18.3035C13.3055 18.3033 13.2584 18.3158 13.2169 18.3398L10.9461 19.6509C10.9042 19.6759 10.8697 19.7114 10.8457 19.7539C10.8218 19.7963 10.8093 19.8443 10.8096 19.893V22.5251C10.8096 22.6226 10.861 22.713 10.9461 22.7623L13.2169 24.0784C13.2584 24.1026 13.3056 24.1154 13.3537 24.1154C13.4017 24.1154 13.4489 24.1026 13.4904 24.0784L15.7613 22.7623C15.8029 22.7382 15.8375 22.7035 15.8614 22.6618C15.8854 22.62 15.8979 22.5727 15.8977 22.5246V19.8936C15.898 19.8448 15.8855 19.7969 15.8616 19.7544C15.8377 19.712 15.8031 19.6765 15.7613 19.6515L13.4904 18.3408C13.4488 18.3166 13.4015 18.3039 13.3534 18.304V18.3035ZM26.9352 20.6518C26.9265 20.6518 26.9163 20.6518 26.9081 20.6561L26.4711 20.9117C26.4629 20.9164 26.4562 20.9231 26.4514 20.9311C26.4466 20.9392 26.4441 20.9484 26.444 20.9578V21.4604C26.444 21.4793 26.4548 21.4966 26.4711 21.5058L26.9081 21.7571C26.9244 21.7669 26.9417 21.7669 26.958 21.7571L27.395 21.5058C27.403 21.5012 27.4098 21.4946 27.4145 21.4866C27.4192 21.4787 27.4219 21.4696 27.4221 21.4604V20.9578C27.4219 20.9484 27.4194 20.9392 27.4146 20.9312C27.4099 20.9231 27.4031 20.9164 27.395 20.9117L26.958 20.6561C26.9498 20.6512 26.9444 20.6518 26.9352 20.6518Z" fill="white" fill-opacity="0.7"/>
</svg>
