<svg width="40" height="40" viewBox="0 0 40 40" fill="none" xmlns="http://www.w3.org/2000/svg">
<rect width="40" height="40" rx="6" fill="#32335C"/>
<path d="M10.5209 33.8385C6.13256 30.638 3.48241 24.7694 4.08496 19.5864C4.77353 13.6635 8.06424 8.99124 13.291 6.51532C15.7574 5.34697 18.9234 4.78562 21.4136 5.07513C27.3365 5.7637 32.0088 9.0544 34.4847 14.2811C35.653 16.7475 36.2144 19.9135 35.9249 22.4038C35.4624 26.3816 33.9397 29.617 31.2803 32.2722C30.2136 33.3372 28.4517 34.6981 28.4434 34.4634C28.4412 34.4015 28.2275 32.892 27.9686 31.1091L27.4977 27.8675L27.9663 27.3201C28.224 27.0191 28.6887 26.2847 28.9991 25.6882C30.5301 22.7454 30.5308 19.246 29.0009 16.3055C26.4169 11.3388 20.2902 9.41087 15.3154 11.9991C10.3469 14.584 8.42064 20.7097 11.0108 25.6882C11.3211 26.2847 11.7852 27.0184 12.0422 27.3185L12.5093 27.8643L12.0507 31.1504C11.7985 32.9577 11.5682 34.4603 11.5391 34.4895C11.5099 34.5186 11.0517 34.2257 10.5209 33.8385Z" fill="white"/>
<path fill-rule="evenodd" clip-rule="evenodd" d="M16.2919 35.1688C16.2919 35.1282 16.7304 32.7251 17.2663 29.8286L18.2408 24.5623L16.8676 23.2279C15.7811 22.1721 15.4416 21.6808 15.2419 20.8748C14.7669 18.9575 15.0604 17.631 16.2521 16.3092C17.2829 15.1658 18.4708 14.6315 19.9819 14.6315C21.5286 14.6315 22.7265 15.186 23.7414 16.3717C25.6366 18.5859 25.2645 21.429 22.8017 23.5508L21.6945 24.5047L22.4594 28.7341C22.8801 31.0602 23.3117 33.4763 23.4185 34.103L23.6126 35.2426H19.9523C17.9391 35.2426 16.2919 35.2094 16.2919 35.1688Z" fill="white"/>
</svg>
