<svg width="40" height="40" viewBox="0 0 40 40" fill="none" xmlns="http://www.w3.org/2000/svg">
<rect width="40" height="40" rx="6" fill="#32335C"/>
<path d="M13.0304 9.35231C13.2686 9.06123 13.7449 8.84953 13.983 9.08769C14.2212 9.29939 14.2741 9.72278 14.0624 10.0139C13.8772 10.252 13.2686 10.5166 12.9775 10.2256C12.7128 9.93448 12.8716 9.53755 13.0304 9.35231Z" fill="white"/>
<path d="M35.6825 22.3983C35.5766 22.3453 35.4443 22.3189 35.312 22.266C32.0571 21.0222 24.9388 18.4554 24.4625 18.2702C24.5948 17.9262 24.3302 17.2382 23.9862 17.0529C23.6951 16.9206 20.0433 15.5181 17.4236 14.4596C16.7091 14.1686 15.73 13.6128 15.5712 12.6602C15.2537 14.0098 16.2328 14.7507 16.762 14.9889C17.3971 15.2535 23.0071 17.5292 23.457 17.7409C23.7216 17.8732 23.801 18.3496 23.6157 18.773C25.2035 19.3551 32.7452 22.1336 35.1532 23.0863C35.2855 23.1392 35.4178 23.1921 35.4972 23.2186C35.5501 23.2451 35.6031 23.2715 35.656 23.2715C35.7089 23.0069 35.7618 22.7158 35.8148 22.4512C35.7883 22.4247 35.7354 22.4247 35.6825 22.3983ZM34.9415 24.1448C34.3329 24.1977 33.5919 24.1712 32.7716 23.8272C31.9248 23.4832 26.1032 21.1545 25.0447 20.7841C25.865 21.2604 30.6017 23.642 31.6602 24.1712C30.8928 24.7269 26.6589 23.7214 25.4416 23.0334C27.8232 25.3356 32.2159 25.4679 32.851 24.8592C33.3538 25.0709 33.9889 25.1239 34.6504 25.0709C34.7827 25.0709 34.9151 25.0445 35.0474 25.018C35.1003 25.018 35.1797 24.9916 35.2326 24.9916C35.3384 24.674 35.4443 24.3565 35.5237 24.0125C35.4708 24.0125 35.4178 24.0389 35.3384 24.0389C35.2061 24.0918 35.0738 24.1183 34.9415 24.1448ZM26.2619 24.0918C24.5154 23.6685 22.2397 22.6364 21.6311 21.3927C22.5308 21.6573 23.6157 21.3662 24.2244 20.6253C22.6366 21.2604 16.7356 18.8788 16.2857 15.4917C16.074 17.2911 17.0267 18.5877 17.6617 19.0376C17.2119 19.4345 17.0002 20.0431 17.0531 20.7047C16.3916 20.3607 15.8888 18.8788 15.9682 17.9526C15.4125 18.1908 15.2008 18.5613 14.9362 19.0376C14.7509 18.1643 14.9891 17.1852 15.4389 16.7618C15.1478 16.6825 14.8038 16.656 14.5392 16.7089C14.6715 16.3384 14.9891 15.9151 15.5712 15.5181C14.8038 15.571 13.613 16.312 13.4278 17.4234C13.7718 17.344 14.2481 17.3969 14.5128 17.4763C14.1688 18.2966 14.1688 19.6462 14.8832 20.7047C14.9362 20.3342 15.1478 19.6462 15.5977 19.3287C15.5183 20.3078 16.2328 21.922 17.7147 22.2395C17.6882 21.7103 17.7676 21.0752 18.0058 20.6518C18.6673 23.1921 20.1492 24.1977 21.684 24.0654C21.0754 23.7214 20.2815 22.9804 20.2021 21.8426C21.2077 23.4568 25.2299 24.5417 26.2619 24.0918ZM21.684 7.31486C21.0754 7.15609 20.3609 6.99732 19.2495 7.02378L19.7258 7.42071C20.2815 7.39425 20.5461 7.42071 20.8107 7.44717C20.4138 7.63241 20.0169 7.79118 19.6464 7.92349C19.4082 8.02934 19.1701 8.10873 18.9319 8.18811C17.4236 8.74382 16.2328 9.19367 15.6506 10.0405C15.5183 9.72292 15.6506 9.11429 15.9417 8.66443C15.0685 9.00844 14.7245 10.014 14.9097 11.3636C14.3011 12.2897 14.1423 13.5864 15.2272 14.9889C14.1688 11.5488 17.3971 9.98754 21.3664 8.21458C21.0224 8.0558 20.3609 8.02934 20.3609 8.02934C20.7049 7.81764 21.1548 7.55302 21.684 7.31486ZM28.5112 33.4065C28.4054 33.3271 28.2995 33.2477 28.1937 33.1683C27.7967 32.8508 27.4263 32.4539 27.1087 31.9776C27.241 32.5068 27.5057 32.9567 27.8761 33.3536C27.9555 33.433 28.0614 33.5388 28.1407 33.6182C28.1937 33.6711 28.2201 33.6976 28.2731 33.7241C28.4054 33.6447 28.5112 33.5653 28.6435 33.4859C28.5906 33.4594 28.5377 33.433 28.5112 33.4065ZM29.9137 32.3745C29.7814 32.3216 29.6491 32.2686 29.5432 32.1893C29.014 31.9246 28.5377 31.5542 28.1937 31.1308C28.4583 31.66 28.8288 32.0834 29.2522 32.4009C29.358 32.4803 29.4639 32.5597 29.5697 32.6126C29.6226 32.6391 29.6756 32.6656 29.702 32.692C29.8343 32.5862 29.9666 32.5068 30.0725 32.4009C30.0196 32.4274 29.9666 32.4009 29.9137 32.3745ZM32.2424 30.0987C32.1101 30.0458 32.0042 29.9929 31.8719 29.9664C30.39 29.3843 28.7758 28.6169 27.4527 27.7436C26.1296 26.8704 26.1032 25.6266 25.0182 24.7005C25.4945 26.4999 24.1714 27.1614 23.0336 27.2144C23.2188 27.5584 23.9597 27.7965 24.6213 27.7172C24.3567 28.6433 22.7954 28.9609 22.028 28.8021C24.0391 31.0249 23.6422 33.8299 27.1881 33.5124C25.177 33.1948 24.3567 30.9191 24.2244 29.7283C25.0447 30.7603 26.3678 31.1572 27.241 31.1572C26.7383 30.2046 26.4472 29.3578 26.3942 28.1935C28.0614 29.3049 29.6756 30.0987 31.2104 30.7074C31.3427 30.7603 31.4485 30.8132 31.5808 30.8397C31.6337 30.8661 31.6867 30.8926 31.7396 30.8926C31.9513 30.6544 32.163 30.4163 32.3747 30.1781C32.3482 30.1252 32.2953 30.0987 32.2424 30.0987ZM21.3135 24.7534C22.1074 27.135 20.9695 27.6113 19.8052 27.5584C18.6144 27.479 18.0587 26.8439 17.8734 25.5473C18.4027 25.5737 19.1701 25.415 19.6464 24.9916C14.0629 24.33 10.12 19.5668 10.1994 17.6086C10.7551 18.1908 12.1312 18.4025 12.8986 17.6086C11.9195 17.3705 11.0727 16.2061 11.1785 15.1741C11.9195 15.7827 12.7663 15.4652 13.0573 14.8036C11.6284 15.0947 10.2524 12.8984 11.0727 10.5432C11.8401 8.32042 14.01 7.60595 15.3595 7.89703C15.2272 8.10873 15.1478 8.39981 15.2802 8.77028C15.6506 8.16165 16.471 7.81764 17.5294 7.60595L17.0531 7.20902C16.7091 7.26194 16.418 7.36779 16.074 7.5001C14.5392 6.81208 11.1521 7.31486 8.87633 11.6017C9.2468 11.3106 9.69665 11.1254 9.88189 11.0989C9.27326 12.0516 8.53232 13.6393 8.29416 14.9624C8.55878 14.7243 8.92925 14.5126 9.27326 14.4332C8.40001 18.0849 10.7816 22.0278 13.5601 23.6685C13.4807 24.4888 13.6924 24.9386 14.4334 25.759C14.3804 25.8383 14.1688 26.1294 14.0364 26.2882C13.9571 26.394 13.8512 26.5264 13.666 26.4999C13.2161 26.4734 8.4794 25.1503 8.056 24.8063C7.8443 23.8272 6.54766 22.8746 5.48918 23.3509C5.22455 23.298 5.03932 23.3509 4.93347 23.4832C4.85409 23.5626 4.80116 23.6684 4.74824 23.7478C4.82762 23.6949 4.90701 23.6685 4.95993 23.6685C5.14517 23.642 5.3304 23.6949 5.43625 23.8008C5.59502 24.2771 6.44181 23.4038 7.18275 24.674C6.81228 24.5682 5.70087 24.33 5.19809 24.4888C5.09224 24.5152 5.01286 24.5946 4.95993 24.674C4.93347 24.674 4.90701 24.674 4.85409 24.674C4.80116 24.674 4.74824 24.674 4.69531 24.7005C4.74824 24.8063 4.7747 24.9122 4.80116 25.018C4.85409 25.018 4.90701 25.018 4.93347 25.0445L4.95993 25.0709C5.03932 25.1503 5.19809 25.1768 5.40979 25.2033C6.12427 25.2562 7.36799 25.0974 8.10893 25.759C8.95571 26.6322 8.34708 27.1085 8.92925 27.3731C8.90279 27.6642 8.66463 27.7436 8.45293 27.823C8.74402 27.9818 9.16741 27.9818 9.35265 27.5055C9.90835 27.3731 9.48496 26.2088 8.90279 25.8913C9.98774 26.2882 12.7927 27.0821 13.5601 27.2673C13.9571 27.3467 14.2481 27.2673 14.4334 27.0291C14.5657 26.8439 14.7774 26.6322 14.9626 26.3676C15.3595 26.6851 15.6771 26.7381 16.0211 26.6851C15.9417 25.9971 16.1799 25.415 16.6033 25.1239C16.8414 27.6642 18.0058 28.7756 19.4082 28.8286C19.6199 29.0667 20.3873 30.4692 20.4667 30.628C20.5461 30.7603 20.652 31.0249 20.4932 31.1308C20.2021 31.2895 16.4974 32.1363 15.3331 32.4274C14.7509 31.9246 12.8456 31.2631 12.581 32.3745C12.1841 32.692 12.1841 33.0096 12.4487 33.2742C12.4223 32.9037 12.5016 32.8508 12.8192 32.6126C13.2955 32.8508 13.4543 32.1363 14.5657 32.745C13.8512 33.0096 13.1367 33.3007 12.8986 33.777C12.8456 33.8828 12.8192 34.0151 12.8192 34.1474C12.8192 34.2004 12.8192 34.2798 12.8456 34.3327C12.978 34.4121 13.1103 34.465 13.2426 34.5179C13.2955 34.5179 13.3484 34.465 13.3749 34.4121C13.4278 34.3327 13.5072 34.2533 13.6395 34.121C13.8777 33.8828 14.354 33.5388 15.3595 33.1948C16.6827 33.5653 16.8943 34.5179 17.2648 34.5444C17.4236 34.7561 17.3442 35.0207 17.1854 35.2059C17.159 35.2589 17.106 35.2853 17.0796 35.3382C17.2119 35.3382 17.3177 35.3118 17.4236 35.2589C17.7411 35.1001 17.7941 34.7032 17.6353 34.465C18.1116 33.7241 16.7356 32.9831 16.2328 32.9567C17.2913 32.6656 20.5726 31.8982 21.1548 31.6335C21.6046 31.4219 21.6311 31.0249 21.34 30.5486C21.2077 30.3369 20.599 29.0667 20.4667 28.8021C22.9277 28.4052 22.4514 25.5473 21.3135 24.7534Z" fill="white"/>
<path d="M32.2167 14.0364C32.1637 12.3957 31.1053 12.1311 30.4172 12.0782C30.0468 12.0517 29.8351 12.0517 29.6234 12.0253C28.8824 11.496 27.5064 10.7815 27.3476 10.6757C27.1359 10.5434 26.739 10.3052 26.2098 10.2258C26.6067 10.1994 26.7919 10.0935 26.9242 9.98767C27.0566 9.88182 27.083 9.8289 27.2418 9.77597C27.4006 9.72305 27.3476 9.51135 27.1624 9.37904C26.9772 9.24673 26.8449 9.08796 26.7125 9.4055C26.5538 9.72305 26.3685 9.77597 26.1304 9.77597C25.8922 9.77597 25.8128 10.12 25.6276 10.1464C24.1193 10.2523 22.214 9.43197 21.129 8.79688L20.5469 9.11442C21.1555 9.45843 21.9229 9.80244 22.1081 9.88182C22.3728 9.98767 23.3783 10.3846 23.6694 10.4111C23.4842 11.84 23.6429 12.5016 23.8282 13.4013C23.8811 13.6394 23.987 14.1422 23.5371 14.3539C24.0134 14.7509 24.4103 14.0099 24.5427 14.1687C24.675 14.3275 24.9396 14.301 24.9396 14.301C23.8282 12.7397 24.0134 11.9194 24.0399 10.5434C25.8658 10.5963 26.8978 10.9668 27.4799 11.3372C28.2209 11.7606 29.1735 12.2105 29.7822 12.4222C30.92 12.872 31.264 14.0893 31.2376 14.9625C30.8142 13.216 29.5175 12.8456 29.0148 12.6868C27.9033 13.9834 28.7237 15.4124 29.7822 15.7829C30.6554 16.074 31.608 16.4974 31.7933 17.3441C32.1637 16.4444 32.2696 15.7035 32.2167 14.0364Z" fill="white"/>
<path d="M17.9005 7.34142C16.7362 6.28293 15.7571 6.04477 15.3073 6.49463C14.9632 6.81217 14.5928 6.23001 14.6457 6.04477C14.7516 5.59492 15.1749 5.85954 15.5983 5.75369C16.6304 5.48907 18.8003 7.20911 18.8003 7.20911L19.6735 7.95005L18.9855 8.24113L17.9005 7.34142Z" fill="white"/>
<path d="M31.2368 30.6811C31.0251 30.8928 30.8398 31.1045 30.6281 31.2897C30.2841 31.6073 29.9137 31.9248 29.5432 32.2159C29.6755 32.2688 29.7813 32.3482 29.9137 32.4012C29.9137 32.4012 29.9137 32.4011 29.9401 32.3747C30.0195 32.2953 30.0989 32.2424 30.1783 32.163C30.2047 32.1365 30.2047 32.1365 30.2312 32.1101C30.2841 32.0571 30.337 32.0307 30.3635 31.9778C30.5223 31.8454 30.6811 31.6867 30.8398 31.5544C30.9457 31.4485 31.078 31.3427 31.1838 31.2104C31.2632 31.131 31.3161 31.078 31.3955 30.9987C31.4749 30.9193 31.5278 30.8663 31.6072 30.787C31.4749 30.7605 31.3691 30.734 31.2368 30.6811ZM29.2521 32.4276C28.9081 32.6922 28.5376 32.9304 28.1936 33.1686C28.2995 33.2479 28.4053 33.3273 28.5112 33.4067C28.8816 33.1686 29.2256 32.9304 29.5696 32.6658C29.4638 32.5864 29.3579 32.507 29.2521 32.4276ZM31.6602 9.0351C28.7493 5.93904 24.78 4.13961 20.4931 4.0073C11.6813 3.74268 4.27186 10.7022 4.00724 19.5406C3.95431 21.34 4.19247 23.0865 4.69525 24.7271C4.74818 24.8065 4.77464 24.9124 4.8011 25.0182C6.15067 29.0669 9.0615 32.4276 12.8456 34.3329C12.9779 34.4123 13.1102 34.4652 13.2425 34.5181C15.1478 35.4178 17.2648 35.9471 19.4876 36C19.6463 36 19.8316 36 19.9904 36C22.9277 36 25.7591 35.2061 28.2465 33.6978C28.3788 33.6184 28.4847 33.539 28.617 33.4596C28.9875 33.2215 29.3315 32.9833 29.6755 32.7187C29.8078 32.6128 29.9401 32.5335 30.046 32.4276C30.3635 32.1895 30.6546 31.9248 30.9457 31.6337C31.2103 31.3691 31.4749 31.1045 31.7395 30.8399C31.9512 30.6017 32.1629 30.3636 32.3746 30.1254C33.6448 28.5906 34.5974 26.8441 35.2061 24.9918C35.3119 24.6742 35.4178 24.3567 35.4972 24.0127C35.5765 23.748 35.6295 23.5099 35.6824 23.2453C35.7353 22.9806 35.7882 22.6896 35.8412 22.4249C35.947 21.7898 35.9999 21.1283 36.0264 20.4667C36.1322 16.2328 34.5974 12.1576 31.6602 9.0351ZM35.4707 20.4932C35.4442 21.1018 35.3913 21.684 35.3119 22.2662C35.2855 22.5308 35.2325 22.8219 35.1796 23.0865C35.1002 23.4305 35.0208 23.801 34.915 24.145C34.8356 24.4625 34.7298 24.7801 34.6239 25.0976C34.0153 26.8706 33.0891 28.5112 31.8718 29.9666C31.6602 30.2048 31.4485 30.4694 31.2368 30.6811C31.0251 30.8928 30.8398 31.1045 30.6281 31.2897C30.2841 31.6073 29.9137 31.9248 29.5432 32.2159C29.4373 32.2953 29.3579 32.3747 29.2521 32.4276C28.9081 32.6922 28.5376 32.9304 28.1936 33.1686C28.0878 33.2215 27.9819 33.3009 27.9025 33.3538C25.4151 34.8357 22.5307 35.5766 19.567 35.4972C18.8525 35.4708 18.1645 35.4178 17.45 35.2855C17.3706 35.2855 17.2912 35.2591 17.2383 35.2591C16.021 35.0474 14.8302 34.6504 13.6924 34.1476C13.4277 34.0418 13.1896 33.9095 12.925 33.7772C11.3902 32.9833 9.98768 31.9248 8.77042 30.6282C7.28854 29.0405 6.15067 27.2146 5.46265 25.2299C5.38327 24.9918 5.30388 24.7536 5.22449 24.5154C5.14511 24.2508 5.06572 23.9597 5.0128 23.6951C4.98634 23.6157 4.98634 23.5628 4.95987 23.5099C4.64233 22.1868 4.51002 20.8901 4.53648 19.5406C4.8011 11.1785 11.6813 4.53655 20.0168 4.53655C20.1756 4.53655 20.3344 4.53655 20.4931 4.53655C24.6212 4.66886 28.4582 6.38889 31.2897 9.40557C34.1211 12.4223 35.603 16.3386 35.4707 20.4932ZM29.2521 32.4276C28.9081 32.6922 28.5376 32.9304 28.1936 33.1686C28.2995 33.2479 28.4053 33.3273 28.5112 33.4067C28.8816 33.1686 29.2256 32.9304 29.5696 32.6658C29.4638 32.5864 29.3579 32.507 29.2521 32.4276ZM31.2368 30.6811C31.0251 30.8928 30.8398 31.1045 30.6281 31.2897C30.2841 31.6073 29.9137 31.9248 29.5432 32.2159C29.6755 32.2688 29.7813 32.3482 29.9137 32.4012C29.9137 32.4012 29.9137 32.4011 29.9401 32.3747C30.0195 32.2953 30.0989 32.2424 30.1783 32.163C30.2047 32.1365 30.2047 32.1365 30.2312 32.1101C30.2841 32.0571 30.337 32.0307 30.3635 31.9778C30.5223 31.8454 30.6811 31.6867 30.8398 31.5544C30.9457 31.4485 31.078 31.3427 31.1838 31.2104C31.2632 31.131 31.3161 31.078 31.3955 30.9987C31.4749 30.9193 31.5278 30.8663 31.6072 30.787C31.4749 30.7605 31.3691 30.734 31.2368 30.6811ZM29.2521 32.4276C28.9081 32.6922 28.5376 32.9304 28.1936 33.1686C28.2995 33.2479 28.4053 33.3273 28.5112 33.4067C28.8816 33.1686 29.2256 32.9304 29.5696 32.6658C29.4638 32.5864 29.3579 32.507 29.2521 32.4276ZM31.2368 30.6811C31.0251 30.8928 30.8398 31.1045 30.6281 31.2897C30.2841 31.6073 29.9137 31.9248 29.5432 32.2159C29.6755 32.2688 29.7813 32.3482 29.9137 32.4012C29.9137 32.4012 29.9137 32.4011 29.9401 32.3747C30.0195 32.2953 30.0989 32.2424 30.1783 32.163C30.2047 32.1365 30.2047 32.1365 30.2312 32.1101C30.2841 32.0571 30.337 32.0307 30.3635 31.9778C30.5223 31.8454 30.6811 31.6867 30.8398 31.5544C30.9457 31.4485 31.078 31.3427 31.1838 31.2104C31.2632 31.131 31.3161 31.078 31.3955 30.9987C31.4749 30.9193 31.5278 30.8663 31.6072 30.787C31.4749 30.7605 31.3691 30.734 31.2368 30.6811Z" fill="white"/>
</svg>
