<svg width="40" height="40" viewBox="0 0 40 40" fill="none" xmlns="http://www.w3.org/2000/svg">
<rect width="40" height="40" rx="6" fill="#32335C"/>
<path d="M20 28.6579C28.8366 28.6579 36 24.9289 36 20.329C36 15.729 28.8366 12 20 12C11.1634 12 4 15.729 4 20.329C4 24.9289 11.1634 28.6579 20 28.6579Z" fill="white"/>
<path d="M8.49219 25.2608L10.2458 16.384H14.3008C16.0544 16.4928 16.9312 17.3696 16.9312 18.9043C16.9312 21.5347 14.8487 23.0688 12.9856 22.9587H11.0131L10.5747 25.2601H8.49283L8.49219 25.2608ZM11.4515 21.3152H12.7667C13.7523 21.2057 14.6291 20.8768 14.7392 19.0137C14.7392 18.3558 14.1914 18.0275 13.424 18.0275H11.9994L11.4515 21.3152ZM16.5235 22.9587L18.2771 14.0819H20.3591L19.9207 16.3833H21.8931C23.6467 16.4934 24.304 17.3696 24.0851 18.4659L23.3178 22.9587H21.1264L21.8931 18.9043C22.0026 18.3558 22.0026 18.0275 21.2359 18.0275H19.5917L18.6061 22.9587H16.5235ZM23.1776 25.2601L24.9312 16.3833H28.9856C30.7392 16.4934 31.616 17.3696 31.616 18.9043C31.616 21.5347 29.5335 23.0688 27.6704 22.9587H25.6979L25.2595 25.2601H23.1776ZM26.6848 18.0275L26.1363 21.3152H27.4515C28.4378 21.2057 29.3139 20.8768 29.424 19.0137C29.424 18.3558 28.8762 18.0275 28.1088 18.0275H26.6842H26.6848Z" fill="#32335C"/>
</svg>
