<svg width="40" height="40" viewBox="0 0 40 40" fill="none" xmlns="http://www.w3.org/2000/svg">
<rect width="40" height="40" rx="6" fill="#32335C"/>
<path d="M26.8606 27.5673C27.0423 26.0411 26.9878 25.8172 28.1151 26.0645L28.4014 26.0898C29.2682 26.1296 30.4021 25.9492 31.0683 25.6371C32.5023 24.9661 33.3526 23.8458 31.9386 24.1402C28.7131 24.8112 28.4914 23.7098 28.4914 23.7098C31.8973 18.6137 33.3211 12.1447 32.0921 10.5612C28.7401 6.24199 22.9379 8.28443 22.8408 8.33746L22.8099 8.34321C22.1726 8.20987 21.4594 8.13019 20.6582 8.11713C19.1985 8.09295 18.091 8.50301 17.2508 9.14563C17.2508 9.14563 6.89999 4.84526 7.38153 14.5538C7.48394 16.619 10.3171 30.1814 13.6963 26.0849C14.9313 24.587 16.1249 23.3204 16.1249 23.3204C16.7175 23.7175 17.4271 23.9201 18.1713 23.8473L18.2289 23.7978C18.2108 23.9838 18.2188 24.1657 18.2519 24.3811C17.3815 25.3619 17.6373 25.5341 15.8969 25.8954C14.1361 26.2613 15.1706 26.9129 15.8458 27.0831C16.6646 27.2896 18.5587 27.5821 19.8389 25.7753L19.7879 25.9814C20.1294 26.2569 20.1063 27.9615 20.1548 29.1795C20.2032 30.3974 20.2841 31.534 20.5303 32.2041C20.7765 32.8741 21.067 34.6001 23.3543 34.1058C25.2659 33.6926 26.7274 33.0981 26.8606 27.5673L26.8606 27.5673Z" fill="#E5E5E5"/>
<path d="M22.6088 35.4C21.8968 35.4 21.1194 35.2124 20.4767 34.6007C19.8561 34.01 19.6121 33.256 19.4663 32.8055C19.4434 32.7348 19.4219 32.6681 19.4058 32.6243C19.1134 31.8285 19.0147 30.6911 18.9565 29.2281C18.9478 29.0118 18.9414 28.7805 18.9349 28.5445C18.9309 28.399 18.9262 28.2306 18.9202 28.0543C17.9372 28.4889 16.7849 28.5665 15.5547 28.2564C15.2135 28.1703 14.8716 28.025 14.5922 27.8473C14.372 27.7072 14.2063 27.5563 14.082 27.4046C13.1013 28.2282 12.1689 28.1075 11.6557 27.935C10.7401 27.627 9.92458 26.7693 9.16243 25.3129C8.62495 24.2859 8.10541 22.9489 7.61815 21.3391C6.77039 18.5382 6.23191 15.585 6.18378 14.6143C6.03213 11.5571 6.85205 9.36815 8.62075 8.10827C10.0813 7.06779 12.0781 6.74807 14.5558 7.15832C15.6092 7.33272 16.5214 7.60595 17.0899 7.79967C18.1165 7.18532 19.318 6.88644 20.6777 6.90826C21.4032 6.9201 22.0946 6.98398 22.7376 7.09839C23.4282 6.88246 24.7521 6.5822 26.26 6.6008C29.087 6.63484 31.4302 7.74665 33.0362 9.8161C33.643 10.598 34.1624 12.3265 33.1906 16.1208C32.5896 18.4674 31.5455 20.9602 30.2617 23.1463C30.6018 23.1365 31.068 23.0868 31.6962 22.9561C32.0566 22.8811 32.3612 22.8641 32.6271 22.9041C33.1911 22.9891 33.6273 23.3434 33.7938 23.8518C34.2795 25.3347 32.2166 26.4328 31.5728 26.7341C30.7581 27.1158 29.4316 27.3478 28.3466 27.2979L28.2964 27.2945L28.1015 27.2773C28.0956 27.3271 28.0899 27.3772 28.0842 27.4262C28.0758 27.4987 28.0671 27.5748 28.0577 27.6545C27.9849 30.4737 27.5827 32.2628 26.7554 33.4507C25.8803 34.7072 24.6705 35.058 23.6053 35.2882C23.3065 35.3528 22.9658 35.4 22.6088 35.4ZM20.5367 25.0374C21.2211 25.5895 21.2801 26.5965 21.3321 28.4772C21.3383 28.703 21.3444 28.9243 21.3526 29.1312C21.3771 29.7457 21.4344 31.1851 21.6545 31.7841C21.687 31.8726 21.7157 31.9613 21.7461 32.0552C21.9945 32.8231 22.0974 33.1409 23.1028 32.9236C23.9895 32.732 24.4439 32.5619 24.7929 32.0609C25.3152 31.3109 25.6075 29.7892 25.6617 27.538L26.8597 27.5674L25.6699 27.4233C25.6815 27.3258 25.6921 27.2336 25.7021 27.1466C25.8062 26.2454 25.8883 25.5335 26.5262 25.0739C26.9287 24.784 27.3814 24.7451 27.7741 24.7813C27.4501 24.4482 27.3475 24.1065 27.3161 23.9506L27.2162 23.4542L27.4969 23.0342C28.9828 20.8108 30.2101 18.0773 30.8639 15.5346C31.5971 12.6835 31.2742 11.4742 31.1476 11.3064C28.4828 7.87265 23.8454 9.27437 23.3343 9.44311L23.2449 9.49202L22.796 9.57542L22.5661 9.5273C21.9828 9.40525 21.3343 9.33762 20.6386 9.32628C19.5588 9.30781 18.6874 9.56446 17.9752 10.1092L17.4284 10.5274L16.7939 10.2638C15.5529 9.75225 11.9101 8.72187 10.0011 10.0858C8.94957 10.8371 8.47108 12.32 8.57889 14.4935C8.61618 15.2458 9.12288 18.0701 9.95853 20.7863C11.1067 24.5186 12.1201 25.5552 12.408 25.6396C12.4441 25.6244 12.5717 25.5573 12.7742 25.3118C14.0202 23.8006 15.2056 22.5405 15.2555 22.4876L15.9493 21.7513L16.7882 22.3135C17.0769 22.5069 17.394 22.6196 17.7198 22.6465L19.7106 20.9352L19.422 23.9155C19.4166 23.9719 19.414 24.0493 19.4366 24.1962L19.5234 24.7613L19.1452 25.1875C19.1418 25.1914 19.1384 25.1952 19.135 25.199L20.0652 25.6319L20.5367 25.0374Z" fill="#E5E5E5"/>
<path d="M22.7222 34.6515C20.7973 34.6517 20.1879 33.1151 19.9385 32.4865C19.5731 31.565 19.4937 28.1203 19.5771 25.1153C19.5833 24.8927 19.7667 24.7201 19.9878 24.7236C20.2085 24.7299 20.3823 24.9153 20.3762 25.1378C20.2833 28.4845 20.4142 31.515 20.6807 32.1872C21.0937 33.2281 21.7202 34.1387 23.49 33.7563C25.197 33.3873 25.8042 32.7675 26.0886 31.1039C26.3061 29.8328 26.7364 26.213 26.7896 25.4978C26.8061 25.2758 26.9987 25.1097 27.2181 25.1261C27.4382 25.1427 27.6033 25.3362 27.5867 25.5582C27.5313 26.3033 27.1024 29.9199 26.8763 31.2409C26.5388 33.2148 25.6664 34.1102 23.6575 34.5445C23.3155 34.6184 23.0046 34.6515 22.7222 34.6515Z" fill="#32335C"/>
<path d="M12.3851 27.2134C12.1994 27.2134 12.0308 27.179 11.8848 27.1299C10.6364 26.71 9.4501 24.6689 8.35873 21.0632C7.52954 18.3237 7.00423 15.4632 6.95811 14.5333C6.82102 11.7694 7.52825 9.81307 9.0602 8.71859C10.344 7.80142 12.143 7.52288 14.407 7.89049C16.0586 8.15877 17.3317 8.67874 17.3851 8.70075C17.5894 8.78497 17.6873 9.02028 17.6038 9.22631C17.5203 9.43232 17.287 9.53112 17.0826 9.44694C17.0241 9.42291 12.1856 7.47169 9.52093 9.37735C8.22762 10.3022 7.634 12.0234 7.75646 14.493C7.79519 15.2739 8.28505 18.0586 9.12326 20.8279C10.092 24.0284 11.1907 26.0467 12.1377 26.3652C12.283 26.414 12.725 26.5628 13.3649 25.7869C14.5945 24.2951 15.724 23.1044 15.7353 23.0926C15.8881 22.9318 16.1411 22.9265 16.3004 23.0806C16.4598 23.2345 16.4652 23.4897 16.3124 23.6504C16.3013 23.6621 15.1903 24.8334 13.9796 26.3023C13.3987 27.0064 12.8405 27.2134 12.3851 27.2134Z" fill="#32335C"/>
<path d="M28.4675 24.0726C28.3906 24.0726 28.313 24.0503 28.2445 24.0038C28.0614 23.8794 28.0131 23.6288 28.1364 23.4442C31.5726 18.3022 32.7837 12.0957 31.7541 10.7688C30.458 9.09876 28.6276 8.22582 26.3136 8.17425C24.602 8.13582 23.2326 8.57771 23.0074 8.65526C22.9887 8.6647 22.969 8.67275 22.9483 8.67929C22.7061 8.75586 22.5197 8.62163 22.4494 8.46438C22.3662 8.27849 22.4344 8.05862 22.6075 7.95309C22.757 7.86193 24.3308 7.34508 26.2137 7.36643C28.7964 7.39406 30.9298 8.39879 32.3836 10.272C32.7442 10.7367 32.9189 11.4972 32.903 12.5324C32.8886 13.4754 32.7123 14.6324 32.3932 15.8783C31.6969 18.597 30.3869 21.5189 28.7993 23.8948C28.7221 24.0103 28.5959 24.0726 28.4675 24.0726Z" fill="#32335C"/>
<path d="M28.6444 26.4565C28.0504 26.4566 27.5173 26.3719 27.1981 26.1791C26.8619 25.9761 26.7977 25.6985 26.7893 25.5511C26.702 24.0056 27.5225 23.6993 27.9776 23.567C27.9197 23.4832 27.8435 23.3873 27.765 23.2884C27.5089 22.9657 27.1581 22.5236 26.8872 21.8614C26.8458 21.7601 26.714 21.5218 26.5614 21.246C25.7294 19.7413 23.9981 16.6103 25.1172 14.9971C25.6316 14.2556 26.6463 13.9586 28.1382 14.1115C27.9398 13.5172 27.4427 12.4153 26.5247 11.3212C25.4594 10.0518 23.5716 8.52827 20.6278 8.47961C19.1337 8.45473 17.9075 8.91714 16.9867 9.85358C14.9228 11.9528 14.9927 15.7728 14.9937 15.8112C14.9992 16.0336 14.8249 16.2186 14.6044 16.2243C14.3862 16.2279 14.2004 16.0545 14.1946 15.8321C14.1901 15.6619 14.1122 11.6355 16.4163 9.28879C17.4966 8.18854 18.9185 7.64548 20.641 7.67358C23.8522 7.7267 25.9191 9.37288 27.0876 10.7445C28.361 12.2395 28.9858 13.8909 29.0373 14.4428C29.0786 14.8855 28.7413 14.9689 28.7027 14.9769L28.5586 14.9802C26.735 14.6858 26.0366 15.0782 25.7722 15.4592C24.9401 16.6587 26.5655 19.5982 27.2596 20.8534C27.4379 21.1759 27.5668 21.4089 27.6261 21.554C27.8535 22.1098 28.1505 22.484 28.3892 22.7847C28.6015 23.0522 28.7855 23.2841 28.8532 23.5597C28.8882 23.6168 29.3319 24.2261 31.8353 23.7052C32.493 23.5681 32.8889 23.6889 33.0119 24.0639C33.2494 24.7886 31.9395 25.6229 31.2137 25.9628C30.5675 26.2652 29.5373 26.4565 28.6444 26.4565ZM27.5857 25.4734C27.6829 25.5534 28.0958 25.6833 28.9072 25.645C29.6418 25.6102 30.415 25.4479 30.8771 25.2316C31.4145 24.98 31.7935 24.6997 32.0149 24.4909C32.009 24.4921 32.003 24.4933 31.9969 24.4946C30.3549 24.8364 29.1917 24.7895 28.5396 24.3555C28.4989 24.3284 28.4617 24.3007 28.4277 24.2729C28.3731 24.2921 28.3165 24.3081 28.2584 24.3246C27.8891 24.4292 27.54 24.5279 27.5857 25.4734Z" fill="#32335C"/>
<path d="M16.9987 27.6003C16.5927 27.6003 16.1671 27.5453 15.7252 27.4337C15.5983 27.4018 14.4853 27.1004 14.5001 26.3829C14.5137 25.7262 15.4428 25.5331 15.7926 25.4603C17.0223 25.205 17.1018 25.1032 17.4839 24.6141C17.5971 24.4691 17.7381 24.2886 17.9305 24.0719C18.5699 23.3504 19.1729 23.6025 19.4304 23.7101C19.8345 23.879 20.1712 24.2863 20.3094 24.7732C20.4345 25.2138 20.3745 25.6384 20.1404 25.9688C19.3802 27.0423 18.2903 27.6002 16.9987 27.6003ZM15.3858 26.4204C15.5017 26.5001 15.6994 26.5963 15.9191 26.6517C16.9857 26.9208 18.4708 26.9393 19.4899 25.5003C19.6107 25.3298 19.5737 25.1105 19.5409 24.995C19.4715 24.7504 19.3002 24.5282 19.1244 24.4548C18.9075 24.3641 18.7878 24.314 18.5263 24.6093C18.5262 24.6094 18.5261 24.6095 18.5261 24.6096C18.3505 24.8073 18.2237 24.9697 18.1118 25.1129C17.6239 25.7376 17.4006 25.9495 15.9539 26.2499C15.655 26.312 15.4826 26.3745 15.3858 26.4204ZM18.2283 24.3407H18.2289H18.2283Z" fill="#32335C"/>
<path d="M18.1718 24.7267C17.9778 24.7267 17.8075 24.5841 17.7772 24.3848C17.769 24.3312 17.7633 24.2774 17.7599 24.2233C16.8204 24.1979 15.9158 23.7881 15.2274 23.0638C14.3491 22.1397 13.9494 20.8596 14.1308 19.5517C14.3259 18.1443 14.2528 16.9015 14.2136 16.2338C14.2026 16.0473 14.1947 15.9126 14.1953 15.8187C14.1961 15.6958 14.1983 15.3694 15.2516 14.831C15.6223 14.6415 16.3656 14.3109 17.1781 14.2261C18.5333 14.0846 19.4272 14.6942 19.695 15.9426C20.4097 19.2759 19.7512 20.7513 19.2704 21.8286C19.1813 22.028 19.0972 22.2164 19.0302 22.3983L18.9706 22.5597C18.7188 23.2405 18.5013 23.8285 18.5673 24.2625C18.6008 24.4825 18.451 24.6883 18.2328 24.722C18.2123 24.7252 18.1919 24.7267 18.1718 24.7267ZM14.9978 15.9361C15.0008 16.0034 15.0059 16.0887 15.0115 16.1861C15.0524 16.8817 15.1286 18.1765 14.9224 19.6634C14.7752 20.7252 15.0967 21.7613 15.8045 22.5061C16.3612 23.0918 17.0933 23.416 17.8458 23.4183C17.9322 23.0604 18.0717 22.6835 18.2216 22.278L18.2808 22.1177C18.3573 21.9103 18.4467 21.7098 18.5414 21.4977C19.0009 20.4682 19.5728 19.1869 18.9137 16.113C18.7863 15.5192 18.4801 15.1741 17.9773 15.0579C16.8758 14.8034 15.3311 15.6381 14.9978 15.9361Z" fill="#32335C"/>
<path d="M17.1962 15.7635C17.1778 15.8953 17.4356 16.2472 17.7719 16.2942C18.1075 16.3414 18.3948 16.0664 18.413 15.9347C18.4312 15.8028 18.1737 15.6576 17.8373 15.6104C17.5015 15.5631 17.2141 15.6319 17.1963 15.7635H17.1962Z" fill="#32335C"/>
<path d="M17.8451 16.4336C17.8149 16.4337 17.7844 16.4316 17.7539 16.4273C17.5427 16.3978 17.3294 16.2637 17.1835 16.0686C17.1319 15.9996 17.0479 15.866 17.0647 15.7451C17.0709 15.6995 17.0941 15.6332 17.169 15.576C17.3022 15.4743 17.5655 15.4365 17.8562 15.4774C18.2128 15.5274 18.5806 15.6977 18.5454 15.9533C18.5172 16.1573 18.1971 16.4336 17.8451 16.4336ZM17.3307 15.789C17.3511 15.8791 17.5421 16.1264 17.7906 16.1612C18.0411 16.1964 18.2483 15.9965 18.2787 15.9238C18.2498 15.8811 18.0958 15.7823 17.8194 15.7435C17.5469 15.7052 17.3729 15.7558 17.3307 15.789Z" fill="#32335C"/>
<path d="M27.4193 15.4947C27.4375 15.6266 27.1799 15.9784 26.8436 16.0254C26.5077 16.0726 26.2204 15.7977 26.202 15.6659C26.1843 15.5341 26.4419 15.3888 26.7778 15.3416C27.1138 15.2944 27.401 15.3632 27.4193 15.4948V15.4947Z" fill="#32335C"/>
<path d="M26.7685 16.0978C26.4376 16.0979 26.1581 15.8314 26.1364 15.6753C26.1092 15.4746 26.4341 15.3221 26.7689 15.275C27.1044 15.228 27.4578 15.2851 27.4855 15.4854L27.4856 15.4854C27.498 15.5754 27.4302 15.7139 27.3129 15.8381C27.2359 15.9197 27.0739 16.0611 26.853 16.0919C26.8246 16.0959 26.7964 16.0978 26.7685 16.0978ZM26.9864 15.3935C26.9266 15.3935 26.8601 15.3979 26.7873 15.4081C26.4365 15.4574 26.2604 15.5983 26.2683 15.6568C26.2809 15.747 26.5338 16.0007 26.8347 15.9589C27.0154 15.9336 27.1515 15.8144 27.2164 15.7455C27.3178 15.6381 27.3582 15.5379 27.3536 15.5039C27.3472 15.4576 27.2156 15.3935 26.9864 15.3935Z" fill="#32335C"/>
<path d="M27.9052 23.0915C27.8287 23.0915 27.7515 23.0694 27.6832 23.0233C27.4998 22.8995 27.4507 22.6491 27.5735 22.4642C28.3544 21.2881 28.2109 20.0848 28.0722 18.9212C28.0127 18.4219 27.9512 17.9056 27.9672 17.409C27.9834 16.8987 28.0476 16.4783 28.1097 16.0718C28.1829 15.5925 28.252 15.1398 28.2233 14.6039C28.2114 14.3817 28.3805 14.1917 28.6009 14.1797C28.8212 14.1685 29.0097 14.3382 29.0216 14.5605C29.0547 15.1799 28.9759 15.6957 28.8998 16.1945C28.8413 16.5773 28.7808 16.9732 28.7662 17.435C28.7522 17.8704 28.8074 18.3341 28.8659 18.825C29.0147 20.0734 29.1833 21.4884 28.2377 22.9127C28.1606 23.0287 28.0341 23.0915 27.9052 23.0915Z" fill="#32335C"/>
</svg>
