<svg width="40" height="40" viewBox="0 0 40 40" fill="none" xmlns="http://www.w3.org/2000/svg">
<rect width="40" height="40" rx="6" fill="#32335C"/>
<path d="M20 4C11.1642 4 4 11.1628 4 20C4 28.8366 11.1642 36 20 36C28.8365 36 36 28.8359 36 20C36 11.1628 28.8358 4 20 4ZM20 33.9459C17.4861 33.9459 15.4477 32.2663 15.4477 30.1948H24.5523C24.5523 32.2657 22.5146 33.9459 20 33.9459ZM27.5194 28.9535H12.48V26.226H27.52V28.9529H27.5194V28.9535ZM27.465 24.8221H12.5229C12.4736 24.7649 12.4224 24.7084 12.3744 24.6506C10.8352 22.7808 10.4723 21.8055 10.1203 20.8109C10.1146 20.7781 11.9872 21.1932 13.3152 21.4919C13.3152 21.4919 13.9981 21.65 14.9971 21.8325C14.0384 20.7081 13.4688 19.2791 13.4688 17.818C13.4688 14.6106 15.9283 11.8079 15.0413 9.54237C15.9053 9.61304 16.8288 11.3652 16.8909 14.1055C17.8093 12.8366 18.1939 10.519 18.1939 9.09839C18.1939 7.62702 19.1629 5.91792 20.1331 5.86009C19.2685 7.28456 20.3565 8.50598 21.3235 11.5355C21.6864 12.6727 21.6403 14.5881 21.9206 15.8024C22.0134 13.2805 22.4467 9.60019 24.0474 8.32993C23.3414 9.9298 24.1517 11.9319 24.7059 12.8944C25.6 14.4474 26.1421 15.6238 26.1421 17.8488C26.1421 19.3414 25.5917 20.746 24.6624 21.844C25.7184 21.6455 26.448 21.4669 26.448 21.4669L29.8797 20.7974C29.8797 20.7974 29.3811 22.8476 27.465 24.8221Z" fill="white"/>
</svg>
