<svg width="40" height="40" viewBox="0 0 40 40" fill="none" xmlns="http://www.w3.org/2000/svg">
<rect width="40" height="40" rx="6" fill="#32335C"/>
<path d="M19.9677 4C11.802 4 12.3115 7.54115 12.3115 7.54115L12.3205 11.2106H20.1135V12.3115H9.22563C9.22563 12.3115 4 11.7188 4 19.9587C4 28.1986 8.56138 27.9058 8.56138 27.9058H11.2829V24.0822C11.2829 24.0822 11.1365 19.5215 15.7714 19.5215H23.4999C23.4999 19.5215 27.8433 19.5918 27.8433 15.3251V8.26989C27.8433 8.26989 28.5011 4.00064 19.9684 4.00064L19.9677 4ZM15.6708 6.46739C15.855 6.46714 16.0374 6.50322 16.2077 6.57358C16.3779 6.64394 16.5326 6.74719 16.6629 6.87743C16.7932 7.00766 16.8966 7.16231 16.967 7.33253C17.0374 7.50275 17.0736 7.68519 17.0734 7.86941C17.0735 8.05351 17.0373 8.23583 16.9669 8.40594C16.8964 8.57604 16.7932 8.73059 16.6629 8.86074C16.5327 8.9909 16.3781 9.0941 16.208 9.16446C16.0379 9.23482 15.8555 9.27095 15.6714 9.27078C15.4874 9.27086 15.3051 9.23467 15.135 9.16428C14.965 9.09388 14.8105 8.99066 14.6803 8.86051C14.5502 8.73037 14.4469 8.57585 14.3765 8.40579C14.3062 8.23573 14.27 8.05346 14.27 7.86941C14.2699 7.6853 14.306 7.50296 14.3764 7.33283C14.4467 7.16269 14.5499 7.0081 14.6801 6.87788C14.8102 6.74767 14.9648 6.64439 15.1349 6.57395C15.305 6.50352 15.4873 6.46731 15.6714 6.46739H15.6708Z" fill="white" fill-opacity="0.4"/>
<path d="M20.2002 36.0001C28.3659 36.0001 27.8564 32.459 27.8564 32.459L27.8474 28.7895H20.0544V27.6886H30.9423C30.9423 27.6886 36.1679 28.2813 36.1679 20.0414C36.1679 11.8022 31.6065 12.0943 31.6065 12.0943H28.885V15.9173C28.885 15.9173 29.0314 20.4787 24.3965 20.4787H16.668C16.668 20.4787 12.3253 20.4077 12.3253 24.675V31.7302C12.3253 31.7302 11.6662 36.0001 20.1995 36.0001H20.2002ZM24.4971 33.5334C24.313 33.5336 24.1306 33.4974 23.9604 33.427C23.7902 33.3566 23.6356 33.2533 23.5054 33.1231C23.3752 32.9929 23.2719 32.8383 23.2015 32.6681C23.1311 32.4979 23.095 32.3155 23.0951 32.1314C23.095 31.9472 23.1311 31.7648 23.2015 31.5946C23.2719 31.4245 23.3752 31.2698 23.5054 31.1396C23.6356 31.0094 23.7902 30.9061 23.9604 30.8357C24.1306 30.7653 24.313 30.7292 24.4971 30.7294C24.6813 30.7292 24.8637 30.7653 25.0339 30.8357C25.204 30.9061 25.3587 31.0094 25.4889 31.1396C25.6191 31.2698 25.7224 31.4245 25.7928 31.5946C25.8632 31.7648 25.8993 31.9472 25.8991 32.1314C25.8992 32.3155 25.863 32.4978 25.7926 32.6679C25.7222 32.838 25.6189 32.9926 25.4887 33.1227C25.3584 33.2529 25.2038 33.3561 25.0337 33.4264C24.8636 33.4968 24.6812 33.5329 24.4971 33.5327V33.5334Z" fill="white"/>
</svg>
