<svg width="40" height="40" viewBox="0 0 40 40" fill="none" xmlns="http://www.w3.org/2000/svg">
<rect width="40" height="40" rx="6" fill="#32335C"/>
<path d="M34.0853 16.8H24.0019C23.7589 16.7999 23.5258 16.7036 23.3539 16.5322C23.182 16.3608 23.0854 16.1284 23.0853 15.886V5.40565C23.0853 4.62955 22.4543 4 21.6764 4H18.0769C17.2986 4 16.6679 4.62955 16.6679 5.40565V15.8225C16.6679 16.363 16.2298 16.8022 15.6879 16.8046L12.3834 16.8203C11.8369 16.8233 11.3929 16.381 11.3939 15.8365L11.4144 5.40801C11.4162 4.63073 10.7849 4 10.0056 4H6.409C5.63055 4 5 4.62955 5 5.40565V34.752C5 35.4415 5.56004 36 6.2508 36H34.0853C34.7767 36 35.3367 35.4415 35.3367 34.752V18.048C35.3367 17.3585 34.7767 16.8 34.0853 16.8ZM29.3568 27.8184C29.3568 28.7219 28.6223 29.4545 27.7164 29.4545H24.8717C23.9657 29.4545 23.2312 28.7219 23.2312 27.8184V24.9815C23.2312 24.0779 23.9657 23.3454 24.8717 23.3454H27.7164C28.6223 23.3454 29.3568 24.0779 29.3568 24.9815V27.8184Z" fill="white"/>
</svg>
