<svg width="40" height="40" viewBox="0 0 40 40" fill="none" xmlns="http://www.w3.org/2000/svg">
<rect width="40" height="40" rx="6" fill="#32335C"/>
<path d="M18.6367 28.6154C27.0986 23.599 31.0746 21.6685 30.5647 22.824C30.0547 23.9794 26.0787 28.3715 18.6367 36.0001V28.6154Z" fill="white"/>
<path d="M32.2121 16.6061C32.2121 23.5747 26.5734 29.2121 19.6061 29.2121C12.6387 29.2121 7 23.5612 7 16.6061C7.00023 9.65096 12.639 4 19.6061 4C26.5732 4 32.2121 9.65096 32.2121 16.6061Z" fill="white"/>
<path d="M11.6943 18.2801H13.5561C14.0059 18.2814 14.3701 18.6137 14.3715 19.0241V20.7105C14.3701 21.1209 14.0059 21.4532 13.5561 21.4545H11.6943C11.2446 21.4532 10.8803 21.1209 10.8789 20.7105V19.0241C10.8802 18.6137 11.2445 18.2813 11.6943 18.2801ZM16.0024 14.56H17.8506C18.3004 14.5613 18.6646 14.8936 18.666 15.304V20.7105C18.6646 21.1209 18.3004 21.4532 17.8506 21.4545H16.0024C15.5526 21.4532 15.1884 21.1209 15.187 20.7105V15.304C15.1882 14.8936 15.5526 14.5612 16.0024 14.56ZM20.2969 16.6061H22.1587C22.6084 16.6073 22.9727 16.9397 22.9741 17.3501V20.7105C22.9727 21.1209 22.6084 21.4532 22.1587 21.4545H20.2969C19.8471 21.4532 19.4829 21.1209 19.4815 20.7105V17.3501C19.4827 16.9396 19.8471 16.6072 20.2969 16.6061ZM24.7001 11.7576H26.5483C26.9981 11.7589 27.3623 12.0912 27.3638 12.5016V20.7105C27.3623 21.1209 26.9981 21.4532 26.5483 21.4545H24.7001C24.2503 21.4532 23.8861 21.1209 23.8847 20.7105V12.5016C23.886 12.0912 24.2503 11.7587 24.7001 11.7576Z" fill="#32335C"/>
</svg>
