<svg width="40" height="40" viewBox="0 0 40 40" fill="none" xmlns="http://www.w3.org/2000/svg">
<rect width="40" height="40" rx="6" fill="#32335C"/>
<path fill-rule="evenodd" clip-rule="evenodd" d="M27.6931 24.4299L11.707 33.9224L32.406 32.5178L34 11.6458L27.6936 24.4299H27.6931Z" fill="white"/>
<path fill-rule="evenodd" clip-rule="evenodd" d="M32.4411 32.5034L30.6617 20.2241L25.8154 26.6235L32.4411 32.5034Z" fill="#9899AD"/>
<path fill-rule="evenodd" clip-rule="evenodd" d="M32.4637 32.5032L19.4292 31.4807L11.7754 33.8955L32.4637 32.5032Z" fill="#9899AD"/>
<path fill-rule="evenodd" clip-rule="evenodd" d="M11.7933 33.8981L15.0496 23.2307L7.88379 24.763L11.7933 33.8981Z" fill="white"/>
<path fill-rule="evenodd" clip-rule="evenodd" d="M25.8132 26.6586L22.8175 14.9233L14.2432 22.9603L25.8132 26.6581V26.6586Z" fill="white"/>
<path fill-rule="evenodd" clip-rule="evenodd" d="M33.4274 15.1547L25.3226 8.53516L23.0664 15.8315L33.4274 15.1547Z" fill="white"/>
<path fill-rule="evenodd" clip-rule="evenodd" d="M29.5291 6.10866L24.7624 8.74302L21.7549 6.07336L29.5291 6.10866Z" fill="white"/>
<path fill-rule="evenodd" clip-rule="evenodd" d="M6 28.3417L7.99678 24.7L6.38154 20.3613L6 28.3417Z" fill="white"/>
<path fill-rule="evenodd" clip-rule="evenodd" d="M6.27497 20.224L7.89974 24.8339L14.9619 23.2494L23.0241 15.757L25.2993 8.52959L21.717 6L15.6258 8.27972C13.7069 10.0647 9.9828 13.5961 9.8489 13.6622C9.71556 13.7305 7.38934 18.1269 6.27441 20.224H6.27497Z" fill="#C1C2CE"/>
<path fill-rule="evenodd" clip-rule="evenodd" d="M11.9811 11.9426C16.1399 7.81909 21.5017 5.38194 23.5595 7.45828C25.6157 9.53462 23.4351 14.5792 19.2757 18.7022C15.1169 22.8241 9.82183 25.3951 7.7651 23.3188C5.70781 21.2441 7.82168 16.0651 11.9811 11.9426Z" fill="#C1C2CE"/>
<path fill-rule="evenodd" clip-rule="evenodd" d="M11.7939 33.8938L15.0244 23.1927L25.7535 26.6401C21.8742 30.2779 17.5596 33.3526 11.7939 33.8938Z" fill="#C1C2CE"/>
<path fill-rule="evenodd" clip-rule="evenodd" d="M23.0381 15.7356L25.7923 26.6456C29.0329 23.2381 31.9413 19.5751 33.366 15.0448L23.0381 15.7356Z" fill="#C1C2CE"/>
<path fill-rule="evenodd" clip-rule="evenodd" d="M33.3369 15.0999C34.4384 11.7731 34.6933 7.00072 29.4952 6.11438L25.2305 8.47085L33.3369 15.1005V15.0999Z" fill="#C1C2CE"/>
<path fill-rule="evenodd" clip-rule="evenodd" d="M6 28.2934C6.15295 33.784 10.114 33.8658 11.8015 33.914L7.90378 24.8114L6 28.2929V28.2934Z" fill="#C1C2CE"/>
<path fill-rule="evenodd" clip-rule="evenodd" d="M23.0537 15.7525C25.5877 17.3106 28.1244 18.8644 30.6638 20.4139C30.8223 20.5024 32.8275 17.0316 33.2825 15.0701L23.0537 15.7525Z" fill="#C1C2CE"/>
<path fill-rule="evenodd" clip-rule="evenodd" d="M15.0195 23.1934L19.3392 31.5256C21.8929 30.1406 23.8924 28.4531 25.7239 26.6457L15.0207 23.1934H15.0195Z" fill="#C1C2CE"/>
<path fill-rule="evenodd" clip-rule="evenodd" d="M7.8872 24.8226L7.27539 32.1094C8.4301 33.6866 10.0184 33.8238 11.6847 33.7006C10.4795 30.7004 8.07097 24.701 7.8872 24.8226Z" fill="#C1C2CE"/>
<path fill-rule="evenodd" clip-rule="evenodd" d="M25.2051 8.48865L33.7844 9.69265C33.3267 7.75246 31.9204 6.50027 29.5236 6.10864L25.2051 8.48865Z" fill="#9899AD"/>
</svg>
