<svg width="40" height="40" viewBox="0 0 40 40" fill="none" xmlns="http://www.w3.org/2000/svg">
<rect width="40" height="40" rx="6" fill="#32335C"/>
<path d="M20.2568 35.4863C28.9515 35.4863 36 28.4379 36 19.7432C36 11.0485 28.9515 4 20.2568 4C11.5621 4 4.51367 11.0485 4.51367 19.7432C4.51367 28.4379 11.5621 35.4863 20.2568 35.4863Z" fill="white"/>
<path opacity="0.1" d="M9.3547 8.42773C7.73681 9.84859 6.42758 11.5862 5.50798 13.5332C4.58838 15.4802 4.07795 17.5951 4.00825 19.7472C3.93855 21.8993 4.31107 24.0428 5.10276 26.0452C5.89446 28.0476 7.0885 29.8663 8.61107 31.3889C10.1336 32.9115 11.9523 34.1055 13.9547 34.8972C15.9571 35.6889 18.1007 36.0614 20.2528 35.9917C22.4049 35.922 24.5198 35.4116 26.4668 34.492C28.4137 33.5724 30.1514 32.2632 31.5722 30.6453L9.3547 8.42773Z" fill="#9899AD"/>
<path d="M8.94141 24.3677V23.0345C9.10721 23.1785 9.29073 23.3009 9.4875 23.3985C9.70443 23.5069 9.92985 23.5974 10.1615 23.6691C10.3934 23.7426 10.6301 23.8001 10.8699 23.8413C11.0876 23.8795 11.3082 23.8992 11.5292 23.9003C12.0755 23.9392 12.6201 23.8031 13.0838 23.5117C13.3373 23.2975 13.5097 23.003 13.5724 22.6771C13.6351 22.3513 13.5842 22.0138 13.4282 21.7209C13.2987 21.5161 13.1318 21.3375 12.9362 21.1945C12.7115 21.0172 12.4711 20.8608 12.218 20.7271L11.3275 20.2646C10.9995 20.0941 10.6863 19.9219 10.3878 19.7481C10.1133 19.5851 9.85897 19.3902 9.63017 19.1675C9.42428 18.9597 9.25762 18.7164 9.1382 18.4493C9.00132 18.1153 8.93963 17.7553 8.95748 17.3948C8.97534 17.0343 9.0723 16.6821 9.24151 16.3633C9.43008 16.0421 9.68915 15.7679 9.99915 15.5614C10.3257 15.3369 10.6885 15.1705 11.0717 15.0694C11.4736 14.9669 11.8868 14.9157 12.3016 14.9169C13.0066 14.8944 13.7078 15.0305 14.3531 15.3154V16.5847C13.6999 16.1668 12.9336 15.9607 12.1589 15.9943C11.9109 15.9951 11.6636 16.0215 11.421 16.073C11.1885 16.1184 10.9655 16.2032 10.7617 16.3239C10.5653 16.4352 10.397 16.59 10.2697 16.7766C10.1433 16.9781 10.08 17.2128 10.0877 17.4506C10.0822 17.6717 10.1294 17.8909 10.2255 18.0901C10.3264 18.2804 10.4654 18.4479 10.6338 18.5821C10.8373 18.7474 11.0564 18.8924 11.2881 19.015C11.5472 19.1528 11.8441 19.3053 12.1786 19.4726C12.5131 19.6398 12.8411 19.8186 13.1625 20.0088C13.456 20.1855 13.7284 20.3952 13.9743 20.6336C14.2012 20.8529 14.3892 21.1091 14.5302 21.3913C14.6721 21.6891 14.7428 22.0158 14.7369 22.3457C14.7494 22.765 14.6528 23.1803 14.4564 23.551C14.2746 23.8757 14.0162 24.151 13.7037 24.353C13.3696 24.5668 12.9996 24.7185 12.6115 24.8006C12.1833 24.894 11.7461 24.9402 11.3078 24.9384C11.1186 24.9353 10.9298 24.9222 10.742 24.899C10.5157 24.8761 10.2878 24.84 10.0582 24.7908C9.84634 24.7392 9.63771 24.6751 9.43338 24.5989C9.25988 24.544 9.09444 24.4662 8.94141 24.3677ZM20.5766 24.9187C19.9661 24.9412 19.3579 24.8321 18.7934 24.5986C18.2289 24.3652 17.7212 24.0129 17.305 23.5658C16.4591 22.5943 16.0188 21.335 16.075 20.0482C15.9956 18.6984 16.4357 17.3694 17.305 16.3338C17.7443 15.867 18.2798 15.5012 18.8744 15.2617C19.469 15.0222 20.1085 14.9146 20.7488 14.9464C21.3496 14.9257 21.9477 15.0359 22.5016 15.2696C23.0556 15.5032 23.552 15.8546 23.9564 16.2993C24.7971 17.2713 25.2337 18.5282 25.1765 19.812C25.2521 21.1706 24.805 22.5066 23.9269 23.5461C23.7374 23.7581 23.5245 23.9479 23.2923 24.1119L26.0031 26.0798H23.9564L22.1411 24.7219C21.6325 24.8662 21.105 24.9326 20.5766 24.9187ZM20.6553 15.9746C20.1893 15.9614 19.7262 16.0531 19.3004 16.243C18.8746 16.4329 18.497 16.7161 18.1954 17.0717C17.5357 17.8816 17.1976 18.9063 17.2459 19.9498C17.1964 20.9871 17.5231 22.0073 18.1659 22.8229C18.4605 23.1743 18.8309 23.4543 19.2493 23.6418C19.6677 23.8292 20.1232 23.9193 20.5815 23.9053C21.0497 23.9283 21.5172 23.8471 21.9502 23.6676C22.3832 23.4881 22.771 23.2147 23.0857 22.8672C23.7386 22.0477 24.0646 21.0153 24.0007 19.9695C24.0685 18.9112 23.7543 17.8638 23.1152 17.0176C22.8124 16.668 22.434 16.3919 22.0086 16.2104C21.5833 16.0288 21.1221 15.9465 20.6602 15.9697L20.6553 15.9746ZM32.0642 24.7564H27.0756V15.1088H28.2071V23.7331H32.0642V24.7564Z" fill="#32335C"/>
</svg>
