<svg width="40" height="40" viewBox="0 0 40 40" fill="none" xmlns="http://www.w3.org/2000/svg">
<rect width="40" height="40" rx="6" fill="#32335C"/>
<path d="M19.8056 21.1266L29.1099 16.5745C27.3091 15.9742 25.5583 14.5735 19.3054 14.5735C12.5022 14.5735 10.2012 16.5745 10.2012 16.5745L19.8056 21.1266Z" fill="#5B5C85"/>
<path d="M9.25198 22.6275C8.80177 22.4274 9.25198 21.8771 9.45207 21.677C9.90228 21.3269 10.5526 21.2268 11.1028 21.2768L11.0528 22.2773C11.0028 22.7775 10.9027 22.5774 10.5526 22.8276C10.1524 23.0777 9.302 23.4779 9.25198 22.6275Z" fill="#5B5C85"/>
<path d="M9.60016 22.4275C9.50012 22.5275 9.40007 22.5776 9.25 22.6276L9.60016 22.4275Z" fill="#C6B198"/>
<path d="M13.1035 8.87107C10.4522 7.12026 7.95109 11.3722 11.3026 12.2726L13.1035 8.87107ZM28.0104 11.9225C31.0618 10.872 28.7107 6.72008 26.0595 8.57093L28.0104 11.9225Z" fill="#37ABC8"/>
<path d="M26.6097 33.2821C25.9594 33.3822 25.5092 33.8324 25.1591 34.3326C26.0095 34.5827 26.5597 36.4336 27.5102 35.5331C28.5106 34.9829 27.26 33.7323 26.6097 33.2821ZM14.6542 34.7328C14.204 34.1325 13.6538 33.4322 12.8534 33.5822C12.2531 34.0325 11.1026 34.6828 11.6528 35.5832C11.8029 35.7332 11.8029 35.6332 11.9029 35.6832C11.953 35.7833 12.2031 36.2835 12.8034 35.8833C13.4537 35.5331 13.9039 34.8328 14.6542 34.7328Z" fill="#5B5C85"/>
<path d="M12.0517 9.87134C11.6015 9.62122 11.1513 9.5712 10.9012 10.0714C10.6511 10.5717 10.9512 10.8718 11.4014 11.1219L12.0517 9.87134ZM26.6585 9.42113C27.1087 9.17102 27.5589 9.12099 27.809 9.62122C28.0591 10.1215 27.759 10.4216 27.3088 10.6717L26.6585 9.42113Z" fill="#077E91"/>
<path d="M30.3118 22.5275C30.762 22.3274 30.3118 21.7771 30.1117 21.5771C29.6615 21.2269 29.0612 21.1268 28.4609 21.1769L28.511 22.1773C28.561 22.6776 28.661 22.4775 29.0112 22.7276C29.4114 22.9777 30.2618 23.3779 30.3118 22.5275Z" fill="#5B5C85"/>
<path d="M29.9609 22.3273C30.061 22.4273 30.161 22.4773 30.3111 22.5274L29.9609 22.3273Z" fill="#C6B198"/>
<path d="M19.4549 6.77002C15.8533 7.07016 12.5518 7.87053 11.3012 11.5722C10.1006 15.1239 11.2512 18.7756 11.1011 22.3772C10.951 25.4286 10.1506 29.5305 11.8514 32.2818C13.3021 34.6329 16.4035 35.4833 18.9547 35.5333C22.2062 35.6334 26.2081 34.833 27.7588 31.6815C29.2595 28.6801 28.8593 24.9284 28.6592 21.6769C28.4591 17.9252 29.0094 14.0234 27.5587 10.4717C25.9079 7.27025 22.8065 6.77002 19.4549 6.77002Z" fill="#8788B8"/>
<path d="M20.0575 11.2722C19.8574 8.02071 24.7596 7.17031 25.51 10.3218C26.3104 13.8234 20.6577 14.7238 20.0575 11.2722ZM13.2543 11.8225C12.504 8.12075 18.5067 7.42043 18.7068 11.0221C18.9069 14.0735 14.0547 14.8238 13.2543 11.8225ZM20.0575 14.9739C20.0575 15.5242 19.9574 16.0744 20.0074 16.6247C20.1075 16.8748 20.3576 17.0749 20.6077 17.0749C20.8078 16.9748 21.0079 16.9748 21.158 16.7247C21.258 16.2245 21.158 15.7743 21.158 15.2741L20.0575 14.9739Z" fill="#EFEFEF"/>
<path d="M14.6051 12.2227C15.0553 12.2227 15.4054 11.8225 15.4054 11.3223C15.4054 10.8221 15.0553 10.4219 14.6051 10.4219C14.1548 10.4219 13.8047 10.8221 13.8047 11.3223C13.8047 11.8225 14.1548 12.2227 14.6051 12.2227Z" fill="black"/>
<path d="M14.954 11.7223C15.054 11.7223 15.1541 11.6222 15.1541 11.5222C15.1541 11.4221 15.054 11.3221 14.954 11.3221C14.854 11.3221 14.7539 11.4221 14.7539 11.5222C14.7539 11.6222 14.854 11.7223 14.954 11.7223Z" fill="white"/>
<path d="M21.4566 11.9726C21.9068 11.9726 22.257 11.5725 22.257 11.0722C22.257 10.572 21.9068 10.1718 21.4566 10.1718C21.0064 10.1718 20.6562 10.572 20.6562 11.0722C20.6563 11.5725 21.0064 11.9726 21.4566 11.9726Z" fill="black"/>
<path d="M21.8067 11.5223C21.9068 11.5223 22.0068 11.4223 22.0068 11.3222C22.0068 11.2222 21.9068 11.1221 21.8067 11.1221C21.7067 11.1221 21.6067 11.2222 21.6067 11.3222C21.6067 11.4223 21.7067 11.5223 21.8067 11.5223ZM20.0059 15.074C20.0059 15.6242 19.9059 16.1745 19.9559 16.7247C19.0055 17.9753 18.4552 16.2745 18.8054 15.4241L20.0059 15.074Z" fill="white"/>
<path d="M20.9072 13.6232C21.6576 13.9234 22.558 14.6237 21.9077 15.324C21.3074 15.9743 20.7071 15.224 20.0068 15.1739C19.3565 15.0739 18.356 15.9743 17.9058 15.1739C17.5557 14.5236 18.1059 13.7733 18.7562 13.7233L20.9072 13.6232Z" fill="#5B5C85"/>
<path d="M19.2567 18.7757C19.2567 18.7757 19.6068 20.6265 19.6068 22.5774C19.6068 24.5283 19.3067 28.03 19.1066 28.4802C18.9065 28.9304 18.5063 29.4306 18.2562 29.6307C18.0061 29.8308 16.9556 30.1309 15.5049 30.181C14.0543 30.231 12.3535 29.9308 11.303 29.3306C10.2525 28.7303 9.90234 28.08 9.90234 28.08C9.90234 28.08 10.2025 24.5283 10.5026 23.778C10.8028 23.0277 11.4531 23.3278 11.403 21.7771C11.353 20.2264 10.4026 20.8767 10.4026 19.8762L10.2025 16.6247L19.2567 18.7757Z" fill="#5B5C85"/>
<path d="M19.4556 26.2793C19.5556 25.679 19.6056 25.1788 19.5556 24.5785C19.5556 24.5785 15.0535 25.0287 10.6015 23.6281C10.2513 24.0783 10.2013 25.4289 10.2013 25.4289C10.2013 25.4289 15.1536 26.7295 19.4556 26.2793ZM18.9053 28.9305C19.2054 28.5803 19.3055 27.88 19.3055 27.2297C19.3055 27.2297 14.5533 27.5799 10.1012 26.1792C9.95117 26.7295 9.95117 28.0301 9.95117 28.0301C9.95117 28.0301 14.6533 29.3807 18.9053 28.9305Z" fill="#DCD9D8"/>
<path d="M20.5572 18.7757C20.5572 18.7757 20.207 20.6265 20.207 22.5774C20.207 24.5283 20.5072 28.03 20.7073 28.4802C20.9074 28.9304 21.3075 29.4306 21.5577 29.6307C21.8078 29.8308 22.8583 30.1309 24.3589 30.181C25.8596 30.231 27.5604 29.9308 28.6109 29.3306C29.6614 28.7303 30.0116 28.08 30.0116 28.08C30.0116 28.08 29.8115 24.5283 29.4613 23.778C29.1111 23.0277 28.5109 23.3278 28.5609 21.7771C28.6109 20.2264 29.2112 20.8767 29.1612 19.8762V16.6247L20.5572 18.7757Z" fill="#5B5C85"/>
<path d="M20.356 26.2793C20.256 25.679 20.2059 25.1788 20.256 24.5785C20.256 24.5785 24.8081 25.0287 29.3101 23.6281C29.6603 24.0783 29.7103 25.4289 29.7103 25.4289C29.7103 25.4289 24.708 26.7295 20.356 26.2793ZM20.9063 28.9305C20.6061 28.5803 20.5061 27.88 20.456 27.2297C20.456 27.2297 25.2583 27.5799 29.8104 26.1792C29.9604 26.7295 29.9604 28.0301 29.9604 28.0301C29.9604 28.0301 25.2082 29.3807 20.9063 28.9305Z" fill="#DCD9D8"/>
<path d="M33.9129 15.0237C34.063 14.7736 34.0129 14.4735 33.8128 14.3734L33.6628 14.2734C33.4627 14.1733 33.2126 14.2734 33.0625 14.5235L30.0111 20.3262C29.861 20.5763 29.911 20.8764 30.1111 20.9765L30.2612 21.0765C30.4613 21.1766 30.7114 21.0765 30.8615 20.8264L33.9129 15.0237Z" fill="#DCD9D8"/>
<path d="M30.8618 20.7766C30.9618 20.6265 30.8618 20.4264 30.6617 20.3264L30.5116 20.2764C30.3115 20.1763 30.1114 20.2263 30.0114 20.3764L28.5607 23.0276C28.4607 23.1777 28.5607 23.3778 28.7608 23.4778L28.9109 23.5779C29.111 23.6779 29.3111 23.6279 29.4111 23.4778L30.8618 20.7766Z" fill="black"/>
<path d="M30.9602 20.6263L30.8602 20.7764C30.9102 20.6763 30.8101 20.5263 30.61 20.4262L30.46 20.3262C30.2599 20.2261 30.0598 20.2261 30.0098 20.3262L30.1098 20.1761C30.1598 20.0761 30.3599 20.0761 30.56 20.1761L30.7101 20.2762C30.9102 20.3262 31.0102 20.5263 30.9602 20.6263Z" fill="#9B9B9B"/>
<path d="M29.2118 22.2775C29.5619 22.4275 29.9121 22.2775 30.0121 22.0274C30.1122 21.7772 29.9121 21.4271 29.5619 21.327C29.2118 21.227 28.8616 21.327 28.7616 21.5771C28.7115 21.8273 28.9116 22.1774 29.2118 22.2775Z" fill="#5B5C85"/>
<path d="M6.05002 15.0239C5.94998 14.7738 6 14.4736 6.20009 14.3736L6.35016 14.3236C6.55025 14.2235 6.80037 14.3736 6.95044 14.6237L9.70171 20.4764C9.80176 20.7265 9.75173 21.0267 9.55164 21.1267L9.40157 21.2268C9.20148 21.3268 8.95136 21.1767 8.80129 20.9266L6.05002 15.0239Z" fill="#DCD9D8"/>
<path d="M8.85064 20.8767C8.80062 20.7266 8.90066 20.5265 9.10075 20.4264L9.25082 20.3264C9.45092 20.2264 9.65101 20.2764 9.75105 20.4264L11.0517 23.1777C11.1017 23.3278 11.0016 23.5279 10.8015 23.6279L10.6515 23.728C10.4514 23.828 10.2513 23.778 10.1512 23.6279L8.85064 20.8767Z" fill="black"/>
<path d="M8.75188 20.6767L8.85193 20.8768C8.80191 20.7767 8.95198 20.6266 9.15207 20.5266L9.30214 20.4266C9.50223 20.3265 9.70232 20.3265 9.75234 20.4266L9.6523 20.2265C9.60228 20.1264 9.40218 20.1264 9.20209 20.2265L9.05202 20.3265C8.85193 20.4266 8.70186 20.5766 8.75188 20.6767Z" fill="#9B9B9B"/>
<path d="M10.2025 21.3769C9.85236 21.527 9.65227 21.8271 9.75232 22.0772C9.85236 22.3273 10.2025 22.4774 10.5527 22.3273C10.9028 22.1773 11.1029 21.8771 11.0029 21.627C10.9028 21.3769 10.5527 21.2769 10.2025 21.3769Z" fill="#5B5C85"/>
<path d="M11.6519 13.5733C11.6519 13.5733 13.6028 11.1222 14.6533 8.07074C14.7534 7.77061 14.7033 7.52049 14.4532 7.37042L14.1531 7.22035C13.903 7.07028 13.6028 7.17033 13.4528 7.42044L10.4514 12.923C10.3013 13.1731 10.4013 13.4732 10.6515 13.6233L10.9516 13.7734C11.2017 13.9234 11.5519 13.8234 11.6519 13.5733Z" fill="#5B5C85"/>
<path d="M12.4533 10.4719C11.5529 12.1227 10.6525 13.4233 10.4524 13.3733C9.05175 12.5729 8.65157 10.572 9.60201 8.87118C10.5524 7.17039 12.4533 6.42004 13.854 7.17039C14.004 7.37048 13.4038 8.77113 12.4533 10.4719Z" fill="#8788B8"/>
<path d="M27.6104 13.5732C27.6104 13.5732 25.7095 11.072 24.759 8.02063C24.659 7.7205 24.759 7.47038 25.0092 7.32031L25.3093 7.17024C25.5594 7.02017 25.8595 7.12022 26.0096 7.37033L28.8609 12.9229C29.011 13.173 28.8609 13.4732 28.6108 13.6232L28.3107 13.7733C28.0606 13.9234 27.7604 13.8233 27.6104 13.5732Z" fill="#5B5C85"/>
<path d="M26.9096 10.4219C27.76 12.1227 28.6604 13.4233 28.8605 13.3732C30.3111 12.6229 30.7113 10.622 29.8109 8.92119C28.9105 7.22041 27.0596 6.37001 25.609 7.12036C25.4589 7.27043 26.0592 8.7211 26.9096 10.4219Z" fill="#8788B8"/>
<path d="M29.7609 9.1212C29.7609 9.1212 28.9605 6.46997 27.4598 5.06933C25.9591 3.66868 14.1036 3.61866 12.3028 5.06933C10.502 6.52 9.60156 9.1212 9.60156 9.1212V9.72148C9.60156 9.72148 10.3519 7.57048 12.3028 5.6696C14.2537 3.76873 26.2593 4.26896 27.5098 5.6696C28.7604 7.07025 29.8109 9.72148 29.8109 9.72148V9.1212H29.7609Z" fill="#5B5C85"/>
<path d="M29.2608 8.12066C29.0607 8.2207 29.1107 8.72094 29.3608 9.22117C29.6109 9.7214 30.0111 10.0215 30.2112 9.92149C30.4113 9.82144 30.3613 9.32121 30.1112 8.82098C29.8611 8.32075 29.4609 8.02061 29.2608 8.12066ZM9.30156 8.77096C9.05145 9.27119 8.9514 9.7214 9.20152 9.87147C9.45163 10.0215 9.8018 9.67137 10.0519 9.17114C10.302 8.67091 10.4021 8.2207 10.152 8.07064C9.90184 7.92057 9.6017 8.27073 9.30156 8.77096Z" fill="#5B5C85"/>
<path opacity="0.6" d="M25.2088 9.17139C26.8596 9.17139 27.3098 13.9736 25.509 14.824L21.6072 14.3738C21.157 14.3738 20.6067 12.7731 20.4066 12.573C20.2065 12.3729 19.6063 12.4229 19.4062 12.573C19.2061 12.723 18.3057 14.5239 17.8054 14.5239L13.9036 14.774C12.0027 14.5239 12.0027 9.17139 14.0037 9.17139H25.2088Z" fill="#DCD9D8"/>
<path opacity="0.5" d="M17.0045 10.2718C18.6553 10.3218 20.0559 11.0722 21.6566 11.0722C22.8072 11.0722 25.1583 11.1222 26.6089 11.1222C26.659 11.7725 26.809 12.4728 26.6089 13.1231H21.7067C21.3565 13.1231 20.9563 13.0731 20.6062 12.973C20.5061 12.7729 20.4561 12.6729 20.356 12.6229C20.1059 12.4728 19.5557 12.4728 19.3556 12.6229L19.3056 12.6729C18.6052 12.4728 17.8549 12.3227 16.9545 12.3227H12.4524C12.3523 11.6224 12.5524 10.8721 12.7525 10.3218L17.0045 10.2718Z" fill="white"/>
<path d="M18.655 13.6734C18.655 13.6734 18.605 12.9731 18.655 13.6734C18.7551 14.5238 21.3063 14.3237 21.0562 13.3233C20.806 12.3228 18.605 12.5229 18.655 13.6734Z" fill="black"/>
</svg>
