<svg width="42" height="35" viewBox="0 0 42 35" fill="none" xmlns="http://www.w3.org/2000/svg">
<path d="M39.375 0H2.625C1.92881 0 1.26113 0.276562 0.768845 0.768845C0.276562 1.26113 0 1.92881 0 2.625V31.5C0 32.1962 0.276562 32.8639 0.768845 33.3562C1.26113 33.8484 1.92881 34.125 2.625 34.125H39.375C40.0712 34.125 40.7389 33.8484 41.2312 33.3562C41.7234 32.8639 42 32.1962 42 31.5V2.625C42 1.92881 41.7234 1.26113 41.2312 0.768845C40.7389 0.276562 40.0712 0 39.375 0ZM26.985 27.4838L17.6663 13.5975L9.345 25.7775L3.43875 20.5275L5.25 18.4406L8.79375 21.5775L17.6663 8.61L27.1031 22.6669L36.2906 10.5L38.5219 12.18L26.985 27.4838Z" fill="#216456"/>
</svg>
