<svg width="42" height="21" viewBox="0 0 42 21" fill="none" xmlns="http://www.w3.org/2000/svg">
<path d="M31.5 0H10.5C7.71523 0 5.04451 1.10625 3.07538 3.07538C1.10625 5.04451 0 7.71523 0 10.5C0 13.2848 1.10625 15.9555 3.07538 17.9246C5.04451 19.8938 7.71523 21 10.5 21H31.5C34.2848 21 36.9555 19.8938 38.9246 17.9246C40.8938 15.9555 42 13.2848 42 10.5C42 7.71523 40.8938 5.04451 38.9246 3.07538C36.9555 1.10625 34.2848 0 31.5 0ZM31.5 16.8C29.8291 16.8 28.2267 16.1363 27.0452 14.9548C25.8637 13.7733 25.2 12.1709 25.2 10.5C25.2 8.82914 25.8637 7.22671 27.0452 6.04523C28.2267 4.86375 29.8291 4.2 31.5 4.2C33.1709 4.2 34.7733 4.86375 35.9548 6.04523C37.1362 7.22671 37.8 8.82914 37.8 10.5C37.8 12.1709 37.1362 13.7733 35.9548 14.9548C34.7733 16.1363 33.1709 16.8 31.5 16.8Z" fill="#216456"/>
</svg>
