<svg width="42" height="37" viewBox="0 0 42 37" fill="none" xmlns="http://www.w3.org/2000/svg">
<path d="M0 23.625H42V13.125H0V23.625ZM10.5 17.0625H28.875V19.6875H10.5V17.0625ZM5.25 17.0625H7.875V19.6875H5.25V17.0625Z" fill="#216456"/>
<path d="M39.375 0H2.625C1.92881 0 1.26113 0.276562 0.768845 0.768845C0.276562 1.26113 0 1.92881 0 2.625V10.5H42V2.625C42 1.92881 41.7234 1.26113 41.2312 0.768845C40.7389 0.276562 40.0712 0 39.375 0ZM7.875 6.5625H5.25V3.9375H7.875V6.5625ZM28.875 6.5625H10.5V3.9375H28.875V6.5625Z" fill="#216456"/>
<path d="M0 34.125C0 34.8212 0.276562 35.4889 0.768845 35.9811C1.26113 36.4734 1.92881 36.75 2.625 36.75H39.375C40.0712 36.75 40.7389 36.4734 41.2312 35.9811C41.7234 35.4889 42 34.8212 42 34.125V26.25H0V34.125ZM10.5 30.1875H28.875V32.8125H10.5V30.1875ZM5.25 30.1875H7.875V32.8125H5.25V30.1875Z" fill="#216456"/>
</svg>
