<svg width="48" height="41" viewBox="0 0 48 41" fill="none" xmlns="http://www.w3.org/2000/svg">
<path d="M47.76 19.2902C47.76 19.0262 47.616 18.7622 47.544 18.4982C47.4329 18.0324 47.2885 17.5753 47.112 17.1302C46.992 16.8422 46.824 16.5542 46.68 16.2422C46.536 15.9302 46.32 15.5222 46.104 15.1862C45.888 14.8502 45.6 14.6822 45.6 14.4902C45.6 14.2982 45.12 13.8902 44.856 13.6022C44.592 13.3142 44.352 13.1222 44.088 12.8822L43.2 12.0902L42.336 11.5142C41.9968 11.3066 41.644 11.1222 41.28 10.9622L40.344 10.5302C39.952 10.385 39.5512 10.2648 39.144 10.1702C38.8214 10.0753 38.4926 10.0031 38.16 9.95419L37.608 9.69019C36.6287 6.86072 34.7918 4.40687 32.3528 2.6701C29.9138 0.933322 26.9942 0 24 0C21.0058 0 18.0862 0.933322 15.6472 2.6701C13.2082 4.40687 11.3713 6.86072 10.392 9.69019L9.96 9.81019C9.62736 9.85913 9.29855 9.9313 8.976 10.0262C8.56881 10.1208 8.16801 10.241 7.776 10.3862L6.84 10.8182C6.47598 10.9782 6.12317 11.1626 5.784 11.3702L4.92 12.0902L4.032 12.8342C3.768 13.0742 3.504 13.2902 3.264 13.5542C3.024 13.8182 2.76 14.1542 2.52 14.4422C2.28 14.7302 2.088 14.9942 1.896 15.3062C1.704 15.6182 1.512 16.0022 1.32 16.3622C1.128 16.7222 1.008 16.9622 0.888 17.2502C0.711461 17.6953 0.56709 18.1524 0.456 18.6182C0.456 18.8822 0.288 19.1462 0.24 19.4102C0.0906157 20.1613 0.010281 20.9245 0 21.6902C0.011251 22.4229 0.0835004 23.1534 0.216 23.8742C0.216 24.1142 0.336 24.3302 0.384 24.5702C0.502625 25.0417 0.646839 25.5064 0.816 25.9622L1.104 26.6582C1.31527 27.121 1.55575 27.5699 1.824 28.0022L2.16 28.5302C2.19453 28.5975 2.23467 28.6617 2.28 28.7222L2.4 28.8902C3.51776 30.3805 4.96717 31.5902 6.63344 32.4233C8.2997 33.2564 10.1371 33.6902 12 33.6902H19.2V30.4022C18.4708 30.8252 17.643 31.0487 16.8 31.0502C15.4998 31.038 14.2573 30.5117 13.344 29.5862C12.9055 29.1326 12.5607 28.5969 12.3294 28.01C12.0981 27.423 11.9848 26.7961 11.9959 26.1653C12.0071 25.5345 12.1425 24.9121 12.3944 24.3336C12.6463 23.7552 13.0097 23.232 13.464 22.7942L20.664 15.8342C21.5598 14.9708 22.7558 14.4889 24 14.4902C25.271 14.4955 26.488 15.0048 27.384 15.9062L34.584 23.1062C35.478 24.0055 35.9798 25.2221 35.9798 26.4902C35.9798 27.7583 35.478 28.9748 34.584 29.8742C33.688 30.7756 32.471 31.2848 31.2 31.2902C30.3557 31.2981 29.5255 31.074 28.8 30.6422V33.6902H36C37.8629 33.6902 39.7003 33.2564 41.3666 32.4233C43.0328 31.5902 44.4822 30.3805 45.6 28.8902L45.72 28.7702C45.7653 28.7097 45.8055 28.6454 45.84 28.5782L46.176 28.0502C46.4442 27.6179 46.6847 27.169 46.896 26.7062L47.184 26.0102C47.3532 25.5544 47.4974 25.0897 47.616 24.6182C47.616 24.3782 47.736 24.1622 47.784 23.9222C47.9192 23.1857 47.9914 22.439 48 21.6902C47.9972 20.8843 47.9169 20.0806 47.76 19.2902Z" fill="#216456"/>
<path d="M25.703 17.5862C25.2544 17.1464 24.6512 16.9001 24.023 16.9001C23.3948 16.9001 22.7916 17.1464 22.343 17.5862L15.143 24.5462C14.8884 24.7563 14.6798 25.0168 14.5304 25.3112C14.3809 25.6056 14.2939 25.9277 14.2746 26.2573C14.2553 26.5869 14.3043 26.9169 14.4184 27.2268C14.5325 27.5366 14.7093 27.8195 14.9377 28.0579C15.1662 28.2963 15.4414 28.485 15.746 28.6121C16.0507 28.7393 16.3784 28.8023 16.7085 28.797C17.0387 28.7918 17.3642 28.7185 17.6647 28.5818C17.9652 28.445 18.2342 28.2477 18.455 28.0022L21.599 24.9542V38.4902C21.599 39.1267 21.8519 39.7372 22.302 40.1872C22.752 40.6373 23.3625 40.8902 23.999 40.8902C24.6355 40.8902 25.246 40.6373 25.6961 40.1872C26.1462 39.7372 26.399 39.1267 26.399 38.4902V25.0742L29.495 28.1942C29.7181 28.4191 29.9836 28.5977 30.276 28.7195C30.5685 28.8414 30.8822 28.9041 31.199 28.9041C31.5158 28.9041 31.8295 28.8414 32.122 28.7195C32.4145 28.5977 32.6799 28.4191 32.903 28.1942C33.128 27.9711 33.3065 27.7056 33.4284 27.4132C33.5502 27.1207 33.6129 26.807 33.6129 26.4902C33.6129 26.1734 33.5502 25.8597 33.4284 25.5672C33.3065 25.2747 33.128 25.0093 32.903 24.7862L25.703 17.5862Z" fill="#216456"/>
</svg>
