<svg width="48" height="35" viewBox="0 0 48 35" fill="none" xmlns="http://www.w3.org/2000/svg">
<path d="M24.0631 34.2843C28.5154 34.2843 31.8273 32.8718 35.1346 29.5623C35.5632 29.1334 35.8038 28.5518 35.8036 27.9455C35.8034 27.3392 35.5623 26.7578 35.1335 26.3293C34.7046 25.9007 34.123 25.66 33.5167 25.6602C32.9104 25.6605 32.329 25.9015 31.9005 26.3304C29.4366 28.7966 27.3132 29.7131 24.0631 29.7131C22.4119 29.7178 20.7762 29.3947 19.2508 28.7627C17.7254 28.1306 16.3406 27.2021 15.1766 26.031C12.8841 23.7362 11.7436 21.2815 11.5356 18.1959L14.3858 21.0438C14.598 21.256 14.8499 21.4243 15.1272 21.5391C15.4044 21.654 15.7016 21.7131 16.0017 21.7131C16.3018 21.7131 16.599 21.654 16.8762 21.5391C17.1535 21.4243 17.4054 21.256 17.6176 21.0438C17.8298 20.8315 17.9982 20.5796 18.113 20.3024C18.2279 20.0251 18.287 19.7279 18.287 19.4278C18.287 19.1277 18.2279 18.8305 18.113 18.5533C17.9982 18.276 17.8298 18.0241 17.6176 17.8119L9.14484 9.33911L0.67205 17.8119C0.459064 18.0237 0.290042 18.2754 0.174709 18.5528C0.0593711 18.8301 -4.65079e-06 19.1275 -4.66391e-06 19.4278C-4.67704e-06 19.7282 0.0593711 20.0256 0.174708 20.3029C0.290042 20.5802 0.459064 20.832 0.67205 21.0438C0.884128 21.2562 1.13601 21.4247 1.41329 21.5397C1.69057 21.6547 1.9878 21.7139 2.28798 21.7139C2.58816 21.7139 2.88539 21.6547 3.16267 21.5397C3.43995 21.4247 3.69184 21.2562 3.90391 21.0438L6.9575 17.9879C7.14492 22.3831 8.76771 26.0835 11.9424 29.2628C13.5301 30.8601 15.4189 32.1264 17.4995 32.9883C19.5801 33.8503 21.811 34.2908 24.0631 34.2843ZM24.0014 4.57131C27.3589 4.57131 30.5154 5.87868 32.8901 8.25344C35.1963 10.5596 36.3368 13.0349 36.5334 16.1548L33.6192 13.2407C33.3001 12.9192 32.8926 12.6999 32.4486 12.6107C32.0045 12.5214 31.5439 12.5663 31.1254 12.7395C30.7069 12.9127 30.3494 13.2065 30.0983 13.5835C29.8472 13.9605 29.7139 14.4036 29.7154 14.8566C29.7151 15.1568 29.7741 15.4541 29.889 15.7314C30.0039 16.0087 30.1725 16.2606 30.3851 16.4725L38.8579 24.9453L47.3307 16.4725C47.5429 16.2603 47.7112 16.0084 47.826 15.7311C47.9409 15.4539 48 15.1567 48 14.8566C48 14.5565 47.9409 14.2593 47.826 13.9821C47.7112 13.7048 47.5429 13.4529 47.3307 13.2407C47.1185 13.0284 46.8665 12.8601 46.5893 12.7453C46.312 12.6304 46.0148 12.5713 45.7147 12.5713C45.4146 12.5713 45.1175 12.6304 44.8402 12.7453C44.5629 12.8601 44.311 13.0284 44.0988 13.2407L41.1023 16.2371C40.9058 11.8624 39.283 8.1803 36.122 5.02157C34.5343 3.42435 32.6455 2.15806 30.5649 1.29609C28.4844 0.434123 26.2534 -0.00639297 24.0014 6.90291e-05C19.549 6.88344e-05 16.2371 1.41258 12.9298 4.72216C12.717 4.93408 12.5481 5.18598 12.433 5.46338C12.3179 5.74079 12.2587 6.03822 12.2589 6.33856C12.2591 6.63891 12.3187 6.93626 12.4342 7.2135C12.5498 7.49074 12.719 7.7424 12.9321 7.95402C13.1444 8.16653 13.3965 8.33511 13.6739 8.45014C13.9514 8.56516 14.2488 8.62436 14.5492 8.62436C14.8495 8.62436 15.147 8.56516 15.4244 8.45014C15.7019 8.33511 15.954 8.16653 16.1663 7.95402C18.6279 5.48784 20.7512 4.57131 24.0014 4.57131Z" fill="#216456"/>
</svg>
