<svg width="45" height="42" viewBox="0 0 45 42" fill="none" xmlns="http://www.w3.org/2000/svg">
<path d="M22.4487 37.6552C22.8487 37.6552 23.1729 37.331 23.1729 36.931C23.1729 36.5311 22.8487 36.2069 22.4487 36.2069C22.0488 36.2069 21.7246 36.5311 21.7246 36.931C21.7246 37.331 22.0488 37.6552 22.4487 37.6552Z" fill="#216456"/>
<path d="M28.2417 37.6552C28.6416 37.6552 28.9659 37.331 28.9659 36.931C28.9659 36.5311 28.6416 36.2069 28.2417 36.2069C27.8418 36.2069 27.5176 36.5311 27.5176 36.931C27.5176 37.331 27.8418 37.6552 28.2417 37.6552Z" fill="#216456"/>
<path d="M16.6558 37.6552C17.0557 37.6552 17.3799 37.331 17.3799 36.931C17.3799 36.5311 17.0557 36.2069 16.6558 36.2069C16.2558 36.2069 15.9316 36.5311 15.9316 36.931C15.9316 37.331 16.2558 37.6552 16.6558 37.6552Z" fill="#216456"/>
<path d="M34.7585 33.3104C33.6151 33.3104 32.5354 33.7506 31.7186 34.5515L30.7048 33.5175C31.6114 32.6289 32.762 32.0786 34.001 31.9171C33.6592 27.8373 30.2355 24.6207 26.0688 24.6207C22.9731 24.6207 20.1338 26.4441 18.8361 29.2653L18.5197 29.9525L17.847 29.6064C17.0193 29.1813 16.1308 28.9655 15.2068 28.9655C12.0126 28.9655 9.41366 31.5645 9.41366 34.7586C9.41366 34.7811 9.41728 34.8021 9.41728 34.8245C11.4673 35.1721 13.0343 36.9564 13.0343 39.1035H11.5861C11.5861 37.506 10.287 36.2069 8.68952 36.2069C7.09207 36.2069 5.79297 37.506 5.79297 39.1035C5.79297 40.7009 7.09207 42 8.68952 42H34.7585C37.1547 42 39.1033 40.0514 39.1033 37.6552C39.1033 35.259 37.1547 33.3104 34.7585 33.3104ZM16.655 39.1035C15.4573 39.1035 14.4826 38.1288 14.4826 36.931C14.4826 35.7333 15.4573 34.7586 16.655 34.7586C17.8528 34.7586 18.8275 35.7333 18.8275 36.931C18.8275 38.1288 17.8528 39.1035 16.655 39.1035ZM26.0688 26.069C29.0443 26.069 31.6396 28.0792 32.3811 30.9576L30.9778 31.3182C30.4021 29.0799 28.3832 27.5172 26.0688 27.5172V26.069ZM22.4481 39.1035C21.2504 39.1035 20.2757 38.1288 20.2757 36.931C20.2757 35.7333 21.2504 34.7586 22.4481 34.7586C23.6459 34.7586 24.6206 35.7333 24.6206 36.931C24.6206 38.1288 23.6459 39.1035 22.4481 39.1035ZM28.2412 39.1035C27.0435 39.1035 26.0688 38.1288 26.0688 36.931C26.0688 35.7333 27.0435 34.7586 28.2412 34.7586C29.439 34.7586 30.4137 35.7333 30.4137 36.931C30.4137 38.1288 29.439 39.1035 28.2412 39.1035Z" fill="#216456"/>
<path d="M8.68999 7.24137C9.88978 7.24137 10.8624 6.26875 10.8624 5.06896C10.8624 3.86917 9.88978 2.89655 8.68999 2.89655C7.4902 2.89655 6.51758 3.86917 6.51758 5.06896C6.51758 6.26875 7.4902 7.24137 8.68999 7.24137Z" fill="#216456"/>
<path d="M2.17336 13.0345H2.89749C2.89749 10.6941 4.29508 8.67807 6.29732 7.76493C5.55074 7.1009 5.06991 6.14431 5.06991 5.06897C5.06991 3.07252 6.69415 1.44828 8.6906 1.44828C10.687 1.44828 12.3113 3.07252 12.3113 5.06897C12.3113 6.14431 11.8305 7.1009 11.0839 7.76493C13.0861 8.67807 14.4837 10.6941 14.4837 13.0345H15.2078C15.6076 13.0345 15.932 12.7101 15.932 12.3103V0.724138C15.932 0.324414 15.6076 0 15.2078 0H2.17336C1.77363 0 1.44922 0.324414 1.44922 0.724138V12.3103C1.44922 12.7101 1.77363 13.0345 2.17336 13.0345Z" fill="#216456"/>
<path d="M4.3457 13.0345H13.0354C13.0354 10.6383 11.0867 8.68967 8.69053 8.68967C6.29436 8.68967 4.3457 10.6383 4.3457 13.0345Z" fill="#216456"/>
<path d="M31.8613 13.0345H40.551C40.551 10.6383 38.6023 8.68967 36.2062 8.68967C33.81 8.68967 31.8613 10.6383 31.8613 13.0345Z" fill="#216456"/>
<path d="M29.689 13.0345H30.4131C30.4131 10.6941 31.8107 8.67807 33.8129 7.76493C33.0664 7.1009 32.5855 6.14431 32.5855 5.06897C32.5855 3.07252 34.2098 1.44828 36.2062 1.44828C38.2027 1.44828 39.8269 3.07252 39.8269 5.06897C39.8269 6.14431 39.3461 7.1009 38.5995 7.76493C40.6017 8.67807 41.9993 10.6941 41.9993 13.0345H42.7235C43.1232 13.0345 43.4476 12.7101 43.4476 12.3103V0.724138C43.4476 0.324414 43.1232 0 42.7235 0H29.689C29.2893 0 28.9648 0.324414 28.9648 0.724138V12.3103C28.9648 12.7101 29.2893 13.0345 29.689 13.0345Z" fill="#216456"/>
<path d="M36.2076 7.24137C37.4074 7.24137 38.38 6.26875 38.38 5.06896C38.38 3.86917 37.4074 2.89655 36.2076 2.89655C35.0078 2.89655 34.0352 3.86917 34.0352 5.06896C34.0352 6.26875 35.0078 7.24137 36.2076 7.24137Z" fill="#216456"/>
<path d="M7.24138 26.069H9.41379C10.6115 26.069 11.5862 25.0943 11.5862 23.8966C11.5862 23.4968 11.9106 23.1724 12.3103 23.1724H14.4828V27.5542C14.721 27.5303 14.9621 27.5172 15.2069 27.5172C15.4502 27.5172 15.6913 27.531 15.931 27.5549V19.5517C15.931 18.354 14.9563 17.3793 13.7586 17.3793H10.1379C9.73821 17.3793 9.41379 17.0549 9.41379 16.6552V14.4828H7.96552V16.6552C7.96552 17.8529 8.94021 18.8276 10.1379 18.8276H13.7586C14.1583 18.8276 14.4828 19.152 14.4828 19.5517V21.7241H12.3103C11.1126 21.7241 10.1379 22.6988 10.1379 23.8966C10.1379 24.2963 9.81352 24.6207 9.41379 24.6207H7.24138V22.4483H0V28.2414H7.24138V26.069Z" fill="#216456"/>
<path d="M37.6557 22.4483V24.6207H36.9316C36.5319 24.6207 36.2074 24.2963 36.2074 23.8965V23.1724C36.2074 21.9747 35.2327 21 34.035 21H29.6902V18.8276C29.6902 18.4279 30.0146 18.1034 30.4143 18.1034H34.7592C35.9569 18.1034 36.9316 17.1288 36.9316 15.931V14.4828H35.4833V15.931C35.4833 16.3308 35.1589 16.6552 34.7592 16.6552H30.4143C29.2166 16.6552 28.2419 17.6299 28.2419 18.8276V19.5517H23.8971C23.4974 19.5517 23.173 19.2273 23.173 18.8276V16.6552H26.0695V10.8621H18.8281V16.6552H21.7247V18.8276C21.7247 20.0253 22.6994 21 23.8971 21H28.2419V23.4411C28.7401 23.5613 29.2246 23.7184 29.6902 23.9154V22.4483H34.035C34.4347 22.4483 34.7592 22.7727 34.7592 23.1724V23.8965C34.7592 25.0943 35.7339 26.069 36.9316 26.069H37.6557V28.2414H44.8971V22.4483H37.6557Z" fill="#216456"/>
</svg>
