<svg width="42" height="42" viewBox="0 0 42 42" fill="none" xmlns="http://www.w3.org/2000/svg">
<path d="M31.6641 24.7734C28.9501 24.7734 26.7422 22.5655 26.7422 19.8516C26.7422 17.1376 28.9501 14.9297 31.6641 14.9297C34.378 14.9297 36.5859 17.1376 36.5859 19.8516C36.5859 22.5655 34.378 24.7734 31.6641 24.7734Z" fill="#216456"/>
<path d="M40.7695 42H1.23047C0.550922 42 0 41.4491 0 40.7695V38.3086C0 37.629 0.550922 37.0781 1.23047 37.0781H40.7695C41.4491 37.0781 42 37.629 42 38.3086V40.7695C42 41.4491 41.4491 42 40.7695 42Z" fill="#216456"/>
<path d="M35.9043 25.8918C34.7036 26.7372 33.2409 27.2344 31.6641 27.2344C30.0873 27.2344 28.6246 26.7372 27.4239 25.8918C26.3475 26.5031 25.4157 27.3399 24.6914 28.3369V30.9258C24.6914 32.2029 24.0393 33.3304 23.0508 33.9934V34.6172H40.2773V33.3867C40.2773 30.1779 38.5133 27.3737 35.9043 25.8918Z" fill="#216456"/>
<path d="M21 17.3906H1.3125C0.632953 17.3906 0.0820312 17.9415 0.0820312 18.6211V30.9258C0.0820312 31.6053 0.632953 32.1562 1.3125 32.1562H6.98808L6.16777 34.6172H16.1447L15.3243 32.1562H21C21.6795 32.1562 22.2305 31.6053 22.2305 30.9258V18.6211C22.2305 17.9415 21.6795 17.3906 21 17.3906Z" fill="#216456"/>
<path d="M27.5625 0H9.51562C7.9325 0 6.64453 1.28797 6.64453 2.87109V9.43359C6.64453 11.0167 7.9325 12.3047 9.51562 12.3047H19.8071L24.4191 15.3793C24.625 15.5165 24.8629 15.5859 25.1016 15.5859C25.3007 15.5859 25.5002 15.5377 25.6822 15.4403C26.0822 15.2262 26.332 14.8093 26.332 14.3555V12.3047H27.5625C29.1456 12.3047 30.4336 11.0167 30.4336 9.43359V2.87109C30.4336 1.28797 29.1456 0 27.5625 0ZM24.2812 7.38281H12.7969C12.1173 7.38281 11.5664 6.83189 11.5664 6.15234C11.5664 5.4728 12.1173 4.92188 12.7969 4.92188H24.2812C24.9608 4.92188 25.5117 5.4728 25.5117 6.15234C25.5117 6.83189 24.9608 7.38281 24.2812 7.38281Z" fill="#216456"/>
</svg>
