<svg width="48" height="36" viewBox="0 0 48 36" fill="none" xmlns="http://www.w3.org/2000/svg">
<path d="M3.90599 28.2071V7.86539C2.88811 7.82571 1.89958 7.79375 0.956759 7.76519C0.432864 7.74939 0 8.16497 0 8.68323V32.3771C0 32.8651 0.385397 33.268 0.87836 33.2941C5.78858 33.5557 12.2578 33.8347 18.353 35.2943C13.8043 31.8283 8.8254 30.2624 5.04295 29.5607C4.38344 29.4387 3.90599 28.8693 3.90599 28.2071Z" fill="#216456"/>
<path d="M44.0945 7.09334V28.0517C44.0945 28.7284 43.6171 29.3102 42.9576 29.4351C39.1751 30.1521 34.1962 31.7523 29.6475 35.2943C35.7333 33.8048 42.186 33.5189 47.1221 33.2502C47.6151 33.2234 48.0005 32.8118 48.0005 32.3131V7.99752C48.0005 7.47992 47.586 7.05974 47.0738 7.05899C46.2498 7.05777 45.237 7.06556 44.0945 7.09334Z" fill="#216456"/>
<path d="M7.05957 0.935467V27.2341C11.6449 28.2538 17.5183 30.4775 22.5891 35.2943V7.6955C19.3713 3.60255 13.4064 0.99459 8.15547 0.0158812C7.5857 -0.0902969 7.05957 0.349289 7.05957 0.935467ZM18.5844 22.3621C18.1854 23.0225 17.3319 23.232 16.6778 22.828C15.9279 22.3649 14.0083 21.2582 12.3634 20.9766C11.6079 20.8476 11.0994 20.1235 11.227 19.3592C11.3546 18.5949 12.0703 18.0804 12.8257 18.2095C14.8701 18.5584 17.0227 19.7521 18.123 20.4331C18.7767 20.8373 18.9829 21.7007 18.5844 22.3621ZM18.6158 13.4909C18.1783 14.1268 17.3117 14.2817 16.6852 13.8398C15.7818 13.2037 14.1082 12.3542 12.3634 12.0558C11.6079 11.9267 11.0994 11.2027 11.227 10.4384C11.3546 9.67406 12.0703 9.15954 12.8257 9.28864C15.0208 9.66377 17.0782 10.6966 18.271 11.5376C18.8997 11.98 19.0541 12.8547 18.6158 13.4909Z" fill="#216456"/>
<path d="M39.8458 0.0159015C34.6203 0.990964 28.627 3.59425 25.4121 7.69545V35.2943C30.4829 30.4775 36.3563 28.2538 40.9416 27.2341V0.935583C40.9416 0.349404 40.4155 -0.0903704 39.8458 0.0159015ZM35.6378 20.9766C33.9929 21.2582 32.0733 22.3649 31.3234 22.828C30.6692 23.2321 29.8157 23.0223 29.4168 22.3621C29.0182 21.7007 29.2244 20.8372 29.8782 20.4331C30.9785 19.7521 33.1311 18.5584 35.1755 18.2094C35.9309 18.0794 36.6466 18.5949 36.7742 19.3592C36.9018 20.1234 36.3933 20.8475 35.6378 20.9766ZM35.6378 12.0558C33.893 12.3542 32.2194 13.2036 31.316 13.8398C30.69 14.2813 29.8233 14.1273 29.3853 13.4908C28.947 12.8547 29.1015 11.98 29.7302 11.5375C30.923 10.6965 32.9804 9.66372 35.1755 9.28859C35.9309 9.15855 36.6466 9.67401 36.7742 10.4383C36.9018 11.2026 36.3933 11.9267 35.6378 12.0558Z" fill="#216456"/>
</svg>
