<svg width="58" height="22" viewBox="0 0 58 22" fill="none" xmlns="http://www.w3.org/2000/svg">
<path d="M4.38054 6.56136C4.26758 6.56136 4.23934 6.50488 4.29582 6.42016L4.88886 5.65768C4.94534 5.57296 5.08654 5.51648 5.1995 5.51648H15.2812C15.3942 5.51648 15.4224 5.6012 15.3659 5.68592L14.8859 6.42016C14.8294 6.50488 14.6882 6.5896 14.6035 6.5896L4.38054 6.56136Z" fill="#216456"/>
<path d="M0.11296 9.1595C0 9.1595 -0.0282401 9.10302 0.0282401 9.0183L0.621282 8.25582C0.677762 8.1711 0.818963 8.11462 0.931923 8.11462H13.8094C13.9224 8.11462 13.9788 8.19934 13.9506 8.28406L13.7247 8.96182C13.6964 9.07478 13.5835 9.13126 13.4705 9.13126L0.11296 9.1595Z" fill="#216456"/>
<path d="M6.94304 11.7576C6.83008 11.7576 6.80184 11.6729 6.85832 11.5882L7.25368 10.8822C7.31016 10.7975 7.42312 10.7128 7.53608 10.7128H13.1841C13.2971 10.7128 13.3535 10.7975 13.3535 10.9104L13.2971 11.5882C13.2971 11.7012 13.1841 11.7859 13.0994 11.7859L6.94304 11.7576Z" fill="#216456"/>
<path d="M36.2617 6.05307C34.4826 6.50492 33.2682 6.8438 31.5174 7.29564C31.0938 7.4086 31.0655 7.43684 30.6984 7.01324C30.2748 6.53316 29.9642 6.22252 29.3711 5.94011C27.592 5.06467 25.8693 5.31883 24.2597 6.36372C22.3393 7.60628 21.3509 9.44189 21.3792 11.7293C21.4074 13.9885 22.9606 15.8524 25.1916 16.163C27.1119 16.4172 28.7216 15.7394 29.9924 14.2992C30.2466 13.9885 30.4725 13.6497 30.7549 13.2543C29.7382 13.2543 28.4674 13.2543 25.3045 13.2543C24.7115 13.2543 24.5703 12.8872 24.768 12.4071C25.1351 11.5317 25.8129 10.0632 26.2082 9.32893C26.2929 9.15949 26.4906 8.87708 26.9142 8.87708C28.3545 8.87708 33.6636 8.87708 37.1936 8.87708C37.1371 9.63957 37.1371 10.4021 37.0242 11.1645C36.7135 13.1978 35.9511 15.0617 34.7085 16.6996C32.6752 19.3824 30.0206 21.0486 26.6601 21.5004C23.8925 21.8675 21.3227 21.331 19.0635 19.6366C16.9737 18.0551 15.7876 15.9653 15.477 13.3673C15.1099 10.2891 16.0136 7.52156 17.8774 5.09291C19.8824 2.46658 22.537 0.800417 25.7846 0.207375C28.4392 -0.272707 30.9808 0.0379339 33.2682 1.59114C34.765 2.57954 35.8381 3.93507 36.5441 5.57299C36.7135 5.82715 36.6006 5.96835 36.2617 6.05307Z" fill="#216456"/>
<path d="M45.6062 21.6699C43.0363 21.6134 40.6924 20.8792 38.7156 19.1848C37.0494 17.7445 36.0045 15.9089 35.6657 13.7344C35.1573 10.5433 36.0328 7.71928 37.9531 5.20591C40.0146 2.49487 42.4998 1.08286 45.8603 0.48982C48.7408 -0.0185015 51.4519 0.263899 53.9088 1.93006C56.1397 3.45503 57.5235 5.51656 57.8906 8.2276C58.3707 12.04 57.2693 15.1464 54.643 17.801C52.7792 19.6931 50.4917 20.8792 47.8654 21.4157C47.1029 21.5569 46.3404 21.5852 45.6062 21.6699ZM52.3273 10.2609C52.2991 9.89377 52.2991 9.61137 52.2426 9.32897C51.7343 6.5332 49.1644 4.95175 46.4816 5.57304C43.8553 6.16608 42.1609 7.83224 41.5396 10.4868C41.0313 12.6895 42.1044 14.9205 44.1377 15.8242C45.6909 16.502 47.2441 16.4172 48.7408 15.6547C50.9718 14.4969 52.1861 12.6895 52.3273 10.2609Z" fill="#216456"/>
</svg>
