<svg width="48" height="39" viewBox="0 0 48 39" fill="none" xmlns="http://www.w3.org/2000/svg">
<path d="M19.1273 19.6981C19.596 20.1686 20.3558 20.1686 20.8245 19.6981L21.6728 18.8466C22.1415 18.3761 22.1415 17.6135 21.6728 17.1429L18.9938 14.4545L21.672 11.7654C22.1408 11.2949 22.1408 10.5322 21.672 10.0617L20.8237 9.21026C20.355 8.73973 19.5953 8.73973 19.1265 9.21026L14.751 13.6023C14.2823 14.0729 14.2823 14.8355 14.751 15.306L19.1273 19.6981ZM26.328 18.8474L27.1763 19.6988C27.645 20.1694 28.4048 20.1694 28.8735 19.6988L33.249 15.3068C33.7178 14.8362 33.7178 14.0736 33.249 13.6031L28.8735 9.21101C28.4048 8.74048 27.645 8.74048 27.1763 9.21101L26.328 10.0625C25.8593 10.533 25.8593 11.2956 26.328 11.7662L29.0063 14.4545L26.328 17.1437C25.8593 17.6142 25.8593 18.3768 26.328 18.8474ZM46.8 31.3182H28.6155C28.56 32.8096 27.5123 33.7273 26.16 33.7273H21.6C20.1982 33.7273 19.1235 32.4121 19.1423 31.3182H1.2C0.54 31.3182 0 31.8602 0 32.5227V33.7273C0 36.3773 2.16 38.5455 4.8 38.5455H43.2C45.84 38.5455 48 36.3773 48 33.7273V32.5227C48 31.8602 47.46 31.3182 46.8 31.3182ZM43.2 3.61364C43.2 1.62614 41.58 0 39.6 0H8.4C6.42 0 4.8 1.62614 4.8 3.61364V28.9091H43.2V3.61364ZM38.4 24.0909H9.6V4.81818H38.4V24.0909Z" fill="#216456"/>
</svg>
