<svg width="42" height="44" viewBox="0 0 42 44" fill="none" xmlns="http://www.w3.org/2000/svg">
<path d="M16.3362 39.6028H2.82877V2.82877H31.1165V15.2471C31.7503 15.3103 32.3529 15.5527 32.8539 15.9459C33.3549 16.3392 33.7334 16.867 33.9453 17.4677V2.82877C33.9453 2.07854 33.6472 1.35903 33.1167 0.828528C32.5863 0.29803 31.8667 0 31.1165 0H2.82877C2.07854 0 1.35903 0.29803 0.828528 0.828528C0.29803 1.35903 0 2.07854 0 2.82877V39.6028C0 40.3531 0.29803 41.0726 0.828528 41.6031C1.35903 42.1336 2.07854 42.4316 2.82877 42.4316H18.6133L17.1989 41.0172C16.798 40.625 16.5014 40.1388 16.3362 39.6028Z" fill="#216456"/>
<path d="M41.7819 28.9525L38.9531 28.0897C38.7525 27.3973 38.4774 26.7286 38.1328 26.0954L39.5472 23.4647C39.6005 23.3643 39.6197 23.2492 39.6018 23.1369C39.584 23.0247 39.53 22.9212 39.4482 22.8424L37.3549 20.7915C37.276 20.7096 37.1726 20.6557 37.0603 20.6378C36.948 20.62 36.8329 20.6391 36.7325 20.6925L34.1159 22.1069C33.4771 21.7353 32.7987 21.4364 32.0933 21.2158L31.2306 18.387C31.1944 18.2815 31.1256 18.1903 31.034 18.1267C30.9424 18.0631 30.8329 18.0304 30.7214 18.0334H27.8926C27.7818 18.0344 27.6741 18.0706 27.5852 18.1366C27.4962 18.2027 27.4305 18.2954 27.3976 18.4012L26.5348 21.23C25.8258 21.4406 25.1426 21.73 24.4981 22.0927L21.9239 20.6783C21.8235 20.625 21.7085 20.6058 21.5962 20.6237C21.4839 20.6415 21.3805 20.6955 21.3016 20.7773L19.2224 22.8141C19.1406 22.893 19.0866 22.9964 19.0688 23.1087C19.0509 23.2209 19.0701 23.336 19.1234 23.4364L20.5378 26.0106C20.175 26.6551 19.8856 27.3383 19.675 28.0473L16.8463 28.9101C16.7404 28.943 16.6478 29.0087 16.5817 29.0977C16.5156 29.1866 16.4795 29.2943 16.4785 29.4051V32.2339C16.4795 32.3447 16.5156 32.4523 16.5817 32.5413C16.6478 32.6303 16.7404 32.696 16.8463 32.7289L19.675 33.5917C19.8886 34.2861 20.1779 34.9549 20.5378 35.586L19.1234 38.2733C19.0701 38.3737 19.0509 38.4888 19.0688 38.601C19.0866 38.7133 19.1406 38.8167 19.2224 38.8956L21.2167 41.0172C21.2956 41.0991 21.399 41.153 21.5113 41.1709C21.6236 41.1888 21.7386 41.1696 21.839 41.1162L24.4839 39.7018C25.1087 40.0397 25.7678 40.31 26.4499 40.508L27.3127 43.3368C27.3457 43.4426 27.4113 43.5353 27.5003 43.6013C27.5893 43.6674 27.6969 43.7036 27.8078 43.7046H30.6365C30.7473 43.7036 30.855 43.6674 30.944 43.6013C31.0329 43.5353 31.0986 43.4426 31.1316 43.3368L31.9943 40.508C32.6718 40.3097 33.3262 40.0394 33.9462 39.7018L36.6194 41.1162C36.7198 41.1696 36.8348 41.1888 36.9471 41.1709C37.0594 41.153 37.1628 41.0991 37.2417 41.0172L39.2926 38.9664C39.3744 38.8875 39.4284 38.784 39.4462 38.6718C39.4641 38.5595 39.4449 38.4444 39.3916 38.344L37.9772 35.685C38.32 35.0608 38.595 34.4017 38.7975 33.719L41.6263 32.8562C41.7321 32.8233 41.8248 32.7576 41.8908 32.6686C41.9569 32.5796 41.9931 32.472 41.994 32.3612V29.4617C42.0096 29.3655 41.998 29.2668 41.9605 29.1769C41.923 29.0869 41.8612 29.0092 41.7819 28.9525ZM29.2787 35.6284C28.3454 35.6368 27.4307 35.3677 26.6506 34.8554C25.8705 34.343 25.2602 33.6103 24.8972 32.7505C24.5342 31.8906 24.4348 30.9423 24.6118 30.0259C24.7887 29.1095 25.2339 28.2663 25.8908 27.6034C26.5478 26.9404 27.3869 26.4876 28.3017 26.3024C29.2165 26.1172 30.1656 26.208 31.0287 26.5632C31.8918 26.9184 32.63 27.522 33.1494 28.2975C33.6688 29.0729 33.9462 29.9852 33.9462 30.9185C33.9462 32.1603 33.4558 33.3519 32.5817 34.234C31.7076 35.1161 30.5205 35.6172 29.2787 35.6284Z" fill="#216456"/>
</svg>
