<svg width="42" height="45" viewBox="0 0 42 45" fill="none" xmlns="http://www.w3.org/2000/svg">
<path d="M10.1515 25.7445H20.238V29.9428H6.07501C4.5804 29.9428 3.34931 31.1202 3.34931 32.6148V34.8396C3.34931 35.2615 3.69109 35.6029 4.11264 35.6029C4.53419 35.6029 4.87597 35.2615 4.87597 34.8396V32.6148C4.87597 31.9618 5.42238 31.4698 6.07501 31.4698H20.238V34.8403C20.238 35.2619 20.5798 35.6037 21.0013 35.6037C21.4229 35.6037 21.7647 35.2619 21.7647 34.8403V31.4695H35.9075C36.5602 31.4695 37.1267 31.9618 37.1267 32.6145V34.8392C37.1267 35.2608 37.4685 35.6026 37.89 35.6026C38.3116 35.6026 38.6534 35.2608 38.6534 34.8392V32.6148C38.6534 31.1202 37.4021 29.9432 35.9075 29.9432H21.7647V25.7445H31.8516C36.3134 25.7415 39.9303 22.1265 39.9359 17.6647C39.9359 17.6058 39.9288 17.5469 39.915 17.4895C39.8218 13.6672 36.7018 10.6139 32.8784 10.6031C32.7275 10.6031 32.5732 10.6053 32.4155 10.6113C32.0722 5.1994 27.9418 0.790123 22.5638 0.0942548C17.1858 -0.601241 12.0691 2.61198 10.3602 7.7585C5.56662 8.57364 2.06193 12.7298 2.06715 17.592V17.6177V17.6378C2.06641 17.6486 2.06641 17.6542 2.06641 17.6647C2.07162 22.1269 5.68925 25.7419 10.1515 25.7445ZM14.7993 9.823C14.7959 9.56955 14.9379 9.33622 15.1649 9.22329L20.7058 6.50541C20.8906 6.41447 21.1072 6.41447 21.2921 6.50541L26.8378 9.23112C27.0647 9.34405 27.2068 9.57737 27.2034 9.83082V15.0232C27.2034 16.4753 26.2705 18.2547 25.0696 19.0732L21.4889 21.5204C21.3644 21.6576 21.1877 21.7363 21.0025 21.737H21.0013C20.8195 21.7359 20.6465 21.6591 20.5239 21.5249L16.9331 19.0732C15.7322 18.2547 14.7993 16.4753 14.7993 15.0232V9.823Z" fill="#216456"/>
<path d="M17.6871 17.9695L20.3357 19.7798L20.3275 8.18265L16.1348 10.2397V15.0232C16.1348 16.0269 16.8571 17.4037 17.6871 17.9695Z" fill="#216456"/>
<path d="M24.3154 17.9695C25.16 17.3937 25.866 16.0444 25.866 15.0232V10.2472L21.6445 8.17073L21.6624 19.7817L24.3154 17.9695Z" fill="#216456"/>
<path d="M24.7661 40.2772C24.7661 42.3581 23.0792 44.045 20.9983 44.045C18.9174 44.045 17.2305 42.3581 17.2305 40.2772C17.2305 38.1963 18.9174 36.5094 20.9983 36.5094C23.0792 36.5094 24.7661 38.1963 24.7661 40.2772Z" fill="#216456"/>
<path d="M42.0005 40.2772C42.0005 42.3581 40.3136 44.045 38.2327 44.045C36.1518 44.045 34.4648 42.3581 34.4648 40.2772C34.4648 38.1963 36.1518 36.5094 38.2327 36.5094C40.3136 36.5094 42.0005 38.1963 42.0005 40.2772Z" fill="#216456"/>
<path d="M7.53566 40.2772C7.53566 42.3581 5.84872 44.045 3.76783 44.045C1.68693 44.045 0 42.3581 0 40.2772C0 38.1963 1.68693 36.5094 3.76783 36.5094C5.84872 36.5094 7.53566 38.1963 7.53566 40.2772Z" fill="#216456"/>
</svg>
