<svg width="58" height="58" viewBox="0 0 58 58" fill="none" xmlns="http://www.w3.org/2000/svg">
<path fill-rule="evenodd" clip-rule="evenodd" d="M29 58C45.0163 58 58 45.0163 58 29C58 12.9837 45.0163 0 29 0C12.9837 0 0 12.9837 0 29C0 45.0163 12.9837 58 29 58ZM28.739 27.7659H32.87V24.0542H28.739V27.7659ZM28.739 15H32.87V18.7929H28.739V15ZM33.6262 24.048H37.7572V27.7597H33.6262V24.048ZM23.8581 19.5427H27.9891V23.2981H23.8581V19.5427ZM28.739 19.5427H32.87V23.2981H28.739V19.5427ZM45.6004 25.2665C47.194 24.9665 49.2689 25.1852 50.1688 25.7913L51 26.3475C50.9774 26.3938 50.9477 26.4554 50.9136 26.526C50.7683 26.8267 50.5447 27.2894 50.4688 27.416C48.9876 30.2466 46.1003 30.2653 44.7629 30.2403C41.3569 38.4698 34.0762 43 24.2393 43C19.6959 43 16.2211 41.6066 13.9025 38.8634C11.5152 36.0328 10.609 31.9087 11.1527 28.7344H38.3196C39.732 28.7594 40.8007 28.3595 41.3444 28.0658C40.1132 26.1788 40.4257 23.3169 41.5756 21.5798L42.1569 20.705L43.0318 21.2861C44.5567 22.4608 45.3941 23.7668 45.6004 25.2665ZM14.1025 24.048H18.2272H18.2335V27.7597H14.1025V24.048ZM18.9772 24.048H23.1082V27.7597H18.9772V24.048ZM23.8581 24.048H27.9891V27.7597H23.8581V24.048ZM18.9772 19.5427H23.1082V23.2981H18.9772V19.5427Z" fill="#216456"/>
</svg>
