<svg width="42" height="50" viewBox="0 0 42 50" fill="none" xmlns="http://www.w3.org/2000/svg">
<path d="M9.7998 32.9866C13.6658 32.9866 16.7998 29.8526 16.7998 25.9866C16.7998 22.1206 13.6658 18.9866 9.7998 18.9866C5.93381 18.9866 2.7998 22.1206 2.7998 25.9866C2.7998 29.8526 5.93381 32.9866 9.7998 32.9866Z" fill="#216456"/>
<path d="M0 42.7866V49.7866H19.6V42.7866C19.6 37.3835 15.2031 32.9866 9.79999 32.9866C4.39683 32.9866 0 37.3835 0 42.7866Z" fill="#216456"/>
<path d="M30.7998 41.3866H41.9998V44.1866H30.7998V41.3866Z" fill="#216456"/>
<path d="M25.2002 41.3866H28.0002V44.1866H25.2002V41.3866Z" fill="#216456"/>
<path d="M30.7998 46.9866H41.9998V49.7866H30.7998V46.9866Z" fill="#216456"/>
<path d="M25.2002 46.9866H28.0002V49.7866H25.2002V46.9866Z" fill="#216456"/>
<path d="M30.7998 35.7866H41.9998V38.5866H30.7998V35.7866Z" fill="#216456"/>
<path d="M25.2002 35.7866H28.0002V38.5866H25.2002V35.7866Z" fill="#216456"/>
<path d="M19.0762 34.3305C19.7151 35.0309 20.2595 35.8061 20.7291 36.637L24.3795 32.9866H41.9997V30.1866H23.2201L19.0762 34.3305Z" fill="#216456"/>
<path d="M37.7998 2H41.9998V27.3866H37.7998V2Z" fill="#216456"/>
<path d="M23.7998 16.0933H27.9998V27.3866H23.7998V16.0933Z" fill="#216456"/>
<path d="M30.8008 16.0933H35.0008V27.3866H30.8008V16.0933Z" fill="#216456"/>
<path fill-rule="evenodd" clip-rule="evenodd" d="M2 0C0.895431 0 0 0.89543 0 2V12C0 13.1046 0.89543 14 2 14H33C34.1046 14 35 13.1046 35 12V2C35 0.895431 34.1046 0 33 0H2ZM6.19531 10.0842V11.6H12.7637V9.57894H9.73216L10.6164 8.94737C11.6269 8.06316 12.6374 6.92631 12.6374 5.53684C12.6374 3.89473 11.3743 2.75789 9.35321 2.75789C8.09005 2.75789 6.95321 3.13684 6.32163 3.6421L6.95321 5.41052C7.45847 5.03158 8.09005 4.65263 8.84794 4.65263C9.73215 4.65263 10.1111 5.15789 10.1111 5.78947C10.1111 6.67368 9.22689 7.55789 7.45847 9.07368L6.19531 10.0842ZM17.5637 11.6V9.57895H13.7743V8.06316L16.8058 2.88421H19.8374V7.81052H20.8479V9.57895H19.8374V11.6H17.5637ZM17.5637 7.81052V6.29473C17.5637 5.78947 17.5637 5.15789 17.6901 4.52631C17.4374 5.15789 17.1848 5.66316 16.8058 6.29473L16.0479 7.81052H17.5637ZM24.259 2H21.859V11.4737H24.259V7.55789V7.17895C24.3853 6.92632 24.5116 6.67368 25.0169 6.67368C25.6484 6.67368 25.9011 7.17895 25.9011 7.93684V11.4737H28.3011V7.68421C28.3011 5.78947 27.5432 4.77895 26.0274 4.77895C25.6484 4.77895 25.2695 4.90526 25.0169 5.03158C24.7642 5.15789 24.5116 5.41053 24.259 5.66316V2Z" fill="#216456"/>
</svg>
