<svg width="42" height="42" viewBox="0 0 42 42" fill="none" xmlns="http://www.w3.org/2000/svg">
<path d="M40.0061 20.7847V20.003C40.0061 8.99658 31.0095 0 20.003 0C8.93278 0 0 8.99658 0 20.003C0 31.0095 8.99658 40.0061 20.003 40.0061C20.2583 40.0061 20.4816 40.0061 20.7368 39.9423C22.8583 41.2503 25.3308 42 27.9947 42C35.7152 42 42 35.7152 42 27.9947C42.0159 25.3627 41.2503 22.8902 40.0061 20.7847ZM35.4918 15.9992C35.5078 16.063 35.5078 16.1428 35.5397 16.2226L35.2047 15.9992H35.4918ZM33.8488 11.9954H27.9468C27.3247 9.52298 26.3995 7.13027 25.1872 4.88112C28.872 6.14128 31.9347 8.67756 33.8488 11.9954ZM20.003 4.05165C21.662 6.44436 23.0019 9.14015 23.8314 11.9954H16.1907C17.0042 9.14015 18.3441 6.46031 20.003 4.05165ZM4.51424 24.0068C4.19521 22.7307 3.98785 21.3908 3.98785 20.003C3.98785 18.6153 4.19521 17.2754 4.51424 15.9992H11.2776C11.1181 17.3232 10.9905 18.6312 10.9905 20.003C10.9905 21.3589 11.1181 22.6829 11.2776 24.0068H4.51424ZM6.15724 28.0106H11.9954C12.6973 30.515 13.5906 32.9077 14.8029 35.125C11.15 33.8648 8.08735 31.3445 6.15724 28.0106ZM11.9954 11.9954H6.15724C8.0714 8.64565 11.15 6.12533 14.8029 4.88112C13.6065 7.09837 12.6973 9.50703 11.9954 11.9954ZM15.0103 20.003C15.0103 18.6472 15.1379 17.3073 15.3293 15.9992H20.8325C18.2962 17.5146 16.3183 19.7797 15.1538 22.4755C15.0581 21.662 15.0103 20.8485 15.0103 20.003ZM28.0106 38.0122C22.4915 38.0122 18.0091 33.5298 18.0091 28.0106C18.0091 22.4755 22.4755 18.0091 28.0106 18.0091C33.5298 18.0091 38.0121 22.4915 38.0121 28.0106C38.0121 33.5298 33.5298 38.0122 28.0106 38.0122Z" fill="#216456"/>
<path d="M34.5346 32.4451L28.3135 26.2241C28.505 25.7615 28.6007 25.283 28.6007 24.7885C28.6007 22.6988 26.9098 20.992 24.8042 20.992C22.6987 20.992 21.0078 22.6829 21.0078 24.7885C21.0078 26.894 22.6987 28.5849 24.8042 28.5849C25.2987 28.5849 25.7932 28.4892 26.2399 28.2978L28.3774 30.4353L27.516 31.2966C27.4043 31.4083 27.4043 31.5997 27.516 31.7114L28.6804 32.8758C28.7921 32.9875 28.9835 32.9875 29.0952 32.8758L30.0522 31.9187L30.5148 32.3813L29.5578 33.3384C29.4461 33.4501 29.4461 33.6415 29.5578 33.7531L30.7222 34.9176C30.8339 35.0293 31.0253 35.0293 31.1369 34.9176L31.9983 34.0562L32.5247 34.5826C33.099 35.1569 34.0241 35.1569 34.5824 34.5826C34.6303 34.5348 34.6782 34.4869 34.726 34.4231C35.1726 33.801 35.0769 32.9715 34.5346 32.4451ZM24.8202 26.8302C23.6876 26.8302 22.7784 25.921 22.7784 24.7885C22.7784 23.6559 23.6876 22.7467 24.8202 22.7467C25.9527 22.7467 26.862 23.6559 26.862 24.7885C26.862 25.921 25.9527 26.8302 24.8202 26.8302Z" fill="#216456"/>
</svg>
