<svg width="42" height="42" viewBox="0 0 42 42" fill="none" xmlns="http://www.w3.org/2000/svg">
<path d="M41.7586 1.69292C41.7582 1.69013 41.7582 1.68728 41.7586 1.68448C41.6794 1.33697 41.5046 1.01852 41.2539 0.765069C41.0033 0.511619 40.6868 0.333256 40.3402 0.250101C37.5464 -0.431464 33.1514 0.295102 28.2811 2.24511C23.3723 4.21387 18.7729 7.12014 15.6641 10.2345C14.6677 11.2257 13.742 12.2855 12.8938 13.4061C10.8004 13.3124 8.95629 13.6105 7.40284 14.2883C1.98969 16.6705 0.443747 22.7671 0.0321826 25.2702C-0.027372 25.6259 -0.00405324 25.9905 0.100324 26.3357C0.204702 26.6809 0.387322 26.9973 0.633974 27.2604C0.880625 27.5234 1.18465 27.726 1.5224 27.8524C1.86015 27.9788 2.2225 28.0255 2.58126 27.989H2.59345L8.62348 27.3309C8.63098 27.4077 8.63941 27.4781 8.64598 27.5427C8.72342 28.2775 9.05111 28.9633 9.57411 29.4852L12.5169 32.43C13.0381 32.9537 13.7237 33.2818 14.4585 33.359L14.6601 33.3806L14.0038 39.4031V39.4153C13.9703 39.7397 14.0048 40.0674 14.1052 40.3777C14.2055 40.688 14.3695 40.9739 14.5867 41.2171C14.8038 41.4604 15.0693 41.6557 15.3662 41.7905C15.6632 41.9253 15.9849 41.9966 16.311 42C16.4414 42.0001 16.5715 41.9894 16.7001 41.9681C19.2173 41.5631 25.3111 40.0359 27.6867 34.5937C28.3589 33.0506 28.6561 31.214 28.5726 29.1243C29.6983 28.278 30.762 27.3522 31.7555 26.354C34.8895 23.2358 37.8052 18.6739 39.7533 13.8364C41.693 9.0214 42.4233 4.59356 41.7586 1.69292ZM31.7217 18.088C30.9514 18.8591 29.9697 19.3844 28.9007 19.5975C27.8318 19.8106 26.7237 19.7018 25.7166 19.2849C24.7095 18.8681 23.8486 18.1619 23.243 17.2557C22.6373 16.3495 22.314 15.284 22.314 14.1941C22.314 13.1041 22.6373 12.0386 23.243 11.1324C23.8486 10.2263 24.7095 9.52006 25.7166 9.10322C26.7237 8.68637 27.8318 8.57759 28.9007 8.79065C29.9697 9.00371 30.9514 9.52903 31.7217 10.3002C32.238 10.8087 32.6481 11.4149 32.9279 12.0834C33.2078 12.7519 33.3519 13.4694 33.3519 14.1941C33.3519 14.9188 33.2078 15.6363 32.9279 16.3048C32.6481 16.9733 32.238 17.5794 31.7217 18.088Z" fill="#216456"/>
</svg>
