<svg width="42" height="42" viewBox="0 0 42 42" fill="none" xmlns="http://www.w3.org/2000/svg">
<path d="M30.8438 0C27.4515 0 24.6094 2.84214 24.6094 6.23439C24.6094 9.62663 27.4515 12.3867 30.8438 12.3867C34.236 12.3867 37.0781 9.62663 37.0781 6.23439C37.0781 2.84214 34.236 0 30.8438 0Z" fill="#216456"/>
<path d="M15.9961 5.00391C13.2816 5.00391 11.0742 7.2113 11.0742 9.9258C11.0742 12.6403 13.2816 14.8477 15.9961 14.8477C18.7106 14.8477 20.918 12.6403 20.918 9.9258C20.918 7.2113 18.7106 5.00391 15.9961 5.00391Z" fill="#216456"/>
<path d="M14.589 25.0699L9.84375 27.443V42.0001H19.6875V29.2012L14.589 25.0699Z" fill="#216456"/>
<path d="M22.1484 29.3664V42.0001H29.6133V26.6165L22.1484 29.3664Z" fill="#216456"/>
<path d="M41.9739 19.4498C41.9903 19.6888 41.9602 19.9282 41.8378 20.1421L38.9718 25.1565C38.7459 25.5507 38.3819 25.7537 37.8688 25.7766C37.4158 25.7634 37.0059 25.5026 36.8029 25.0964L36.3283 24.1459L32.0742 25.7V42.0001H40.7695C41.4587 42.0001 42 41.4586 42 40.7696V19.5234L41.9739 19.4498Z" fill="#216456"/>
<path d="M0 32.3658V32.3696V40.7696C0 41.4586 0.541325 42.0001 1.23047 42.0001H7.38283V28.6737L0 32.3658Z" fill="#216456"/>
<path d="M4.92188 12.3867C2.88635 12.3867 1.23047 14.0426 1.23047 16.0782C1.23047 18.1137 2.88635 19.7696 4.92188 19.7696C4.96815 19.7696 5.01113 19.7576 5.05691 19.7559C5.31768 17.5295 6.25358 15.4462 7.75861 13.745C7.08103 12.9228 6.06811 12.3867 4.92188 12.3867Z" fill="#216456"/>
<path d="M37.3004 11.974C35.7228 13.7248 33.3801 14.8477 30.8438 14.8477C28.3074 14.8477 25.9648 13.7248 24.3871 11.974C21.5535 13.9818 19.6875 17.2705 19.6875 21V23.0569L21.3073 24.3658L34.0413 19.7359L33.8562 19.3647C33.6531 18.9585 33.6904 18.4743 33.9524 18.1029C34.2143 17.734 34.7481 17.5477 35.1915 17.5934L40.9221 18.3108C41.2788 18.3548 41.5742 18.5717 41.7712 18.866C41.2098 16.0345 39.5772 13.5874 37.3004 11.974Z" fill="#216456"/>
<path d="M15.9961 17.3086C13.6978 17.3086 11.6671 16.2312 10.3121 14.5796C8.53019 16.1588 7.38281 18.4379 7.38281 21V23.17L13.6649 20.0291C14.4316 19.6422 15.4061 19.7011 16.1295 20.1817L17.2266 21.0682V21C17.2266 19.6235 17.4472 18.3005 17.8328 17.0494C17.2422 17.2021 16.6337 17.3086 15.9961 17.3086Z" fill="#216456"/>
<path d="M4.92188 23.1702V22.2305C3.30972 22.2305 1.85202 21.5938 0.753869 20.5753C0.286618 21.4369 0 22.4106 0 23.461V26.8612L5.11802 24.3023C5.00137 23.9433 4.92188 23.5676 4.92188 23.1702Z" fill="#216456"/>
</svg>
