<svg width="43" height="42" viewBox="0 0 43 42" fill="none" xmlns="http://www.w3.org/2000/svg">
<path fill-rule="evenodd" clip-rule="evenodd" d="M18.3853 35.0177C17.8117 37.2133 16.4586 39.1251 14.5788 40.3963C12.6989 41.6675 10.4207 42.2112 8.16941 41.9258C5.91811 41.6405 3.84757 40.5456 2.3443 38.8456C0.841021 37.1457 0.00774127 34.9567 0 32.6874C0.000542924 30.616 0.689335 28.6035 1.95813 26.9662C3.22692 25.3288 5.00379 24.1595 7.00949 23.6419C6.95068 21.3079 7.59289 19.0098 8.85319 17.0444C10.1135 15.0791 11.934 13.5366 14.0797 12.6163C14.3435 9.97733 15.3509 7.46747 16.9848 5.37848C18.6187 3.28949 20.812 1.70719 23.3097 0.815535C25.8074 -0.0761181 28.5069 -0.240493 31.0944 0.341519C33.6818 0.923532 36.0509 2.22802 37.9262 4.10333C39.8015 5.97864 41.106 8.34773 41.688 10.9352C42.27 13.5226 42.1056 16.2221 41.214 18.7198C40.3223 21.2175 38.74 23.4108 36.651 25.0447C34.562 26.6786 32.0522 27.6861 29.4132 27.9498C28.4924 30.0954 26.9494 31.9157 24.9836 33.1756C23.0178 34.4355 20.7195 35.0772 18.3853 35.0177ZM18.9737 11.6776C21.9669 11.7533 24.8167 12.9761 26.9338 15.0933C29.051 17.2105 30.2739 20.0602 30.3496 23.0535C32.5452 22.4798 34.457 21.1268 35.7282 19.2469C36.9994 17.3671 37.543 15.0888 37.2577 12.8375C36.9723 10.5862 35.8775 8.51571 34.1775 7.01243C32.4775 5.50915 30.2886 4.67587 28.0193 4.66813C25.9479 4.66868 23.9354 5.35747 22.298 6.62626C20.6607 7.89506 19.4913 9.67193 18.9737 11.6776ZM18.383 30.3455C19.7925 30.4053 21.1872 30.0382 22.3845 29.2922C23.5819 28.5461 24.5261 27.4559 25.0935 26.1643C25.6609 24.8727 25.8251 23.4399 25.5646 22.0534C25.304 20.6669 24.6309 19.3914 23.6334 18.3938C22.6358 17.3963 21.3603 16.7231 19.9738 16.4626C18.5873 16.2021 17.1545 16.3663 15.8629 16.9337C14.5712 17.5011 13.481 18.4453 12.735 19.6426C11.989 20.84 11.6218 22.2347 11.6817 23.6442C13.2942 24.0634 14.7655 24.9055 15.9436 26.0836C17.1217 27.2617 17.9638 28.733 18.383 30.3455ZM9.33976 37.3573C10.5783 37.3573 11.7661 36.8653 12.6419 35.9895C13.5176 35.1138 14.0096 33.9259 14.0096 32.6874C14.0096 31.4489 13.5176 30.2611 12.6419 29.3853C11.7661 28.5095 10.5783 28.0175 9.33976 28.0175C8.10123 28.0175 6.91343 28.5095 6.03766 29.3853C5.16189 30.2611 4.66988 31.4489 4.66988 32.6874C4.66988 33.9259 5.16189 35.1138 6.03766 35.9895C6.91343 36.8653 8.10123 37.3573 9.33976 37.3573Z" fill="#216456"/>
</svg>
