<svg width="40" height="48" viewBox="0 0 40 48" fill="none" xmlns="http://www.w3.org/2000/svg">
<path d="M19.6364 0L0 8.72727V21.8182C0 33.9273 8.37818 45.2509 19.6364 48C30.8945 45.2509 39.2727 33.9273 39.2727 21.8182V8.72727L19.6364 0ZM19.6364 13.0909C22.6909 13.0909 25.7455 15.4909 25.7455 18.5455V21.8182C27.0545 21.8182 28.3636 23.1273 28.3636 24.6545V32.2909C28.3636 33.6 27.0545 34.9091 25.5273 34.9091H13.5273C12.2182 34.9091 10.9091 33.6 10.9091 32.0727V24.4364C10.9091 23.1273 12.2182 21.8182 13.5273 21.8182V18.5455C13.5273 15.4909 16.5818 13.0909 19.6364 13.0909ZM19.6364 15.7091C17.8909 15.7091 16.3636 16.8 16.3636 18.5455V21.8182H22.9091V18.5455C22.9091 16.8 21.3818 15.7091 19.6364 15.7091Z" fill="#216456"/>
</svg>
