<svg width="80" height="40" viewBox="0 0 80 40" fill="none" xmlns="http://www.w3.org/2000/svg">
<path d="M51.2432 14.0726C51.2376 14.3511 50.921 14.6543 50.6906 14.8893C45.5144 20.1909 40.3271 25.4794 35.1472 30.7772C33.8527 32.1017 32.6331 33.5039 31.2899 34.7715C26.5128 39.2774 16.79 40.8387 9.52319 36.2532C-0.512488 29.917 -3.12208 16.7992 4.12974 7.70981C8.44787 2.29823 14.1916 -0.303339 21.0575 0.0680366C25.711 0.32005 29.5214 2.65635 32.8317 5.86996C32.8898 5.9249 32.9047 6.02344 32.9666 6.16555H26.9605V12.2896C25.9433 11.6491 25.0741 11.0561 24.1636 10.5369C19.778 8.03951 14.3958 9.64631 12.0597 12.0679C9.03046 15.2076 8.66142 19.0105 9.81354 22.982C10.9207 26.7944 13.6839 28.9128 17.5112 29.5646C21.7638 30.2865 25.2445 28.8881 27.9197 25.4566C28.1127 25.2103 28.33 24.981 28.551 24.7574C33.7815 19.4235 39.0194 14.0953 44.2368 8.74628C44.7126 8.25552 45.1884 8.02436 45.8685 8.03951C47.6388 8.07551 49.4092 8.05088 51.2694 8.05088C51.2694 10.1124 51.2919 12.0944 51.2432 14.0726Z" fill="#0E2C3D"/>
<path d="M79.891 21.7372C78.8306 32.4978 68.2461 40.1983 58.7537 38.9515C53.838 38.3073 49.7858 36.3405 46.5318 32.5509C44.8383 30.5765 42.963 28.7593 41.2526 26.9593C43.3077 24.8826 45.3497 22.8191 47.4554 20.6912C47.4947 20.7254 47.7102 20.894 47.8956 21.0892C49.5161 22.7964 51.159 24.4809 52.7383 26.2241C56.1254 29.9626 61.6537 30.8872 66.0037 28.3576C68.9373 26.6504 70.4548 23.9825 70.7095 20.6306C70.8126 19.2663 70.7283 17.8358 70.436 16.5018C69.593 12.6591 66.6368 10.1409 62.6466 9.45502C59.593 8.92826 56.9065 9.70513 54.4056 11.4143C54.0234 11.6757 53.6544 11.9581 53.098 12.3636V6.19405H47.0751C47.1463 6.03488 47.1669 5.90793 47.2399 5.83783C51.0279 2.23958 55.3423 -0.151667 60.7095 0.00749047C70.7564 0.30308 81.1836 8.6232 79.891 21.7372Z" fill="#21CB62"/>
<path d="M39.0683 11.9259C36.8727 14.1504 34.8289 16.2233 32.7345 18.3417C31.5355 17.1196 30.2785 15.8481 29.0383 14.5616C28.9015 14.4195 28.7891 14.1826 28.7873 13.9893C28.7685 12.0377 28.776 10.086 28.776 8.07373C30.8798 8.07373 32.8993 8.06426 34.9169 8.087C35.1024 8.0889 35.3141 8.26132 35.464 8.40533C36.6817 9.58201 37.89 10.7719 39.0683 11.9259Z" fill="#21CB62"/>
</svg>
