<svg width="64" height="64" viewBox="0 0 64 64" fill="none" xmlns="http://www.w3.org/2000/svg">
<rect width="64" height="64" rx="10" fill="#0F0F18"/>
<path d="M15.5246 32.0663H22.8041C23.9111 32.0663 24.8448 31.713 25.6052 31.0063C26.3768 30.2996 26.7626 29.2947 26.7626 27.9918C26.7626 27.0311 26.36 26.1698 25.5549 25.4079C24.7498 24.635 23.8329 24.2485 22.8041 24.2485H12.4383V45.7143H11.2307V23.056H22.8041C24.1683 23.056 25.3704 23.5584 26.4103 24.5632C27.4503 25.557 27.9702 26.6998 27.9702 27.9918C27.9702 29.5818 27.467 30.8572 26.4606 31.8179C25.4543 32.7785 24.2354 33.2589 22.8041 33.2589H15.5246V32.0663ZM15.5246 34.4514H22.8041C24.5485 34.4514 26.0469 33.8496 27.2993 32.646C28.5517 31.4314 29.1779 29.88 29.1779 27.9918C29.1779 26.3686 28.5349 24.9442 27.249 23.7185C25.9742 22.4818 24.4926 21.8634 22.8041 21.8634H10.023V45.7143H8.81535V20.6709H22.8041C24.1348 20.6709 25.3816 21.0076 26.5445 21.6812C27.7186 22.3548 28.6523 23.2602 29.3456 24.3976C30.0389 25.5239 30.3855 26.7219 30.3855 27.9918C30.3855 30.1671 29.6363 31.989 28.1379 33.4576C26.6507 34.9152 24.8728 35.6439 22.8041 35.6439H15.5246V34.4514ZM15.5246 36.8365H22.8041C24.3696 36.8365 25.8233 36.4555 27.1651 35.6936C28.507 34.9317 29.5804 33.8717 30.3855 32.5135C31.1906 31.1443 31.5932 29.637 31.5932 27.9918C31.5932 26.5011 31.1906 25.1043 30.3855 23.8013C29.5916 22.4873 28.5181 21.4383 27.1651 20.6543C25.8121 19.8703 24.3584 19.4783 22.8041 19.4783H7.60769V45.7143H6.40002V18.2858H22.8041C24.5597 18.2858 26.209 18.733 27.7522 19.6274C29.2953 20.5107 30.5197 21.7033 31.4255 23.205C32.3424 24.6957 32.8009 26.2913 32.8009 27.9918C32.8009 29.9573 32.3704 31.6854 31.5093 33.176C30.6595 34.6667 29.5022 35.8317 28.0373 36.6709L31.1571 45.7143H29.8823L26.8967 37.234C26.4495 37.4107 26.1084 37.5321 25.8736 37.5984L28.6747 45.7143H27.3999L24.6659 37.88C24.5653 37.9021 24.2075 37.9407 23.5924 37.9959L26.1923 45.7143H24.9175L22.3512 38.029H21.261L23.7099 45.7143H22.4351L19.9695 38.029H15.5246V36.8365ZM14.8537 45.7143H13.646V25.441H22.8041C23.5533 25.441 24.1963 25.695 24.733 26.203C25.2809 26.6998 25.5549 27.2961 25.5549 27.9918C25.5549 29.9131 24.638 30.8738 22.8041 30.8738H15.5246V29.6812H22.8041C23.2849 29.6812 23.6595 29.5597 23.9279 29.3168C24.2075 29.0629 24.3472 28.6212 24.3472 27.9918C24.3472 27.6053 24.1963 27.2851 23.8944 27.0311C23.6036 26.7661 23.2402 26.6336 22.8041 26.6336H14.8537V45.7143Z" fill="#5BFFDA"/>
<path d="M41.4222 45.7143H40.2146V18.2858H41.4222V45.7143ZM39.0069 45.7143H37.7992V18.2858H39.0069V45.7143ZM36.5916 45.7143H35.3839V18.2858H36.5916V45.7143ZM43.8376 39.7516H56.6857V40.9442H43.8376V42.1367H56.6857V43.3292H43.8376V44.5218H56.6857V45.7143H42.6299V18.2858H56.6857V19.4783H43.8376V20.6709H56.6857V21.8634H43.8376V23.056H56.6857V24.2485H43.8376V29.0187H50.4294V30.2112H43.8376V31.4038H50.4294V32.5963H43.8376V33.7889H50.4294V34.9814H43.8376V39.7516Z" fill="#5BFFDA"/>
</svg>
