<svg width="80" height="80" viewBox="0 0 80 80" fill="none" xmlns="http://www.w3.org/2000/svg">
<path fill-rule="evenodd" clip-rule="evenodd" d="M36.8693 0.743647C37.9035 0.266406 38.9891 0 40.0762 0C41.1686 0.00675659 42.2459 0.260757 43.2303 0.743647L69.3013 13.5997C70.3139 14.0894 71.2037 14.8081 71.9028 15.7011C72.6019 16.5941 73.0919 17.6378 73.3356 18.7529L79.8009 47.5966C80.0615 48.7178 80.0664 49.885 79.8151 51.0085C79.5638 52.1319 79.063 53.1817 78.3513 54.0769L60.248 77.1839C58.853 78.9899 56.7316 79.9999 54.5076 79.9999H25.4894C24.3855 80.0046 23.295 79.7535 22.3003 79.2656C21.3056 78.7778 20.4326 78.066 19.7473 77.1839L1.644 54.0769C0.935243 53.18 0.436455 52.1302 0.185553 51.0073C-0.0653483 49.8843 -0.061757 48.7179 0.196056 47.5966L6.66129 18.7529C6.90501 17.6378 7.39507 16.5941 8.09417 15.7011C8.79327 14.8081 9.68299 14.0894 10.6957 13.5997L36.8693 0.743647Z" fill="#356CDB"/>
<path d="M66.301 45.7906C66.2481 45.7906 66.2481 45.7906 66.301 45.7906H66.2481C66.1968 45.7906 66.1455 45.7906 66.1455 45.7367C66.0413 45.7367 65.9386 45.6844 65.8344 45.6844C65.4736 45.6305 65.1626 45.5781 64.8515 45.5781C64.6975 45.5781 64.542 45.5782 64.3352 45.5242H64.2838C63.1967 45.418 62.318 45.3117 61.4906 45.047C61.1282 44.8868 61.0256 44.6743 60.9213 44.4619C60.9213 44.4096 60.8684 44.4096 60.8684 44.3556L60.1966 44.1432C60.514 41.6448 60.3913 39.1088 59.8342 36.6544C59.2705 34.1816 58.2907 31.827 56.9383 29.6952L57.4562 29.2163V29.1101C57.4562 28.8453 57.5075 28.5789 57.7128 28.3141C58.3349 27.729 59.111 27.2518 60.041 26.6667C60.1966 26.5604 60.3521 26.5081 60.506 26.4019C60.8171 26.2417 61.0769 26.0832 61.388 25.8707C61.4377 25.8168 61.5419 25.7645 61.6445 25.6583C61.6974 25.6043 61.7487 25.6043 61.7487 25.552C62.4719 24.9146 62.6275 23.8523 62.1111 23.1609C61.8514 22.7899 61.3864 22.5774 60.9213 22.5774C60.5076 22.5774 60.1453 22.736 59.7829 23.0024L59.6803 23.1086C59.576 23.1609 59.5247 23.2671 59.4205 23.3211C59.1623 23.5859 58.9555 23.7983 58.7486 24.0647C58.646 24.171 58.5418 24.3295 58.3862 24.4357C57.6615 25.2333 56.9912 25.8707 56.3178 26.348C56.1821 26.4479 56.02 26.5037 55.8527 26.5081C55.7485 26.5081 55.6443 26.5081 55.5417 26.4542H55.439L54.8169 26.8791C54.1434 26.1355 53.4219 25.4981 52.6971 24.8607C49.5853 22.3608 45.8313 20.8301 41.8864 20.4527L41.8351 19.7614L41.7309 19.6552C41.5753 19.4966 41.3685 19.3364 41.3172 18.9654C41.2659 18.1156 41.3685 17.1578 41.4727 16.0955V16.0432C41.4727 15.883 41.524 15.6722 41.5753 15.512C41.6267 15.1933 41.6796 14.8746 41.7309 14.5019V14.0247C41.7309 13.0686 41.0061 12.271 40.1274 12.271C39.7137 12.271 39.3 12.4835 38.9889 12.8022C38.6795 13.1209 38.5239 13.5458 38.5239 14.0247V14.4496C38.5239 14.8206 38.5752 15.1393 38.6795 15.458C38.7308 15.6182 38.7308 15.7768 38.7821 15.9909V16.0432C38.8863 17.1055 39.0418 18.0616 38.9376 18.9115C38.8863 19.2841 38.6795 19.4427 38.5239 19.6028L38.4213 19.7091L38.3684 20.3988C37.4384 20.505 36.5067 20.6113 35.5751 20.8237C31.6503 21.7074 28.0799 23.7814 25.3337 26.7729L24.8174 26.4019H24.7131C24.6105 26.4019 24.5063 26.4542 24.4037 26.4542C24.2365 26.4503 24.0745 26.395 23.9387 26.2957C23.2652 25.8168 22.5917 25.1271 21.8686 24.3295C21.7659 24.2233 21.6617 24.0647 21.5062 23.9585C21.2959 23.6976 21.0711 23.4493 20.8327 23.2148C20.7814 23.1609 20.6788 23.1086 20.5761 23.0024C20.5232 22.9484 20.4719 22.9484 20.4719 22.8961C20.1512 22.6232 19.7504 22.4745 19.3334 22.4712C18.8684 22.4712 18.4034 22.6837 18.1437 23.0547C17.6273 23.746 17.7829 24.8084 18.5061 25.4458C18.5574 25.4458 18.5574 25.4981 18.6103 25.4981C18.7129 25.552 18.7642 25.6583 18.8668 25.7106C19.1779 25.923 19.4377 26.0832 19.7488 26.2417C19.9027 26.2957 20.0582 26.4019 20.2138 26.5081C21.1438 27.0916 21.9199 27.5705 22.5404 28.154C22.8002 28.4204 22.8002 28.6851 22.8002 28.9515V29.0578L23.3165 29.535C23.2139 29.6952 23.1096 29.8014 23.0583 29.96C20.4719 34.1571 19.489 39.0962 20.1608 43.983L19.489 44.1955C19.489 44.2494 19.4377 44.2494 19.4377 44.3033C19.3193 44.5587 19.1183 44.7648 18.8684 44.8868C18.0924 45.1532 17.1607 45.2594 16.0752 45.3657H16.0239C15.8683 45.3657 15.6615 45.3657 15.5059 45.418C15.1965 45.418 14.8854 45.4719 14.523 45.5242C14.4204 45.5242 14.3162 45.5781 14.2135 45.5781C14.1622 45.5781 14.1093 45.5782 14.058 45.6305C13.128 45.8429 12.5571 46.7467 12.7127 47.5966C12.8682 48.3403 13.5401 48.8191 14.3675 48.8191C14.523 48.8191 14.6272 48.8191 14.7828 48.7652C14.8341 48.7652 14.8854 48.7652 14.8854 48.7113C14.9896 48.7113 15.0922 48.659 15.1949 48.659C15.5573 48.5527 15.817 48.4465 16.1265 48.288C16.282 48.234 16.4376 48.1278 16.5915 48.0755H16.6444C17.6273 47.7029 18.5061 47.3841 19.3334 47.2779H19.4377C19.7471 47.2779 19.954 47.4365 20.1111 47.5443C20.1608 47.5443 20.1608 47.5966 20.2138 47.5966L20.9369 47.4904C22.1823 51.4263 24.5395 54.9 27.7132 57.4765C28.438 58.0616 29.1612 58.5388 29.9373 59.0177L29.6278 59.7074C29.6278 59.7614 29.6791 59.7614 29.6791 59.8137C29.7817 60.0261 29.886 60.2925 29.7817 60.6635C29.4723 61.4611 29.0073 62.2571 28.438 63.1609V63.2132C28.3338 63.3733 28.2296 63.4796 28.1269 63.6381C27.9201 63.9045 27.7646 64.1693 27.5577 64.488C27.4949 64.5694 27.4432 64.659 27.4038 64.7544C27.4038 64.8067 27.3509 64.8606 27.3509 64.8606C26.9372 65.7645 27.2482 66.7729 28.0243 67.1455C28.216 67.2476 28.4286 67.3019 28.6449 67.3041C29.2654 67.3041 29.886 66.8791 30.197 66.294C30.197 66.2417 30.2483 66.1878 30.2483 66.1878C30.288 66.093 30.3398 66.004 30.4023 65.923C30.5578 65.5504 30.6107 65.2856 30.7134 64.9669L30.8689 64.488C31.2313 63.4256 31.4894 62.5758 31.9545 61.8321C32.1629 61.5134 32.4195 61.4611 32.6279 61.3549C32.6792 61.3549 32.6792 61.3549 32.7305 61.3009L33.0929 60.6112C35.3699 61.5134 37.8521 61.9923 40.3342 61.9923C41.8351 61.9923 43.3857 61.8321 44.8352 61.4611C45.746 61.2519 46.6439 60.9855 47.5243 60.6635L47.8337 61.2486C47.8866 61.2486 47.8866 61.2486 47.938 61.3009C48.1961 61.3549 48.403 61.4611 48.6114 61.7798C49.0235 62.5235 49.333 63.4256 49.697 64.4357V64.488L49.8525 64.9669C49.9551 65.2856 50.0065 65.6043 50.162 65.923C50.2133 66.0292 50.2662 66.0832 50.3175 66.1878C50.3175 66.2417 50.3688 66.294 50.3688 66.294C50.6799 66.9314 51.2989 67.3041 51.921 67.3041C52.1279 67.3041 52.3347 67.2501 52.5415 67.1455C52.9039 66.933 53.215 66.6127 53.3176 66.1878C53.4203 65.7628 53.4203 65.2856 53.2134 64.8606C53.2134 64.8067 53.1621 64.8067 53.1621 64.7544C53.1108 64.6482 53.0595 64.5419 53.0066 64.488C52.8471 64.1848 52.6563 63.8999 52.4373 63.6381C52.3347 63.4796 52.2321 63.3733 52.1279 63.2132V63.1609C51.5586 62.2571 51.0407 61.4611 50.7825 60.6635C50.6799 60.2925 50.7825 60.0801 50.8338 59.8137C50.8338 59.7614 50.8868 59.7614 50.8868 59.7074L50.627 59.07C53.3689 57.4242 55.6972 55.087 57.4562 52.2187C58.3862 50.7314 59.111 49.0839 59.6273 47.4364L60.2479 47.5427C60.3008 47.5427 60.3008 47.4904 60.3521 47.4904C60.559 47.3841 60.7145 47.2256 61.0256 47.2256H61.1282C61.9556 47.3302 62.8343 47.6506 63.8172 48.0216H63.8702C64.0241 48.0739 64.1796 48.1801 64.3352 48.234C64.6446 48.3926 64.9044 48.4988 65.2652 48.6067C65.3694 48.6067 65.4736 48.659 65.5763 48.659C65.6276 48.659 65.6789 48.659 65.7318 48.7113C65.8873 48.7652 65.99 48.7652 66.1455 48.7652C66.9216 48.7652 67.5934 48.234 67.8003 47.5443C67.8003 46.9069 67.231 46.057 66.301 45.7906ZM42.3514 43.187L40.0745 44.3033L37.7991 43.187L37.2315 40.6913L38.7821 38.6729H41.3156L42.8694 40.6913L42.3514 43.187ZM55.8527 37.6628C56.2536 39.4198 56.3755 41.2307 56.2135 43.0285L48.3003 40.6913C47.9552 40.5885 47.6615 40.3555 47.4789 40.0397C47.2963 39.724 47.2385 39.3492 47.3174 38.9916C47.3677 38.772 47.4745 38.57 47.6269 38.4065L53.8869 32.6158C54.7656 34.1031 55.4374 35.8029 55.8527 37.6628ZM51.4031 29.4288L44.6284 34.3695C44.3413 34.5547 43.997 34.6246 43.6622 34.5657C43.3274 34.5068 43.026 34.3233 42.8164 34.0508C42.6625 33.8923 42.6112 33.6782 42.5599 33.4673L42.0933 24.8084C45.6209 25.2274 48.9039 26.8567 51.4031 29.4288ZM36.4025 25.0731C36.9717 24.9669 37.4897 24.8607 38.0589 24.7544L37.5939 33.2532C37.541 33.9969 36.9717 34.6343 36.1957 34.6343C35.9787 34.6385 35.7645 34.5838 35.5751 34.4758L28.6962 29.4288C30.8059 27.2589 33.4794 25.7479 36.4025 25.0731ZM26.214 32.6158L32.3682 38.2463C32.9374 38.7252 32.9887 39.6274 32.5237 40.2125C32.3762 40.4281 32.1548 40.5797 31.9031 40.6374L23.8857 43.0285C23.5747 39.4165 24.3507 35.7506 26.214 32.6175V32.6158ZM24.8158 47.0115L33.0416 45.5781C33.3737 45.5574 33.7022 45.6583 33.9677 45.8627C34.2332 46.0671 34.4183 46.3615 34.4896 46.6928C34.5409 47.0115 34.5409 47.2779 34.4382 47.5427L31.2826 55.3534C28.295 53.364 26.0252 50.4359 24.8174 47.0131L24.8158 47.0115ZM43.6967 57.5827C42.507 57.8491 41.3172 58.0077 40.0761 58.0077C38.3024 57.9975 36.5406 57.7109 34.8519 57.1578L38.9376 49.5611C39.3513 49.0839 40.0232 48.8714 40.5924 49.1901C40.8345 49.3421 41.0446 49.5399 41.213 49.7736L45.196 57.1578C44.731 57.3179 44.2131 57.4242 43.6967 57.5827ZM53.7826 50.1986C52.4902 52.3233 50.7825 54.023 48.8167 55.3518L45.5584 47.3302C45.476 47.0128 45.503 46.6761 45.6349 46.3765C45.7668 46.0769 45.9957 45.8326 46.2832 45.6844C46.49 45.5782 46.7482 45.5242 47.0063 45.5242L55.2835 46.9592C54.9649 48.1171 54.4575 49.2121 53.7826 50.1986Z" fill="white"/>
</svg>
