<svg width="56" height="68" viewBox="0 0 56 68" fill="none" xmlns="http://www.w3.org/2000/svg">
<path d="M22.7142 59.4756L24.0951 62.5232L39.2858 63.1821L48.6187 47.1424H51.4282L51.7139 43.7615L50.3329 35.6188L43.9044 28.2855L39.1902 16.3332L31.8093 5L21.3332 8.1904V16.8095L20.2856 22.7618L18.0475 27.0474L11 39.9997L12.9047 45.1424L18.0475 52.7614L22.7142 59.4756Z" fill="white"/>
<path d="M29.6221 23.2629L26.6746 24.3225H25.4522L23.8494 23.3988L21.2007 21.4428L19.367 21.0897L20.2499 18.0471L22.3009 16.8654L23.3197 15.7516L24.7459 14.9773L26.7697 14.4883L29.3369 15.4662L31.1706 16.4171L33.4118 17.1914L35.4899 17.1099L34.2539 20.3562L29.6221 23.2629Z" fill="#F69038"/>
<path d="M20.8394 59L21.8394 62.5L19.5031 65.6982L16.1398 66.2667L11.4501 65.0587L7.11577 63.5429L2.99457 63.3534L0.649752 61.9797L0.365547 60.3928L0.933916 58.4506L1.05241 56.1531L0.649752 53.7136L0.933916 51.8425L2.80507 50.5398L5.26825 49.4503L6.83153 47.437L8.53679 45.8264H11.8764L15.8394 52.5L20.8394 59Z" fill="#F7B62B"/>
<path d="M36.9683 56.3504L35.5324 63.0814H35.3828L36.7589 65.3249L39.0025 66.9403H42.383L46.4216 64.3078L49.3533 61.4957L53.721 59.5512L55.486 57.6067L55.1569 55.6023L53.3919 53.239L52.3748 49.6193L50.8491 47.6149L48.1866 47.1363L42.0539 45.1021L39.4812 46.0293L38.1948 48.2133L37.6564 53.8075L36.9683 56.3504Z" fill="#F7B62B"/>
<path d="M29.4316 0.400024C28.9897 0.400024 28.5372 0.423121 28.0698 0.456717C16.0987 1.39529 19.2747 13.918 19.0963 18.0943C18.8753 21.1452 18.2465 23.562 16.1221 26.5499C13.6089 29.4916 10.0909 34.2495 8.42106 39.2007C7.63715 41.5293 7.259 43.9271 7.61378 46.1801C7.48017 46.278 7.37053 46.4043 7.29299 46.5497C6.56219 47.3056 6.01834 48.2358 5.42138 48.9014C4.85841 49.4578 4.05113 49.6468 3.16312 50.0184C2.27936 50.3985 1.29363 50.7722 0.717911 51.9313C0.46298 52.4583 0.329142 53.0252 0.341889 53.6173C0.341889 54.1632 0.420492 54.7323 0.496972 55.1144C0.664801 56.2294 0.828381 57.149 0.607441 57.8273C-0.0999906 59.7275 -0.17647 61.0293 0.310022 61.9826C0.805012 62.9233 1.82473 63.2949 2.96342 63.6687C5.26629 64.2251 8.37432 64.0487 10.8323 65.34C13.4517 66.6524 16.12 67.2214 18.2444 66.665C18.9772 66.5026 19.6641 66.1808 20.2554 65.7232C20.8467 65.2656 21.3274 64.6835 21.6626 64.0193C23.3217 64.0088 25.1466 63.2634 28.0592 63.0786C30.0392 62.9128 32.5184 63.8324 35.3608 63.6351C35.4373 64.0193 35.5372 64.1915 35.6922 64.5757V64.5862C36.7969 66.7616 38.8449 67.7463 41.0373 67.5825C43.2148 67.4083 45.5389 66.0854 47.419 63.9206C49.2121 61.7873 52.1884 60.8886 54.1577 59.7212C55.1434 59.1606 55.9401 58.4089 55.9953 57.3254C56.0612 56.2105 55.4324 55.0514 53.9814 53.4766V53.2016L53.9708 53.1911C53.4843 52.6347 53.2633 51.694 53.0084 50.6021C52.7641 49.4746 52.4985 48.4037 51.6148 47.6709C51.4363 47.5177 51.26 47.4841 51.073 47.2993C50.9161 47.19 50.7315 47.126 50.5398 47.1145C51.7571 43.5366 51.2812 39.9839 50.0406 36.7776C48.5365 32.8301 45.8916 29.3866 43.8883 27.0244C41.63 24.2129 39.4185 21.5463 39.4631 17.5988C39.5396 11.5705 40.1365 0.42942 29.4273 0.406324L29.4316 0.400024ZM30.925 9.93483H30.9697C31.5666 9.93483 32.085 10.1112 32.6182 10.4829C33.1599 10.8629 33.5593 11.413 33.8567 11.98C34.1563 12.7023 34.3135 13.2587 34.3326 14.002C34.3326 13.9495 34.3432 13.8928 34.3432 13.8403V14.1343C34.3432 14.1112 34.3326 14.0923 34.3326 14.0692L34.322 14.002C34.322 14.6823 34.1797 15.3605 33.9035 15.982C33.7722 16.3358 33.5641 16.6569 33.2938 16.9227C33.2173 16.8807 33.1387 16.8366 33.0495 16.803C32.752 16.6707 32.4865 16.6287 32.2422 16.4335C32.0412 16.3539 31.8336 16.2913 31.6219 16.2466C31.7557 16.0849 32.0319 15.8749 32.1423 15.6902C32.2868 15.3395 32.3633 14.9574 32.3866 14.5647V14.508C32.3927 14.129 32.3323 13.7518 32.2082 13.3931C32.0871 13.0214 31.9341 12.8324 31.7005 12.4629C31.4561 12.276 31.2246 12.0912 30.9357 12.0912H30.8932C30.6276 12.0912 30.3939 12.1668 30.1518 12.4629C29.886 12.7219 29.6883 13.0412 29.576 13.3931C29.4217 13.7458 29.3353 14.1239 29.3211 14.508V14.5647C29.3211 14.8146 29.3445 15.0665 29.3742 15.3185C28.8219 15.1337 28.1357 14.9343 27.6492 14.7495C27.6227 14.5651 27.6078 14.3793 27.6046 14.1931V14.1364C27.5831 13.3969 27.7274 12.6619 28.0273 11.9842C28.2589 11.371 28.6795 10.844 29.2446 10.4955C29.729 10.1364 30.3153 9.93903 30.925 9.93903V9.93483ZM22.5378 10.1007H22.6377C23.0371 10.1007 23.4025 10.233 23.7679 10.4724C24.1864 10.8335 24.522 11.2808 24.743 11.7721C24.9979 12.3327 25.1402 12.8996 25.1849 13.6429V13.6534C25.1955 14.0251 25.1955 14.2246 25.1742 14.3988V14.6277L24.9427 14.6928C24.5114 14.8461 24.1694 15.0644 23.8231 15.2534C23.8571 15.0014 23.8571 14.7495 23.8337 14.508V14.4639C23.8019 14.0944 23.7233 13.9075 23.6022 13.5337C23.5115 13.2463 23.3476 12.9868 23.1263 12.7799C22.9872 12.6573 22.8047 12.594 22.6186 12.6036H22.5506C22.353 12.6141 22.1852 12.7128 22.0322 12.9752C21.8449 13.1881 21.7259 13.4512 21.6902 13.7311C21.6116 14.0251 21.5882 14.3421 21.6222 14.6613V14.6928C21.6562 15.077 21.7221 15.2639 21.8538 15.6335C21.9392 15.9183 22.0998 16.1756 22.319 16.3789C22.353 16.4125 22.3764 16.4356 22.4189 16.444C22.2213 16.6098 22.0875 16.6434 21.9239 16.8282C21.8113 16.9059 21.6923 17.0046 21.5479 17.0277C21.2532 16.6774 20.9935 16.2998 20.7724 15.9001C20.5014 15.3115 20.3512 14.6756 20.3306 14.0293C20.2877 13.3976 20.3626 12.7634 20.5515 12.1584C20.7193 11.6125 20.9849 11.0981 21.3588 10.6613C21.7242 10.2897 22.0896 10.1049 22.5421 10.1049L22.5378 10.1007ZM26.4213 14.8797C27.3624 14.8797 28.4926 15.0539 29.8628 15.9946C30.6935 16.5552 31.3478 16.7505 32.8519 17.2964C33.5827 17.6807 34.0012 18.0523 34.2115 18.424V18.0523C34.3124 18.2552 34.3686 18.4768 34.3762 18.7027C34.3839 18.9286 34.343 19.1535 34.2561 19.3626C33.9014 20.2381 32.7945 21.1683 31.2373 21.7247V21.7352C30.4832 22.1069 29.8203 22.6654 29.0449 23.0371C28.261 23.4087 27.373 23.858 26.1791 23.7825C25.7467 23.8012 25.3147 23.7378 24.9066 23.5956C24.5919 23.4305 24.2888 23.2446 23.9994 23.0392C23.4471 22.6675 22.9712 22.109 22.2638 21.7373V21.7268H22.2532C21.1123 21.0381 20.5048 20.2927 20.3051 19.7363C20.1181 18.9825 20.2944 18.4261 20.8595 18.0544C21.4884 17.6828 21.9303 17.2985 22.2192 17.1138C22.5166 16.9059 22.6292 16.8282 22.7184 16.7526H22.729V16.7421C23.2049 16.1731 23.9548 15.4298 25.1084 15.056C25.4929 14.9574 25.939 14.8818 26.4234 14.8818L26.4213 14.8797ZM34.3432 20.8702C35.363 24.8407 37.7423 30.6044 39.2698 33.3929C40.077 34.89 41.6916 38.0395 42.3884 41.8589C42.8303 41.8484 43.3168 41.9114 43.8394 42.0437C45.6749 37.3634 42.3013 32.3325 40.7632 30.932C40.1323 30.3756 40.1004 30.0018 40.4085 30.0018C42.0804 31.4884 44.2685 34.4007 45.0652 37.712C45.4306 39.2091 45.5219 40.8091 45.1332 42.3922C45.3201 42.4678 45.5092 42.5665 45.7089 42.577C48.63 44.0783 49.7134 45.2038 49.1929 46.8856V46.766C49.0294 46.7576 48.8509 46.766 48.6852 46.766H48.6406C49.074 45.4557 48.1222 44.4479 45.6218 43.3329C43.0321 42.218 40.9629 42.3922 40.6082 44.6347C40.5831 44.7614 40.5689 44.89 40.5657 45.019C40.3638 45.0841 40.1663 45.1597 39.9687 45.1933C38.7514 45.9492 38.0971 47.0746 37.7232 48.5192C37.3578 50.0163 37.2473 51.7549 37.1475 53.758C37.0795 54.6987 36.661 56.1076 36.2382 57.5396C31.9894 60.5464 26.092 61.8482 21.0932 58.4803C20.7703 57.9343 20.3943 57.4304 19.9524 56.9832C19.7403 56.6357 19.4759 56.322 19.1685 56.053C19.6869 56.053 20.1309 55.9669 20.4856 55.8661C20.8908 55.6732 21.2094 55.3389 21.38 54.9275C21.6796 54.1821 21.38 52.979 20.3943 51.6667C19.4234 50.367 17.7621 48.8888 15.3382 47.4148C13.5473 46.2998 12.5403 44.977 12.0751 43.5093C11.6098 42.0122 11.6757 40.4689 12.0304 38.9067C12.7273 35.9104 14.5097 32.9918 15.6505 31.163C15.9479 30.9887 15.7503 31.5472 14.4884 33.8989C13.3688 35.9986 11.2572 40.8867 14.1421 44.6809C14.253 41.9099 14.8758 39.1823 15.9797 36.6327C17.5709 33.0569 20.9148 26.8249 21.1803 21.8822C21.3142 21.9914 21.79 22.2665 21.9982 22.4512C22.6079 22.8229 23.0711 23.3814 23.6701 23.7531C24.2671 24.3095 25.0192 24.6937 26.1493 24.6937C26.2598 24.7042 26.3597 24.7042 26.4574 24.7042C27.6194 24.7042 28.5287 24.3326 29.2786 23.9588C30.0965 23.5746 30.7636 23.0182 31.3797 22.8334H31.3903C32.7074 22.4617 33.759 21.7058 34.3454 20.8744L34.3432 20.8702ZM40.5402 45.9492C40.6506 47.631 41.5153 49.4368 43.0406 49.8063C44.6998 50.178 47.1004 48.8762 48.1074 47.6646L48.7043 47.6415C49.5987 47.6184 50.3422 47.6646 51.1028 48.3869L51.1134 48.3974C51.6998 48.9539 51.9781 49.884 52.2202 50.8478C52.4645 51.9732 52.6515 53.0336 53.3823 53.8315C54.7525 55.3076 55.2072 56.368 55.1859 57.0252C55.1413 57.7559 54.6527 58.1275 53.7689 58.686C51.9865 59.8136 48.8233 60.6766 46.8093 63.0849C45.0588 65.1511 42.9259 66.2765 41.0415 66.4193C39.1614 66.5726 37.5341 65.8629 36.5824 63.9059L36.5718 63.8954C35.9748 62.7784 36.2297 61.0293 36.7268 59.169C37.2261 57.2981 37.9441 55.3979 38.044 53.8546C38.1438 51.8536 38.2543 50.115 38.5857 48.767C38.9277 47.4652 39.461 46.535 40.4127 46.0227L40.5338 45.9555L40.5402 45.9492ZM9.90178 46.0898H9.93577C10.0909 46.0898 10.2353 46.1003 10.3777 46.1339C11.4399 46.2872 12.381 47.0641 13.2775 48.2337L15.8544 52.8929L15.865 52.9034C16.5512 54.39 18.0001 55.8766 19.228 57.4871C20.458 59.1585 21.4098 60.6556 21.2993 61.8818V61.9049C21.1315 63.9815 19.9375 65.107 18.1127 65.5248C16.2857 65.8965 13.8065 65.5248 11.3294 64.223C8.58676 62.7259 5.32153 62.9107 3.2311 62.5369C2.19226 62.3521 1.50607 61.9679 1.18316 61.4115C0.875118 60.855 0.862372 59.7254 1.53794 57.9658V57.9574C1.86935 57.0168 1.62929 55.8472 1.46146 54.8184C1.30638 53.7013 1.2299 52.8362 1.58255 52.1916C2.03505 51.2509 2.71062 51.0767 3.53914 50.6945C4.36979 50.3229 5.35552 50.1381 6.12881 49.3822H6.13943V49.3717C6.85961 48.6305 7.40346 47.7003 8.03229 47.0305C8.56552 46.4615 9.10512 46.0898 9.90178 46.0898ZM30.1857 20.6854C28.9557 21.2418 27.5069 22.1825 25.9688 22.1825C24.4307 22.1825 23.224 21.4413 22.3509 20.8807C21.909 20.5006 21.5542 20.1269 21.2887 19.94C20.8234 19.5704 20.8787 19.0014 21.0784 19.0014C21.3864 19.0434 21.4438 19.3815 21.6413 19.5704C21.9196 19.7552 22.251 20.1269 22.6589 20.5006C23.4896 21.057 24.5964 21.8108 25.9666 21.8108C27.3411 21.8108 28.9557 21.057 29.9287 20.5006C30.481 20.129 31.1885 19.5704 31.7642 19.1988C32.2061 18.8145 32.187 18.4429 32.5481 18.4429C32.9135 18.487 32.6501 18.8145 32.1402 19.3731C31.6197 19.7573 30.8231 20.3137 30.1836 20.6854H30.1857ZM27.1202 16.2466V16.1941C27.1096 16.1374 27.1521 16.0744 27.2073 16.0513C27.4049 15.9316 27.715 15.9736 27.9381 16.0618C28.1144 16.0618 28.3906 16.2466 28.3694 16.4419C28.346 16.5741 28.1251 16.6287 27.9806 16.6287C27.8276 16.6287 27.715 16.509 27.5833 16.4335C27.4389 16.3894 27.1606 16.4104 27.1181 16.2466H27.1202ZM25.5588 16.2466C25.5014 16.4125 25.2358 16.3894 25.0935 16.4335C24.9597 16.509 24.8492 16.6287 24.6941 16.6287C24.5497 16.6287 24.3181 16.572 24.3053 16.4335C24.2862 16.2466 24.5497 16.0618 24.7281 16.0618C24.9597 15.9715 25.2465 15.9295 25.4674 16.0513C25.512 16.0744 25.5694 16.1374 25.546 16.1941V16.2466H25.5588Z" fill="black"/>
</svg>
