<svg width="99" height="52" viewBox="0 0 99 52" fill="none" xmlns="http://www.w3.org/2000/svg">
<path d="M0.931885 46.5436H4.11129V33.9937L9.09966 44.9067C9.64783 46.2162 10.4701 46.7073 12.0598 46.7073C13.6495 46.7073 14.3621 46.2162 14.9651 44.9067L19.8987 33.9937V46.5436H23.0781V33.9937C23.0781 32.7933 22.5847 32.1931 21.5432 31.8657C19.1312 31.1564 17.4867 31.7566 16.7741 33.3935L11.9502 44.1973L7.23587 33.3935C6.52325 31.7566 4.87873 31.1564 2.46677 31.8657C1.42524 32.1931 0.931885 32.7388 0.931885 33.9937V46.5436Z" fill="#0F7191"/>
<path d="M25.7093 36.34H28.8887V43.2151C28.8887 43.597 28.9983 44.4701 30.7525 44.5246C31.6844 44.5246 37.6595 44.5246 37.7143 44.5246V36.2854H40.8937C40.8937 36.2854 40.8937 47.5257 40.8937 47.5803C40.8937 50.3631 37.4402 50.9633 35.8505 50.9633H25.8189V48.8352H35.9053C37.9335 48.617 37.7143 47.5803 37.7143 47.2529V46.4344H30.9169C27.7375 46.4344 25.7093 45.0157 25.7093 43.4334C25.7093 43.2697 25.8189 36.3945 25.7093 36.34Z" fill="#0F7191"/>
<path d="M94.4502 28.319C92.4768 28.2645 90.9967 28.4827 89.6811 28.9738C89.2973 29.1375 88.7492 29.1375 88.6944 29.574C88.9136 29.7923 88.9136 30.0651 89.0781 30.3379C89.3522 30.829 89.9003 31.4838 90.3389 31.8112C90.8322 32.1931 91.3804 32.5751 91.9286 32.957C92.8605 33.5572 93.9568 33.8846 94.8887 34.4848C95.4369 34.8122 95.9851 35.2487 96.4784 35.6307C96.7525 35.8489 96.9169 36.1218 97.2458 36.2855V36.2309C97.0814 36.0126 97.0266 35.6853 96.8621 35.467C96.6429 35.2487 96.3688 35.0305 96.1495 34.7577C95.4369 33.8301 94.5598 32.957 93.6279 32.3023C92.8605 31.7566 91.1063 31.0473 90.8322 30.1197C90.8322 30.1197 90.8322 30.1197 90.7774 30.0651C91.3256 30.0105 91.9286 29.8469 92.4767 29.6832C93.299 29.4649 94.0664 29.5195 94.9435 29.3012C95.3272 29.1921 95.711 29.0829 96.0947 28.9738C96.0947 28.9193 96.0947 28.8101 96.0947 28.7556C95.6562 28.319 95.3273 27.7188 94.8887 27.3369C93.6279 26.2456 92.2575 25.2089 90.8322 24.3358C90.0648 23.8448 89.0781 23.5174 88.3106 23.1354C88.0366 22.9717 87.5432 22.9172 87.3787 22.6989C86.9402 22.1532 86.6661 21.4439 86.392 20.8437C85.6794 19.4796 85.0216 18.0063 84.3638 16.5877C83.9253 15.6601 83.6512 14.6779 83.103 13.8049C80.5814 9.65797 77.8405 7.14801 73.6196 4.6926C72.6877 4.20152 71.6462 3.98326 70.495 3.71044C69.892 3.71044 69.289 3.65588 68.6861 3.60131C68.3023 3.43762 67.9186 2.94654 67.5349 2.72828C66.1645 1.85525 62.5465 -0.0545118 61.505 2.45546C60.8472 4.03783 62.4917 5.6202 63.0399 6.3841C63.4784 6.92975 63.9718 7.58452 64.3007 8.18473C64.4651 8.62125 64.5199 9.05776 64.6844 9.49428C65.0681 10.5856 65.4518 11.7314 65.9452 12.7682C66.2193 13.2592 66.4934 13.8049 66.8771 14.296C67.0964 14.5688 67.4253 14.6779 67.4801 15.1144C67.1512 15.6055 67.0964 16.3148 66.9319 16.9151C66.0548 19.6433 66.3837 23.0808 67.6445 25.0997C68.0282 25.6999 68.9601 27.0641 70.2209 26.5184C71.3173 26.0819 71.098 24.7178 71.3721 23.4628C71.4269 23.19 71.3721 22.9717 71.5366 22.808V22.8626C71.8655 23.5174 72.1944 24.2267 72.5233 24.8815C73.2907 26.0819 74.6063 27.3369 75.7027 28.1553C76.3057 28.5919 76.7442 29.3558 77.5116 29.6286V29.574C77.5116 29.574 77.5116 29.574 77.4568 29.574C77.2924 29.3558 77.0731 29.2466 76.9086 29.0829C76.4701 28.6464 75.9768 28.1008 75.6478 27.6097C74.6063 26.2456 73.7292 24.7178 72.907 23.19C72.5233 22.4261 72.1944 21.6076 71.8655 20.8437C71.701 20.5709 71.701 20.1344 71.4817 19.9707C71.098 20.5163 70.5498 20.9528 70.3306 21.6076C69.892 22.6443 69.8372 23.9539 69.6728 25.2634C69.5631 25.2634 69.6179 25.2634 69.5631 25.318C68.7957 25.0997 68.5216 24.3358 68.1927 23.6265C67.4801 21.8804 67.3156 19.0976 67.9734 17.1333C68.1379 16.6422 68.9053 15.0053 68.5764 14.5142C68.412 14.0777 67.9186 13.8049 67.6445 13.4229C67.3156 12.9864 66.9867 12.3862 66.7675 11.8406C66.1645 10.4764 65.8904 8.94864 65.2326 7.58452C64.9585 6.92975 64.4103 6.27497 64.0266 5.72933C63.588 5.07455 63.0399 4.58347 62.6562 3.81957C62.5465 3.54675 62.3821 3.11023 62.5465 2.83741C62.6013 2.61915 62.711 2.56459 62.8754 2.51002C63.2043 2.2372 64.0814 2.56459 64.4103 2.72828C65.3422 3.11023 66.0548 3.43762 66.8223 3.9287C67.1512 4.14696 67.5349 4.63804 67.9734 4.74717C68.1379 4.74717 68.3023 4.74717 68.4668 4.74717C69.2342 4.91086 70.1113 4.80173 70.8787 5.01999C72.1944 5.45651 73.3455 6.05672 74.387 6.71149C77.5665 8.73038 80.2525 11.6223 82.0067 15.0599C82.2807 15.6055 82.4452 16.1512 82.6645 16.6968C83.1578 17.8972 83.8156 19.0976 84.309 20.2981C84.8023 21.4439 85.2957 22.5898 86.0631 23.5719C86.4468 24.063 87.8721 24.3358 88.5847 24.6087C89.0781 24.8269 89.8455 25.0452 90.2841 25.2634C91.1063 25.7545 91.9286 26.3547 92.7508 26.9004C93.1346 27.2278 94.3954 27.828 94.4502 28.319Z" fill="#0F7191"/>
<path d="M69.5083 7.20251C69.0698 7.20251 68.7957 7.25708 68.5216 7.31164C68.5216 7.31164 68.5216 7.31164 68.5216 7.36621C68.5216 7.36621 68.5216 7.36621 68.5764 7.36621C68.7957 7.74816 69.1246 8.02098 69.3439 8.34837C69.5631 8.73032 69.7276 9.11227 69.892 9.49423L69.9469 9.43966C70.2758 9.2214 70.4402 8.78489 70.4402 8.23924C70.2758 8.07555 70.2758 7.91185 70.1661 7.74816C70.0017 7.47534 69.6728 7.36621 69.5083 7.20251Z" fill="#0F7191"/>
<path d="M43.3605 46.5436H52.5698C53.6661 46.5436 54.6528 46.3253 55.5299 45.9434C56.9003 45.2886 57.5581 44.4701 57.5581 43.3243V40.978C57.5581 40.0504 56.7907 39.2319 55.3106 38.6317C54.5432 38.3589 53.5565 38.1952 52.5698 38.1952H48.7326C47.417 38.1952 46.814 37.8133 46.6495 36.9402C46.6495 36.8311 46.6495 36.722 46.6495 36.6674V35.2487C46.6495 35.1942 46.6495 35.085 46.6495 34.9759C46.814 34.3211 47.1429 34.1574 48.294 34.0483C48.4037 34.0483 48.5133 34.0483 48.5681 34.0483H57.6678V31.9203H48.7326C47.417 31.9203 46.7591 31.9749 46.1562 32.1931C44.2924 32.7933 43.4153 33.7209 43.4153 35.3579V37.1039C43.4153 38.5226 45.005 39.7776 47.7459 40.0504C48.0199 40.0504 48.3488 40.0504 48.6778 40.0504H51.9668C52.0764 40.0504 52.1861 40.0504 52.2957 40.0504C53.2824 40.1595 53.7209 40.3232 54.0498 40.7052C54.2691 40.9234 54.2691 41.0871 54.2691 41.3054V43.1606C54.2691 43.3788 54.1047 43.6517 53.8306 43.9245C53.5565 44.1973 53.0631 44.361 52.4601 44.361C52.3505 44.361 52.2409 44.361 52.1312 44.361H43.3605V46.5436Z" fill="#E58722"/>
<path d="M77.4568 42.8332C77.4568 45.0158 79.1013 46.2162 82.3903 46.4344C82.7192 46.4344 82.9933 46.489 83.3222 46.489H91.6545V44.361H83.2674C81.4036 44.361 80.691 43.9245 80.691 42.7786V31.8657H77.5116L77.4568 42.8332Z" fill="#E58722"/>
<path d="M59.5864 42.9423V35.4124C59.5864 33.5027 60.9568 32.3022 63.6428 31.9749C63.9169 31.9749 64.2458 31.9203 64.5199 31.9203H70.6046C70.9335 31.9203 71.2076 31.9203 71.5365 31.9749C74.2226 32.3568 75.5382 33.5027 75.5382 35.4124V42.9423C75.5382 44.5247 74.99 45.3432 73.6744 45.8888L76.799 48.7262H73.1262L70.6046 46.4344L68.0282 46.5981H64.6296C64.0814 46.5981 63.4236 46.5436 62.7658 46.3799C60.5731 45.7797 59.5864 44.6884 59.5864 42.9423ZM63.0399 42.7786C63.0399 42.8878 63.0947 42.9969 63.0947 43.106C63.2591 43.979 64.0814 44.4701 65.3422 44.4701H68.2475L65.6163 42.0693H69.289L71.5914 44.1427C72.0299 43.9245 72.304 43.5425 72.4136 43.106C72.4136 42.9969 72.4136 42.8878 72.4136 42.7786V35.5761C72.4136 35.467 72.4136 35.3579 72.4136 35.3033C72.2492 34.4848 71.4269 33.9937 70.1661 33.9937H65.3422C63.9169 33.9937 62.985 34.5939 62.985 35.5761L63.0399 42.7786Z" fill="#E58722"/>
<path d="M93.0797 46.5435H93.5183V44.7429H94.1213V44.361H92.4219V44.7429H93.0797V46.5435ZM96.6429 46.5435H97.0814V44.4155H96.4236L95.8754 45.8888L95.2724 44.4155H94.6146V46.5435H95.0532V44.9066L95.6561 46.5435H95.9851L96.588 44.9066L96.6429 46.5435Z" fill="#E58722"/>
</svg>
