<svg width="52" height="32" viewBox="0 0 52 32" fill="none" xmlns="http://www.w3.org/2000/svg">
<path d="M42.4792 15.2999L41.1583 4.56956L38.683 4.87425L38.684 4.87252L33.8852 2.17188C33.3733 1.88385 32.7859 1.75853 32.201 1.81256L24.6238 2.51334C23.6924 2.59946 22.8601 3.13093 22.3902 3.93977L17.0496 13.132C16.6553 13.8107 16.9648 14.6812 17.6992 14.9586L17.9177 15.041C18.338 15.1998 18.7699 15.2917 19.2016 15.3276L18.5249 15.917L17.1711 17.0965L13.3206 20.3811C12.6352 20.9781 12.564 22.0171 13.161 22.7026L13.5516 23.1499C14.3184 24.0293 15.6531 24.1206 16.534 23.3536L18.0057 25.0415C18.4841 25.591 19.1851 25.834 19.8586 25.7511C20.2633 25.7014 20.6581 25.5336 20.9879 25.2452L22.4579 26.9332C22.9381 27.4841 23.639 27.7255 24.3125 27.6426C24.7172 27.5928 25.1122 27.4266 25.442 27.1383L26.2409 27.8287C27.0079 28.7095 28.3441 28.8006 29.225 28.0337L30.311 27.0862L39.441 19.9756L39.4509 19.9666L43.0531 19.963L42.4792 15.2999Z" fill="#FFBC58"/>
<path d="M38.5663 17.2015L38.5564 17.2106L29.4264 24.3211L28.3404 25.2686C27.4595 26.0356 26.1233 25.9445 25.3563 25.0636L24.5574 24.3732C24.2275 24.6616 23.8325 24.8278 23.4278 24.8776C22.7544 24.9605 22.0536 24.719 21.5733 24.1682L20.1033 22.4801C19.7734 22.7684 19.3786 22.9362 18.9739 22.9861C18.3005 23.069 17.5995 22.826 17.121 22.2765L15.6494 20.5885C14.8952 21.2452 13.8093 21.2708 13.031 20.7131C12.6319 21.315 12.6638 22.1307 13.1613 22.7019L13.5519 23.1493C14.3187 24.0286 15.6534 24.1199 16.5343 23.3529L18.0059 25.0409C18.4844 25.5903 19.1854 25.8334 19.8588 25.7505C20.2636 25.7007 20.6583 25.533 20.9882 25.2445L22.4582 26.9327C22.9384 27.4836 23.6393 27.725 24.3127 27.6421C24.7175 27.5922 25.1124 27.4261 25.4423 27.1377L26.2412 27.8282C27.0082 28.709 28.3444 28.8001 29.2253 28.0331L30.3113 27.0856L39.4413 19.9751L39.4512 19.966L43.0534 19.9625L42.6548 16.7251L38.5663 17.2015Z" fill="#FFBC58"/>
<path d="M40.2289 21.843L35.3371 17.6251L33.9768 16.4531L33.0034 15.6148L28.8184 12.0073L29.3017 7.89304C29.4652 6.50154 28.5892 5.1988 27.2389 4.82516L18.1161 2.30083C17.1508 2.03372 16.1306 2.48161 15.674 3.37302L14.5267 5.61247L9.60221 5.27823L8.3408 16.0158L7.79257 20.682L12.5861 21.0009L12.5961 21.0099L22.6103 29.642L23.7016 30.5834C24.5867 31.3456 25.9223 31.247 26.6844 30.3619L28.1449 28.6673C28.4763 28.9538 28.8723 29.1178 29.2773 29.1654C29.9512 29.2446 30.6507 28.9993 31.1279 28.4458L32.5886 26.7496C32.92 27.0361 33.3157 27.2017 33.7208 27.2493C34.3946 27.3285 35.0943 27.0816 35.5697 26.5294L37.0319 24.8333C37.917 25.5954 39.2511 25.4967 40.0131 24.6131L40.4012 24.1635C40.9945 23.4749 40.9176 22.4363 40.2289 21.843Z" fill="#FF9800"/>
<path d="M12.8359 20.9913L12.2557 21.7575C11.6239 22.5918 11.788 23.7804 12.6223 24.4123C13.4567 25.0441 14.6452 24.88 15.2772 24.0457L15.8574 23.2795C16.4892 22.4451 16.3251 21.2566 15.4908 20.6246C14.6564 19.9928 13.4677 20.157 12.8359 20.9913Z" fill="#FFBC58"/>
<path d="M16.3699 22.6021L15.2772 24.045C14.6454 24.8793 14.8095 26.0679 15.6438 26.6998C16.4781 27.3317 17.6667 27.1675 18.2986 26.3332L19.3913 24.8903C20.0232 24.056 19.859 22.8674 19.0247 22.2355C18.1903 21.6037 17.0017 21.7678 16.3699 22.6021Z" fill="#FFBC58"/>
<path d="M19.7877 24.3668L18.2985 26.3333C17.6667 27.1676 17.8309 28.3562 18.6652 28.9881C19.4995 29.6199 20.6881 29.4558 21.32 28.6215L22.8092 26.655C23.441 25.8207 23.2769 24.6321 22.4426 24.0002C21.6082 23.3683 20.4197 23.5325 19.7877 24.3668Z" fill="#FFBC58"/>
<path d="M22.8957 26.5411L21.32 28.6216C20.6882 29.4559 20.8523 30.6445 21.6867 31.2764C22.521 31.9082 23.7096 31.7441 24.3415 30.9098L25.9171 28.8293C26.549 27.9949 26.3848 26.8064 25.5505 26.1744C24.7161 25.5426 23.5275 25.7068 22.8957 26.5411Z" fill="#FFBC58"/>
<path d="M38.684 4.87252L33.8852 2.17188C33.3733 1.88385 32.7859 1.75853 32.201 1.81256L24.6238 2.51334C23.6924 2.59946 22.8601 3.13093 22.3902 3.93978L17.0496 13.132C16.6552 13.8108 16.9648 14.6812 17.6992 14.9586L17.9177 15.041C19.8753 15.7804 22.0861 15.1512 23.361 13.492L25.4072 10.829C25.4072 10.829 30.3257 16.5239 35.741 9.87334" fill="#FFBC58"/>
<path d="M51.9942 21.3976L49.4843 1.0089C49.4596 0.80842 49.3563 0.625913 49.1971 0.501601C49.0378 0.37729 48.8358 0.32143 48.6352 0.346008L42.7662 1.06852C41.2418 1.25621 40.1544 2.64903 40.3421 4.17327L42.3575 20.5451C42.531 21.9544 43.7346 22.9903 45.12 22.9903C45.2329 22.9903 45.3474 22.9834 45.4622 22.9692L51.3313 22.2467C51.7487 22.1952 52.0456 21.8151 51.9942 21.3976Z" fill="#5C9CEE"/>
<path d="M9.23382 1.06856L3.36475 0.346042C3.16396 0.321362 2.96215 0.377323 2.8029 0.501635C2.64365 0.625947 2.54037 0.808454 2.51569 1.00894L0.0057825 21.3977C-0.0456079 21.8153 0.251258 22.1954 0.668678 22.2468L6.53775 22.9693C6.65272 22.9834 6.76697 22.9903 6.88001 22.9903C8.26532 22.9903 9.46903 21.9544 9.6425 20.5451L11.6579 4.17331C11.8456 2.64906 10.7582 1.25624 9.23382 1.06856Z" fill="#02B657"/>
<path d="M47.1248 19.6051C47.938 19.6051 48.5972 18.9458 48.5972 18.1326C48.5972 17.3194 47.938 16.6602 47.1248 16.6602C46.3116 16.6602 45.6523 17.3194 45.6523 18.1326C45.6523 18.9458 46.3116 19.6051 47.1248 19.6051Z" fill="#EBEEF2"/>
<path d="M4.79271 19.6051C5.60592 19.6051 6.26516 18.9458 6.26516 18.1326C6.26516 17.3194 5.60592 16.6602 4.79271 16.6602C3.9795 16.6602 3.32027 17.3194 3.32027 18.1326C3.32027 18.9458 3.9795 19.6051 4.79271 19.6051Z" fill="#EBEEF2"/>
</svg>
