<svg width="45" height="49" viewBox="0 0 45 49" fill="none" xmlns="http://www.w3.org/2000/svg">
<path d="M20.959 29.4979C21.0321 29.5526 21.0967 29.6169 21.1509 29.6897C21.1673 29.7127 21.1951 29.7255 21.2096 29.7504L21.7851 30.7048H23.56L24.1359 29.7504C24.1504 29.7255 24.1782 29.7127 24.1946 29.6897C24.2488 29.6169 24.3134 29.5526 24.3865 29.4979C24.4114 29.4788 24.4258 29.447 24.4524 29.4306L29.154 26.4833C28.4273 25.5026 27.9737 24.3466 27.8392 23.1338C26.7058 23.6943 25.4579 23.9865 24.1933 23.9878H21.1463C19.8813 23.9865 18.6338 23.6943 17.5 23.1338C17.3649 24.3472 16.9094 25.5033 16.181 26.4833L20.8931 29.43C20.9196 29.447 20.9341 29.4788 20.959 29.4979Z" fill="#9BB4CA"/>
<path d="M31.1113 30.705L32.8692 29.0931C32.0224 28.8406 31.231 28.4297 30.5377 27.8823L26.1558 30.6227L26.1903 30.705H31.1113Z" fill="#49657D"/>
<path d="M12.4668 29.0931L14.2247 30.705H19.1454L19.1805 30.6227L14.8002 27.8823C14.1056 28.43 13.3142 28.8406 12.4668 29.0931Z" fill="#49657D"/>
<path d="M24.2454 1.7629C24.2671 1.73994 24.2963 1.7301 24.3192 1.70911C24.3671 1.66615 24.4196 1.62844 24.4753 1.59597C24.5311 1.56416 24.5898 1.53726 24.6501 1.5166C24.68 1.50676 24.7029 1.48643 24.7338 1.47889C24.7636 1.47725 24.7938 1.47725 24.824 1.47889C24.884 1.47069 24.9453 1.46806 25.0063 1.47233C25.125 1.47561 25.2421 1.50447 25.3487 1.5576C25.4143 1.58744 25.4759 1.62483 25.533 1.6691C25.554 1.68484 25.5809 1.69206 25.6012 1.7101C25.6186 1.73207 25.6357 1.75536 25.6511 1.7793C25.6957 1.82915 25.7357 1.88392 25.7688 1.94229C25.8006 1.99608 25.8269 2.05347 25.8465 2.11283C25.8574 2.143 25.8774 2.16596 25.8852 2.19646C25.9003 2.25681 27.0039 6.71869 30.2632 6.71869H30.4088C30.7105 6.71541 31.0109 6.75182 31.3031 6.82725V5.12612C31.2097 2.21122 28.7775 -0.0789216 25.8629 0.00208435H19.473C16.5581 -0.0789216 14.1259 2.21122 14.0328 5.12612V7.06207C14.6418 6.81741 15.2951 6.70066 15.9517 6.71869C19.6291 6.71869 24.2031 1.81275 24.2454 1.7629Z" fill="#49657D"/>
<path d="M13.8062 14.8106C13.8134 14.8139 13.8203 14.8175 13.8275 14.8211C13.9078 14.8473 13.9842 14.885 14.0544 14.9326C14.0902 14.9493 14.1249 14.9683 14.1581 14.9893C14.2266 15.0487 14.2866 15.1172 14.3368 15.1927C14.3571 15.215 14.3758 15.2389 14.3935 15.2635C14.4342 15.3412 14.4637 15.4248 14.4808 15.5111C14.4926 15.5452 14.5031 15.5796 14.5116 15.6147C14.5116 15.6282 14.5211 15.6387 14.5231 15.6534C14.6785 17.6323 15.647 19.4587 17.1986 20.6971C17.2199 20.7152 17.2468 20.7266 17.2658 20.747C18.3786 21.6036 19.7422 22.0683 21.1462 22.07H24.1897C25.593 22.068 26.956 21.6029 28.0678 20.747C28.0868 20.7266 28.1141 20.7152 28.135 20.6971C29.6873 19.4591 30.6567 17.6323 30.8128 15.6534C30.8128 15.6387 30.8224 15.6282 30.8243 15.6147C30.8325 15.579 30.8433 15.5442 30.8561 15.5101C30.8732 15.4245 30.902 15.3412 30.9414 15.2635C30.9611 15.2369 30.9824 15.211 31.0047 15.1867C31.0529 15.1149 31.1106 15.0506 31.1765 14.9949C31.2139 14.9703 31.2533 14.9486 31.2933 14.9296C31.3599 14.8863 31.4317 14.8516 31.5065 14.826C31.5153 14.826 31.5209 14.8165 31.5294 14.8145C32.209 14.6351 33.1548 12.792 33.1548 11.2224C33.1548 10.5438 32.9852 10.2398 32.6409 10.0834C32.4438 10.6685 32.1752 11.227 31.8417 11.7461C31.5471 12.1767 30.9627 12.2935 30.5252 12.0085C30.0884 11.7235 29.9592 11.1417 30.2343 10.6983C30.5741 10.188 30.8135 9.61768 30.9398 9.01817C30.9398 9.00079 30.9289 8.9857 30.9289 8.96733C30.9339 8.93519 30.9404 8.90305 30.9489 8.87124C30.9519 8.82205 30.9434 8.77285 30.924 8.7276C30.7446 8.65905 30.5531 8.62822 30.3609 8.63741H30.2533C26.9855 8.63741 25.2989 5.9511 24.5396 4.16602C22.786 5.79368 19.2513 8.63741 15.9517 8.63741C15.1774 8.63741 14.6418 8.79745 14.4808 9.07687C14.2148 9.53831 14.5975 10.5796 14.8645 11.0335C15.0363 11.3296 15.037 11.6956 14.8658 11.9931C14.6949 12.2902 14.3784 12.4735 14.0357 12.4742C13.6927 12.4745 13.3755 12.2922 13.2034 11.9954C12.8866 11.4241 12.6639 10.8055 12.5442 10.1631C12.3015 10.3405 12.1808 10.6425 12.1808 11.2181C12.1808 12.7884 13.127 14.6312 13.8062 14.8106Z" fill="#9BB4CA"/>
<path d="M8.10526 30.7056H11.3855L10.0422 29.4702L6.16275 29.8749C3.53382 30.1438 0.60022 32.3812 0.60022 34.9757V40.8954C0.60022 41.3906 0.724845 42.2197 1.55918 42.2197H3.12748L2.37875 37.1602C2.2151 35.4847 2.76607 33.818 3.89688 32.5701C4.97685 31.3875 6.50318 30.7115 8.10526 30.7056Z" fill="#49657D"/>
<path d="M39.1784 29.8757L35.2977 29.4707L33.9501 30.7055H37.231C38.8325 30.7114 40.3588 31.3873 41.4394 32.5699C42.5597 33.8014 43.1126 35.4465 42.9637 37.1046L42.2075 42.2195H43.7764C44.6114 42.2195 44.736 41.3904 44.736 40.8952V34.9755C44.736 32.381 41.8018 30.1437 39.1784 29.8757Z" fill="#49657D"/>
<path d="M37.231 32.6245H8.10525C7.03971 32.6229 6.02435 33.0741 5.31202 33.8655C4.55345 34.6995 4.18056 35.8136 4.28321 36.9359L6.05911 48.9353H39.2771L41.0593 36.8785C41.1462 35.7742 40.7717 34.6831 40.0239 33.8655C39.3112 33.0741 38.2959 32.6229 37.231 32.6245ZM24.5869 43.1786H20.7491C20.2191 43.1786 19.7895 42.749 19.7895 42.219C19.7895 41.6893 20.2191 41.2597 20.7491 41.2597H24.5869C25.1168 41.2597 25.5461 41.6893 25.5461 42.219C25.5461 42.749 25.1168 43.1786 24.5869 43.1786Z" fill="#D33C4E"/>
</svg>
