<svg width="37" height="37" viewBox="0 0 37 37" fill="none" xmlns="http://www.w3.org/2000/svg">
<path d="M13.2645 19.9761C11.1765 19.9761 9.483 21.6696 9.483 23.7576V33.2166C9.483 35.3046 11.1765 36.9981 13.2645 36.9981C15.3525 36.9981 17.046 35.3046 17.046 33.2166V23.7576C17.0445 21.6696 15.351 19.9761 13.2645 19.9761Z" fill="#E91E63"/>
<path d="M0.0284882 23.7581C0.0284882 25.8476 1.72349 27.5426 3.81299 27.5426C5.90249 27.5426 7.59749 25.8476 7.59749 23.7581V19.9736H3.81599C3.81449 19.9736 3.81449 19.9736 3.81299 19.9736C1.72349 19.9736 0.0284882 21.6686 0.0284882 23.7581Z" fill="#E91E63"/>
<path d="M13.269 0.998535C13.2675 0.998535 13.266 0.998535 13.2645 0.998535C11.175 0.998535 9.48 2.69354 9.48 4.78304C9.48 6.87254 11.175 8.56754 13.2645 8.56754H17.046V4.78304C17.046 4.78154 17.046 4.77853 17.046 4.77554C17.0445 2.68903 15.354 0.998535 13.269 0.998535Z" fill="#00BCD4"/>
<path d="M3.78749 18.0548H13.2645C15.354 18.0548 17.049 16.3598 17.049 14.2703C17.049 12.1808 15.354 10.4858 13.2645 10.4858H3.78749C1.69799 10.4858 0.00299072 12.1808 0.00299072 14.2703C0.00299072 16.3598 1.69799 18.0548 3.78749 18.0548Z" fill="#00BCD4"/>
<path d="M32.1855 10.4844C30.099 10.4844 28.4085 12.1749 28.4085 14.2614V14.2689V18.0534H32.19C34.2795 18.0534 35.9745 16.3584 35.9745 14.2689C35.9745 12.1794 34.2795 10.4844 32.19 10.4844C32.1885 10.4844 32.187 10.4844 32.1855 10.4844Z" fill="#4CAF50"/>
<path d="M18.9615 4.78297V14.2705C18.9615 16.3585 20.655 18.052 22.743 18.052C24.831 18.052 26.5245 16.3585 26.5245 14.2705V4.78297C26.5245 2.69497 24.831 1.00146 22.743 1.00146C20.655 1.00146 18.9615 2.69497 18.9615 4.78297Z" fill="#4CAF50"/>
<path d="M26.523 33.2141C26.523 31.1261 24.8295 29.4326 22.7415 29.4326H18.96V33.2171C18.9615 35.3036 20.6535 36.9956 22.7415 36.9956C24.8295 36.9956 26.523 35.3021 26.523 33.2141Z" fill="#FF9800"/>
<path d="M32.2185 19.9736H22.7415C20.652 19.9736 18.957 21.6686 18.957 23.7581C18.957 25.8476 20.652 27.5426 22.7415 27.5426H32.2185C34.308 27.5426 36.003 25.8476 36.003 23.7581C36.003 21.6686 34.308 19.9736 32.2185 19.9736Z" fill="#FF9800"/>
</svg>
