<svg width="38" height="38" viewBox="0 0 38 38" fill="none" xmlns="http://www.w3.org/2000/svg">
<path d="M0.322266 21.8843C0.877985 25.8855 2.76743 29.5532 5.65717 32.443L12.1035 25.9966C12.1035 19.2169 15.6601 12.9928 21.5507 9.54736L0.322266 21.8843Z" fill="#9B65C3"/>
<path d="M12.1035 25.9966C8.76919 25.9966 5.54602 25.1074 2.65628 23.4403C1.87828 22.9957 1.10027 22.44 0.322266 21.8843C0.877985 25.8855 2.76743 29.5532 5.65717 32.4429L12.1035 25.9966Z" fill="#9B65C3"/>
<path d="M12.1035 25.997L5.65717 32.4434C8.5469 35.3331 12.2146 37.2225 16.2158 37.7783L28.4416 16.5498C25.1073 22.3293 18.8833 25.997 12.1035 25.997Z" fill="#BE63C5"/>
<path d="M14.6598 35.4443C12.9927 32.5546 12.1035 29.3314 12.1035 25.9971L5.65717 32.4434C8.5469 35.3331 12.2146 37.2226 16.2158 37.7783C15.6601 37.0003 15.1044 36.2223 14.6598 35.4443Z" fill="#BF63C6"/>
<path d="M36.2217 1.1001L21.5507 9.54702C15.6601 12.8813 8.5469 12.8813 2.65628 9.54702C0.989126 12.4368 0.0999756 15.7711 0.0999756 19.1054C0.0999756 19.9945 0.211119 20.9948 0.322263 21.884C1.10027 22.4397 1.87828 22.9954 2.65628 23.44C5.54602 25.1072 8.76919 25.9963 12.1035 25.9963L36.5551 1.54467C36.444 1.43353 36.3328 1.32239 36.2217 1.1001Z" fill="#3278B1"/>
<path d="M2.65628 23.4403C5.54602 25.1075 8.76919 25.9966 12.1035 25.9966C12.1035 19.2169 15.6601 12.9928 21.5507 9.54736L0.322266 21.7732C1.10027 22.44 1.87828 22.9958 2.65628 23.4403Z" fill="#3278B2"/>
<path d="M2.65628 9.54736C0.989126 12.4371 0.0999756 15.7714 0.0999756 19.1057C0.0999756 19.9949 0.211119 20.9952 0.322263 21.8843L21.5507 9.54736C15.7712 12.9928 8.5469 12.9928 2.65628 9.54736Z" fill="#45A4EC"/>
<path d="M36.5551 1.54497C36.2217 1.21154 35.9994 0.989248 35.666 0.76696C34.9991 0.322385 34.1099 0.100098 33.3319 0.100098H18.9944C12.2146 0.100098 5.99056 3.76784 2.65625 9.54732C8.54687 12.8816 15.6601 12.8816 21.5507 9.54732C15.6601 12.8816 12.1035 19.2168 12.1035 25.9966C18.8832 25.9966 25.1073 22.44 28.5528 16.5494L36.9997 1.8784C36.7774 1.76725 36.6662 1.65611 36.5551 1.54497Z" fill="#19BB7D"/>
<path d="M21.5507 9.54726L36.2217 1.10034C35.9994 0.989193 35.8882 0.766906 35.666 0.655762L2.65625 9.54726C8.54687 12.9927 15.7712 12.9927 21.5507 9.54726Z" fill="#08C7FB"/>
<path d="M33.2208 0.100098H18.9944C12.2146 0.100098 5.99056 3.76784 2.65625 9.54732L35.666 0.655817C34.8879 0.322385 34.1099 0.100098 33.2208 0.100098Z" fill="#59F2F6"/>
<path d="M28.5528 16.5496L36.9997 1.87866C36.8886 1.76751 36.7774 1.65637 36.6663 1.43408L12.2147 25.8857C12.2147 29.22 13.1038 32.4432 14.771 35.3329C15.2155 36.1109 15.7713 36.889 16.327 37.667C17.2161 37.7781 18.1053 37.8892 18.9944 37.8892C22.3287 37.8892 25.5519 37.0001 28.4417 35.3329C25.1073 29.5535 25.1073 22.3291 28.5528 16.5496Z" fill="#DA3757"/>
<path d="M12.1035 25.997C12.1035 29.3313 12.9927 32.5545 14.6598 35.4442C15.1044 36.2223 15.6601 37.0003 16.2158 37.7783L28.4417 16.5498C25.1073 22.3293 18.8833 25.997 12.1035 25.997Z" fill="#D33C4E"/>
<path d="M28.5528 16.5498L16.327 37.7783C17.2161 37.8894 18.1053 38.0006 19.1056 38.0006C22.4399 38.0006 25.663 37.1114 28.5528 35.4442C25.1073 29.5536 25.1073 22.3293 28.5528 16.5498Z" fill="#EE5A24"/>
<path d="M37.3332 2.43382C36.9997 1.8781 36.6663 1.43353 36.2217 1.1001L21.5507 9.54702C15.6601 12.8813 12.1035 19.2165 12.1035 25.9963C18.8833 25.9963 25.1073 22.4397 28.5528 16.5491C25.2185 22.4397 25.2185 29.5529 28.5528 35.4435C34.3323 32.1092 38 25.8852 38 19.2165V4.87899C38 3.98984 37.7777 3.21183 37.3332 2.43382Z" fill="#8BDF55"/>
<path d="M36.2217 1.1001L21.5507 9.54702C15.6601 12.8813 12.1035 19.2165 12.1035 25.9963L36.5551 1.54467C36.444 1.43353 36.3329 1.21124 36.2217 1.1001Z" fill="#25C16F"/>
<path d="M12.1035 25.9969C18.8833 25.9969 25.1073 22.4403 28.5528 16.5496L36.9997 1.87866C36.8886 1.76751 36.7774 1.65637 36.6663 1.43408L12.1035 25.9969Z" fill="#8BDF55"/>
<path d="M36.9997 1.87842L28.5527 16.5494C25.2184 22.44 25.2184 29.5532 28.5527 35.4438L37.4442 2.43414C37.2219 2.21185 37.1108 2.10071 36.9997 1.87842Z" fill="#FFBB00"/>
<path d="M28.5527 35.4438C34.4434 32.1095 38 25.8854 38 19.1056V4.87924C38 3.99009 37.7777 3.21209 37.3331 2.43408L28.5527 35.4438Z" fill="#FFA800"/>
</svg>
