<svg width="30" height="40" viewBox="0 0 30 40" fill="none" xmlns="http://www.w3.org/2000/svg">
<path d="M21.6749 3.03121H18.7482C18.383 3.01991 18.0692 2.76881 17.978 2.41511C17.7007 0.974246 16.4151 -0.0499136 14.9487 0.00187914C13.4734 -0.0239681 12.1941 1.0168 11.9193 2.46651C11.8244 2.81048 11.5057 3.04419 11.1491 3.03131H8.32509V8.16587H21.6749V3.03121Z" fill="#02B657"/>
<path d="M29.8902 37.6377V8.21682C29.8934 7.05419 28.9533 6.10914 27.7907 6.106C27.7374 6.1059 27.6842 6.10777 27.631 6.1116H23.2152V8.73023C23.2152 9.14103 22.9585 9.70584 22.5477 9.70584H7.40087C6.99007 9.70584 6.78477 9.14103 6.78477 8.73023V6.1117H2.36902C1.20953 6.02659 0.200507 6.89763 0.115497 8.05722C0.111565 8.11039 0.109698 8.16365 0.109895 8.21692V37.6378C0.0811976 38.9136 1.09219 39.9711 2.36794 39.9997C2.36833 39.9997 2.36873 39.9997 2.36912 39.9997H27.6311C28.9068 39.9717 29.9183 38.9147 29.8903 37.6389C29.8902 37.6385 29.8902 37.6381 29.8902 37.6377ZM10.841 30.8602L6.83607 34.6084C6.70801 34.7616 6.52197 34.8546 6.32266 34.8651C6.10812 34.8567 5.90537 34.7645 5.75785 34.6084L3.65273 32.4519C3.37293 32.1386 3.39583 31.6589 3.70403 31.3737C4.00349 31.0801 4.48279 31.0801 4.78225 31.3737L6.32256 33.0167L9.8141 29.7306C10.1642 29.489 10.6439 29.5768 10.8854 29.9269C11.0826 30.2125 11.0643 30.5946 10.841 30.8602ZM10.841 22.6449L6.83607 26.3931C6.70801 26.5463 6.52197 26.6393 6.32266 26.6498C6.10812 26.6414 5.90537 26.5492 5.75785 26.3931L3.65273 24.2366C3.37293 23.9233 3.39583 23.4436 3.70403 23.1584C4.00349 22.8648 4.48279 22.8648 4.78225 23.1584L6.32256 24.8014L9.8141 21.5153C10.1642 21.2737 10.6439 21.3616 10.8854 21.7116C11.0826 21.9972 11.0643 22.3793 10.841 22.6449ZM10.841 14.4296L6.83607 18.1778C6.70801 18.331 6.52197 18.424 6.32266 18.4345C6.10812 18.4261 5.90537 18.3339 5.75785 18.1778L3.65273 16.0213C3.37293 15.708 3.39583 15.2283 3.70403 14.9431C4.00349 14.6495 4.48279 14.6495 4.78225 14.9431L6.32256 16.5861L9.8141 13.3C10.1642 13.0584 10.6439 13.1463 10.8854 13.4963C11.0826 13.7819 11.0643 14.164 10.841 14.4296ZM25.7826 33.8382H13.973C13.5477 33.8382 13.2028 33.4933 13.2028 33.068C13.2028 32.6426 13.5477 32.2978 13.973 32.2978H25.7825C26.2078 32.2978 26.5527 32.6426 26.5527 33.068C26.5527 33.4933 26.2079 33.8382 25.7826 33.8382ZM25.7826 25.6229H13.973C13.5477 25.6229 13.2028 25.2781 13.2028 24.8527C13.2028 24.4274 13.5477 24.0825 13.973 24.0825H25.7825C26.2078 24.0825 26.5527 24.4274 26.5527 24.8527C26.5527 25.2781 26.2079 25.6229 25.7826 25.6229ZM25.7826 17.4076H13.973C13.5477 17.4076 13.2028 17.0628 13.2028 16.6374C13.2028 16.2121 13.5477 15.8672 13.973 15.8672H25.7825C26.2078 15.8672 26.5527 16.2121 26.5527 16.6374C26.5527 17.0629 26.2079 17.4076 25.7826 17.4076Z" fill="#32335C"/>
</svg>
