<svg width="51" height="39" viewBox="0 0 51 39" fill="none" xmlns="http://www.w3.org/2000/svg">
<path d="M47.7024 0H15.668L12.4748 0.00770127C11.1536 0.0493013 10.0928 1.09077 10.052 2.38798L10.0426 14.79C10.0426 16.1489 11.1693 17.2551 12.5533 17.2551H47.7024C49.0865 17.2551 50.2131 16.1489 50.2131 14.79V2.46501C50.2131 1.10617 49.0865 0 47.7024 0ZM30.1279 14.79H12.5533V2.46501H30.1279V14.79ZM47.7024 14.79H32.6385V2.46501H47.7024V14.79Z" fill="#F87786"/>
<path d="M37.2927 13.1971L40.1705 10.3701L43.0484 13.1971L44.8247 11.4531L41.9453 8.62761L44.8247 5.8021L43.0484 4.05811L40.1705 6.88516L37.2927 4.05811L35.5164 5.8021L38.3958 8.62761L35.5164 11.4531L37.2927 13.1971Z" fill="#D33C4E"/>
<path d="M27.6172 7.39502H25.1066V9.86003H27.6172V7.39502Z" fill="#D33C4E"/>
<path d="M22.5959 7.39502H20.0852V9.86003H22.5959V7.39502Z" fill="#F87786"/>
<path d="M17.5746 7.39502H15.064V9.86003H17.5746V7.39502Z" fill="#F87786"/>
<rect x="2" y="23" width="47" height="13" fill="#52FAA2"/>
<path d="M47.7025 21.0737H2.51066C1.12666 21.0737 0 22.1799 0 23.5387V35.8638C0 37.2226 1.12666 38.3288 2.51066 38.3288H47.7025C49.0865 38.3288 50.2131 37.2226 50.2131 35.8638V23.5387C50.2131 22.1799 49.0865 21.0737 47.7025 21.0737ZM17.5746 35.8638H2.51066V23.5387H17.5746V35.8638ZM20.0853 35.8638V23.5387H47.7025L47.7041 35.8638H20.0853Z" fill="#02B657"/>
<path d="M45.1919 28.4688H42.6812V30.9338H45.1919V28.4688Z" fill="#02B657"/>
<path d="M40.1705 28.4688H37.6599V30.9338H40.1705V28.4688Z" fill="#216456"/>
<path d="M35.1491 28.4688H32.6385V30.9338H35.1491V28.4688Z" fill="#02B657"/>
<path d="M30.1279 28.4688H27.6172V30.9338H30.1279V28.4688Z" fill="#216456"/>
<path d="M25.1065 28.4688H22.5959V30.9338H25.1065V28.4688Z" fill="#02B657"/>
<path d="M15.9521 26.8758L14.1758 25.1318L7.53198 31.6564L5.90947 30.0619L4.13318 31.8058L7.53198 35.1413L15.9521 26.8758Z" fill="#216456"/>
</svg>
