<svg width="40" height="40" viewBox="0 0 40 40" fill="none" xmlns="http://www.w3.org/2000/svg">
<path d="M31.6316 25.8648L32.0948 25.9521C34.3109 26.0638 35.4148 24.4491 35.4148 22.8346V14.2515C35.4148 12.637 34.106 11.3281 32.4915 11.3281H20.2366C18.622 11.3281 17.3131 12.637 17.3131 14.2516V22.8348C17.3131 24.4493 18.622 25.7582 20.2366 25.7582H31.1951C31.3484 25.758 31.4979 25.7954 31.6316 25.8648Z" fill="#FFBB00"/>
<path d="M37.0749 11.3281H31.9837C33.5982 11.3281 34.907 12.637 34.907 14.2516V22.8348C34.907 24.4493 33.5982 25.7582 31.9837 25.7582C31.8523 25.7582 31.7319 25.7982 31.6317 25.865C31.7098 25.9055 31.7825 25.9569 31.8474 26.0185L36.5903 30.5208C36.812 30.7312 37.1735 30.5361 37.1193 30.2353L36.399 26.2359C36.3542 25.987 36.5455 25.7582 36.7984 25.7582H37.0749C38.6895 25.7582 39.9984 24.4494 39.9984 22.8348V14.2516C39.9983 12.637 38.6895 11.3281 37.0749 11.3281Z" fill="#FFA800"/>
<path d="M17.6735 18.1582H3.29391C1.47563 18.1582 0.00164795 19.6322 0.00164795 21.4505V31.2449C0.00164795 33.0632 1.47563 34.5372 3.29391 34.5372H3.6054H3.64485C3.97712 34.5372 4.2854 34.7101 4.45868 34.9935L4.51821 35.0909H8.37235L8.74344 34.8115C8.98001 34.6334 9.26813 34.5372 9.56423 34.5372H17.6732C19.4915 34.5372 20.9655 33.0632 20.9655 31.2449V21.4504C20.9656 19.6322 19.4917 18.1583 17.6735 18.1582Z" fill="#02B657"/>
<path d="M3.60535 34.5371C3.89019 34.5371 4.10558 34.7948 4.05511 35.0752L3.24394 39.5792C3.18293 39.9178 3.59011 40.1375 3.83972 39.9007L9.18097 34.8303C9.37925 34.6421 9.64222 34.5371 9.91566 34.5371H3.60535Z" fill="#03A04E"/>
<path d="M22.2568 18.1582H17.1655C18.9838 18.1582 20.4577 19.6322 20.4577 21.4505V31.2449C20.4577 33.0632 18.9838 34.5372 17.1655 34.5372H22.2568C24.0751 34.5372 25.5491 33.0632 25.5491 31.2449V21.4504C25.5491 19.6322 24.0751 18.1582 22.2568 18.1582Z" fill="#03A04E"/>
<path d="M11.8957 0H1.76581C0.808698 0 0.0327606 0.775937 0.0327606 1.73305V7.79664C0.0327606 8.75383 0.808698 9.52969 1.76581 9.52969H6.39073C6.72823 9.52969 7.04167 9.70422 7.2194 9.99109L7.233 10.013H11.1328L11.2177 9.89664C11.386 9.66602 11.6544 9.52969 11.9399 9.52969H12.0748H12.4849C13.2093 9.32195 13.6288 8.58773 13.6288 7.79664V1.73305C13.6288 0.775937 12.8529 0 11.8957 0V0Z" fill="#474884"/>
<path d="M16.577 0H11.4857C12.4428 0 13.2187 0.775937 13.2187 1.73305V7.79664C13.2187 8.58773 12.7992 9.32203 12.0749 9.52969H16.577C17.5341 9.52969 18.31 8.75375 18.31 7.79664V1.73305C18.31 0.775937 17.5341 0 16.577 0V0Z" fill="#32335C"/>
<path d="M21.0376 23.2624H4.51325C4.17989 23.2624 3.90965 22.9921 3.90965 22.6588C3.90965 22.3254 4.17989 22.0552 4.51325 22.0552H21.0376C21.3711 22.0552 21.6412 22.3254 21.6412 22.6588C21.6412 22.9921 21.371 23.2624 21.0376 23.2624Z" fill="#F0F7FF"/>
<path d="M21.0376 27.0714H4.51325C4.17989 27.0714 3.90965 26.8012 3.90965 26.4679C3.90965 26.1345 4.17989 25.8643 4.51325 25.8643H21.0376C21.3711 25.8643 21.6412 26.1345 21.6412 26.4679C21.6412 26.8012 21.371 27.0714 21.0376 27.0714Z" fill="#F0F7FF"/>
<path d="M12.7754 30.8805H4.51325C4.17989 30.8805 3.90965 30.6103 3.90965 30.2769C3.90965 29.9436 4.17989 29.6733 4.51325 29.6733H12.7754C13.1088 29.6733 13.379 29.9436 13.379 30.2769C13.379 30.6103 13.1088 30.8805 12.7754 30.8805Z" fill="#F0F7FF"/>
<path d="M36.9178 15.6437H20.3934C20.06 15.6437 19.7898 15.3735 19.7898 15.0401C19.7898 14.7068 20.06 14.4365 20.3934 14.4365H36.9178C37.2513 14.4365 37.5214 14.7068 37.5214 15.0401C37.5214 15.3735 37.2513 15.6437 36.9178 15.6437Z" fill="#F0F7FF"/>
<path d="M36.9179 19.4533H28.6557C28.3222 19.4533 28.0521 19.183 28.0521 18.8497C28.0521 18.5162 28.3223 18.2461 28.6557 18.2461H36.9179C37.2514 18.2461 37.5215 18.5163 37.5215 18.8497C37.5215 19.183 37.2513 19.4533 36.9179 19.4533Z" fill="#F0F7FF"/>
<path d="M15.2076 4.00553H3.13509C2.80173 4.00553 2.53149 3.73529 2.53149 3.40193C2.53149 3.06857 2.80173 2.79834 3.13509 2.79834H15.2076C15.5409 2.79834 15.8112 3.06857 15.8112 3.40193C15.8112 3.73529 15.5409 4.00553 15.2076 4.00553Z" fill="#F0F7FF"/>
<path d="M9.17134 7.02359H3.13509C2.80173 7.02359 2.53149 6.75336 2.53149 6.42C2.53149 6.08656 2.80173 5.81641 3.13509 5.81641H9.17134C9.5047 5.81641 9.77493 6.08664 9.77493 6.42C9.77493 6.75344 9.5047 7.02359 9.17134 7.02359Z" fill="#F0F7FF"/>
<path d="M6.81275 9.84385L8.73564 13.1637C8.92963 13.4986 9.41314 13.4986 9.6072 13.1637L11.53 9.84385C11.6426 9.64947 11.8502 9.52979 12.0749 9.52979H6.26799C6.4926 9.52979 6.70018 9.64947 6.81275 9.84385Z" fill="#32335C"/>
</svg>
