<svg width="24" height="32" viewBox="0 0 24 32" fill="none" xmlns="http://www.w3.org/2000/svg">
<path d="M17.1189 22.4264L18.5822 20.0519L21.223 19.1513L21.5155 16.3777L23.5023 14.4218L22.5577 11.7964L23.5023 9.17094L21.5156 7.215L21.223 4.4415L18.5823 3.54087L17.119 1.16631L14.3512 1.5005L12 0L9.64878 1.50063L6.88103 1.16644L5.41771 3.54094L2.77696 4.44156L2.4844 7.21506L0.497589 9.171L1.44221 11.7964L0.497589 14.4219L2.48434 16.3778L2.7769 19.1513L5.41765 20.0519L6.88096 22.4264L9.64878 22.0923L12 23.5929L14.3512 22.0923L17.1189 22.4264ZM3.91065 11.7964C3.91065 7.336 7.53953 3.70712 12 3.70712C16.4604 3.70712 20.0893 7.336 20.0893 11.7964C20.0893 16.2569 16.4604 19.8857 12 19.8857C7.53953 19.8857 3.91065 16.2569 3.91065 11.7964Z" fill="#216456"/>
<path d="M12 5.58331C8.57408 5.58331 5.7869 8.3705 5.7869 11.7964C5.7869 15.2224 8.57408 18.0096 12 18.0096C15.426 18.0096 18.2131 15.2224 18.2131 11.7964C18.2131 8.3705 15.426 5.58331 12 5.58331Z" fill="#216456"/>
<path d="M9.2062 24.0355L5.9137 24.433L4.17414 21.61L3.58276 21.4084L1.03195 29.3813L5.62414 29.1287L9.21695 32L11.3312 25.3917L9.2062 24.0355Z" fill="#216456"/>
<path d="M19.8259 21.6101L18.0863 24.433L14.7939 24.0355L12.6689 25.3917L14.7831 32L18.3759 29.1287L22.9681 29.3813L20.4173 21.4084L19.8259 21.6101Z" fill="#216456"/>
</svg>
