<svg width="32" height="32" viewBox="0 0 32 32" fill="none" xmlns="http://www.w3.org/2000/svg">
<path d="M29.125 0H17.875C16.3241 0 15 1.38663 15 2.9375V12.3125C15 13.8634 16.3241 15.125 17.875 15.125H29.125C30.6759 15.125 32 13.8634 32 12.3125V2.9375C32 1.38663 30.6759 0 29.125 0ZM20.6875 10.4375C20.6875 10.9557 20.2682 11.375 19.75 11.375C19.2318 11.375 18.8125 10.9557 18.8125 10.4375V8.5625C18.8125 8.04431 19.2318 7.625 19.75 7.625C20.2682 7.625 20.6875 8.04431 20.6875 8.5625V10.4375ZM24.4375 10.4375C24.4375 10.9557 24.0182 11.375 23.5 11.375C22.9818 11.375 22.5625 10.9557 22.5625 10.4375V6.6875C22.5625 6.16931 22.9818 5.75 23.5 5.75C24.0182 5.75 24.4375 6.16931 24.4375 6.6875V10.4375ZM28.1875 10.4375C28.1875 10.9557 27.7682 11.375 27.25 11.375C26.7318 11.375 26.3125 10.9557 26.3125 10.4375V4.8125C26.3125 4.29431 26.7318 3.875 27.25 3.875C27.7682 3.875 28.1875 4.29431 28.1875 4.8125V10.4375Z" fill="#216456"/>
<path d="M7.5 5.75C5.43181 5.75 3.75 7.43181 3.75 9.5C3.75 11.5682 5.43181 13.25 7.5 13.25C9.56819 13.25 11.25 11.5682 11.25 9.5C11.25 7.43181 9.56819 5.75 7.5 5.75Z" fill="#216456"/>
<path d="M10.7887 14.0428C9.86146 14.716 8.73103 15.125 7.49996 15.125C6.2689 15.125 5.13846 14.716 4.21128 14.0428C2.04271 15.1111 0.447089 17.1715 0.0807766 19.6477C0.0297141 19.9924 0.178152 20.3039 0.419964 20.5109C1.2579 18.4554 3.27171 17 5.62496 17C7.93184 17 9.91446 18.3983 10.7812 20.3895C11.4115 18.9415 12.6403 17.8294 14.1476 17.319C13.405 15.9043 12.2281 14.7518 10.7887 14.0428Z" fill="#216456"/>
<path d="M5.625 18.875C3.55681 18.875 1.875 20.5568 1.875 22.625C1.875 24.6932 3.55681 26.375 5.625 26.375C7.69319 26.375 9.375 24.6932 9.375 22.625C9.375 20.5568 7.69319 18.875 5.625 18.875Z" fill="#216456"/>
<path d="M15.9375 18.875C13.8693 18.875 12.1875 20.5568 12.1875 22.625C12.1875 24.6932 13.8693 26.375 15.9375 26.375C18.0057 26.375 19.75 24.6932 19.75 22.625C19.75 20.5568 18.0057 18.875 15.9375 18.875Z" fill="#216456"/>
<path d="M26.3125 18.875C24.2443 18.875 22.5625 20.5568 22.5625 22.625C22.5625 24.6932 24.2443 26.375 26.3125 26.375C28.3807 26.375 30.125 24.6932 30.125 22.625C30.125 20.5568 28.3807 18.875 26.3125 18.875Z" fill="#216456"/>
<path d="M8.4375 30.125C8.4375 28.9904 8.70619 27.9235 9.16375 26.9614C8.19406 27.7542 6.97244 28.25 5.625 28.25C3.96906 28.25 2.49331 27.5174 1.463 26.375C0.5635 27.3724 0 28.6791 0 30.125V31.0625C0 31.5807 0.419312 32 0.9375 32H8.61019C8.50513 31.7053 8.4375 31.3927 8.4375 31.0625V30.125Z" fill="#216456"/>
<path d="M20.162 26.375C19.1317 27.5174 17.5934 28.25 15.9375 28.25C14.2816 28.25 12.8058 27.5174 11.7755 26.375C10.876 27.3724 10.3125 28.6791 10.3125 30.125V31.0625C10.3125 31.5807 10.7318 32 11.25 32H20.6875C21.2057 32 21.625 31.5807 21.625 31.0625V30.125C21.625 28.6791 21.0615 27.3724 20.162 26.375Z" fill="#216456"/>
<path d="M30.537 26.375C29.5067 27.5174 27.9684 28.25 26.3125 28.25C24.9651 28.25 23.7434 27.7542 22.7737 26.9614C23.2313 27.9235 23.5 28.9904 23.5 30.125V31.0625C23.5 31.3927 23.4324 31.7053 23.3273 32H31.0625C31.5807 32 32 31.5807 32 31.0625V30.125C32 28.6791 31.4365 27.3724 30.537 26.375Z" fill="#216456"/>
</svg>
