<svg width="32" height="32" viewBox="0 0 32 32" fill="none" xmlns="http://www.w3.org/2000/svg">
<g clip-path="url(#clip0)">
<path d="M23.4286 11.8857C21.252 10.8949 16.6657 10.8571 16 10.8571C15.3343 10.8571 10.748 10.8949 8.57142 11.8857V6.90743C8.91428 6.46743 11.6091 5.71429 16 5.71429C20.3908 5.71429 23.0857 6.46743 23.4286 6.90743V11.8857ZM16 14.2857C11.7714 14.2857 9.116 13.5874 8.61942 13.1429C9.116 12.6983 11.7726 12 16 12C20.2274 12 22.884 12.6983 23.3806 13.1429C22.884 13.5874 20.2286 14.2857 16 14.2857ZM28.5714 10.2857H27.4286V8.57143C27.4286 8.25584 27.6844 8 28 8C28.3156 8 28.5714 8.25584 28.5714 8.57143V10.2857ZM28.5714 6.93943V4.48971L32 5.71429L28.5714 6.93943ZM16.008 0L27.4286 4.08114V6.96229C27.0672 7.09069 26.7593 7.3363 26.5537 7.66L24.5714 8.36686V6.85714C24.5714 4.63543 16.8771 4.57143 16 4.57143C15.1229 4.57143 7.42857 4.63543 7.42857 6.85714V8.36629L0 5.71429L16.008 0Z" fill="#216456"/>
<path d="M17.8286 18.84C18.0659 19.7126 18.2041 20.6091 18.2406 21.5126C16.9449 20.9101 15.4253 21.0514 14.2629 21.8823C14.2336 20.8562 14.1021 19.8355 13.8703 18.8355C14.5625 18.8499 15.2724 18.8572 16 18.8572C16.6246 18.8572 17.2309 18.8503 17.8286 18.84ZM16.5714 28C14.9935 28 13.7143 26.7209 13.7143 25.1429C13.7143 23.5649 14.9935 22.2857 16.5714 22.2857C18.1494 22.2857 19.4286 23.5649 19.4286 25.1429C19.4267 26.7201 18.1486 27.9982 16.5714 28ZM1.60243e-05 22.8572C-0.0591126 21.2184 0.133607 19.5803 0.571445 18C1.00928 19.5803 1.202 21.2184 1.14287 22.8572C1.202 24.4959 1.00928 26.134 0.571445 27.7143C0.133607 26.134 -0.0591126 24.4959 1.60243e-05 22.8572ZM1.72744 27.812C2.13096 26.1922 2.31868 24.5262 2.28573 22.8572C2.31869 21.188 2.13097 19.5218 1.72744 17.9017C5.35788 18.4032 9.01308 18.7051 12.6766 18.8063C13.0193 20.1284 13.1763 21.4918 13.1429 22.8572C13.1429 22.94 13.1429 23.0189 13.1394 23.0983C12.4537 24.2364 12.3846 25.6425 12.9554 26.8423L12.9303 26.9029C9.18188 26.9948 5.44164 27.2983 1.72744 27.812ZM14.5183 32.0001L14.1012 31.0401C13.9757 30.7518 13.641 30.619 13.352 30.7429L12.3903 31.1681L13.7303 27.9555C14.2804 28.5129 14.9823 28.8965 15.7486 29.0583L14.5183 32.0001ZM19.7909 30.7429C19.5019 30.619 19.1672 30.7518 19.0417 31.0401L18.6189 31.9903L17.3937 29.0572C18.1606 28.8952 18.8631 28.5115 19.4137 27.9538L20.7509 31.1538L19.7909 30.7429ZM31.3143 27.9715C27.6431 27.4064 23.9411 27.063 20.2286 26.9429L20.188 26.8446C20.9066 25.3303 20.5986 23.528 19.4177 22.3383C19.4133 21.1533 19.2765 19.9724 19.0097 18.8177C23.1302 18.7255 27.2403 18.3662 31.3143 17.7423C31.5794 18.1926 32 19.9737 32 22.8572C32 25.7406 31.5766 27.5212 31.3143 27.9715Z" fill="#216456"/>
</g>
<defs>
<clipPath id="clip0">
<rect width="32" height="32" fill="white"/>
</clipPath>
</defs>
</svg>
