<svg width="32" height="32" viewBox="0 0 32 32" fill="none" xmlns="http://www.w3.org/2000/svg">
<g clip-path="url(#clip0)">
<path d="M16 19.375C17.7259 19.375 19.125 17.9759 19.125 16.25C19.125 14.5241 17.7259 13.125 16 13.125C14.2741 13.125 12.875 14.5241 12.875 16.25C12.875 17.9759 14.2741 19.375 16 19.375Z" fill="#216456"/>
<path d="M31.4166 12.7608C30.6388 11.983 29.3778 11.983 28.6 12.7608L20.408 20.9529C20.159 21.2019 19.8212 21.3418 19.4691 21.3418H12.531C12.1788 21.3418 11.8411 21.2019 11.5921 20.9529L3.40008 12.7608C2.62226 11.983 1.3612 11.983 0.58339 12.7608C-0.194423 13.5387 -0.194423 14.7997 0.58339 15.5775L10.025 25.0191V31.9585L21.9751 32V25.0191L31.4167 15.5775C32.1945 14.7997 32.1945 13.5387 31.4166 12.7608Z" fill="#216456"/>
<path d="M12.6961 6.91638L12.2299 9.63456C12.1696 9.98625 12.3143 10.3417 12.6029 10.5515C12.8916 10.7611 13.2743 10.7889 13.5903 10.6229L16.0313 9.3395L18.4724 10.6229C18.6096 10.6949 18.7594 10.7306 18.9086 10.7306C19.103 10.7306 19.2964 10.6702 19.4597 10.5516C19.7484 10.3418 19.893 9.98631 19.8327 9.63463L19.3665 6.91644L21.3414 4.99137C21.597 4.74231 21.689 4.36975 21.5786 4.03038C21.4684 3.69094 21.175 3.44356 20.8219 3.39231L18.0926 2.99569L16.872 0.522563C16.714 0.202563 16.3881 0 16.0313 0C15.6744 0 15.3485 0.202563 15.1906 0.522563L13.9701 2.99563L11.2408 3.39225C10.8877 3.4435 10.5943 3.69088 10.4841 4.03031C10.3738 4.36969 10.4658 4.74225 10.7213 4.99131L12.6961 6.91638Z" fill="#216456"/>
</g>
<defs>
<clipPath id="clip0">
<rect width="32" height="32" fill="white"/>
</clipPath>
</defs>
</svg>
