<svg width="32" height="32" viewBox="0 0 32 32" fill="none" xmlns="http://www.w3.org/2000/svg">
<path d="M16 5.58014C8.71426 5.58014 2.80817 11.4852 2.80817 18.7719C2.80817 26.0572 8.71374 31.9633 16 31.9633C23.2852 31.9633 29.1918 26.0572 29.1918 18.7719C29.1918 11.4852 23.2852 5.58014 16 5.58014ZM17.0155 28.8659V27.3805C17.0155 26.819 16.5609 26.365 16 26.365C15.4396 26.365 14.9845 26.819 14.9845 27.3805V28.8659C10.1991 28.3879 6.38349 24.5718 5.90553 19.7869H7.39149C7.95238 19.7869 8.40697 19.3329 8.40697 18.7714C8.40697 18.21 7.95238 17.756 7.39149 17.756H5.90553C6.38297 12.9706 10.1991 9.15441 14.9845 8.67698V10.1624C14.9845 10.7233 15.4391 11.1779 16 11.1779C16.5609 11.1779 17.0155 10.7233 17.0155 10.1624V8.67698C21.8008 9.15441 25.617 12.9706 26.0944 17.756H24.6096C24.0487 17.756 23.5941 18.21 23.5941 18.7714C23.5941 19.3329 24.0487 19.7869 24.6096 19.7869H26.0944C25.6165 24.5718 21.8008 28.3879 17.0155 28.8659Z" fill="#216456"/>
<path d="M20.9156 17.2488H17.6508C17.301 16.8703 16.8251 16.6172 16.2881 16.5476L13.3795 12.4533C12.8925 11.7675 11.943 11.6064 11.2561 12.0939C10.5703 12.5809 10.4092 13.5315 10.8967 14.2173L13.799 18.3036C13.7671 18.4546 13.749 18.6109 13.749 18.7714C13.749 20.016 14.7565 21.0241 16 21.0241C16.6549 21.0241 17.2393 20.7407 17.6508 20.2941H20.9156C21.7566 20.2941 22.4382 19.612 22.4382 18.7709C22.4388 17.931 21.7567 17.2488 20.9156 17.2488Z" fill="#216456"/>
<path d="M26.5224 4.24253C26.5213 1.92347 24.6345 0.0366211 22.3155 0.0366211H18.4578H15.999H9.68403C7.36497 0.0366211 5.47812 1.92342 5.47707 4.24253C2.41318 4.48122 0 7.03741 0 10.1624C0 11.9158 0.763974 13.4879 1.97135 14.5757C3.16387 10.5947 6.01135 7.33194 9.70844 5.56368C9.07362 5.04373 8.32136 4.67317 7.50797 4.44985V4.24358C7.50797 3.04368 8.48408 2.067 9.68403 2.067H15.999H18.4578H22.3155C23.5159 2.067 24.492 3.0431 24.492 4.24358V4.44985C23.6786 4.67317 22.9258 5.04368 22.2916 5.56368C25.9886 7.33194 28.8356 10.5952 30.0287 14.5757C31.236 13.4879 32 11.9158 32 10.1624C32 7.03741 29.5869 4.48122 26.5224 4.24253Z" fill="#216456"/>
</svg>
