<svg width="26" height="32" viewBox="0 0 26 32" fill="none" xmlns="http://www.w3.org/2000/svg">
<path d="M19.4872 13.785C20.3355 13.6036 21.118 12.9024 21.2455 11.3473C21.3506 10.0745 21.0241 9.41885 20.5422 9.08471C21.8801 3.63136 18.1899 2.56381 18.1899 2.56381C18.1899 2.56381 15.4321 -2.1148 10.0516 1.16842C9.36719 1.58592 8.30314 2.38588 7.66919 3.21177C6.65137 4.29473 5.95858 6.05507 5.85001 8.90609C5.19294 9.15686 4.67668 9.79151 4.80487 11.3466C4.93936 12.9725 5.78766 13.6645 6.68009 13.806C7.88494 16.7404 10.2638 19.1585 13.0791 19.1585C15.9007 19.1585 18.2845 16.7292 19.4872 13.785ZM13.0791 17.7905C9.82391 17.7905 7.20266 13.3703 7.20266 9.71026C7.20266 9.2087 7.21877 8.74357 7.24959 8.31207C12.0109 8.52011 14.8268 6.61127 16.3595 4.9553C17.8131 6.40392 18.5682 8.23361 18.9542 9.59187C18.9542 9.6311 18.9549 9.66963 18.9549 9.70955C18.9556 13.3703 16.335 17.7905 13.0791 17.7905Z" fill="#216456"/>
<path d="M11.2144 23.3244L11.5913 21.7644C11.6347 21.5843 11.7279 21.4302 11.854 21.3118C11.8155 21.2845 11.7776 21.2558 11.7405 21.2257L8.37393 18.4384L6.32498 18.9176C2.85543 19.7336 0.410706 22.6638 0.410706 26.0248V30.4379C0.410706 31.3065 1.18335 31.9993 2.108 31.9993H10.7808L12.1034 24.4606C11.5093 24.4529 11.0743 23.9044 11.2144 23.3244Z" fill="#216456"/>
<path d="M19.71 18.9176L17.6891 18.4384L14.326 21.2257C14.2889 21.2558 14.2525 21.2845 14.2139 21.3118C14.3407 21.4302 14.4339 21.5843 14.478 21.7644L14.8542 23.3244C14.995 23.9037 14.56 24.4529 13.9653 24.4613L15.2878 32H23.9606C24.8853 32 25.5886 31.3079 25.5886 30.4386V26.0255C25.59 22.6638 23.1796 19.7336 19.71 18.9176Z" fill="#216456"/>
</svg>
