<svg width="32" height="32" viewBox="0 0 32 32" fill="none" xmlns="http://www.w3.org/2000/svg">
<path d="M31.7864 15.4031C28.878 11.8596 22.7204 7.72443 16 7.72443C9.25544 7.72443 3.09757 11.8878 0.213492 15.4031C-0.0712454 15.7502 -0.0712454 16.25 0.213492 16.597C3.19087 20.2262 9.36292 24.2758 16 24.2758C22.8729 24.2758 29.0043 19.9867 31.7864 16.5971C32.0712 16.25 32.0712 15.7502 31.7864 15.4031ZM22.3933 16.0001C22.3933 19.5253 19.5252 22.3934 15.9999 22.3934C12.4745 22.3934 9.60656 19.5251 9.60656 16.0001C9.60656 12.4748 12.4746 9.60672 15.9999 9.60672C19.5256 9.60678 22.3933 12.4752 22.3933 16.0001ZM2.21249 16.0003C3.27181 14.8993 5.82604 12.5232 9.41161 10.9982C7.16145 13.9549 7.16057 18.0428 9.41054 21.0005C6.68433 19.8451 4.15181 18.0196 2.21249 16.0003ZM22.5883 21.0019C24.8385 18.0452 24.8393 13.9573 22.5894 10.9996C25.3155 12.155 27.8481 13.9806 29.7875 15.9998C28.7281 17.1009 26.1739 19.4768 22.5883 21.0019Z" fill="#216456"/>
<path d="M12.7999 15.9999C12.7999 17.7644 14.2354 19.1999 15.9999 19.1999C17.7644 19.1999 19.1999 17.7644 19.1999 15.9999C19.1999 14.2354 17.7644 12.7999 15.9999 12.7999C14.2354 12.7999 12.7999 14.2354 12.7999 15.9999ZM17.3176 15.9999C17.3176 16.7265 16.7264 17.3176 15.9999 17.3176C15.2733 17.3176 14.6823 16.7265 14.6823 15.9999C14.6823 15.2733 15.2733 14.6823 15.9999 14.6823C16.7264 14.6823 17.3176 15.2733 17.3176 15.9999Z" fill="#216456"/>
<path d="M16 4.07843C16.5198 4.07843 16.9412 3.65704 16.9412 3.13726V0.941177C16.9412 0.421396 16.5198 0 16 0C15.4802 0 15.0588 0.421396 15.0588 0.941177V3.13726C15.0588 3.65704 15.4802 4.07843 16 4.07843Z" fill="#216456"/>
<path d="M21.6157 5.33721C22.067 5.59459 22.6419 5.43767 22.8995 4.9859L24.1521 2.78982C24.4096 2.33831 24.2524 1.76356 23.8008 1.506C23.3492 1.24849 22.7746 1.40567 22.517 1.85731L21.2645 4.05338C21.007 4.50483 21.1642 5.07964 21.6157 5.33721Z" fill="#216456"/>
<path d="M9.10042 4.98589C9.35793 5.4374 9.93267 5.59464 10.3843 5.33714C10.8358 5.07963 10.993 4.50482 10.7355 4.05331L9.48298 1.85723C9.22547 1.40572 8.6506 1.24848 8.19915 1.50598C7.74764 1.76349 7.5904 2.3383 7.8479 2.78981L9.10042 4.98589Z" fill="#216456"/>
<path d="M16 27.9216C15.4802 27.9216 15.0588 28.343 15.0588 28.8628V31.0588C15.0588 31.5786 15.4802 32 16 32C16.5198 32 16.9412 31.5786 16.9412 31.0588V28.8628C16.9412 28.343 16.5198 27.9216 16 27.9216Z" fill="#216456"/>
<path d="M10.3842 26.6628C9.93273 26.4054 9.35799 26.5625 9.10042 27.0141L7.8479 29.2101C7.5904 29.6617 7.74764 30.2365 8.19915 30.494C8.65072 30.7515 9.22547 30.5942 9.48297 30.1427L10.7355 27.9466C10.9931 27.4951 10.8358 26.9203 10.3842 26.6628Z" fill="#216456"/>
<path d="M22.8995 27.0142C22.642 26.5626 22.0671 26.4055 21.6157 26.6628C21.1642 26.9204 21.007 27.4952 21.2645 27.9467L22.517 30.1428C22.7744 30.5943 23.3492 30.7516 23.8008 30.4941C24.2523 30.2366 24.4096 29.6617 24.1521 29.2102L22.8995 27.0142Z" fill="#216456"/>
</svg>
