<svg width="33" height="33" viewBox="0 0 33 33" fill="none" xmlns="http://www.w3.org/2000/svg">
<path d="M13.7858 33.0001V29.5489H13.352C11.4543 29.5489 9.91031 28.005 9.91031 26.1072C9.91031 24.2095 11.4543 22.6655 13.352 22.6655H13.7858V19.2143H9.47654C9.00268 19.2143 8.61851 18.8302 8.61851 18.3563V17.0645C8.61851 16.113 7.84439 15.3389 6.89288 15.3389C5.94138 15.3389 5.16726 16.113 5.16726 17.0645V18.3563C5.16726 18.8302 4.78309 19.2143 4.30923 19.2143H0V31.2745C0 32.226 0.774119 33.0001 1.72562 33.0001H13.7858Z" fill="#216456"/>
<path d="M27.562 33C28.5135 33 29.2876 32.2259 29.2876 31.2744V19.2142H25.8364V19.648C25.8364 21.5457 24.2925 23.0897 22.3947 23.0897C20.497 23.0897 18.9531 21.5457 18.9531 19.648V19.2142H15.5019V23.5235C15.5019 23.9973 15.1177 24.3815 14.6438 24.3815H13.352C12.4005 24.3815 11.6264 25.1556 11.6264 26.1071C11.6264 27.0586 12.4005 27.8327 13.352 27.8327H14.6438C15.1177 27.8327 15.5019 28.2169 15.5019 28.6908V33H27.562Z" fill="#216456"/>
<path d="M26.2027 18.6118C27.141 18.4539 27.7759 17.562 27.618 16.6237L27.4036 15.3498C27.325 14.8825 27.6401 14.4399 28.1074 14.3613L32.3568 13.6461L30.3553 1.75322C30.1974 0.814912 29.3055 0.180005 28.3672 0.33792L16.4743 2.33948L17.0471 5.74281L17.4748 5.67082C19.3463 5.35586 21.125 6.62215 21.44 8.49358C21.755 10.365 20.4887 12.1438 18.6172 12.4587L18.1895 12.5307L18.7623 15.9341L23.0117 15.2189C23.479 15.1402 23.9216 15.4553 24.0003 15.9226L24.2147 17.1965C24.3726 18.1348 25.2644 18.7697 26.2027 18.6118Z" fill="#216456"/>
<path d="M1.72562 3.7124C0.774119 3.7124 0 4.48652 0 5.43803V17.4982H3.45119V17.0644C3.45119 15.1667 4.99514 13.6227 6.89288 13.6227C8.79063 13.6227 10.3346 15.1667 10.3346 17.0644V17.4982H13.7858V13.1889C13.7858 12.7151 14.1699 12.3309 14.6438 12.3309H15.9356C16.8871 12.3309 17.6612 11.5568 17.6612 10.6053C17.6612 9.65378 16.8871 8.87966 15.9356 8.87966H14.6438C14.1699 8.87966 13.7858 8.49549 13.7858 8.02163V3.7124H1.72562Z" fill="#216456"/>
</svg>
