<svg width="22" height="20" viewBox="0 0 22 20" fill="none" xmlns="http://www.w3.org/2000/svg">
<path fill-rule="evenodd" clip-rule="evenodd" d="M10.9571 0.292893C11.3476 0.683417 11.3476 1.31658 10.9571 1.70711L2.66421 10L10.9571 18.2929C11.3476 18.6834 11.3476 19.3166 10.9571 19.7071C10.5666 20.0976 9.93342 20.0976 9.54289 19.7071L0.542893 10.7071C0.152369 10.3166 0.152369 9.68342 0.542893 9.29289L9.54289 0.292893C9.93342 -0.0976311 10.5666 -0.0976311 10.9571 0.292893Z" fill="#18995e"/>
<path fill-rule="evenodd" clip-rule="evenodd" d="M1.5 10C1.5 9.44772 1.94772 9 2.5 9H20.75C21.3023 9 21.75 9.44772 21.75 10C21.75 10.5523 21.3023 11 20.75 11H2.5C1.94772 11 1.5 10.5523 1.5 10Z" fill="#18995e"/>
</svg>
