<svg width="120" height="120" viewBox="0 0 120 120" fill="none" xmlns="http://www.w3.org/2000/svg">
<path d="M1 60C1 27.4585 27.4585 1 60 1C92.5415 1 119 27.4585 119 60C119 92.5415 92.5415 119 60 119C27.4585 119 1 92.5415 1 60Z" stroke="#21B672" stroke-width="2"/>
<path fill-rule="evenodd" clip-rule="evenodd" d="M28.0762 55.1679C29.4546 53.7896 31.6893 53.7896 33.0676 55.1679L53.9354 76.0358L88.0345 41.9744C89.4135 40.5968 91.6482 40.5981 93.0258 41.9771C94.4034 43.3562 94.4021 45.5909 93.023 46.9685L53.9327 86.0157L28.0762 60.1592C26.6979 58.7809 26.6979 56.5462 28.0762 55.1679Z" fill="#21B672"/>
</svg>
