<svg width="14" height="13" viewBox="0 0 14 13" fill="none" xmlns="http://www.w3.org/2000/svg">
<path d="M7 0.00012207C3.41594 0.00012207 0.5 2.91606 0.5 6.50012C0.5 10.0842 3.41594 13.0001 7 13.0001C10.5841 13.0001 13.5 10.0842 13.5 6.50012C13.5 2.91606 10.5841 0.00012207 7 0.00012207ZM10.3828 4.32168L6.18281 9.32168C6.13674 9.37656 6.07941 9.42089 6.01471 9.45168C5.95001 9.48246 5.87945 9.49899 5.80781 9.50012H5.79938C5.72929 9.5001 5.66 9.48534 5.59599 9.45681C5.53198 9.42827 5.47468 9.3866 5.42781 9.3345L3.62781 7.3345C3.5821 7.28601 3.54654 7.22888 3.52322 7.16645C3.4999 7.10403 3.4893 7.03757 3.49203 6.97099C3.49477 6.90441 3.51078 6.83905 3.53914 6.77874C3.56749 6.71844 3.60761 6.66441 3.65715 6.61983C3.70668 6.57526 3.76463 6.54103 3.82757 6.51917C3.89052 6.49731 3.95721 6.48825 4.02371 6.49253C4.09021 6.4968 4.15518 6.51433 4.21481 6.54408C4.27444 6.57383 4.32752 6.61519 4.37094 6.66575L5.78625 8.23825L9.61719 3.67856C9.70312 3.57921 9.8247 3.51767 9.95564 3.50723C10.0866 3.4968 10.2164 3.53831 10.317 3.6228C10.4175 3.70729 10.4808 3.82796 10.4931 3.95874C10.5055 4.08952 10.4658 4.21989 10.3828 4.32168Z" fill="white"/>
</svg>
