<svg width="30" height="30" viewBox="0 0 30 30" fill="none" xmlns="http://www.w3.org/2000/svg">
<path fill-rule="evenodd" clip-rule="evenodd" d="M0.292893 0.292893C0.683417 -0.0976311 1.31658 -0.0976311 1.70711 0.292893L29.7071 28.2929C30.0976 28.6834 30.0976 29.3166 29.7071 29.7071C29.3166 30.0976 28.6834 30.0976 28.2929 29.7071L0.292893 1.70711C-0.0976311 1.31658 -0.0976311 0.683417 0.292893 0.292893Z" fill="#7C8CA4"/>
<path fill-rule="evenodd" clip-rule="evenodd" d="M29.7071 0.292893C30.0976 0.683417 30.0976 1.31658 29.7071 1.70711L1.70711 29.7071C1.31658 30.0976 0.683417 30.0976 0.292893 29.7071C-0.0976311 29.3166 -0.0976311 28.6834 0.292893 28.2929L28.2929 0.292893C28.6834 -0.0976311 29.3166 -0.0976311 29.7071 0.292893Z" fill="#7C8CA4"/>
</svg>
