<svg width="32" height="32" viewBox="0 0 32 32" fill="none" xmlns="http://www.w3.org/2000/svg">
<path d="M16 0C7.175 0 0 7.175 0 16C0 24.825 7.175 32 16 32C24.825 32 32 24.825 32 16C32 7.175 24.825 0 16 0Z" fill="#21B672"/>
<path d="M17.0682 26.6672V16.9361H20.3345L20.8236 13.1437H17.0682V10.7223C17.0682 9.62437 17.3731 8.87604 18.9477 8.87604L20.9559 8.87512V5.48326C20.6085 5.43721 19.4165 5.33398 18.0296 5.33398C15.1342 5.33398 13.152 7.10125 13.152 10.3469V13.1438H9.87715V16.9362H13.1519V26.6673L17.0682 26.6672Z" fill="white"/>
</svg>
