<svg width="70" height="70" viewBox="0 0 70 70" fill="none" xmlns="http://www.w3.org/2000/svg">
<rect width="70" height="70" rx="10" fill="#313B44"/>
<path d="M45.7867 33.9018C45.2157 32.0399 43.7759 30.9725 41.8147 30.9725C40.6727 30.9725 39.6797 31.3448 38.8357 32.1889C38.8357 30.7739 39.7542 29.8057 41.2685 29.5574C42.3857 29.3837 43.5028 29.2347 44.6447 29.0361C44.8185 29.0113 45.1164 28.8375 45.1164 28.7134C45.166 28.0183 45.1412 27.3232 45.1412 26.5288C43.4035 26.8764 41.7402 27.1246 40.1266 27.5218C38.2647 27.9686 37.1228 29.2595 36.6015 31.0718C36.105 32.8343 36.0057 34.6217 36.3284 36.4091C36.9987 40.1328 40.8465 41.945 43.9 39.9839C45.7618 38.7923 46.5314 36.3346 45.7867 33.9018ZM43.1056 36.9801C42.6836 38.1468 41.492 38.6682 40.35 38.1965C39.506 37.8489 39.0591 36.9801 39.0591 35.7388C39.0591 33.9514 40.35 32.884 41.914 33.3805C43.0808 33.7528 43.6517 35.4658 43.1056 36.9801Z" fill="white"/>
<path d="M24.6855 40.4549C23.5932 40.4549 22.625 40.4797 21.632 40.4301C21.4583 40.4301 21.2597 40.2066 21.1604 40.0329C20.4156 38.8909 19.6709 37.749 18.951 36.5822C18.8517 36.4084 18.7275 36.2595 18.5538 36.0112C17.8835 37.0787 17.1636 38.0221 16.6174 39.0895C16.0713 40.1818 15.3265 40.6783 14.0853 40.4549C13.6136 40.4052 13.1171 40.4797 12.4965 40.4797C12.6703 40.2066 12.7696 40.008 12.8937 39.8343C14.0853 37.9972 15.2769 36.1602 16.5181 34.348C16.7415 34.0004 16.7415 33.7522 16.5181 33.4046C15.3017 31.5924 14.1101 29.7802 12.9185 27.968C12.8192 27.7942 12.7199 27.6204 12.5461 27.3226C13.6633 27.3226 14.6563 27.2977 15.6492 27.3474C15.7982 27.3474 15.9968 27.5956 16.1209 27.7942C16.965 29.0851 17.7842 30.4008 18.6531 31.7662C19.4971 30.4505 20.3411 29.1596 21.1355 27.8687C21.3838 27.4467 21.6817 27.2729 22.1782 27.2977C22.9478 27.3474 23.7422 27.2977 24.6607 27.2977C24.5117 27.5708 24.4124 27.7694 24.2883 27.9432C23.1215 29.7306 21.9548 31.5428 20.7383 33.3302C20.4653 33.7274 20.4404 34.0004 20.7135 34.4225C21.9299 36.2098 23.1215 38.0469 24.3131 39.8591C24.4372 40.0329 24.5365 40.2066 24.6855 40.4549Z" fill="white"/>
<path d="M57.082 33.3561C56.4862 31.7673 55.3939 30.7992 53.6561 30.6254C52.4645 30.5013 51.4219 30.824 50.5282 31.817C50.5034 31.4446 50.4786 31.1467 50.4786 30.8488H47.9216V44.006H50.6027V39.6616C52.7873 41.598 56.3124 40.6794 57.2061 37.6012C57.6281 36.1613 57.6033 34.7463 57.082 33.3561ZM54.5498 36.5337C54.4009 37.6756 53.532 38.3459 52.5887 38.2963C51.5709 38.2466 50.7765 37.4522 50.6275 36.3103C50.6027 36.062 50.6027 35.8138 50.5779 35.5655C50.553 35.5655 50.5282 35.5655 50.5034 35.5407C50.6275 35.069 50.6772 34.5725 50.8758 34.1257C51.1985 33.3313 51.8191 32.9589 52.688 32.9837C53.5568 32.9837 54.2023 33.4306 54.4009 34.225C54.5995 34.9697 54.674 35.789 54.5498 36.5337Z" fill="white"/>
<path d="M34.3423 33.8277C34.3175 32.8595 33.9203 32.0403 33.1259 31.4196C31.5371 30.1784 28.4092 30.3274 26.9445 31.7175C26.4232 32.214 26.0508 32.8347 26.0012 33.6291C26.6963 33.6291 27.3417 33.6291 27.9872 33.6291C28.3099 33.6291 28.5333 33.5794 28.7567 33.2567C29.1539 32.6857 30.1221 32.5368 30.8669 32.8595C31.4875 33.1077 31.6861 33.5546 31.5868 34.4235C31.4378 34.4483 31.2889 34.4483 31.1151 34.4731C30.1718 34.5228 29.2036 34.4731 28.2851 34.6221C26.5722 34.8951 25.6288 36.0122 25.6288 37.601C25.6288 39.2147 26.5473 40.3069 28.2602 40.6048C29.5511 40.8531 30.6931 40.5055 31.7357 39.6118C31.7606 39.9097 31.7854 40.158 31.835 40.4311H34.3175C34.3423 40.3318 34.3672 40.2821 34.3672 40.2076C34.3423 38.0975 34.3672 35.9626 34.3423 33.8277ZM29.0546 38.4203C28.6078 38.2713 28.3595 37.9238 28.3844 37.4273C28.4092 36.8811 28.7319 36.5584 29.2284 36.5087C29.998 36.4094 30.7676 36.4094 31.562 36.3598C31.8847 38.0975 30.2214 38.8423 29.0546 38.4203Z" fill="white"/>
</svg>
