<svg width="134" height="40" viewBox="0 0 134 40" fill="none" xmlns="http://www.w3.org/2000/svg">
<path d="M109.617 10.8809C106.688 10.8204 104.627 12.2726 102.725 15.0333C103.376 11.2439 103.93 8.03694 104.479 4.82617C104.566 4.31939 104.983 3.66514 103.945 3.66893C101.546 3.67271 99.1368 3.53279 96.7537 3.71809C95.223 3.83533 95.9504 5.41235 95.5792 6.29731C95.367 6.81163 95.3556 7.36 96.1172 7.37133C97.5872 7.39024 97.466 8.2147 97.2727 9.28494C96.049 16.1565 94.8972 23.047 93.6507 29.9186C93.465 30.9397 93.5863 31.2952 94.6698 31.2385C95.9921 31.1704 97.3258 31.1515 98.6443 31.246C99.743 31.3217 100.057 30.8036 100.19 29.8505C100.421 28.1676 100.739 26.4961 101.024 24.8245C101.122 24.2497 101.228 23.7656 102.012 23.6937C102.812 23.6181 102.986 24.0757 103.157 24.6354C103.433 25.5393 103.698 26.4431 103.967 27.347C105.184 31.4162 106.313 31.9721 110.594 31.5146C113.064 31.2536 112.511 29.5177 112.845 28.126C113.246 26.428 111.863 27.3659 111.31 27.1201C110.836 26.9121 110.655 26.5414 110.503 26.1444C110.185 25.3237 109.988 24.4501 109.617 23.6597C109.135 22.6348 109.211 22.0259 110.34 21.4208C112.242 20.4073 113.549 18.7963 114.08 16.6557C114.936 13.2105 113.155 10.9527 109.617 10.8809ZM106.775 18.5088C105.46 19.9384 103.71 20.3052 101.539 20.5699C102.38 18.5353 103.028 16.8184 104.748 15.8805C105.521 15.4607 106.532 15.0976 107.18 15.941C107.832 16.7881 107.464 17.7563 106.775 18.5088Z" fill="#1D2633"/>
<path d="M18.6409 11.3948C18.5765 11.3948 18.5083 11.4099 18.4515 11.391C17.8301 11.1528 16.7011 11.9394 16.6026 10.8275C16.5155 9.87828 16.8489 8.79668 17.887 8.26343C18.6447 7.87391 19.5199 7.70751 20.2663 8.10081C22.1683 9.11058 22.9639 8.11217 23.5284 6.50489C23.6307 6.2099 23.7936 5.93004 23.9679 5.6691C24.4491 4.95056 24.3695 4.54212 23.4905 4.12613C17.4929 1.2973 11.8932 3.84625 10.3436 10.1543C10.2147 10.6725 10.2337 11.4969 9.45321 11.357C7.19131 10.9523 7.30499 12.5974 7.04733 13.9626C6.85412 14.9837 6.76317 15.9065 8.30899 15.672C9.02507 15.5662 9.32438 15.8498 9.17663 16.644C8.20292 21.8364 7.31255 27.044 6.29716 32.2251C5.83874 34.5623 5.0355 34.9783 2.65617 34.4753C2.1712 34.3694 1.62562 34.0328 1.39072 34.7438C0.947439 36.0901 -0.416504 37.4932 0.125285 38.6996C0.651928 39.8758 2.50461 39.8455 3.88752 39.9854C4.20199 40.0157 4.52024 39.9892 4.83471 39.9892C9.59339 40.0119 11.7871 38.0794 12.6774 33.0987C13.5337 28.3336 14.3786 23.5647 15.2424 18.7996C15.807 15.6872 15.8221 15.7099 19.016 15.6456C19.6374 15.6342 20.38 15.9822 20.8157 15.0745C22.047 12.5029 21.4181 11.3948 18.6409 11.3948Z" fill="#1D2633"/>
<path d="M89.0474 11.5648C88.8617 11.5383 88.6875 11.44 88.5056 11.3946C79.8938 9.28437 73.5628 12.8885 71.9601 20.8606C71.6002 22.6532 71.5358 24.4836 71.7441 26.314C72.1457 29.8462 74.2523 31.7069 77.8213 31.6804C79.8975 31.6652 81.6139 30.8786 83.0839 29.2146C84.5539 31.5934 86.0808 32.0094 89.1611 31.5253C91.1956 31.2077 90.5629 29.6079 91.0024 28.5188C91.2562 27.891 91.1274 27.4031 90.256 27.509C88.9716 27.6641 88.9981 26.9228 89.1649 25.9812C89.8392 22.2031 90.3053 18.3797 91.1805 14.6508C91.6844 12.5065 90.8849 11.8182 89.0474 11.5648ZM84.1561 17.854C83.9023 19.7185 83.5196 21.564 83.19 23.4133C83.1331 23.7234 83.0991 24.0373 83.0195 24.3398C82.5004 26.2345 81.3183 27.2934 79.9544 27.093C78.7041 26.9077 78.2002 25.9358 78.2419 23.141C78.2949 21.9535 78.6548 20.1798 79.3065 18.4667C79.693 17.438 80.3067 16.572 81.2463 15.9933C82.0799 15.4828 83.0422 15.1613 83.9363 15.6492C84.9139 16.1862 84.2508 17.1279 84.1561 17.854Z" fill="#1D2633"/>
<path d="M57.025 11.3497C52.8384 11.4631 52.8384 11.3799 52.8535 15.521C52.8649 18.7469 52.6944 21.9501 51.2509 24.9113C50.7053 26.027 49.849 26.98 48.4207 26.564C46.9166 26.1215 47.5265 24.8546 47.5682 23.8524C47.5834 23.478 47.7198 23.1149 47.7804 22.7405C48.2161 20.0781 48.7162 17.4233 49.0496 14.7457C49.258 13.0666 48.5343 11.7505 46.7953 11.3043C45.1813 10.8921 43.5067 11.0131 41.9192 11.4026C40.2408 11.8148 40.9038 13.4902 40.5476 14.5869C40.2218 15.5815 41.1842 15.2336 41.6426 15.2828C42.6807 15.3887 42.3966 16.0694 42.2981 16.6707C41.832 19.5222 41.3054 22.3661 40.9114 25.229C40.5022 28.1788 41.8131 30.3723 44.3326 31.227C49.8415 33.0952 55.7102 30.4025 57.8168 24.9907C59.2906 21.2164 59.4081 17.2796 59.177 13.2897C59.0898 11.8035 58.5821 11.3081 57.025 11.3497Z" fill="#1D2633"/>
<path d="M32.6593 10.8882C22.9638 10.9449 19.5009 20.0705 20.9179 26.4391C21.5279 29.1734 23.2707 30.7769 25.9948 31.4046C28.2075 31.919 30.4087 31.7828 32.5304 31.1286C36.9368 29.7709 36.8269 30.3911 35.2243 25.4785C34.7582 25.6752 34.2922 25.8529 33.8338 26.0647C32.3637 26.7417 30.8179 26.9723 29.2267 26.753C27.9574 26.5752 27.0292 25.8264 27.1163 24.5179C27.2148 23.0922 28.4841 23.8523 29.1963 23.788C31.606 23.5725 33.9626 23.2359 36.0048 21.8328C38.3879 20.1953 39.3843 16.9694 38.4599 14.0952C37.7552 11.898 35.8797 10.8693 32.6593 10.8882ZM32.288 18.6069C31.2764 19.4389 30.0261 19.6016 28.7341 19.6696C27.8892 19.8133 27.5672 19.4541 27.9006 18.6296C28.4348 17.3249 29.1963 16.2168 30.6058 15.6987C31.4847 15.3735 32.4054 15.2033 32.9472 16.126C33.4966 17.0639 33.0722 17.9602 32.288 18.6069Z" fill="#1D2633"/>
<path d="M133.243 14.0728C132.497 11.8831 130.735 10.8847 127.617 10.8884C120.468 10.8998 115.482 16.1225 115.402 23.69C115.349 28.8559 118.126 31.6696 123.483 31.681C125.018 31.7566 126.674 31.3519 128.31 30.8792C131.33 30.0094 131.254 30.0094 130.572 26.8932C130.292 25.5998 129.928 25.3615 128.746 25.9969C127.208 26.8251 125.495 27.0331 123.779 26.7078C122.597 26.4847 121.805 25.6376 121.885 24.4501C121.976 23.1 123.177 23.8488 123.832 23.7958C126.374 23.5878 128.86 23.2512 130.989 21.7121C133.232 20.0934 134.175 16.8032 133.243 14.0728ZM127.249 18.4786C126.215 19.4127 124.904 19.5942 123.601 19.6661C122.51 19.8287 122.381 19.3598 122.76 18.4937C123.336 17.1852 124.146 16.1263 125.556 15.6422C126.378 15.3624 127.261 15.2489 127.734 16.0922C128.2 16.9243 127.973 17.8205 127.249 18.4786Z" fill="#1D2633"/>
<path d="M67.444 3.66844C66.0232 3.66844 64.8866 3.62684 63.7537 3.67601C62.1056 3.74408 62.9202 5.21898 62.5148 5.99804C62.2913 6.42917 62.0109 7.23849 62.9315 7.30277C64.7502 7.42001 64.2311 8.57725 64.053 9.59456C63.0263 15.343 61.9692 21.0876 60.9614 26.8435C60.4007 30.0505 61.7495 31.6237 65.0229 31.6502C65.6519 31.6578 66.2846 31.6426 66.9097 31.567C68.9216 31.3288 69.9294 29.9635 69.6339 27.997C69.5732 27.6036 69.4255 27.407 69.0769 27.4372C66.8946 27.6452 67.5387 26.1666 67.7243 25.0887C68.698 19.3933 69.7286 13.7092 70.7326 8.01755C70.9713 6.65986 71.8048 4.85594 71.2365 4.04284C70.5015 2.99526 68.5617 3.86886 67.444 3.66844Z" fill="#1D2633"/>
<path d="M81.686 8.40724C82.3377 9.00477 82.7847 9.20898 83.5728 8.60768C85.3649 7.23866 87.2365 5.97174 89.0665 4.6481C89.7977 4.11865 90.3698 3.47574 90.3888 2.39035C90.2486 1.00243 88.9339 0.805765 87.9374 0.2158C86.9107 -0.396855 86.6114 0.435152 86.1757 0.972166C84.6678 2.8177 83.2091 4.70105 81.6898 6.53525C81.1366 7.20083 80.9131 7.69625 81.686 8.40724Z" fill="#1D2633"/>
</svg>
