<svg width="78" height="77" viewBox="0 0 78 77" fill="none" xmlns="http://www.w3.org/2000/svg">
<path d="M39.3268 2.95369C40.0273 2.95369 40.7294 3.10591 41.3802 3.4088L66.734 15.5739C68.0371 16.2309 69.039 17.4424 69.3388 18.8559L75.6031 46.2677C75.9525 47.7324 75.6031 49.2469 74.6509 50.4087L57.1147 72.3686C56.6674 72.9372 56.0964 73.3964 55.4451 73.7113C54.7938 74.0262 54.0792 74.1885 53.3558 74.1859H25.2466C24.5231 74.1885 23.8086 74.0262 23.1573 73.7113C22.506 73.3964 21.935 72.9372 21.4877 72.3686L3.95146 50.4087C3.50361 49.8279 3.18676 49.1571 3.02268 48.4423C2.85859 47.7275 2.85115 46.9857 3.00086 46.2677L9.26358 18.8559C9.61462 17.3927 10.5668 16.1812 11.8684 15.5739L37.2221 3.35754C37.8745 3.10591 38.6247 2.95369 39.3268 2.95369ZM39.3268 0.580322C38.2737 0.580322 37.2221 0.833504 36.2203 1.28705L10.8665 13.5049C9.88561 13.9703 9.02375 14.6533 8.34655 15.502C7.66934 16.3507 7.19464 17.3426 6.95855 18.4024L0.695835 45.8142C0.446098 46.8798 0.442619 47.9884 0.685661 49.0555C0.928704 50.1227 1.41187 51.1204 2.09842 51.9728L19.6347 73.9327C20.2985 74.771 21.1441 75.4475 22.1077 75.9111C23.0713 76.3748 24.1276 76.6134 25.1969 76.609H53.3061C55.4605 76.609 57.5154 75.6491 58.8667 73.9327L76.403 51.9728C77.0924 51.122 77.5774 50.1244 77.8209 49.0567C78.0643 47.989 78.0596 46.8797 77.8071 45.8142L71.5444 18.4024C71.3083 17.3426 70.8336 16.3507 70.1564 15.502C69.4792 14.6533 68.6173 13.9703 67.6364 13.5049L42.3821 1.28705C41.4285 0.828135 40.385 0.586743 39.3268 0.580322Z" fill="#6876E2"/>
<path d="M64.7301 44.0979C64.6789 44.0979 64.6789 44.0979 64.7301 44.0979H64.6789C64.6292 44.0979 64.5794 44.0979 64.5794 44.0466C64.4785 44.0466 64.3791 43.9969 64.2781 43.9969C63.9286 43.9457 63.6273 43.8959 63.326 43.8959C63.1769 43.8959 63.0262 43.8959 62.8258 43.8447H62.7761C61.723 43.7437 60.8718 43.6428 60.0704 43.3911C59.7193 43.2389 59.6199 43.037 59.519 42.8351C59.519 42.7854 59.4677 42.7854 59.4677 42.7341L58.8169 42.5322C59.1244 40.1579 59.0055 37.7477 58.4658 35.4152C57.9198 33.0651 56.9707 30.8274 55.6607 28.8014L56.1624 28.3463V28.2454C56.1624 27.9937 56.2121 27.7406 56.4109 27.4889C57.0136 26.9329 57.7653 26.4793 58.6662 25.9232C58.8169 25.8223 58.9675 25.7726 59.1167 25.6716C59.418 25.5194 59.6696 25.3687 59.9709 25.1668C60.0191 25.1156 60.1201 25.0659 60.2195 24.9649C60.2707 24.9136 60.3204 24.9136 60.3204 24.8639C61.0209 24.2582 61.1716 23.2485 60.6715 22.5915C60.4198 22.2389 59.9694 22.037 59.519 22.037C59.1182 22.037 58.7672 22.1877 58.4161 22.4409L58.3167 22.5418C58.2158 22.5915 58.1661 22.6925 58.0651 22.7437C57.815 22.9954 57.6147 23.1973 57.4143 23.4505C57.3149 23.5514 57.2139 23.7021 57.0633 23.8031C56.3612 24.561 55.7119 25.1668 55.0596 25.6204C54.9282 25.7153 54.7712 25.7684 54.6091 25.7726C54.5082 25.7726 54.4072 25.7726 54.3078 25.7213H54.2084L53.6057 26.1252C52.9533 25.4184 52.2544 24.8127 51.5523 24.2069C48.5379 21.8311 44.9016 20.3764 41.0803 20.0178L41.0306 19.3607L40.9296 19.2598C40.7789 19.1091 40.5786 18.9569 40.5289 18.6043C40.4792 17.7966 40.5786 16.8864 40.6795 15.8768V15.8271C40.6795 15.6749 40.7292 15.4745 40.7789 15.3223C40.8286 15.0194 40.8799 14.7165 40.9296 14.3624V13.9088C40.9296 13.0002 40.2275 12.2422 39.3764 12.2422C38.9756 12.2422 38.5749 12.4441 38.2735 12.747C37.9738 13.0499 37.8231 13.4537 37.8231 13.9088V14.3127C37.8231 14.6653 37.8728 14.9681 37.9738 15.271C38.0235 15.4232 38.0235 15.5739 38.0732 15.7774V15.8271C38.1741 16.8367 38.3248 17.7454 38.2238 18.5531C38.1741 18.9072 37.9738 19.0579 37.8231 19.2101L37.7237 19.311L37.6724 19.9665C36.7715 20.0675 35.8691 20.1684 34.9667 20.3704C31.1648 21.2102 27.7062 23.1812 25.046 26.0242L24.5459 25.6716H24.4449C24.3455 25.6716 24.2446 25.7213 24.1451 25.7213C23.9833 25.7176 23.8263 25.6651 23.6947 25.5707C23.0423 25.1156 22.39 24.4601 21.6894 23.7021C21.59 23.6011 21.4891 23.4505 21.3384 23.3495C21.1348 23.1016 20.9169 22.8656 20.686 22.6428C20.6363 22.5915 20.5369 22.5418 20.4375 22.4409C20.3863 22.3896 20.3366 22.3896 20.3366 22.3399C20.0259 22.0805 19.6376 21.9391 19.2338 21.936C18.7833 21.936 18.3329 22.138 18.0812 22.4906C17.5811 23.1476 17.7318 24.1572 18.4323 24.763C18.482 24.763 18.482 24.8127 18.5332 24.8127C18.6326 24.8639 18.6823 24.9649 18.7818 25.0146C19.0831 25.2165 19.3347 25.3687 19.636 25.5194C19.7852 25.5707 19.9358 25.6716 20.0865 25.7726C20.9874 26.3271 21.7392 26.7822 22.3403 27.3367C22.5919 27.5899 22.5919 27.8415 22.5919 28.0947V28.1957L23.092 28.6492C22.9926 28.8014 22.8917 28.9024 22.842 29.053C20.3366 33.0418 19.3844 37.7357 20.0352 42.38L19.3844 42.5819C19.3844 42.6332 19.3347 42.6332 19.3347 42.6844C19.2201 42.9271 19.0254 43.1229 18.7833 43.2389C18.0315 43.4921 17.1291 43.5931 16.0775 43.694H16.0278C15.8772 43.694 15.6768 43.694 15.5261 43.7437C15.2264 43.7437 14.925 43.795 14.574 43.8447C14.4746 43.8447 14.3736 43.8959 14.2742 43.8959C14.2245 43.8959 14.1733 43.8959 14.1235 43.9456C13.2227 44.1476 12.6697 45.0065 12.8204 45.8142C12.971 46.5209 13.6218 46.976 14.4233 46.976C14.574 46.976 14.675 46.976 14.8256 46.9248C14.8753 46.9248 14.925 46.9248 14.925 46.8735C15.026 46.8735 15.1254 46.8238 15.2248 46.8238C15.5758 46.7229 15.8275 46.6219 16.1272 46.4712C16.2779 46.42 16.4286 46.319 16.5777 46.2693H16.6289C17.5811 45.9152 18.4323 45.6123 19.2338 45.5113H19.3347C19.6345 45.5113 19.8349 45.662 19.9871 45.7645C20.0352 45.7645 20.0352 45.8142 20.0865 45.8142L20.787 45.7133C21.9934 49.4538 24.2768 52.7551 27.3511 55.2036C28.0531 55.7597 28.7536 56.2132 29.5054 56.6683L29.2056 57.3238C29.2056 57.3751 29.2553 57.3751 29.2553 57.4248C29.3548 57.6267 29.4557 57.8799 29.3548 58.2325C29.055 58.9905 28.6045 59.7469 28.0531 60.6058V60.6556C27.9522 60.8078 27.8512 60.9087 27.7518 61.0594C27.5514 61.3126 27.4008 61.5642 27.2004 61.8671C27.1396 61.9444 27.0894 62.0296 27.0513 62.1203C27.0513 62.17 27 62.2212 27 62.2212C26.5993 63.0802 26.9006 64.0385 27.6524 64.3927C27.8381 64.4897 28.044 64.5413 28.2535 64.5434C28.8546 64.5434 29.4557 64.1395 29.7571 63.5834C29.7571 63.5337 29.8068 63.4825 29.8068 63.4825C29.8452 63.3924 29.8953 63.3078 29.9559 63.2309C30.1065 62.8767 30.1578 62.6251 30.2572 62.3222L30.4079 61.8671C30.7589 60.8575 31.009 60.0498 31.4594 59.3431C31.6613 59.0402 31.9099 58.9905 32.1118 58.8895C32.1615 58.8895 32.1615 58.8895 32.2112 58.8382L32.5622 58.1828C34.7678 59.0402 37.1723 59.4953 39.5767 59.4953C41.0306 59.4953 42.5326 59.3431 43.9367 58.9905C44.819 58.7916 45.6888 58.5385 46.5415 58.2325L46.8413 58.7885C46.8926 58.7885 46.8925 58.7885 46.9423 58.8382C47.1923 58.8895 47.3927 58.9905 47.5946 59.2934C47.9938 60.0001 48.2936 60.8575 48.6462 61.8174V61.8671L48.7968 62.3222C48.8962 62.6251 48.9459 62.928 49.0966 63.2309C49.1463 63.3318 49.1976 63.3831 49.2473 63.4825C49.2473 63.5337 49.297 63.5834 49.297 63.5834C49.5983 64.1892 50.1979 64.5434 50.8005 64.5434C51.0009 64.5434 51.2013 64.4921 51.4016 64.3927C51.7527 64.1908 52.054 63.8863 52.1534 63.4825C52.2528 63.0786 52.2528 62.6251 52.0525 62.2212C52.0525 62.17 52.0028 62.17 52.0028 62.1203C51.953 62.0193 51.9033 61.9183 51.8521 61.8671C51.6976 61.579 51.5128 61.3082 51.3007 61.0594C51.2013 60.9087 51.1019 60.8078 51.0009 60.6556V60.6058C50.4495 59.7469 49.9478 58.9905 49.6977 58.2325C49.5983 57.8799 49.6977 57.678 49.7474 57.4248C49.7474 57.3751 49.7987 57.3751 49.7987 57.3238L49.5471 56.7181C52.2031 55.1539 54.4585 52.9328 56.1624 50.2068C57.0633 48.7934 57.7653 47.2277 58.2655 45.662L58.8666 45.763C58.9178 45.763 58.9178 45.7133 58.9675 45.7133C59.1679 45.6123 59.3186 45.4616 59.6199 45.4616H59.7193C60.5208 45.561 61.372 45.8655 62.3241 46.2181H62.3754C62.5245 46.2678 62.6752 46.3687 62.8258 46.42C63.1256 46.5706 63.3772 46.6716 63.7267 46.7741C63.8277 46.7741 63.9286 46.8238 64.028 46.8238C64.0778 46.8238 64.1275 46.8238 64.1787 46.8735C64.3294 46.9248 64.4288 46.9248 64.5794 46.9248C65.3312 46.9248 65.982 46.42 66.1824 45.7645C66.1824 45.1587 65.631 44.351 64.7301 44.0979ZM41.5307 41.6235L39.3251 42.6844L37.121 41.6235L36.5712 39.2517L38.0732 37.3334H40.5273L42.0324 39.2517L41.5307 41.6235ZM54.6091 36.3735C54.9974 38.0433 55.1155 39.7643 54.9586 41.4729L47.2933 39.2517C46.959 39.154 46.6744 38.9325 46.4975 38.6324C46.3207 38.3324 46.2647 37.9762 46.3411 37.6363C46.3899 37.4276 46.4933 37.2357 46.6409 37.0803L52.7048 31.5771C53.556 32.9905 54.2068 34.6059 54.6091 36.3735ZM50.2988 28.5482L43.7363 33.2437C43.4582 33.4197 43.1247 33.4861 42.8004 33.4301C42.4762 33.3742 42.1842 33.1998 41.9812 32.9408C41.832 32.7902 41.7823 32.5867 41.7326 32.3863L41.2806 24.1572C44.6978 24.5554 47.878 26.1039 50.2988 28.5482ZM35.7681 24.4088C36.3195 24.3079 36.8212 24.2069 37.3727 24.1059L36.9222 32.1829C36.871 32.8896 36.3195 33.4954 35.5678 33.4954C35.3576 33.4993 35.1501 33.4473 34.9667 33.3447L28.3032 28.5482C30.3469 26.4861 32.9366 25.0501 35.7681 24.4088ZM25.8988 31.5771L31.8602 36.928C32.4116 37.3832 32.4613 38.2406 32.0108 38.7966C31.8679 39.0016 31.6535 39.1456 31.4097 39.2005L23.6434 41.4729C23.3421 38.0402 24.0939 34.5562 25.8988 31.5786V31.5771ZM24.5443 45.2582L32.5125 43.8959C32.8342 43.8762 33.1524 43.9722 33.4096 44.1664C33.6668 44.3607 33.8461 44.6404 33.9151 44.9553C33.9648 45.2582 33.9648 45.5113 33.8654 45.763L30.8086 53.186C27.9146 51.2953 25.7159 48.5126 24.5459 45.2597L24.5443 45.2582ZM42.8339 55.3046C41.6814 55.5578 40.5289 55.7084 39.3266 55.7084C37.6085 55.6987 35.9019 55.4264 34.2661 54.9007L38.2238 47.6812C38.6246 47.2277 39.2754 47.0258 39.8268 47.3286C40.0613 47.4731 40.2648 47.661 40.4279 47.8831L44.2862 54.9007C43.8357 55.053 43.334 55.1539 42.8339 55.3046ZM52.6039 48.287C51.3519 50.3062 49.6977 51.9216 47.7934 53.1844L44.6372 45.561C44.5574 45.2593 44.5835 44.9394 44.7113 44.6547C44.8391 44.37 45.0608 44.1378 45.3393 43.9969C45.5397 43.8959 45.7897 43.8447 46.0398 43.8447L54.0577 45.2084C53.749 46.3088 53.2576 47.3495 52.6039 48.287Z" fill="#6876E2"/>
</svg>
