<svg width="85" height="55" viewBox="0 0 85 55" fill="none" xmlns="http://www.w3.org/2000/svg">
<path d="M63.8386 46.3936C63.8386 46.3936 81.3967 29.8564 74.9109 0.0284424C74.9109 0.0284424 78.1556 2.06558 78.6016 4.98785C79.0477 7.91012 83.6765 28.1704 63.8386 46.3936Z" fill="#6876E2"/>
<path d="M59.6866 53.8905C59.6866 53.8905 81.4853 42.1262 82.1773 12.8308C82.1773 12.8308 83.8073 15.3293 84.2534 18.2516C84.6994 21.1739 82.8693 41.8955 59.6866 53.8905Z" fill="#6876E2"/>
<path d="M20.4685 46.3936C20.4685 46.3936 2.91046 29.8564 9.39628 0.0284424C9.39628 0.0284424 6.15157 2.06558 5.70553 4.98785C5.25937 7.91012 0.630667 28.1704 20.4685 46.3936Z" fill="#6876E2"/>
<path d="M24.6205 53.8905C24.6205 53.8905 2.8219 42.1262 2.12996 12.8308C2.12996 12.8308 0.499946 15.3293 0.0539041 18.2516C-0.392138 21.1739 1.43791 41.8955 24.6205 53.8905Z" fill="#6876E2"/>
<path d="M35.236 6.76029C34.7976 6.76029 34.4249 6.60686 34.1181 6.29988C33.8112 5.99301 33.6578 5.62219 33.6578 5.18717V1.58865C33.6578 1.15027 33.812 0.777775 34.1207 0.470792C34.4294 0.163929 34.8011 0.010376 35.236 0.010376C35.6744 0.010376 36.0462 0.164885 36.3513 0.473426C36.6565 0.782086 36.8091 1.15387 36.8091 1.58865V2.34096H35.7779V1.56757C35.7779 1.40971 35.7219 1.27472 35.6096 1.16249C35.4974 1.05026 35.3623 0.994087 35.2044 0.994087C35.0466 0.994087 34.9124 1.05026 34.8021 1.16249C34.6916 1.27472 34.6363 1.40971 34.6363 1.56757V5.17663C34.6363 5.33449 34.6916 5.46864 34.8021 5.57895C34.9125 5.6895 35.0467 5.74472 35.2044 5.74472C35.3622 5.74472 35.4974 5.6895 35.6096 5.57895C35.7219 5.46852 35.7779 5.33437 35.7779 5.17663V4.26646H36.8091V5.18705C36.8091 5.62554 36.6547 5.99721 36.3461 6.30239C36.0375 6.60758 35.6675 6.76029 35.236 6.76029Z" fill="#6876E2"/>
<path d="M38.6186 6.67617H37.6244V0.0842285H38.6186V6.67617Z" fill="#6876E2"/>
<path d="M42.7377 5.03463C42.7449 5.4942 42.6256 5.88694 42.38 6.21297C42.2187 6.43396 41.9908 6.59014 41.6961 6.68129C41.5383 6.7304 41.3542 6.75495 41.1437 6.75495C40.7545 6.75495 40.4317 6.65853 40.1757 6.4657C39.9617 6.30783 39.7924 6.09308 39.6681 5.82119C39.5436 5.54942 39.4708 5.23812 39.4498 4.8873L40.3967 4.81903C40.4389 5.20339 40.5404 5.48187 40.7018 5.65446C40.8209 5.78502 40.9577 5.8467 41.1122 5.83963C41.3296 5.83268 41.5032 5.72561 41.633 5.5184C41.6996 5.41659 41.733 5.27094 41.733 5.08134C41.733 4.80753 41.6086 4.5354 41.3596 4.26519C41.1631 4.07918 40.8685 3.8001 40.4758 3.42796C40.146 3.10852 39.9128 2.82238 39.776 2.56966C39.6288 2.28531 39.555 1.97641 39.555 1.64296C39.555 1.04264 39.7567 0.588098 40.1602 0.279198C40.4092 0.0930677 40.7178 0.00012207 41.086 0.00012207C41.4402 0.00012207 41.7437 0.0790544 41.9962 0.236918C42.1925 0.359687 42.3513 0.531563 42.4722 0.752548C42.5934 0.973533 42.6661 1.22782 42.6906 1.51528L41.7384 1.68883C41.7103 1.41886 41.6331 1.20841 41.507 1.0575C41.4157 0.94886 41.2842 0.894363 41.1125 0.894363C40.9299 0.894363 40.7915 0.97521 40.6969 1.13643C40.6196 1.26626 40.581 1.4276 40.581 1.62044C40.581 1.92215 40.7109 2.22902 40.9704 2.54103C41.0686 2.66033 41.2158 2.80058 41.4123 2.96192C41.6438 3.15488 41.7964 3.28986 41.8699 3.367C42.1155 3.61266 42.3048 3.8546 42.438 4.09307C42.501 4.2053 42.552 4.30879 42.5905 4.40341C42.6852 4.63841 42.7343 4.84885 42.7377 5.03463Z" fill="#6876E2"/>
<path d="M45.1262 6.76029C44.6879 6.76029 44.3153 6.60686 44.0085 6.29988C43.7015 5.99301 43.548 5.62219 43.548 5.18717V1.58865C43.548 1.15027 43.7025 0.777775 44.0111 0.470792C44.3196 0.163929 44.6916 0.010376 45.1262 0.010376C45.5649 0.010376 45.9365 0.164885 46.2416 0.473426C46.5467 0.782086 46.6994 1.15387 46.6994 1.58865V2.34096H45.6682V1.56757C45.6682 1.40971 45.6119 1.27472 45.4998 1.16249C45.3875 1.05026 45.2525 0.994087 45.0946 0.994087C44.9368 0.994087 44.8027 1.05026 44.6921 1.16249C44.5816 1.27472 44.5265 1.40971 44.5265 1.56757V5.17663C44.5265 5.33449 44.5816 5.46864 44.6921 5.57895C44.8027 5.6895 44.9368 5.74472 45.0946 5.74472C45.2525 5.74472 45.3875 5.6895 45.4998 5.57895C45.6119 5.46852 45.6682 5.33437 45.6682 5.17663V4.26646H46.6994V5.18705C46.6994 5.62554 46.5449 5.99721 46.2362 6.30239C45.9277 6.60758 45.5579 6.76029 45.1262 6.76029Z" fill="#6876E2"/>
<path d="M49.0718 0C49.5102 0 49.8826 0.154388 50.1896 0.462926C50.4966 0.771584 50.6501 1.14348 50.6501 1.57826V5.17676C50.6501 5.61525 50.4956 5.98775 50.187 6.29461C49.8783 6.60159 49.5065 6.75502 49.0718 6.75502C48.6332 6.75502 48.2615 6.60063 47.9564 6.29198C47.6511 5.98344 47.4985 5.61154 47.4985 5.17676V1.57826C47.4985 1.13989 47.653 0.767272 47.9617 0.46029C48.2703 0.153549 48.6403 0 49.0718 0ZM49.6137 1.55718C49.6137 1.39932 49.5584 1.26517 49.4479 1.15462C49.3375 1.04419 49.2032 0.988974 49.0454 0.988974C48.8875 0.988974 48.7525 1.04419 48.6401 1.15462C48.528 1.26517 48.472 1.39932 48.472 1.55718V5.1661C48.472 5.32396 48.528 5.45823 48.6401 5.56866C48.7525 5.67909 48.8875 5.73443 49.0454 5.73443C49.2032 5.73443 49.3375 5.67909 49.4479 5.56866C49.5584 5.45823 49.6137 5.32396 49.6137 5.1661V1.55718Z" fill="#6876E2"/>
<path d="M29.1493 15.6492C28.7108 15.6492 28.3381 15.4957 28.0313 15.1888C27.7244 14.8819 27.571 14.5111 27.571 14.0761V10.4776C27.571 10.0392 27.7253 9.66669 28.0339 9.35971C28.3426 9.05284 28.7144 8.89929 29.1493 8.89929C29.5876 8.89929 29.9594 9.0538 30.2645 9.36234C30.5697 9.671 30.7223 10.0428 30.7223 10.4776V11.2299H29.6911V10.4565C29.6911 10.2986 29.6351 10.1636 29.5228 10.0514C29.4106 9.93917 29.2755 9.883 29.1176 9.883C28.9598 9.883 28.8256 9.93917 28.7153 10.0514C28.6048 10.1636 28.5495 10.2986 28.5495 10.4565V14.0655C28.5495 14.2234 28.6048 14.3575 28.7153 14.4678C28.8257 14.5784 28.9599 14.6336 29.1176 14.6336C29.2754 14.6336 29.4106 14.5784 29.5228 14.4678C29.6351 14.3574 29.6911 14.2233 29.6911 14.0655V13.1553H30.7223V14.0759C30.7223 14.5144 30.5679 14.8861 30.2593 15.1913C29.9507 15.4965 29.5806 15.6492 29.1493 15.6492Z" fill="#6876E2"/>
<path d="M31.5376 15.565V8.96777H34.368V9.9673H32.5318V11.7666H33.8734V12.7662H32.5318V14.5655H34.368V15.565H31.5376Z" fill="#6876E2"/>
<path d="M36.6194 8.97302C37.1736 8.97302 37.5805 9.12562 37.8401 9.43068C38.068 9.6973 38.1819 10.0691 38.1819 10.546V11.5034C38.1819 11.9699 38.0049 12.3645 37.6506 12.6872L38.3871 15.565H37.3117L36.7089 13.0819C36.6808 13.0819 36.6511 13.0819 36.6194 13.0819H36.046V15.565H35.0517V8.97302H36.6194ZM37.2139 10.562C37.2139 10.1798 37.0245 9.98847 36.6458 9.98847H36.046V12.0981H36.6458C36.8036 12.0981 36.9378 12.042 37.0483 11.9298C37.1588 11.8176 37.214 11.6825 37.214 11.5246V10.562H37.2139Z" fill="#6876E2"/>
<path d="M39.9707 9.97267H38.9133V8.97302H42.0173V9.97267H40.9651V15.565H39.9707V9.97267Z" fill="#6876E2"/>
<path d="M43.8111 15.5651H42.8168V8.97302H43.8111V15.5651Z" fill="#6876E2"/>
<path d="M45.6943 15.565H44.7V8.96777H47.5305V9.9673H45.6943V11.7666H47.0358V12.7662H45.6943V15.565Z" fill="#6876E2"/>
<path d="M49.2084 15.5651H48.2141V8.97302H49.2084V15.5651Z" fill="#6876E2"/>
<path d="M50.0975 15.565V8.96777H52.928V9.9673H51.0918V11.7666H52.4333V12.7662H51.0918V14.5655H52.928V15.565H50.0975Z" fill="#6876E2"/>
<path d="M56.7369 13.9867C56.7369 14.4216 56.5844 14.7934 56.2794 15.1019C55.9743 15.4106 55.606 15.565 55.1746 15.565H53.6121V8.96777H55.1746C55.6094 8.96777 55.9786 9.12216 56.282 9.4307C56.5854 9.73936 56.7369 10.1093 56.7369 10.5408V13.9867ZM54.6063 14.5811H55.2061C55.364 14.5811 55.4973 14.5241 55.6059 14.4101C55.7147 14.2962 55.769 14.1621 55.769 14.0078V10.5566C55.769 10.3987 55.7137 10.2637 55.6033 10.1515C55.4928 10.0393 55.3602 9.98311 55.2061 9.98311H54.6063V14.5811Z" fill="#6876E2"/>
<path d="M72.378 18.4666H11.9292V18.9593H72.378V18.4666Z" fill="#6876E2"/>
<path d="M64.9685 39.5155H19.3386V40.0082H64.9685V39.5155Z" fill="#6876E2"/>
<path d="M21.699 37.4996C21.0414 37.4996 20.4872 37.2745 20.037 36.8239C19.5864 36.3738 19.3613 35.8194 19.3613 35.1619V23.4735C19.3613 22.8284 19.5864 22.2804 20.037 21.8298C20.4872 21.3673 21.0414 21.1359 21.699 21.1359H28.712V23.4735H21.699V35.1619H28.712V37.4996H21.699Z" fill="#6876E2"/>
<path d="M33.3875 37.4977C32.7299 37.4977 32.1757 37.2725 31.7255 36.8219C31.2749 36.3718 31.0498 35.8175 31.0498 35.1599V23.4716C31.0498 22.8265 31.2749 22.2785 31.7255 21.8279C32.1757 21.3653 32.7299 21.1339 33.3875 21.1339H40.4005V23.4716H33.3875V35.1599H40.4005V37.4977H33.3875Z" fill="#6876E2"/>
<path d="M42.738 37.4977V21.1338H45.0758L50.9201 32.8223V21.1338H53.2578V37.4976H50.9201L45.0758 25.8091V37.4976H42.738V37.4977Z" fill="#6876E2"/>
<path d="M55.5952 37.4977V23.4716C55.5952 22.8265 55.8204 22.2785 56.271 21.8279C56.7213 21.3653 57.2754 21.1339 57.933 21.1339H62.6083C63.2535 21.1339 63.8014 21.3653 64.252 21.8279C64.7146 22.2785 64.9458 22.8265 64.9458 23.4716V37.4977H62.6083V30.4845H57.933V37.4977H55.5952ZM62.6084 28.147V23.4716H57.9331V28.147H62.6084Z" fill="#6876E2"/>
<path d="M31.8759 42.7584C32.2921 42.7584 32.5978 42.8729 32.7927 43.1022C32.964 43.3026 33.0497 43.5819 33.0497 43.9401V44.6595C33.0497 45.0098 32.9165 45.3064 32.6505 45.5487L33.2037 47.7106H32.3959L31.9431 45.8451C31.922 45.8451 31.8996 45.8451 31.876 45.8451H31.445V47.7106H30.6981V42.7584H31.8759ZM32.3224 43.952C32.3224 43.665 32.1801 43.5213 31.8956 43.5213H31.445V45.106H31.8956C32.0141 45.106 32.1149 45.0639 32.1979 44.9794C32.2809 44.8952 32.3224 44.7936 32.3224 44.6751V43.952Z" fill="#6876E2"/>
<path d="M34.8993 42.6952C35.2287 42.6952 35.5086 42.8111 35.7392 43.0431C35.9697 43.275 36.0849 43.5543 36.0849 43.8811V46.5843C36.0849 46.9137 35.969 47.1937 35.7371 47.4241C35.5052 47.6546 35.2259 47.7698 34.8992 47.7698C34.5698 47.7698 34.2906 47.6541 34.0613 47.4221C33.8321 47.1902 33.7176 46.9109 33.7176 46.5842V43.881C33.7176 43.5516 33.8334 43.2715 34.0654 43.0411C34.2972 42.8104 34.5752 42.6952 34.8993 42.6952ZM35.3065 43.8652C35.3065 43.7466 35.2651 43.6457 35.1821 43.5627C35.0991 43.4797 34.9982 43.4383 34.8796 43.4383C34.7611 43.4383 34.6596 43.4797 34.5753 43.5627C34.491 43.6457 34.4488 43.7466 34.4488 43.8652V46.5764C34.4488 46.695 34.491 46.7958 34.5753 46.8788C34.6596 46.9618 34.7611 47.0033 34.8796 47.0033C34.9982 47.0033 35.0991 46.9618 35.1821 46.8788C35.2651 46.7958 35.3065 46.695 35.3065 46.5764V43.8652Z" fill="#6876E2"/>
<path d="M37.9188 47.7661C37.5894 47.7661 37.3102 47.6516 37.0809 47.4223C36.8517 47.1931 36.7372 46.9152 36.7372 46.5885V42.7585H37.4683V46.5806C37.4683 46.6989 37.5105 46.7998 37.5948 46.8828C37.6791 46.9658 37.7805 47.0073 37.8991 47.0073C38.0177 47.0073 38.1186 46.9658 38.2016 46.8828C38.2846 46.7998 38.326 46.6989 38.326 46.5806V42.7585H39.1045V46.5885C39.1045 46.9203 38.9886 47.1996 38.7567 47.4262C38.5248 47.6528 38.2454 47.7661 37.9188 47.7661Z" fill="#6876E2"/>
<path d="M40.4958 43.5093H39.7013V42.7584H42.0331V43.5093H41.2427V47.7106H40.4958V43.5093Z" fill="#6876E2"/>
<path d="M43.3806 47.7108H42.6339V42.7585H43.3806V47.7108Z" fill="#6876E2"/>
<path d="M44.8875 42.7546L45.8788 46.0853V42.7546H46.6259V47.7108H45.8235L44.7959 44.5372V47.7108H44.0488V42.7546H44.8875Z" fill="#6876E2"/>
<path d="M48.4673 47.7739C48.138 47.7739 47.858 47.658 47.6275 47.4261C47.3971 47.1944 47.2819 46.9163 47.2819 46.5922V43.8888C47.2819 43.5594 47.3978 43.2796 47.6294 43.0489C47.8613 42.8185 48.1406 42.7032 48.4673 42.7032C48.7967 42.7032 49.076 42.8192 49.3053 43.0512C49.5345 43.2831 49.649 43.5624 49.649 43.8889V44.4542H48.8743V43.8732C48.8743 43.7546 48.8322 43.6531 48.7477 43.5689C48.6635 43.4844 48.562 43.4423 48.4436 43.4423C48.3251 43.4423 48.2242 43.4844 48.1412 43.5689C48.0582 43.6531 48.0166 43.7546 48.0166 43.8732V46.5844C48.0166 46.703 48.0582 46.8039 48.1412 46.8869C48.2242 46.9699 48.3251 47.0113 48.4436 47.0113C48.562 47.0113 48.6635 46.9699 48.7477 46.8872C48.8322 46.8045 48.8743 46.7041 48.8743 46.5858V45.6123H48.4593V44.8615H49.649V46.5925C49.649 46.9218 49.5331 47.2012 49.3011 47.4304C49.0694 47.6592 48.7913 47.7739 48.4673 47.7739Z" fill="#6876E2"/>
<path d="M53.5893 45.3789C53.4707 45.9058 53.31 46.3511 53.1072 46.7146C53.2994 46.8912 53.4669 46.9796 53.6091 46.9796V47.6712C53.3192 47.6712 53.0201 47.5394 52.7119 47.276C52.4167 47.5868 52.1006 47.7423 51.7633 47.7423C51.3733 47.7423 51.0756 47.5818 50.8702 47.2602C50.741 47.0574 50.6765 46.8254 50.6765 46.5647C50.6765 46.3092 50.7383 46.0428 50.8623 45.7663C50.8833 45.7213 50.9532 45.6003 51.0719 45.4026C51.1375 45.2972 51.2035 45.196 51.2694 45.0982L51.1151 44.7465C51.0415 44.5831 50.9913 44.4672 50.9651 44.3988C50.9124 44.2643 50.8756 44.143 50.8544 44.035C50.8305 43.9164 50.8188 43.8007 50.8188 43.6873C50.8188 43.466 50.8677 43.2629 50.9651 43.0786C51.0652 42.8835 51.2102 42.7375 51.3999 42.6397C51.5499 42.5582 51.716 42.5173 51.8979 42.5173C52.1007 42.5173 52.2865 42.5681 52.4551 42.6693C52.6238 42.7709 52.753 42.9112 52.8425 43.0903C52.9137 43.2351 52.9493 43.3921 52.9493 43.5607C52.9493 43.8586 52.8451 44.1417 52.6371 44.4105L52.4749 44.6201C52.3274 44.8123 52.1917 44.9927 52.0677 45.1615C52.2338 45.5067 52.421 45.8294 52.629 46.1299C52.7529 45.8479 52.8477 45.5476 52.9136 45.2287L53.5893 45.3789ZM51.7631 47.0545C51.9135 47.0545 52.0728 46.9598 52.2414 46.7699C52.0386 46.5092 51.8343 46.1904 51.6289 45.8137C51.5814 45.8926 51.5341 45.9744 51.4865 46.0586C51.4075 46.2405 51.3681 46.4092 51.3681 46.5645C51.3681 46.7017 51.3982 46.8135 51.4588 46.9004C51.5301 47.003 51.6316 47.0545 51.7631 47.0545ZM51.5065 43.6832C51.5065 43.8309 51.5828 44.0865 51.7355 44.45C51.7672 44.4106 51.7987 44.3711 51.8305 44.3314L51.9292 44.201L52.0875 43.9914C52.2032 43.8387 52.2612 43.6964 52.2612 43.5646C52.2612 43.4673 52.248 43.3922 52.2218 43.3395C52.1559 43.1735 52.0479 43.0905 51.8977 43.0905C51.7684 43.0905 51.6672 43.1602 51.5933 43.3001C51.5353 43.4106 51.5065 43.5383 51.5065 43.6832Z" fill="#6876E2"/>
<path d="M32.3205 53.1554C32.3258 53.5004 32.2362 53.7956 32.0518 54.0406C31.9305 54.2066 31.7593 54.3239 31.5379 54.3923C31.4193 54.4293 31.281 54.4477 31.1229 54.4477C30.8304 54.4477 30.588 54.3752 30.3957 54.2304C30.2349 54.1118 30.1078 53.9504 30.0143 53.7462C29.9207 53.5422 29.8661 53.3083 29.8503 53.0449L30.5617 52.9934C30.5932 53.282 30.6697 53.4914 30.7909 53.6211C30.8805 53.7191 30.9832 53.7654 31.0992 53.7602C31.2626 53.7549 31.393 53.6745 31.4905 53.5188C31.5404 53.4423 31.5656 53.3328 31.5656 53.1904C31.5656 52.9847 31.472 52.7804 31.285 52.5774C31.1374 52.4376 30.916 52.2278 30.6209 51.9482C30.3732 51.7083 30.1981 51.4933 30.0953 51.3035C29.9847 51.0898 29.9293 50.8579 29.9293 50.6072C29.9293 50.1564 30.0807 49.8147 30.3838 49.5828C30.5709 49.443 30.8027 49.3729 31.0794 49.3729C31.3456 49.3729 31.5735 49.4323 31.7632 49.5507C31.9107 49.643 32.03 49.772 32.1209 49.938C32.2118 50.104 32.2664 50.2953 32.285 50.5111L31.5695 50.6416C31.5483 50.4388 31.4905 50.2807 31.3956 50.1674C31.3271 50.0858 31.2283 50.045 31.0992 50.045C30.9622 50.045 30.8581 50.1056 30.7869 50.2269C30.729 50.3244 30.7001 50.4456 30.7001 50.5904C30.7001 50.8171 30.7976 51.0475 30.9926 51.2821C31.0664 51.3716 31.177 51.477 31.3246 51.5982C31.4984 51.743 31.613 51.8446 31.6684 51.9026C31.8528 52.0871 31.9951 52.2687 32.0952 52.448C32.1427 52.5325 32.1808 52.6102 32.2097 52.6811C32.2811 52.8575 32.3179 53.0156 32.3205 53.1554Z" fill="#6876E2"/>
<path d="M35.7931 49.4362H36.5772L35.8024 54.3884H35.091L34.6651 51.6637L34.2675 54.3884H33.5528L32.7236 49.4362H33.5061L33.8974 52.0882L34.2571 49.4362H35.0396L35.4305 52.0859L35.7931 49.4362Z" fill="#6876E2"/>
<path d="M37.9524 54.3884H37.2055V49.4362H37.9524V54.3884Z" fill="#6876E2"/>
<path d="M39.3476 50.187H38.5531V49.4362H40.8849V50.187H40.0945V54.3884H39.3476V50.187Z" fill="#6876E2"/>
<path d="M42.5844 54.4518C42.2552 54.4518 41.9752 54.3366 41.7447 54.1059C41.5142 53.8754 41.399 53.5968 41.399 53.2701V50.5666C41.399 50.2373 41.5148 49.9575 41.7468 49.7268C41.9786 49.4963 42.2579 49.3811 42.5846 49.3811C42.9142 49.3811 43.1933 49.497 43.4228 49.729C43.6518 49.9609 43.7663 50.2402 43.7663 50.5668V51.1321H42.9916V50.5511C42.9916 50.4325 42.9498 50.3309 42.865 50.2467C42.7808 50.1623 42.6792 50.1201 42.5609 50.1201C42.4423 50.1201 42.3415 50.1623 42.2585 50.2467C42.1755 50.3309 42.1341 50.4325 42.1341 50.5511V53.2623C42.1341 53.3809 42.1755 53.4817 42.2585 53.5647C42.3415 53.6477 42.4423 53.6892 42.5609 53.6892C42.6792 53.6892 42.7808 53.6477 42.865 53.5647C42.9497 53.4817 42.9916 53.3809 42.9916 53.2623V52.5785H43.7663V53.2702C43.7663 53.5996 43.6504 53.8789 43.4184 54.1081C43.1868 54.3369 42.9087 54.4518 42.5844 54.4518Z" fill="#6876E2"/>
<path d="M45.1256 52.2899V54.3886H44.3786V49.4364H45.1256V51.5392H46.0266V49.4364H46.7736V54.3886H46.0266V52.2899H45.1256Z" fill="#6876E2"/>
<path d="M48.1889 54.3884H47.4418V49.4362H48.1889V54.3884Z" fill="#6876E2"/>
<path d="M49.6954 49.4324L50.6867 52.7631V49.4324H51.4337V54.3885H50.6313L49.6038 51.215V54.3885H48.8568V49.4324H49.6954Z" fill="#6876E2"/>
<path d="M53.2751 54.4518C52.9457 54.4518 52.6657 54.3358 52.4352 54.104C52.2048 53.8723 52.0895 53.5942 52.0895 53.2701V50.5666C52.0895 50.2373 52.2055 49.9575 52.4373 49.7268C52.6692 49.4963 52.9485 49.3811 53.2752 49.3811C53.6046 49.3811 53.8839 49.497 54.1132 49.729C54.3425 49.9609 54.457 50.2402 54.457 50.5668V51.1321H53.6822V50.5511C53.6822 50.4325 53.6401 50.3309 53.5556 50.2467C53.4714 50.1623 53.3699 50.1201 53.2515 50.1201C53.1329 50.1201 53.0321 50.1623 52.9491 50.2467C52.8661 50.3309 52.8245 50.4325 52.8245 50.5511V53.2623C52.8245 53.3809 52.8661 53.4817 52.9491 53.5647C53.0321 53.6477 53.1329 53.6892 53.2515 53.6892C53.3699 53.6892 53.4714 53.6477 53.5556 53.5651C53.6401 53.4823 53.6822 53.3819 53.6822 53.2636V52.2902H53.2672V51.5393H54.457V53.2703C54.457 53.5997 54.341 53.879 54.109 54.1083C53.8774 54.3369 53.5992 54.4518 53.2751 54.4518Z" fill="#6876E2"/>
</svg>
