<svg width="74" height="52" viewBox="0 0 74 52" fill="none" xmlns="http://www.w3.org/2000/svg">
<path d="M40.4595 23.7081H32.8172V16.815H40.4595V23.7081ZM40.4595 0H32.8172V7.04396H40.4595V0ZM49.5007 16.8034H41.8584V23.6965H49.5007V16.8034ZM31.4298 8.43651H23.7875V15.4108H31.4298V8.43651ZM40.4595 8.43651H32.8172V15.4108H40.4595V8.43651ZM72.4623 20.0411C70.7974 18.9154 66.9589 18.5093 64.0107 19.0663C63.6291 16.2812 62.0799 13.8558 59.2588 11.6742L57.6402 10.595L56.5649 12.2196C54.4376 15.4457 53.8595 20.7605 56.1372 24.2651C55.1313 24.8105 53.1542 25.5532 50.5413 25.5068H0.282521C-0.723348 31.4019 0.9531 39.0609 5.36967 44.3178C9.65907 49.4122 16.0874 52 24.4927 52C42.6909 52 56.1603 43.5867 62.4614 28.3035C64.9356 28.3499 70.2771 28.3151 73.0173 23.0582C73.1907 22.7681 73.7803 21.5264 74 21.0739L72.4623 20.0411ZM13.3704 16.8034H5.73965V23.6965H13.3819V16.8034H13.3704ZM22.4001 16.8034H14.7578V23.6965H22.4001V16.8034ZM31.4298 16.8034H23.7875V23.6965H31.4298V16.8034ZM22.4001 8.43651H14.7578V15.4108H22.4001V8.43651Z" fill="#6876E2"/>
</svg>
