<svg width="32" height="32" viewBox="0 0 32 32" fill="none" xmlns="http://www.w3.org/2000/svg">
<path d="M16 0C7.175 0 0 7.175 0 16C0 24.825 7.175 32 16 32C24.825 32 32 24.825 32 16C32 7.175 24.825 0 16 0Z" fill="#1B2331"/>
<path d="M15.9999 18.1346L14.0644 16.4404L8.53056 21.1842C8.73171 21.3708 9.00326 21.487 9.30275 21.487H22.697C22.9954 21.487 23.2658 21.3708 23.4659 21.1842L17.9354 16.4404L15.9999 18.1346Z" fill="white"/>
<path d="M23.4695 10.6144C23.2683 10.4266 22.9979 10.3115 22.6973 10.3115H9.30299C9.00462 10.3115 8.73418 10.4277 8.53304 10.6166L16.0001 17.0165L23.4695 10.6144Z" fill="white"/>
<path d="M8.17754 11.292V20.5761L13.5784 15.9866L8.17754 11.292Z" fill="white"/>
<path d="M18.4216 15.987L23.8224 20.5766V11.2891L18.4216 15.987Z" fill="white"/>
</svg>
