<svg width="70" height="70" viewBox="0 0 70 70" fill="none" xmlns="http://www.w3.org/2000/svg">
<rect y="22" width="70" height="48" rx="10" fill="#2BAE91"/>
<rect width="70" height="57" rx="10" fill="#0F0F18"/>
<path d="M17.98 29.0725H25.942C27.1528 29.0725 28.174 28.686 29.0057 27.913C29.8496 27.1401 30.2715 26.0411 30.2715 24.6159C30.2715 23.5652 29.8312 22.6232 28.9506 21.7899C28.07 20.9444 27.0672 20.5217 25.942 20.5217H14.6044V44H13.2835V19.2174H25.942C27.4341 19.2174 28.7488 19.7669 29.8863 20.8659C31.0237 21.9529 31.5924 23.2029 31.5924 24.6159C31.5924 26.3551 31.042 27.75 29.9413 28.8007C28.8406 29.8514 27.5075 30.3768 25.942 30.3768H17.98V29.0725ZM17.98 31.6812H25.942C27.8499 31.6812 29.4888 31.0229 30.8586 29.7065C32.2284 28.378 32.9133 26.6812 32.9133 24.6159C32.9133 22.8406 32.21 21.2826 30.8035 19.942C29.4093 18.5894 27.7887 17.913 25.942 17.913H11.9626V44H10.6418V16.6087H25.942C27.3974 16.6087 28.7611 16.9771 30.033 17.7138C31.3172 18.4505 32.3384 19.4408 33.0967 20.6848C33.855 21.9167 34.2342 23.2271 34.2342 24.6159C34.2342 26.9952 33.4147 28.9879 31.7759 30.5942C30.1492 32.1884 28.2046 32.9855 25.942 32.9855H17.98V31.6812ZM17.98 34.2899H25.942C27.6542 34.2899 29.2442 33.8732 30.7118 33.0399C32.1795 32.2065 33.3536 31.0471 34.2342 29.5616C35.1147 28.064 35.555 26.4155 35.555 24.6159C35.555 22.9855 35.1147 21.4577 34.2342 20.0326C33.3658 18.5954 32.1917 17.4481 30.7118 16.5906C29.2319 15.7331 27.642 15.3043 25.942 15.3043H9.32088V44H8V14H25.942C27.8621 14 29.6661 14.4891 31.3539 15.4674C33.0417 16.4336 34.3809 17.7379 35.3716 19.3804C36.3745 21.0109 36.8759 22.756 36.8759 24.6159C36.8759 26.7657 36.405 28.6558 35.4633 30.2862C34.5338 31.9167 33.268 33.1908 31.6658 34.1087L35.0781 44H33.6838L30.4183 34.7246C29.9291 34.9179 29.556 35.0507 29.2992 35.1232L32.3629 44H30.9686L27.9783 35.4312C27.8682 35.4553 27.4769 35.4976 26.8042 35.558L29.6478 44H28.2535L25.4466 35.5942H24.2542L26.9326 44H25.5384L22.8416 35.5942H17.98V34.2899ZM17.2462 44H15.9253V21.8261H25.942C26.7614 21.8261 27.4646 22.1039 28.0517 22.6594C28.651 23.2029 28.9506 23.8551 28.9506 24.6159C28.9506 26.7174 27.9477 27.7681 25.942 27.7681H17.98V26.4638H25.942C26.4679 26.4638 26.8776 26.3309 27.1711 26.0652C27.4769 25.7874 27.6298 25.3043 27.6298 24.6159C27.6298 24.1932 27.4646 23.843 27.1344 23.5652C26.8164 23.2754 26.4189 23.1304 25.942 23.1304H17.2462V44Z" fill="#5BFFDA"/>
<path d="M46.3055 44H44.9847V14H46.3055V44ZM43.6638 44H42.3429V14H43.6638V44ZM41.022 44H39.7011V14H41.022V44ZM48.9473 37.4783H63V38.7826H48.9473V40.087H63V41.3913H48.9473V42.6957H63V44H47.6264V14H63V15.3043H48.9473V16.6087H63V17.913H48.9473V19.2174H63V20.5217H48.9473V25.7391H56.1571V27.0435H48.9473V28.3478H56.1571V29.6522H48.9473V30.9565H56.1571V32.2609H48.9473V37.4783Z" fill="#5BFFDA"/>
<path d="M18.8057 59.1343H21.9531C22.5762 59.1343 23.0399 59.1611 23.3442 59.2148C23.6522 59.265 23.9261 59.3724 24.166 59.5371C24.4095 59.7018 24.6118 59.922 24.7729 60.1978C24.9341 60.4699 25.0146 60.776 25.0146 61.1162C25.0146 61.485 24.9144 61.8234 24.7139 62.1313C24.5169 62.4393 24.2484 62.6702 23.9082 62.8242C24.388 62.9639 24.7568 63.202 25.0146 63.5386C25.2725 63.8752 25.4014 64.2708 25.4014 64.7256C25.4014 65.0837 25.3172 65.4328 25.1489 65.7729C24.9842 66.1095 24.7568 66.3799 24.4668 66.584C24.1803 66.7845 23.8258 66.908 23.4033 66.9546C23.1383 66.9832 22.4992 67.0011 21.4858 67.0083H18.8057V59.1343ZM20.3955 60.4448V62.2656H21.4375C22.057 62.2656 22.4419 62.2567 22.5923 62.2388C22.8644 62.2065 23.0775 62.1134 23.2314 61.9595C23.389 61.8019 23.4678 61.596 23.4678 61.3418C23.4678 61.0983 23.3997 60.9014 23.2637 60.751C23.1312 60.597 22.9325 60.5039 22.6675 60.4717C22.5099 60.4538 22.057 60.4448 21.3086 60.4448H20.3955ZM20.3955 63.5762V65.6816H21.8672C22.4401 65.6816 22.8035 65.6655 22.9575 65.6333C23.1938 65.5903 23.3854 65.4865 23.5322 65.3218C23.6826 65.1535 23.7578 64.9297 23.7578 64.6504C23.7578 64.4141 23.7005 64.2135 23.5859 64.0488C23.4714 63.8841 23.3049 63.7642 23.0864 63.689C22.8716 63.6138 22.4025 63.5762 21.6792 63.5762H20.3955Z" fill="white"/>
<path d="M27.7925 67.0083V59.1987H29.3823V65.6816H33.3354V67.0083H27.7925Z" fill="white"/>
<path d="M35.1519 63.1196C35.1519 62.3175 35.2718 61.6444 35.5117 61.1001C35.6908 60.6991 35.9342 60.3392 36.2422 60.0205C36.5537 59.7018 36.8939 59.4655 37.2627 59.3115C37.7533 59.1038 38.319 59 38.96 59C40.1201 59 41.0475 59.3599 41.7422 60.0796C42.4404 60.7993 42.7896 61.8001 42.7896 63.082C42.7896 64.3532 42.444 65.3486 41.7529 66.0684C41.0618 66.7845 40.138 67.1426 38.9814 67.1426C37.8105 67.1426 36.8796 66.7863 36.1885 66.0737C35.4974 65.3576 35.1519 64.3729 35.1519 63.1196ZM36.79 63.0659C36.79 63.9575 36.9959 64.6343 37.4077 65.0962C37.8195 65.5545 38.3423 65.7837 38.9761 65.7837C39.6099 65.7837 40.1291 65.5563 40.5337 65.1016C40.9419 64.6432 41.146 63.9575 41.146 63.0444C41.146 62.1421 40.9473 61.4689 40.5498 61.0249C40.1559 60.5809 39.6313 60.3589 38.9761 60.3589C38.3208 60.3589 37.7926 60.5845 37.3916 61.0356C36.9906 61.4832 36.79 62.16 36.79 63.0659Z" fill="white"/>
<path d="M48.6987 64.1133V62.7866H52.1255V65.9233C51.7925 66.2456 51.3091 66.5303 50.6753 66.7773C50.0451 67.0208 49.4059 67.1426 48.7578 67.1426C47.9342 67.1426 47.2163 66.9707 46.604 66.627C45.9917 66.2796 45.5316 65.7855 45.2236 65.1445C44.9157 64.5 44.7617 63.8 44.7617 63.0444C44.7617 62.2244 44.9336 61.4958 45.2773 60.8584C45.6211 60.221 46.1242 59.7323 46.7866 59.3921C47.2915 59.1307 47.9199 59 48.6719 59C49.6494 59 50.4121 59.2059 50.96 59.6177C51.5114 60.0259 51.8659 60.5916 52.0234 61.3149L50.4443 61.6104C50.3333 61.2236 50.1239 60.9193 49.8159 60.6973C49.5116 60.4717 49.1302 60.3589 48.6719 60.3589C47.9772 60.3589 47.424 60.5791 47.0122 61.0195C46.604 61.46 46.3999 62.1134 46.3999 62.98C46.3999 63.9146 46.6076 64.6164 47.0229 65.0854C47.4383 65.5509 47.9826 65.7837 48.6558 65.7837C48.9888 65.7837 49.3218 65.7192 49.6548 65.5903C49.9914 65.4578 50.2796 65.2985 50.5195 65.1123V64.1133H48.6987Z" fill="white"/>
</svg>
