<svg width="276" height="42" viewBox="0 0 276 42" fill="none" xmlns="http://www.w3.org/2000/svg">
<path d="M13.5975 21.2558H24.4456C26.0953 21.2558 27.4867 20.7241 28.6198 19.6607C29.7696 18.5973 30.3445 17.0853 30.3445 15.1247C30.3445 13.6792 29.7446 12.3832 28.5448 11.2367C27.345 10.0737 25.9786 9.49212 24.4456 9.49212H8.99837V41.7924H7.1987V7.69767H24.4456C26.4785 7.69767 28.2699 8.45366 29.8196 9.96566C31.3693 11.461 32.1442 13.1807 32.1442 15.1247C32.1442 17.5173 31.3943 19.4364 29.8946 20.8819C28.3949 22.3275 26.5785 23.0502 24.4456 23.0502H13.5975V21.2558ZM13.5975 24.8447H24.4456C27.0451 24.8447 29.278 23.9392 31.1444 22.1281C33.0107 20.3004 33.9439 17.966 33.9439 15.1247C33.9439 12.6823 32.9857 10.5389 31.0694 8.69459C29.1697 6.83367 26.9618 5.90321 24.4456 5.90321H5.39902V41.7924H3.59935V4.10875H24.4456C26.4285 4.10875 28.2865 4.61552 30.0196 5.62906C31.7692 6.64259 33.1607 8.00505 34.1938 9.71643C35.227 11.4112 35.7435 13.214 35.7435 15.1247C35.7435 18.3979 34.6271 21.1395 32.3941 23.3493C30.1779 25.5425 27.5283 26.6392 24.4456 26.6392H13.5975V24.8447ZM13.5975 28.4336H24.4456C26.7785 28.4336 28.9448 27.8604 30.9444 26.7139C32.944 25.5675 34.5437 23.9724 35.7435 21.9287C36.9433 19.8684 37.5432 17.6004 37.5432 15.1247C37.5432 12.8817 36.9433 10.7798 35.7435 8.8192C34.5604 6.84198 32.9607 5.26352 30.9444 4.08383C28.9281 2.90414 26.7618 2.31429 24.4456 2.31429H1.79967V41.7924H0V0.519836H24.4456C27.0618 0.519836 29.5197 1.19276 31.8192 2.5386C34.1188 3.86783 35.9435 5.66229 37.2932 7.92197C38.6597 10.165 39.3429 12.566 39.3429 15.1247C39.3429 18.0823 38.7013 20.6826 37.4182 22.9256C36.1518 25.1687 34.4271 26.9216 32.2442 28.1844L36.8933 41.7924H34.9937L30.5445 29.0318C29.8779 29.2976 29.3697 29.4804 29.0197 29.5801L33.194 41.7924H31.2943L27.2201 30.0038C27.0701 30.037 26.5369 30.0952 25.6204 30.1782L29.4947 41.7924H27.595L23.7707 30.2281H22.146L25.7953 41.7924H23.8957L20.2213 30.2281H13.5975V28.4336ZM12.5977 41.7924H10.798V11.2866H24.4456C25.562 11.2866 26.5202 11.6687 27.3201 12.433C28.1366 13.1807 28.5448 14.078 28.5448 15.1247C28.5448 18.0158 27.1784 19.4613 24.4456 19.4613H13.5975V17.6669H24.4456C25.1621 17.6669 25.7203 17.4841 26.1203 17.1186C26.5369 16.7364 26.7452 16.0718 26.7452 15.1247C26.7452 14.5432 26.5202 14.0613 26.0703 13.6792C25.637 13.2804 25.0955 13.081 24.4456 13.081H12.5977V41.7924Z" fill="#5BFFDA"/>
<path d="M52.1905 41.7924H50.3909V0.519836H52.1905V41.7924ZM48.5912 41.7924H46.7915V0.519836H48.5912V41.7924ZM44.9919 41.7924H43.1922V0.519836H44.9919V41.7924ZM55.7899 32.8201H74.9364V34.6145H55.7899V36.409H74.9364V38.2034H55.7899V39.9979H74.9364V41.7924H53.9902V0.519836H74.9364V2.31429H55.7899V4.10875H74.9364V5.90321H55.7899V7.69767H74.9364V9.49212H55.7899V16.67H65.6131V18.4644H55.7899V20.2589H65.6131V22.0533H55.7899V23.8478H65.6131V25.6422H55.7899V32.8201Z" fill="#5BFFDA"/>
<path d="M110.68 27.4118C110.68 26.7638 110.48 26.3318 110.08 26.1158C109.696 25.8998 109.13 25.7918 108.38 25.7918H96.7821V23.9974H108.38C111.113 23.9974 112.479 25.1355 112.479 27.4118C112.479 28.6912 112.104 29.6134 111.354 30.1783C110.605 30.7432 109.613 31.0257 108.38 31.0257H96.7821V29.2312H108.38C109.913 29.2312 110.68 28.6248 110.68 27.4118ZM95.7823 41.7924H93.9826V11.2866H108.38C109.513 11.2866 110.48 11.6356 111.279 12.3334C112.079 13.0146 112.479 13.8703 112.479 14.9005C112.479 16.2629 112.104 17.2516 111.354 17.8663C110.605 18.4645 109.613 18.7636 108.38 18.7636H96.7821V16.9691H108.38C109.913 16.9691 110.68 16.2796 110.68 14.9005C110.68 14.3356 110.463 13.8953 110.03 13.5796C109.596 13.2473 109.047 13.0811 108.38 13.0811H95.7823V41.7924ZM96.7821 20.558H108.38C110.03 20.558 111.421 20.0679 112.554 19.0875C113.704 18.0906 114.279 16.6949 114.279 14.9005C114.279 13.4549 113.679 12.1922 112.479 11.1122C111.296 10.0322 109.93 9.49219 108.38 9.49219H92.1829V41.7924H90.3833V7.69773H108.38C110.43 7.69773 112.221 8.4205 113.754 9.86603C115.304 11.295 116.079 12.9731 116.079 14.9005C116.079 16.4125 115.72 17.7334 115.004 18.8632C114.304 19.9931 113.354 20.8654 112.154 21.4802C114.771 22.4106 116.079 24.3048 116.079 27.1626C116.079 29.4223 115.329 31.2334 113.829 32.5958C112.329 33.9417 110.513 34.6146 108.38 34.6146H96.7821V32.8201H108.38C110.03 32.8201 111.421 32.33 112.554 31.3497C113.704 30.3528 114.279 28.9571 114.279 27.1626C114.279 25.9497 113.846 24.878 112.979 23.9475C112.113 23.0171 110.838 22.4771 109.155 22.3275C108.988 22.3442 108.73 22.3525 108.38 22.3525H96.7821V20.558ZM119.678 14.9005C119.678 17.2266 118.853 19.3285 117.203 21.206C118.853 23.0337 119.678 25.0192 119.678 27.1626C119.678 29.2395 119.153 31.1337 118.103 32.8451C117.07 34.5398 115.687 35.8607 113.954 36.8078C112.238 37.7383 110.38 38.2035 108.38 38.2035H96.7821V36.4091H108.38C110.98 36.4091 113.212 35.5451 115.079 33.8171C116.945 32.0724 117.878 29.8543 117.878 27.1626C117.878 26.1989 117.628 25.1355 117.128 23.9725C116.645 22.7928 115.97 21.8955 115.104 21.2808C116.953 19.5528 117.878 17.426 117.878 14.9005C117.878 12.4746 116.928 10.3728 115.029 8.59496C113.129 6.8005 110.913 5.90327 108.38 5.90327H88.5836V41.7924H86.7839V4.10881H108.38C110.363 4.10881 112.221 4.59897 113.954 5.57927C115.704 6.54296 117.095 7.86388 118.128 9.54203C119.161 11.2036 119.678 12.9897 119.678 14.9005ZM119.253 21.3057C120.736 19.3285 121.478 17.1934 121.478 14.9005C121.478 12.6574 120.878 10.5722 119.678 8.6448C118.495 6.70081 116.895 5.16389 114.879 4.03404C112.863 2.88758 110.696 2.31436 108.38 2.31436H84.9842V41.7924H83.1846V0.519897H108.38C111.013 0.519897 113.471 1.1679 115.754 2.46389C118.053 3.75989 119.878 5.52112 121.228 7.74757C122.594 9.95742 123.277 12.3417 123.277 14.9005C123.277 17.3429 122.586 19.4863 121.203 21.3306C122.586 23.2414 123.277 25.1854 123.277 27.1626C123.277 29.3891 122.877 31.4328 122.078 33.2937C121.278 35.138 120.195 36.6749 118.828 37.9044C117.478 39.134 115.904 40.0894 114.104 40.7706C112.304 41.4518 110.396 41.7924 108.38 41.7924H96.7821V39.998H108.38C110.13 39.998 111.804 39.674 113.404 39.026C115.004 38.3614 116.395 37.4641 117.578 36.3343C118.761 35.2044 119.703 33.842 120.403 32.2469C121.119 30.6518 121.478 28.9571 121.478 27.1626C121.478 26.3651 121.286 25.4097 120.903 24.2965C120.536 23.1666 119.986 22.1697 119.253 21.3057Z" fill="white"/>
<path d="M140.924 21.2559H151.772C153.422 21.2559 154.813 20.7242 155.946 19.6608C157.096 18.5974 157.671 17.0854 157.671 15.1248C157.671 13.6793 157.071 12.3833 155.871 11.2368C154.672 10.0737 153.305 9.49219 151.772 9.49219H136.325V41.7924H134.525V7.69773H151.772C153.805 7.69773 155.596 8.45373 157.146 9.96572C158.696 11.4611 159.471 13.1808 159.471 15.1248C159.471 17.5174 158.721 19.4365 157.221 20.882C155.721 22.3275 153.905 23.0503 151.772 23.0503H140.924V21.2559ZM140.924 24.8448H151.772C154.372 24.8448 156.605 23.9392 158.471 22.1282C160.337 20.3005 161.27 17.966 161.27 15.1248C161.27 12.6823 160.312 10.539 158.396 8.69465C156.496 6.83373 154.288 5.90327 151.772 5.90327H132.726V41.7924H130.926V4.10881H151.772C153.755 4.10881 155.613 4.61558 157.346 5.62912C159.096 6.64265 160.487 8.00511 161.52 9.71649C162.554 11.4113 163.07 13.214 163.07 15.1248C163.07 18.398 161.954 21.1395 159.721 23.3494C157.504 25.5426 154.855 26.6392 151.772 26.6392H140.924V24.8448ZM140.924 28.4337H151.772C154.105 28.4337 156.271 27.8605 158.271 26.714C160.271 25.5675 161.87 23.9725 163.07 21.9288C164.27 19.8685 164.87 17.6005 164.87 15.1248C164.87 12.8817 164.27 10.7799 163.07 8.81926C161.887 6.84204 160.287 5.26358 158.271 4.08389C156.255 2.9042 154.088 2.31436 151.772 2.31436H129.126V41.7924H127.327V0.519897H151.772C154.388 0.519897 156.846 1.19282 159.146 2.53866C161.445 3.86789 163.27 5.66235 164.62 7.92204C165.986 10.1651 166.669 12.566 166.669 15.1248C166.669 18.0823 166.028 20.6826 164.745 22.9257C163.478 25.1688 161.754 26.9217 159.571 28.1845L164.22 41.7924H162.32L157.871 29.0318C157.204 29.2977 156.696 29.4805 156.346 29.5801L160.521 41.7924H158.621L154.547 30.0038C154.397 30.0371 153.863 30.0952 152.947 30.1783L156.821 41.7924H154.922L151.097 30.2281H149.473L153.122 41.7924H151.222L147.548 30.2281H140.924V28.4337ZM139.924 41.7924H138.125V11.2866H151.772C152.889 11.2866 153.847 11.6688 154.647 12.4331C155.463 13.1808 155.871 14.078 155.871 15.1248C155.871 18.0159 154.505 19.4614 151.772 19.4614H140.924V17.6669H151.772C152.489 17.6669 153.047 17.4842 153.447 17.1186C153.863 16.7365 154.072 16.0719 154.072 15.1248C154.072 14.5433 153.847 14.0614 153.397 13.6793C152.964 13.2805 152.422 13.0811 151.772 13.0811H139.924V41.7924Z" fill="white"/>
<path d="M188.391 29.6798L189.115 27.8854H195.264L195.989 29.6798H188.391ZM186.991 33.2687L187.691 31.4743H196.664L197.439 33.2687H186.991ZM185.591 36.8577L186.291 35.0632H198.089L198.839 36.8577H185.591ZM170.969 41.7924H169.019L185.391 0.519897H187.341L203.688 41.7924H201.763L186.366 2.93743L170.969 41.7924ZM186.591 7.19927L187.616 9.49219L174.818 41.7924H172.893L186.591 7.19927ZM188.59 11.9346L189.54 14.402L178.717 41.7924H176.768L188.59 11.9346ZM190.49 16.8694L191.44 19.3866L182.567 41.7924H180.642L190.49 16.8694ZM215.311 41.7924H213.361L197.014 0.519897H198.939L215.311 41.7924ZM195.064 0.519897L211.436 41.7924H209.512L193.14 0.519897H195.064ZM191.19 0.519897L207.562 41.7924H205.612L189.265 0.519897H191.19Z" fill="white"/>
<path d="M229.258 0.519897H231.058V41.7924H229.258V0.519897ZM225.659 0.519897H227.458V41.7924H225.659V0.519897ZM222.059 0.519897H223.859V41.7924H222.059V0.519897ZM218.46 0.519897H220.26V41.7924H218.46V0.519897Z" fill="white"/>
<path d="M265.202 21.9288L263.402 18.9629V0.519897H265.202V21.9288ZM268.801 27.8106L267.001 24.7949V0.519897H268.801V27.8106ZM272.4 33.7672L270.601 30.7266V0.519897H272.4V33.7672ZM246.605 20.3835L248.405 23.3494V41.7924H246.605V20.3835ZM243.006 14.5017L244.805 17.5174V41.7924H243.006V14.5017ZM239.406 8.54511L241.206 11.5857V41.7924H239.406V8.54511ZM240.031 0.519897H242.131L267.576 41.7924H265.477L240.031 0.519897ZM244.28 0.519897H246.405L271.825 41.7924H269.676L244.28 0.519897ZM248.505 0.519897H250.604L274.2 38.8764V0.519897H276V41.7924C276 41.7924 275.291 41.7924 273.875 41.7924L248.505 0.519897ZM237.607 3.43589V41.7924H235.807V0.519897C235.807 0.519897 236.523 0.519897 237.957 0.519897L263.327 41.7924H261.252L237.607 3.43589Z" fill="white"/>
</svg>
