<svg width="172" height="26" viewBox="0 0 172 26" fill="none" xmlns="http://www.w3.org/2000/svg">
<path d="M8.47383 13.1597H15.2342C16.2623 13.1597 17.1294 12.8274 17.8355 12.1628C18.5521 11.4981 18.9103 10.5531 18.9103 9.32776C18.9103 8.4243 18.5365 7.6143 17.7888 6.89777C17.0411 6.17085 16.1896 5.80739 15.2342 5.80739H5.60768V25.995H4.48614V4.68585H15.2342C16.5011 4.68585 17.6175 5.15835 18.5832 6.10335C19.549 7.03796 20.0319 8.11277 20.0319 9.32776C20.0319 10.8231 19.5646 12.0226 18.63 12.926C17.6953 13.8295 16.5634 14.2812 15.2342 14.2812H8.47383V13.1597ZM8.47383 15.4027H15.2342C16.8542 15.4027 18.2457 14.8368 19.4088 13.7049C20.5719 12.5626 21.1534 11.1035 21.1534 9.32776C21.1534 7.80123 20.5563 6.46162 19.3621 5.30893C18.1782 4.14585 16.8023 3.56431 15.2342 3.56431H3.36461V25.995H2.24307V2.44278H15.2342C16.47 2.44278 17.6278 2.75951 18.7078 3.39297C19.7982 4.02643 20.6653 4.87797 21.3092 5.94758C21.953 7.00681 22.275 8.13353 22.275 9.32776C22.275 11.3735 21.5792 13.087 20.1876 14.4681C18.8065 15.8389 17.1553 16.5243 15.2342 16.5243H8.47383V15.4027ZM8.47383 17.6458H15.2342C16.688 17.6458 18.038 17.2876 19.2842 16.571C20.5303 15.8545 21.5273 14.8576 22.275 13.5803C23.0226 12.2926 23.3965 10.8751 23.3965 9.32776C23.3965 7.92584 23.0226 6.61219 22.275 5.38681C21.5376 4.15104 20.5407 3.16451 19.2842 2.4272C18.0277 1.6899 16.6777 1.32124 15.2342 1.32124H1.12154V25.995H0V0.199707H15.2342C16.8646 0.199707 18.3963 0.620283 19.8294 1.46143C21.2625 2.2922 22.3996 3.41374 23.2407 4.82604C24.0923 6.22796 24.518 7.72854 24.518 9.32776C24.518 11.1762 24.1182 12.8014 23.3186 14.2033C22.5294 15.6052 21.4546 16.7008 20.0942 17.4901L22.9915 25.995H21.8076L19.035 18.0197C18.6196 18.1858 18.3028 18.3 18.0848 18.3624L20.6861 25.995H19.5023L16.9632 18.6272C16.8698 18.6479 16.5375 18.6843 15.9663 18.7362L18.3807 25.995H17.1969L14.8136 18.7674H13.8011L16.0753 25.995H14.8915L12.6017 18.7674H8.47383V17.6458ZM7.85075 25.995H6.72922V6.92892H15.2342C15.93 6.92892 16.5271 7.16777 17.0255 7.64546C17.5344 8.11277 17.7888 8.67353 17.7888 9.32776C17.7888 11.1347 16.9373 12.0381 15.2342 12.0381H8.47383V10.9166H15.2342C15.6807 10.9166 16.0286 10.8024 16.2778 10.5739C16.5375 10.3351 16.6673 9.91968 16.6673 9.32776C16.6673 8.9643 16.5271 8.66315 16.2467 8.4243C15.9767 8.17507 15.6392 8.05046 15.2342 8.05046H7.85075V25.995Z" fill="#5BFFDA"/>
<path d="M32.5245 25.995H31.403V0.199707H32.5245V25.995ZM30.2815 25.995H29.1599V0.199707H30.2815V25.995ZM28.0384 25.995H26.9169V0.199707H28.0384V25.995ZM34.7676 20.3874H46.6995V21.5089H34.7676V22.6304H46.6995V23.752H34.7676V24.8735H46.6995V25.995H33.6461V0.199707H46.6995V1.32124H34.7676V2.44278H46.6995V3.56431H34.7676V4.68585H46.6995V5.80739H34.7676V10.2935H40.8893V11.4151H34.7676V12.5366H40.8893V13.6581H34.7676V14.7797H40.8893V15.9012H34.7676V20.3874Z" fill="#5BFFDA"/>
<path d="M68.9745 17.0072C68.9745 16.6022 68.8498 16.3322 68.6006 16.1972C68.3618 16.0622 68.0087 15.9947 67.5414 15.9947H60.3137V14.8731H67.5414C69.2445 14.8731 70.096 15.5845 70.096 17.0072C70.096 17.8068 69.8623 18.3831 69.395 18.7362C68.9277 19.0893 68.3098 19.2658 67.5414 19.2658H60.3137V18.1443H67.5414C68.4968 18.1443 68.9745 17.7652 68.9745 17.0072ZM59.6906 25.995H58.5691V6.92892H67.5414C68.2475 6.92892 68.8498 7.147 69.3483 7.58315C69.8468 8.00892 70.096 8.54373 70.096 9.18757C70.096 10.0391 69.8623 10.657 69.395 11.0412C68.9277 11.4151 68.3098 11.602 67.5414 11.602H60.3137V10.4805H67.5414C68.4968 10.4805 68.9745 10.0495 68.9745 9.18757C68.9745 8.8345 68.8395 8.5593 68.5695 8.362C68.2995 8.15431 67.9568 8.05046 67.5414 8.05046H59.6906V25.995ZM60.3137 12.7235H67.5414C68.5695 12.7235 69.4366 12.4172 70.1427 11.8045C70.8593 11.1814 71.2175 10.3091 71.2175 9.18757C71.2175 8.28411 70.8437 7.49488 70.096 6.81989C69.3587 6.14489 68.5071 5.80739 67.5414 5.80739H57.4476V25.995H56.326V4.68585H67.5414C68.8187 4.68585 69.935 5.13758 70.8904 6.04104C71.8562 6.93412 72.3391 7.98296 72.3391 9.18757C72.3391 10.1326 72.1158 10.9581 71.6693 11.6643C71.2331 12.3705 70.6412 12.9156 69.8935 13.2999C71.5239 13.8814 72.3391 15.0653 72.3391 16.8514C72.3391 18.2637 71.8718 19.3956 70.9371 20.2472C70.0025 21.0883 68.8706 21.5089 67.5414 21.5089H60.3137V20.3874H67.5414C68.5695 20.3874 69.4366 20.081 70.1427 19.4683C70.8593 18.8452 71.2175 17.9729 71.2175 16.8514C71.2175 16.0933 70.9475 15.4235 70.4075 14.842C69.8675 14.2604 69.0731 13.9229 68.0243 13.8295C67.9204 13.8399 67.7595 13.8451 67.5414 13.8451H60.3137V12.7235ZM74.5821 9.18757C74.5821 10.6414 74.0681 11.9551 73.04 13.1285C74.0681 14.2708 74.5821 15.5118 74.5821 16.8514C74.5821 18.1495 74.255 19.3333 73.6008 20.4029C72.9569 21.4622 72.095 22.2877 71.015 22.8797C69.9454 23.4612 68.7875 23.752 67.5414 23.752H60.3137V22.6304H67.5414C69.1614 22.6304 70.5529 22.0904 71.716 21.0104C72.8791 19.9201 73.4606 18.5337 73.4606 16.8514C73.4606 16.2491 73.3048 15.5845 72.9933 14.8576C72.6921 14.1203 72.2716 13.5595 71.7316 13.1753C72.8843 12.0953 73.4606 10.766 73.4606 9.18757C73.4606 7.67142 72.8687 6.35777 71.6848 5.24662C70.501 4.12508 69.1198 3.56432 67.5414 3.56432H55.2045V25.995H54.083V2.44278H67.5414C68.7772 2.44278 69.935 2.74912 71.015 3.36182C72.1054 3.96412 72.9725 4.7897 73.6164 5.83854C74.2602 6.877 74.5821 7.99334 74.5821 9.18757ZM74.3173 13.1908C75.2416 11.9551 75.7037 10.6206 75.7037 9.18757C75.7037 7.78565 75.3298 6.48239 74.5821 5.27777C73.8448 4.06278 72.8479 3.1022 71.5914 2.39605C70.3348 1.67951 68.9848 1.32124 67.5414 1.32124H52.9614V25.995H51.8399V0.199707H67.5414C69.1821 0.199707 70.7139 0.604706 72.1366 1.4147C73.5696 2.2247 74.7068 3.32547 75.5479 4.71701C76.3994 6.09816 76.8252 7.58835 76.8252 9.18757C76.8252 10.7141 76.3942 12.0537 75.5323 13.2064C76.3942 14.4006 76.8252 15.6156 76.8252 16.8514C76.8252 18.2429 76.576 19.5202 76.0775 20.6833C75.5791 21.836 74.9041 22.7966 74.0525 23.565C73.2114 24.3335 72.23 24.9306 71.1085 25.3564C69.987 25.7822 68.7979 25.995 67.5414 25.995H60.3137V24.8735H67.5414C68.6318 24.8735 69.6754 24.671 70.6723 24.266C71.6693 23.8506 72.5364 23.2899 73.2737 22.5837C74.011 21.8775 74.5977 21.026 75.0339 20.0291C75.4804 19.0322 75.7037 17.9729 75.7037 16.8514C75.7037 16.3529 75.5842 15.7558 75.3454 15.0601C75.1169 14.3539 74.7743 13.7308 74.3173 13.1908Z" fill="white"/>
<path d="M87.8225 13.1597H94.5829C95.6109 13.1597 96.4781 12.8274 97.1842 12.1628C97.9007 11.4981 98.259 10.5531 98.259 9.32776C98.259 8.42431 97.8852 7.61431 97.1375 6.89777C96.3898 6.17085 95.5382 5.80739 94.5829 5.80739H84.9563V25.995H83.8348V4.68585H94.5829C95.8498 4.68585 96.9661 5.15835 97.9319 6.10335C98.8977 7.03796 99.3805 8.11277 99.3805 9.32776C99.3805 10.8231 98.9132 12.0226 97.9786 12.926C97.044 13.8295 95.9121 14.2812 94.5829 14.2812H87.8225V13.1597ZM87.8225 15.4028H94.5829C96.2029 15.4028 97.5944 14.8368 98.7575 13.7049C99.9205 12.5626 100.502 11.1035 100.502 9.32776C100.502 7.80123 99.905 6.46162 98.7107 5.30893C97.5269 4.14585 96.1509 3.56432 94.5829 3.56432H82.7133V25.995H81.5917V2.44278H94.5829C95.8186 2.44278 96.9765 2.75951 98.0565 3.39297C99.1469 4.02643 100.014 4.87797 100.658 5.94758C101.302 7.00681 101.624 8.13354 101.624 9.32776C101.624 11.3735 100.928 13.087 99.5363 14.4681C98.1552 15.8389 96.504 16.5243 94.5829 16.5243H87.8225V15.4028ZM87.8225 17.6458H94.5829C96.0367 17.6458 97.3867 17.2876 98.6329 16.571C99.879 15.8545 100.876 14.8576 101.624 13.5803C102.371 12.2926 102.745 10.8751 102.745 9.32776C102.745 7.92584 102.371 6.61219 101.624 5.38681C100.886 4.15104 99.8894 3.16451 98.6329 2.4272C97.3763 1.6899 96.0263 1.32124 94.5829 1.32124H80.4702V25.995H79.3487V0.199707H94.5829C96.2132 0.199707 97.745 0.620283 99.178 1.46144C100.611 2.2922 101.748 3.41374 102.589 4.82604C103.441 6.22796 103.867 7.72854 103.867 9.32776C103.867 11.1762 103.467 12.8014 102.667 14.2033C101.878 15.6053 100.803 16.7008 99.4429 17.4901L102.34 25.995H101.156L98.3836 18.0197C97.9682 18.1858 97.6515 18.3001 97.4334 18.3624L100.035 25.995H98.8509L96.3119 18.6272C96.2184 18.6479 95.8861 18.6843 95.315 18.7362L97.7294 25.995H96.5456L94.1623 18.7674H93.1498L95.424 25.995H94.2402L91.9504 18.7674H87.8225V17.6458ZM87.1994 25.995H86.0779V6.92892H94.5829C95.2786 6.92892 95.8757 7.16777 96.3742 7.64546C96.8831 8.11277 97.1375 8.67354 97.1375 9.32776C97.1375 11.1347 96.2859 12.0381 94.5829 12.0381H87.8225V10.9166H94.5829C95.0294 10.9166 95.3773 10.8024 95.6265 10.5739C95.8861 10.3351 96.0159 9.91969 96.0159 9.32776C96.0159 8.9643 95.8757 8.66315 95.5954 8.42431C95.3254 8.17508 94.9879 8.05046 94.5829 8.05046H87.1994V25.995Z" fill="white"/>
<path d="M117.403 18.4247L117.855 17.3031H121.687L122.138 18.4247H117.403ZM116.531 20.6677L116.967 19.5462H122.559L123.042 20.6677H116.531ZM115.658 22.9108L116.095 21.7893H123.447L123.914 22.9108H115.658ZM106.546 25.995H105.331L115.534 0.199707H116.749L126.936 25.995H125.737L116.141 1.71067L106.546 25.995ZM116.281 4.37431L116.92 5.80739L108.945 25.995H107.745L116.281 4.37431ZM117.528 7.33392L118.12 8.87604L111.375 25.995H110.16L117.528 7.33392ZM118.711 10.4181L119.303 11.9914L113.774 25.995H112.574L118.711 10.4181ZM134.179 25.995H132.964L122.777 0.199707H123.976L134.179 25.995ZM121.562 0.199707L131.765 25.995H130.565L120.363 0.199707H121.562ZM119.148 0.199707L129.35 25.995H128.135L117.948 0.199707H119.148Z" fill="white"/>
<path d="M142.871 0.199707H143.993V25.995H142.871V0.199707ZM140.628 0.199707H141.75V25.995H140.628V0.199707ZM138.385 0.199707H139.507V25.995H138.385V0.199707ZM136.142 0.199707H137.264V25.995H136.142V0.199707Z" fill="white"/>
<path d="M165.271 13.5803L164.149 11.7266V0.199707H165.271V13.5803ZM167.514 17.2564L166.392 15.3716V0.199707H167.514V17.2564ZM169.757 20.9793L168.635 19.0789V0.199707H169.757V20.9793ZM153.682 12.6145L154.803 14.4681V25.995H153.682V12.6145ZM151.439 8.93834L152.56 10.8231V25.995H151.439V8.93834ZM149.195 5.21547L150.317 7.11585V25.995H149.195V5.21547ZM149.585 0.199707H150.893L166.751 25.995H165.442L149.585 0.199707ZM152.233 0.199707H153.557L169.399 25.995H168.059L152.233 0.199707ZM154.865 0.199707H156.174L170.878 24.1725V0.199707H172V25.995C172 25.995 171.559 25.995 170.676 25.995L154.865 0.199707ZM148.074 2.0222V25.995H146.952V0.199707C146.952 0.199707 147.399 0.199707 148.292 0.199707L164.103 25.995H162.81L148.074 2.0222Z" fill="white"/>
</svg>
