<svg width="76" height="36" viewBox="0 0 76 36" fill="none" xmlns="http://www.w3.org/2000/svg">
<path d="M37.6703 26.7873L28.6703 30.2326C28.2555 30.3873 27.8195 30.0709 27.8406 29.6279L28.3328 20.0021C28.3399 19.8545 28.2906 19.7068 28.1992 19.5873L22.1383 12.092C21.857 11.7475 22.0258 11.2342 22.4547 11.1146L31.7641 8.61152C31.9117 8.56934 32.0383 8.47793 32.1156 8.35137L37.375 0.279492C37.6141 -0.0931641 38.1625 -0.0931641 38.4016 0.279492L43.661 8.3584C43.7453 8.48496 43.8719 8.57637 44.0125 8.61855L53.3219 11.1217C53.7508 11.2342 53.9195 11.7545 53.6383 12.099L47.5844 19.5943C47.493 19.7139 47.4438 19.8615 47.4508 20.0092L47.943 29.635C47.9641 30.0779 47.5281 30.3943 47.1133 30.2396L38.1133 26.7943C37.9656 26.7381 37.811 26.7381 37.6703 26.7873Z" fill="#FFD19E"/>
<path d="M62.07 28.9405L56.5832 29.2244C56.3311 29.2352 56.1585 28.9772 56.2552 28.732L58.3748 23.4095C58.407 23.3278 58.4091 23.2357 58.3832 23.1517L56.5806 17.8234C56.4963 17.578 56.6857 17.3204 56.9385 17.3319L62.4094 17.6346C62.4967 17.638 62.5821 17.6099 62.648 17.5529L67.0224 13.98C67.2223 13.8144 67.5162 13.9152 67.5724 14.1686L68.833 19.6779C68.8538 19.7645 68.904 19.8392 68.9712 19.8887L73.477 23.0066C73.6851 23.1486 73.6752 23.4722 73.4581 23.6143L68.7691 26.717C68.6971 26.7674 68.6422 26.8414 68.6175 26.9257L67.0255 32.429C66.9514 32.682 66.6568 32.7798 66.4643 32.6166L62.306 29.0258C62.2377 28.967 62.1548 28.9386 62.07 28.9405Z" fill="#FFA848"/>
<path d="M13.7948 28.9405L19.2816 29.2244C19.5337 29.2352 19.7063 28.9772 19.6096 28.732L17.49 23.4095C17.4578 23.3278 17.4557 23.2357 17.4816 23.1517L19.2842 17.8234C19.3685 17.578 19.1791 17.3204 18.9263 17.3319L13.4554 17.6346C13.3681 17.638 13.2827 17.6099 13.2168 17.5529L8.84243 13.98C8.64249 13.8144 8.34861 13.9152 8.29236 14.1686L7.03178 19.6779C7.01097 19.7645 6.96078 19.8392 6.89356 19.8887L2.38785 23.0066C2.17971 23.1486 2.18961 23.4722 2.40673 23.6143L7.09571 26.717C7.16773 26.7674 7.22257 26.8414 7.24727 26.9257L8.83935 32.429C8.91345 32.682 9.20805 32.7798 9.40051 32.6166L13.5588 29.0258C13.6271 28.967 13.71 28.9386 13.7948 28.9405Z" fill="#FFA848"/>
<path d="M51.9859 3.63338L49.1031 0.750572C49.0187 0.666197 48.9062 0.631041 48.7937 0.645103C48.6812 0.659166 48.5757 0.729478 48.5195 0.827916L45.5453 6.68495C45.4609 6.8326 45.489 7.00838 45.6086 7.12792C45.6789 7.19823 45.7773 7.23338 45.8687 7.23338C45.932 7.23338 45.9953 7.21932 46.0515 7.18417L51.9015 4.21698C52 4.16073 52.0703 4.06229 52.0843 3.94276C52.1054 3.83026 52.0632 3.71776 51.9859 3.63338Z" fill="#FFA848"/>
<path d="M30.4 6.69203L27.4258 0.834996C27.3695 0.736558 27.2711 0.666246 27.1516 0.652183C27.0391 0.638121 26.9195 0.673277 26.8422 0.757652L23.9594 3.64046C23.875 3.72484 23.8398 3.83734 23.8539 3.94984C23.868 4.06234 23.9383 4.16781 24.0367 4.22406L29.8937 7.19828C29.95 7.23343 30.0133 7.2475 30.0766 7.2475C30.175 7.2475 30.2664 7.21234 30.3367 7.14203C30.4562 7.01546 30.4773 6.83265 30.4 6.69203Z" fill="#FFA848"/>
<path d="M40.2929 35.5202L38.2538 29.2765C38.2398 29.2132 38.2046 29.1569 38.1624 29.1147C38.0921 29.0444 38.0007 29.0093 37.9023 29.0093C37.7335 29.0093 37.5929 29.1218 37.5437 29.2835L35.5046 35.5272C35.4765 35.6397 35.4976 35.7593 35.5679 35.8507C35.6382 35.9421 35.7437 35.9983 35.8632 35.9983H39.9343C40.0468 35.9983 40.1593 35.9421 40.2296 35.8507C40.307 35.7522 40.328 35.6327 40.2929 35.5202Z" fill="#FFA848"/>
</svg>
