<svg width="25" height="18" viewBox="0 0 25 18" fill="none" xmlns="http://www.w3.org/2000/svg">
<path d="M13.5594 8.22435H10.9982V5.8913H13.5594V8.22435ZM13.5594 0.200073H10.9982V2.58418H13.5594V0.200073ZM16.5894 5.88738H14.0282V8.22043H16.5894V5.88738ZM10.5332 3.05551H7.97202V5.41605H10.5332V3.05551ZM13.5594 3.05551H10.9982V5.41605H13.5594V3.05551ZM24.2847 6.9832C23.7267 6.60222 22.4403 6.46475 21.4522 6.65328C21.3244 5.71063 20.8051 4.88974 19.8597 4.15133L19.3172 3.78606L18.9569 4.33594C18.2439 5.42783 18.0502 7.22672 18.8135 8.41288C18.4764 8.59748 17.8139 8.84886 16.9382 8.83315H0.0946826C-0.242419 10.8284 0.319417 13.4207 1.79957 15.1999C3.23709 16.9242 5.39145 17.8001 8.20838 17.8001C14.3072 17.8001 18.8213 14.9525 20.933 9.77972C21.7622 9.79543 23.5523 9.78365 24.4706 8.0044C24.5288 7.90621 24.7264 7.48595 24.8 7.33277L24.2847 6.9832ZM4.48088 5.88738H1.92356V8.22043H4.48476V5.88738H4.48088ZM7.50705 5.88738H4.94585V8.22043H7.50705V5.88738ZM10.5332 5.88738H7.97202V8.22043H10.5332V5.88738ZM7.50705 3.05551H4.94585V5.41605H7.50705V3.05551Z" fill="white"/>
</svg>
