<svg width="25" height="25" viewBox="0 0 25 25" fill="none" xmlns="http://www.w3.org/2000/svg">
<path fill-rule="evenodd" clip-rule="evenodd" d="M6.69655 24.8054C6.95498 24.9339 7.23881 25.0004 7.52634 24.9999H7.52684L16.5692 24.9832C17.1462 24.9832 17.6915 24.7035 18.0602 24.2425L23.6716 17.0802C24.0404 16.6025 24.1687 15.993 24.0404 15.4003L22.0364 6.45977C21.9082 5.86705 21.5235 5.38983 20.9942 5.12639L12.8818 1.15767C12.6248 1.02595 12.3365 0.960094 12.0478 0.960094C11.7586 0.959077 11.4733 1.02672 11.2143 1.15767L3.10134 5.1426C2.57251 5.40604 2.18732 5.88376 2.05909 6.47649L0.0550889 15.417C-0.0890478 16.0097 0.0550887 16.6192 0.42388 17.0969L6.03527 24.2587C6.21192 24.49 6.43812 24.677 6.69655 24.8054ZM20.144 14.7914H20.1604C20.4487 14.874 20.6251 15.1374 20.6251 15.335C20.561 15.5488 20.3527 15.7134 20.1122 15.7134C20.064 15.7134 20.0322 15.7134 19.984 15.6967C19.9676 15.6805 19.9516 15.6805 19.9357 15.6805C19.9199 15.6805 19.9039 15.6765 19.8879 15.6724C19.8718 15.6684 19.8555 15.6643 19.8393 15.6643C19.7275 15.6308 19.647 15.5979 19.551 15.5488C19.5271 15.5405 19.5032 15.5282 19.4793 15.5159C19.4551 15.5035 19.431 15.4911 19.4069 15.4829H19.3905C19.0858 15.3679 18.8135 15.2686 18.557 15.2362H18.5252C18.4527 15.2362 18.4074 15.264 18.3622 15.2918C18.3473 15.3009 18.3323 15.3101 18.3164 15.3183C18.3086 15.3183 18.3046 15.3222 18.3006 15.3263C18.2965 15.3304 18.2924 15.3345 18.2841 15.3345L18.0918 15.3015C17.9317 15.8122 17.7071 16.3229 17.4188 16.7839C16.8736 17.6729 16.1519 18.3974 15.302 18.9075L15.3825 19.1051C15.3825 19.1135 15.3784 19.1177 15.3742 19.1219C15.3701 19.1259 15.3661 19.13 15.3661 19.138C15.3628 19.1553 15.3588 19.1718 15.3548 19.1882C15.3397 19.2503 15.325 19.3105 15.3502 19.4015C15.4254 19.6338 15.5717 19.8656 15.7355 20.1252C15.746 20.1419 15.7566 20.1587 15.7672 20.1756V20.1918C15.7833 20.2165 15.7993 20.2371 15.8152 20.2576C15.8312 20.2782 15.8472 20.2988 15.8631 20.3235C15.931 20.4046 15.9902 20.4929 16.0396 20.5869C16.056 20.6036 16.0719 20.6366 16.0878 20.6695L16.0878 20.6695C16.0878 20.6775 16.0917 20.6816 16.0956 20.6857C16.0997 20.6898 16.1037 20.694 16.1037 20.7024C16.1678 20.8341 16.1678 20.9821 16.136 21.1138C16.1042 21.2455 16.0078 21.3448 15.8954 21.4107C15.8313 21.4431 15.7672 21.4598 15.7031 21.4598C15.5102 21.4598 15.3184 21.3443 15.222 21.1467C15.222 21.1467 15.2061 21.1305 15.2061 21.1138C15.1982 21.0978 15.1903 21.0857 15.1823 21.0735C15.1741 21.061 15.1659 21.0484 15.1579 21.0317C15.1256 20.9655 15.1078 20.8993 15.09 20.8331C15.0812 20.8005 15.0724 20.768 15.0619 20.7354L15.0137 20.5869V20.5707C15.0036 20.5425 14.9935 20.5146 14.9836 20.4869C14.8834 20.2077 14.7935 19.9572 14.6772 19.7475C14.6126 19.6487 14.5485 19.6158 14.4685 19.5991C14.4526 19.5828 14.4526 19.5828 14.4362 19.5828L14.3403 19.4015C14.0674 19.5013 13.7891 19.5839 13.5067 19.6487C13.0574 19.7637 12.5768 19.8133 12.1116 19.8133C11.3422 19.8133 10.5728 19.6649 9.86705 19.3853L9.75472 19.5991C9.73882 19.6158 9.73882 19.6158 9.72291 19.6158C9.70955 19.6226 9.69556 19.6287 9.68119 19.6349C9.62606 19.6589 9.56542 19.6853 9.51416 19.7637C9.38705 19.967 9.30981 20.1958 9.21629 20.4729C9.20377 20.51 9.19095 20.548 9.17768 20.5869L9.12947 20.7354C9.11918 20.7673 9.11051 20.7975 9.10186 20.8276C9.08373 20.8907 9.06567 20.9536 9.03304 21.0317C9.01367 21.0568 8.99762 21.0844 8.98533 21.1138C8.98533 21.1138 8.96943 21.1305 8.96943 21.1467C8.873 21.3281 8.68065 21.4598 8.48831 21.4598C8.42128 21.4591 8.35537 21.4423 8.29596 21.4107C8.0554 21.2952 7.95898 20.9826 8.08721 20.7024C8.08721 20.7024 8.10361 20.6857 8.10361 20.6695C8.11582 20.6399 8.13187 20.6122 8.15133 20.5869C8.16755 20.5619 8.18276 20.538 8.19746 20.5149C8.24086 20.4466 8.27988 20.3852 8.32777 20.3235C8.34373 20.2988 8.35982 20.2782 8.37598 20.2576C8.39201 20.2371 8.4081 20.2165 8.42419 20.1918V20.1756C8.60063 19.8954 8.74477 19.6487 8.84069 19.4015C8.873 19.2865 8.8407 19.2039 8.80889 19.138C8.80889 19.13 8.80497 19.1259 8.80103 19.1219C8.79702 19.1177 8.79298 19.1135 8.79298 19.1051L8.88891 18.8913C8.64835 18.7429 8.42419 18.595 8.19954 18.4136C7.2158 17.615 6.48515 16.5382 6.09912 15.3183L5.87496 15.3512C5.86663 15.3512 5.86253 15.347 5.85849 15.3429C5.85458 15.3389 5.85073 15.335 5.84315 15.335C5.83994 15.3328 5.83666 15.3305 5.83331 15.3282C5.78585 15.2953 5.724 15.2524 5.6344 15.2524H5.60209C5.34563 15.2853 5.07326 15.3841 4.76858 15.4996H4.75218C4.72814 15.5078 4.70398 15.5202 4.67975 15.5326C4.65589 15.5449 4.63197 15.5572 4.60805 15.5655C4.51212 15.6146 4.4316 15.6476 4.31928 15.6805C4.30343 15.6805 4.28759 15.6845 4.27169 15.6885C4.25566 15.6926 4.23957 15.6967 4.22335 15.6967C4.22335 15.7134 4.20745 15.7134 4.19154 15.7134C4.14333 15.7301 4.11102 15.7301 4.06281 15.7301C3.80635 15.7301 3.5981 15.5817 3.54988 15.3512C3.50167 15.0878 3.67861 14.8076 3.96689 14.7417C3.98279 14.7255 3.99919 14.7255 4.0151 14.7255C4.031 14.7255 4.04703 14.7214 4.06306 14.7172C4.07909 14.713 4.09512 14.7088 4.11102 14.7088C4.1275 14.7064 4.14364 14.704 4.15949 14.7017C4.25163 14.6881 4.33385 14.6759 4.4157 14.6759C4.4639 14.6597 4.52801 14.6597 4.57622 14.6597H4.57624H4.59214C4.92863 14.6267 5.2174 14.5938 5.45796 14.5112C5.53541 14.4734 5.59772 14.4095 5.6344 14.3304C5.6344 14.322 5.63838 14.3178 5.64235 14.3137C5.64633 14.3095 5.6503 14.3053 5.6503 14.2969L5.85856 14.2311C5.6503 12.7163 5.95498 11.1854 6.75668 9.88444C6.76768 9.85046 6.78652 9.82422 6.80762 9.79486C6.81703 9.78176 6.82689 9.76804 6.8367 9.75272L6.67666 9.6048V9.57187C6.67666 9.48929 6.67666 9.40722 6.59614 9.32464C6.41119 9.15074 6.18166 9.00681 5.908 8.83521C5.89705 8.82835 5.88604 8.82145 5.87496 8.8145L5.87495 8.81449C5.82674 8.78156 5.77853 8.74864 5.73082 8.73192C5.6344 8.68278 5.55388 8.63313 5.45746 8.56727C5.44143 8.55911 5.42944 8.54669 5.41742 8.53425C5.40558 8.52199 5.39372 8.50971 5.37793 8.50141C5.36967 8.50141 5.36557 8.4973 5.3615 8.49322C5.3575 8.48919 5.35352 8.4852 5.34563 8.4852C5.12147 8.28763 5.07326 7.95834 5.2333 7.74404C5.31382 7.62905 5.45796 7.56319 5.60209 7.56319C5.73132 7.5642 5.85557 7.6103 5.95498 7.6949C5.95498 7.70489 5.96102 7.70873 5.96948 7.71411C5.97476 7.71746 5.98099 7.72141 5.98729 7.72783C6.00572 7.74692 6.02416 7.76039 6.0395 7.7716C6.05063 7.77972 6.06012 7.78666 6.06681 7.79369C6.14069 7.86636 6.21039 7.94333 6.27556 8.0242C6.30892 8.04698 6.33466 8.07753 6.35789 8.10509C6.36824 8.11737 6.37809 8.12905 6.38789 8.13919C6.61204 8.38642 6.82079 8.6002 7.02954 8.74864C7.07164 8.77943 7.12188 8.79656 7.17368 8.79778C7.18958 8.79778 7.20561 8.79373 7.22164 8.78967C7.23767 8.78562 7.2537 8.78157 7.26961 8.78157H7.30191L7.46195 8.89656C8.31319 7.96931 9.41989 7.32643 10.6364 7.05253C10.9247 6.98679 11.213 6.95386 11.5008 6.92099L11.5023 6.92082L11.5187 6.70703L11.5505 6.6741C11.5565 6.66792 11.5627 6.66174 11.5691 6.65544C11.6139 6.61118 11.6648 6.56093 11.6787 6.45981C11.7045 6.24973 11.679 6.01872 11.6513 5.76677C11.6442 5.70277 11.637 5.63742 11.6305 5.57072V5.55451C11.6232 5.52413 11.6193 5.49736 11.6156 5.4725C11.6112 5.44305 11.6073 5.41628 11.5987 5.38936C11.5664 5.29057 11.5505 5.19178 11.5505 5.07678V4.94507C11.5505 4.79663 11.5987 4.66491 11.6946 4.56613C11.791 4.46734 11.9193 4.40148 12.0475 4.40148C12.3199 4.40148 12.5445 4.6487 12.5445 4.94507V5.09299C12.5307 5.19295 12.5166 5.28039 12.5027 5.36615C12.5006 5.37948 12.4984 5.39278 12.4963 5.40607C12.4804 5.45572 12.4645 5.52107 12.4645 5.57072V5.58693C12.4626 5.60579 12.4608 5.62455 12.459 5.64321C12.4287 5.95013 12.4013 6.22818 12.4163 6.47652C12.4303 6.57792 12.4818 6.62851 12.5268 6.67275C12.5329 6.67868 12.5388 6.6845 12.5445 6.69031L12.5768 6.72324L12.5927 6.93753C13.8155 7.05451 14.9791 7.52895 15.9437 8.30384C16.1683 8.50142 16.392 8.69899 16.6007 8.92949L16.7936 8.79778H16.8254C16.8572 8.8145 16.8895 8.8145 16.9218 8.8145C16.9736 8.81312 17.0239 8.79582 17.0659 8.76485C17.2747 8.61692 17.4824 8.41935 17.7071 8.17212C17.7404 8.14934 17.7662 8.11879 17.7894 8.09123C17.7998 8.07895 17.8096 8.06727 17.8194 8.05713C17.8835 7.97455 17.9477 7.90869 18.0277 7.82662C18.0437 7.81833 18.0557 7.80604 18.0677 7.79378C18.0798 7.78134 18.0919 7.76893 18.1082 7.76076L18.14 7.72783C18.2523 7.64526 18.3647 7.59612 18.4929 7.59612C18.637 7.59612 18.7812 7.66197 18.8617 7.77697C19.0217 7.99127 18.9735 8.32056 18.7493 8.51813C18.7493 8.52812 18.7433 8.53195 18.7348 8.53734C18.7296 8.54069 18.7233 8.54464 18.717 8.55106C18.6989 8.56988 18.6805 8.58323 18.6653 8.59434C18.6538 8.60268 18.6441 8.60975 18.6375 8.61692C18.5411 8.68278 18.4606 8.73192 18.3642 8.78157C18.3401 8.79816 18.316 8.8105 18.2917 8.82288C18.2679 8.83507 18.2439 8.8473 18.22 8.86364C18.2052 8.87298 18.1904 8.88224 18.1758 8.89142C17.9071 9.06033 17.6812 9.20227 17.4983 9.37429C17.4347 9.45636 17.4188 9.53894 17.4188 9.62101V9.65394L17.2583 9.80237C17.6775 10.4632 17.9812 11.193 18.1559 11.9595C18.3286 12.7203 18.3666 13.5063 18.2682 14.2807L18.4765 14.3466C18.4765 14.355 18.4806 14.3592 18.4848 14.3633C18.4888 14.3674 18.4929 14.3715 18.4929 14.3795L18.4934 14.3806C18.5256 14.4461 18.5576 14.5115 18.6693 14.5609C18.9258 14.643 19.1982 14.6759 19.5351 14.7088H19.551C19.6152 14.7255 19.6634 14.7255 19.7111 14.7255C19.7978 14.7255 19.8844 14.7386 19.9823 14.7534C19.9933 14.7551 20.0045 14.7568 20.0158 14.7585C20.0319 14.7585 20.0479 14.7625 20.064 14.7666C20.08 14.7706 20.096 14.7747 20.1122 14.7747C20.1122 14.7914 20.1281 14.7914 20.144 14.7914ZM12.0311 14.3304L12.7369 13.9844L12.8974 13.2108L12.4158 12.5851H11.6305L11.1499 13.2108L11.3258 13.9844L12.0311 14.3304ZM17.0336 13.9352C17.0838 13.378 17.0461 12.8167 16.9218 12.2721C16.7931 11.6955 16.5848 11.1687 16.3124 10.7077L14.3721 12.5026C14.3248 12.5532 14.2917 12.6159 14.2761 12.6839C14.2517 12.7948 14.2696 12.9109 14.3262 13.0088C14.3828 13.1067 14.4738 13.1789 14.5808 13.2108L17.0336 13.9352ZM13.4426 11.2513L15.5426 9.71979C14.7679 8.92255 13.7503 8.41752 12.6568 8.28763L12.8015 10.9716L12.8018 10.9729C12.8176 11.0379 12.8336 11.1037 12.881 11.1525C12.946 11.2369 13.0394 11.2938 13.1432 11.3121C13.2469 11.3303 13.3536 11.3086 13.4426 11.2513ZM11.1496 8.3203C11.0654 8.33677 10.9811 8.35323 10.8929 8.3697C9.98684 8.57884 9.15816 9.04722 8.50421 9.71979L10.6364 11.2842C10.6951 11.3177 10.7615 11.3346 10.8288 11.3333C11.0693 11.3333 11.2458 11.1357 11.2622 10.9052L11.4063 8.27091C11.3181 8.28737 11.2339 8.30384 11.1496 8.3203ZM9.64239 12.4529L7.73482 10.7077V10.7082C7.15728 11.6793 6.91672 12.8156 7.01314 13.9352L9.49826 13.1941C9.57626 13.1762 9.64488 13.1292 9.69061 13.0624C9.83474 12.881 9.81884 12.6013 9.64239 12.4529ZM9.85114 14.7255L7.30141 15.1698L7.30191 15.1703C7.67629 16.2313 8.37985 17.1389 9.30591 17.7555L10.2841 15.3345C10.3159 15.2524 10.3159 15.1698 10.3 15.071C10.2779 14.9684 10.2205 14.8771 10.1382 14.8137C10.0559 14.7504 9.95408 14.7191 9.85114 14.7255ZM12.0316 18.5782C12.4163 18.5782 12.7851 18.5291 13.1539 18.4465C13.2239 18.425 13.294 18.4066 13.3627 18.3886C13.4512 18.3654 13.5375 18.3427 13.6186 18.3148L12.384 16.026C12.3318 15.9535 12.2667 15.8922 12.1916 15.8451C12.0152 15.7463 11.8069 15.8122 11.6787 15.9601L10.4123 18.3148C10.9357 18.4862 11.4818 18.5751 12.0316 18.5782ZM14.7409 17.755C15.3502 17.3431 15.8795 16.8163 16.2801 16.1577C16.4893 15.8519 16.6466 15.5125 16.7454 15.1536L14.1797 14.7088C14.0997 14.7088 14.0197 14.7255 13.9556 14.7585C13.8664 14.8044 13.7955 14.8801 13.7546 14.973C13.7137 15.0659 13.7054 15.1702 13.7309 15.2686L14.7409 17.755Z" fill="white"/>
</svg>
