<svg width="26" height="24" viewBox="0 0 26 24" fill="none" xmlns="http://www.w3.org/2000/svg">
<path fill-rule="evenodd" clip-rule="evenodd" d="M13.0219 23.6215L17.7436 9.09009H8.30029L13.0219 23.6215Z" fill="white"/>
<path fill-rule="evenodd" clip-rule="evenodd" d="M13.0223 23.6215L8.30063 9.09009H1.68262L13.0223 23.6215Z" fill="white" fill-opacity="0.7"/>
<path fill-rule="evenodd" clip-rule="evenodd" d="M1.68304 9.09009L0.24807 13.5059C0.184248 13.7022 0.184237 13.9138 0.248037 14.1101C0.311837 14.3065 0.436172 14.4777 0.60322 14.599L13.0222 23.6215L1.68253 9.09009H1.68304Z" fill="white" fill-opacity="0.5"/>
<path fill-rule="evenodd" clip-rule="evenodd" d="M1.68311 9.09008H8.30009L5.45684 0.337573C5.31005 -0.112524 4.67314 -0.112524 4.52688 0.337573L1.68362 9.09008H1.68311Z" fill="white" fill-opacity="0.5"/>
<path fill-rule="evenodd" clip-rule="evenodd" d="M13.0225 23.6215L17.7441 9.09009H24.3611L13.022 23.6215H13.0225Z" fill="white" fill-opacity="0.7"/>
<path fill-rule="evenodd" clip-rule="evenodd" d="M24.3611 9.09009L25.7961 13.5059C25.8599 13.7022 25.8599 13.9138 25.7961 14.1101C25.7323 14.3065 25.608 14.4777 25.4409 14.599L13.0225 23.6215L24.3611 9.09009Z" fill="white" fill-opacity="0.5"/>
<path fill-rule="evenodd" clip-rule="evenodd" d="M24.3606 9.09008H17.7437L20.5869 0.337573C20.7337 -0.112524 21.3706 -0.112524 21.5169 0.337573L24.3606 9.09008Z" fill="white" fill-opacity="0.5"/>
</svg>
