<svg width="32" height="36" viewBox="0 0 32 36" fill="none" xmlns="http://www.w3.org/2000/svg">
<path d="M15.7543 26.789L6.75431 30.2344C6.33946 30.389 5.90353 30.0726 5.92462 29.6297L6.41681 20.0039C6.42384 19.8562 6.37462 19.7086 6.28322 19.589L0.222276 12.0937C-0.0589737 11.7492 0.109776 11.2359 0.538682 11.1164L9.84806 8.61326C9.99572 8.57108 10.1223 8.47967 10.1996 8.35311L15.459 0.281232C15.6981 -0.0914246 16.2465 -0.0914246 16.4856 0.281232L21.7449 8.36014C21.8293 8.4867 21.9559 8.57811 22.0965 8.62029L31.4059 11.1234C31.8348 11.2359 32.0035 11.7562 31.7223 12.1008L25.6684 19.5961C25.577 19.7156 25.5277 19.8633 25.5348 20.0109L26.027 29.6367C26.0481 30.0797 25.6121 30.3961 25.1973 30.2414L16.1973 26.7961C16.0496 26.7398 15.8949 26.7398 15.7543 26.789Z" fill="#FFD19E"/>
<path d="M30.0693 3.63519L27.1865 0.752373C27.1022 0.667998 26.9897 0.632841 26.8772 0.646904C26.7647 0.660966 26.6592 0.731279 26.6029 0.829716L23.6287 6.68675C23.5443 6.8344 23.5725 7.01019 23.692 7.12972C23.7623 7.20003 23.8607 7.23519 23.9522 7.23519C24.0154 7.23519 24.0787 7.22112 24.135 7.18597L29.985 4.21878C30.0834 4.16253 30.1537 4.06409 30.1678 3.94456C30.1889 3.83206 30.1467 3.71956 30.0693 3.63519Z" fill="#FFA848"/>
<path d="M8.48368 6.69374L5.50946 0.836705C5.45321 0.738267 5.35477 0.667955 5.23524 0.653892C5.12274 0.63983 5.00321 0.674986 4.92587 0.759361L2.04305 3.64217C1.95868 3.72655 1.92352 3.83905 1.93758 3.95155C1.95165 4.06405 2.02196 4.16952 2.1204 4.22577L7.97743 7.19999C8.03368 7.23514 8.09696 7.2492 8.16024 7.2492C8.25868 7.2492 8.35008 7.21405 8.4204 7.14374C8.53993 7.01717 8.56102 6.83436 8.48368 6.69374Z" fill="#FFA848"/>
<path d="M18.3765 35.5219L16.3374 29.2782C16.3234 29.2149 16.2882 29.1586 16.246 29.1164C16.1757 29.0461 16.0843 29.011 15.9859 29.011C15.8171 29.011 15.6765 29.1235 15.6273 29.2852L13.5882 35.5289C13.5601 35.6414 13.5812 35.761 13.6515 35.8524C13.7218 35.9438 13.8273 36 13.9468 36H18.0179C18.1304 36 18.2429 35.9438 18.3132 35.8524C18.3906 35.7539 18.4117 35.6344 18.3765 35.5219Z" fill="#FFA848"/>
</svg>
