<svg width="32" height="32" viewBox="0 0 32 32" fill="none" xmlns="http://www.w3.org/2000/svg">
<path d="M16 0C7.175 0 0 7.175 0 16C0 24.825 7.175 32 16 32C24.825 32 32 24.825 32 16C32 7.175 24.825 0 16 0Z" fill="#21B672"/>
<path fill-rule="evenodd" clip-rule="evenodd" d="M19.5571 23.9224C20.6755 24.4117 21.0948 23.3865 21.0948 23.3865L24.0538 8.52191C24.0305 7.52006 22.6792 8.12583 22.6792 8.12583L6.11374 14.6262C6.11374 14.6262 5.32159 14.9058 5.39148 15.395C5.46138 15.8843 6.09045 16.1173 6.09045 16.1173L10.2609 17.5152C10.2609 17.5152 11.5191 21.6391 11.7753 22.4313C12.0083 23.2001 12.218 23.2234 12.218 23.2234C12.451 23.3166 12.6607 23.1535 12.6607 23.1535L15.3633 20.7072L19.5571 23.9224ZM20.2792 11.1553C20.2792 11.1553 20.8617 10.8058 20.8384 11.1553C20.8384 11.1553 20.9316 11.2019 20.6287 11.5281C20.3491 11.8077 13.7556 17.7256 12.8702 18.5177C12.8003 18.5643 12.7537 18.6342 12.7537 18.7274L12.4974 20.9175C12.4508 21.1505 12.148 21.1738 12.0781 20.9641L10.983 17.3761C10.9364 17.2363 10.983 17.0732 11.1228 16.98L20.2792 11.1553Z" fill="white"/>
</svg>
