<svg width="70" height="70" viewBox="0 0 70 70" fill="none" xmlns="http://www.w3.org/2000/svg">
<rect width="70" height="70" rx="10" fill="#0F0F18"/>
<g clip-path="url(#clip0)">
<path d="M55.0416 50.5229V53.2638C53.6462 53.2638 52.2758 53.2762 50.9178 53.2388C50.7932 53.2388 50.6064 52.9523 50.569 52.7779C50.4319 52.1176 50.3572 51.4448 50.2451 50.6599C50.0956 50.8593 50.0083 50.9714 49.9336 51.0835C48.5258 53.2139 46.4452 54.086 43.9784 53.6001C41.5366 53.1142 39.917 51.4697 39.4685 48.9656C39.3563 48.3427 39.319 47.6824 39.3065 47.047C39.2816 44.8418 39.294 42.6491 39.294 40.444V39.6716H36.8397V36.856H42.1969C42.2093 37.1425 42.2342 37.3792 42.2342 37.6284C42.2342 40.6433 42.2218 43.6458 42.2467 46.6608C42.2592 47.3335 42.3215 48.0312 42.4834 48.6915C42.9568 50.5104 44.4768 51.3825 46.3082 50.9839C48.2268 50.5603 49.7218 48.9033 49.8339 46.748C49.9585 44.4307 49.8588 42.1134 49.8588 39.6591H47.0557V36.9058H52.8364V50.5229H55.0416Z" fill="#FEEBEF"/>
<path d="M54.0324 30.1281C52.662 31.9346 50.9178 33.0309 48.7126 33.4171C44.0656 34.2269 39.593 31.187 38.6836 26.5649C37.5249 20.6721 42.5706 15.4146 48.5133 16.3365C50.1952 16.5982 51.7899 17.109 53.1229 18.2178C53.3223 18.3922 53.4967 18.7161 53.5091 18.9777C53.5465 20.1738 53.5216 21.3698 53.5216 22.6281H50.706C50.706 21.8307 50.7309 21.0458 50.6935 20.2734C50.6811 20.0367 50.5066 19.7128 50.3073 19.6007C48.1645 18.4669 44.539 18.3673 42.5706 21.4943C40.8389 24.2477 41.5116 27.9728 44.0282 29.7419C46.2583 31.3116 49.4103 30.9752 51.3663 28.9445C51.5158 28.795 51.6404 28.6455 51.8397 28.4337C52.5498 29.0068 53.26 29.555 54.0324 30.1281Z" fill="#FEEBEF"/>
<path d="M37.8364 16.673V19.4761C37.1885 19.4761 36.5407 19.5135 35.9053 19.4637C35.3571 19.4138 35.108 19.6132 34.9211 20.124C33.3762 24.3225 31.794 28.5085 30.2492 32.707C30.0747 33.1929 29.863 33.4047 29.3272 33.3549C28.6794 33.2926 27.8571 33.5168 27.3962 33.2054C26.9601 32.9064 26.8854 32.0841 26.6611 31.4736C25.3281 27.7361 23.9701 23.9985 22.662 20.2485C22.4377 19.6132 22.1512 19.4138 21.5158 19.4637C20.8804 19.5135 20.2326 19.4761 19.51 19.4761V16.673H22.9983C24.6304 16.673 24.6304 16.673 25.1412 18.1804C26.2874 21.5318 27.446 24.8831 28.5922 28.2344C28.6545 28.3964 28.7168 28.5583 28.8289 28.8573C29.0656 28.1721 29.2774 27.6115 29.4643 27.0509C30.5855 23.7743 31.7193 20.5102 32.8281 17.2336C32.9651 16.8225 33.1271 16.6356 33.6005 16.648C35.0083 16.6979 36.4037 16.673 37.8364 16.673Z" fill="#FEEBEF"/>
<path d="M30.9469 41.8268V39.2479C30.1869 39.4846 29.4768 39.5967 28.8912 39.9206C27.2591 40.8176 26.3871 42.2877 26.3123 44.1316C26.2375 46.125 26.2998 48.1183 26.2998 50.1117C26.2998 50.2487 26.3248 50.3982 26.3497 50.5976H33.289V53.2263H20.7309V50.5976H23.3472V39.4721H20.7309V36.9181H25.8015C25.8638 37.9024 25.9261 38.8866 25.9884 39.8708C27.8696 37.0054 30.598 36.5568 33.6753 36.9057V41.8143H30.9469V41.8268Z" fill="#FEEBEF"/>
<path d="M17.8032 50.5103H15V53.2885H17.8032V50.5103Z" fill="#FEEBEF"/>
</g>
<defs>
<clipPath id="clip0">
<rect x="15" y="16.2495" width="40.0415" height="37.5" fill="white"/>
</clipPath>
</defs>
</svg>
