<svg width="250" height="80" viewBox="0 0 250 80" fill="none" xmlns="http://www.w3.org/2000/svg">
<path d="M240 1.25C242.32 1.25263 244.544 2.17534 246.184 3.81572C247.825 5.45609 248.747 7.68016 248.75 10V70C248.747 72.3198 247.825 74.5439 246.184 76.1843C244.544 77.8247 242.32 78.7474 240 78.75H10C7.68016 78.7474 5.45609 77.8247 3.81572 76.1843C2.17534 74.5439 1.25263 72.3198 1.25 70V10C1.25263 7.68016 2.17534 5.45609 3.81572 3.81572C5.45609 2.17534 7.68016 1.25263 10 1.25H240Z" fill="white"/>
<path d="M240 1.25C242.32 1.25263 244.544 2.17534 246.184 3.81572C247.825 5.45609 248.747 7.68016 248.75 10V70C248.747 72.3198 247.825 74.5439 246.184 76.1843C244.544 77.8247 242.32 78.7474 240 78.75H10C7.68016 78.7474 5.45609 77.8247 3.81572 76.1843C2.17534 74.5439 1.25263 72.3198 1.25 70V10C1.25263 7.68016 2.17534 5.45609 3.81572 3.81572C5.45609 2.17534 7.68016 1.25263 10 1.25H240ZM240 0H10C7.34784 0 4.8043 1.05357 2.92893 2.92893C1.05357 4.8043 0 7.34784 0 10L0 70C0 72.6522 1.05357 75.1957 2.92893 77.0711C4.8043 78.9464 7.34784 80 10 80H240C242.652 80 245.196 78.9464 247.071 77.0711C248.946 75.1957 250 72.6522 250 70V10C250 7.34784 248.946 4.8043 247.071 2.92893C245.196 1.05357 242.652 0 240 0V0Z" fill="#CCCCCC"/>
<path d="M79.7615 39.2685C79.7615 42.924 81.1959 44.9051 83.3481 45.9987L78.771 56.0087H81.8108L85.979 46.6476H88.1653V56.0087H90.7962V31.5819H86.8673C83.0066 31.5819 79.7616 34.1439 79.7616 39.2685H79.7615ZM88.1653 44.4614H86.7643C84.4758 44.4614 82.5969 43.1974 82.5969 39.2685C82.5969 35.2033 84.6469 33.8023 86.7643 33.8023H88.1653L88.1653 44.4614Z" fill="#FF0000"/>
<path d="M100.84 46.1013H96.8775V38.79H94.2125V56.0088H96.8775V48.2875H100.84V56.0088H103.471V38.79H100.84V46.1013Z" fill="black"/>
<path d="M140.948 38.79H138.249L134.115 46.75V38.79H131.45V56.0088H134.115V47.4338L138.659 56.0088H141.562L136.678 46.8863L140.948 38.79Z" fill="black"/>
<path d="M115.804 38.7903H107.81V40.2595C107.81 44.8374 107.639 50.1665 106.067 53.822H105.008V59.3904H107.399V56.0083H114.779V59.3904H117.17V53.822H115.804V38.7903ZM113.173 53.822H108.595C110.03 50.1665 110.201 44.8715 110.201 41.25V40.9425H113.173V53.822Z" fill="black"/>
<path d="M150.786 52.9679C149.981 53.6644 148.948 54.0411 147.883 54.0267C145.73 54.0267 144.705 51.567 144.705 47.2632C144.705 42.9239 146.072 40.7716 147.985 40.7716C149.04 40.8295 150.043 41.2522 150.821 41.9674L151.197 39.4395C150.256 38.8203 149.145 38.5097 148.019 38.5512C143.988 38.5512 141.904 42.0015 141.904 47.3995C141.904 53.2754 144.124 56.2479 147.814 56.2479C149.131 56.2837 150.412 55.82 151.401 54.9499L150.786 52.9679Z" fill="black"/>
<path d="M124.754 53.9586C122.637 53.9586 121.543 51.9093 121.543 48.0145H128.717V46.5453C128.717 40.7035 126.838 38.5512 123.969 38.5512C120.313 38.5512 118.776 42.5824 118.776 48.1167C118.776 53.4117 120.962 56.248 124.515 56.248C126.045 56.2722 127.538 55.7785 128.752 54.847L128.137 52.7977C127.154 53.5208 125.974 53.9259 124.754 53.9586L124.754 53.9586ZM123.969 40.7375C125.506 40.7375 125.985 42.8898 125.985 45.8281H121.577C121.748 42.7535 122.329 40.7375 123.969 40.7375" fill="black"/>
<path d="M165.037 56.3326C164.095 56.3366 163.174 56.0572 162.394 55.5307C161.518 54.9188 160.808 54.0982 160.329 53.1431C159.699 51.9063 159.251 50.5848 158.999 49.2197C158.66 47.4379 158.5 45.6266 158.521 43.8129C158.502 42.0216 158.662 40.2329 158.999 38.4735C159.253 37.1036 159.701 35.777 160.329 34.5335C160.811 33.5661 161.519 32.7294 162.394 32.0944C163.166 31.5478 164.09 31.2556 165.037 31.2583C165.987 31.2502 166.917 31.5364 167.698 32.0777C168.563 32.7016 169.27 33.5193 169.762 34.4654C170.403 35.6868 170.858 36.9979 171.11 38.3546C171.446 40.0965 171.606 41.8678 171.587 43.6418C171.606 45.4556 171.446 47.2669 171.11 49.0493C170.857 50.4383 170.403 51.783 169.762 53.0408C169.276 54.0102 168.569 54.8515 167.698 55.4966C166.921 56.0477 165.99 56.3402 165.037 56.3326ZM165.037 54.968C165.747 54.9663 166.434 54.7185 166.981 54.2668C167.65 53.6947 168.176 52.9739 168.517 52.1621C169.003 51.0416 169.341 49.8626 169.523 48.6548C169.779 47.0306 169.898 45.3881 169.881 43.744C170.034 40.9008 169.568 38.0584 168.517 35.4124C167.607 33.5525 166.447 32.6227 165.037 32.623C163.65 32.623 162.501 33.5528 161.592 35.4124C160.539 38.0581 160.074 40.9008 160.227 43.744C160.069 46.6211 160.534 49.4984 161.592 52.1787C162.501 54.0386 163.649 54.9684 165.037 54.9681" fill="black"/>
<path d="M179.433 56.3326C178.664 56.3398 177.908 56.1329 177.25 55.7351C176.533 55.2787 175.941 54.6516 175.527 53.9101C174.98 52.9381 174.594 51.884 174.384 50.7887C174.09 49.3006 173.952 47.7855 173.975 46.2687C173.956 44.1202 174.07 41.9726 174.315 39.838C174.472 38.2981 174.863 36.7911 175.475 35.3695C175.924 34.3149 176.664 33.4099 177.608 32.76C178.589 32.1606 179.716 31.8419 180.866 31.8384C181.461 31.844 182.054 31.7577 182.623 31.5825C183.01 31.441 183.372 31.2396 183.697 30.9858L184.107 32.2759C183.196 32.9848 182.048 33.3168 180.9 33.203C180.129 33.1936 179.37 33.3931 178.703 33.7804C178.036 34.1678 177.487 34.7284 177.114 35.4028C176.088 37.5512 175.54 39.8967 175.51 42.2772C175.849 41.2618 176.428 40.3433 177.198 39.5996C177.906 38.9691 178.827 38.6333 179.775 38.6613C180.52 38.6659 181.251 38.871 181.89 39.2551C182.529 39.6392 183.053 40.1882 183.407 40.8445C184.45 42.8144 184.928 45.034 184.789 47.2585C184.803 48.5381 184.666 49.8149 184.379 51.0622C184.154 52.0695 183.774 53.036 183.254 53.9277C182.838 54.6476 182.26 55.2607 181.565 55.7186C180.929 56.1248 180.188 56.3381 179.433 56.3327V56.3326ZM179.399 54.9681C179.996 54.9264 180.568 54.7149 181.049 54.3585C181.529 54.0022 181.898 53.5158 182.111 52.9569C182.91 51.2161 183.279 49.3086 183.185 47.3955C183.292 45.5066 182.953 43.619 182.196 41.8849C181.998 41.3658 181.654 40.9147 181.206 40.5851C180.759 40.2556 180.226 40.0615 179.671 40.0259C179.212 40.0402 178.76 40.1479 178.344 40.3426C177.928 40.5373 177.555 40.8149 177.25 41.1583C176.44 42.0185 175.865 43.0719 175.578 44.2179V46.6514C175.45 48.7983 175.823 50.9456 176.67 52.9228C176.883 53.4882 177.253 53.9811 177.736 54.3434C178.22 54.7058 178.796 54.9225 179.399 54.9681" fill="black"/>
<path d="M189.735 50.0215C189.621 50.9994 189.496 51.8637 189.359 52.6143C189.253 53.2667 189.064 53.9029 188.797 54.5075C188.596 54.972 188.279 55.3772 187.876 55.6842C187.46 55.9696 186.964 56.1132 186.46 56.0939C186.369 56.0956 186.278 56.0898 186.187 56.0765C186.118 56.0645 186.049 56.0473 185.982 56.025C185.912 56.0095 185.843 55.9869 185.778 55.9576L185.641 54.5249C185.693 54.5597 185.751 54.583 185.812 54.5931C186.003 54.6253 186.198 54.6367 186.392 54.6271C186.915 54.6271 187.341 54.2235 187.671 53.4163C188.068 52.2674 188.292 51.0659 188.336 49.8511C188.359 49.5096 188.381 49.0888 188.405 48.5888C188.427 48.0888 188.455 47.5486 188.49 46.9682C188.524 46.3882 188.552 45.7857 188.575 45.1607C188.597 44.5347 188.62 43.9148 188.643 43.3009C188.711 41.8911 188.768 40.39 188.814 38.7975H195.978V55.9917H194.375V40.0598H190.213C190.167 41.4473 190.121 42.7665 190.076 44.0172C190.054 44.5632 190.03 45.1211 190.008 45.6892C189.985 46.2574 189.956 46.8031 189.923 47.3264C189.888 47.8502 189.855 48.3447 189.82 48.8106C189.786 49.2766 189.758 49.6802 189.735 50.0215" fill="black"/>
<path d="M206.997 55.9919C206.929 55.7644 206.855 55.4742 206.775 55.121C206.678 54.643 206.615 54.1586 206.587 53.6716C206.228 54.4271 205.704 55.0918 205.052 55.6163C204.29 56.1709 203.347 56.4175 202.411 56.3067C201.474 56.196 200.615 55.736 200.003 55.0188C199.218 53.9635 198.832 52.6648 198.912 51.3522C198.856 50.5922 198.958 49.8289 199.21 49.1098C199.462 48.3908 199.86 47.7314 200.378 47.1729C201.558 46.1571 203.09 45.6481 204.643 45.7568H206.519V43.5958C206.605 42.5824 206.353 41.5692 205.803 40.7137C205.539 40.4077 205.207 40.1677 204.834 40.0127C204.461 39.8578 204.057 39.7923 203.654 39.8214C202.94 39.8186 202.237 39.9914 201.607 40.3246C200.976 40.6578 200.437 41.1412 200.038 41.732L199.594 40.1962C200.013 39.6802 200.543 39.2662 201.146 38.9854C201.928 38.6138 202.788 38.4326 203.654 38.4568C204.257 38.4168 204.861 38.5039 205.428 38.7125C205.995 38.9211 206.512 39.2465 206.945 39.6677C207.793 40.7328 208.201 42.0811 208.088 43.4373V52.819C208.089 53.4174 208.123 54.0153 208.19 54.6099C208.231 55.079 208.323 55.5424 208.464 55.9919L206.997 55.9919ZM203.176 54.968C203.566 54.9693 203.952 54.8816 204.304 54.7117C204.655 54.5417 204.964 54.2939 205.205 53.987C205.788 53.2876 206.234 52.4842 206.519 51.6192V46.9169H204.677C204.107 46.8693 203.534 46.9344 202.989 47.1086C202.445 47.2828 201.94 47.5626 201.504 47.932C201.127 48.379 200.843 48.8961 200.668 49.4535C200.492 50.0108 200.429 50.5974 200.481 51.1794C200.417 52.1698 200.675 53.1543 201.215 53.987C201.435 54.2993 201.73 54.5522 202.072 54.7233C202.414 54.8944 202.793 54.9785 203.176 54.968" fill="black"/>
<path d="M213.376 55.9912H211.773V38.7975H213.376V46.8837L219.141 38.7975H220.711L215.049 46.78L221.12 55.9912H219.346L213.376 47.0875V55.9912Z" fill="black"/>
<path d="M227.09 56.3326C226.358 56.3376 225.639 56.1431 225.009 55.77C224.334 55.3572 223.767 54.7901 223.354 54.1154C222.838 53.2661 222.464 52.3385 222.246 51.3688C221.699 48.828 221.699 46.2 222.246 43.6592C222.467 42.6638 222.841 41.7086 223.354 40.8278C223.765 40.124 224.331 39.5231 225.009 39.071C225.627 38.6668 226.351 38.4532 227.09 38.4568C227.82 38.4516 228.538 38.64 229.171 39.0028C229.851 39.4093 230.419 39.9778 230.825 40.6574C231.339 41.5138 231.714 42.4465 231.934 43.4207C232.48 45.9556 232.48 48.5779 231.934 51.1128C231.709 52.107 231.335 53.0616 230.825 53.9442C230.418 54.6551 229.852 55.2623 229.171 55.7185C228.552 56.1226 227.829 56.3361 227.09 56.3326ZM227.09 54.968C227.649 54.9234 228.185 54.7259 228.639 54.3972C229.093 54.0685 229.448 53.6212 229.665 53.1043C230.496 51.315 230.866 49.3462 230.741 47.3773C230.756 46.2243 230.659 45.0724 230.451 43.9382C230.305 43.1192 230.04 42.3258 229.665 41.583C229.399 41.0457 229 40.5853 228.506 40.2454C228.085 39.9695 227.593 39.8222 227.09 39.8215C226.535 39.863 226.001 40.0553 225.548 40.3778C225.094 40.7003 224.736 41.1406 224.515 41.6512C223.679 43.4388 223.309 45.4085 223.439 47.3773C223.423 48.5308 223.521 49.683 223.73 50.8173C223.875 51.6366 224.139 52.4301 224.515 53.1725C224.784 53.7127 225.182 54.1781 225.674 54.5275C226.091 54.8132 226.584 54.9667 227.09 54.9681" fill="black"/>
<path d="M83.5595 25.1569C83.0648 25.1639 82.5731 25.079 82.1094 24.9066C81.6892 24.7492 81.3086 24.5017 80.9942 24.1815C80.6754 23.8508 80.4316 23.4553 80.2795 23.0218C80.1062 22.5254 80.0214 22.0023 80.0293 21.4764C80.0211 20.951 80.0988 20.4277 80.2594 19.9274C80.399 19.497 80.631 19.1025 80.9393 18.7714C81.2483 18.4493 81.6262 18.2014 82.0447 18.0463C82.5236 17.8729 83.0302 17.7885 83.5394 17.7972C83.9711 17.7902 84.4018 17.8423 84.8193 17.9522C85.1342 18.0337 85.4369 18.1564 85.7196 18.3172V19.2169C85.4014 19.0161 85.0513 18.8708 84.6844 18.7872C84.3064 18.6949 83.9188 18.6478 83.5296 18.6468C83.1844 18.6179 82.8371 18.6661 82.5129 18.7879C82.1886 18.9098 81.8954 19.1021 81.6546 19.3512C81.2065 19.9651 80.9919 20.7186 81.0492 21.4764C80.9884 22.244 81.2226 23.0058 81.7041 23.6066C81.9594 23.8527 82.2637 24.0422 82.5972 24.163C82.9307 24.2837 83.2858 24.3329 83.6395 24.3072C84.003 24.3077 84.3648 24.2571 84.7143 24.1571C85.0779 24.0502 85.4187 23.8772 85.7196 23.6468V24.5465C85.4631 24.7325 85.1774 24.8745 84.8743 24.9664C84.4494 25.1017 84.0053 25.166 83.5595 25.1569Z" fill="black"/>
<path d="M91.2695 24.6198C91.1827 24.6807 91.0926 24.7369 90.9997 24.7882C90.8745 24.8565 90.7441 24.9149 90.6097 24.9628C90.4405 25.0233 90.2666 25.0698 90.0897 25.1019C89.8752 25.1404 89.6576 25.1588 89.4397 25.1569C89.077 25.1827 88.7128 25.1328 88.3703 25.0105C88.0278 24.8882 87.7144 24.6961 87.45 24.4464C86.9693 23.8991 86.7246 23.1838 86.7695 22.4567C86.7635 22.0718 86.8264 21.689 86.955 21.3263C87.0667 21.0124 87.2418 20.7248 87.4695 20.4816C87.6894 20.2522 87.9552 20.0717 88.2495 19.9518C88.5609 19.8261 88.894 19.7631 89.2298 19.7662C89.5725 19.7603 89.9129 19.8252 90.2295 19.9567C90.5155 20.0777 90.7653 20.2708 90.9546 20.517C91.1545 20.7869 91.2881 21.1001 91.3446 21.4313C91.4148 21.8505 91.4132 22.2785 91.3397 22.6972H87.6794C87.6745 23.1672 87.8542 23.6204 88.1799 23.9594C88.5571 24.2638 89.0362 24.4131 89.5196 24.3769C89.8707 24.385 90.2202 24.3271 90.5499 24.206C90.8029 24.109 91.0442 23.9841 91.2695 23.8337L91.2695 24.6198ZM89.2096 20.5463C88.8511 20.5387 88.5024 20.6635 88.23 20.8966C87.9336 21.1748 87.7488 21.5515 87.71 21.9562H90.4999C90.5281 21.7653 90.5131 21.5706 90.4559 21.3863C90.3988 21.2021 90.3009 21.0331 90.1697 20.8917C89.9069 20.6558 89.5624 20.5318 89.2096 20.5463Z" fill="black"/>
<path d="M95.2295 25.1569C94.8646 25.1661 94.5049 25.069 94.1943 24.8773C93.8998 24.6852 93.6602 24.4197 93.4991 24.1071V26.8268H92.6196V19.8663H93.3893L93.4796 20.8771C93.64 20.5516 93.881 20.2725 94.1797 20.0665C94.5036 19.8575 94.8839 19.7527 95.2692 19.7662C95.5657 19.7654 95.8595 19.8217 96.1346 19.9323C96.412 20.0424 96.6614 20.213 96.8646 20.4315C97.0863 20.6748 97.2564 20.9605 97.3645 21.2714C97.4949 21.6526 97.5575 22.0538 97.5494 22.4567C97.5581 22.8632 97.4938 23.2679 97.3596 23.6517C97.2482 23.9634 97.0746 24.2491 96.8494 24.4916C96.6425 24.7106 96.3899 24.8815 96.1096 24.9921C95.8293 25.102 95.5306 25.1579 95.2295 25.1569ZM95.0995 24.3769C95.3089 24.3845 95.5175 24.3458 95.7102 24.2635C95.903 24.1812 96.0752 24.0573 96.2146 23.9008C96.528 23.4894 96.6792 22.9772 96.6394 22.4616C96.6762 21.9497 96.5252 21.4419 96.2146 21.0334C96.0769 20.874 95.9053 20.7476 95.7123 20.6633C95.5194 20.579 95.3099 20.539 95.0995 20.5463C94.8818 20.5446 94.6659 20.5856 94.4641 20.6671C94.2696 20.7462 94.0954 20.868 93.9545 21.0236C93.8013 21.1966 93.6856 21.3994 93.6145 21.6193C93.4476 22.1684 93.4476 22.7547 93.6145 23.3039C93.6864 23.5252 93.8021 23.7298 93.9545 23.9057C94.0935 24.0632 94.2682 24.185 94.4641 24.2609C94.6668 24.3391 94.8823 24.3784 95.0995 24.3768V24.3769Z" fill="black"/>
<path d="M98.7195 19.8663H100.659C101.154 19.8338 101.648 19.9471 102.079 20.1923C102.24 20.3054 102.369 20.4584 102.453 20.6362C102.537 20.814 102.574 21.0105 102.559 21.2067C102.573 21.4721 102.489 21.7333 102.324 21.9415C102.147 22.1369 101.916 22.2747 101.66 22.337C101.814 22.3421 101.966 22.3783 102.106 22.4434C102.246 22.5085 102.372 22.6011 102.476 22.7159C102.579 22.8306 102.658 22.9651 102.709 23.1112C102.759 23.2573 102.78 23.4121 102.769 23.5663C102.776 23.8049 102.721 24.0413 102.609 24.2523C102.503 24.441 102.352 24.6004 102.169 24.7162C101.963 24.8448 101.734 24.9331 101.494 24.9762C101.213 25.0317 100.926 25.0587 100.639 25.0567H98.7195V19.8663ZM99.599 20.6171V22.027H100.579C100.859 22.0398 101.137 21.9775 101.384 21.8463C101.479 21.7968 101.557 21.7218 101.611 21.6299C101.665 21.538 101.692 21.4328 101.689 21.3263C101.702 21.2171 101.683 21.1067 101.635 21.0078C101.587 20.9089 101.512 20.8255 101.419 20.7672C101.179 20.6544 100.914 20.6028 100.649 20.6171L99.599 20.6171ZM99.599 22.7264V24.3073H100.629C100.798 24.3083 100.967 24.2965 101.134 24.2718C101.27 24.2532 101.402 24.211 101.524 24.1473C101.629 24.0916 101.717 24.0086 101.779 23.9069C101.842 23.7941 101.874 23.6662 101.869 23.537C101.881 23.4136 101.859 23.2892 101.804 23.1779C101.749 23.0667 101.665 22.9729 101.559 22.9071C101.27 22.7688 100.95 22.7066 100.629 22.7264L99.599 22.7264Z" fill="black"/>
<path d="M105.068 23.8568L107.839 19.8663H108.729V25.0568H107.848V21.0773L105.088 25.0568H104.189V19.8663H105.068V23.8568Z" fill="black"/>
<path d="M112.509 25.1569C112.139 25.1619 111.771 25.099 111.424 24.9713C111.111 24.8578 110.828 24.6753 110.595 24.4374C110.362 24.1995 110.185 23.9122 110.079 23.5968C109.953 23.23 109.893 22.8443 109.899 22.4567C109.893 22.0718 109.956 21.689 110.084 21.3263C110.197 21.0104 110.376 20.7223 110.609 20.4816C110.844 20.2465 111.127 20.0657 111.439 19.9518C111.795 19.8233 112.171 19.7604 112.549 19.7662C112.846 19.7636 113.141 19.7989 113.429 19.8712C113.667 19.9284 113.891 20.0321 114.089 20.1764V20.9662C113.869 20.824 113.628 20.7177 113.374 20.6512C113.108 20.5811 112.834 20.5458 112.559 20.5462C112.316 20.5252 112.071 20.5563 111.841 20.6376C111.61 20.7189 111.4 20.8484 111.224 21.0175C110.909 21.4301 110.758 21.9443 110.799 22.4616C110.758 22.9765 110.904 23.489 111.209 23.9056C111.378 24.0743 111.582 24.2039 111.807 24.2853C112.032 24.3668 112.271 24.398 112.509 24.3769C112.801 24.3799 113.093 24.3412 113.374 24.2621C113.623 24.1912 113.863 24.0917 114.089 23.9655V24.7504C113.876 24.8736 113.65 24.9699 113.414 25.0373C113.12 25.1211 112.815 25.1614 112.509 25.1569Z" fill="black"/>
<path d="M118.759 22.757H116.249V25.0568H115.369V19.8663H116.249V22.0062H118.759V19.8663H119.639V25.0568H118.759L118.759 22.757Z" fill="black"/>
<path d="M125.019 23.327C125.026 23.5958 124.971 23.8626 124.859 24.107C124.756 24.3215 124.602 24.507 124.409 24.6466C124.201 24.7937 123.967 24.8989 123.719 24.9566C123.434 25.0256 123.142 25.0592 122.849 25.0567H121.179V19.8663H122.059V21.6766H122.909C123.453 21.6461 123.994 21.7824 124.459 22.0673C124.651 22.2129 124.803 22.4048 124.901 22.6251C124.999 22.8454 125.04 23.0869 125.019 23.327ZM122.059 22.4274V24.3072H122.849C123.171 24.3213 123.491 24.2465 123.774 24.0912C123.893 24.0161 123.989 23.9098 124.051 23.7839C124.114 23.6579 124.141 23.5172 124.129 23.3771C124.142 23.2383 124.12 23.0984 124.064 22.9707C124.008 22.843 123.92 22.7316 123.809 22.6471C123.538 22.4854 123.224 22.4089 122.909 22.4273L122.059 22.4274ZM126.649 25.0568H125.769V19.8663H126.649V25.0568Z" fill="black"/>
<path d="M129.069 23.8568L131.839 19.8663H132.729V25.0568H131.849V21.0773L129.089 25.0568H128.189V19.8663H129.069V23.8568ZM130.479 19.1766C130.243 19.1812 130.008 19.1457 129.784 19.0716C129.602 19.0108 129.435 18.9122 129.294 18.7823C129.166 18.6622 129.067 18.5149 129.004 18.3514C128.939 18.1807 128.907 17.9993 128.909 17.8167H129.789C129.774 17.9122 129.781 18.0099 129.809 18.1021C129.838 18.1944 129.888 18.2787 129.955 18.3485C130.022 18.4182 130.104 18.4716 130.195 18.5043C130.286 18.537 130.383 18.5482 130.479 18.537C130.661 18.5473 130.841 18.4865 130.979 18.3673C131.045 18.2926 131.095 18.2053 131.126 18.1106C131.157 18.0159 131.168 17.9159 131.159 17.8167H132.039C132.042 17.9952 132.01 18.1727 131.944 18.3385C131.878 18.5044 131.779 18.6553 131.654 18.7823C131.495 18.9239 131.309 19.0318 131.107 19.0996C130.905 19.1674 130.691 19.1936 130.479 19.1766Z" fill="black"/>
<path d="M137.169 19.8663H141.328V25.0568H140.449V20.6171H138.048V25.0568H137.169V19.8663Z" fill="black"/>
<path d="M145.908 24.0668C145.842 24.1975 145.765 24.3228 145.679 24.4415C145.58 24.5767 145.462 24.6965 145.328 24.7967C145.178 24.9085 145.011 24.9962 144.833 25.0567C144.619 25.1275 144.394 25.1613 144.169 25.1568C143.755 25.1758 143.35 25.0341 143.038 24.7613C142.89 24.6141 142.774 24.4367 142.7 24.241C142.626 24.0454 142.595 23.8361 142.609 23.6273C142.591 23.3852 142.636 23.1426 142.741 22.9234C142.845 22.7043 143.005 22.516 143.204 22.3773C143.717 22.0802 144.307 21.9409 144.899 21.9769H145.869V21.5472C145.883 21.406 145.865 21.2635 145.816 21.1301C145.768 20.9968 145.69 20.8761 145.588 20.777C145.303 20.5962 144.965 20.5151 144.628 20.5462C144.318 20.545 144.01 20.5974 143.718 20.7012C143.452 20.7959 143.194 20.9148 142.949 21.0565V20.2667C143.188 20.1295 143.441 20.0174 143.704 19.9322C144.04 19.8181 144.393 19.7619 144.749 19.7662C145.277 19.7301 145.801 19.8729 146.239 20.1715C146.416 20.3262 146.554 20.5203 146.643 20.7383C146.731 20.9562 146.768 21.1919 146.749 21.4263V24.2169C146.749 24.2767 146.75 24.345 146.754 24.4219C146.757 24.4988 146.76 24.5769 146.763 24.6563C146.767 24.7369 146.772 24.8113 146.779 24.8821C146.785 24.9517 146.792 25.0103 146.799 25.0567H145.999C145.973 24.926 145.955 24.7939 145.944 24.6612C145.927 24.4915 145.919 24.3438 145.919 24.2169L145.908 24.0668ZM144.359 24.3768C144.603 24.3838 144.845 24.3248 145.059 24.2059C145.238 24.1029 145.397 23.9681 145.529 23.8079C145.638 23.6752 145.726 23.5261 145.789 23.366C145.831 23.2681 145.858 23.1644 145.869 23.0584V22.6763H144.988C144.593 22.6474 144.198 22.7259 143.843 22.9034C143.729 22.9742 143.635 23.0746 143.573 23.194C143.51 23.3135 143.481 23.4475 143.488 23.5821C143.48 23.7937 143.555 24.0001 143.699 24.1559C143.788 24.2361 143.892 24.2971 144.006 24.3351C144.119 24.3731 144.239 24.3873 144.359 24.3768L144.359 24.3768Z" fill="black"/>
<path d="M150.839 25.1569C150.474 25.1661 150.114 25.069 149.803 24.8773C149.509 24.6852 149.269 24.4197 149.108 24.1071V26.8268H148.229V19.8663H148.998L149.089 20.8771C149.249 20.5516 149.49 20.2725 149.789 20.0665C150.113 19.8575 150.493 19.7527 150.878 19.7662C151.175 19.7654 151.469 19.8217 151.744 19.9323C152.021 20.0424 152.271 20.213 152.474 20.4315C152.695 20.6748 152.865 20.9605 152.974 21.2714C153.104 21.6526 153.167 22.0538 153.159 22.4567C153.167 22.8632 153.103 23.2679 152.969 23.6517C152.857 23.9634 152.684 24.2491 152.459 24.4916C152.252 24.7106 151.999 24.8815 151.719 24.9921C151.438 25.102 151.14 25.1579 150.839 25.1569ZM150.709 24.3769C150.918 24.3845 151.127 24.3458 151.319 24.2635C151.512 24.1812 151.684 24.0573 151.824 23.9008C152.137 23.4894 152.288 22.9772 152.249 22.4616C152.285 21.9497 152.134 21.4419 151.824 21.0334C151.686 20.874 151.514 20.7476 151.321 20.6633C151.128 20.579 150.919 20.539 150.709 20.5463C150.491 20.5446 150.275 20.5856 150.073 20.6671C149.879 20.7462 149.705 20.868 149.564 21.0236C149.41 21.1966 149.295 21.3994 149.224 21.6193C149.057 22.1684 149.057 22.7547 149.224 23.3039C149.296 23.5252 149.411 23.7298 149.564 23.9057C149.703 24.0632 149.877 24.185 150.073 24.2609C150.276 24.3391 150.491 24.3784 150.709 24.3768L150.709 24.3769Z" fill="black"/>
<path d="M156.418 20.6171V25.0568H155.538V20.6171H153.909V19.8663H158.079V20.6171H156.418Z" fill="black"/>
<path d="M162.589 22.757H160.078V25.0568H159.199V19.8663H160.078V22.0062H162.589V19.8663H163.469V25.0568H162.589V22.757Z" fill="black"/>
<path d="M169.138 24.6197C169.051 24.6807 168.961 24.7369 168.868 24.7882C168.743 24.8565 168.613 24.9149 168.478 24.9628C168.309 25.0232 168.135 25.0698 167.958 25.1019C167.744 25.1404 167.526 25.1588 167.308 25.1569C166.946 25.1827 166.581 25.1328 166.239 25.0105C165.896 24.8882 165.583 24.6961 165.319 24.4464C164.838 23.8991 164.593 23.1838 164.638 22.4567C164.632 22.0718 164.695 21.689 164.824 21.3263C164.935 21.0124 165.11 20.7248 165.338 20.4816C165.558 20.2522 165.824 20.0716 166.118 19.9518C166.43 19.8261 166.763 19.7631 167.098 19.7662C167.441 19.7603 167.782 19.8251 168.098 19.9567C168.384 20.0777 168.634 20.2708 168.823 20.517C169.023 20.7869 169.157 21.1001 169.213 21.4313C169.283 21.8504 169.282 22.2785 169.208 22.6971H165.548C165.543 23.1672 165.723 23.6204 166.049 23.9594C166.426 24.2638 166.905 24.4131 167.388 24.3769C167.739 24.385 168.089 24.3271 168.419 24.206C168.672 24.109 168.913 23.9841 169.138 23.8336L169.138 24.6197ZM166.129 18.847C166.054 18.8491 165.98 18.8361 165.91 18.8088C165.841 18.7815 165.778 18.7405 165.724 18.6882C165.671 18.6358 165.629 18.5733 165.6 18.5044C165.572 18.4354 165.558 18.3614 165.558 18.2867C165.557 18.2119 165.57 18.1375 165.597 18.0679C165.625 17.9983 165.666 17.9349 165.718 17.8815C165.83 17.7757 165.977 17.7167 166.131 17.7167C166.285 17.7167 166.432 17.7757 166.544 17.8815C166.647 17.9909 166.702 18.1365 166.699 18.2867C166.701 18.4338 166.645 18.5759 166.544 18.6823C166.49 18.7376 166.425 18.7808 166.354 18.8093C166.282 18.8377 166.205 18.8505 166.129 18.847H166.129ZM167.078 20.5463C166.72 20.5388 166.371 20.6635 166.099 20.8966C165.802 21.1748 165.617 21.5515 165.579 21.9562H168.369C168.397 21.7653 168.382 21.5706 168.325 21.3864C168.268 21.2021 168.17 21.0331 168.038 20.8917C167.776 20.6558 167.431 20.5318 167.078 20.5462L167.078 20.5463ZM168.008 18.847C167.932 18.8506 167.855 18.8377 167.783 18.8093C167.712 18.7809 167.647 18.7376 167.593 18.6822C167.492 18.576 167.436 18.4339 167.438 18.2867C167.434 18.1364 167.49 17.9907 167.593 17.8815C167.706 17.7756 167.854 17.7166 168.008 17.7166C168.163 17.7166 168.311 17.7756 168.424 17.8815C168.527 17.9909 168.582 18.1365 168.579 18.2867C168.581 18.4338 168.525 18.5759 168.424 18.6822C168.37 18.7376 168.305 18.7808 168.234 18.8093C168.162 18.8377 168.085 18.8505 168.008 18.847H168.008Z" fill="black"/>
<path d="M173.098 25.1569C172.733 25.1661 172.374 25.069 172.063 24.8773C171.768 24.6852 171.529 24.4197 171.368 24.1071V26.8268H170.488V19.8663H171.258L171.348 20.8771C171.509 20.5516 171.75 20.2725 172.048 20.0665C172.372 19.8575 172.753 19.7527 173.138 19.7662C173.434 19.7654 173.728 19.8217 174.003 19.9323C174.281 20.0424 174.53 20.213 174.733 20.4315C174.955 20.6748 175.125 20.9605 175.233 21.2714C175.364 21.6526 175.426 22.0538 175.418 22.4567C175.427 22.8632 175.362 23.2679 175.228 23.6517C175.117 23.9634 174.943 24.2491 174.718 24.4916C174.511 24.7106 174.259 24.8815 173.978 24.9921C173.698 25.102 173.399 25.1579 173.098 25.1569ZM172.968 24.3769C173.178 24.3845 173.386 24.3458 173.579 24.2635C173.772 24.1812 173.944 24.0573 174.083 23.9008C174.397 23.4894 174.548 22.9772 174.508 22.4616C174.545 21.9497 174.394 21.4419 174.083 21.0334C173.946 20.874 173.774 20.7476 173.581 20.6633C173.388 20.579 173.179 20.539 172.968 20.5463C172.75 20.5446 172.535 20.5856 172.333 20.6671C172.138 20.7462 171.964 20.868 171.823 21.0236C171.67 21.1966 171.554 21.3994 171.483 21.6193C171.316 22.1684 171.316 22.7547 171.483 23.3039C171.555 23.5252 171.671 23.7298 171.823 23.9057C171.962 24.0632 172.137 24.185 172.333 24.2609C172.535 24.3391 172.751 24.3784 172.968 24.3768L172.968 24.3769Z" fill="black"/>
<path d="M33.2641 67.1768C29.0564 68.2648 27.8722 68.6136 25.8416 67.9182C22.0444 66.4776 20.3428 62.6704 20.7936 59.8105L25.2964 34.5521C25.8027 31.7006 28.4833 26.5929 35.752 24.8826C41.8706 23.4429 46.0683 21.7831 47.4438 23.5693C47.5828 23.7498 48.6004 24.777 47.9006 28.3309C46.9805 33.0028 46.9541 33.2027 46.9541 33.2027C39.6656 34.7358 36.2692 35.6966 35.3571 40.108L33.9283 46.9137C34.7279 46.8614 32.8012 53.2137 33.3792 54.9462C33.9572 56.2937 35.5308 56.5303 36.6545 56.2937C38.4753 55.9102 40.3892 55.0864 45.4686 53.8043C48.6071 53.0121 53.6091 50.3263 54.1871 43.2039L56.6918 28.9592L58.0404 20.6819C58.4073 18.0486 58.7748 15.6734 56.6764 13.367C59.0865 15.275 64.4318 19.462 66.5731 21.196C67.7764 22.4684 68.0805 23.6278 67.624 26.039L63.5292 51.9531C62.9514 55.6097 60.2534 60.5342 53.9305 62.1568C47.0306 63.9274 37.3452 66.1741 33.2641 67.1768C29.0564 68.2648 28.0856 68.5409 25.8416 67.9182L33.2641 67.1768Z" fill="#2364FF"/>
<path d="M47.0618 12.8232C51.2695 11.7352 52.4537 11.3864 54.4843 12.0817C58.2815 13.5224 59.2124 16.9445 58.7616 19.8045L54.6442 45.0629C54.1379 47.9144 51.8426 53.022 44.5739 54.7324C38.4553 56.1721 34.7381 57.8168 33.3626 56.0306C33.2236 55.8501 32.3594 55.1241 33.0354 51.5656C33.9235 46.8898 33.9284 46.9137 33.9284 46.9137C41.2169 45.3806 43.9731 44.3664 44.9687 39.892L46.3734 33.2102C47.3207 28.0448 47.942 26.1171 47.2537 24.706C46.8055 23.4393 45.7121 23.2608 44.5884 23.4975C42.7676 23.881 39.9367 24.5285 34.8572 25.8106C31.7187 26.6028 26.8008 29.5136 25.6591 35.7264L22.8821 52.9442L21.6932 60.3286C21.3263 62.9619 21.5059 64.3321 23.6044 66.6384C21.1943 64.7305 15.8941 60.538 13.7528 58.8039C12.5495 57.5316 12.2454 56.3722 12.7019 53.961L16.7967 28.0469C17.3745 24.3903 20.0725 19.4658 26.3954 17.8432C33.2953 16.0726 42.9807 13.8259 47.0618 12.8232C51.2695 11.7352 52.2403 11.4591 54.4843 12.0817C58.2973 13.6015 59.2124 16.9445 58.7616 19.8045" fill="#96CAFF"/>
</svg>
