<svg width="80" height="58" viewBox="0 0 80 58" fill="none" xmlns="http://www.w3.org/2000/svg">
<path d="M43.74 26.3423H35.478V18.6833H43.74V26.3423ZM43.74 0H35.478V7.82663H43.74V0ZM53.5143 18.6704H45.2524V26.3294H53.5143V18.6704ZM33.9781 9.3739H25.7162V17.1232H33.9781V9.3739ZM43.74 9.3739H35.478V17.1232H43.74V9.3739ZM78.3376 22.2678C76.5377 21.0171 72.388 20.5658 69.2007 21.1848C68.7883 18.0902 67.1134 15.3954 64.0636 12.9713L62.3137 11.7722L61.1513 13.5773C58.8514 17.1618 58.2265 23.0673 60.6888 26.9612C59.6014 27.5673 57.464 28.3925 54.6392 28.3409H0.305428C-0.781998 34.891 1.03038 43.401 5.80505 49.242C10.4422 54.9024 17.3918 57.7778 26.4786 57.7778C46.1523 57.7778 60.7138 48.4297 67.5259 31.4483C70.2007 31.4999 75.9753 31.4612 78.9376 25.6203C79.1251 25.2979 79.7625 23.9183 80 23.4154L78.3376 22.2678ZM14.4545 18.6704H6.20503V26.3294H14.467V18.6704H14.4545ZM24.2163 18.6704H15.9544V26.3294H24.2163V18.6704ZM33.9781 18.6704H25.7162V26.3294H33.9781V18.6704ZM24.2163 9.3739H15.9544V17.1232H24.2163V9.3739Z" fill="#0B9EF1"/>
</svg>
