<svg width="66" height="53" viewBox="0 0 66 53" fill="none" xmlns="http://www.w3.org/2000/svg">
<g clip-path="url(#clip0)">
<path d="M43.8924 14.632L49.6291 8.90081L50.0104 6.48896C39.5574 -3.00772 22.9396 -1.92992 13.5138 8.7355C10.8795 11.7577 8.96657 15.3381 7.91934 19.2065L9.97311 18.916L21.4472 17.0293L22.3315 16.1248C24.7857 13.4143 28.1823 11.7407 31.829 11.4453C35.4757 11.1499 39.0979 12.2549 41.9573 14.535L43.8924 14.632Z" fill="#E2433A"/>
<path d="M57.804 19.0351C56.4854 14.1837 53.7776 9.82244 50.0129 6.48645L41.9603 14.5305C43.6382 15.9 44.983 17.6323 45.8932 19.5966C46.8033 21.5609 47.255 23.7061 47.2142 25.8702V27.2972C49.1042 27.2972 50.9167 28.0472 52.2531 29.3822C53.5895 30.7172 54.3403 32.5278 54.3403 34.4157C54.3403 36.3037 53.5895 38.1143 52.2531 39.4493C50.9167 40.7842 49.1042 41.5342 47.2142 41.5342H32.8634L31.455 43.0627V51.6504L32.8634 52.9991H47.2147C51.2125 53.0413 55.1174 51.7948 58.35 49.4447C61.5825 47.0945 63.9705 43.7659 65.1594 39.9528C66.3483 36.1397 66.2748 32.0453 64.9499 28.2772C63.625 24.5091 61.1193 21.2681 57.8045 19.0351" fill="#4484EA"/>
<path d="M18.5288 52.999H32.8645V41.5372H18.5288C17.5144 41.5364 16.5122 41.3174 15.5902 40.895L13.5565 41.5171L7.77901 47.2478L7.276 49.1979C10.5103 51.6592 14.4628 52.9943 18.5288 52.999Z" fill="#38A255"/>
<path d="M18.5292 15.8198C14.6457 15.8434 10.8664 17.078 7.71928 19.3512C4.57215 21.6244 2.21428 24.8226 0.974945 28.4993C-0.264388 32.176 -0.323299 36.1475 0.80644 39.8592C1.93618 43.5709 4.19816 46.8376 7.27648 49.2029L15.5912 40.8971C14.5346 40.4203 13.6097 39.6946 12.8956 38.7822C12.1816 37.8698 11.6998 36.7979 11.4917 35.6587C11.2835 34.5194 11.3551 33.3466 11.7004 32.2411C12.0457 31.1355 12.6544 30.1301 13.4741 29.3112C14.2939 28.4923 15.3004 27.8843 16.4071 27.5394C17.5138 27.1945 18.6878 27.1229 19.8283 27.3309C20.9688 27.5388 22.0418 28.0201 22.9552 28.7334C23.8686 29.4466 24.5951 30.3706 25.0724 31.426L33.3871 23.1202C31.6419 20.8411 29.3926 18.9962 26.815 17.7298C24.2375 16.4633 21.4017 15.8096 18.5292 15.8198Z" fill="#F3B62C"/>
</g>
<defs>
<clipPath id="clip0">
<rect width="66" height="53" fill="white"/>
</clipPath>
</defs>
</svg>
