<svg width="79" height="80" viewBox="0 0 79 80" fill="none" xmlns="http://www.w3.org/2000/svg">
<path d="M29.3716 78.4427C23.4197 79.9816 21.7446 80.4751 18.8723 79.4914C13.501 77.4536 11.0939 72.0682 11.7316 68.0227L18.101 32.2937C18.8172 28.2601 22.609 21.0351 32.8909 18.6158C41.5459 16.5792 47.4838 14.2314 49.4295 16.7581C49.6261 17.0134 51.0655 18.4665 50.0756 23.4935C48.7741 30.1022 48.7367 30.3849 48.7367 30.3849C38.4268 32.5536 33.6225 33.9126 32.3324 40.1527L30.3112 49.7796C31.4422 49.7056 28.7169 58.6913 29.5345 61.142C30.3521 63.048 32.578 63.3828 34.1676 63.048C36.7432 62.5056 39.4504 61.3404 46.6355 59.5268C51.075 58.4062 58.1506 54.6069 58.9682 44.5321L62.5111 24.3823L64.4188 12.6737C64.9377 8.94881 65.4576 5.58893 62.4893 2.32654C65.8985 5.02543 73.4597 10.9481 76.4886 13.401C78.1908 15.2008 78.6209 16.8408 77.9752 20.2515L72.1829 56.9081C71.3656 62.0805 67.5491 69.0464 58.6051 71.3416C48.845 73.8463 35.1446 77.0243 29.3716 78.4427C23.4197 79.9816 22.0465 80.3722 18.8723 79.4914L29.3716 78.4427Z" fill="#3A75F4"/>
<path d="M48.8891 1.55726C54.8411 0.0183122 56.5161 -0.475145 59.3885 0.508503C64.7598 2.54636 66.0767 7.38712 65.439 11.4326L59.6147 47.1617C58.8985 51.1952 55.6518 58.4202 45.3698 60.8396C36.7149 62.8761 31.4567 65.2027 29.511 62.6759C29.3144 62.4206 28.092 61.3936 29.0481 56.36C30.3045 49.7459 30.3113 49.7797 30.3113 49.7797C40.6212 47.611 44.52 46.1764 45.9284 39.8473L47.9153 30.3955C49.2553 23.0889 50.1342 20.3621 49.1605 18.366C48.5266 16.5743 46.9799 16.3218 45.3903 16.6566C42.8147 17.199 38.8103 18.115 31.6252 19.9286C27.1857 21.0492 20.2291 25.1665 18.614 33.9548L14.6858 58.3101L13.0041 68.7557C12.4852 72.4806 12.7393 74.4188 15.7076 77.6812C12.2984 74.9823 4.80106 69.0519 1.77213 66.599C0.0699673 64.7992 -0.360151 63.1592 0.285587 59.7485L6.07782 23.0918C6.89512 17.9194 10.7116 10.9535 19.6556 8.65833C29.4158 6.15368 43.1161 2.97565 48.8891 1.55726C54.8411 0.0183122 56.2142 -0.372263 59.3885 0.508503C64.7822 2.65827 66.0767 7.38712 65.439 11.4326" fill="#97C8F6"/>
</svg>
